<?xml version="1.0" encoding="UTF-8"?>
<svg width="32px" height="32px" viewBox="0 0 32 32" version="1.1" xmlns="http://www.w3.org/2000/svg" xmlns:xlink="http://www.w3.org/1999/xlink">
    <!-- Generator: Sketch 58 (84663) - https://sketch.com -->
    <title>Group 46</title>
    <desc>Created with Sketch.</desc>
    <g id="Page-1" stroke="none" stroke-width="1" fill="none" fill-rule="evenodd" opacity="0.5">
        <g id="events-paricipiants" transform="translate(-1092.000000, -294.000000)" fill="#2E3537">
            <g id="Group-46" transform="translate(1092.000000, 294.000000)">
                <path d="M6.26160357,27.6730182 L11.7891429,24.5814056 C12.1823328,24.0142051 12.3789278,23.6157646 12.3789278,23.386084 C12.3789278,23.1564035 12.4269574,22.549958 12.5230167,21.5667476 L11.7891429,20.6193153 L10.9468238,18.7610032 L10.4870925,17.2648822 C10.2022133,17.0460394 10.0597736,16.936618 10.0597736,16.936618 C10.0597736,16.936618 9.90535184,16.624412 9.59650825,16 L10.0597736,13.355197 L10.288882,12.7889388 L10.4870925,11.7267 L10.288882,9.36412731 L10.4870925,8.06227888 L11.2679189,6.68459952 L13.1918636,5.81818182 L15.2794861,5.22755516 L17.0123894,5.22755516 L18.7623573,5.61862466 L20.21405,6.25455434 L20.9842742,7.31830779 L21.4882318,8.06227888 L21.6699837,9.56617483 C21.6699837,10.0513851 21.6699837,10.3378463 21.6699837,10.4255584 C21.6699837,10.5571265 21.6699837,11.2860526 21.6699837,11.5872559 C21.6699837,11.7880581 21.6699837,12.128338 21.6699837,12.6080957 L21.9904728,13.355197 L22.1606128,14.1274182 L22.1606128,15.3544678 L22.1606128,16.6045169 L21.9904728,16.936618 L21.6699837,17.2648822 L21.241756,17.2648822 L20.9842742,18.0454056 L20.3941863,19.1814559 L19.9640402,19.8278868 L19.4159573,20.8445867 L19.2026007,21.4342706 L19.2026007,22.3877612 L19.2026007,23.6900136 L19.4159573,24.5814056 L20.21405,24.8803875 L22.5067492,25.9033478 L25.4869754,27.6730182 L26.0276873,28.002986 L29.8805245,23.0750863 L31.371294,18.50857 L31.371294,13.9160025 L30.8363636,11.9844848 L29.8805245,9.06090456 L28.1516601,6.25455434 L26.9721913,5.01732881 L25.7031592,3.75799012 C24.6496714,3.11721372 24.1229274,2.79682552 24.1229274,2.79682552 C24.1229274,2.79682552 22.7057675,1.91987263 22.5067492,1.91987263 C22.3740703,1.91987263 21.3438063,1.66779388 19.4159573,1.16363636 C18.0184198,0.960240482 17.3196511,0.858542541 17.3196511,0.858542541 C17.3196511,0.858542541 16.5901865,0.858542541 15.1312573,0.858542541 L13.5580937,0.858542541 L10.4870925,1.53001482 L8.56870128,2.48401032 L6.73179547,3.75799012 L4.14900008,6.25455434 L3.39180149,6.95520789 L2.82453364,8.06227888 L2.00675108,9.90786839 L1.16363636,11.9844848 L0.884837029,13.355197 L0.61907537,15.1325285 L0.61907537,16.3677346 L0.61907537,18.50857 L1.16363636,20.4154503 L1.83661112,21.9715494 L2.66358224,23.6900136 L3.39180149,24.8803875 L4.14900008,26.0929756 L4.87267554,26.9277216 L5.53576703,27.3536269 L6.26160357,27.6730182 Z" id="Path-5"></path>
                <g id="user-copy" fill-rule="nonzero">
                    <path d="M32,16 C32,7.17789091 24.8221091,0 16,0 C7.17789091,0 0,7.17789091 0,16 C0,20.6597818 2.00378182,24.8599273 5.19330909,27.7864727 L5.17818182,27.7998545 L5.69716364,28.2373818 C5.73090909,28.2658909 5.76756364,28.2891636 5.80130909,28.3170909 C6.07709091,28.5457455 6.36276364,28.7627636 6.65367273,28.9728 C6.74792727,29.0408727 6.84218182,29.1089455 6.93818182,29.1752727 C7.24887273,29.3893818 7.56770909,29.5924364 7.89352727,29.7850182 C7.96450909,29.8269091 8.03607273,29.8676364 8.10763636,29.9083636 C8.46429091,30.1114182 8.82850909,30.3028364 9.20145455,30.4785455 C9.2288,30.4913455 9.25672727,30.5029818 9.28407273,30.5157818 C10.4994909,31.0807273 11.7969455,31.4955636 13.1537455,31.7405091 C13.1892364,31.7469091 13.2247273,31.7533091 13.2608,31.7597091 C13.6820364,31.8324364 14.1079273,31.8906182 14.5390545,31.9296 C14.5914182,31.9342545 14.6437818,31.9371636 14.6967273,31.9418182 C15.1261091,31.9773091 15.5601455,32 16,32 C16.4357818,32 16.8657455,31.9773091 17.2928,31.9429818 C17.3469091,31.9383273 17.4010182,31.9354182 17.4551273,31.9307636 C17.8827636,31.8917818 18.3051636,31.8353455 18.7223273,31.7637818 C18.7584,31.7573818 18.7950545,31.7509818 18.8311273,31.744 C20.1675636,31.5042909 21.4464,31.0987636 22.6461091,30.5483636 C22.6903273,30.528 22.7351273,30.5088 22.7793455,30.4878545 C23.1383273,30.3191273 23.4891636,30.1370182 23.8330182,29.9432727 C23.9185455,29.8949818 24.0034909,29.8461091 24.0884364,29.7960727 C24.4014545,29.6116364 24.7092364,29.4190545 25.0082909,29.2142545 C25.1159273,29.1409455 25.2212364,29.0635636 25.3277091,28.9867636 C25.5831273,28.8029091 25.8338909,28.6132364 26.0776727,28.4148364 C26.1317818,28.3712 26.1899636,28.3333818 26.2429091,28.2885818 L26.7752727,27.8440727 L26.7595636,27.8306909 C29.9770182,24.9029818 32,20.6836364 32,16 Z M1.16363636,16 C1.16363636,7.81905455 7.81905455,1.16363636 16,1.16363636 C24.1809455,1.16363636 30.8363636,7.81905455 30.8363636,16 C30.8363636,20.4084364 28.9018182,24.3717818 25.8391273,27.0912 C25.6680727,26.9730909 25.4958545,26.8672 25.3195636,26.7787636 L20.3933091,24.3159273 C19.9511273,24.0948364 19.6765091,23.6503273 19.6765091,23.1563636 L19.6765091,21.4359273 C19.7905455,21.2951273 19.9109818,21.1357091 20.0354909,20.9605818 C20.6731636,20.0599273 21.1845818,19.0580364 21.5575273,17.9799273 C22.2946909,17.6296727 22.7706182,16.8954182 22.7706182,16.0663273 L22.7706182,14.0037818 C22.7706182,13.4993455 22.5856,13.0100364 22.2545455,12.6254545 L22.2545455,9.91010909 C22.2848,9.60814545 22.3918545,7.904 21.1589818,6.49832727 C20.0866909,5.27418182 18.3511273,4.65454545 16,4.65454545 C13.6488727,4.65454545 11.9133091,5.27418182 10.8410182,6.49774545 C9.60814545,7.90341818 9.7152,9.60756364 9.74545455,9.90952727 L9.74545455,12.6248727 C9.41498182,13.0094545 9.22938182,13.4987636 9.22938182,14.0032 L9.22938182,16.0657455 C9.22938182,16.7063273 9.5168,17.3038545 10.0090182,17.7070545 C10.4802909,19.5531636 11.4501818,20.9506909 11.8085818,21.4242909 L11.8085818,23.1080727 C11.8085818,23.5828364 11.5496727,24.0192 11.1325091,24.2472727 L6.53207273,26.7566545 C6.38545455,26.8363636 6.24,26.9294545 6.09454545,27.0336 C3.06967273,24.3153455 1.16363636,20.3764364 1.16363636,16 Z M24.7034182,28.0040727 C24.4997818,28.1518545 24.2926545,28.2949818 24.0826182,28.4317091 C23.9860364,28.4945455 23.8900364,28.5573818 23.7917091,28.6184727 C23.5170909,28.7883636 23.2378182,28.9501091 22.9527273,29.1013818 C22.8898909,29.1345455 22.8264727,29.1659636 22.7630545,29.1985455 C22.1079273,29.5342545 21.4301091,29.8228364 20.7336727,30.0573091 C20.7092364,30.0654545 20.6848,30.0741818 20.6597818,30.0823273 C20.2949818,30.2033455 19.9255273,30.3109818 19.552,30.4034909 C19.5508364,30.4034909 19.5496727,30.4040727 19.5485091,30.4040727 C19.1714909,30.4971636 18.7898182,30.5745455 18.4058182,30.6379636 C18.3953455,30.6397091 18.3848727,30.6420364 18.3744,30.6437818 C18.0130909,30.7025455 17.6488727,30.7450182 17.2834909,30.7770182 C17.2189091,30.7828364 17.1543273,30.7869091 17.0891636,30.7915636 C16.7278545,30.8189091 16.3648,30.8363636 16,30.8363636 C15.6311273,30.8363636 15.2634182,30.8183273 14.8974545,30.7909818 C14.8340364,30.7863273 14.7706182,30.7822545 14.7077818,30.7764364 C14.3389091,30.7438545 13.9717818,30.7002182 13.6081455,30.6408727 C13.5918545,30.6379636 13.5755636,30.6350545 13.5592727,30.6321455 C12.7901091,30.5035636 12.0331636,30.3144727 11.296,30.0672 C11.2733091,30.0596364 11.2500364,30.0514909 11.2273455,30.0439273 C10.8613818,29.9194182 10.4994909,29.7815273 10.144,29.6290909 C10.1416727,29.6279273 10.1387636,29.6267636 10.1364364,29.6256 C9.80014545,29.4807273 9.47025455,29.3201455 9.14443636,29.1508364 C9.10196364,29.1287273 9.05890909,29.1077818 9.01701818,29.0850909 C8.71970909,28.9262545 8.4288,28.7546182 8.14196364,28.5754182 C8.05701818,28.5218909 7.97265455,28.4677818 7.88887273,28.4130909 C7.62472727,28.2402909 7.36407273,28.0605091 7.1104,27.8702545 C7.08421818,27.8504727 7.0592,27.8295273 7.03301818,27.8097455 C7.05163636,27.7992727 7.07025455,27.7888 7.08887273,27.7783273 L11.6893091,25.2689455 C12.4805818,24.8372364 12.9722182,24.0093091 12.9722182,23.1080727 L12.9716364,21.0123636 L12.8378182,20.8506182 C12.8250182,20.8360727 11.5671273,19.3058909 11.0917818,17.2340364 L11.0388364,17.0036364 L10.8404364,16.8750545 C10.5605818,16.6941091 10.3930182,16.3915636 10.3930182,16.0651636 L10.3930182,14.0026182 C10.3930182,13.7320727 10.5076364,13.4801455 10.7170909,13.2910545 L10.9090909,13.1176727 L10.9090909,9.87694545 L10.9038545,9.80072727 C10.9021091,9.78676364 10.7304727,8.38749091 11.7160727,7.264 C12.5573818,6.30516364 13.9991273,5.81818182 16,5.81818182 C17.9933091,5.81818182 19.4304,6.30109091 20.2740364,7.25294545 C21.2584727,8.3648 21.0973091,9.79025455 21.0961455,9.80189091 L21.0909091,13.1188364 L21.2829091,13.2922182 C21.4917818,13.4807273 21.6069818,13.7332364 21.6069818,14.0037818 L21.6069818,16.0663273 C21.6069818,16.4811636 21.3248,16.8576 20.9198545,16.9826909 L20.6306909,17.0717091 L20.5376,17.3597091 C20.1943273,18.4261818 19.7056,19.4112 19.0853818,20.2874182 C18.9329455,20.5026909 18.7845818,20.6935273 18.6571636,20.8395636 L18.5128727,21.0042182 L18.5128727,23.1563636 C18.5128727,24.0942545 19.0341818,24.9378909 19.8731636,25.3568 L24.7994182,27.8196364 C24.8308364,27.8353455 24.8616727,27.8516364 24.8925091,27.8679273 C24.8302545,27.9150545 24.7662545,27.9586909 24.7034182,28.0040727 Z" id="Shape"></path>
                </g>
            </g>
        </g>
    </g>
</svg>