<?xml version="1.0" encoding="UTF-8"?>
<svg width="640px" height="505px" viewBox="0 0 640 505" version="1.1" xmlns="http://www.w3.org/2000/svg" xmlns:xlink="http://www.w3.org/1999/xlink">
    <!-- Generator: Sketch 64 (93537) - https://sketch.com -->
    <title>survey_empty</title>
    <desc>Created with Sketch.</desc>
    <g id="Page-2" stroke="none" stroke-width="1" fill="none" fill-rule="evenodd">
        <g id="survey_empty" transform="translate(1.000000, 0.000000)">
            <g id="Group-129" transform="translate(152.000000, 0.000000)">
                <g id="Group-3" transform="translate(0.184466, 0.150680)" fill="#FFE281" fill-opacity="0.2">
                    <path d="M332.814757,166.740379 C332.814757,258.41957 258.49404,332.740287 166.814849,332.740287 C75.1354747,332.740287 0.814757282,258.41957 0.814757282,166.740379 C0.814757282,75.0610048 75.1354747,0.740287379 166.814849,0.740287379 C258.49404,0.740287379 332.814757,75.0610048 332.814757,166.740379" id="Fill-1"></path>
                </g>
                <path d="M188.644272,239.779697 C178.140039,238.089134 170.209476,241.768979 162.583845,240.71127 C156.502913,239.867775 153.333515,233.71492 145.161398,231.972474 C147.10532,230.825911 149.370175,229.39228 150.452272,228.349794 C152.555262,226.323852 155.576155,222.272901 150.452272,222.113522 C146.765748,221.999037 143.894602,228.139619 142.573903,231.594066 C141.363806,231.492784 140.053515,231.484862 138.627184,231.589872 C140.314019,226.1536 143.602874,215.630882 144.407534,213.609289 C145.502369,210.858532 140.903689,201.687425 135.483417,211.980085 C131.681942,219.199503 134.263379,227.541717 136.144233,231.880357 C134.658874,232.119891 133.258175,232.465522 131.919456,232.884008 C127.439922,222.665445 113.191223,193.530687 97.745165,197.151037 C80.9061748,201.0976 116.982602,220.684085 126.081165,235.205717 C118.648466,238.650843 112.117049,242.836163 100.827883,239.779697 C70.8257087,231.657445 68.4459029,249.932862 68.4459029,249.932862 L202.521087,249.978532 C202.521087,249.978532 199.148194,241.470416 188.644272,239.779697" id="Fill-4" fill="#ACD29A"></path>
                <path d="M152.171417,174.018019 C152.309515,175.308427 154.135223,175.26167 156.198447,174.952544 C158.26167,174.643262 157.728388,175.185864 160.629981,175.129631 C163.531262,175.073709 164.499029,174.081864 164.625631,173.662913 C164.738563,173.291029 163.33165,173.027883 161.825165,172.713786 C161.635806,172.674951 161.445515,172.633631 161.255379,172.592311 C159.556272,172.220117 158.39868,170.996194 156.920466,169.94299 C155.520233,168.945398 154.576699,164.373282 154.576699,164.373282 L150.452272,164.349049 C150.452272,164.349049 151.748272,168.483573 152.423223,169.921553 C152.820272,170.767223 152.397282,171.853049 152.264155,172.66765 C152.192854,173.110369 152.122175,173.563184 152.171417,174.018019" id="Fill-6" fill="#FFB07B"></path>
                <path d="M156.198416,174.952482 C158.261639,174.643355 157.728513,175.185802 160.62995,175.129724 C163.531231,175.073647 164.499153,174.081957 164.6256,173.66285 C164.738687,173.291122 163.331619,173.027821 161.825134,172.71388 L161.808202,172.741841 C161.808202,172.741841 159.97426,173.806074 157.578144,173.645452 C155.625056,173.515122 153.611852,172.768404 152.264124,172.667588 C152.192823,173.110462 152.122144,173.563278 152.171386,174.017957 C152.309483,175.308365 154.135192,175.261608 156.198416,174.952482" id="Fill-8" fill="#365DA4"></path>
                <path d="M119.925515,173.813375 C120.014835,175.108132 121.84101,175.130346 123.914485,174.899045 C125.987806,174.667744 125.434641,175.189685 128.336233,175.243122 C131.237515,175.296559 132.242097,174.341841 132.384388,173.92786 C132.511301,173.560482 131.115107,173.24452 129.621515,172.87388 C129.433709,172.827899 129.245282,172.779588 129.056699,172.731122 C127.372816,172.295083 126.262136,171.028287 124.824621,169.920249 C123.462913,168.870617 124.583068,164.516287 124.583068,164.516287 L121.453592,163.038384 C121.453592,163.038384 121.023146,167.525841 120.790913,169.795666 C120.695845,170.725064 120.232932,171.658656 120.069049,172.467511 C119.981126,172.907433 119.89367,173.357142 119.925515,173.813375" id="Fill-10" fill="#FFB07B"></path>
                <path d="M123.914439,174.899091 C125.987915,174.66779 125.434594,175.189732 128.336186,175.243169 C131.237623,175.296606 132.24205,174.341887 132.384342,173.927907 C132.51141,173.560528 131.11506,173.244567 129.621468,172.873926 L129.603604,172.901266 C129.603604,172.901266 127.730827,173.895751 125.342322,173.644878 C123.395604,173.440917 121.411915,172.619169 120.069002,172.467557 C119.981235,172.90748 119.893623,173.357188 119.925468,173.813421 C120.014788,175.108179 121.840963,175.130237 123.914439,174.899091" id="Fill-12" fill="#365DA4"></path>
                <path d="M126.955852,109.192466 C126.955852,109.192466 126.089056,113.389903 125.220241,134.677359 C125.220241,134.677359 123.610144,138.618951 122.442144,143.438369 C121.274144,148.257631 120.449911,168.367456 120.449911,168.367456 C120.449911,168.367456 120.915464,169.03899 122.329678,169.123806 C123.484318,169.193087 124.382804,168.686835 124.382804,168.686835 C124.382804,168.686835 132.502882,142.347728 136.455348,132.12233 C140.407969,121.896621 142.72393,107.295456 142.72393,107.295456 L126.955852,109.192466 Z" id="Fill-14" fill="#66818A"></path>
                <path d="M136.721631,110.989654 C136.721631,110.989654 137.361942,115.227635 143.917437,135.499014 C143.917437,135.499014 143.771728,139.754237 144.344777,144.680062 C144.91767,149.605887 151.55332,168.999441 151.55332,168.999441 C151.55332,168.999441 152.434252,169.305616 153.75666,168.956722 C154.985553,168.632373 155.949126,167.892955 155.949126,167.892955 C155.949126,167.892955 153.405437,140.173499 153.572893,129.211946 C153.74035,118.250392 150.857553,103.750353 150.857553,103.750353 L136.721631,110.989654 Z" id="Fill-16" fill="#66818A"></path>
                <path d="M148.331759,52.28 C147.304186,51.6260194 146.040186,51.496932 145.151021,51.505165 C145.391177,51.2808544 145.844303,51.2174757 145.844303,51.2174757 C145.29875,51.1082718 144.044536,51.5921553 144.044536,51.5921553 C136.545662,48.2636893 134.781002,59.4619806 134.810827,62.0858252 C134.83972,64.7090485 134.708614,67.7207767 130.774322,69.8758058 C123.033274,74.1159612 128.967099,82.4906408 128.967099,82.4906408 C127.573546,86.488932 132.732225,91.3874175 132.732225,91.3874175 C132.644924,89.2640777 142.39141,75.736466 147.646555,72.6503301 C148.976264,70.8887767 149.577584,67.6893981 149.623254,67.4374369 C149.281817,69.9809709 148.773235,71.391767 148.342322,72.1790291 C152.849196,68.4289709 151.055177,54.0128155 148.331759,52.28" id="Fill-18" fill="#C65447"></path>
                <path d="M146.698268,71.2014291 C146.724676,71.2133903 144.239705,72.5034874 142.370035,71.9924194 C140.611278,71.5131961 139.46254,69.2328078 139.486307,69.2275262 C140.231006,69.0796427 140.446307,68.0562641 140.430307,63.6593709 L140.767083,63.7255456 L146.224326,64.806866 L146.427666,64.8464777 C146.427666,64.8464777 146.298113,66.6276039 146.294074,68.3058951 C146.292986,68.6610019 146.298113,69.0108272 146.311472,69.3384388 C146.348287,70.3127301 146.456559,71.0880311 146.698268,71.2014291" id="Fill-20" fill="#FFB07B"></path>
                <path d="M146.294151,68.3058641 C146.292909,68.6611262 146.298035,69.0109515 146.311394,69.3384078 C143.137181,69.2104078 141.307122,65.5805825 140.616482,63.9881942 L146.224404,64.806835 L146.427588,64.8464466 C146.427588,64.8464466 146.298035,66.6275728 146.294151,68.3058641" id="Fill-22" fill="#EA8E50"></path>
                <path d="M140.182198,63.1094214 C140.182198,63.1094214 138.522237,60.4866641 138.123946,58.2440233 C137.839363,56.6427806 138.655052,50.707868 144.619014,51.5625476 C144.619014,51.5625476 146.351208,51.733266 147.979324,52.8330718 C149.274237,53.707635 151.14313,55.595635 149.053499,60.7746641 L148.510742,62.524101 L140.182198,63.1094214 Z" id="Fill-24" fill="#C65447"></path>
                <path d="M146.761227,67.4833553 C146.761227,67.4833553 139.330703,66.5011417 140.013577,61.8830447 C140.69645,57.2651029 140.197344,54.028132 144.97047,54.4599767 C149.743596,54.8918214 150.402548,56.7900738 150.549654,58.3868117 C150.696606,59.9837049 148.711829,67.6197437 146.761227,67.4833553" id="Fill-26" fill="#FFB07B"></path>
                <path d="M148.363169,54.8499417 C148.363169,54.8499417 145.526664,59.9645049 142.292645,60.3012816 C139.058625,60.6382136 137.831907,59.6022524 137.831907,59.6022524 C137.831907,59.6022524 140.503751,58.0603495 141.493266,54.8213592 C141.493266,54.8213592 147.21645,52.0435728 148.363169,54.8499417" id="Fill-28" fill="#C65447"></path>
                <path d="M147.79475,55.2147728 C147.79475,55.2147728 149.130206,56.6499573 149.324691,57.8808699 C149.518866,59.1116272 149.324381,61.5568311 150.04205,61.579666 C150.04205,61.579666 152.119876,58.1256854 150.71172,55.7868893 C149.21875,53.306734 147.79475,55.2147728 147.79475,55.2147728" id="Fill-30" fill="#C65447"></path>
                <path d="M197.140629,117.957188 C195.581794,114.65513 191.247969,111.922858 187.596707,111.921616 C184.900008,111.920994 182.521755,112.841072 180.681289,114.340256 C179.629017,115.197266 178.041755,114.63214 177.756241,113.305227 L174.560435,98.4564505 C174.094416,96.2913243 171.961289,94.9136155 169.796163,95.379635 L118.081678,106.509887 C115.966105,106.965188 114.620241,109.049072 115.075697,111.164645 L126.193522,162.822586 C126.511503,164.300179 127.595153,165.414897 128.938532,165.843169 L128.259697,166.035635 L130.267309,166.035635 L130.283619,166.032683 C130.529056,166.025538 130.777445,165.997266 131.02661,165.943674 L132.152668,165.701344 L145.424901,162.8448 C147.287425,162.444023 148.043619,160.190664 146.792202,158.754082 C145.583192,157.366431 144.713289,155.647751 144.342493,153.700722 C143.298144,148.214276 146.690144,142.779557 152.080746,141.319052 C158.076707,139.694509 164.132318,143.437577 165.422416,149.432761 C165.907852,151.68814 165.647503,153.930315 164.806959,155.902819 C164.480435,156.669111 164.750416,157.464917 165.311348,157.918509 L164.536979,158.296295 L166.330843,158.295208 L166.330843,158.295052 C166.465056,158.298315 166.603619,158.286819 166.744979,158.256373 L182.592901,154.845577 C184.758959,154.379247 186.136979,152.245344 185.670804,150.079285 L182.494726,135.322004 C182.200668,133.956412 183.446183,132.759518 184.799348,133.107169 C186.363619,133.509188 188.042687,133.563402 189.729212,133.200528 C196.360668,131.773266 200.236707,124.51548 197.140629,117.957188" id="Fill-32" fill="#F4AB7A"></path>
                <path d="M185.770485,111.921693 C183.074097,111.920917 180.695689,112.84115 178.855068,114.340179 C177.802951,115.197344 176.215689,114.632062 175.930175,113.30515 L172.734369,98.4563728 C172.26835,96.2914019 170.135379,94.9136932 167.970097,95.3797126 L116.255612,106.50981 C114.140194,106.965266 112.794175,109.04915 113.249631,111.164722 L124.367456,162.822664 C124.840311,165.019014 127.004039,166.41645 129.200544,165.943751 L143.598835,162.844722 C145.461515,162.443946 146.217709,160.190586 144.965981,158.754004 C143.757126,157.366509 142.887223,155.647674 142.516583,153.700645 C141.472078,148.214509 144.864078,142.77948 150.254524,141.318975 C156.250796,139.694431 162.306252,143.437654 163.596505,149.432839 C164.082097,151.688217 163.821437,153.930392 162.981049,155.902897 C162.434874,157.184606 163.556738,158.549421 164.918913,158.256295 L180.766835,154.845499 C182.932738,154.379169 184.310913,152.245421 183.844893,150.079363 L180.668505,135.322082 C180.374757,133.956489 181.620272,132.759596 182.973282,133.107247 C184.537553,133.509266 186.216777,133.563324 187.903301,133.20045 C194.534447,131.773344 198.410641,124.515402 195.314563,117.957266 C193.755573,114.655208 189.422214,111.922936 185.770485,111.921693" id="Fill-34" fill="#F9D1B4"></path>
                <path d="M166.849212,92.2828893 C166.849212,92.2828893 170.074843,92.8115107 170.920202,94.9092194 C171.765561,97.0069282 170.585134,98.4273553 170.13092,98.4223975 C169.676551,98.4175689 168.806493,98.082035 168.398726,96.994035 C167.990959,95.9063456 166.849212,92.2828893 166.849212,92.2828893" id="Fill-36" fill="#FFB07B"></path>
                <path d="M122.442206,101.643324 C122.442206,101.643324 126.063177,101.638664 127.365701,103.778781 C128.668225,105.919052 127.63475,107.684645 127.137196,107.761383 C126.639643,107.837965 125.62807,107.628101 124.986206,106.512917 C124.344031,105.397421 122.442206,101.643324 122.442206,101.643324" id="Fill-38" fill="#FFB07B"></path>
                <path d="M166.938858,94.7176544 C166.618082,94.6491495 165.214276,94.4840233 163.4288,94.2030136 C160.141654,93.6871301 155.558198,92.7791689 154.020489,91.3607612 C153.604179,90.9755184 152.633771,88.8565282 151.625616,86.4271689 C150.605499,91.805499 150.549266,95.9305476 150.819247,99.0708971 L128.598975,103.853499 C130.504373,100.001693 133.453188,95.2257709 132.900179,91.3607612 C132.695441,89.9277515 131.910198,87.9616155 131.616606,85.7526835 C131.591907,85.5627029 131.570936,85.3728777 131.554004,85.180101 C128.437887,87.7452272 124.837887,90.5756738 124.751674,91.141732 C124.608295,92.0905476 127.034392,102.595247 127.034392,102.595247 C126.431829,103.98212 123.815441,103.690392 123.815441,103.690392 C121.362936,101.939402 117.756567,92.0164505 118.04612,89.8183922 C118.334276,87.6200233 127.275635,75.092334 129.439674,72.0983146 C131.57746,69.139868 139.381577,69.2138097 139.569383,69.2150524 L139.570781,69.2150524 L139.573266,69.2150524 C145.779402,72.9413437 146.339091,69.8444893 146.339091,69.8444893 C146.339091,69.8444893 151.938625,70.9093437 152.901266,72.5627806 C153.863907,74.2173049 158.083557,86.7608388 158.38212,87.2029359 C159.006897,88.1265864 169.208373,91.8225864 169.391052,92.8927223 C169.576373,93.9628583 167.853344,94.9116738 166.938858,94.7176544" id="Fill-40" fill="#BAE2C8"></path>
                <path d="M136.346781,102.193383 L128.598897,103.853499 C130.527907,100.012412 133.063984,95.228567 132.509421,91.3874796 C132.302043,89.9535379 131.837111,88.2564505 131.6128,86.037732 C131.591208,85.8238291 131.553926,85.180101 131.553926,85.180101 C131.553926,85.180101 137.040839,89.4979262 137.137305,94.1708583 C137.18748,96.5950913 136.764179,99.7663534 136.346781,102.193383" id="Fill-42" fill="#ADE0AB"></path>
                <path d="M163.634858,94.2320621 C160.30748,93.7152466 155.667324,92.8071301 154.110975,91.3879456 C153.689227,91.0025476 152.706548,88.8812272 151.685965,86.4487612 C151.685965,86.4487612 151.328217,82.5387029 152.350198,82.6847223 C153.372334,82.8307417 154.876179,89.7658874 155.949111,90.2037903 C156.909887,90.5966447 162.220179,92.6348583 163.634858,94.2320621" id="Fill-44" fill="#ADE0AB"></path>
                <path d="M327.5584,243.190493 C327.08974,244.771076 324.924303,245.82459 324.631177,247.756396 C324.488575,248.699153 324.137351,249.431891 323.69106,249.935037 L316.949157,249.935037 C317.016575,249.563775 317.312342,249.16393 318.18908,248.972551 C320.061235,248.563076 320.76772,246.293406 320.651371,244.186066 C320.60275,243.302649 320.625118,242.29527 320.668614,241.423814 C320.727953,240.216979 320.82706,239.26894 320.82706,239.26894 L324.806866,238.332862 L325.225196,238.870183 L325.626594,239.386377 C325.626594,239.386377 328.025973,241.609911 327.5584,243.190493" id="Fill-46" fill="#2C3A64"></path>
                <path d="M296.163682,249.935037 L282.523915,249.935037 C282.833041,249.57325 283.357313,249.22327 284.243216,249.07927 C286.342478,248.73861 289.977584,247.519969 290.788303,244.837095 C290.814555,244.751192 290.838478,244.662804 290.858206,244.572862 C291.501313,241.705134 296.184652,245.450998 296.184652,245.450998 C296.184652,245.450998 296.199254,245.56595 296.220381,245.761367 C296.3024,246.568047 296.484458,248.758649 296.163682,249.935037" id="Fill-48" fill="#2C3A64"></path>
                <path d="M284.800513,173.946718 C284.800513,173.946718 285.511814,182.819728 286.347697,193.485359 C287.483697,207.974214 288.849911,225.771029 288.985056,229.142524 C289.218687,234.996816 290.156474,244.361476 290.156474,244.361476 C290.156474,244.361476 292.379386,246.586252 296.829095,245.648621 C296.829095,245.648621 300.793988,232.280233 301.926726,218.136078 C301.944124,217.904155 301.961988,217.67068 301.979542,217.437049 C303.033056,203.037981 304.67127,172.71767 304.67127,172.71767 L284.800513,173.946718 Z" id="Fill-50" fill="#66818A"></path>
                <path d="M284.800513,173.946718 C284.800513,173.946718 285.511814,182.819728 286.347697,193.485359 L301.926726,218.136078 C301.944124,217.904155 301.961988,217.67068 301.979542,217.437049 C303.033056,203.037981 304.67127,172.71767 304.67127,172.71767 L284.800513,173.946718 Z" id="Fill-52" fill="#334F56"></path>
                <path d="M288.048388,175.000419 C288.048388,175.000419 300.867029,207.134788 309.295612,222.236303 C317.72435,237.337662 320.358291,241.552186 320.358291,241.552186 C320.358291,241.552186 325.18734,239.620536 325.62633,238.303565 C325.62633,238.303565 322.403029,209.14939 316.758602,202.042594 C313.56901,198.026594 309.822524,185.975177 309.646835,181.760963 C309.471301,177.546594 308.505553,169.205623 308.505553,169.205623 L288.048388,175.000419 Z" id="Fill-54" fill="#66818A"></path>
                <path d="M294.622726,125.397872 C294.052629,122.032746 294.035386,120.038027 294.035386,120.038027 L300.539153,114.796551 C300.297445,122.003697 304.915852,125.469483 304.915852,125.469483 C304.915852,125.469483 296.248979,129.735736 291.23927,128.155619 C291.23927,128.155619 292.472513,126.579076 294.622726,125.397872" id="Fill-56" fill="#935C2F"></path>
                <path d="M292.503332,119.919115 C292.503332,119.919115 300.777351,121.293717 301.55405,116.127891 C302.33075,110.962066 303.92174,107.660318 298.67172,106.564241 C293.421856,105.468318 292.096808,107.284862 291.418128,108.945911 C290.739604,110.60727 290.370983,119.428396 292.503332,119.919115" id="Fill-58" fill="#A16D3C"></path>
                <path d="M263.443417,130.568078 L261.682485,129.477437 C261.682485,129.477437 259.485981,126.235184 255.734524,128.249631 C255.734524,128.249631 254.248233,129.197049 255.245515,129.990369 C256.242796,130.783689 255.97468,130.335379 257.356117,131.484583 C258.737709,132.633786 260.525359,133.044194 261.678291,132.410718 L263.156971,132.271068 L263.443417,130.568078 Z" id="Fill-60" fill="#A16D3C"></path>
                <path d="M261.352249,130.907883 C261.805685,129.488388 262.021608,129.363184 262.021608,129.363184 C262.021608,129.363184 276.2672,131.046447 277.610113,131.145709 C278.953336,131.245126 297.603899,127.40233 297.603899,127.40233 L306.410268,138.096233 C306.410268,138.096233 280.44553,139.075184 277.047472,138.756893 C271.431938,138.230757 261.249258,133.002641 261.249258,133.002641 C261.249258,133.002641 260.995899,132.022757 261.352249,130.907883" id="Fill-62" fill="#D3782F"></path>
                <path d="M309.482858,170.847814 C309.507868,171.399736 308.370625,172.005561 307.876955,172.227386 C304.158431,173.894804 300.694975,175.052551 296.78212,175.42925 C292.140722,175.905367 286.655518,174.861483 284.774819,174.886183 C284.573499,174.886183 284.398276,174.811775 284.247751,174.686105 C284.122392,174.585445 284.021577,168.916008 284.122392,161.767891 C284.122392,161.491852 284.122392,161.189717 284.147091,160.913833 L284.147091,160.814416 C284.154392,160.069872 284.166043,159.313522 284.182198,158.549872 C284.228955,156.460707 284.307868,154.315775 284.398276,152.184357 C284.534198,149.042299 284.720917,145.954144 284.979247,143.218299 C285.249383,140.360823 285.592528,137.88626 286.029188,136.131231 C287.032062,132.092707 289.340412,129.432668 291.447285,127.476163 L293.17746,125.947464 C294.90748,126.297911 296.739868,126.197095 298.570703,125.294882 C300.552062,124.316551 302.709887,123.262416 303.060334,123.5136 C305.734975,125.512357 307.535363,130.050144 308.457926,135.817289 C308.954392,138.921289 309.196722,142.380085 309.183674,145.992202 C309.177926,147.377678 309.135518,148.783814 309.055208,150.202998 C308.60845,157.81993 309.066858,164.423736 309.329693,168.262027 C309.405499,169.365717 309.465616,170.243231 309.482858,170.847814" id="Fill-64" fill="#E69D43"></path>
                <path d="M265.497724,100.433522 L213.171821,92.1234641 C210.946889,91.770066 208.856948,93.2871146 208.50355,95.5120466 L206.187433,110.09628 C206.080249,110.771852 206.251433,112.67026 206.251433,112.67026 L208.137414,112.950959 C208.244443,112.97426 208.353491,112.990882 208.464249,112.999736 C208.80553,113.027076 209.16188,112.984668 209.517142,112.856202 C211.252287,112.228163 213.174462,112.037095 215.128948,112.395775 C220.636986,113.405794 224.49019,118.545212 223.903783,124.114144 C223.251511,130.308629 217.558928,134.61527 211.486384,133.65092 C209.201957,133.288047 207.199627,132.232513 205.659899,130.732551 C205.361336,130.4416 205.002035,130.287814 204.639006,130.250532 L202.66588,129.954454 L200.208093,147.744901 C199.859821,149.939076 201.355899,152.000124 203.550074,152.348707 L218.497957,154.72261 C219.881258,154.942105 220.549375,156.540241 219.734307,157.679348 C218.792171,158.996474 218.133375,160.546765 217.862151,162.255037 C216.795433,168.972241 222.177647,175.224357 229.430928,174.70428 C233.082656,174.442377 237.206462,171.380008 238.529802,167.966105 C239.507045,165.44525 239.507666,162.888202 238.772598,160.624435 C238.352093,159.330299 239.455627,158.05092 240.799472,158.264357 L255.840249,160.653017 C258.033336,161.001445 260.093763,159.505833 260.442035,157.31259 L268.761258,104.929522 C269.101452,102.786765 267.640326,100.773872 265.497724,100.433522" id="Fill-66" fill="#3F895D"></path>
                <path d="M303.251666,135.662431 C303.251666,135.662431 299.240948,154.379946 284.182151,158.549887 C284.228909,156.460722 284.307821,154.31579 284.398229,152.184217 C284.534151,149.042315 284.72087,145.954159 284.9792,143.218315 C285.247938,143.079441 285.50052,142.97148 285.731355,142.895518 C290.841258,141.210548 303.251666,135.662431 303.251666,135.662431" id="Fill-68" fill="#D3782F"></path>
                <path d="M236.595122,167.674113 C237.572365,165.153103 237.573297,162.596365 236.837918,160.332443 C236.417569,159.038307 237.521103,157.759083 238.864948,157.972365 L253.905724,160.361181 C256.098812,160.709452 258.159083,159.213685 258.507511,157.020753 L266.826579,104.63753 C267.167083,102.494773 265.705647,100.48188 263.563045,100.141685 L211.237297,91.8314718 C209.01252,91.4780738 206.922423,92.9952777 206.569181,95.2200544 L204.252909,109.804443 C203.953258,111.691045 205.786268,113.214151 207.582617,112.564054 C209.317608,111.936171 211.239783,111.745258 213.194268,112.103783 C218.702307,113.113647 222.555666,118.253219 221.969414,123.822151 C221.316831,130.016637 215.624559,134.323122 209.55186,133.358773 C207.267278,132.995899 205.265258,131.94052 203.725375,130.440404 C202.724676,129.465491 201.04219,130.020365 200.823161,131.400093 L198.273724,147.452909 C197.925297,149.646928 199.42153,151.708287 201.615394,152.056559 L216.563433,154.430617 C217.946734,154.650268 218.61485,156.248093 217.799938,157.3872 C216.857491,158.704482 216.19885,160.254617 215.927472,161.963045 C214.860753,168.680249 220.243122,174.932365 227.496404,174.412287 C231.148287,174.150384 235.271938,171.08786 236.595122,167.674113" id="Fill-70" fill="#57BE82"></path>
                <path d="M263.504093,142.635883 L261.352637,142.28 C261.352637,142.28 258.899977,138.730796 254.625181,140.721942 C254.625181,140.721942 252.929802,141.670136 254.051045,142.557748 C255.172287,143.445515 254.873569,142.956194 256.426346,144.239301 C257.979278,145.522563 260.000559,146.034874 261.314423,145.407767 L262.991938,145.320466 L263.504093,142.635883 Z" id="Fill-72" fill="#A16D3C"></path>
                <path d="M261.859682,143.729181 C261.929118,142.146113 262.772303,141.977258 262.772303,141.977258 C262.772303,141.977258 279.069313,140.8992 280.475138,140.626579 C281.881118,140.353802 294.861002,129.599627 294.861002,129.599627 C294.861002,129.599627 299.880808,125.088093 303.397546,126.610423 C306.453701,127.933142 307.410283,130.543161 307.564225,132.943317 C307.747216,135.803588 306.134478,138.477452 303.537507,139.690346 C297.708225,142.412986 286.050128,147.757763 283.395216,148.218656 C277.486089,149.244986 262.29774,145.955666 262.29774,145.955666 C262.29774,145.955666 261.805157,144.972676 261.859682,143.729181" id="Fill-74" fill="#E69D43"></path>
                <path d="M291.418082,108.945957 C291.418082,108.945957 288.060101,106.455705 290.249926,102.586501 C290.249926,102.586501 292.891635,103.462462 296.644645,102.586501 C300.397344,101.71054 303.755324,102.95155 304.193383,104.265414 C304.193383,104.265414 305.653421,104.849647 305.799441,107.039627 C305.94546,109.229608 301.554004,116.127783 301.554004,116.127783 C301.554004,116.127783 300.616217,114.960249 300.871751,114.157297 C301.127285,113.35419 301.930392,111.565608 300.944761,111.565608 C299.95913,111.565608 299.630742,113.025802 299.229188,112.441724 C298.82779,111.857647 299.557732,109.412132 298.389732,109.010579 C297.221732,108.609025 292.732256,109.684443 291.418082,108.945957" id="Fill-76" fill="#FCDFA8"></path>
                <path d="M177.278664,248.070353 L162.486897,180.912295 L166.558664,180.912295 C167.523635,180.912295 168.313227,180.122703 168.313227,179.157732 L168.313227,176.88915 C168.313227,175.924179 167.523635,175.134742 166.558664,175.134742 L114.909732,175.134742 C113.94445,175.134742 113.155014,175.924179 113.155014,176.88915 L113.155014,179.157732 C113.155014,180.122703 113.94445,180.912295 114.909732,180.912295 L120.151518,180.912295 L105.359596,248.070353 C105.160761,248.973188 105.734742,249.875091 106.634781,250.074392 C107.534975,250.274159 108.434237,249.69847 108.633227,248.795635 L123.584528,180.912295 L159.053732,180.912295 L174.005188,248.795635 C174.204023,249.69847 175.103285,250.274159 176.00348,250.074392 C176.903674,249.875091 177.477499,248.973188 177.278664,248.070353" id="Fill-78" fill="#C3E0F4"></path>
                <path d="M275.365592,206.943379 C269.890796,201.687456 250.181437,234.849398 250.181437,234.849398 C250.181437,234.849398 280.840388,212.199301 275.365592,206.943379" id="Fill-80" fill="#ACD29A"></path>
                <path d="M274.708583,222.27287 C269.86167,220.334229 254.372738,236.664016 250.884272,240.434579 C248.214913,240.079783 245.287534,239.849569 242.078524,239.792404 C217.551301,239.354346 206.426019,250.463627 206.426019,250.463627 L274.846214,250.696326 C274.846214,250.696326 268.78532,243.000482 251.591534,240.531355 C255.792388,238.547666 268.218485,232.768559 272.737631,231.657414 C278.212583,230.311239 280.183379,224.46285 274.708583,222.27287" id="Fill-82" fill="#ACD29A"></path>
                <path d="M255.41019,188.98981 L240.643122,188.98981 C238.732753,188.98981 237.515977,191.038897 238.439783,192.71113 C239.332054,194.326353 236.192482,208.320295 229.577647,208.685499 C223.358462,209.028955 218.211278,204.06647 218.211278,197.917654 C218.211278,195.604489 218.939821,193.461577 220.179744,191.70546 C220.985647,190.564334 220.173685,188.98981 218.776715,188.98981 L202.522734,188.98981 C200.301064,188.98981 198.50021,190.790664 198.50021,193.012489 C198.50021,193.012489 197.026812,210.458548 195.773996,209.832528 C194.483278,209.187247 193.044831,208.794392 191.523278,208.716101 L191.523588,208.715635 L191.508986,208.715635 C191.327394,208.706625 191.14487,208.701033 190.961103,208.701033 C190.776559,208.701033 188.101142,208.655363 188.101142,208.655363 L187.69555,230.214353 L190.018967,230.239052 C192.228054,230.173033 194.14619,229.966276 195.851511,229.096839 C197.063627,228.478742 198.50021,229.367907 198.50021,230.728528 L198.50021,245.957732 C198.50021,248.178315 200.300287,249.978548 202.521025,249.978548 L255.560715,249.978548 C257.730346,249.978548 259.489103,248.21979 259.489103,246.050159 L259.489103,193.068567 C259.489103,190.815984 257.662773,188.98981 255.41019,188.98981" id="Fill-84" fill="#F4AB7A"></path>
                <path d="M185.702524,229.963107 C188.345786,230.532738 190.87099,230.132427 192.991379,229.051262 C194.203806,228.43301 195.640388,229.322175 195.640388,230.682951 L195.640388,245.912155 C195.640388,248.132738 197.440466,249.933126 199.661204,249.933126 L252.700738,249.933126 C254.870369,249.933126 256.629282,248.174058 256.629282,246.004583 L256.629282,193.02299 C256.629282,190.770252 254.802951,188.944078 252.550369,188.944078 L237.783301,188.944078 C235.872932,188.944078 234.656155,190.99332 235.579961,192.665398 C236.472233,194.280621 236.962175,196.149049 236.914951,198.135689 C236.781204,203.73367 232.309903,208.345709 226.717825,208.639922 C220.497709,208.967379 215.351456,204.020738 215.351456,197.872078 C215.351456,195.558757 216.08,193.416 217.319922,191.659883 C218.12567,190.518602 217.313864,188.944078 215.916738,188.944078 L199.662913,188.944078 C197.441087,188.944078 195.640388,190.745087 195.640388,192.966757 L195.640388,208.101981 C195.640388,209.50268 194.16699,210.412971 192.914019,209.786796 C191.465476,209.062757 189.83099,208.655301 188.101126,208.655301 C181.300039,208.655301 175.969398,214.951845 177.620816,222.033476 C178.452194,225.599146 182.12365,229.191534 185.702524,229.963107" id="Fill-86" fill="#F9D1B4"></path>
                <path d="M32.132132,250.230089 L41.6647146,250.300148 C41.6647146,250.300148 41.3330641,247.993662 34.916132,247.398555 C32.428365,240.487953 25.1199379,221.898128 18.7735301,222.777196 C12.507433,223.645546 27.347666,240.700303 33.3849476,247.330517 C32.530734,247.33207 31.7344621,247.401507 30.9995495,247.51972 C29.5452583,244.624031 26.6615301,240.530983 22.0334913,240.717546 C17.108132,240.915915 23.8183456,245.413623 28.4381515,248.17572 C26.0981126,249.015177 24.8344233,250.176342 24.8344233,250.176342 L32.0238602,250.229157 C32.1085204,250.275449 32.1543456,250.300148 32.1543456,250.300148 C32.1543456,250.300148 32.1468893,250.275449 32.132132,250.230089" id="Fill-88" fill="#ACD29A"></path>
                <path d="M66.1909903,173.199301 L67.6013204,174.344777 C67.6013204,174.344777 71.4598058,172.96132 72.3304854,177.546019 C72.3304854,177.546019 72.5624078,179.500194 71.3246602,179.503814 C70.0869126,179.507495 70.5975146,179.290175 68.8448155,179.341592 C67.0921165,179.39301 65.6393786,178.468893 65.3826019,177.046602 L64.5440777,175.841476 L66.1909903,173.199301 Z" id="Fill-90" fill="#EA8E50"></path>
                <path d="M66.0313942,175.657584 C67.1565204,174.482594 67.0659573,173.614245 67.0659573,173.614245 C67.0659573,173.614245 54.0355883,162.946128 52.714268,162.076847 C51.8137631,161.484691 42.2173359,152.977196 37.7315883,147.790711 C35.5066563,145.218128 32.7506175,146.216497 29.5972194,147.121196 L27.0004039,147.866206 C23.8648699,148.765779 23.0493359,153.151332 25.6220738,155.282439 C32.8680544,161.284148 44.9218019,168.034905 47.1770252,169.453468 C52.7760932,172.975487 63.7354718,177.160652 63.7354718,177.160652 C63.7354718,177.160652 65.0650252,176.666517 66.0313942,175.657584" id="Fill-92" fill="#57BE82"></path>
                <path d="M81.2811029,241.091588 C81.2811029,241.091588 84.4432,243.460831 89.2887146,242.208792 C89.2887146,242.208792 93.1955107,241.318695 94.052365,243.267122 C94.052365,243.267122 88.0607534,246.311006 86.5444816,247.143317 C85.4018019,247.770734 84.2094136,248.761025 83.3663845,249.52654 C82.6992,250.13252 81.6598214,250.050346 81.0911223,249.351006 C80.8275107,249.026812 80.5259961,248.640948 80.195433,248.193103 C79.2716272,246.941219 77.1189282,242.897258 77.1189282,242.897258 L81.2811029,241.091588 Z" id="Fill-94" fill="#233862"></path>
                <path d="M82.757732,239.99739 C82.757732,239.99739 80.8321398,244.437313 76.3872466,243.621157 C76.3872466,243.621157 67.3174214,236.130827 61.0960621,228.349856 C59.0755573,225.822633 57.3551689,223.264808 56.3442175,220.924148 C52.2185476,211.372303 41.0834796,197.125779 34.0037126,189.905274 L51.7168,183.497351 C51.7168,183.497351 57.3902757,194.910478 64.9391689,208.929429 C70.3794796,219.029934 76.7920621,230.484225 82.757732,239.99739" id="Fill-96" fill="#66818A"></path>
                <path d="M64.9391689,208.929429 L61.0960621,228.349856 C59.0755573,225.822633 57.3551689,223.264808 56.3442175,220.924148 C52.2185476,211.372303 41.0834796,197.125779 34.0037126,189.905274 L51.7168,183.497351 C51.7168,183.497351 57.3902757,194.910478 64.9391689,208.929429" id="Fill-98" fill="#334F56"></path>
                <path d="M50.4142913,243.610252 C50.4142913,243.610252 50.2212039,247.153087 54.5160388,247.625631 C54.5160388,247.625631 56.9704078,247.63868 56.9773981,249.893437 L44.4947573,249.933049 C44.4947573,249.933049 44.1323495,249.023379 44.0442718,247.075417 C43.9768544,245.57934 45.4943689,241.668194 45.4943689,241.668194 L50.4142913,243.610252 Z" id="Fill-100" fill="#233862"></path>
                <path d="M45.9068583,183.497383 C45.9068583,183.497383 53.7978097,192.16814 58.8068971,207.789577 C61.5321786,216.288683 53.8117903,237.657383 52.3065476,245.081849 C52.3065476,245.081849 47.1273631,245.52146 43.5862369,244.15245 C43.5862369,244.15245 43.317033,228.817616 45.3881786,216.998431 C46.5471689,210.383751 34.9982757,202.85179 29.9519068,190.899635 C26.5188971,182.768683 30.6953631,182.906625 35.8279456,182.711363 L45.9068583,183.497383 Z" id="Fill-102" fill="#66818A"></path>
                <path d="M36.7976388,144.813375 C32.4072699,147.292443 23.4194641,145.006151 23.4194641,145.006151 C23.4194641,145.006151 27.0694835,140.833258 25.4109204,134.112792 L28.858066,135.863472 L32.560901,137.74386 C32.560901,137.74386 32.8001243,138.930812 32.9666485,141.06254 C33.008901,141.611666 33.0468039,142.224792 33.0730563,142.894773 C35.3273476,143.578268 36.7976388,144.813375 36.7976388,144.813375" id="Fill-104" fill="#FFB07B"></path>
                <path d="M52.896233,183.049414 C52.896233,183.821142 52.0073786,184.19054 51.8186408,184.227977 C50.0479223,184.551705 45.1036117,186.474967 40.6495534,186.916132 C36.8993398,187.308831 33.4172427,186.93586 29.5918447,186.167705 C29.0852816,186.065802 27.8961553,185.745491 27.8116505,185.260054 C27.7060194,184.72988 13.056233,155.3952 24.4448155,142.79419 C24.7121553,142.498734 26.960233,143.031083 29.016,143.51885 C30.9145631,143.969336 32.6560777,143.718307 34.2113398,143.094462 L36.1392621,144.108831 C38.5067961,145.428132 42.9867961,150.115511 43.5109126,153.793336 C43.777165,155.663783 44.846835,157.048792 45.1562718,158.694151 C45.2712233,159.302928 45.3886602,159.897414 45.5081165,160.476676 C45.7414369,161.612986 45.9820583,162.694307 46.2293592,163.722812 C46.8991845,166.504482 47.6061359,168.8992 48.3005049,170.968016 C49.039301,173.16452 49.7639612,174.991627 50.4112621,176.51955 C51.2508738,178.501685 51.9606214,179.98285 52.4038058,181.116986 C52.7169709,181.915433 52.896233,182.541608 52.896233,183.049414" id="Fill-106" fill="#ADE0AB"></path>
                <path d="M52.4038214,181.116924 C31.723899,171.373701 24.5619573,152.665041 24.5619573,152.665041 C24.5619573,152.665041 41.3638214,158.862944 45.508132,160.476614 C45.7414524,161.612924 45.9820738,162.694245 46.2293748,163.72275 C46.8990447,166.504575 47.6061515,168.899293 48.3005204,170.967953 C49.0393165,173.164614 49.7639767,174.991565 50.4112777,176.519487 C51.2508893,178.501623 51.9604816,179.982788 52.4038214,181.116924" id="Fill-108" fill="#57BE82"></path>
                <path d="M110.817196,160.395744 L106.387682,146.349608 C105.957546,144.985569 104.545973,144.339821 103.313196,144.686695 L103.309779,144.687627 C103.244225,144.706268 103.179449,144.728637 103.115138,144.752715 L101.561895,145.27155 C101.561895,145.27155 99.1305165,147.775783 97.3844971,148.280792 C92.0195262,149.833103 86.927332,146.973608 84.9697398,141.74285 C82.7926524,135.924753 85.318633,129.535938 91.166866,127.691588 C93.1679534,127.060443 97.1059728,128.23652 97.1059728,128.23652 L98.686866,127.711161 C99.5452738,127.450035 100.135099,126.523588 99.8284583,125.551161 L94.9528078,110.090967 C94.2864,107.97788 92.0331961,106.804909 89.9201087,107.471472 L75.5239922,112.011278 C74.1916427,112.431472 72.8838369,111.303239 73.1036427,109.923821 C73.3576233,108.328637 73.2549437,106.651744 72.7362641,105.006695 C70.6960311,98.5375689 63.1078369,95.3560544 56.8672155,99.050967 C53.7253126,100.911161 51.4095068,105.480948 51.7493903,109.116676 C52.0004194,111.801569 53.1385942,114.083511 54.8030602,115.776093 C55.7546718,116.743705 55.3399146,118.376948 54.0456233,118.785025 L39.5600311,123.353258 C37.4478757,124.019511 36.2756816,126.271783 36.9417786,128.383938 L52.8518369,178.833336 C53.5025553,180.897025 55.703099,182.042501 57.7667883,181.391627 L108.161041,165.498967 C110.303798,164.823239 111.49308,162.538501 110.817196,160.395744" id="Fill-110" fill="#3F895D"></path>
                <path d="M50.2163262,109.627697 C50.4673553,112.31259 51.6055301,114.594687 53.2701515,116.287115 C54.2216078,117.254882 53.8068505,118.887658 52.5125592,119.295891 L38.0271223,123.864124 C35.914967,124.530377 34.7426175,126.782804 35.4087146,128.894959 L51.3187728,179.344513 C51.9694913,181.408202 54.170035,182.553367 56.2337243,181.902804 L106.627977,166.009833 C108.770889,165.334105 109.960016,163.049367 109.284287,160.90661 L104.854462,146.860629 C104.281569,145.043464 101.967317,144.501017 100.654074,145.881367 C99.3854136,147.214493 97.7551223,148.241134 95.851433,148.791969 C90.4866175,150.344124 84.7587728,147.474532 82.8013359,142.243775 C80.6240932,136.425678 83.7855689,130.046804 89.6339573,128.202454 C91.834035,127.508707 94.0908117,127.558726 96.1332194,128.211309 C97.4604427,128.635386 98.714501,127.390959 98.2955495,126.062027 L93.4197437,110.601833 C92.7534913,108.488746 90.500132,107.316085 88.3872,107.982338 L73.9909282,112.52261 C72.658734,112.942649 71.3507728,111.814416 71.5705786,110.434843 C71.8247146,108.839658 71.7218796,107.16292 71.2030447,105.517561 C69.1628117,99.048435 61.5750835,95.8669204 55.3343068,99.561833 C52.1922485,101.422338 49.8764427,105.992124 50.2163262,109.627697" id="Fill-112" fill="#57BE82"></path>
                <path d="M64.5030369,175.470695 L66.290066,176.125918 C66.290066,176.125918 69.8687845,173.595433 72.096668,177.711006 C72.096668,177.711006 72.9025709,179.508598 71.6269204,179.898967 C70.3511146,180.289491 70.8151146,179.921802 69.0220272,180.519083 C67.2289398,181.11621 65.4625709,180.686074 64.785134,179.405142 L63.5706874,178.514113 L64.5030369,175.470695 Z" id="Fill-114" fill="#FFB07B"></path>
                <path d="M65.9737631,177.997685 C66.6345786,176.273724 66.9362485,175.493142 66.9362485,175.493142 C66.9362485,175.493142 53.4331806,164.48654 52.0573359,163.54254 C51.1197049,162.899433 41.7859573,155.922501 37.2352777,150.485142 C34.978035,147.787977 31.4188893,146.555045 27.9765592,147.276753 L25.1420738,147.871394 C21.7191612,148.589219 20.6070835,152.921336 23.2623068,155.19753 C30.7402097,161.608093 43.3524039,169.043433 45.7039379,170.589841 C51.5417631,174.429064 64.4540738,179.808792 64.4540738,179.808792 C64.4540738,179.808792 65.4549282,179.351783 65.9737631,177.997685" id="Fill-116" fill="#ADE0AB"></path>
                <path d="M32.966633,141.062617 C28.6494291,141.305103 25.8418175,137.740365 25.8418175,137.740365 C25.8418175,137.740365 27.7936621,136.659045 28.8580505,135.863394 L32.5608854,137.743938 C32.5608854,137.743938 32.8001087,138.930734 32.966633,141.062617" id="Fill-118" fill="#EA8E50"></path>
                <path d="M34.8059806,136.629965 C34.8059806,136.629965 28.264466,141.324489 25.4037282,137.205654 C22.5431456,133.086819 19.7720388,130.918897 23.8276505,127.74748 C27.8835728,124.576217 29.7951845,125.578159 31.0843495,126.720528 C32.3736699,127.863052 36.4337864,135.302742 34.8059806,136.629965" id="Fill-120" fill="#FFB07B"></path>
                <path d="M31.7754874,123.00087 C31.5409243,121.417647 31.013235,120.30355 31.013235,120.30355 C31.013235,120.30355 30.6026718,122.004054 27.4949437,121.769336 C24.3872155,121.534928 19.461701,122.075045 17.8199146,125.616326 C17.7153709,125.841724 17.6223223,126.073802 17.5395262,126.311161 C17.2423612,125.525918 17.1707495,124.34953 17.1707495,124.34953 C16.5803029,125.87388 17.1707495,127.780986 17.1707495,127.780986 L17.1709049,127.780986 C17.1622058,127.836443 17.1547495,127.89221 17.1466718,127.948132 C16.4610019,128.52786 15.8848466,130.330423 15.8848466,130.330423 C16.0919146,129.827899 16.5966136,129.499666 17.0467883,129.297569 C17.0328078,132.053142 18.150167,134.747045 20.1116427,135.549064 C22.9799922,136.721724 22.9570019,135.827122 25.8418175,137.740443 C25.8418175,137.740443 26.6154097,136.780443 26.0878757,136.135472 C25.5598757,135.490346 23.5664,134.552249 24.6804971,133.613996 C25.7945942,132.675899 26.2050019,133.731278 26.6154097,133.086307 C27.0259728,132.441181 24.9737786,130.564831 27.6122252,128.805918 C30.2509825,127.04685 32.0100505,124.583938 31.7754874,123.00087" id="Fill-122" fill="#FCDFA8"></path>
                <path d="M200.17339,249.957483 C200.17339,249.957483 196.865584,245.068008 191.688264,245.462105 C190.114983,245.581872 187.558089,245.96525 184.588458,246.373794 C182.348458,238.557872 176.174633,219.978299 167.847953,218.932396 C159.343876,217.864124 175.985584,238.526804 182.790866,246.61628 C181.549701,246.779542 180.260847,246.939386 178.959876,247.08059 C175.356924,243.2336 169.078245,237.534183 163.835371,237.972241 C158.579449,238.411386 168.419759,243.845173 175.52205,247.399969 C171.164148,247.726183 167.032264,247.690144 164.506905,246.713988 C158.322983,244.323153 152.639565,249.957483 152.639565,249.957483 L200.17339,249.957483 Z" id="Fill-124" fill="#82B378"></path>
            </g>
            <g id="Group-5" transform="translate(0.000000, 214.000000)">
                <path d="M143.110775,284 C138.85318,168.293905 26.870617,243.884127 3.25420925,152.283756 C-8.74209524,105.755523 15.0819756,91.510445 31.6348293,67.2998076 C65.0214335,18.4681048 146,0 146,0" id="Stroke-1" stroke="#678189" stroke-dasharray="12,12"></path>
                <path d="M143.307239,291 C144.313131,287.698449 146.076599,283.582424 148,281 L143.061027,283.161976 L138,281.373349 C140.080177,283.806433 142.098274,287.78116 143.307239,291" id="Fill-3" fill="#678189"></path>
            </g>
            <g id="Group-5-Copy" transform="translate(564.000000, 359.500000) scale(-1, 1) translate(-564.000000, -359.500000) translate(490.000000, 214.000000)">
                <path d="M143.110775,284 C138.85318,168.293905 26.870617,243.884127 3.25420925,152.283756 C-8.74209524,105.755523 15.0819756,91.510445 31.6348293,67.2998076 C65.0214335,18.4681048 146,0 146,0" id="Stroke-1" stroke="#FFFFFF" stroke-dasharray="12,12"></path>
                <path d="M143.307239,291 C144.313131,287.698449 146.076599,283.582424 148,281 L143.061027,283.161976 L138,281.373349 C140.080177,283.806433 142.098274,287.78116 143.307239,291" id="Fill-3" fill="#FFFFFF"></path>
            </g>
        </g>
    </g>
</svg>