<?xml version="1.0" encoding="UTF-8"?>
<svg width="300px" height="159px" viewBox="0 0 300 159" version="1.1" xmlns="http://www.w3.org/2000/svg" xmlns:xlink="http://www.w3.org/1999/xlink">
    <!-- Generator: Sketch 63.1 (92452) - https://sketch.com -->
    <title>fish copy 4</title>
    <desc>Created with Sketch.</desc>
    <g id="Page-1" stroke="none" stroke-width="1" fill="none" fill-rule="evenodd">
        <g id="profile-page-actions" transform="translate(-52.000000, -136.000000)" fill="#E6CFC0">
            <g id="fish-copy-4" transform="translate(52.000000, 136.000000)">
                <path d="M251.406401,111.92232 C248.018361,115.255988 244.502707,118.412272 240.879456,121.405328 C234.584641,105.206681 224.615697,90.8951409 211.708283,79.4125975 C224.615697,67.9300541 234.584641,53.6176816 240.879456,37.4190341 C244.502707,40.4129232 248.018361,43.5683741 251.406401,46.9020426 C261.397865,56.7356568 269.930521,67.6643932 276.910951,79.4125975 C269.930521,91.159969 261.397865,102.088705 251.406401,111.92232 M86.0972484,149.086519 C91.2819001,125.918231 111.408291,108.813505 134.911879,107.073801 C136.225558,107.119605 137.542573,107.14792 138.863758,107.14792 C140.18411,107.14792 141.501125,107.119605 142.815637,107.073801 C166.336741,108.815171 186.475643,125.943215 191.641945,149.138152 C174.886912,154.955208 157.100954,157.990737 138.863758,157.990737 C120.815065,157.990737 102.969887,154.946047 86.0972484,149.086519 M37.5261693,121.95164 C43.7784457,105.745497 53.7348788,91.4347905 66.6422929,79.9714013 C69.6558301,82.6105208 72.8228383,85.0997377 76.1399811,87.4215633 C92.1877129,98.654269 110.70099,105.272471 130.130923,106.800646 C108.363059,110.345843 90.2559797,126.895097 85.307373,148.802537 C75.9189495,145.488023 66.8316295,141.313234 58.1922113,136.279836 C50.9240235,132.045918 44.016993,127.245702 37.5261693,121.95164 M0.849929242,79.4125975 C10.3367744,63.4296432 22.5627438,49.2122091 36.8513972,37.427362 C43.1462117,53.6226784 53.114322,67.9317196 66.0183998,79.4125975 C53.114322,90.8934753 43.1462117,105.202517 36.8513972,121.397833 C22.5627438,109.612153 10.3367744,95.3955518 0.849929242,79.4125975 M58.1947136,22.5420283 C66.8341317,17.5102958 75.9206177,13.3363396 85.307373,10.0218253 C90.2551456,31.9292657 108.364727,48.4776861 130.131757,52.0237167 C110.70099,53.551891 92.1877129,60.1700932 76.1399811,71.4027989 C72.8228383,73.7254573 69.6558301,76.2146742 66.6422929,78.8537937 C53.7348788,67.3895717 43.7784457,53.0788648 37.5261693,36.873555 C44.0178271,31.5769944 50.9256917,26.7767783 58.1947136,22.5420283 M191.636941,9.68454436 C186.463966,32.9127937 166.408472,50.0150211 142.823144,51.7513935 C141.506963,51.7047572 140.186612,51.6764422 138.863758,51.6764422 C137.542573,51.6764422 136.225558,51.7047572 134.911879,51.7513935 C111.409959,50.0108571 91.2819001,32.9052985 86.0964143,9.73867587 C102.969887,3.87914762 120.814231,0.832792532 138.863758,0.832792532 C157.099286,0.832792532 174.883576,3.8691541 191.636941,9.68454436 M211.08439,79.9705685 C223.995974,91.4372889 233.954075,105.752993 240.205518,121.964132 C225.820945,133.718166 209.684801,142.778116 192.435157,148.868327 C187.509071,126.927575 169.386144,110.350007 147.596594,106.800646 C167.026527,105.272471 185.53897,98.654269 201.587535,87.4215633 C204.904678,85.0997377 208.071687,82.6105208 211.08439,79.9705685 M201.108773,86.740339 C183.895829,98.7883486 163.823653,105.488164 142.833987,106.240176 C141.519474,106.144405 140.197455,106.082778 138.863758,106.082778 C137.530896,106.082778 136.208042,106.144405 134.893529,106.240176 C113.903864,105.488164 93.8316879,98.7883486 76.618744,86.740339 C73.3549824,84.4559891 70.2388532,82.0067462 67.2720246,79.4125975 C70.2388532,76.8184488 73.3549824,74.3683731 76.618744,72.0840232 C93.8316879,60.0360137 113.903864,53.3353649 134.893529,52.5841861 C136.208042,52.68079 137.530896,52.7415839 138.863758,52.7415839 C140.200791,52.7415839 141.526147,52.68079 142.843162,52.5850189 C163.829491,53.3370305 183.897497,60.0376792 201.108773,72.0840232 C204.372534,74.3683731 207.488663,76.8184488 210.454658,79.4125975 C207.488663,82.0067462 204.372534,84.4559891 201.108773,86.740339 M240.205518,36.8602303 C233.954075,53.0713697 223.995974,67.3862405 211.08439,78.8537937 C208.071687,76.2146742 204.905512,73.7254573 201.587535,71.4027989 C185.543974,60.1725916 167.03737,53.556055 147.613275,52.0253823 C169.447032,48.4843484 187.498228,31.9267673 192.430987,9.95520193 C209.683132,16.0454137 225.819277,25.1053637 240.205518,36.8602303 M300,0.423058606 L299.165918,0.410566718 C298.738868,28.3257724 291.178752,55.089226 277.396386,78.5989592 C270.422629,66.9381982 261.923337,56.0852459 251.991092,46.3090943 C234.884077,29.4725277 214.650923,16.9015244 192.617821,9.13823246 C192.628664,9.08076977 192.644512,9.02413988 192.656189,8.96667719 L191.838789,8.7992859 C191.833784,8.82260409 191.827112,8.84508949 191.822107,8.86840768 C175.007854,3.04219112 157.161842,0 138.863758,0 C110.324819,0 82.285495,7.54676593 57.7751705,21.8233283 C33.9879948,35.6776649 14.0109042,55.5172814 0.00500449014,79.1952386 L0.364493699,79.4076007 L0,79.6216284 C14.0058997,103.301251 33.9829903,123.142533 57.7718342,136.998536 C82.2829928,151.276763 110.324819,158.823529 138.863758,158.823529 C181.473656,158.823529 221.649702,142.377542 251.991092,112.515268 C261.923337,102.739949 270.422629,91.886164 277.396386,80.2245702 C291.178752,103.735136 298.738868,130.499423 299.165918,158.413795 L300,158.401304 C299.56878,130.184627 291.882717,103.13969 277.882656,79.4125975 C291.882717,55.6855055 299.56878,28.640568 300,0.423058606" id="Fill-1"></path>
            </g>
        </g>
    </g>
</svg>