<?xml version="1.0" encoding="UTF-8"?>
<svg width="250px" height="304px" viewBox="0 0 250 304" version="1.1" xmlns="http://www.w3.org/2000/svg" xmlns:xlink="http://www.w3.org/1999/xlink">
    <!-- Generator: Sketch 58 (84663) - https://sketch.com -->
    <title>Group 8</title>
    <desc>Created with Sketch.</desc>
    <g id="Page-1" stroke="none" stroke-width="1" fill="none" fill-rule="evenodd">
        <g id="forum-main-screen-empty-state" transform="translate(-728.000000, -583.000000)">
            <g id="Group-8" transform="translate(728.000000, 583.000000)">
                <polyline id="Fill-122" fill="#FCFCFC" points="1.89004368e-12 51.6225215 176.049374 -3.41060513e-13 249.952402 252.022295 73.9030285 303.644816 1.89004368e-12 51.6225215"></polyline>
                <polyline id="Fill-123" fill="#354739" points="3.55271368e-13 51.6225215 176.049374 7.10542736e-14 183.110881 23.8648022 6.93942981 75.6066884 3.55271368e-13 51.6225215"></polyline>
                <polyline id="Fill-124" fill="#88816C" points="10.4688271 87.4156555 186.520913 35.7958469 190.172388 48.0904114 14.1230147 99.7129328 10.4688271 87.4156555"></polyline>
                <path d="M26.7838118,111.524613 L91.3112854,92.6514255 L93.6253329,100.567476 L29.0978593,119.560028 L26.7838118,111.524613 Z M36.0372891,143.300039 L100.564763,124.307487 L103.000888,132.220825 L38.3513367,151.213377 L36.0372891,143.300039 Z M31.4119069,127.351287 C52.9599487,121.14161 74.3886258,114.812568 95.9393805,108.480813 C96.7912104,111.15838 97.5209628,113.71387 98.2507152,116.39415 C76.8247509,122.723192 55.2739963,129.054947 33.7259544,135.386702 C32.9934892,132.709135 32.1416593,130.028855 31.4119069,127.351287 L31.4119069,127.351287 Z" id="Fill-125" fill="#8DBA9C"></path>
                <polyline id="Fill-126" fill="#F2BE26" points="32.9934892 164.362484 209.16494 112.739963 212.69705 125.03724 36.6476768 176.659761 32.9934892 164.362484"></polyline>
                <path d="M137.70075,162.536747 L202.347588,143.544195 L204.661636,151.579609 L140.012084,170.572161 L137.70075,162.536747 Z M147.073592,194.192809 L211.601065,175.319621 L213.9124,183.235671 L149.384927,202.228223 L147.073592,194.192809 Z M142.326132,178.363421 C163.874174,172.034379 185.424928,165.702624 206.975683,159.370869 C207.705436,162.051149 208.557265,164.728717 209.287018,167.406284 C187.738976,173.738039 166.188221,180.069794 144.759544,186.398836 C143.907714,183.721269 143.177962,181.043701 142.326132,178.363421 Z M55.5181513,186.642991 L120.045625,167.772517 L122.35696,175.685854 L57.829486,194.678406 L55.5181513,186.642991 Z M64.7689159,218.29634 L129.299102,199.425866 L131.732515,207.339203 L67.0829634,226.334468 L64.7689159,218.29634 Z M60.1435336,202.469666 C81.6942883,196.140623 103.122965,189.930946 124.671007,183.599191 C125.522837,186.154681 126.25259,188.834961 127.107132,191.512528 C105.556378,197.844283 84.0083358,204.173325 62.4575811,210.50508 C61.7278287,207.827513 60.873286,205.149946 60.1435336,202.469666 L60.1435336,202.469666 Z" id="Fill-127" fill="#243A61"></path>
                <polyline id="Fill-128" fill="#88816C" points="56.4920588 244.108957 232.544145 192.486436 236.192907 204.783713 60.0214561 256.528312 56.4920588 244.108957"></polyline>
                <path d="M73.9030285,264.319572 L228.889958,218.78465 L230.105307,222.802358 L75.1183782,268.215202 L73.9030285,264.319572 Z M78.5284108,280.146246 L233.637417,234.614038 L234.733402,238.631745 L79.7464733,284.041876 L78.5284108,280.146246 Z M76.2143632,272.232909 C127.958962,257.013909 179.581484,241.797623 231.32337,226.697988 C231.689602,228.038128 232.055835,229.375555 232.422068,230.715695 C180.796833,245.81533 129.054947,261.031617 77.4324258,276.128539 C77.068906,274.791112 76.5805958,273.573049 76.2143632,272.232909 L76.2143632,272.232909 Z" id="Fill-129" fill="#8DBA9C"></path>
                <polygon id="Fill-130" fill="#FFFFFE" points="33.2376443 283.190046 216.714758 283.190046 216.714758 20.4547697 33.2376443 20.4547697"></polygon>
                <polygon id="Fill-131" fill="#354739" points="33.2376443 45.412844 216.714758 45.412844 216.714758 20.4547697 33.2376443 20.4547697"></polygon>
                <polygon id="Fill-132" fill="#88816C" points="33.2376443 70.6150735 216.714758 70.6150735 216.714758 57.8321989 33.2376443 57.8321989"></polygon>
                <path d="M44,93.8722008 L111.327118,93.8722008 L111.327118,85.4705534 L44,85.4705534 L44,93.8722008 Z M44,126.86569 L111.327118,126.86569 L111.327118,118.58612 L44,118.58612 L44,126.86569 Z M44,102.02698 C66.5246621,102.02698 88.9245339,102.02698 111.327118,102.02698 C111.327118,104.826625 111.327118,107.628983 111.327118,110.30655 C88.9245339,110.30655 66.5246621,110.30655 44,110.30655 C44,107.628983 44,104.826625 44,102.02698 L44,102.02698 Z" id="Fill-133" fill="#BCE2C9"></path>
                <path d="M139,93.8722008 L206.327118,93.8722008 L206.327118,85.4705534 L139,85.4705534 L139,93.8722008 Z M139,126.86569 L206.327118,126.86569 L206.327118,118.58612 L139,118.58612 L139,126.86569 Z M139,102.02698 C161.524662,102.02698 183.924534,102.02698 206.327118,102.02698 C206.327118,104.826625 206.327118,107.628983 206.327118,110.30655 C183.924534,110.30655 161.524662,110.30655 139,110.30655 C139,107.628983 139,104.826625 139,102.02698 L139,102.02698 Z" id="Fill-133-Copy" fill="#BCE2C9"></path>
                <polygon id="Fill-134" fill="#88816C" points="33.2376443 150.847144 216.714758 150.847144 216.714758 137.942192 33.2376443 137.942192"></polygon>
                <path d="M134.16864,173.982194 L201.495758,173.982194 L201.495758,165.702624 L134.16864,165.702624 L134.16864,173.982194 Z M134.16864,206.975683 L201.495758,206.975683 L201.495758,198.696113 L134.16864,198.696113 L134.16864,206.975683 Z M134.16864,182.136973 C156.571224,182.136973 179.095886,182.136973 201.495758,182.136973 C201.495758,184.939331 201.495758,187.738976 201.495758,190.538621 C179.095886,190.538621 156.571224,190.538621 134.16864,190.538621 C134.16864,187.738976 134.16864,184.939331 134.16864,182.136973 Z M48.456644,173.982194 L115.783762,173.982194 L115.783762,165.702624 L48.456644,165.702624 L48.456644,173.982194 Z M48.456644,206.975683 L115.783762,206.975683 L115.783762,198.696113 L48.456644,198.696113 L48.456644,206.975683 Z M48.456644,182.136973 C70.8592286,182.136973 93.3811779,182.136973 115.783762,182.136973 C115.783762,184.939331 115.783762,187.738976 115.783762,190.538621 C93.3811779,190.538621 70.8592286,190.538621 48.456644,190.538621 C48.456644,187.738976 48.456644,184.939331 48.456644,182.136973 L48.456644,182.136973 Z" id="Fill-135" fill="#BCE2C9"></path>
                <polygon id="Fill-136" fill="#88816C" points="33.2376443 234.00365 216.714758 234.00365 216.714758 221.098698 33.2376443 221.098698"></polygon>
                <path d="M44.316859,249.466805 L205.879698,249.466805 L205.879698,245.32702 L44.316859,245.32702 L44.316859,249.466805 Z M44.316859,266.023232 L205.879698,266.023232 L205.879698,261.883447 L44.316859,261.883447 L44.316859,266.023232 Z M44.316859,253.60659 C98.1286377,253.60659 152.065207,253.60659 205.879698,253.60659 C205.879698,254.944017 205.879698,256.406235 205.879698,257.743662 C152.065207,257.743662 98.1286377,257.743662 44.316859,257.743662 C44.316859,256.406235 44.316859,254.944017 44.316859,253.60659 L44.316859,253.60659 Z" id="Fill-137" fill="#BCE2C9"></path>
            </g>
        </g>
    </g>
</svg>