<svg xmlns="http://www.w3.org/2000/svg" xmlns:xlink="http://www.w3.org/1999/xlink" width="441" height="104" viewBox="0 0 441 104">
    <defs>
        <path id="a" d="M0 0h471v104H0z"/>
        <path id="c" d="M.5.774h203v646H.5z"/>
        <path id="e" d="M.606 0h736.371v395.837H.606z"/>
    </defs>
    <g fill="none" fill-rule="evenodd" transform="matrix(-1 0 0 1 457 0)">
        <mask id="b" fill="#fff">
            <use xlink:href="#a"/>
        </mask>
        <g mask="url(#b)" opacity=".655">
            <g transform="rotate(90 294.637 205.637)">
                <mask id="d" fill="#fff">
                    <use xlink:href="#c"/>
                </mask>
                <path stroke="#979797" d="M1 1.274h202v645H1z"/>
                <g mask="url(#d)">
                    <g transform="matrix(0 -1 -1 0 394 549.274)">
                        <mask id="f" fill="#fff">
                            <use xlink:href="#e"/>
                        </mask>
                        <use fill="#D8D8D8" fill-opacity="0" xlink:href="#e"/>
                        <g stroke="#E6CFC0" stroke-linecap="square" mask="url(#f)">
                            <path d="M388.448 178.762L154.251 413.767M461.472 175.172L188.165 448.48M528.91 177.169L222.881 483.196"/>
                        </g>
                        <g mask="url(#f)">
                            <g stroke="#E6CFC0" transform="translate(.672 203.258)">
                                <ellipse cx="282.715" cy="279.375" rx="183.808" ry="181.683"/>
                                <ellipse cx="282.715" cy="279.375" rx="231.108" ry="228.438"/>
                                <ellipse cx="282.715" cy="279.375" rx="282.079" ry="278.82"/>
                            </g>
                        </g>
                    </g>
                </g>
            </g>
        </g>
    </g>
</svg>
