<?xml version="1.0" encoding="UTF-8"?>
<svg width="150px" height="200px" viewBox="0 0 150 200" version="1.1" xmlns="http://www.w3.org/2000/svg" xmlns:xlink="http://www.w3.org/1999/xlink">
    <!-- Generator: Sketch 63.1 (92452) - https://sketch.com -->
    <title>heart</title>
    <desc>Created with Sketch.</desc>
    <defs>
        <rect id="path-1" x="0" y="0" width="153" height="320"></rect>
    </defs>
    <g id="Page-1" stroke="none" stroke-width="1" fill="none" fill-rule="evenodd">
        <g id="profile-page-actions" transform="translate(-1290.000000, -184.000000)">
            <g id="heart" transform="translate(1287.000000, 64.000000)">
                <mask id="mask-2" fill="white">
                    <use xlink:href="#path-1"></use>
                </mask>
                <use id="Mask" fill="#D8D8D8" opacity="0" xlink:href="#path-1"></use>
                <g mask="url(#mask-2)" fill="#E6CFC0" id="Fill-8">
                    <g transform="translate(3.000000, 120.000000)">
                        <path d="M276.312834,133.198616 L261.225042,148.156298 L243.465548,130.549954 L258.276382,115.865337 L258.276382,115.86609 C258.280176,115.863081 258.282452,115.859319 258.285487,115.85631 L299.17823,75.3177115 C299.216169,76.3166957 299.241209,77.3171844 299.241209,78.3229388 C299.241209,99.0518613 291.098628,118.54108 276.312834,133.198616 L276.312834,133.198616 Z M132.221537,240.833899 L150.518254,222.694964 L168.278506,240.302061 L149.981789,258.440996 L132.221537,240.833899 Z M0.864262481,74.3315155 L42.213038,115.323719 C42.2160732,115.327481 42.2191084,115.33049 42.2229023,115.334251 L42.2229023,115.333499 L57.0344946,130.017363 L38.7370184,148.156298 L23.6507439,133.199368 C7.36785662,117.056897 -0.226119596,95.5132907 0.864262481,74.3315155 L0.864262481,74.3315155 Z M23.6507439,23.4465093 C30.0200321,17.1321467 37.2247487,12.1402346 44.912815,8.46174609 L64.5829434,27.9622489 C56.1937546,30.3401022 48.2810864,34.7888918 41.6864374,41.3266718 C35.397581,47.5605439 30.9176813,55.0672182 28.4887927,63.2426402 L8.88467901,43.8083351 C12.5595018,36.4551192 17.4810176,29.5622786 23.6507439,23.4465093 L23.6507439,23.4465093 Z M134.357532,23.4465093 L149.445324,38.4026871 L131.684313,56.0105361 L76.0088121,0.815153818 C97.0409696,0.023789817 118.336428,7.56356299 134.357532,23.4465093 L134.357532,23.4465093 Z M165.605287,23.4465093 C181.888933,7.30403773 203.619178,-0.224451742 224.984445,0.855775164 L168.814213,56.5423749 L150.518254,38.4026871 L165.605287,23.4465093 Z M291.4545,44.4996503 L271.758573,64.0257295 C269.360036,55.708885 264.87179,47.8644518 258.276382,41.3266718 C251.989043,35.0935519 244.414795,30.6522847 236.169018,28.2435894 L255.774649,8.80777978 C263.191827,12.4509127 270.143108,17.3299877 276.312834,23.4465093 C282.602449,29.6811337 287.68407,36.7928782 291.4545,44.4996503 L291.4545,44.4996503 Z M271.98621,64.8637328 L291.805062,45.2150373 C296.109681,54.2525345 298.61369,64.0919273 299.136496,74.2946553 L264.03105,109.09737 C273.365692,96.0722103 276.015388,79.7612354 271.98621,64.8637328 L271.98621,64.8637328 Z M224.632366,148.156298 L206.300744,129.98276 L224.060997,112.375663 L242.392618,130.549954 L224.632366,148.156298 Z M225.168831,148.688137 L242.929083,131.081793 L260.688577,148.688137 L242.929083,166.294482 L225.168831,148.688137 Z M206.299985,167.393515 L224.632366,149.219976 L242.392618,166.82632 L224.060997,184.999859 L206.299985,167.393515 Z M169.922806,203.456995 L205.76352,167.925353 L223.524532,185.531698 L187.682299,221.064844 L169.922806,203.456995 Z M169.386341,203.988834 L187.145834,221.596683 L168.814971,239.770222 L151.054719,222.163125 L169.386341,203.988834 Z M132.186632,203.456995 L150.518254,185.284209 L168.849876,203.456995 L150.518254,221.631286 L132.186632,203.456995 Z M131.650167,203.988834 L149.981789,222.163125 L131.684313,240.302061 L113.35345,222.128522 L131.650167,203.988834 Z M95.2722288,167.925353 L131.113702,203.456995 L112.816985,221.596683 L76.9755113,186.064289 L95.2722288,167.925353 Z M76.404142,149.219976 L94.7357638,167.393515 L76.4390464,185.53245 L58.1074245,167.358911 L76.404142,149.219976 Z M75.867677,148.688137 L57.5709596,166.827073 L39.2734833,148.688137 L57.5709596,130.549202 L75.867677,148.688137 Z M76.4390464,111.843072 L94.735005,129.98276 L76.404142,148.156298 L58.1074245,130.017363 L76.4390464,111.843072 Z M92.9252895,56.0601844 C88.8308555,53.5928138 84.1225599,52.2718678 79.2078732,52.2718678 C72.1344273,52.2718678 65.4843866,55.0032772 60.4831978,59.9620904 C55.5123607,64.8893092 52.8527997,71.3909813 52.9939347,78.2672725 C53.0910599,82.9364706 54.4644709,87.4597327 56.942681,91.4519083 L29.107207,63.8564739 C31.4723573,55.644944 35.9226641,48.1036664 42.2229023,41.8585105 C48.8304508,35.3079423 56.7810586,30.8892426 65.2021165,28.5753304 L92.9252895,56.0601844 Z M149.981789,75.2131491 L131.650167,93.386688 L113.352691,75.2477525 L131.684313,57.0742136 L149.981789,75.2131491 Z M150.518254,74.6813104 L132.221537,56.5423749 L149.981789,38.9345259 L168.277748,57.0742136 L150.518254,74.6813104 Z M187.145834,75.7795912 L169.386341,93.386688 L151.054719,75.2131491 L168.814213,57.6060523 L187.145834,75.7795912 Z M247.237496,78.5252933 C247.237496,71.5128454 244.482328,64.9193991 239.48038,59.9613382 C230.832444,51.3879774 217.860919,50.2550932 207.713612,56.4536097 L235.548327,28.8589275 C243.831285,31.2036819 251.441196,35.6126024 257.739917,41.8585105 C264.348224,48.4090787 268.80536,56.2911243 271.140159,64.6388109 L243.416227,92.123665 C245.904301,88.0645394 247.237496,83.3975981 247.237496,78.5252933 L247.237496,78.5252933 Z M188.218764,75.7795912 L203.102442,61.0257679 C213.300587,50.9133095 229.044733,50.6801128 238.943915,60.4931769 C243.801693,65.3098154 246.478706,71.7136954 246.478706,78.5252933 C246.478706,85.3368912 243.801693,91.7415235 238.943915,96.5574097 L224.060997,111.311985 L188.218764,75.7795912 Z M169.922806,93.9185267 L187.682299,76.3114299 L223.524532,111.843824 L205.764279,129.450921 L169.922806,93.9185267 Z M186.895434,148.156298 L151.054719,112.623904 L169.386341,94.4503655 L205.227814,129.98276 L186.895434,148.156298 Z M187.431899,148.688137 L205.764279,130.514598 L224.095901,148.688137 L205.76352,166.861676 L187.431899,148.688137 Z M186.895434,149.219976 L205.227055,167.393515 L169.386341,202.925157 L151.054719,184.75237 L186.895434,149.219976 Z M114.676781,148.688137 L150.518254,113.155743 L186.358969,148.688137 L150.518254,184.220531 L114.676781,148.688137 Z M114.140316,149.219976 L149.981789,184.75237 L131.650167,202.925157 L95.8086937,167.393515 L114.140316,149.219976 Z M113.603851,148.688137 L95.2722288,166.861676 L76.9406069,148.688137 L95.27147,130.514598 L113.603851,148.688137 Z M132.186632,93.9185267 L150.518254,75.7449878 L168.849876,93.9185267 L150.518254,112.092066 L132.186632,93.9185267 Z M131.650167,94.4503655 L149.981789,112.623904 L114.140316,148.156298 L95.8079349,129.98276 L131.650167,94.4503655 Z M76.4390464,110.779394 L61.5561277,96.025571 C56.6604109,91.1728246 53.8900664,84.8607188 53.7527253,78.2522276 C53.6153842,71.5820521 56.196031,65.275212 61.0196628,60.4939291 C65.8774401,55.6765384 72.3377832,53.024115 79.2078732,53.024115 C86.0794808,53.024115 92.5390651,55.6765384 97.3976012,60.4939291 L112.279761,75.2477525 L76.4390464,110.779394 Z M112.816226,75.7795912 L131.113702,93.9185267 L95.27147,129.450921 L76.9755113,111.311233 L112.816226,75.7795912 Z M190.575568,36.0323564 L225.99743,0.915954936 C235.980838,1.54859479 245.861809,4.06410925 255.050763,8.46099384 L235.324484,28.017163 C230.698138,26.7503788 225.872989,26.105703 220.947679,26.1553513 C209.974049,26.2644271 199.463282,29.730782 190.575568,36.0323564 L190.575568,36.0323564 Z M220.955267,26.9075984 C221.131306,26.9053417 221.305069,26.9045894 221.481109,26.9045894 C226.007295,26.9045894 230.442425,27.4981124 234.708346,28.6272354 L187.682299,75.2477525 L169.350678,57.0742136 L184.163029,42.3903493 C194.094839,32.5426818 207.161971,27.0445074 220.955267,26.9075984 L220.955267,26.9075984 Z M65.4282361,27.7365748 L45.6389776,8.11796914 C54.9334035,3.7872823 64.9152937,1.36655098 74.9791333,0.857279658 L110.047399,35.6223817 C96.9081813,26.3682372 80.4560837,23.7406379 65.4282361,27.7365748 L65.4282361,27.7365748 Z M116.337014,41.8585105 L131.147848,56.5423749 L112.816226,74.7159137 L66.0474092,28.3496562 C83.4487538,23.8767947 102.731899,28.3707191 116.337014,41.8585105 L116.337014,41.8585105 Z M36.3453104,108.443667 L0.924206937,73.3280178 C1.56234982,63.4314543 4.09974555,53.6349396 8.53487654,44.5252267 L28.2603967,64.0798913 C26.9825933,68.6655899 26.3330686,73.4476251 26.38239,78.3334703 C26.4931734,89.2117163 29.9889217,99.6325961 36.3453104,108.443667 L36.3453104,108.443667 Z M42.749503,114.791881 C32.8230045,104.945718 27.2800393,91.9965353 27.1411806,78.3267001 C27.0941356,73.6590065 27.6966153,69.0860961 28.878811,64.6944772 L75.9025814,111.311233 L57.5709596,129.484772 L42.749503,114.791881 Z M242.929083,130.017363 L224.597462,111.843824 L271.367037,65.4775665 C275.878806,82.7250891 271.347309,101.837432 257.749022,115.324472 L242.929083,130.017363 Z M276.849299,22.9146706 C246.031778,-7.63859964 195.887102,-7.6378474 165.068822,22.9146706 L149.981789,37.8708484 L134.893997,22.9146706 C104.076476,-7.63709515 53.9317999,-7.63709515 23.1142789,22.9146706 C-7.70475964,53.4664363 -7.70475964,103.179441 23.1142789,133.731207 L149.713177,259.23913 L149.981789,258.972835 L150.249642,259.23913 L276.849299,133.730455 C291.777745,118.930744 300,99.2534635 300,78.3229388 C300,57.3924141 291.777745,37.714381 276.849299,22.9146706 L276.849299,22.9146706 Z"></path>
                    </g>
                </g>
            </g>
        </g>
    </g>
</svg>