<?xml version="1.0" encoding="UTF-8"?>
<svg width="232px" height="331px" viewBox="0 0 232 331" version="1.1" xmlns="http://www.w3.org/2000/svg" xmlns:xlink="http://www.w3.org/1999/xlink">
    <!-- Generator: sketchtool 58 (101010) - https://sketch.com -->
    <title>E8EA7BEE-55A9-4A73-A8D7-678868CF7501</title>
    <desc>Created with sketchtool.</desc>
    <g id="Page-1" stroke="none" stroke-width="1" fill="none" fill-rule="evenodd">
        <g id="Employees-empty" transform="translate(-737.000000, -438.000000)">
            <g id="Group-191" transform="translate(737.000000, 438.000000)">
                <path d="M223.614001,330.520007 L11.8630009,330.592008 C7.71700089,330.592008 4.35400089,327.233007 4.35200089,323.087007 L4.247,13.7280069 C4.247,9.58100695 7.60600089,6.21800695 11.7530009,6.21700695 L223.503001,6.14500606 C227.651001,6.14500606 231.013001,9.50400695 231.015001,13.6510069 L231.120001,323.009007 C231.120001,327.156007 227.761001,330.519007 223.614001,330.520007" id="Fill-6" fill="#2E3537"></path>
                <path d="M219.367001,330.520007 L7.61600089,330.592008 C3.46900089,330.592008 0.107000892,327.233007 0.105000892,323.087007 L4.26325641e-13,13.7280069 C4.26325641e-13,9.58100695 3.35900089,6.21800695 7.50600089,6.21700695 L219.256001,6.14500606 C223.404001,6.14500606 226.766001,9.50400695 226.768001,13.6510069 L226.873001,323.009007 C226.873001,327.156007 223.514001,330.519007 219.367001,330.520007" id="Fill-7" fill="#88816C"></path>
                <path d="M210.268001,323.971007 L16.7040009,324.038008 C12.5570009,324.038008 9.19300089,320.678007 9.19200089,316.530007 L9.094,29.9060069 C9.094,25.7580069 12.4540009,22.3940069 16.6020009,22.3930069 L210.165001,22.3260067 C214.313001,22.3260067 217.677001,25.6870069 217.678001,29.8350069 L217.776002,316.459007 C217.776002,320.607007 214.415001,323.970007 210.268001,323.971007" id="Fill-8" fill="#2E3537"></path>
                <path d="M210.268001,321.633007 L16.7040009,321.700007 C12.5570009,321.700007 9.19300089,318.340007 9.19200089,314.192007 L9.094,25.4930069 C9.094,21.3450069 12.4540009,17.9820069 16.6020009,17.9810069 L210.165001,17.9140067 C214.313001,17.9140067 217.677001,21.2740069 217.678001,25.4220069 L217.776002,314.120007 C217.776002,318.268007 214.415001,321.632007 210.268001,321.633007" id="Fill-9" fill="#FFFFFE"></path>
                <g id="Group-179-Copy-185" transform="translate(24.482001, 289.182007)">
                    <circle id="Oval" fill="#E6CFC0" opacity="0.801176525" cx="8" cy="8" r="8"></circle>
                    <rect id="Rectangle" fill="#354739" opacity="0.500372024" x="24" y="6" width="20" height="4"></rect>
                    <rect id="Rectangle-Copy-310" fill="#354739" opacity="0.500372024" x="54" y="6" width="70" height="4"></rect>
                    <rect id="Rectangle-Copy-323" fill="#354739" opacity="0.500372024" x="134" y="6" width="44" height="4"></rect>
                </g>
                <g id="Group-179-Copy-184" transform="translate(24.482001, 257.182007)">
                    <circle id="Oval" fill="#E6CFC0" opacity="0.801176525" cx="8" cy="8" r="8"></circle>
                    <rect id="Rectangle" fill="#354739" opacity="0.500372024" x="24" y="6" width="20" height="4"></rect>
                    <rect id="Rectangle-Copy-310" fill="#354739" opacity="0.500372024" x="54" y="6" width="70" height="4"></rect>
                    <rect id="Rectangle-Copy-323" fill="#354739" opacity="0.500372024" x="134" y="6" width="44" height="4"></rect>
                </g>
                <g id="Group-179-Copy-183" transform="translate(24.482001, 225.182007)">
                    <circle id="Oval" fill="#E6CFC0" opacity="0.801176525" cx="8" cy="8" r="8"></circle>
                    <rect id="Rectangle" fill="#354739" opacity="0.500372024" x="24" y="6" width="20" height="4"></rect>
                    <rect id="Rectangle-Copy-310" fill="#354739" opacity="0.500372024" x="54" y="6" width="70" height="4"></rect>
                    <rect id="Rectangle-Copy-323" fill="#354739" opacity="0.500372024" x="134" y="6" width="44" height="4"></rect>
                </g>
                <g id="Group-179-Copy-182" transform="translate(24.482001, 193.182007)">
                    <circle id="Oval" fill="#E6CFC0" opacity="0.801176525" cx="8" cy="8" r="8"></circle>
                    <rect id="Rectangle" fill="#354739" opacity="0.500372024" x="24" y="6" width="20" height="4"></rect>
                    <rect id="Rectangle-Copy-310" fill="#354739" opacity="0.500372024" x="54" y="6" width="70" height="4"></rect>
                    <rect id="Rectangle-Copy-323" fill="#354739" opacity="0.500372024" x="134" y="6" width="44" height="4"></rect>
                </g>
                <g id="Group-179-Copy-181" transform="translate(24.482001, 161.182007)">
                    <circle id="Oval" fill="#E6CFC0" opacity="0.801176525" cx="8" cy="8" r="8"></circle>
                    <rect id="Rectangle" fill="#354739" opacity="0.500372024" x="24" y="6" width="20" height="4"></rect>
                    <rect id="Rectangle-Copy-310" fill="#354739" opacity="0.500372024" x="54" y="6" width="70" height="4"></rect>
                    <rect id="Rectangle-Copy-323" fill="#354739" opacity="0.500372024" x="134" y="6" width="44" height="4"></rect>
                </g>
                <g id="Group-179-Copy-180" transform="translate(24.482001, 129.182007)">
                    <circle id="Oval" fill="#E6CFC0" opacity="0.801176525" cx="8" cy="8" r="8"></circle>
                    <rect id="Rectangle" fill="#354739" opacity="0.500372024" x="24" y="6" width="20" height="4"></rect>
                    <rect id="Rectangle-Copy-310" fill="#354739" opacity="0.500372024" x="54" y="6" width="70" height="4"></rect>
                    <rect id="Rectangle-Copy-323" fill="#354739" opacity="0.500372024" x="134" y="6" width="44" height="4"></rect>
                </g>
                <g id="Group-179-Copy" transform="translate(24.482001, 97.182007)">
                    <circle id="Oval" fill="#E6CFC0" opacity="0.801176525" cx="8" cy="8" r="8"></circle>
                    <rect id="Rectangle" fill="#354739" opacity="0.500372024" x="24" y="6" width="20" height="4"></rect>
                    <rect id="Rectangle-Copy-310" fill="#354739" opacity="0.500372024" x="54" y="6" width="70" height="4"></rect>
                    <rect id="Rectangle-Copy-323" fill="#354739" opacity="0.500372024" x="134" y="6" width="44" height="4"></rect>
                </g>
                <g id="Group-179" transform="translate(24.482001, 65.182007)">
                    <circle id="Oval" fill="#E6CFC0" opacity="0.801176525" cx="8" cy="8" r="8"></circle>
                    <rect id="Rectangle" fill="#354739" opacity="0.500372024" x="24" y="6" width="20" height="4"></rect>
                    <rect id="Rectangle-Copy-310" fill="#354739" opacity="0.500372024" x="54" y="6" width="70" height="4"></rect>
                    <rect id="Rectangle-Copy-323" fill="#354739" opacity="0.500372024" x="134" y="6" width="44" height="4"></rect>
                </g>
                <polygon id="Fill-19" fill="#EDFFF3" points="28.2290009 30.5350069 198.578001 30.5350069 198.578001 17.9180069 28.2290009 17.9180069"></polygon>
                <path d="M29.6990009,0.328006949 C29.8700009,0.790006949 29.9770009,1.28300695 29.9770009,1.80500695 L29.9850009,23.7340069 C29.9860009,26.0960069 28.0710009,28.0130069 25.7080009,28.0140069 C25.1850009,28.0140069 24.6900009,27.9070069 24.2270009,27.7360069 C24.8310009,29.3670069 26.3870009,30.5350069 28.2290009,30.5350069 C30.5920009,30.5340069 32.5070009,28.6170069 32.5060013,26.2550069 L32.4980009,4.32600695 C32.4980009,2.48600695 31.3300009,0.931006949 29.6990009,0.328006949" id="Fill-20" fill="#2E3537"></path>
                <path d="M50.9930009,0.321006949 C51.1640009,0.783006949 51.2720009,1.27700695 51.2720009,1.79900695 L51.2790009,23.7270069 C51.2800009,26.0900069 49.3650009,28.0070069 47.0020009,28.0080069 C46.4790009,28.0080069 45.9840009,27.9010069 45.5210009,27.7290069 C46.1250009,29.3610069 47.6820009,30.5290069 49.5230009,30.5290069 C51.8860009,30.5280069 53.8010009,28.6120069 53.8000013,26.2490069 L53.7930009,4.32000695 C53.7920009,2.48000695 52.6240009,0.925006949 50.9930009,0.321006949" id="Fill-21" fill="#2E3537"></path>
                <path d="M93.5810009,0.309006949 C93.7530009,0.771006949 93.8600009,1.26400695 93.8600009,1.78600695 L93.8670009,23.7150069 C93.8680009,26.0780069 91.9540009,27.9940069 89.5910009,27.9950069 C89.0680009,27.9950069 88.5730009,27.8880069 88.1110009,27.7170069 C88.7140009,29.3480069 90.2700009,30.5170069 92.1120009,30.5160076 C94.4750009,30.5160076 96.3890009,28.5990069 96.3880013,26.2370069 L96.3810009,4.30700695 C96.3800009,2.46700695 95.2120009,0.912006949 93.5810009,0.309006949" id="Fill-22" fill="#2E3537"></path>
                <path d="M72.2870009,0.315006949 C72.4580009,0.777006949 72.5660009,1.27100695 72.5660009,1.79200695 L72.5730009,23.7220069 C72.5740009,26.0840069 70.6590009,28.0000069 68.2970009,28.0010069 C67.7740009,28.0010069 67.2790009,27.8940069 66.8160009,27.7230069 C67.4200009,29.3540069 68.9760009,30.5230069 70.8180009,30.5220076 C73.1800009,30.5210069 75.0950009,28.6050069 75.0950009,26.2430069 L75.0870009,4.31400695 C75.0860009,2.47300695 73.9180009,0.918006949 72.2870009,0.315006949" id="Fill-23" fill="#2E3537"></path>
                <path d="M114.876001,0.302006949 C115.047001,0.765006949 115.155001,1.25800695 115.155001,1.78000695 L115.162001,23.7080069 C115.163001,26.0710069 113.248001,27.9870069 110.885001,27.9890069 C110.363001,27.9890069 109.868001,27.8820069 109.405001,27.7110069 C110.009001,29.3410069 111.565001,30.5100069 113.406001,30.5100069 C115.769001,30.5090069 117.684001,28.5930069 117.683001,26.2300069 L117.676001,4.30100695 C117.675001,2.46100695 116.507001,0.905006949 114.876001,0.302006949" id="Fill-24" fill="#2E3537"></path>
                <path d="M136.170001,0.296006949 C136.342001,0.759006949 136.448001,1.25200695 136.449001,1.77400695 L136.456001,23.7020069 C136.457001,26.0660069 134.542001,27.9820069 132.179001,27.9830069 C131.656001,27.9830069 131.162001,27.8760069 130.698001,27.7040069 C131.302001,29.3350069 132.859001,30.5040069 134.700001,30.5040069 C137.064001,30.5030069 138.979001,28.5870069 138.978001,26.2230069 L138.970001,4.29500695 C138.969001,2.45500695 137.801001,0.900006949 136.170001,0.296006949" id="Fill-25" fill="#2E3537"></path>
                <path d="M157.465001,0.290006949 C157.636001,0.752006949 157.743001,1.24600695 157.743001,1.76700695 L157.750001,23.6960069 C157.752001,26.0590069 155.837001,27.9750069 153.474001,27.9760069 C152.951001,27.9760069 152.456001,27.8690069 151.993001,27.6970069 C152.597001,29.3290069 154.154001,30.4980069 155.995001,30.4970076 C158.359001,30.4960069 160.273001,28.5800069 160.272001,26.2170069 L160.265001,4.28900695 C160.264001,2.44800695 159.095001,0.893006949 157.465001,0.290006949" id="Fill-26" fill="#2E3537"></path>
                <path d="M178.759001,0.284006949 C178.931001,0.746006949 179.038001,1.23900695 179.038001,1.76100695 L179.045001,23.6900069 C179.046001,26.0520069 177.131001,27.9690069 174.769001,27.9690069 C174.245001,27.9700069 173.750001,27.8630069 173.287001,27.6920069 C173.891001,29.3230069 175.447001,30.4920069 177.289001,30.4910076 C179.653001,30.4900069 181.568001,28.5740069 181.567001,26.2110069 L181.560001,4.28200695 C181.558001,2.44300695 180.390001,0.887006949 178.759001,0.284006949" id="Fill-27" fill="#2E3537"></path>
                <path d="M202.853001,4.27600695 C202.853001,2.43600695 201.684001,0.880006949 200.054001,0.277006949 C200.225001,0.740006949 200.331001,1.23400695 200.332001,1.75500695 L200.339001,23.6830069 C200.340001,26.0470069 198.425001,27.9630069 196.064001,27.9640069 C195.540001,27.9640069 195.045001,27.8570069 194.582001,27.6850069 C195.186001,29.3170069 196.742001,30.4860069 198.584001,30.4850076 C200.946001,30.4840069 202.862001,28.5680069 202.861001,26.2050069 L202.853001,4.27600695" id="Fill-28" fill="#2E3537"></path>
                <path d="M29.9850013,23.7340069 L29.9770009,1.80500695 C29.9770009,1.28300695 29.8700009,0.790006949 29.6990009,0.328006949 C29.2360009,0.156006949 28.7410009,0.0490069488 28.2190009,0.0490069488 C25.8550009,0.0500069488 23.9400009,1.96600695 23.9410005,4.32900695 L23.9480009,26.2580069 C23.9490009,26.7790069 24.0560009,27.2730069 24.2270009,27.7360069 C24.6900009,27.9070069 25.1850009,28.0140069 25.7080009,28.0140069 C28.0710009,28.0130069 29.9860009,26.0960069 29.9850013,23.7340069" id="Fill-29" fill="#BCE2C9"></path>
                <path d="M51.2790013,23.7270069 L51.2720009,1.79900695 C51.2720009,1.27700695 51.1640009,0.783006949 50.9930009,0.321006949 C50.5300009,0.150006949 50.0350009,0.0430069488 49.5130009,0.0430069488 C47.1490009,0.0440069488 45.2340009,1.96100695 45.2359993,4.32300695 L45.2420009,26.2520069 C45.2430009,26.7740069 45.3500009,27.2670069 45.5210009,27.7290069 C45.9840009,27.9010069 46.4790009,28.0080069 47.0020009,28.0080069 C49.3650009,28.0070069 51.2800009,26.0900069 51.2790013,23.7270069" id="Fill-30" fill="#BCE2C9"></path>
                <path d="M93.8670013,23.7150069 L93.8600009,1.78600695 C93.8600009,1.26400695 93.7530009,0.771006949 93.5810009,0.309006949 C93.1190009,0.137006949 92.6240009,0.0300069488 92.1020009,0.0310000001 C89.7380009,0.0310000001 87.8240009,1.94800695 87.8240009,4.31100695 L87.8320009,26.2390069 C87.8320009,26.7610069 87.9400009,27.2550069 88.1110009,27.7170069 C88.5730009,27.8880069 89.0680009,27.9950069 89.5910009,27.9950069 C91.9540009,27.9940069 93.8680009,26.0780069 93.8670013,23.7150069" id="Fill-31" fill="#BCE2C9"></path>
                <path d="M72.5730013,23.7220069 L72.5660009,1.79200695 C72.5660009,1.27100695 72.4580009,0.777006949 72.2870009,0.315006949 C71.8240009,0.144006949 71.3300009,0.0370069488 70.8080009,0.0370069488 C68.4430009,0.0380069488 66.5290009,1.95400695 66.5300005,4.31700695 L66.5370009,26.2450069 C66.5370009,26.7670069 66.6440009,27.2600069 66.8160009,27.7230069 C67.2790009,27.8940069 67.7740009,28.0010069 68.2970009,28.0010069 C70.6590009,28.0000069 72.5740009,26.0840069 72.5730013,23.7220069" id="Fill-32" fill="#BCE2C9"></path>
                <path d="M115.162001,23.7080069 L115.155001,1.78000695 C115.155001,1.25800695 115.047001,0.765006949 114.876001,0.302006949 C114.413001,0.131006949 113.919001,0.0250069488 113.396001,0.0250069488 C111.032001,0.0250069488 109.117001,1.94100695 109.118001,4.30400695 L109.126001,26.2330069 C109.126001,26.7540069 109.234001,27.2480069 109.405001,27.7110069 C109.868001,27.8820069 110.363001,27.9890069 110.885001,27.9890069 C113.248001,27.9870069 115.163001,26.0710069 115.162001,23.7080069" id="Fill-33" fill="#BCE2C9"></path>
                <path d="M136.456001,23.7020069 L136.449001,1.77400695 C136.448001,1.25200695 136.342001,0.759006949 136.170001,0.296006949 C135.707001,0.125006949 135.213001,0.0180069488 134.690001,0.0180069488 C132.326001,0.0190069488 130.411001,1.93600695 130.412999,4.29800695 L130.420001,26.2270069 C130.420001,26.7490069 130.528001,27.2420069 130.698001,27.7040069 C131.162001,27.8760069 131.656001,27.9830069 132.179001,27.9830069 C134.542001,27.9820069 136.457001,26.0660069 136.456001,23.7020069" id="Fill-34" fill="#BCE2C9"></path>
                <path d="M157.750002,23.6960069 L157.743001,1.76700695 C157.743001,1.24600695 157.636001,0.752006949 157.465001,0.290006949 C157.002001,0.119006949 156.507001,0.0110069488 155.985001,0.0120000636 C153.621001,0.0120000636 151.706001,1.92900695 151.707001,4.29200695 L151.715001,26.2200069 C151.715001,26.7420069 151.822001,27.2360069 151.993001,27.6970069 C152.456001,27.8690069 152.951001,27.9760069 153.474001,27.9760069 C155.837001,27.9750069 157.752001,26.0590069 157.750002,23.6960069" id="Fill-35" fill="#BCE2C9"></path>
                <path d="M179.045001,23.6900069 L179.038001,1.76100695 C179.038001,1.23900695 178.931001,0.746006949 178.759001,0.284006949 C178.296001,0.112006949 177.802001,0.00500694882 177.279001,0.00500694882 C174.915001,0.00600694882 173.000001,1.92200695 173.001001,4.28600695 L173.009001,26.2150069 C173.009001,26.7360069 173.116001,27.2290069 173.287001,27.6920069 C173.750001,27.8630069 174.245001,27.9700069 174.769001,27.9690139 C177.131001,27.9690139 179.046001,26.0520069 179.045001,23.6900069" id="Fill-36" fill="#BCE2C9"></path>
                <path d="M200.339001,23.6830069 L200.332001,1.75500695 C200.331001,1.23400695 200.225001,0.740006949 200.054001,0.277006949 C199.590001,0.106006949 199.096001,-0.000993051184 198.573001,-3.69482223e-13 C196.210001,-3.69482223e-13 194.295001,1.91600695 194.295001,4.27900695 L194.303001,26.2080069 C194.303001,26.7290069 194.410001,27.2230069 194.582001,27.6850069 C195.045001,27.8570069 195.540001,27.9640069 196.064001,27.9640069 C198.425001,27.9630069 200.340001,26.0470069 200.339001,23.6830069" id="Fill-37" fill="#BCE2C9"></path>
            </g>
        </g>
    </g>
</svg>