<?xml version="1.0" encoding="UTF-8"?>
<svg width="584px" height="192px" viewBox="0 0 584 192" version="1.1" xmlns="http://www.w3.org/2000/svg" xmlns:xlink="http://www.w3.org/1999/xlink">
    <!-- Generator: sketchtool 58 (101010) - https://sketch.com -->
    <title>65A26316-F0DE-47B8-9B96-BEBB8ACD11AD</title>
    <desc>Created with sketchtool.</desc>
    <defs>
        <path d="M6.20564516,50.9656603 C4.49327957,53.8393162 3.26747312,57.336628 2.79973118,61.6377033 C2.79973118,61.6377033 8.52651283e-14,63.2062517 8.52651283e-14,65.6699614 C8.52651283e-14,68.1336711 0.22311828,76.6471119 3.02284946,83.0315205 L236.166667,83.0315205 L248.09543,71.9979184 C248.09543,71.9979184 249.186828,69.6457678 249.271505,67.461628 C249.354839,65.2774883 249.103495,59.5651227 248.767473,58.9777571 C248.431452,58.3890474 246.330645,56.289585 243.474462,54.6094775 C243.474462,54.6094775 243.704301,53.148456 243.736559,50.9656603 L6.20564516,50.9656603" id="path-1"></path>
    </defs>
    <g id="Page-1" stroke="none" stroke-width="1" fill="none" fill-rule="evenodd">
        <g id="Shuttle-main-screen-empty" transform="translate(-562.000000, -588.000000)">
            <g id="Group" transform="translate(562.000000, 588.000000)">
                <g id="Group-439" transform="translate(334.000000, 89.000000)">
                    <path d="M66.3077957,30.9481872 C66.3077957,30.9481872 37.4099462,34.5315205 28.2258065,37.2196926 C19.0403226,39.9078646 4.70295699,44.164585 2.79973118,61.6377033 C2.79973118,61.6377033 8.52651283e-14,63.2062517 8.52651283e-14,65.6699614 C8.52651283e-14,68.1336711 0.22311828,76.6471119 3.02284946,83.0315205 L236.166667,83.0315205 L248.09543,71.9979184 C248.09543,71.9979184 249.186828,69.6457678 249.271505,67.461628 C249.354839,65.2774883 249.103495,59.5651227 248.767473,58.9777571 C248.431452,58.3890474 246.330645,56.289585 243.474462,54.6094775 C243.474462,54.6094775 244.399194,48.7291012 242.802419,42.9320581 C241.206989,37.1363592 239.134409,31.0315205 233.758065,30.9481872 L66.3077957,30.9481872" id="Fill-4" fill="#A2D4B3"></path>
                    <mask id="mask-2" fill="white">
                        <use xlink:href="#path-1"></use>
                    </mask>
                    <g id="Clip-6"></g>
                    <path d="M6.20564516,50.9656603 C4.49327957,53.8393162 3.26747312,57.336628 2.79973118,61.6377033 C2.79973118,61.6377033 8.52651283e-14,63.2062517 8.52651283e-14,65.6699614 C8.52651283e-14,68.1336711 0.22311828,76.6471119 3.02284946,83.0315205 L236.166667,83.0315205 L248.09543,71.9979184 C248.09543,71.9979184 249.186828,69.6457678 249.271505,67.461628 C249.354839,65.2774883 249.103495,59.5651227 248.767473,58.9777571 C248.431452,58.3890474 246.330645,56.289585 243.474462,54.6094775 C243.474462,54.6094775 243.704301,53.148456 243.736559,50.9656603 L6.20564516,50.9656603" id="Fill-5" fill="#BCE2C9"></path>
                    <path d="M6.44623656,50.5772194 C6.30913978,50.7963055 6.17741935,51.0221119 6.04569892,51.2492625 L19.7688172,51.2492625 C21.0241935,51.2492625 25.4462366,49.8769506 28.8172043,48.2761442 C32.2822581,46.6309829 54.6733871,39.1081334 60.7620968,37.5449614 C65.6424731,36.2922732 69.6612903,33.351413 71.6827957,30.9481872 L70.7930108,30.9481872 C68.7231183,33.1860904 64.9233871,35.7828646 60.5954301,36.8944237 C54.4879032,38.4629721 32.0120968,46.0153915 28.5282258,47.6686173 C25.0362903,49.3272194 20.8064516,50.5772194 19.7688172,50.5772194 L6.44623656,50.5772194" id="Fill-8" fill="#86AE94"></path>
                    <path d="M162.239247,83.0315205 C163.602151,77.8191549 167.204301,63.0691549 167.114247,53.0100151 C167.010753,41.5503377 165.869624,34.7640474 160.236559,30.9481872 L158.954301,30.9481872 C165.122312,34.4817893 166.336022,41.2035635 166.442204,53.0167356 C166.533602,63.1108216 162.865591,78.0059829 161.544355,83.0315205 L162.239247,83.0315205" id="Fill-9" fill="#86AE94"></path>
                    <path d="M75.2916667,41.9737248 C76.233871,35.6632409 82.1034946,32.3944237 85.766129,30.9481872 L84.0806452,30.9481872 C80.3413978,32.6901227 75.4986559,36.0315205 74.6276882,41.8742625 C73.7836022,47.5315205 71.4233871,66.7089399 75.1760753,83.0315205 L75.8642473,83.0315205 C72.0873656,66.7949614 74.4502688,47.617542 75.2916667,41.9737248" id="Fill-10" fill="#86AE94"></path>
                    <path d="M245.826613,70.4401227 C244.790323,70.4401227 242.728495,70.4199614 241.071237,67.4710366 L241.073925,67.5248001 C236.255376,59.1753377 227.255376,53.5422732 216.922043,53.5422732 C202.971774,53.5422732 191.444892,63.7963055 189.391129,77.1739936 L189.365591,77.117542 C188.860215,79.6148538 186.603495,82.695499 184.362903,82.695499 C182.123656,82.695499 73.7002688,82.695499 68.547043,82.695499 C63.3951613,82.695499 63.0282258,77.117542 63.0282258,77.117542 L63.0053763,77.1968431 C60.9596774,63.8070581 49.4301075,53.5422732 35.4704301,53.5422732 C20.0672043,53.5422732 7.58064516,66.0274883 7.58064516,81.4320581 C7.58064516,81.7761442 7.61155914,82.1135098 7.625,82.4562517 C6.45564516,82.4562517 5.22446237,82.4562517 4.85752688,82.4562517 C4.10080645,82.4562517 2.38844086,81.4320581 2.38844086,81.4320581 C2.38844086,81.4320581 2.38844086,84.7667356 2.38844086,85.9428108 C2.38844086,87.1188861 5.84274194,90.5355528 9.13037634,90.5355528 L231.294355,90.5355528 C231.294355,90.5355528 237.927419,89.0207678 241.900538,86.0422732 L241.900538,86.0463055 C241.900538,86.0463055 245.909946,83.367542 246.638441,81.8554452 C247.366935,80.3433485 248.150538,77.7667356 248.263441,76.6471119 C248.375,75.5261442 248.685484,70.4401227 248.685484,70.4401227 C248.685484,70.4401227 246.862903,70.4401227 245.826613,70.4401227" id="Fill-11" fill="#4D4D4A"></path>
                    <path d="M56.9758065,81.4320581 C56.9758065,93.3084022 47.3467742,102.937434 35.4704301,102.937434 C23.5927419,102.937434 13.9650538,93.3084022 13.9650538,81.4320581 C13.9650538,69.5530259 23.5927419,59.9266818 35.4704301,59.9266818 C47.3467742,59.9266818 56.9758065,69.5530259 56.9758065,81.4320581" id="Fill-12" fill="#3A3B38"></path>
                    <path d="M50.1680108,81.4320581 C50.1680108,89.5489936 43.5873656,96.1296388 35.4704301,96.1296388 C27.3521505,96.1296388 20.7728495,89.5489936 20.7728495,81.4320581 C20.7728495,73.3137786 27.3521505,66.7344775 35.4704301,66.7344775 C43.5873656,66.7344775 50.1680108,73.3137786 50.1680108,81.4320581" id="Fill-13" fill="#F0EFEB"></path>
                    <path d="M238.427419,81.4320581 C238.427419,93.3084022 228.798387,102.937434 216.922043,102.937434 C205.044355,102.937434 195.416667,93.3084022 195.416667,81.4320581 C195.416667,69.5530259 205.044355,59.9266818 216.922043,59.9266818 C228.798387,59.9266818 238.427419,69.5530259 238.427419,81.4320581" id="Fill-14" fill="#3A3B38"></path>
                    <path d="M231.619624,81.4320581 C231.619624,89.5489936 225.038978,96.1296388 216.922043,96.1296388 C208.803763,96.1296388 202.224462,89.5489936 202.224462,81.4320581 C202.224462,73.3137786 208.803763,66.7344775 216.922043,66.7344775 C225.038978,66.7344775 231.619624,73.3137786 231.619624,81.4320581" id="Fill-15" fill="#F0EFEB"></path>
                    <path d="M16.9959677,52.1726495 C14.3978495,56.789585 9.95967742,60.5315205 7.08333333,60.5315205 C4.20698925,60.5315205 3.9811828,56.789585 6.57930108,52.1726495 C9.17741935,47.5570581 13.6155914,43.8137786 16.4919355,43.8137786 C19.3682796,43.8137786 19.594086,47.5557141 16.9959677,52.1726495" id="Fill-16" fill="#FFFFFE"></path>
                    <path d="M66.3074721,30.9481872 C66.3074721,30.9481872 66.1962366,34.7559829 70.1155914,34.7559829 C74.0362903,34.7559829 233.758065,30.9481872 233.758065,30.9481872 C233.758065,30.9481872 233.533602,29.5476495 231.966398,27.5315205 C230.397849,25.5153915 217.294355,5.07453127 214.38172,4.40248826 C211.469086,3.73044525 168.122312,2.38635923 157.033602,2.38635923 C145.944892,2.38635923 102.149194,3.72910116 99.2379032,4.62560654 C96.3252688,5.52211191 76.7244624,19.7479184 66.3074721,30.9481872" id="Fill-17" fill="#2E3537"></path>
                    <path d="M166.47043,32.5436173 L162.66129,3.42130546 L157.620968,4.12157428 L154.677419,32.8218431 C158.630376,32.7277571 162.572581,32.6350151 166.47043,32.5436173" id="Fill-18" fill="#40413E"></path>
                    <path d="M86.2620968,34.4132409 C90.625,28.0503377 103.18414,10.2949614 111.334677,4.5422732 L102.094086,5.38232697 C102.094086,5.38232697 84.8319892,22.5046388 74.7795699,34.6672732 C77.5645161,34.6081334 81.4771505,34.5207678 86.2620968,34.4132409" id="Fill-19" fill="#40413E"></path>
                    <path d="M231.966398,27.5315205 C230.397849,25.5153915 217.294355,5.07453127 214.38172,4.40248826 C213.552419,4.21028396 209.435484,3.96431621 203.724462,3.71028396 L201.303763,3.95356353 L217.897849,31.3245313 C227.682796,31.0920044 233.758065,30.9481872 233.758065,30.9481872 C233.758065,30.9481872 233.533602,29.5476495 231.966398,27.5315205" id="Fill-20" fill="#40413E"></path>
                    <path d="M95.375,6.84200439 C95.375,6.84200439 98.2298387,2.83393987 106.966398,2.38635923 C115.702957,1.93743449 151.768817,-0.301812818 176.522849,0.0342086874 C201.275538,0.370230193 208.388441,1.26539148 210.965054,1.26539148 C213.540323,1.26539148 223.116935,1.88232697 223.116935,2.38635923 C223.116935,2.89039148 217.369624,4.99119793 215.763441,5.36888611 C214.157258,5.74657428 168.122312,4.28958503 95.375,6.84200439" id="Fill-21" fill="#88816C"></path>
                    <path d="M154.009409,42.0086711 C154.009409,44.6995313 151.827957,46.8809829 149.137097,46.8809829 C146.446237,46.8809829 144.264785,44.6995313 144.264785,42.0086711 C144.264785,39.3178108 146.446237,37.1363592 149.137097,37.1363592 C151.827957,37.1363592 154.009409,39.3178108 154.009409,42.0086711" id="Fill-22" fill="#86AE94"></path>
                    <path d="M157.705645,42.0086711 C157.705645,42.8433485 153.86828,43.5207678 149.137097,43.5207678 C144.40457,43.5207678 140.568548,42.8433485 140.568548,42.0086711 C140.568548,41.1726495 144.40457,40.4965743 149.137097,40.4965743 C153.86828,40.4965743 157.705645,41.1726495 157.705645,42.0086711" id="Fill-23" fill="#BCE2C9"></path>
                    <path d="M242.173387,50.976413 C242.518817,53.17937 241.013441,54.9656603 238.811828,54.9656603 C236.607527,54.9656603 234.541667,53.17937 234.194892,50.976413 L232.552419,40.5368969 C232.206989,38.3339399 233.712366,36.5476495 235.913978,36.5476495 C238.116935,36.5476495 240.18414,38.3339399 240.530914,40.5368969 L242.173387,50.976413" id="Fill-24" fill="#C8A995"></path>
                </g>
                <g id="Group-440">
                    <path d="M220.114,5.853 L155.998,5.226 L155.998,47.018 C155.998,49.418 158.077,51.366 160.642,51.366 L266.549,54.329 L220.114,5.853" id="Fill-40" fill="#354739"></path>
                    <path d="M264.548,51.452 L236.135,51.078 L205.953,9.287 L217.561,9.287 C224.526,9.287 224.526,9.568 222.204,7.246 C214.102,0.959 201.308,-2.20268248e-13 194.343,-2.20268248e-13 L36.581,-2.20268248e-13 C27.294,-2.20268248e-13 4.425,2.034 2.568,17.124 C2.568,17.124 1.755,39.469 1.755,62.687 C1.755,85.905 1.755,106.8 1.755,106.8 L1.755,116.087 C1.755,118.65 3.835,120.73 6.398,120.73 L288.141,120.73 C290.706,120.73 295.106,118.65 295.106,116.087 L295.542,72.759 C290.321,68.433 276.168,56.985 264.548,51.452 Z M155.998,47.018 L155.998,9.575 L198.988,9.287 L212.783,29.98 L226.674,51.165 L212.918,51.078 L160.642,51.366 C158.03,50.644 155.998,49.418 155.998,47.018 L155.998,47.018 Z" id="Fill-41" fill="#E6CFC0"></path>
                    <path d="M292.801,74.729 L295.522,74.729 L295.325,94.277 L292.801,94.277 C289.592,94.277 286.968,91.653 286.968,88.444 L286.968,80.562 C286.968,77.354 289.592,74.729 292.801,74.729" id="Fill-42" fill="#E5E6E3"></path>
                    <path d="M295.396,87.235 L295.325,94.277 L292.801,94.277 C289.592,94.277 286.968,91.653 286.968,88.444 L286.968,87.235 L295.396,87.235" id="Fill-43" fill="#E67A47"></path>
                    <path d="M1.768,57.401 L2.649,57.401 C5.858,57.401 8.483,60.025 8.483,63.235 L8.483,84.827 C8.483,88.036 5.858,90.66 2.649,90.66 L1.755,90.66 L1.755,62.687 C1.755,60.917 1.76,59.152 1.768,57.401" id="Fill-44" fill="#D7214C"></path>
                    <path d="M8.483,77.514 L8.483,84.827 C8.483,88.036 5.858,90.66 2.649,90.66 L1.755,90.66 L1.755,77.514 L8.483,77.514" id="Fill-45" fill="#E67A47"></path>
                    <polygon id="Fill-46" fill="#B09787" points="221.16 92.87 222.32 92.87 222.32 57.484 221.16 57.484"></polygon>
                    <polygon id="Fill-47" fill="#B09787" points="143.381 113.851 144.542 113.851 144.542 58.043 143.381 58.043"></polygon>
                    <polygon id="Fill-48" fill="#676866" points="71.083 120.73 224.528 120.73 224.528 116.087 71.083 116.087"></polygon>
                    <path d="M31.938,97.514 L9.6100905e-13,97.514 L9.6100905e-13,116.087 C9.6100905e-13,118.65 2.2,120.73 4.913,120.73 L31.938,120.73 L31.938,97.514" id="Fill-49" fill="#2E3537"></path>
                    <path d="M250.181,97.514 L250.181,120.73 L290.106,120.73 C291.944,120.73 296.76,118.406 296.76,111.441 L296.76,97.514 L250.181,97.514" id="Fill-50" fill="#2E3537"></path>
                    <path d="M8.347,46.434 C8.347,48.998 10.754,51.078 13.724,51.078 L56.743,51.078 C59.712,51.078 62.12,48.998 62.12,46.434 L62.12,9.287 C48.412,9.287 13.987,5.898 8.62,20.26 L8.347,46.434" id="Fill-51" fill="#354739"></path>
                    <path d="M73.729,46.434 C73.729,48.998 75.808,51.078 78.372,51.078 L143.497,51.078 C146.061,51.078 148.14,48.998 148.14,46.434 L148.14,9.287 L73.729,9.287 L73.729,46.434" id="Fill-52" fill="#354739"></path>
                    <path d="M280.65713,117.694 C280.704,101.959 267.983,89.162 252.241,89.1098912 C236.505,89.067 223.705,101.781 223.660839,117.52 C223.657,118.607 223.728,119.675 223.844,120.73 L280.48,120.73 C280.591,119.731 280.653,118.719 280.65713,117.694" id="Fill-53" fill="#1B1A19"></path>
                    <path d="M164.51,60.024 L177.889,60.024 C178.963,60.024 179.833,59.154 179.833,58.08 C179.833,57.006 178.963,56.136 177.889,56.136 L164.51,56.136 C163.436,56.136 162.565,57.006 162.565,58.08 C162.565,59.154 163.436,60.024 164.51,60.024" id="Fill-54" fill="#2E3537"></path>
                    <polygon id="Fill-55" fill="#B09787" points="65.628 83.177 66.789 83.177 66.789 54.512 65.628 54.512"></polygon>
                    <path d="M229.701,117.71 C229.701,105.307 239.755,95.252 252.158,95.252 C264.561,95.252 274.616,105.307 274.616,117.71 C274.616,130.112 264.561,140.168 252.158,140.168 C239.755,140.168 229.701,130.112 229.701,117.71" id="Fill-56" fill="#242524"></path>
                    <path d="M233.444,117.71 C233.444,107.373 241.822,98.994 252.158,98.994 C262.495,98.994 270.874,107.373 270.874,117.71 C270.874,128.045 262.495,136.425 252.158,136.425 C241.822,136.425 233.444,128.045 233.444,117.71" id="Fill-57" fill="#D1D1D0"></path>
                    <path d="M237.065,117.71 C237.065,109.374 243.822,102.618 252.158,102.618 C260.494,102.618 267.251,109.374 267.251,117.71 C267.251,126.045 260.494,132.802 252.158,132.802 C243.822,132.802 237.065,126.045 237.065,117.71" id="Fill-58" fill="#606366"></path>
                    <path d="M240.592,117.71 C240.592,111.322 245.77,106.144 252.158,106.144 C258.546,106.144 263.724,111.322 263.724,117.71 C263.724,124.098 258.546,129.276 252.158,129.276 C245.77,129.276 240.592,124.098 240.592,117.71" id="Fill-59" fill="#242524"></path>
                    <path d="M243.283,117.71 C243.283,112.808 247.257,108.836 252.158,108.836 C257.059,108.836 261.033,112.808 261.033,117.71 C261.033,122.611 257.059,126.584 252.158,126.584 C247.257,126.584 243.283,122.611 243.283,117.71" id="Fill-60" fill="#7B8086"></path>
                    <path d="M247.142,117.71 C247.142,114.939 249.388,112.693 252.158,112.693 C254.929,112.693 257.175,114.939 257.175,117.71 C257.175,120.48 254.929,122.727 252.158,122.727 C249.388,122.727 247.142,120.48 247.142,117.71" id="Fill-61" fill="#D2D6D3"></path>
                    <path d="M79.113,60.024 L92.493,60.024 C93.566,60.024 94.437,59.154 94.437,58.08 C94.437,57.006 93.566,56.136 92.493,56.136 L79.113,56.136 C78.039,56.136 77.169,57.006 77.169,58.08 C77.169,59.154 78.039,60.024 79.113,60.024" id="Fill-62" fill="#2E3537"></path>
                    <path d="M73.8761298,117.694 C73.923,101.959 61.202,89.162 45.461,89.1098912 C29.724,89.067 16.925,101.781 16.8799085,117.52 C16.877,118.607 16.948,119.675 17.064,120.73 L73.7,120.73 C73.81,119.731 73.872,118.719 73.8761298,117.694" id="Fill-63" fill="#1B1A19"></path>
                    <path d="M22.92,117.71 C22.92,105.307 32.974,95.252 45.377,95.252 C57.781,95.252 67.835,105.307 67.835,117.71 C67.835,130.112 57.781,140.168 45.377,140.168 C32.974,140.168 22.92,130.112 22.92,117.71" id="Fill-64" fill="#242524"></path>
                    <path d="M26.663,117.71 C26.663,107.373 35.042,98.994 45.377,98.994 C55.714,98.994 64.093,107.373 64.093,117.71 C64.093,128.045 55.714,136.425 45.377,136.425 C35.042,136.425 26.663,128.045 26.663,117.71" id="Fill-65" fill="#D1D1D0"></path>
                    <path d="M30.285,117.71 C30.285,109.374 37.042,102.618 45.377,102.618 C53.713,102.618 60.471,109.374 60.471,117.71 C60.471,126.045 53.713,132.802 45.377,132.802 C37.042,132.802 30.285,126.045 30.285,117.71" id="Fill-66" fill="#606366"></path>
                    <path d="M33.811,117.71 C33.811,111.322 38.99,106.144 45.377,106.144 C51.765,106.144 56.944,111.322 56.944,117.71 C56.944,124.098 51.765,129.276 45.377,129.276 C38.99,129.276 33.811,124.098 33.811,117.71" id="Fill-67" fill="#242524"></path>
                    <path d="M36.503,117.71 C36.503,112.808 40.476,108.836 45.377,108.836 C50.279,108.836 54.252,112.808 54.252,117.71 C54.252,122.611 50.279,126.584 45.377,126.584 C40.476,126.584 36.503,122.611 36.503,117.71" id="Fill-68" fill="#7B8086"></path>
                    <path d="M40.361,117.71 C40.361,114.939 42.607,112.693 45.377,112.693 C48.148,112.693 50.394,114.939 50.394,117.71 C50.394,120.48 48.148,122.727 45.377,122.727 C42.607,122.727 40.361,120.48 40.361,117.71" id="Fill-69" fill="#D2D6D3"></path>
                    <path d="M223.753,40.058 L225.734,40.058 C226.824,40.058 227.715,40.949 227.715,42.039 L227.715,53.836 C227.715,54.926 226.824,55.818 225.734,55.818 L223.753,55.818 L223.753,40.058" id="Fill-70" fill="#FFFFFE"></path>
                    <path d="M274.747,76.333 L278.459,76.333 C278.919,76.333 279.295,76.709 279.295,77.168 L279.295,78.003 C279.295,78.464 278.919,78.839 278.459,78.839 L274.747,78.839 C274.287,78.839 273.911,78.464 273.911,78.003 L273.911,77.168 C273.911,76.709 274.287,76.333 274.747,76.333" id="Fill-71" fill="#EF9F4F"></path>
                </g>
            </g>
        </g>
    </g>
</svg>