<?xml version="1.0" encoding="UTF-8"?>
<svg width="370px" height="271px" viewBox="0 0 370 271" version="1.1" xmlns="http://www.w3.org/2000/svg" xmlns:xlink="http://www.w3.org/1999/xlink">
    <!-- Generator: sketchtool 58 (101010) - https://sketch.com -->
    <title>D00247CC-8FE6-41DF-BC8B-2CD600D88224</title>
    <desc>Created with sketchtool.</desc>
    <g id="Page-1" stroke="none" stroke-width="1" fill="none" fill-rule="evenodd">
        <g id="support/-grid-empty" transform="translate(-670.000000, -589.000000)">
            <g id="Group" transform="translate(670.000000, 589.000000)">
                <path d="M110.012261,-6.53699317e-13 C170.679391,-6.53699317e-13 219.873304,39.9889565 219.873304,89.3373043 C219.873304,138.534435 170.679391,178.523391 110.012261,178.523391 C103.674,178.523391 97.4869565,178.072957 91.4511304,177.31687 L0.907304348,215.497652 L31.9937391,152.266261 C12.2228696,136.118174 8.38440428e-13,113.786261 8.38440428e-13,89.3373043 C8.38440428e-13,39.9889565 49.1971304,-6.53699317e-13 110.012261,-6.53699317e-13" id="Fill-196" fill-opacity="0.796574519" fill="#BCE2C9"></path>
                <path d="M211.723652,55.3841739 C217.006609,65.9468696 219.873304,77.2656522 219.873304,89.3373043 C219.873304,128.270957 189.240522,161.32 146.381652,173.54287 C146.079217,172.638783 145.776783,171.734696 145.477565,170.827391 C142.607652,162.529739 141.098696,153.624 141.098696,144.721478 C141.098696,135.815739 142.607652,127.064435 145.477565,118.612348 C152.719913,96.882087 168.414348,79.2250435 187.580348,67.1533913 C195.276348,62.324087 203.274783,58.5533043 211.723652,55.3841739" id="Fill-197" fill="#A0C2AB"></path>
                <path d="M116.804174,137.778348 C116.804174,141.854783 115.295217,145.32313 112.425304,148.041826 C109.558609,150.908522 106.238261,152.417478 102.165043,152.417478 C98.0918261,152.417478 94.7714783,150.908522 91.9047826,148.041826 C89.0348696,145.32313 87.525913,141.854783 87.525913,137.778348 C87.525913,133.70513 89.0348696,130.384783 91.9047826,127.518087 C94.7714783,124.651391 98.0918261,123.290435 102.165043,123.290435 C106.238261,123.290435 109.558609,124.651391 112.425304,127.518087 C115.295217,130.384783 116.804174,133.70513 116.804174,137.778348 Z M140.947478,61.2687826 C140.947478,65.9468696 140.194609,70.3225217 138.83687,74.2477391 C137.47913,78.0185217 135.516522,81.3388696 133.100261,84.2055652 C130.536,86.9242609 127.518087,89.186087 124.046522,90.8462609 C120.574957,92.5064348 116.804174,93.7129565 112.576522,94.1666087 L111.823652,111.218783 C111.823652,112.274087 111.067565,113.030174 109.407391,113.635043 C107.750435,114.085478 105.485391,114.387913 102.467478,114.387913 C100.50487,114.387913 98.8446957,114.387913 97.6381739,114.236696 C96.2804348,114.085478 95.221913,113.934261 94.4690435,113.786261 C93.7129565,113.483826 93.2625217,113.181391 92.8088696,112.727739 C92.5064348,112.425304 92.204,111.823652 92.204,111.218783 L91.4511304,90.5438261 C91.4511304,88.7324348 91.4511304,87.2234783 91.7535652,86.0169565 C91.9047826,84.8104348 92.3552174,83.9031304 92.960087,83.3014783 C93.5617391,82.5453913 94.3178261,82.0949565 95.221913,81.7925217 C96.2804348,81.490087 97.3357391,81.3388696 98.5422609,81.3388696 L99.9,81.3388696 C102.92113,81.3388696 105.636609,80.8852174 107.898435,79.9811304 C110.163478,78.9258261 111.97487,77.5648696 113.332609,75.9046957 C114.841565,74.3989565 115.89687,72.4363478 116.652957,70.1713043 C117.254609,68.0606957 117.557043,65.6444348 117.557043,63.0801739 C117.557043,60.3614783 117.254609,57.7972174 116.350522,55.3841739 C115.597652,53.1191304 114.387913,51.0053043 112.878957,49.3451304 C111.218783,47.6881739 109.259391,46.4784348 106.84313,45.4231304 C104.430087,44.5158261 101.560174,44.2166087 98.2430435,44.2166087 C95.221913,44.2166087 92.6576522,44.3678261 90.3958261,44.9694783 C88.1307826,45.5743478 86.1681739,46.176 84.508,46.932087 C82.8478261,47.5369565 81.490087,48.2898261 80.4347826,48.8946957 C79.3794783,49.3451304 78.4721739,49.6475652 77.8705217,49.6475652 C77.568087,49.6475652 77.1144348,49.6475652 76.812,49.3451304 C76.5095652,49.045913 76.2071304,48.5922609 75.907913,47.8361739 C75.7566957,47.0833043 75.4542609,46.176 75.3030435,44.8182609 C75.1518261,43.6117391 75.1518261,41.9515652 75.1518261,39.9889565 C75.1518261,37.8783478 75.1518261,36.3693913 75.4542609,35.462087 C75.6054783,34.558 75.907913,33.801913 76.5095652,33.2002609 C77.1144348,32.5953913 78.1697391,31.9905217 79.829913,31.2376522 C81.490087,30.3335652 83.4526957,29.7286957 85.7177391,28.9726087 C87.9795652,28.3709565 90.5438261,27.766087 93.4137391,27.3124348 C96.1292174,26.862 98.995913,26.5595652 102.165043,26.5595652 C108.956957,26.5595652 114.841565,27.4636522 119.822087,29.4262609 C124.651391,31.3888696 128.724609,33.801913 131.893739,37.1222609 C134.911652,40.2913913 137.176696,43.9141739 138.685652,48.1386087 C140.194609,52.2150435 140.947478,56.5906957 140.947478,61.2687826 L140.947478,61.2687826 Z" id="Fill-198" fill="#88816C"></path>
                <path d="M259.260609,55.5353913 C198.596696,55.5353913 149.399565,95.5243478 149.399565,144.721478 C149.399565,194.066609 198.596696,234.058783 259.260609,234.058783 C265.59887,234.058783 271.785913,233.60513 277.821739,232.852261 L368.368783,271.033043 L337.282348,207.801652 C357.05,191.653565 369.27287,169.318435 369.27287,144.721478 C369.27287,95.5243478 320.078957,55.5353913 259.260609,55.5353913" id="Fill-199" fill="#BCE2C9"></path>
                <path d="M275.408696,99.9 C275.408696,104.880522 273.446087,109.256174 269.974522,112.878957 C266.354957,116.501739 261.976087,118.31313 256.998783,118.31313 C251.867043,118.31313 247.491391,116.501739 243.868609,112.878957 C240.397043,109.256174 238.585652,104.880522 238.585652,99.9 C238.585652,94.7714783 240.397043,90.5438261 243.868609,86.9242609 C247.491391,83.3014783 251.867043,81.490087 256.998783,81.490087 C261.976087,81.490087 266.354957,83.3014783 269.974522,86.9242609 C273.446087,90.5438261 275.408696,94.7714783 275.408696,99.9 Z M274.803826,127.064435 C274.955043,134.609217 275.408696,147.890609 275.106261,167.056609 L274.955043,184.26 C274.803826,187.731565 275.408696,189.993391 276.615217,191.199913 C277.821739,192.258435 279.63313,193.162522 282.200609,193.464957 C285.218522,193.918609 286.727478,194.671478 286.727478,196.029217 C286.727478,197.538174 285.520957,198.143043 283.255913,198.143043 C282.049391,198.143043 280.238,198.143043 277.371304,197.991826 C271.486696,197.538174 255.489826,197.386957 249.753217,197.386957 C246.886522,197.386957 244.019826,197.538174 241.001913,197.840609 C239.341739,198.143043 238.135217,198.143043 237.530348,198.143043 C235.117304,198.143043 233.907565,197.538174 233.907565,196.029217 C233.907565,194.671478 235.567739,193.918609 238.585652,193.616174 C242.662087,193.313739 245.07513,191.956 245.528783,189.539739 C245.982435,187.126696 246.28487,182.297391 246.28487,175.206261 C246.28487,165.84687 246.133652,157.095565 245.831217,149.399565 C245.528783,141.552348 244.923913,137.025478 244.171043,135.966957 C243.263739,134.760435 241.304348,134.007565 237.832783,133.70513 C235.268522,133.402696 233.907565,132.649826 233.907565,131.28887 C233.907565,130.082348 235.268522,129.329478 237.984,129.027043 L239.644174,128.875826 L274.803826,127.064435 L274.803826,127.064435 Z" id="Fill-200" fill="#3B4242"></path>
            </g>
        </g>
    </g>
</svg>