<?xml version="1.0" encoding="UTF-8"?>
<svg width="48px" height="37px" viewBox="0 0 48 37" version="1.1" xmlns="http://www.w3.org/2000/svg" xmlns:xlink="http://www.w3.org/1999/xlink">
    <!-- Generator: Sketch 63.1 (92452) - https://sketch.com -->
    <title>Group 132</title>
    <desc>Created with Sketch.</desc>
    <g id="Page-1" stroke="none" stroke-width="1" fill="none" fill-rule="evenodd">
        <g id="feed-V2-poll-post" transform="translate(-805.000000, -243.000000)">
            <g id="Group-132" transform="translate(805.000000, 237.000000)">
                <path d="M27.3206853,6 C28.9479315,6 30.2717928,7.33564875 30.2717928,8.97788966 L30.2717928,8.97788966 L30.2717928,40.0226162 C30.2717928,41.6643513 28.9479315,43 27.3206853,43 L27.3206853,43 L20.6793147,43 C19.0520685,43 17.7282072,41.6643513 17.7282072,40.0226162 L17.7282072,40.0226162 L17.7282072,18.3861185 C17.7282072,17.8498353 18.1589636,17.4147376 18.6910154,17.4147376 C19.2225658,17.4147376 19.6538236,17.8498353 19.6538236,18.3861185 L19.6538236,18.3861185 L19.6538236,40.0226162 C19.6538236,40.5927966 20.1136649,41.0572382 20.6793147,41.0572382 L20.6793147,41.0572382 L27.3206853,41.0572382 C27.8863351,41.0572382 28.3461764,40.5927966 28.3461764,40.0226162 L28.3461764,40.0226162 L28.3461764,8.97738376 C28.3461764,8.40720337 27.8863351,7.94276181 27.3206853,7.94276181 L27.3206853,7.94276181 L20.6793147,7.94276181 C20.1136649,7.94276181 19.6538236,8.40720337 19.6538236,8.97738376 L19.6538236,8.97738376 L19.6538236,14.5005948 C19.6538236,15.0368781 19.2225658,15.4719758 18.6910154,15.4719758 C18.1589636,15.4719758 17.7282072,15.0368781 17.7282072,14.5005948 L17.7282072,14.5005948 L17.7282072,8.97738376 C17.7282072,7.33564875 19.0520685,6 20.6793147,6 L20.6793147,6 Z M45.0483911,14.1848961 C46.6761387,14.1848961 48,15.5205448 48,17.1622797 L48,17.1622797 L48,40.0226162 C48,41.6643513 46.6761387,43 45.0483911,43 L45.0483911,43 L38.4070205,43 C36.7797743,43 35.455913,41.6643513 35.455913,40.0226162 L35.455913,40.0226162 L35.455913,17.1622797 C35.455913,15.5205448 36.7797743,14.1848961 38.4070205,14.1848961 L38.4070205,14.1848961 Z M9.59247803,19.6408188 C11.2202257,19.6408188 12.544087,20.9764676 12.544087,22.6187083 L12.544087,22.6187083 L12.544087,40.0226162 C12.544087,41.6643513 11.2202257,43 9.59247803,43 L9.59247803,43 L2.95110736,43 C1.32386126,43 4.26325641e-14,41.6643513 4.26325641e-14,40.0226162 L4.26325641e-14,40.0226162 L4.26325641e-14,22.6187083 C4.26325641e-14,20.9764676 1.32386126,19.6408188 2.95110736,19.6408188 L2.95110736,19.6408188 Z M9.59247803,21.5835806 L2.95110736,21.5835806 C2.38595911,21.5835806 1.92561638,22.0480221 1.92561638,22.6187083 L1.92561638,22.6187083 L1.92561638,40.0226162 C1.92561638,40.5927966 2.38595911,41.0572382 2.95110736,41.0572382 L2.95110736,41.0572382 L9.59247803,41.0572382 C10.1581278,41.0572382 10.6184706,40.5927966 10.6184706,40.0226162 L10.6184706,40.0226162 L10.6184706,22.6187083 C10.6184706,22.0480221 10.1581278,21.5835806 9.59247803,21.5835806 L9.59247803,21.5835806 Z M45.0483911,16.1276579 L38.4070205,16.1276579 C37.8413707,16.1276579 37.3815294,16.5915934 37.3815294,17.1622797 L37.3815294,17.1622797 L37.3815294,40.0226162 C37.3815294,40.5927966 37.8413707,41.0572382 38.4070205,41.0572382 L38.4070205,41.0572382 L45.0483911,41.0572382 C45.6140409,41.0572382 46.0743836,40.5927966 46.0743836,40.0226162 L46.0743836,40.0226162 L46.0743836,17.1622797 C46.0743836,16.5915934 45.6140409,16.1276579 45.0483911,16.1276579 L45.0483911,16.1276579 Z" id="Combined-Shape" fill="#E6CFC0" fill-rule="nonzero"></path>
                <rect id="Rectangle" stroke="#979797" fill="#D8D8D8" opacity="0" x="0.5" y="0.5" width="47" height="47"></rect>
            </g>
        </g>
    </g>
</svg>