<?xml version="1.0" encoding="UTF-8"?>
<svg width="48px" height="42px" viewBox="0 0 48 42" version="1.1" xmlns="http://www.w3.org/2000/svg" xmlns:xlink="http://www.w3.org/1999/xlink">
    <!-- Generator: Sketch 63.1 (92452) - https://sketch.com -->
    <title>Group 116</title>
    <desc>Created with Sketch.</desc>
    <g id="Page-1" stroke="none" stroke-width="1" fill="none" fill-rule="evenodd">
        <g id="feed-V2-poll-post" transform="translate(-545.000000, -240.000000)" fill="#BCE2C9">
            <g id="Group-12" transform="translate(532.000000, 225.000000)">
                <g id="Group-125" transform="translate(1.000000, 0.000000)">
                    <g id="Group-116" transform="translate(12.000000, 12.000000)">
                        <g id="Group-63" transform="translate(0.000000, 3.230769)">
                            <path d="M24.7207085,4.89841772 C24.5741448,4.89841772 24.4258768,4.92738963 24.2844257,4.9887419 C23.7254384,5.23244674 23.4646912,5.88346249 23.7066919,6.44585829 L32.3113476,26.3768246 C32.4289395,26.6495014 32.6436724,26.8591216 32.9180534,26.9681923 C33.1924344,27.0755588 33.4957873,27.0721504 33.7650556,26.9562627 C34.0360281,26.8369667 34.2456483,26.6222337 34.354719,26.3478527 C34.4637897,26.0734717 34.4603813,25.7718231 34.3427894,25.5008506 L25.7381337,5.56817999 C25.5574853,5.15064372 25.1501744,4.89841772 24.7207085,4.89841772 Z M33.3270685,29.0149722 C32.9436168,29.0149722 32.5601652,28.9416903 32.1937558,28.7951266 C31.4302609,28.4917737 30.830372,27.9106314 30.5065684,27.1556576 L21.9019126,7.22469126 C21.2304461,5.66872955 21.9513353,3.85713337 23.5038885,3.18396264 C25.058146,2.51079191 26.8714464,3.2333853 27.5429129,4.78764279 L36.1475687,24.7220176 C36.4730765,25.4769914 36.4850062,26.3103597 36.1833575,27.0738546 C35.8800046,27.8356453 35.2971581,28.4355341 34.5438885,28.7593378 C34.1536199,28.9297607 33.7411963,29.0149722 33.3270685,29.0149722 L33.3270685,29.0149722 Z" id="Fill-173"></path>
                            <path d="M21.5440244,23.5784795 C24.9524838,23.5784795 27.7269697,24.2908475 29.5504955,24.940159 L22.8579855,9.43848564 C21.5764047,12.3612396 18.6383127,17.2881676 12.4979731,20.7903597 L14.1834563,24.6947499 C16.8471673,23.8801281 19.33023,23.5784795 21.5440244,23.5784795 Z M31.4370778,27.8168987 C31.2700633,27.8168987 31.1030488,27.7725888 30.9513723,27.6873773 C30.8763862,27.6464758 23.4868462,23.5631414 13.9550895,26.8352624 C13.4693841,26.9988685 12.9359602,26.765389 12.7331568,26.2950216 L10.3387141,20.7477539 C10.1342065,20.2773865 10.3284887,19.7286246 10.783518,19.4883282 C19.7409493,14.7761331 21.8013631,6.61798549 21.8201096,6.53618246 C21.9206591,6.12546311 22.2717305,5.82381445 22.6926752,5.78802562 C23.106803,5.74201142 23.5107054,5.98912473 23.6794242,6.3776891 L32.3386153,26.4432896 C32.507334,26.8301497 32.4067845,27.2834748 32.0932062,27.5646727 C31.9074452,27.729983 31.6739657,27.8168987 31.4370778,27.8168987 L31.4370778,27.8168987 Z" id="Fill-174"></path>
                            <path d="M9.77290983,19.4389055 L4.2972198,21.8265313 L7.83520066,29.9625239 L13.2887357,27.5851235 L9.77290983,19.4389055 Z M7.81304567,31.9172754 C7.57104506,31.9172754 7.32904444,31.8712612 7.09556497,31.7792328 C6.6149722,31.5866548 6.23492897,31.2202454 6.03042141,30.7430611 L2.50437016,22.5746882 C2.29815836,22.0992081 2.29134144,21.5708969 2.48221517,21.0868956 C2.6730889,20.6063029 3.04120251,20.2262596 3.51838683,20.0200479 L9.02475299,17.6460559 C9.50193731,17.4398441 10.0285443,17.4313229 10.5108413,17.6221967 C10.9931383,17.8130704 11.3731815,18.181184 11.5776891,18.6583683 L15.1037403,26.8267413 C15.3099521,27.3022214 15.316769,27.8288283 15.1258953,28.3145338 C14.9333174,28.7951266 14.566908,29.1734656 14.0897237,29.3796774 L8.58165327,31.7553736 C8.33624419,31.86274 8.07549705,31.9172754 7.81304567,31.9172754 L7.81304567,31.9172754 Z" id="Fill-175"></path>
                            <path d="M3.47237263,24.8191587 L2.11239733,25.4071179 C2.03570699,25.4377941 2.0016224,25.4940337 1.9845801,25.5366394 C1.9675378,25.5775409 1.95390396,25.6440059 1.98628433,25.718992 L3.38716114,28.9621411 C3.41954151,29.0371272 3.47578109,29.072916 3.51838683,29.0899583 C3.56099257,29.1035922 3.62404907,29.1189302 3.69903518,29.0882541 L5.06241894,28.4985906 L3.47237263,24.8191587 Z M3.60700677,31.0753859 C3.33092156,31.0753859 3.05654058,31.0208506 2.79238498,30.9168926 C2.24532724,30.7004554 1.81586136,30.2829191 1.58238189,29.7409741 L0.181505076,26.4978249 C-0.0519743934,25.9575841 -0.0604955419,25.3576953 0.15764586,24.8106375 C0.374083032,24.2635798 0.791619308,23.8341139 1.33356435,23.6006345 L3.59507717,22.6241108 C3.83366932,22.5184486 4.10634608,22.5150401 4.34834669,22.6121812 C4.59034731,22.7093223 4.7846295,22.8967876 4.88688328,23.137084 L7.25576256,28.6212952 C7.47219973,29.1206345 7.24212872,29.7000726 6.74278942,29.9148055 L4.47957238,30.8913291 C4.20007871,31.0140337 3.90354274,31.0753859 3.60700677,31.0753859 L3.60700677,31.0753859 Z" id="Fill-176"></path>
                            <path d="M10.8857718,30.7618077 L12.8302979,38.8790537 C12.8711994,39.0682232 12.9853828,39.148322 13.0501435,39.1841108 C13.1149043,39.2164912 13.24613,39.2608012 13.4029191,39.1943362 L14.9639935,38.5211655 C15.0815853,38.4717428 15.1685011,38.3660806 15.1991772,38.2450803 L13.0348055,29.8347067 L10.8857718,30.7618077 Z M13.2376088,41.1951019 C12.8643825,41.1951019 12.489452,41.1064819 12.1469018,40.9309463 C11.5112241,40.6020299 11.0630117,40.0123665 10.9130395,39.3136323 L8.78275237,30.415849 C8.67027321,29.9522985 8.90886537,29.47341 9.34855663,29.2842405 L13.3108907,27.5748981 C13.5750463,27.4607147 13.8732865,27.4675316 14.1323294,27.5936446 C14.3913723,27.7214619 14.5805418,27.9549413 14.6521195,28.2327308 L17.1471117,37.9246851 C17.170971,38.0116008 17.1794921,38.1002207 17.1777879,38.1905449 C17.1607456,39.1176459 16.5983498,39.9578311 15.7428265,40.3259447 L14.1817521,41.0008197 C13.8783992,41.1303412 13.558004,41.1951019 13.2376088,41.1951019 L13.2376088,41.1951019 Z" id="Fill-177"></path>
                            <path d="M35.8425116,14.0143424 C35.4607641,14.0143424 35.0994674,13.7910883 34.9392698,13.4195662 C34.7228326,12.9219312 34.9546079,12.3424931 35.452243,12.1294643 L42.4481059,9.10786508 C42.945741,8.89142791 43.5234748,9.12149892 43.739912,9.62083822 C43.9546449,10.1201775 43.7262782,10.6996156 43.2269389,10.9143486 L36.2310759,13.9325394 C36.1049629,13.9870747 35.972033,14.0143424 35.8425116,14.0143424" id="Fill-178"></path>
                            <path d="M33.1140398,7.69505866 C32.8601096,7.69505866 32.6061794,7.59621334 32.4136014,7.40193115 C32.0335582,7.01507101 32.0386709,6.39132294 32.425531,6.01127972 L38.2522924,0.281659462 C38.6391525,-0.098383761 39.2611963,-0.0932710719 39.6429438,0.29358907 C40.022987,0.682153442 40.0178743,1.30419728 39.6310142,1.68594474 L33.8042528,7.41215653 C33.6116749,7.60132603 33.3628573,7.69505866 33.1140398,7.69505866" id="Fill-179"></path>
                            <path d="M38.5692791,20.3319219 C38.0426721,20.3319219 37.6063893,19.9160898 37.5859385,19.3860744 C37.5654878,18.8441294 37.989841,18.3856916 38.531786,18.366945 L46.6967505,18.055071 C47.242104,18.0243949 47.6954291,18.4572692 47.7158799,19.0009185 C47.7380349,19.5411593 47.3136817,19.9995971 46.7717366,20.0183436 L38.6067721,20.3319219 C38.5931383,20.3319219 38.5812087,20.3319219 38.5692791,20.3319219" id="Fill-180"></path>
                        </g>
                        <rect id="Rectangle" opacity="0" x="0" y="0" width="48" height="48"></rect>
                    </g>
                </g>
            </g>
        </g>
    </g>
</svg>