<?xml version="1.0" encoding="UTF-8"?>
<svg width="332px" height="198px" viewBox="0 0 332 198" version="1.1" xmlns="http://www.w3.org/2000/svg" xmlns:xlink="http://www.w3.org/1999/xlink">
    <!-- Generator: sketchtool 58 (101010) - https://sketch.com -->
    <title>D79360E9-148B-47EE-B93D-0FA54B05BE9D</title>
    <desc>Created with sketchtool.</desc>
    <g id="Page-1" stroke="none" stroke-width="1" fill="none" fill-rule="evenodd" opacity="0.5">
        <g id="lectures-&amp;-activities-empty-state" transform="translate(-687.000000, -613.000000)" stroke-width="10">
            <g id="Group-11" transform="translate(693.000000, 620.000000)">
                <path d="M242.848392,124.196922 C222.996342,152.498002 192.025954,168.40539 159.955699,170.156865 C150.626147,139.476661 155.012315,104.979998 174.864365,76.6782858 C194.715782,48.3772055 225.68997,32.4647611 257.762125,30.7227672 C267.082178,61.4042354 262.700442,95.8964734 242.848392,124.196922 Z" id="Stroke-3" stroke="#2E3537"></path>
                <path d="M254.157405,179.386516 C221.684136,191.156361 187.226926,186.473606 159.991689,169.613043 C169.9626,139.260125 193.341862,113.614516 225.815764,101.845301 C258.289034,90.075455 292.751933,94.7556921 319.983377,111.625069 C310.003615,141.974209 286.630675,167.6173 254.157405,179.386516 Z" id="Stroke-5" stroke="#2E3537"></path>
                <path d="M145.119479,76.6820783 C164.971529,104.983159 169.353265,139.474764 160.033211,170.156865 C127.961057,168.414239 96.9868689,152.501794 77.135452,124.200714 C57.2834019,95.8996337 52.8972335,61.4029713 62.2267853,30.7227672 C94.2970402,32.4736102 125.267429,48.380998 145.119479,76.6820783 Z" id="Stroke-7" stroke="#2E3537"></path>
                <path d="M94.1657167,101.844513 C126.638986,113.614396 150.011926,139.257569 159.991689,169.606806 C132.760245,186.475608 98.2973449,191.15586 65.8234431,179.386606 C33.3501736,167.616723 9.97154385,141.971662 0,111.618647 C27.2346053,94.7580297 61.691815,90.0752594 94.1657167,101.844513 Z" id="Stroke-9" stroke="#2E3537"></path>
                <path d="M201.762918,85.0784323 C201.762918,119.615284 185.580776,150.367362 160.388914,170.156865 C135.190737,150.373681 119.008596,119.615284 119.008596,85.0784323 C119.008596,50.5415804 135.190737,19.7831839 160.388914,0 C185.580776,19.7895024 201.762918,50.5415804 201.762918,85.0784323 Z" id="Stroke-1" stroke="#88816C"></path>
            </g>
        </g>
    </g>
</svg>