<?xml version="1.0" encoding="UTF-8"?>
<svg width="371px" height="328px" viewBox="0 0 371 328" version="1.1" xmlns="http://www.w3.org/2000/svg" xmlns:xlink="http://www.w3.org/1999/xlink">
    <!-- Generator: Sketch 64 (93537) - https://sketch.com -->
    <title>Group 109</title>
    <desc>Created with Sketch.</desc>
    <g id="Page-2" stroke="none" stroke-width="1" fill="none" fill-rule="evenodd">
        <g id="survey-empty-state" transform="translate(-572.000000, -470.000000)">
            <g id="Group-110" transform="translate(554.000000, 317.000000)">
                <g id="Group-109" transform="translate(18.000000, 144.000000)">
                    <path d="M14.3103366,333.388586 L313.324729,333.388586 C311.725721,324.955831 310.278575,316.505211 312.815548,308.545906 C317.532173,293.734988 334.621007,285.454094 339.158972,270.580645 C343.196689,257.324069 335.987756,243.388586 327.983786,232.088337 C319.979816,220.788089 310.537632,209.318114 309.438873,195.507692 C308.491974,183.716129 313.905374,172.362283 320.060213,162.259057 C326.215051,152.155831 333.379319,142.374194 336.5952,130.993548 C339.811081,119.612903 338.095945,105.811414 328.85922,98.4059553 C317.862694,89.5890819 301.899418,93.1622829 288.214059,96.4764268 C274.528699,99.7905707 257.645324,101.416377 248.67659,90.5627792 C242.932669,83.6129032 242.566416,73.7598015 238.850287,65.5503722 C231.328699,49.2029777 210.621999,41.9851117 192.997185,45.5583127 C175.372371,49.1315136 160.695448,61.4679901 149.145076,75.2694789 C137.594704,89.0709677 128.402644,104.703722 116.798674,118.451613 C106.972371,130.064516 92.6795674,141.096774 77.9043813,137.532506 C64.6299396,134.334491 55.7058701,120.282878 42.1723713,118.228288 C32.5336617,116.763275 22.7341579,122.212407 16.9366393,130.082382 C11.1391207,137.952357 8.78080807,147.876923 7.90537383,157.622829 C5.72245469,183.193533 12.7250635,208.705072 27.6562423,229.578164 C35.4904855,240.449628 45.9778304,253.277419 40.5733639,265.533499 C33.605622,281.344913 6.19023735,279.9067 0.812569857,296.334491 C-1.27775272,302.739454 1.00016291,309.733995 3.8497907,315.826303 C6.74439821,322.013447 10.2485722,327.896629 14.3103366,333.388586 L14.3103366,333.388586 Z" id="Path" fill="#F0D9A8" fill-rule="nonzero" opacity="0.3"></path>
                    <g id="725070" transform="translate(263.677577, 58.727364) rotate(29.000000) translate(-263.677577, -58.727364) translate(238.177577, 33.227364)" fill-rule="nonzero">
                        <circle id="Oval" fill="#FFE086" cx="25.0124069" cy="25.0124069" r="25.0124069"></circle>
                        <g id="Group" transform="translate(6.839330, 12.506203)" fill="#678189" fill-opacity="0.604020979">
                            <path d="M18.1418114,31.2967742 C9.77828784,31.2967742 2.35898263,25.6846154 0.0984863524,17.6525062 C-0.139131514,16.8208437 0.345483871,15.9579156 1.1771464,15.7234243 C2.00568238,15.4920596 2.87173697,15.9735484 3.10622829,16.8052109 C4.98841191,23.4991563 11.1727295,28.1733499 18.1418114,28.1733499 C25.1108933,28.1733499 31.2920844,23.4991563 33.1773945,16.8052109 C33.4118859,15.9735484 34.2623077,15.4858065 35.1064764,15.7234243 C35.938139,15.9579156 36.4196278,16.8239702 36.188263,17.6525062 C33.9215136,25.6846154 26.5022084,31.2967742 18.1418114,31.2967742 Z" id="Path"></path>
                            <path d="M32.2112903,7.84764268 C31.3483623,7.84764268 30.6480149,7.14729529 30.6480149,6.28436725 C30.6480149,4.56163772 29.2473201,3.15781638 27.521464,3.15781638 C25.7956079,3.15781638 24.3949132,4.56163772 24.3949132,6.28436725 C24.3949132,7.14729529 23.6945658,7.84764268 22.8316377,7.84764268 C21.9687097,7.84764268 21.2683623,7.14729529 21.2683623,6.28436725 C21.2683623,2.83578164 24.0728784,0.0312655087 27.521464,0.0312655087 C30.9700496,0.0312655087 33.7745658,2.83578164 33.7745658,6.28436725 C33.7745658,7.15042184 33.0742184,7.84764268 32.2112903,7.84764268 Z" id="Path"></path>
                            <path d="M13.4519851,7.84764268 C12.5890571,7.84764268 11.8887097,7.14729529 11.8887097,6.28436725 C11.8887097,4.56163772 10.4848883,3.15781638 8.76215881,3.15781638 C7.03942928,3.15781638 5.63560794,4.56163772 5.63560794,6.28436725 C5.63560794,7.14729529 4.93526055,7.84764268 4.07233251,7.84764268 C3.20940447,7.84764268 2.50905707,7.14729529 2.50905707,6.28436725 C2.50905707,2.83578164 5.3135732,0.0312655087 8.76215881,0.0312655087 C12.2107444,0.0312655087 15.0152605,2.83578164 15.0152605,6.28436725 C15.0152605,7.15042184 14.3149132,7.84764268 13.4519851,7.84764268 Z" id="Path"></path>
                        </g>
                    </g>
                    <path d="M155.961364,38.0803196 L131.929952,34.3958384 L121.142463,11.3555489 C119.629397,8.12548701 114.342854,8.12548701 112.829788,11.3555489 L102.042299,34.3958384 L78.0108872,38.0803196 C74.2986681,38.6514142 72.8162307,43.1771854 75.4196848,45.8484343 L92.939399,63.8532661 L88.7922498,89.331454 C88.1735466,93.1141881 92.1981803,95.969661 95.5489788,94.1028572 L116.989188,82.2204051 L138.429398,94.1028572 C141.737316,95.9450978 145.810956,93.1571737 145.186127,89.331454 L141.038978,63.8532661 L158.558692,45.8484343 C161.15602,43.1771854 159.667457,38.6514142 155.961364,38.0803196 Z" id="Path" fill="#FFE086" fill-rule="nonzero" transform="translate(116.986267, 51.811414) rotate(-13.000000) translate(-116.986267, -51.811414) "></path>
                    <path d="M306.734997,184.466653 L304.31591,169.604593 L314.535389,159.101927 C316.054018,157.543721 315.182147,154.900144 313.023907,154.570593 L299.006069,152.421343 L292.713586,138.98137 C291.830994,137.097194 288.747284,137.097194 287.864693,138.98137 L281.568636,152.424925 L267.550798,154.574175 C265.385412,154.907309 264.520687,157.547303 266.039316,159.105509 L276.258795,169.608175 L273.839708,184.470235 C273.478811,186.676798 275.822859,188.335302 277.780997,187.253514 L290.287353,180.322184 L302.793708,187.253514 C304.72326,188.324556 307.099468,186.701873 306.734997,184.466653 L306.734997,184.466653 Z" id="Path" fill="#A4B3B8" fill-rule="nonzero" transform="translate(290.286515, 162.580645) rotate(28.000000) translate(-290.286515, -162.580645) "></path>
                    <g id="Group-103" transform="translate(260.000000, 226.000000)">
                        <path d="M53.5980149,107.19603 C83.1993811,107.19603 107.19603,83.1993811 107.19603,53.5980149 C107.19603,23.9966486 83.1993811,0 53.5980149,0 C23.9966486,0 0,23.9966486 0,53.5980149 C0,83.1993811 23.9966486,107.19603 53.5980149,107.19603 Z" id="Oval-Copy-9" stroke="#BCE2C9" stroke-width="7.14640199" fill-opacity="0" fill="#FFFFFF" stroke-linecap="round" stroke-linejoin="round" stroke-dasharray="296.3970114279622" transform="translate(53.598015, 53.598015) scale(1, -1) translate(-53.598015, -53.598015) "></path>
                        <g id="725107" transform="translate(16.079404, 16.079404)" fill-rule="nonzero">
                            <circle id="Oval" fill="#FFE086" cx="37.9652605" cy="37.9652605" r="37.9652605"></circle>
                            <g id="Group" transform="translate(14.088671, 18.982630)" fill="#678189" fill-opacity="0.604020979">
                                <path d="M45.1845921,11.9116005 C43.8747906,11.9116005 42.8117633,10.8485732 42.8117633,9.53877171 C42.8117633,6.92391439 40.6857087,4.79311414 38.0661058,4.79311414 C35.4465028,4.79311414 33.3204482,6.92391439 33.3204482,9.53877171 C33.3204482,10.8485732 32.2574209,11.9116005 30.9476194,11.9116005 C29.6378179,11.9116005 28.5747906,10.8485732 28.5747906,9.53877171 C28.5747906,4.30431141 32.8316455,0.0474565757 38.0661058,0.0474565757 C43.3005661,0.0474565757 47.5574209,4.30431141 47.5574209,9.53877171 C47.5574209,10.8533189 46.4943936,11.9116005 45.1845921,11.9116005 Z" id="Path"></path>
                                <path d="M16.7106467,11.9116005 C15.4008452,11.9116005 14.3378179,10.8485732 14.3378179,9.53877171 C14.3378179,6.92391439 12.2070177,4.79311414 9.59216036,4.79311414 C6.97730304,4.79311414 4.84650279,6.92391439 4.84650279,9.53877171 C4.84650279,10.8485732 3.7834755,11.9116005 2.47367401,11.9116005 C1.16387252,11.9116005 0.100845223,10.8485732 0.100845223,9.53877171 C0.100845223,4.30431141 4.35770006,0.0474565757 9.59216036,0.0474565757 C14.8266207,0.0474565757 19.0834755,4.30431141 19.0834755,9.53877171 C19.0834755,10.8533189 18.0204482,11.9116005 16.7106467,11.9116005 Z" id="Path"></path>
                            </g>
                            <path d="M64.9111042,43.7027605 C64.4602667,43.1095533 63.7626551,42.7583747 63.0223325,42.7583747 L12.8132754,42.7583747 C12.0682072,42.7583747 11.3705955,43.1048077 10.9245037,43.6980149 C10.4689206,44.2959677 10.3265509,45.0600186 10.5258685,45.7766129 C13.9569789,57.9682072 25.22317,66.4866625 37.9130583,66.4866625 C50.6029467,66.4866625 61.8691377,57.9682072 65.3002481,45.7766129 C65.5043114,45.0600186 65.3619417,44.2959677 64.9111042,43.7027605 Z" id="Path" fill="#FAFAFA"></path>
                        </g>
                    </g>
                    <rect id="Rectangle" fill="#6F7F84" fill-rule="nonzero" x="67.0150512" y="66.6312655" width="206.254094" height="266.766253" rx="16.0972705"></rect>
                    <g id="Group" opacity="0.1" transform="translate(66.961453, 66.104218)" fill="#FFFFFF" fill-rule="nonzero">
                        <path d="M206.352357,63.7637717 L6.25310174,263.863027 C9.07964421,266.094265 12.5765915,267.306078 16.1776675,267.302242 L43.217866,267.302242 L206.352357,104.167742 L206.352357,63.7637717 Z" id="Path"></path>
                        <path d="M0.0535980149,250.195533 L206.352357,43.9414392 L206.352357,16.6243176 C206.352357,7.74390774 199.153363,0.544913151 190.272953,0.544913151 L168.914144,0.544913151 L0.0803970223,169.37866 L0.0535980149,250.195533 Z" id="Path"></path>
                    </g>
                    <path d="M257.162942,70.6511166 L214.632917,70.6511166 L214.632917,75.2873449 C214.627999,78.279977 212.203217,80.7047594 209.210585,80.7096774 L131.073612,80.7096774 C128.07894,80.7096774 125.65128,78.2820165 125.65128,75.2873449 L125.65128,70.6511166 L83.1123217,70.6511166 C76.446227,70.6609559 71.0447416,76.0624413 71.0349024,82.728536 L71.0349024,317.291315 C71.0447416,323.95741 76.446227,329.358895 83.1123217,329.368734 L257.162942,329.368734 C263.832525,329.363816 269.239445,323.960893 269.249294,317.291315 L269.249294,82.728536 C269.239445,76.0589584 263.832525,70.6560352 257.162942,70.6511166 Z" id="Path" fill="#FFFFFF" fill-rule="nonzero"></path>
                    <path d="M172.15649,73.9384615 C172.15649,74.7550136 171.664611,75.4911627 170.910216,75.8036436 C170.15582,76.1161246 169.287473,75.9433996 168.710083,75.3660101 C168.132694,74.7886206 167.959969,73.9202736 168.27245,73.1658778 C168.584931,72.4114821 169.32108,71.919603 170.137632,71.919603 C171.252617,71.919603 172.15649,72.8234767 172.15649,73.9384615 Z" id="Path" fill="#000000" fill-rule="nonzero" opacity="0.2"></path>
                    <path d="M151.905374,73.9384615 C151.905374,74.7550136 151.413495,75.4911627 150.659099,75.8036436 C149.904703,76.1161246 149.036356,75.9433996 148.458967,75.3660101 C147.881577,74.7886206 147.708852,73.9202736 148.021333,73.1658778 C148.333814,72.4114821 149.069963,71.919603 149.886515,71.919603 C151.0015,71.919603 151.905374,72.8234767 151.905374,73.9384615 Z" id="Path" fill="#000000" fill-rule="nonzero" opacity="0.2"></path>
                    <path d="M192.407607,73.9384615 C192.407607,74.7550136 191.915728,75.4911627 191.161332,75.8036436 C190.406937,76.1161246 189.538589,75.9433996 188.9612,75.3660101 C188.38381,74.7886206 188.211085,73.9202736 188.523566,73.1658778 C188.836047,72.4114821 189.572196,71.919603 190.388749,71.919603 C191.503733,71.919603 192.407607,72.8234767 192.407607,73.9384615 Z" id="Path" fill="#000000" fill-rule="nonzero" opacity="0.2"></path>
                    <g id="Group" opacity="0.1" transform="translate(81.254257, 102.729529)" fill="#000000" fill-rule="nonzero">
                        <path d="M24.4942928,35.6158809 L10.4962779,35.6158809 C4.76058785,35.6109554 0.112121486,30.9624891 0.10719603,25.226799 L0.10719603,11.2287841 C0.112121486,5.49309406 4.76058785,0.844627689 10.4962779,0.839702233 L24.4942928,0.839702233 C30.2279457,0.849536994 34.8735399,5.49513126 34.8833747,11.2287841 L34.8833747,25.226799 C34.8735399,30.9604519 30.2279457,35.6060461 24.4942928,35.6158809 L24.4942928,35.6158809 Z M10.4962779,8.03970223 C8.75473087,8.03970223 7.34292804,9.45150506 7.34292804,11.1930521 L7.34292804,25.226799 C7.34292804,26.9683461 8.75473087,28.3803512 10.4962779,28.3803512 L24.4942928,28.3803512 C25.3376099,28.3896817 26.1497965,28.0619538 26.7503288,27.4698088 C27.3508611,26.8776639 27.6899792,26.0701668 27.6924231,25.226799 L27.6924231,11.2287841 C27.6995621,10.3792306 27.3646688,9.56249126 26.7630822,8.96258507 C26.1614956,8.36267889 25.3438227,8.03007144 24.4942928,8.03970223 L10.4962779,8.03970223 Z" id="Shape"></path>
                    </g>
                    <path d="M250.088004,111.662531 L127.286019,111.662531 C125.541586,111.652703 124.132669,110.235776 124.132669,108.491315 L124.132669,108.491315 C124.132669,107.648706 124.468001,106.840738 125.064653,106.245763 C125.661305,105.650787 126.470213,105.317726 127.312818,105.320087 L250.088004,105.320087 C251.839418,105.320087 253.25922,106.739901 253.25922,108.491315 L253.25922,108.491315 C253.25922,110.242729 251.839418,111.662531 250.088004,111.662531 Z" id="Path" fill="#000000" fill-rule="nonzero" opacity="0.1"></path>
                    <rect id="Rectangle" fill="#000000" fill-rule="nonzero" opacity="0.1" x="123.828947" y="118.004963" width="129.099752" height="6.34243176" rx="3.17121588"></rect>
                    <path d="M186.788749,137.041191 L127.286019,137.041191 C125.541586,137.031363 124.132669,135.614436 124.132669,133.869975 L124.132669,133.869975 C124.132669,133.027366 124.468001,132.219399 125.064653,131.624423 C125.661305,131.029447 126.470213,130.696386 127.312818,130.698747 L186.815548,130.698747 C188.566962,130.698747 189.986763,132.118561 189.986763,133.869975 L189.986763,133.869975 C189.986763,134.715698 189.649008,135.526397 189.048481,136.121892 C188.447954,136.717386 187.634441,137.048338 186.788749,137.041191 Z" id="Path" fill="#000000" fill-rule="nonzero" opacity="0.1"></path>
                    <g id="Group" opacity="0.1" transform="translate(81.254257, 154.540943)" fill="#000000" fill-rule="nonzero">
                        <path d="M24.4942928,35.2049628 L10.4962779,35.2049628 C4.76058785,35.2000373 0.112121486,30.551571 0.10719603,24.8158809 L0.10719603,10.817866 C0.112121486,5.08217594 4.76058785,0.433709575 10.4962779,0.428784119 L24.4942928,0.428784119 C30.2279457,0.43861888 34.8735399,5.08421315 34.8833747,10.817866 L34.8833747,24.8158809 C34.8735399,30.5495338 30.2279457,35.195128 24.4942928,35.2049628 Z M10.4962779,7.66451613 C8.75473087,7.66451613 7.34292804,9.07631896 7.34292804,10.817866 L7.34292804,24.8158809 C7.34783501,26.5553914 8.75676746,27.9643238 10.4962779,27.9692308 L24.4942928,27.9692308 C26.2338033,27.9643238 27.6427357,26.5553914 27.6476427,24.8158809 L27.6476427,10.817866 C27.6427357,9.07835555 26.2338033,7.6694231 24.4942928,7.66451613 L10.4962779,7.66451613 Z" id="Shape"></path>
                    </g>
                    <path d="M250.088004,163.063027 L127.286019,163.063027 C125.545065,163.053226 124.137546,161.64172 124.132669,159.900744 L124.132669,159.900744 C124.132669,159.058136 124.468001,158.250168 125.064653,157.655192 C125.661305,157.060216 126.470213,156.727155 127.312818,156.729516 L250.088004,156.729516 C251.821951,156.753953 253.214555,158.166626 253.214555,159.900744 L253.214555,159.900744 C253.209851,161.631384 251.818478,163.038658 250.088004,163.063027 Z" id="Path" fill="#000000" fill-rule="nonzero" opacity="0.1"></path>
                    <path d="M249.757483,175.756824 L127.000163,175.756824 C125.248749,175.756824 123.828934,174.337022 123.828934,172.585608 L123.828934,172.585608 C123.826573,171.743003 124.159635,170.934095 124.75461,170.337443 C125.349586,169.740791 126.157554,169.405459 127.000163,169.405459 L249.757483,169.405459 C250.600092,169.405459 251.40806,169.740791 252.003035,170.337443 C252.598011,170.934095 252.931072,171.743003 252.928711,172.585608 L252.928711,172.585608 C252.928711,174.337022 251.508897,175.756824 249.757483,175.756824 L249.757483,175.756824 Z" id="Path" fill="#000000" fill-rule="nonzero" opacity="0.1"></path>
                    <rect id="Rectangle" fill="#000000" fill-rule="nonzero" opacity="0.1" x="124.10587" y="182.099256" width="65.8540943" height="6.34243176" rx="3.17121588"></rect>
                    <g id="Group" opacity="0.1" transform="translate(81.254257, 206.352357)" fill="#000000" fill-rule="nonzero">
                        <path d="M24.4942928,34.8387097 L10.4962779,34.8387097 C4.76058785,34.8337842 0.112121486,30.1853179 0.107180646,24.4496278 L0.107180646,10.4069479 C0.102452343,7.64849786 1.19491867,5.00140209 3.14376386,3.0492055 C5.09260904,1.09700891 7.73782381,0 10.4962779,0 L24.4942928,0 C30.2299829,0.00492545576 34.8784492,4.65339182 34.8834707,10.3890819 L34.8834707,24.3870968 C34.8952446,27.1518283 33.8064964,29.8076524 31.8573925,31.7684877 C29.9082887,33.7293231 27.2590458,34.8339888 24.4942928,34.8387097 L24.4942928,34.8387097 Z M10.4962779,7.29826303 C8.75473087,7.29826303 7.34292804,8.71006586 7.34292804,10.4516129 L7.34292804,24.4496278 C7.34783501,26.1891383 8.75676746,27.5980707 10.4962779,27.6029777 L24.4942928,27.6029777 C26.2338033,27.5980707 27.6427357,26.1891383 27.6476427,24.4496278 L27.6476427,10.4069479 C27.6427357,8.66743743 26.2338033,7.25850498 24.4942928,7.25359801 L10.4962779,7.29826303 Z" id="Shape"></path>
                    </g>
                    <path d="M250.088004,214.463536 L127.286019,214.463536 C126.443414,214.465897 125.634506,214.132836 125.037854,213.53786 C124.441202,212.942884 124.10587,212.134916 124.10587,211.292308 L124.10587,211.292308 C124.10587,210.449699 124.441202,209.641731 125.037854,209.046755 C125.634506,208.451779 126.443414,208.118718 127.286019,208.121079 L250.088004,208.121079 C251.839418,208.121079 253.25922,209.540894 253.25922,211.292308 L253.25922,211.292308 C253.25922,213.043722 251.839418,214.463536 250.088004,214.463536 L250.088004,214.463536 Z" id="Path" fill="#000000" fill-rule="nonzero" opacity="0.1"></path>
                    <path d="M249.757483,227.15732 L127.000163,227.15732 C126.157554,227.15732 125.349586,226.821988 124.75461,226.225336 C124.159635,225.628685 123.826573,224.819777 123.828934,223.977171 L123.828934,223.977171 C123.828934,222.225757 125.248749,220.805955 127.000163,220.805955 L249.757483,220.805955 C251.508897,220.805955 252.928711,222.225757 252.928711,223.977171 L252.928711,223.977171 C252.931072,224.819777 252.598011,225.628685 252.003035,226.225336 C251.40806,226.821988 250.600092,227.15732 249.757483,227.15732 Z" id="Path" fill="#000000" fill-rule="nonzero" opacity="0.1"></path>
                    <path d="M186.788749,239.842196 L127.286019,239.842196 C126.443414,239.844557 125.634506,239.511496 125.037854,238.91652 C124.441202,238.321544 124.10587,237.513577 124.10587,236.670968 L124.10587,236.670968 C124.10587,235.828359 124.441202,235.020391 125.037854,234.425415 C125.634506,233.830439 126.443414,233.497378 127.286019,233.499739 L186.788749,233.499739 C188.540163,233.499739 189.959964,234.919554 189.959964,236.670968 L189.959964,236.670968 C189.959964,238.422382 188.540163,239.842196 186.788749,239.842196 L186.788749,239.842196 Z" id="Path" fill="#000000" fill-rule="nonzero" opacity="0.1"></path>
                    <g id="Group" opacity="0.1" transform="translate(81.254257, 257.270471)" fill="#000000" fill-rule="nonzero">
                        <path d="M24.4942928,35.2764268 L10.4962779,35.2764268 C4.76058785,35.2715013 0.112121486,30.623035 0.10719603,24.8873449 L0.10719603,10.88933 C0.10719603,5.15159853 4.75854643,0.500248139 10.4962779,0.500248139 L24.4942928,0.500248139 C30.2299829,0.505173595 34.8784492,5.15363996 34.8833747,10.88933 L34.8833747,24.8873449 C34.8735399,30.6209978 30.2279457,35.266592 24.4942928,35.2764268 L24.4942928,35.2764268 Z M10.4962779,7.73598015 C8.75473087,7.73598015 7.34292804,9.14778298 7.34292804,10.88933 L7.34292804,24.8873449 C7.34783501,26.6268554 8.75676746,28.0357878 10.4962779,28.0406948 L24.4942928,28.0406948 C26.2338033,28.0357878 27.6427357,26.6268554 27.6476427,24.8873449 L27.6476427,10.88933 C27.6427357,9.14981957 26.2338033,7.74088712 24.4942928,7.73598015 L10.4962779,7.73598015 Z" id="Shape"></path>
                    </g>
                    <path d="M250.088004,265.864032 L127.286019,265.864032 C126.443414,265.866393 125.634506,265.533332 125.037854,264.938356 C124.441202,264.343381 124.10587,263.535413 124.10587,262.692804 L124.10587,262.692804 C124.10587,261.850195 124.441202,261.042227 125.037854,260.447252 C125.634506,259.852276 126.443414,259.519215 127.286019,259.521575 L250.088004,259.521575 C251.839418,259.521575 253.25922,260.94139 253.25922,262.692804 L253.25922,262.692804 C253.25922,264.444218 251.839418,265.864032 250.088004,265.864032 Z" id="Path" fill="#000000" fill-rule="nonzero" opacity="0.1"></path>
                    <rect id="Rectangle" fill="#000000" fill-rule="nonzero" opacity="0.1" x="123.828947" y="272.206452" width="129.099752" height="6.34243176" rx="3.17121588"></rect>
                    <rect id="Rectangle" fill="#000000" fill-rule="nonzero" opacity="0.1" x="124.10587" y="284.900248" width="65.8540943" height="6.34243176" rx="3.17121588"></rect>
                    <circle id="Oval" fill="#B3DAFB" fill-rule="nonzero" cx="84.6577311" cy="77.9047146" r="1.95632754"></circle>
                    <circle id="Oval" fill="#B3DAFB" fill-rule="nonzero" cx="91.7058701" cy="77.9047146" r="1.95632754"></circle>
                    <circle id="Oval" fill="#B3DAFB" fill-rule="nonzero" cx="98.7450761" cy="77.9047146" r="1.95632754"></circle>
                    <circle id="Oval" fill="#B3DAFB" fill-rule="nonzero" cx="105.793215" cy="77.9047146" r="1.95632754"></circle>
                    <circle id="Oval" fill="#B3DAFB" fill-rule="nonzero" cx="112.832421" cy="77.9047146" r="1.95632754"></circle>
                    <rect id="Rectangle" fill="#B3DAFB" fill-rule="nonzero" x="221.341602" y="74.5727047" width="11.4431762" height="6.32456576"></rect>
                    <rect id="Rectangle" fill="#B3DAFB" fill-rule="nonzero" transform="translate(233.575349, 77.734988) rotate(180.000000) translate(-233.575349, -77.734988) " x="232.775845" y="76.0287841" width="1.59900744" height="3.41240695"></rect>
                    <text id="100" fill="#B3DAFB" font-family="SFMono-Regular, SF Mono" font-size="6.61042184" font-weight="normal">
                        <tspan x="240.2885" y="79.6168734">100</tspan>
                    </text>
                    <path d="M123.578823,146.724566 C115.539121,154.013896 107.231428,162.232258 99.9152994,170.227295 C97.5374101,167.220972 95.4440425,164.000176 93.6621976,160.606452 L84.041354,163.000496 C88.7834761,169.105548 94.2487091,174.612775 100.317284,179.401489 C108.115796,168.905211 115.816044,157.220844 123.578823,146.724566 Z" id="Path" fill="#80BA83" fill-rule="nonzero"></path>
                    <path d="M123.578823,198.125062 C115.539121,205.414392 107.231428,213.632754 99.9152994,221.627792 C97.5374101,218.621468 95.4440425,215.400673 93.6621976,212.006948 L84.077086,214.39206 C88.8192081,220.497112 94.2844411,226.004339 100.353017,230.793052 C108.115796,220.305707 115.816044,208.62134 123.578823,198.125062 Z" id="Path" fill="#80BA83" fill-rule="nonzero"></path>
                    <path d="M123.578823,249.525558 C115.539121,256.814888 107.231428,265.033251 99.9152994,273.028288 C97.5393667,270.02056 95.4461206,266.799951 93.6621976,263.407444 L84.041354,265.801489 C88.7834761,271.906541 94.2487091,277.413768 100.317284,282.202481 C108.115796,271.706203 115.816044,260.021836 123.578823,249.525558 Z" id="Path" fill="#80BA83" fill-rule="nonzero"></path>
                    <path d="M115.146069,77.9047146 C109.679071,87.2665012 104.203141,97.6109181 99.6205103,107.428288 C96.4607853,105.268601 93.5090798,102.819314 90.8036369,100.112159 L82.3440835,105.2933 C88.7056523,109.678461 95.5744229,113.277817 102.800659,116.012903 C107.052768,103.712159 110.893959,90.2233251 115.146069,77.9047146 Z" id="Path" fill="#80BA83" fill-rule="nonzero"></path>
                    <polygon id="Path" fill="#F0CFB4" fill-rule="nonzero" points="16.4185252 321.257568 20.0989222 312.494293 27.0845302 316.558809 21.2780785 324.08933"></polygon>
                    <polygon id="Path" fill="#F0CFB4" fill-rule="nonzero" points="58.4572349 327.126551 56.7331654 316.103226 68.0602125 316.103226 66.3361431 327.126551"></polygon>
                    <path d="M17.9460686,219.037221 C19.0269619,222.074442 20.1167882,225.433251 18.9465649,228.434739 C19.7952001,230.04268 18.6785748,232.552854 17.2224954,233.633747 C15.6912567,234.712537 13.6127788,234.567007 12.246813,233.28536 C11.2976935,232.227494 10.7451611,230.873 10.6835376,229.453102 C10.3052514,225.657636 11.3564057,221.857554 13.6314284,218.79603 C13.6314284,217.849132 14.0959445,216.786104 15.0428428,216.732506 C15.9897411,216.678908 17.6244805,218.134988 17.9460686,219.037221 Z" id="Path" fill="#F0CFB4" fill-rule="nonzero"></path>
                    <path d="M48.6487981,142.338462 C47.3554299,140.195496 47.2774919,137.532048 48.4433391,135.317122 C49.6305086,133.154874 51.2844645,131.284256 53.2850264,129.841191 C55.2885315,128.401204 57.173468,126.803041 58.921751,125.062035 C61.9438233,121.684659 63.4002847,117.188767 62.9326691,112.680893 C62.691478,110.483375 61.8875078,108.214392 60.1277063,106.856576 C57.3674086,104.766253 53.1956964,105.757816 50.6408577,108.080397 C48.086019,110.402978 46.7014036,113.726055 45.2810562,116.870471 C43.8607088,120.014888 42.1277063,123.275434 39.2155475,125.169231 C37.428947,126.321588 35.3028924,126.875434 33.5073589,128.018859 C29.6532793,130.628875 28.0546245,135.516716 29.6215029,139.899752 C28.0368531,141.6128 27.6097454,144.098427 28.5316766,146.242184 C29.5160823,148.302285 31.1913335,149.95225 33.2661679,150.905211 C37.178044,152.849373 41.7413111,152.999309 45.7723713,151.316129 C44.9684011,149.315136 45.3971852,146.34938 47.0408577,144.955831 C47.8180289,144.285856 48.7202622,143.356824 48.6487981,142.338462 Z" id="Path" fill="#EFCB80" fill-rule="nonzero"></path>
                    <path d="M88.1952001,116.129032 C87.0658354,114.219179 87.5371005,111.767068 89.2939594,110.411911 C88.8651753,108.330521 90.3748527,105.632754 92.4830413,105.346898 C93.8577778,105.111021 95.2145065,105.850382 95.7614532,107.133499 C95.9368037,107.914395 95.8872461,108.728998 95.6185252,109.482878 C94.7190404,112.683796 93.026038,115.605839 90.6964408,117.978164 C89.7534868,117.52513 88.9048026,116.89771 88.1952001,116.129032 Z" id="Path" fill="#F0CFB4" fill-rule="nonzero"></path>
                    <path d="M18.9018999,222.101241 C20.9039205,207.192761 27.8602081,193.390303 38.6527684,182.912159 C41.4398651,180.232258 44.468153,177.757816 46.9961927,174.872457 C49.5242324,171.987097 51.587756,168.422829 51.9450761,164.563772 C52.1954634,162.625143 51.7864314,160.658643 50.7837857,158.980645 C49.7411531,157.299035 47.842002,156.346006 45.8706344,156.515136 C39.9301877,157.354839 34.9277063,161.758809 31.0686493,166.341439 C18.8792685,180.927357 12.3499449,199.414951 12.6755972,218.420844 C14.3585295,220.215128 16.5185322,221.491916 18.9018999,222.101241 L18.9018999,222.101241 Z" id="Path" fill="#E69E80" fill-rule="nonzero"></path>
                    <path d="M18.9018999,222.101241 C20.9039205,207.192761 27.8602081,193.390303 38.6527684,182.912159 C41.4398651,180.232258 44.468153,177.757816 46.9961927,174.872457 C49.5242324,171.987097 51.587756,168.422829 51.9450761,164.563772 C52.1954634,162.625143 51.7864314,160.658643 50.7837857,158.980645 C49.7411531,157.299035 47.842002,156.346006 45.8706344,156.515136 C39.9301877,157.354839 34.9277063,161.758809 31.0686493,166.341439 C18.8792685,180.927357 12.3499449,199.414951 12.6755972,218.420844 C14.3585295,220.215128 16.5185322,221.491916 18.9018999,222.101241 L18.9018999,222.101241 Z" id="Path" fill="#000000" fill-rule="nonzero" opacity="0.2"></path>
                    <path d="M56.6795674,246.809926 C54.6760271,272.298052 44.4321586,296.441849 27.4954483,315.594045 C24.8617771,314.648094 22.4979509,313.075276 20.6081034,311.011414 C23.4755972,295.387593 34.8026443,281.800496 36.0443316,265.971216 C36.7143068,257.538462 34.5078552,249.177171 33.4448279,240.789082 C32.3818006,232.400993 29.9252249,219.787593 34.8651753,212.918114 C42.2349024,216.777171 51.2125699,225.978164 55.500411,233.1067 C56.9946835,235.431527 58.048454,238.011448 58.6090959,240.717618 C59.073612,243.424318 56.8939594,244.067494 56.6795674,246.809926 Z" id="Path" fill="#005898" fill-rule="nonzero"></path>
                    <path d="M56.6795674,246.809926 C54.6760271,272.298052 44.4321586,296.441849 27.4954483,315.594045 C24.8617771,314.648094 22.4979509,313.075276 20.6081034,311.011414 C23.4755972,295.387593 34.8026443,281.800496 36.0443316,265.971216 C36.7143068,257.538462 34.5078552,249.177171 33.4448279,240.789082 C32.3818006,232.400993 29.9252249,219.787593 34.8651753,212.918114 C42.2349024,216.777171 51.2125699,225.978164 55.500411,233.1067 C56.9946835,235.431527 58.048454,238.011448 58.6090959,240.717618 C59.073612,243.424318 56.8939594,244.067494 56.6795674,246.809926 Z" id="Path" fill="#000000" fill-rule="nonzero" opacity="0.3"></path>
                    <path d="M58.6090959,240.708685 C58.048454,238.002515 56.9946835,235.422594 55.500411,233.097767 C51.3108329,226.130025 42.6368875,217.188089 35.3654235,213.186104 L34.3649272,213.668486 C30.4076071,220.162779 32.1227436,230.980645 33.2036369,238.966749 C33.4358949,239.3866 33.677086,239.806452 33.9182771,240.21737 C37.9738602,247.167246 43.1728676,253.447146 46.7996666,260.62928 C49.1836917,265.136043 50.5756539,270.10081 50.8820488,275.190074 C53.993375,266.009156 55.9440031,256.475086 56.6885004,246.809926 C56.8939594,244.067494 59.073612,243.424318 58.6090959,240.708685 Z" id="Path" fill="#000000" fill-rule="nonzero" opacity="0.2"></path>
                    <path d="M60.8959445,212.819851 C69.3969219,247.442493 71.9941833,283.25148 68.5783267,318.738462 L56.9654235,318.738462 C53.7495426,305.776675 50.8284508,291.457072 50.9535128,278.111166 C51.0339098,269.848139 52.3917262,261.415385 50.2924706,253.420347 C48.4254731,246.273945 43.9857708,240.199504 40.2964408,233.830273 C36.6071108,227.461042 33.5341579,220.153846 34.8383763,212.909181 C43.3924112,210.798483 52.3276391,210.767851 60.8959445,212.819851 L60.8959445,212.819851 Z" id="Path" fill="#005898" fill-rule="nonzero"></path>
                    <path d="M49.7654235,211.354839 C53.5887485,213.141439 57.8855227,214.874442 61.8785748,217.009429 C61.5569867,215.615881 61.2443316,214.2134 60.8959445,212.819851 C52.3361879,210.772193 43.4106765,210.802823 34.8651753,212.909181 C33.560957,220.153846 36.6517758,227.461042 40.3232398,233.830273 C43.9947039,240.199504 48.4522721,246.336476 50.3192696,253.420347 C52.4185252,261.415385 51.0607088,269.848139 50.9803118,278.111166 C50.8552498,291.457072 53.7763416,305.803474 56.9922225,318.738462 L62.352024,318.738462 C66.5388186,282.452186 62.2297963,245.689406 49.7654235,211.354839 L49.7654235,211.354839 Z" id="Path" fill="#000000" fill-rule="nonzero" opacity="0.2"></path>
                    <path d="M62.3341579,219.072953 C62.1822969,218.385112 62.0393689,217.69727 61.8785748,217.009429 C61.7177808,216.321588 61.6016517,215.82134 61.4587237,215.222829 C58.778823,214.400993 56.6349024,213.132506 53.3743565,212.337469 C51.4396854,211.852246 49.472174,211.508902 47.4875078,211.310174 C44.9151202,211.343513 42.3481523,211.555437 39.8051257,211.944417 C37.4567534,212.661164 35.2925199,213.880451 33.4626939,215.517618 C33.3554979,215.776675 33.2393689,216.026799 33.1500388,216.294789 L33.1500388,216.35732 C32.9981778,216.795037 32.8552498,217.25062 32.7391207,217.715136 L32.7391207,217.822333 C32.6140587,218.286849 32.5068627,218.715633 32.4175326,219.251613 L32.4175326,219.323077 C32.1448469,220.887272 31.9925391,222.470078 31.9619495,224.057568 L31.9619495,224.155831 C31.9619495,224.682878 31.9619495,225.200993 31.9619495,225.72804 C31.9619495,225.781638 31.9619495,225.826303 31.9619495,225.870968 C31.9619495,226.406948 31.9619495,226.933995 31.9619495,227.461042 L31.9619495,227.559305 C32.0155475,228.658065 32.0959445,229.756824 32.2031406,230.84665 L32.2031406,230.93598 C32.2031406,231.463027 32.3014036,231.981141 32.3639346,232.499256 C32.3639346,232.561787 32.3639346,232.624318 32.3639346,232.686849 C32.4264656,233.187097 32.4800637,233.678412 32.5425947,234.169727 L32.5425947,234.410918 L32.7301877,235.831266 C32.7301877,235.920596 32.7301877,236.009926 32.7301877,236.099256 C32.7301877,236.394045 32.8105847,236.670968 32.8463168,236.992556 C44.5979325,234.989784 55.1436022,228.581237 62.3341579,219.072953 Z" id="Path" fill="#000000" fill-rule="nonzero" opacity="0.2"></path>
                    <path d="M29.987756,226.246154 C39.8765897,229.122581 54.2676567,220.975682 63.9331654,217.447146 C63.1559942,207.209926 60.8512795,196.508189 60.0830413,186.270968 C59.2433391,175.202978 58.1267138,163.375682 51.1500388,154.737469 C48.3182771,151.226799 41.8418503,153.245658 38.4383763,156.193548 C35.0349024,159.141439 33.1679048,163.473945 31.7743565,167.806452 C26.3252249,184.537965 25.2621976,209.255583 29.987756,226.246154 Z" id="Path" fill="#E69E80" fill-rule="nonzero"></path>
                    <path d="M60.0919743,186.270968 C59.3505351,176.516129 58.3857708,166.189578 53.4011555,157.962283 C51.2944545,158.519573 49.2745005,159.364226 47.3981778,160.472457 C43.5659197,162.669975 40.3768378,166.180645 36.4641828,168.21737 C43.2034118,175.740214 51.2170585,182.015051 60.1366393,186.75335 C60.1187733,186.592556 60.1009073,186.431762 60.0919743,186.270968 Z" id="Path" fill="#000000" fill-rule="nonzero" opacity="0.2"></path>
                    <path d="M42.9763416,141.856079 C42.1715025,146.405548 41.7264522,151.01137 41.6453242,155.630769 C43.9053738,156.247146 46.3351505,157.095782 48.6309321,156.640199 C49.3025344,151.907533 49.5238723,147.121847 49.2919743,142.347395 C47.2537115,141.694226 45.0910955,141.525989 42.9763416,141.856079 L42.9763416,141.856079 Z" id="Path" fill="#F0CFB4" fill-rule="nonzero"></path>
                    <path d="M41.9490463,149.583127 C44.1104086,151.124211 46.4927766,152.328948 49.0150512,153.156328 C49.3243335,149.845824 49.4198169,146.518822 49.3009073,143.19603 C49.0435973,142.804124 48.7440357,142.441655 48.4076071,142.115136 L48.3361431,142.061538 C46.5807853,141.643529 44.7621493,141.561691 42.9763416,141.820347 C42.5207584,144.410918 42.1991704,146.992556 41.9490463,149.583127 Z" id="Path" fill="#000000" fill-rule="nonzero" opacity="0.2"></path>
                    <path d="M43.1728676,132.905211 C48.350327,135.723969 52.3161996,140.341287 54.3212547,145.884864 C53.122458,148.041298 51.1286199,149.644061 48.7649272,150.351365 C45.3126067,151.454367 41.541,150.840153 38.6170364,148.698759 C35.7219044,146.47564 34.3829206,142.772513 35.1867634,139.211911 C36.0889967,135.781638 40.0463168,131.20794 43.1728676,132.905211 Z" id="Path" fill="#F0CFB4" fill-rule="nonzero"></path>
                    <path d="M92.2865153,116.504218 C89.5172845,127.098759 86.1495426,137.612903 80.9058701,147.215881 C75.6621976,156.818859 68.3996666,165.537469 59.100411,171.272457 C56.2535812,173.182534 53.041507,174.481356 49.6671604,175.086849 C46.2623736,175.663592 42.7706463,174.806826 40.0195177,172.719603 C37.339617,170.548883 34.2487981,165.653598 36.2140587,162.8933 C38.6885004,159.409429 43.0746046,157.998015 47.0408577,156.416873 C65.7973873,148.845097 80.4772923,133.694682 87.4537609,114.708685 L92.2865153,116.504218 Z" id="Path" fill="#E69E80" fill-rule="nonzero"></path>
                    <path d="M48.4612051,134.620347 C48.5177374,135.118769 48.362134,135.617996 48.032421,135.99603 C47.6988441,136.357564 47.3061333,136.659649 46.8711307,136.88933 C44.5840584,138.264365 41.9889121,139.044444 39.3227436,139.158313 C40.2104907,140.518056 40.4708058,142.193835 40.0373838,143.758809 C40.930684,144.437717 41.5202622,145.313151 42.3688974,145.99206 C41.5064221,145.569285 40.6099733,145.21967 39.6889967,144.946898 C39.2334556,144.681747 38.6705923,144.681747 38.2150512,144.946898 C37.9312159,145.226164 37.8400008,145.647157 37.9827932,146.018859 C38.1339351,146.366907 38.3668288,146.673346 38.6617014,146.912159 C39.5101612,147.689567 40.5434254,148.236951 41.6631902,148.502233 C41.9341084,149.600155 41.9554759,150.744842 41.7257212,151.852109 C38.6438354,151.101737 34.8741083,149.645658 33.2572349,146.921092 C32.1674086,145.080893 32.1495426,142.811911 32.3639346,140.66799 C32.6140587,137.60397 33.2572349,134.414888 35.0974334,132.002978 C36.9376319,129.591067 40.3053738,128.027792 43.1907336,129.072953 C45.4418503,129.984119 48.05922,132.208437 48.4612051,134.620347 Z" id="Path" fill="#EFCB80" fill-rule="nonzero"></path>
                    <rect id="Rectangle" fill="#005898" fill-rule="nonzero" x="54.7500388" y="316.103226" width="15.2843672" height="5.26153846" rx="1.98312655"></rect>
                    <rect id="Rectangle" fill="#005898" fill-rule="nonzero" style="mix-blend-mode: screen;" x="54.7500388" y="316.103226" width="15.2843672" height="5.26153846" rx="1.98312655"></rect>
                    <rect id="Rectangle" fill="#005898" fill-rule="nonzero" transform="translate(24.227772, 313.461480) rotate(30.640000) translate(-24.227772, -313.461480) " x="16.5855884" y="310.830711" width="15.2843672" height="5.26153846" rx="1.98312655"></rect>
                    <rect id="Rectangle" fill="#005898" fill-rule="nonzero" style="mix-blend-mode: screen;" transform="translate(24.227772, 313.461480) rotate(30.640000) translate(-24.227772, -313.461480) " x="16.5855884" y="310.830711" width="15.2843672" height="5.26153846" rx="1.98312655"></rect>
                    <polygon id="Path" fill="#005898" fill-rule="nonzero" points="58.4572349 327.126551 54.7500388 333.388586 78.1277063 333.388586 66.3361431 327.126551"></polygon>
                    <polygon id="Path" fill="#005898" fill-rule="nonzero" points="24.1277063 328.457568 21.2780785 324.08933 16.4185252 321.257568 10.5048775 324.008933 21.7693937 330.565757 22.850287 331.351861 29.7733639 332.048635"></polygon>
                    <path d="M207.602644,324.08933 L132.681552,324.08933 C132.02062,324.08933 131.38714,323.824994 130.922315,323.355134 C130.457489,322.885274 130.199953,322.248983 130.206965,321.588089 L130.206965,321.588089 C130.206965,320.932645 130.468091,320.304176 130.932397,319.841546 C131.396703,319.378915 132.026113,319.120206 132.681552,319.122564 L207.602644,319.122564 C208.257266,319.120196 208.885764,319.379188 209.348655,319.842079 C209.811545,320.304969 210.070538,320.933468 210.068412,321.588089 L210.068412,321.588089 C210.07772,322.248152 209.822192,322.884482 209.358778,323.354612 C208.895364,323.824742 208.262776,324.089399 207.602644,324.08933 L207.602644,324.08933 Z" id="Path" fill="#000000" fill-rule="nonzero" opacity="0.2"></path>
                </g>
            </g>
        </g>
    </g>
</svg>