<?xml version="1.0" encoding="UTF-8"?>
<svg width="56px" height="56px" viewBox="0 0 56 56" version="1.1" xmlns="http://www.w3.org/2000/svg" xmlns:xlink="http://www.w3.org/1999/xlink">
    <!-- Generator: sketchtool 58 (101010) - https://sketch.com -->
    <title>AC277693-EA37-43C4-94B5-FC86DD5F1D32</title>
    <desc>Created with sketchtool.</desc>
    <g id="Page-1" stroke="none" stroke-width="1" fill="none" fill-rule="evenodd">
        <g id="Home-page" transform="translate(-1243.000000, -214.000000)" fill="#FFFFFF">
            <g id="Group-14" transform="translate(1243.000000, 214.000000)">
                <path d="M47.1806428,2.51074084 C47.5070004,2.51074084 47.8259408,2.60469227 48.1016141,2.78394172 C48.216581,2.85811391 48.3636892,2.86305872 48.4836009,2.79630375 C48.6035126,2.72954879 48.6764486,2.60221987 48.6739762,2.46500132 L48.6715038,2.43904106 C48.6715038,1.50199912 49.4341174,0.740498013 50.3700468,0.740498013 C51.3058525,0.740498013 52.0673536,1.50199912 52.0685898,2.42915143 C52.0673536,2.43780486 52.0661174,2.46129272 52.0661174,2.46870993 C52.0648812,2.60469227 52.1389298,2.73202119 52.2589651,2.79753996 C52.3776406,2.86305872 52.5246252,2.85811391 52.6383558,2.78394172 C52.9141528,2.60469227 53.2330932,2.51074084 53.5605634,2.51074084 C54.4964927,2.51074084 55.2579938,3.27224194 55.2579938,4.20804768 C55.2579938,5.13272759 54.5063823,5.8942287 53.5817024,5.90535453 C53.573049,5.90535453 53.5631594,5.90535453 53.5557422,5.90659073 L47.1855876,5.90659073 C47.1769342,5.90535453 47.1681572,5.90535453 47.1596274,5.90535453 C46.2337113,5.8942287 45.4820998,5.13272759 45.4820998,4.20804768 C45.4820998,3.27224194 46.2436009,2.51074084 47.1806428,2.51074084 M47.1175965,6.64584018 C47.1299585,6.64707638 47.1435567,6.64707638 47.1559188,6.64707638 L53.585411,6.64707638 C53.5977731,6.64707638 53.6101351,6.64707638 53.6223735,6.64584018 C54.936581,6.61246269 55.9997157,5.52584018 55.9997157,4.20804768 C55.9997157,2.86305872 54.9056759,1.76901898 53.5605634,1.76901898 C53.2824177,1.76901898 53.0105766,1.8159947 52.750974,1.90747373 C52.5086781,0.817142605 51.5333139,1.23620309e-05 50.3700468,1.23620309e-05 C49.2078923,1.23620309e-05 48.2326517,0.817142605 47.9891196,1.90747373 C47.7307532,1.8159947 47.4575523,1.76901898 47.1806428,1.76901898 C45.8356539,1.76901898 44.7416141,2.86305872 44.7416141,4.20804768 C44.7416141,5.52584018 45.8047488,6.61246269 47.1175965,6.64584018" id="Fill-1"></path>
                <path d="M13.9959453,18.7865413 C13.9959453,19.7112212 13.2430976,20.4714861 12.3184177,20.4826119 C12.3097642,20.4826119 12.3011108,20.4838481 12.2924574,20.4838481 L5.92230287,20.4838481 C5.91364945,20.4838481 5.90499603,20.4826119 5.8963426,20.4826119 C4.97166269,20.4714861 4.21881501,19.7112212 4.21881501,18.7865413 C4.21881501,17.8494993 4.98031611,17.0879982 5.91735806,17.0879982 C6.24371567,17.0879982 6.56389227,17.1831859 6.83832936,17.3611991 C6.95453245,17.4366075 7.10040442,17.4403161 7.22155232,17.3747974 C7.34022781,17.3068062 7.4144,17.1794773 7.41069139,17.0422587 L7.40945519,17.0162985 C7.40945519,16.0804927 8.17095629,15.3189916 9.10799823,15.3189916 C10.043804,15.3189916 10.8053051,16.0804927 10.8053051,17.007645 C10.8053051,17.0150623 10.8040689,17.0385501 10.8040689,17.0472035 C10.8028327,17.1831859 10.8757687,17.3092786 10.9956804,17.3747974 C11.1155921,17.4403161 11.261464,17.4366075 11.3765545,17.3611991 C11.6521042,17.1831859 11.9710446,17.0879982 12.2974022,17.0879982 C13.2344442,17.0879982 13.9959453,17.8494993 13.9959453,18.7865413 M9.10799823,14.5772698 C7.94473113,14.5772698 6.96936689,15.3956362 6.72583488,16.4859673 C6.46746843,16.3944883 6.19426755,16.3462764 5.91735806,16.3462764 C4.57249272,16.3462764 3.47832936,17.4415523 3.47832936,18.7865413 C3.47832936,20.1043338 4.54158764,21.1897201 5.8543117,21.2243338 C5.86790993,21.2243338 5.88027196,21.22557 5.892634,21.22557 L12.3221263,21.22557 C12.3346119,21.22557 12.3480865,21.2243338 12.3592124,21.2243338 C13.6732962,21.1909563 14.7364309,20.1043338 14.7364309,18.7865413 C14.7364309,17.4415523 13.6423912,16.3462764 12.2974022,16.3462764 C12.0206163,16.3462764 11.7474155,16.3944883 11.4876892,16.4859673 C11.2453934,15.3956362 10.2700291,14.5772698 9.10799823,14.5772698" id="Fill-4"></path>
                <path d="M8.16110375,4.06215099 C8.54432671,4.82117969 9.19827815,5.76193024 10.2206181,6.21685298 C9.47766004,6.62232759 8.50971302,7.3059479 8.00905077,8.29985519 C7.67403974,7.52599205 7.09302428,6.59265872 6.13496689,6.10683091 C6.8593819,5.75945784 7.71854305,5.13888389 8.16110375,4.06215099 M4.48339956,6.16740486 C4.49452539,6.35778013 4.64657837,6.50983311 4.83695364,6.51848653 C7.06706402,6.6235638 7.67774834,9.66091479 7.68392936,9.69181987 C7.71730684,9.86736071 7.87059603,9.99221722 8.04737307,9.99221722 C8.0584989,9.99221722 8.06838852,9.99221722 8.07827815,9.99098102 C8.26741722,9.97491038 8.41452539,9.82038499 8.418234,9.63124592 C8.46644592,7.52846446 11.4308609,6.47398322 11.4605298,6.4640936 C11.6274172,6.40475585 11.7300221,6.23786843 11.7065342,6.06232759 C11.6818102,5.88678675 11.5384106,5.75327682 11.3616336,5.7433872 C9.23536424,5.61605828 8.43801325,2.77279117 8.42935982,2.7431223 C8.38238411,2.57005386 8.21673289,2.45632318 8.03871965,2.47115762 C7.8594702,2.48722826 7.71854305,2.62939161 7.70370861,2.80864106 C7.48984547,5.33296777 4.90741722,5.76440265 4.79863135,5.78170949 C4.60949227,5.81014216 4.47474614,5.97702958 4.48339956,6.16740486" id="Fill-6"></path>
                <path d="M2.77993642,8.14040971 C3.04201148,8.60274967 3.43636026,9.11701015 4.00130508,9.43100574 C3.54390993,9.70297042 3.01481501,10.108445 2.67609536,10.6597916 C2.44739779,10.193743 2.0974287,9.68442737 1.57711082,9.35559735 L2.77993642,8.14040971 Z M0.417552318,9.74623753 C1.90841325,9.8167011 2.32624989,11.8823965 2.3299585,11.9021757 C2.36333598,12.0789528 2.51786137,12.2038093 2.69340221,12.2038093 C2.70329183,12.2038093 2.71441766,12.2038093 2.72430728,12.2025731 C2.91344636,12.1865024 3.06055453,12.0307408 3.06426313,11.8416018 C3.09640442,10.431094 5.12377748,9.70791523 5.14355673,9.70173422 C5.31044415,9.64363267 5.41304901,9.47550905 5.38956115,9.30120442 C5.36483709,9.12566358 5.22020132,8.99091744 5.04342428,8.98102781 C3.61931832,8.8957298 3.07415276,6.95859956 3.06797174,6.93882031 C3.02223223,6.76575188 2.85781722,6.64954879 2.67733157,6.66685563 C2.49808212,6.68292627 2.35715497,6.82508962 2.34108433,7.00433907 C2.19892097,8.70164592 0.452166004,8.99709845 0.379230022,9.00946049 C0.191327152,9.03789316 0.0553448124,9.20478057 0.0652344371,9.39515585 C0.0751240618,9.58553113 0.227177042,9.7363479 0.417552318,9.74623753 L0.417552318,9.74623753 Z" id="Fill-8"></path>
                <path d="M2.77993642,1.55388256 C3.04201148,2.01745872 3.43512406,2.530483 4.00130508,2.84447859 C3.54390993,3.11644327 3.01481501,3.52191788 2.67609536,4.07326446 C2.44739779,3.60721589 2.0974287,3.09790022 1.57711082,2.767834 C2.03561854,2.51070375 2.4906649,2.11882737 2.77993642,1.55388256 M0.417552318,3.15971038 C1.90841325,3.23017395 2.32624989,5.29463311 2.3299585,5.31564857 C2.36333598,5.4911894 2.51786137,5.61728212 2.69340221,5.61728212 C2.70329183,5.61728212 2.71318146,5.61604592 2.72430728,5.61604592 C2.91344636,5.59997528 3.05931832,5.44421369 3.06426313,5.25507461 C3.09640442,3.84456689 5.12254128,3.12138808 5.14232053,3.11397086 C5.30920795,3.05586932 5.41304901,2.8889819 5.38832494,2.71344106 C5.36483709,2.53913642 5.22020132,2.40439029 5.04342428,2.39450066 C3.61931832,2.30920265 3.07415276,0.372072406 3.06797174,0.352293157 C3.02223223,0.179224724 2.85781722,0.0654940397 2.67733157,0.0803284768 C2.49808212,0.096399117 2.35715497,0.238562472 2.34108433,0.417811921 C2.19892097,2.11635497 0.452166004,2.4105713 0.379230022,2.42293333 C0.191327152,2.451366 0.0553448124,2.61825342 0.0652344371,2.8086287 C0.0751240618,2.99900397 0.227177042,3.14982075 0.417552318,3.15971038" id="Fill-10"></path>
                <path d="M42.187532,55.1346578 L43.2866402,48.220574 L50.8361325,48.220574 L54.8277086,55.1346578 L42.187532,55.1346578 Z M1.01207947,55.1346578 L5.00377925,48.220574 L12.5595762,48.220574 L13.6572009,55.1346578 L1.01207947,55.1346578 Z M7.85569978,43.2794702 L14.2703576,43.2794702 L12.2355673,45.1028698 C12.1416159,45.1869316 12.0971126,45.3130243 12.1168918,45.4378808 L12.4409007,47.4800883 L5.43150552,47.4800883 L7.85569978,43.2794702 Z M11.5656689,36.8549227 L21.4403355,36.8549227 L15.0987373,42.5377483 L8.28466225,42.5377483 L11.5656689,36.8549227 Z M14.4188256,31.913819 L26.9550375,31.913819 L22.2673554,36.1144371 L11.9932715,36.1144371 L14.4188256,31.913819 Z M37.7126004,25.4892715 L40.9934834,31.1720971 L28.2901369,31.1720971 L28.2901369,25.4892715 L37.7126004,25.4892715 Z M18.5551611,24.7487859 L20.980468,20.5481678 L27.5496512,20.5481678 L27.5496512,24.7487859 L18.5551611,24.7487859 Z M24.7879735,13.9530243 L24.7900751,13.9495629 C24.8351965,13.9192759 24.8756203,13.88083 24.9049183,13.8306402 L27.5496512,9.28883002 L27.5496512,19.8064459 L21.4083179,19.8064459 L24.7879735,13.9530243 Z M28.2901369,19.8064459 L28.2901369,9.20810596 L30.9258455,13.7344636 L30.9814746,13.8306402 C30.9825872,13.8331126 30.9851832,13.8368212 30.987532,13.8392936 L34.4317174,19.8064459 L28.2901369,19.8064459 Z M37.2848742,24.7487859 L28.2901369,24.7487859 L28.2901369,20.5481678 L34.8594437,20.5481678 L37.2848742,24.7487859 Z M18.7243974,48.220574 L19.1522472,47.4800883 L21.5775541,43.2794702 L22.0052804,42.5377483 L25.2861634,36.8549227 L25.7138896,36.1144371 L27.5496512,32.9336865 L27.5496512,36.1144371 L27.5496512,36.8549227 L27.5496512,42.5377483 L27.5496512,43.2794702 L27.5496512,47.4800883 L27.5496512,48.220574 L27.5496512,55.1334216 L14.7339338,55.1334216 L18.7243974,48.220574 Z M30.5586932,36.8549227 L33.8395762,42.5377483 L34.268415,43.2794702 L36.6939691,47.4800883 L37.1216954,48.220574 L41.1121589,55.1334216 L28.2901369,55.1334216 L28.2901369,48.220574 L28.2901369,47.4800883 L28.2901369,43.2794702 L28.2901369,42.5377483 L28.2901369,36.8549227 L28.2901369,36.1144371 L28.2901369,32.9250331 L30.1309669,36.1144371 L30.1320795,36.1144371 L30.5586932,36.8549227 Z M43.8466402,36.1144371 L33.5775011,36.1144371 L28.889819,31.913819 L41.4224459,31.913819 L43.8466402,36.1144371 Z M13.1923885,47.4800883 L12.880989,45.5205828 L15.3818278,43.2794702 L16.2099603,42.5377483 L22.5518057,36.8549227 L23.3774658,36.1144371 L26.4334834,33.3762472 L24.8523797,36.1144371 L24.4246534,36.8549227 L21.1437704,42.5377483 L20.7160442,43.2794702 L18.2904901,47.4800883 L17.8627638,48.220574 L14.2927329,54.4040618 L13.3098278,48.220574 L13.1923885,47.4800883 Z M47.5552494,42.5377483 L40.747479,42.5377483 L39.8783046,41.7589404 C39.7250155,41.6229581 39.4913731,41.6353201 39.3541545,41.7886093 C39.2181722,41.9406623 39.2305342,42.1743046 39.3838234,42.3115232 L39.6360088,42.5377483 L40.4643885,43.2794702 L42.9651038,45.5205828 L42.6537042,47.4800883 L42.5361413,48.220574 L41.5521236,54.4127152 L37.9770243,48.220574 L37.549298,47.4800883 L35.1238675,43.2794702 L34.6961413,42.5377483 L31.4152583,36.8549227 L30.987532,36.1144371 L29.4014834,33.3675938 L32.4672671,36.1144371 L33.2931744,36.8549227 L36.821298,40.015894 C36.9744636,40.1531126 37.2082296,40.1395143 37.3440883,39.9874614 C37.4814305,39.8354084 37.4689448,39.6005298 37.3157792,39.4645475 L34.4031611,36.8549227 L44.2743664,36.8549227 L47.5552494,42.5377483 Z M48.6431082,44.4217219 L48.6813068,44.4884768 L50.4070464,47.4800883 L43.4040795,47.4800883 L43.7292009,45.4378808 C43.7489801,45.3130243 43.7044768,45.1881678 43.6105254,45.104106 L41.5743753,43.2794702 L47.9842119,43.2794702 L48.6431082,44.4217219 Z M50.6023664,46.334128 L50.5851832,46.303223 L50.2303929,45.6875938 L49.9089801,45.1313024 L49.8000706,44.9433996 L48.5194879,42.7231788 C48.5168918,42.718234 48.5133068,42.7132892 48.5107108,42.7095806 C48.5107108,42.7082208 48.5095982,42.7082208 48.508362,42.7071082 L44.8181722,36.314702 C44.8170596,36.3097572 44.8132274,36.3048124 44.8108786,36.2998675 L41.9564857,31.3575276 L38.2502252,24.9379249 C38.2491126,24.9366887 38.2491126,24.9342163 38.2478764,24.9329801 L37.6656247,23.9254746 L31.6234349,13.4601501 C31.6228168,13.4591611 31.6225695,13.4581722 31.6220751,13.4571832 L31.5800442,13.384989 L28.3865607,7.85236203 L28.3863135,7.85199117 L32.6107903,0.597209713 C32.7136424,0.42006181 32.6538102,0.193218543 32.4766623,0.0901192053 C32.3001325,-0.0127328918 32.0732892,0.0470993377 31.9700662,0.22412362 L28.2901369,6.54359382 L28.2901369,0.410419426 C28.2901369,0.205209713 28.1244857,0.0395584989 27.9205121,0.0395584989 C27.715426,0.0395584989 27.5496512,0.205209713 27.5496512,0.410419426 L27.5496512,6.46324062 L23.916574,0.223752759 C23.813351,0.0470993377 23.5865077,-0.0127328918 23.4094834,0.0901192053 C23.2327064,0.192847682 23.1729978,0.419690949 23.2757263,0.596715232 L27.4768389,7.81132009 L27.4767152,7.81156733 L20.4464283,19.9918764 L19.3191347,21.9438411 L19.0742428,22.3690949 L18.4326534,23.4779691 L17.5921589,24.9329801 C17.5907991,24.9354525 17.5896865,24.9379249 17.5884503,24.9403974 C17.5858543,24.9428698 17.5858543,24.9453422 17.5846181,24.9490508 L16.8639117,26.1963797 C16.7613068,26.3731567 16.8220044,26.6006181 16.9986578,26.703223 C17.1767947,26.8045916 17.4030199,26.7440177 17.5055011,26.5672406 L18.1274349,25.4892715 L27.5496512,25.4892715 L27.5496512,31.1720971 L14.8465519,31.1720971 L15.794596,29.5291832 C15.8973245,29.35117 15.8366269,29.1249448 15.6599735,29.02234 C15.4819603,28.9197351 15.2557351,28.9815453 15.1531302,29.1583223 L13.8835497,31.3575276 L11.0290331,36.2998675 C11.0277969,36.3035762 11.0253245,36.3060486 11.0242119,36.3097572 C11.0242119,36.3097572 11.0242119,36.3108698 11.0228521,36.3108698 C11.0217395,36.3134658 11.0203797,36.314702 11.0203797,36.3171744 L7.33167329,42.7071082 C7.33031347,42.7082208 7.32920088,42.7082208 7.32920088,42.7095806 C7.32660486,42.7132892 7.32301987,42.718234 7.32042384,42.7231788 L6.03118764,44.9569978 L5.42792053,46.0028256 L5.22147461,46.3600883 L5.00625166,46.7346578 L0.0490772627,55.3200883 C-0.0163178808,55.433819 -0.0163178808,55.5759823 0.0490772627,55.6909492 C0.11583223,55.8046799 0.238339956,55.8763797 0.370490066,55.8763797 L27.8636468,55.8763797 C27.8821898,55.8800883 27.9008565,55.8813245 27.9205121,55.8813245 C27.9390552,55.8813245 27.9588344,55.8800883 27.9762649,55.8763797 L55.469298,55.8763797 C55.6016954,55.8763797 55.7253157,55.8046799 55.7907108,55.6909492 C55.8574658,55.5759823 55.8574658,55.433819 55.7907108,55.3200883 L50.6023664,46.334128 Z" id="Fill-12"></path>
            </g>
        </g>
    </g>
</svg>