<?xml version="1.0" encoding="UTF-8"?>
<svg width="63px" height="57px" viewBox="0 0 63 57" version="1.1" xmlns="http://www.w3.org/2000/svg" xmlns:xlink="http://www.w3.org/1999/xlink">
    <!-- Generator: Sketch 58 (84663) - https://sketch.com -->
    <title>amenities copy 2</title>
    <desc>Created with Sketch.</desc>
    <g id="Page-1" stroke="none" stroke-width="1" fill="none" fill-rule="evenodd">
        <g id="amenities-copy-2" transform="translate(0.000000, 1.000000)">
            <polyline id="Path" stroke="#FFFFFF" stroke-width="0.98" points="13.608 52.444 13.608 30.716 13.608 29.064 13.608 29.232 13.608 18.368 13.608 12.362 27.972 12.362 27.972 18.368 27.972 29.232 27.972 29.064 27.972 30.716 27.972 52.458"></polyline>
            <polyline id="Path" stroke="#FFFFFF" stroke-width="0.98" points="24.388 16.24 24.388 29.232 24.388 29.064 24.388 30.716 24.388 54.586"></polyline>
            <polyline id="Path" stroke="#FFFFFF" stroke-width="0.98" points="17.206 54.376 17.206 30.716 17.206 29.064 17.206 29.232 17.206 16.226"></polyline>
            <path d="M27.972,44.128 C27.972,48.0945091 24.7565091,51.31 20.79,51.31 C16.8234909,51.31 13.608,48.0945091 13.608,44.128" id="Path" stroke="#FFFFFF" stroke-width="0.98"></path>
            <path d="M13.608,26.39 C13.608,22.4234909 16.8234909,19.208 20.79,19.208 C24.7565091,19.208 27.972,22.4234909 27.972,26.39" id="Path" stroke="#FFFFFF" stroke-width="0.98"></path>
            <path d="M24.388,44.128 C24.2695381,46.0243174 22.6970139,47.5016721 20.797,47.5016721 C18.8969861,47.5016721 17.3244619,46.0243174 17.206,44.128" id="Path" stroke="#FFFFFF" stroke-width="0.98"></path>
            <path d="M17.206,26.39 C17.1225125,25.0535478 17.7881094,23.7812946 18.9335938,23.087796 C20.0790781,22.3942975 21.5149219,22.3942975 22.6604062,23.087796 C23.8058906,23.7812946 24.4714875,25.0535478 24.388,26.39" id="Path" stroke="#FFFFFF" stroke-width="0.98"></path>
            <polyline id="Path" stroke="#FFFFFF" stroke-width="0.98" points="20.79 -3.64153152e-14 17.206 -3.64153152e-14 17.206 12.362 24.388 12.362 24.388 7.21"></polyline>
            <polyline id="Path" stroke="#FFFFFF" stroke-width="0.98" points="24.388 2.996 24.388 -6.3504757e-14 22.638 -6.3504757e-14"></polyline>
            <polyline id="Path" stroke="#FFFFFF" stroke-width="0.98" points="17.206 2.604 10.262 2.604 10.262 6.174"></polyline>
            <path d="M13.608,18.368 C17.6959091,14.6923134 23.8980909,14.6923134 27.986,18.368" id="Path" stroke="#FFFFFF" stroke-width="0.98"></path>
            <path d="M27.972,52.444 C23.8837795,56.1048984 17.6962205,56.1048984 13.608,52.444" id="Path" stroke="#FFFFFF" stroke-width="0.98"></path>
            <polyline id="Path" stroke="#FFFFFF" stroke-width="0.98" points="35.798 48.286 35.798 43.61 35.798 41.972 35.798 42.126 35.798 31.262 35.798 25.256 50.162 25.256 50.162 31.262 50.162 42.126 50.162 41.972 50.162 43.61 50.162 48.3"></polyline>
            <polyline id="Path" stroke="#FFFFFF" stroke-width="0.98" points="46.564 29.134 46.564 42.126 46.564 41.972 46.564 43.61 46.564 50.428"></polyline>
            <polyline id="Path" stroke="#FFFFFF" stroke-width="0.98" points="39.382 50.218 39.382 43.61 39.382 41.972 39.382 42.126 39.382 29.12"></polyline>
            <path d="M50.162,39.97 C50.162,43.9365091 46.9465091,47.152 42.98,47.152 C39.0134909,47.152 35.798,43.9365091 35.798,39.97" id="Path" stroke="#FFFFFF" stroke-width="0.98"></path>
            <path d="M35.798,39.284 C35.798,35.3174909 39.0134909,32.102 42.98,32.102 C46.9465091,32.102 50.162,35.3174909 50.162,39.284" id="Path" stroke="#FFFFFF" stroke-width="0.98"></path>
            <path d="M46.564,39.97 C46.4455381,41.8663174 44.8730139,43.3436721 42.973,43.3436721 C41.0729861,43.3436721 39.5004619,41.8663174 39.382,39.97" id="Path" stroke="#FFFFFF" stroke-width="0.98"></path>
            <path d="M39.382,39.284 C39.5004619,37.3876826 41.0729861,35.9103279 42.973,35.9103279 C44.8730139,35.9103279 46.4455381,37.3876826 46.564,39.284" id="Path" stroke="#FFFFFF" stroke-width="0.98"></path>
            <rect id="Rectangle" stroke="#FFFFFF" stroke-width="0.98" x="39.382" y="14.294" width="7.182" height="10.962"></rect>
            <path d="M35.784,31.262 C39.879249,27.6055041 46.066751,27.6055041 50.162,31.262" id="Path" stroke="#FFFFFF" stroke-width="0.98"></path>
            <path d="M50.162,48.244 C46.066751,51.9004959 39.879249,51.9004959 35.784,48.244" id="Path" stroke="#FFFFFF" stroke-width="0.98"></path>
            <circle id="Oval" fill-rule="nonzero" cx="42.98" cy="19.208" r="1.274"></circle>
            <path d="M1.33226763e-14,36.778 L13.608,36.778" id="Path" stroke="#FFFFFF" stroke-width="0.98"></path>
            <path d="M27.972,36.778 L36.246,36.778" id="Path" stroke="#FFFFFF" stroke-width="0.98"></path>
            <path d="M50.162,36.778 L62.468,36.778" id="Path" stroke="#FFFFFF" stroke-width="0.98"></path>
        </g>
    </g>
</svg>