<svg xmlns="http://www.w3.org/2000/svg" width="30" height="32" viewBox="0 0 30 32">
    <g fill="none" fill-rule="evenodd">
        <g>
            <path fill="#B4AC94" d="M24.656 6.426c-.096.472.208.932.679 1.028h.174c.423.007.79-.29.871-.706l1.228-6.12V.313c.004-.015.004-.03 0-.044V.131c-.018-.046-.042-.09-.07-.131h-.975l-6.157 1.228c-.48.096-.792.564-.696 1.045.096.48.564.792 1.045.696l3.37-1.105-9.091 9.047-3.1-3.083c-.34-.337-.888-.337-1.227 0L.257 18.278c-.164.162-.257.385-.257.617 0 .233.093.455.258.619.164.162.386.253.618.252.231.001.454-.09.618-.252l9.848-9.84 3.082 3.083c.34.337.889.337 1.228 0l9.666-9.666-.662 3.335z" transform="translate(-1) translate(1)"/>
            <path fill="#678189" fill-rule="nonzero" d="M12.805 18.913H9.322c-.481 0-.87.39-.87.87v11.32c0 .481.389.871.87.871.48 0 .87-.39.87-.87v-10.45h1.742v10.45c0 .48.39.87.87.87.482 0 .872-.39.872-.87v-11.32c0-.481-.39-.871-.871-.871zM20.642 15.43h-3.483c-.481 0-.871.39-.871.87v14.803c0 .481.39.871.87.871.481 0 .871-.39.871-.87V17.17h1.742v13.932c0 .481.39.871.87.871.481 0 .871-.39.871-.87V16.3c0-.481-.39-.871-.87-.871zM28.478 9.335h-3.483c-.48 0-.87.39-.87.87v20.898c0 .481.39.871.87.871.481 0 .871-.39.871-.87V11.075h1.742v20.027c0 .481.39.871.87.871.481 0 .871-.39.871-.87V10.204c0-.48-.39-.87-.87-.87z" transform="translate(-1) translate(1)"/>
        </g>
    </g>
</svg>
