<?xml version="1.0" encoding="UTF-8"?>
<svg width="40px" height="38px" viewBox="0 0 40 38" version="1.1" xmlns="http://www.w3.org/2000/svg" xmlns:xlink="http://www.w3.org/1999/xlink">
    <!-- Generator: Sketch 58 (84663) - https://sketch.com -->
    <title>Group 130</title>
    <desc>Created with Sketch.</desc>
    <g id="Page-1" stroke="none" stroke-width="1" fill="none" fill-rule="evenodd">
        <g id="Create-personal-gift-page/-first-step" transform="translate(-1061.000000, -513.000000)">
            <g id="Group-130" transform="translate(1061.000000, 512.000000)">
                <g id="fireworks" transform="translate(0.000000, 1.000000)" fill-rule="nonzero">
                    <path d="M24.1319754,14.6515783 C24.044256,14.6515783 23.9559274,14.6366538 23.8706447,14.6065002 L19.9610393,13.2160867 L16.0511293,14.6065002 C15.8089871,14.6926967 15.5397373,14.6537103 15.3317082,14.502638 C15.1236793,14.3512611 15.0033697,14.1072915 15.010375,13.8502249 L15.124593,9.70213237 L12.5941316,6.41326359 C12.4372723,6.20980329 12.3909759,5.94146719 12.4704717,5.6968884 C12.5499674,5.45230961 12.7448994,5.26286009 12.9916103,5.19006514 L16.9718785,4.01681802 L19.3177636,0.59362891 C19.4633535,0.381640334 19.7039726,0.254934518 19.9610393,0.254934518 C20.2181059,0.254934518 20.458725,0.381640334 20.6043149,0.59362891 L22.9502,4.01681802 L26.9304682,5.19006514 C27.1771791,5.26286009 27.3721111,5.45230961 27.4516068,5.6968884 C27.5311026,5.94146719 27.4848063,6.20949873 27.3279469,6.41326359 L24.7974855,9.70243693 L24.9117035,13.8502249 C24.9187089,14.1072915 24.7983992,14.3515657 24.5903703,14.502638 C24.4554407,14.6007132 24.2943173,14.6515783 24.1319754,14.6515783 L24.1319754,14.6515783 Z M14.5239587,6.36422602 L16.5296265,8.97113728 C16.6389711,9.11307212 16.6959279,9.28851094 16.6910546,9.4679093 L16.6005939,12.7558643 L19.6997085,11.6538893 C19.8687511,11.5938867 20.0533274,11.5938867 20.22237,11.6538893 L23.32118,12.7558643 L23.231024,9.4679093 C23.2258461,9.28851094 23.2831074,9.11307212 23.392452,8.97113728 L25.3981198,6.36422602 L22.2432668,5.43403473 C22.0711784,5.38347428 21.9219336,5.27504334 21.820508,5.12701679 L19.9610393,2.41380668 L18.1015705,5.12701679 C18.0001449,5.27504334 17.8509001,5.38347428 17.6788117,5.43403473 L14.5239587,6.36422602 Z" id="Shape" fill="#88816C"></path>
                    <path d="M31.3267946,7.47229271 C31.1644528,7.47229271 31.0033293,7.42142769 30.8683998,7.32335248 C30.6603707,7.17228016 30.5400611,6.92831057 30.547371,6.67124396 L30.5951903,4.92355649 L29.5291559,3.53771167 C29.3722965,3.33394673 29.3263047,3.0659152 29.4054958,2.82133649 C29.4849915,2.57675769 29.6799235,2.38730817 29.9266344,2.31451322 L31.6036589,1.82017777 L32.5920253,0.377985358 C32.7376151,0.16569222 32.9782343,0.0389864048 33.235301,0.0389864048 C33.4923675,0.0389864048 33.7329867,0.16569222 33.8785766,0.377985358 L34.8669429,1.82017777 L36.5436629,2.31451322 C36.7903738,2.38730817 36.9853058,2.57675769 37.065106,2.82133649 C37.1442972,3.0659152 37.0983054,3.33394673 36.9414461,3.53771167 L35.8751069,4.92355649 L35.9232308,6.67124396 C35.9305408,6.92831057 35.8102311,7.17228016 35.6022021,7.32335248 C35.3941731,7.47442479 35.1249232,7.51310664 34.8827811,7.42721468 L33.235301,6.84150492 L31.5881254,7.42721468 C31.5028426,7.45736824 31.414514,7.47229271 31.3267946,7.47229271 L31.3267946,7.47229271 Z M33.235301,5.23422941 C33.3236295,5.23422941 33.411958,5.24915387 33.4963271,5.27930744 L34.3330118,5.57657877 L34.3086453,4.68902894 C34.3034675,4.50963058 34.3607288,4.33419176 34.4700735,4.19225684 L35.0113144,3.48836947 L34.1597051,3.23739448 C33.9879213,3.18683403 33.8383718,3.07840309 33.7369463,2.93037655 L33.2349963,2.19785857 L32.7330464,2.93037655 C32.6316208,3.07840309 32.482376,3.18652947 32.3102875,3.23739448 L31.4586783,3.48836947 L32.0002238,4.19225684 C32.1092639,4.33419176 32.1665252,4.50963058 32.1613473,4.68902894 L32.1369808,5.57657877 L32.9736656,5.27930744 C33.0586437,5.24915387 33.1466678,5.23422941 33.235301,5.23422941 L33.235301,5.23422941 Z" id="Shape" fill="#88816C"></path>
                    <path d="M8.59528393,7.47229271 C8.50756452,7.47229271 8.41923591,7.45736824 8.33395315,7.42721468 L6.68677755,6.84150492 L5.03960194,7.42721468 C4.79715532,7.5134112 4.52821002,7.47442479 4.31987642,7.32335248 C4.11184738,7.17228016 3.99184231,6.92831057 3.9988477,6.67124396 L4.04697159,4.92355649 L2.98063244,3.53771167 C2.82377314,3.33394673 2.77778134,3.0659152 2.85727704,2.82133649 C2.93677273,2.57645313 3.13170476,2.38700353 3.37841564,2.31420866 L5.05513561,1.81987321 L6.04350187,0.377680796 C6.18909176,0.16569222 6.42971102,0.0389864048 6.68677755,0.0389864048 C6.94384423,0.0389864048 7.18446341,0.16569222 7.33005322,0.377680796 L8.31841956,1.81987321 L9.99513953,2.31451322 C10.2418503,2.38700353 10.4367824,2.57675769 10.5162781,2.82133649 C10.5957738,3.0659152 10.5494775,3.33394673 10.3929227,3.53771167 L9.32658358,4.92325193 L9.37470747,6.6709394 C9.38171278,6.92800593 9.26170779,7.17228016 9.05367875,7.32335248 C8.91874922,7.42142769 8.7579303,7.47229271 8.59528393,7.47229271 Z M6.68677755,5.23422941 C6.77510616,5.23422941 6.86373933,5.24915387 6.94810833,5.27930744 L7.78479315,5.57657877 L7.76042664,4.68902894 C7.75524878,4.50963058 7.81250998,4.33419176 7.92155012,4.19225684 L8.46309561,3.48836947 L7.61148641,3.23739448 C7.43939793,3.18683403 7.29015313,3.07840309 7.18872751,2.93037655 L6.68677755,2.19785857 L6.18482758,2.93037655 C6.08340203,3.07840309 5.93415724,3.18652947 5.76206884,3.23739448 L4.91045948,3.48836947 L5.45200505,4.19225684 C5.56134975,4.33419176 5.61830647,4.50963058 5.61343317,4.68902894 L5.58906666,5.57657877 L6.4257514,5.27930744 C6.51012048,5.24915387 6.59844901,5.23422941 6.68677755,5.23422941 Z" id="Shape" fill="#88816C"></path>
                    <path d="M19.9610393,32.2810477 C19.9104787,32.2810477 19.8590045,32.2755653 19.8090532,32.2655141 C19.7591018,32.2560721 19.7100643,32.2405384 19.6631588,32.2210452 C19.615644,32.201552 19.5702614,32.1771855 19.5282293,32.1491641 C19.4852833,32.1211426 19.4456877,32.0885524 19.4097472,32.0526118 C19.3738065,32.0166712 19.3412163,31.9770756 19.3131948,31.9341297 C19.2848688,31.8920974 19.2608069,31.8467149 19.2413137,31.7992002 C19.2218205,31.7522946 19.2062868,31.703257 19.1968448,31.6533057 C19.1867936,31.6033544 19.1813112,31.5518802 19.1813112,31.5013196 C19.1813112,31.4507592 19.1867936,31.3992849 19.1968448,31.3493336 C19.2062868,31.2993822 19.2218205,31.2503447 19.2413137,31.20283 C19.2608069,31.1559245 19.2848688,31.1105419 19.3131948,31.0685096 C19.3412163,31.0255637 19.3738065,30.9859681 19.4097472,30.9500275 C19.4456877,30.9140869 19.4852833,30.8814968 19.5282293,30.8534752 C19.5702614,30.8251492 19.615644,30.8010873 19.6631588,30.7815941 C19.7100643,30.7621009 19.7591018,30.7471764 19.8090532,30.7371252 C19.909565,30.7170228 20.0125135,30.7170228 20.1130253,30.7371252 C20.1629767,30.7471764 20.2120142,30.7621009 20.2589197,30.7815941 C20.3064345,30.8010873 20.3515124,30.8251492 20.3935447,30.8534752 C20.4364906,30.8814968 20.4763908,30.9140869 20.5123313,30.9500275 C20.548272,30.9859681 20.5808622,31.0255637 20.6088837,31.0685096 C20.6369052,31.1105419 20.6612717,31.1559245 20.6807649,31.20283 C20.7002581,31.2503447 20.7157917,31.2993822 20.7249291,31.3493336 C20.7352849,31.3992849 20.7407674,31.4507592 20.7407674,31.5013196 C20.7407674,31.5518802 20.7352849,31.6036589 20.7249291,31.6533057 C20.714878,31.703257 20.7002581,31.7522946 20.6807649,31.7992002 C20.6612717,31.8467149 20.6369052,31.8920974 20.6088837,31.9341297 C20.5808622,31.9770756 20.548272,32.0166712 20.5123313,32.0526118 C20.4763908,32.0885524 20.4364906,32.1211426 20.3935447,32.1491641 C20.3515124,32.1771855 20.3064345,32.201552 20.2589197,32.2210452 C20.2120142,32.2405384 20.1629767,32.2560721 20.1130253,32.2655141 C20.063074,32.2755653 20.0115998,32.2810477 19.9610393,32.2810477 Z" id="Path" fill="#88816C"></path>
                    <path d="M19.9610393,29.707945 C19.5303613,29.707945 19.1813112,29.3588949 19.1813112,28.9282169 L19.1813112,16.0623988 C19.1813112,15.6320254 19.5303613,15.2826707 19.9610393,15.2826707 C20.3917172,15.2826707 20.7407674,15.6320254 20.7407674,16.0623988 L20.7407674,28.9282169 C20.7407674,29.3585903 20.3917172,29.707945 19.9610393,29.707945 Z" id="Path" fill="#000000"></path>
                    <path d="M33.1966191,24.7393105 C33.1558052,24.7393105 33.1152959,24.7362647 33.074482,24.7295639 C32.8204612,24.6893592 32.6026856,24.5267128 32.4921226,24.2943173 L31.0907441,21.3462749 L28.1430064,19.9448965 C27.9106109,19.834638 27.7476598,19.6168624 27.7074551,19.3628416 C27.6672504,19.1088208 27.7549698,18.851145 27.9416781,18.6744879 L30.3122343,16.4309421 L30.7340794,13.1941568 C30.7672788,12.9392222 30.9241381,12.7168779 31.1531832,12.6002233 C31.382533,12.483264 31.6542195,12.4872237 31.8802188,12.6102744 L34.7466333,14.1712536 L37.9550926,13.5724467 C38.207895,13.524932 38.4677028,13.6056461 38.6495379,13.7874812 C38.8313729,13.9693162 38.9117824,14.229124 38.8648768,14.4819265 L38.2657654,17.6903857 L39.8270491,20.5568003 C39.9497954,20.7827995 39.953755,21.0547907 39.8367957,21.2838358 C39.7201411,21.5128809 39.4977968,21.6697402 39.2428622,21.7029397 L36.0063815,22.1247847 L33.7625311,24.4953409 C33.6142,24.6525048 33.4089123,24.7393105 33.1966191,24.7393105 L33.1966191,24.7393105 Z M29.8398287,19.025061 L32.0108841,20.0569824 C32.1726168,20.1340414 32.3032821,20.2644022 32.3803413,20.4264395 L33.4122627,22.5971903 L35.0643116,20.8516349 C35.187667,20.7212741 35.3521409,20.6375143 35.5300163,20.6143661 L37.9133649,20.3036932 L36.7635706,18.1929449 C36.6779832,18.0354764 36.649048,17.8533367 36.6819427,17.6769842 L37.1229764,15.3140426 L34.7603394,15.7553808 C34.5839868,15.7879711 34.4018473,15.7593404 34.2443787,15.6734485 L32.1333258,14.5239587 L31.8229575,16.9073073 C31.7998093,17.0851828 31.7160494,17.2496566 31.5856887,17.3727075 L29.8398287,19.025061 Z" id="Shape" fill="#88816C"></path>
                    <path d="M21.3371376,37.7284841 C21.3100298,37.7284841 21.2832266,37.7272657 21.2558143,37.7245245 C20.827573,37.6800557 20.516291,37.2968924 20.5604552,36.8686511 C21.0715427,31.9246877 23.4518454,28.1688958 25.3588288,25.8888003 C27.4181029,23.425956 29.3655956,22.1171702 29.4472234,22.0626501 C29.8057156,21.824163 30.2896953,21.9210199 30.528487,22.2798166 C30.7669742,22.6380042 30.6698128,23.1222885 30.3113206,23.3607755 C30.2373073,23.4101178 28.471345,24.5973757 26.5549195,26.8890452 C24.7877389,29.0025348 22.5819612,32.4771981 22.1116877,37.0291655 C22.0702647,37.4299944 21.7315703,37.7284841 21.3371376,37.7284841 L21.3371376,37.7284841 Z" id="Path" fill="#000000"></path>
                    <path d="M6.72545939,24.7393105 C6.51316625,24.7393105 6.3078785,24.6525048 6.15924283,24.4956455 L3.91569703,22.1250893 L0.67891167,21.7032442 C0.423977152,21.6700449 0.201632851,21.5131855 0.0849781987,21.2838358 C-0.0316764539,21.0547907 -0.0280214784,20.7827995 0.0950293617,20.5571048 L1.65600844,17.6906903 L1.05720167,14.4819265 C1.00968699,14.229124 1.09040101,13.9693162 1.27223602,13.7874812 C1.45407111,13.6056461 1.71387892,13.524932 1.96668135,13.5724467 L5.17514067,14.1715581 L8.04155511,12.6102744 C8.26755447,12.4872237 8.53954554,12.4835686 8.76859066,12.6002233 C8.99763579,12.7168779 9.15449518,12.9392222 9.18769452,13.1941568 L9.60953966,16.4309421 L11.9804004,18.6744879 C12.1671087,18.8514496 12.2545235,19.1088208 12.2143188,19.3628416 C12.174114,19.6168624 12.0111631,19.834638 11.7790721,19.945201 L8.83102981,21.3465795 L7.42995589,24.2943173 C7.31939294,24.5264082 7.1016173,24.6893592 6.84759647,24.7295639 C6.80678261,24.7362647 6.76596876,24.7393105 6.72545939,24.7393105 L6.72545939,24.7393105 Z M2.00871361,20.3036932 L4.39206217,20.6143661 C4.56993764,20.6375143 4.73441153,20.7212741 4.85746237,20.8516349 L6.50981584,22.5971903 L7.54173724,20.4264395 C7.61879636,20.2644022 7.74915708,20.1340414 7.9111944,20.0569824 L10.0819452,19.025061 L8.3363898,17.3727075 C8.20602909,17.2496566 8.12226921,17.0851828 8.09912103,16.9073073 L7.78844812,14.5239587 L5.67769976,15.6737531 C5.52023125,15.7593404 5.33778704,15.7882756 5.1617391,15.7553808 L2.79879743,15.3143471 L3.23983114,17.6769842 C3.27303048,17.8533367 3.24409531,18.035781 3.15820335,18.1929449 L2.00871361,20.3036932 Z" id="Shape" fill="#88816C"></path>
                    <path d="M18.584941,37.7284841 C18.1902036,37.7284841 17.8518139,37.4299944 17.8103908,37.0288608 C17.3398127,32.4768935 15.1343396,29.0025348 13.367159,26.8890452 C11.4516473,24.5985939 9.68477118,23.4101178 9.61045334,23.3607755 C9.25196119,23.1219838 9.15479974,22.6376996 9.39359147,22.279512 C9.6323832,21.9210199 10.1163629,21.8238584 10.4748551,22.0626501 C10.5567874,22.1171702 12.5051939,23.4274789 14.5632497,25.8888003 C16.4702331,28.1688958 18.8505358,31.9246877 19.3616233,36.8686511 C19.4057875,37.2968924 19.0945055,37.6800557 18.6659596,37.7242199 C18.6388519,37.7272657 18.6117441,37.7284841 18.584941,37.7284841 Z" id="Path" fill="#000000"></path>
                    <path d="M26.0864735,37.5831988 C25.977738,37.5831988 25.867175,37.5603552 25.7617899,37.5122314 C25.3704029,37.3325284 25.1986191,36.8698694 25.378322,36.4781779 C26.5686257,33.8828407 28.5526682,32.2813523 30.0073484,31.3947162 C31.5488343,30.455083 32.8012726,30.1063373 32.9389433,30.069483 C33.355306,29.9586154 33.7823289,30.2059354 33.8931965,30.6219934 C34.0040641,31.0380515 33.7567441,31.4653791 33.340686,31.5762467 C33.3294166,31.5792924 32.1960695,31.8869196 30.818753,32.7263456 C29.5498673,33.4996774 27.8216731,34.8913094 26.7955388,37.1284589 C26.6645688,37.4144608 26.3819174,37.5831988 26.0864735,37.5831988 L26.0864735,37.5831988 Z" id="Path" fill="#000000"></path>
                    <path d="M14.5748238,37.5831988 C14.2793799,37.5831988 13.9967284,37.4144608 13.865454,37.1284589 C12.8396242,34.8913094 11.1114299,33.4996774 9.84223968,32.7263456 C8.4652277,31.8869196 7.33157619,31.5792924 7.32030662,31.5762467 C6.90424862,31.4650744 6.65692862,31.0380515 6.76810077,30.6219934 C6.87896836,30.2059354 7.30629592,29.9586154 7.72235392,30.069483 C7.8603293,30.1063373 9.11307212,30.4556921 10.6539489,31.3947162 C12.1086291,32.2813523 14.0926716,33.8828407 15.2829752,36.4781779 C15.4626782,36.8698694 15.2908944,37.3325284 14.8992028,37.5122314 C14.7938177,37.5603552 14.6835593,37.5831988 14.5748238,37.5831988 Z" id="Path" fill="#000000"></path>
                    <path d="M36.323146,27.6794336 C35.8927727,27.6794336 35.5434179,27.3303835 35.5434179,26.8997055 L35.5434179,26.2506428 C35.5434179,25.8199649 35.8927727,25.4709147 36.323146,25.4709147 C36.753824,25.4709147 37.1028741,25.8199649 37.1028741,26.2506428 L37.1028741,26.8997055 C37.1028741,27.3303835 36.753824,27.6794336 36.323146,27.6794336 L36.323146,27.6794336 Z" id="Path" fill="#88816C"></path>
                    <path d="M36.323146,31.2000888 C35.8927727,31.2000888 35.5434179,30.850734 35.5434179,30.4203607 L35.5434179,29.7709934 C35.5434179,29.34062 35.8927727,28.9912653 36.323146,28.9912653 C36.753824,28.9912653 37.1028741,29.34062 37.1028741,29.7709934 L37.1028741,30.4203607 C37.1028741,30.850734 36.753824,31.2000888 36.323146,31.2000888 Z" id="Path" fill="#88816C"></path>
                    <path d="M38.4080049,29.1152299 L37.7589422,29.1152299 C37.3285688,29.1152299 36.9792141,28.7658751 36.9792141,28.3355018 C36.9792141,27.9048238 37.3285688,27.5557737 37.7589422,27.5557737 L38.4080049,27.5557737 C38.8386829,27.5557737 39.187733,27.9048238 39.187733,28.3355018 C39.187733,28.7658751 38.8386829,29.1152299 38.4080049,29.1152299 L38.4080049,29.1152299 Z" id="Path" fill="#88816C"></path>
                    <path d="M34.8876544,29.1152299 L34.2385917,29.1152299 C33.8079138,29.1152299 33.4588636,28.7658751 33.4588636,28.3355018 C33.4588636,27.9048238 33.8079138,27.5557737 34.2385917,27.5557737 L34.8876544,27.5557737 C35.3183323,27.5557737 35.6673825,27.9048238 35.6673825,28.3355018 C35.6673825,28.7658751 35.3183323,29.1152299 34.8876544,29.1152299 L34.8876544,29.1152299 Z" id="Path" fill="#88816C"></path>
                    <path d="M3.59862793,27.6794336 C3.16794995,27.6794336 2.81889983,27.3303835 2.81889983,26.8997055 L2.81889983,26.2506428 C2.81889983,25.8199649 3.16794995,25.4709147 3.59862793,25.4709147 C4.02930583,25.4709147 4.37835603,25.8199649 4.37835603,26.2506428 L4.37835603,26.8997055 C4.37835603,27.3303835 4.02930583,27.6794336 3.59862793,27.6794336 L3.59862793,27.6794336 Z" id="Path" fill="#88816C"></path>
                    <path d="M3.59862793,31.2000888 C3.16794995,31.2000888 2.81889983,30.850734 2.81889983,30.4203607 L2.81889983,29.7709934 C2.81889983,29.34062 3.16794995,28.9912653 3.59862793,28.9912653 C4.02930583,28.9912653 4.37835603,29.34062 4.37835603,29.7709934 L4.37835603,30.4203607 C4.37835603,30.850734 4.02930583,31.2000888 3.59862793,31.2000888 Z" id="Path" fill="#88816C"></path>
                    <path d="M5.68348682,29.1152299 L5.03442408,29.1152299 C4.60374618,29.1152299 4.25469598,28.7658751 4.25469598,28.3355018 C4.25469598,27.9048238 4.60374618,27.5557737 5.03442408,27.5557737 L5.68348682,27.5557737 C6.11416473,27.5557737 6.46321492,27.9048238 6.46321492,28.3355018 C6.46321492,28.7658751 6.11416473,29.1152299 5.68348682,29.1152299 Z" id="Path" fill="#88816C"></path>
                    <path d="M2.16313634,29.1152299 L1.51376896,29.1152299 C1.08339562,29.1152299 0.734040864,28.7658751 0.734040864,28.3355018 C0.734040864,27.9048238 1.08339562,27.5557737 1.51376896,27.5557737 L2.16313634,27.5557737 C2.59381424,27.5557737 2.94286444,27.9048238 2.94286444,28.3355018 C2.94286444,28.7658751 2.59381424,29.1152299 2.16313634,29.1152299 Z" id="Path" fill="#88816C"></path>
                </g>
                <rect id="Rectangle" stroke="#979797" fill="#D8D8D8" opacity="0" x="0.5" y="0.5" width="39" height="39"></rect>
            </g>
        </g>
    </g>
</svg>