<svg xmlns="http://www.w3.org/2000/svg" width="42" height="48" viewBox="0 0 42 48">
    <g fill="#A3B3B8" fill-rule="evenodd">
        <path d="M32.8 14.4H13.6c-.442 0-.8.358-.8.8 0 .442.358.8.8.8h19.2c.442 0 .8-.358.8-.8 0-.442-.358-.8-.8-.8zM5.6 20.8h16c.442 0 .8-.358.8-.8 0-.442-.358-.8-.8-.8h-16c-.442 0-.8.358-.8.8 0 .442.358.8.8.8zM28 24h-9.6c-.442 0-.8.358-.8.8 0 .442.358.8.8.8H28c.442 0 .8-.358.8-.8 0-.442-.358-.8-.8-.8zM26.4 28.8H5.6c-.442 0-.8.358-.8.8 0 .442.358.8.8.8h20.8c.442 0 .8-.358.8-.8 0-.442-.358-.8-.8-.8zM5.6 16h4.8c.442 0 .8-.358.8-.8 0-.442-.358-.8-.8-.8H5.6c-.442 0-.8.358-.8.8 0 .442.358.8.8.8zM32.8 19.2h-8c-.442 0-.8.358-.8.8 0 .442.358.8.8.8h8c.442 0 .8-.358.8-.8 0-.442-.358-.8-.8-.8zM5.6 25.6h9.6c.442 0 .8-.358.8-.8 0-.442-.358-.8-.8-.8H5.6c-.442 0-.8.358-.8.8 0 .442.358.8.8.8zM26.4 38.4h-8c-.442 0-.8.358-.8.8 0 .442.358.8.8.8h8c.442 0 .8-.358.8-.8 0-.442-.358-.8-.8-.8zM15.2 38.4H5.6c-.442 0-.8.358-.8.8 0 .442.358.8.8.8h9.6c.442 0 .8-.358.8-.8 0-.442-.358-.8-.8-.8zM5.6 35.2H12c.442 0 .8-.358.8-.8 0-.442-.358-.8-.8-.8H5.6c-.442 0-.8.358-.8.8 0 .442.358.8.8.8zM5.6 11.2h9.6c.442 0 .8-.358.8-.8 0-.442-.358-.8-.8-.8H5.6c-.442 0-.8.358-.8.8 0 .442.358.8.8.8zM26.4 33.6H15.2c-.442 0-.8.358-.8.8 0 .442.358.8.8.8h11.2c.442 0 .8-.358.8-.8 0-.442-.358-.8-.8-.8z"/>
        <path d="M34.4 30.4c-.442 0-.8.358-.8.8v9.6c0 1.325 1.075 2.4 2.4 2.4s2.4-1.075 2.4-2.4V10.4c0-.212-.084-.416-.234-.566l-9.6-9.6C28.416.084 28.212 0 28 0H4C1.792.002.002 1.792 0 4v40c.002 2.208 1.792 3.998 4 4h32c3.091-.004 5.596-2.509 5.6-5.6V31.2c0-.442-.358-.8-.8-.8-.442 0-.8.358-.8.8v11.2c0 2.21-1.79 4-4 4s-4-1.79-4-4V28c0-1.325 1.075-2.4 2.4-2.4s2.4 1.075 2.4 2.4v12.8c0 .442-.358.8-.8.8-.442 0-.8-.358-.8-.8v-9.6c0-.442-.358-.8-.8-.8zM28.8 2.731L35.669 9.6H31.2c-1.325-.001-2.399-1.075-2.4-2.4V2.731zM34.4 24c-2.208.002-3.998 1.792-4 4v14.4c0 1.506.607 2.949 1.686 4H4c-1.325-.002-2.398-1.075-2.4-2.4V4C1.602 2.675 2.675 1.602 4 1.6h23.2v5.6c.002 2.208 1.792 3.998 4 4h5.6v13.602c-.691-.521-1.534-.803-2.4-.802z"/>
    </g>
</svg>
