<?xml version="1.0" encoding="UTF-8"?>
<svg width="17px" height="20px" viewBox="0 0 17 20" version="1.1" xmlns="http://www.w3.org/2000/svg" xmlns:xlink="http://www.w3.org/1999/xlink">
    <!-- Generator: Sketch 63.1 (92452) - https://sketch.com -->
    <title>Group 422</title>
    <desc>Created with Sketch.</desc>
    <g id="Page-1" stroke="none" stroke-width="1" fill="none" fill-rule="evenodd">
        <g id="profile-page-groups-modal" transform="translate(-816.000000, -510.000000)">
            <g id="Group-424" transform="translate(508.000000, 436.000000)">
                <g id="Group-423" transform="translate(307.000000, 74.000000)">
                    <g id="Group-422">
                        <g id="Group-405" transform="translate(0.625000, 0.625000)">
                            <g id="avatar" opacity="0.499930246" transform="translate(1.171875, 0.000000)" fill="#678189" fill-rule="nonzero">
                                <path d="M7.9076087,10.1009317 C7.92701863,10.1009317 7.94642857,10.1009317 7.9697205,10.1009317 C7.97748447,10.1009317 7.98524845,10.1009317 7.99301242,10.1009317 C8.00465839,10.1009317 8.02018634,10.1009317 8.0318323,10.1009317 C9.16925466,10.0815217 10.0892857,9.68167702 10.7686335,8.91692547 C12.2631988,7.23214286 12.0147516,4.3439441 11.9875776,4.06832298 C11.890528,1.9992236 10.9122671,1.00931677 10.1048137,0.547360248 C9.50310559,0.201863354 8.80046584,0.0155279503 8.01630435,0 L7.98913043,0 C7.98524845,0 7.97748447,0 7.97360248,0 L7.95031056,0 C7.51940994,0 6.67313665,0.0698757764 5.86180124,0.531832298 C5.04658385,0.99378882 4.05279503,1.98369565 3.95574534,4.06832298 C3.92857143,4.3439441 3.68012422,7.23214286 5.17468944,8.91692547 C5.85015528,9.68167702 6.77018634,10.0815217 7.9076087,10.1009317 Z M4.99223602,4.16537267 C4.99223602,4.15372671 4.99611801,4.14208075 4.99611801,4.13431677 C5.1242236,1.35093168 7.10015528,1.05201863 7.94642857,1.05201863 L7.96195652,1.05201863 C7.9697205,1.05201863 7.98136646,1.05201863 7.99301242,1.05201863 C9.04114907,1.07531056 10.8229814,1.50232919 10.943323,4.13431677 C10.943323,4.14596273 10.943323,4.1576087 10.947205,4.16537267 C10.951087,4.19254658 11.2228261,6.83229814 9.98835404,8.22204969 C9.4992236,8.77329193 8.84704969,9.04503106 7.98913043,9.05279503 C7.98136646,9.05279503 7.97748447,9.05279503 7.9697205,9.05279503 L7.9697205,9.05279503 C7.96195652,9.05279503 7.95807453,9.05279503 7.95031056,9.05279503 C7.09627329,9.04503106 6.44021739,8.77329193 5.95496894,8.22204969 C4.72437888,6.84006211 4.98835404,4.1886646 4.99223602,4.16537267 Z" id="Shape"></path>
                                <path d="M15.947205,14.8913043 C15.947205,14.8874224 15.947205,14.8835404 15.947205,14.8796584 C15.947205,14.8486025 15.943323,14.8175466 15.943323,14.7826087 C15.9200311,14.0139752 15.8695652,12.2166149 14.1847826,11.6420807 C14.1731366,11.6381988 14.1576087,11.6343168 14.1459627,11.6304348 C12.3951863,11.1840062 10.939441,10.1746894 10.923913,10.1630435 C10.6871118,9.99611801 10.3610248,10.0543478 10.1940994,10.2911491 C10.0271739,10.5279503 10.0854037,10.8540373 10.322205,11.0209627 C10.3881988,11.0675466 11.9332298,12.1428571 13.8664596,12.6397516 C14.7709627,12.9619565 14.8718944,13.9285714 14.8990683,14.8136646 C14.8990683,14.8486025 14.8990683,14.8796584 14.9029503,14.9107143 C14.9068323,15.2600932 14.8835404,15.7996894 14.8214286,16.1102484 C14.1925466,16.4673913 11.7274845,17.7018634 7.97748447,17.7018634 C4.24301242,17.7018634 1.76242236,16.4635093 1.12965839,16.1063665 C1.06754658,15.7958075 1.04037267,15.2562112 1.04813665,14.9068323 C1.04813665,14.8757764 1.05201863,14.8447205 1.05201863,14.8097826 C1.07919255,13.9246894 1.18012422,12.9580745 2.08462733,12.6358696 C4.01785714,12.1389752 5.5628882,11.0597826 5.62888199,11.0170807 C5.86568323,10.8501553 5.92391304,10.5240683 5.75698758,10.2872671 C5.59006211,10.0504658 5.26397516,9.99223602 5.02717391,10.1591615 C5.01164596,10.1708075 3.5636646,11.1801242 1.80512422,11.6265528 C1.78959627,11.6304348 1.77795031,11.6343168 1.76630435,11.6381988 C0.0815217391,12.2166149 0.0310559006,14.0139752 0.00776397516,14.7787267 C0.00776397516,14.8136646 0.00776397516,14.8447205 0.00388198758,14.8757764 C0.00388198758,14.8796584 0.00388198758,14.8835404 0.00388198758,14.8874224 C4.33680869e-19,15.0892857 -0.00388198758,16.1257764 0.201863354,16.6459627 C0.24068323,16.7468944 0.310559006,16.8322981 0.403726708,16.890528 C0.520186335,16.9681677 3.3113354,18.746118 7.98136646,18.746118 C12.6513975,18.746118 15.4425466,16.9642857 15.5590062,16.890528 C15.6482919,16.8322981 15.7220497,16.7468944 15.7608696,16.6459627 C15.9549689,16.1296584 15.951087,15.0931677 15.947205,14.8913043 Z" id="Path"></path>
                            </g>
                            <rect id="Rectangle" stroke="#979797" stroke-width="0.625" fill="#D8D8D8" opacity="0" x="0.3125" y="0.3125" width="18.125" height="18.125"></rect>
                        </g>
                    </g>
                </g>
            </g>
        </g>
    </g>
</svg>