<?xml version="1.0" encoding="UTF-8"?>
<svg width="40px" height="40px" viewBox="0 0 40 40" version="1.1" xmlns="http://www.w3.org/2000/svg" xmlns:xlink="http://www.w3.org/1999/xlink">
    <!-- Generator: Sketch 58 (84663) - https://sketch.com -->
    <title>birthday</title>
    <desc>Created with Sketch.</desc>
    <g id="Page-1" stroke="none" stroke-width="1" fill="none" fill-rule="evenodd">
        <g id="Create-personal-gift-page/-first-step" transform="translate(-605.000000, -512.000000)" fill-rule="nonzero">
            <g id="birthday" transform="translate(605.000000, 512.000000)">
                <path d="M27.2280249,25.0424948 C27.1034511,24.6967983 26.7222453,24.5175884 26.376632,24.6421622 C26.0309356,24.766736 25.8517256,25.1479418 25.9762994,25.4935551 C25.9793763,25.5020374 25.9826195,25.5104366 25.9860291,25.5188358 C26.5927651,27.1022037 26.6366736,28.3130146 26.1057796,28.8452391 C25.4617879,29.4879002 23.8577963,29.2869854 21.8140541,28.3090229 C19.077921,26.888316 16.5908524,25.0323493 14.4500624,22.8138046 C9.23891892,17.6019958 7.08873181,12.4879834 8.41862786,11.1580873 C8.84299376,10.8229522 9.39459459,10.6942204 9.92349272,10.8068191 C10.289896,10.833763 10.608815,10.5585031 10.6357588,10.1920998 C10.6617879,9.837921 10.4050728,9.52573805 10.0525572,9.4829106 C9.12756757,9.31925156 8.1785447,9.58893971 7.477921,10.2147193 C5.04033264,12.6516424 8.76656965,19.0083992 13.5093555,23.7518503 C15.7564241,26.0771726 18.3674844,28.0207069 21.2399168,29.5058628 C21.7600832,29.7549272 22.2961331,29.9693971 22.8445738,30.1478586 L18.1177547,31.9401247 C11.8059044,29.5404574 7.26212058,23.9447817 6.20923077,17.2746778 C6.15226611,16.911684 5.81180873,16.6635343 5.44881497,16.720499 C5.08582121,16.7774636 4.83767152,17.117921 4.89463617,17.4809148 C4.99908524,18.1461954 5.13879418,18.8114761 5.30977131,19.4621206 C6.84174636,25.2666112 10.8767568,30.0886486 16.3201663,32.6200416 L8.54037422,35.5639085 C8.50469854,35.5043659 8.4597921,35.4509771 8.40731809,35.4055717 C6.43010395,33.8181289 5.18952183,31.4900624 4.97446985,28.963659 L4.66577963,25.225447 C4.64149688,24.8632848 4.32814969,24.5893555 3.96590437,24.6136383 C3.95900208,24.6141372 3.95209979,24.6146362 3.94528067,24.6153846 C3.57904366,24.6444906 3.30569647,24.9650728 3.33480249,25.3313098 C3.33488565,25.3328067 3.33505198,25.3343867 3.3352183,25.3358836 L3.64923077,29.0727651 C3.88307692,31.7732225 5.14278586,34.2813306 7.16923077,36.0814969 L1.61945946,38.1824532 L2.61738046,34.0869854 C2.70444906,33.7298129 2.48557173,33.3697297 2.12839917,33.2826611 C1.77122661,33.1955925 1.41114345,33.4144699 1.32407484,33.7716424 L0.0261122661,39.0938877 C-0.0613721414,39.4507277 0.157006237,39.8109771 0.513929314,39.8983784 C0.644823285,39.9304782 0.782286902,39.9219958 0.908274428,39.874262 L25.523659,30.5603326 C25.5628274,30.5412058 25.5998337,30.5180042 25.6340956,30.4911435 C26.1668191,30.4093139 26.6607069,30.1629938 27.0464865,29.7866112 C27.7056965,29.1273181 28.2731809,27.7681497 27.2280249,25.0424948 Z" id="Path" fill="#2E3537"></path>
                <path d="M33.5062786,23.326736 C29.9098545,21.9803742 26.0227027,21.6029106 22.2344283,22.2323493 L19.8573805,22.6315177 C19.4965489,22.7008732 19.2602911,23.0495634 19.3296466,23.410395 C19.3966736,23.7590021 19.7255717,23.9935967 20.0769231,23.9434511 L22.4533056,23.5476091 C26.0110603,22.9560915 29.6618711,23.3108524 33.0392516,24.5761331 C33.1141788,24.6026611 33.193264,24.6159667 33.2727651,24.6154029 C33.6401663,24.6159667 33.9385447,24.3186694 33.9391279,23.951185 C33.9396258,23.6730146 33.7669854,23.4239501 33.5062786,23.326736 Z" id="Path" fill="#2E3537"></path>
                <path d="M35.8713514,13.0195426 C35.7133472,12.6877339 35.316341,12.5468607 34.9845322,12.7048649 L21.0136383,19.3576715 C20.6819127,19.5155925 20.5409563,19.9125156 20.6988773,20.2443243 C20.6988773,20.2444075 20.6989605,20.2444906 20.6989605,20.2444906 C20.8568815,20.5762162 21.2538046,20.7171726 21.5856133,20.5592516 C21.5856965,20.5592516 21.5856965,20.5591684 21.5857796,20.5591684 L35.5566736,13.9063617 C35.8884823,13.7483576 36.0293555,13.3513514 35.8713514,13.0195426 Z" id="Path" fill="#2E3537"></path>
                <path d="M16.1644075,4.51525988 C16.0912266,4.15517672 15.7400416,3.92257796 15.3799584,3.99575884 C15.0198753,4.06893971 14.7872765,4.42012474 14.8604574,4.7802079 C14.8620374,4.78819127 14.8638669,4.79609148 14.8657796,4.80399168 C15.7078586,8.56607069 15.3608316,12.4968815 13.8725156,16.0532225 L12.9051975,18.3743867 C12.7654054,18.7125988 12.9249896,19.1002079 13.2624532,19.2419127 C13.3432848,19.2759252 13.4301871,19.2933056 13.517921,19.2931405 C13.7864449,19.2931405 14.0286071,19.1318087 14.1319751,18.8839917 L15.0999584,16.5654886 C16.694553,12.7560083 17.0665281,8.54528067 16.1644075,4.51525988 Z" id="Path" fill="#2E3537"></path>
                <path d="M36.5991684,23.950104 C35.4968815,23.950104 34.6033264,24.843659 34.6033264,25.9459459 C34.6033264,27.0482328 35.4968815,27.9417879 36.5991684,27.9417879 C37.7014553,27.9417879 38.5950104,27.0482328 38.5950104,25.9459459 C38.5950104,24.843659 37.7014553,23.950104 36.5991684,23.950104 Z M36.5991684,26.6112266 C36.2317672,26.6112266 35.9338877,26.3133472 35.9338877,25.9459459 C35.9338877,25.5785447 36.2317672,25.2806653 36.5991684,25.2806653 C36.9665696,25.2806653 37.2644491,25.5785447 37.2644491,25.9459459 C37.2644491,26.3133472 36.9665696,26.6112266 36.5991684,26.6112266 Z" id="Shape" fill="#88816C"></path>
                <path d="M20.6324324,5.32224532 C19.5301455,5.32224532 18.6365904,6.21580042 18.6365904,7.31808732 C18.6365904,8.42037422 19.5301455,9.31392931 20.6324324,9.31392931 C21.7347193,9.31392931 22.6282744,8.42037422 22.6282744,7.31808732 C22.6282744,6.21580042 21.7347193,5.32224532 20.6324324,5.32224532 Z M20.6324324,7.98336798 C20.2650312,7.98336798 19.9671518,7.68548857 19.9671518,7.31808732 C19.9671518,6.95068607 20.2650312,6.65280665 20.6324324,6.65280665 C20.9998337,6.65280665 21.2977131,6.95068607 21.2977131,7.31808732 C21.2977131,7.68548857 20.9998337,7.98336798 20.6324324,7.98336798 Z" id="Shape" fill="#88816C"></path>
                <circle id="Oval" fill="#88816C" cx="14.6449064" cy="1.33056133" r="1.33056133"></circle>
                <path d="M33.2727651,3.32640333 C32.9053638,3.32640333 32.6074844,3.62428274 32.6074844,3.99168399 L32.6074844,4.65696466 C32.6074844,5.0243659 32.9053638,5.32224532 33.2727651,5.32224532 C33.6401663,5.32224532 33.9380457,5.0243659 33.9380457,4.65696466 L33.9380457,3.99168399 C33.9380457,3.62428274 33.6401663,3.32640333 33.2727651,3.32640333 Z" id="Path" fill="#88816C"></path>
                <path d="M33.2727651,0 C32.9053638,0 32.6074844,0.297879418 32.6074844,0.665280665 L32.6074844,1.33056133 C32.6074844,1.69796258 32.9053638,1.995842 33.2727651,1.995842 C33.6401663,1.995842 33.9380457,1.69796258 33.9380457,1.33056133 L33.9380457,0.665280665 C33.9380457,0.297879418 33.6401663,0 33.2727651,0 Z" id="Path" fill="#88816C"></path>
                <path d="M35.2686071,1.995842 L34.6033264,1.995842 C34.2359252,1.995842 33.9380457,2.29372141 33.9380457,2.66112266 C33.9380457,3.02852391 34.2359252,3.32640333 34.6033264,3.32640333 L35.2686071,3.32640333 C35.6360083,3.32640333 35.9338877,3.02852391 35.9338877,2.66112266 C35.9338877,2.29372141 35.6360083,1.995842 35.2686071,1.995842 Z" id="Path" fill="#88816C"></path>
                <path d="M31.9422037,1.995842 L31.2769231,1.995842 C30.9095218,1.995842 30.6116424,2.29372141 30.6116424,2.66112266 C30.6116424,3.02852391 30.9095218,3.32640333 31.2769231,3.32640333 L31.9422037,3.32640333 C32.309605,3.32640333 32.6074844,3.02852391 32.6074844,2.66112266 C32.6074844,2.29372141 32.309605,1.995842 31.9422037,1.995842 Z" id="Path" fill="#88816C"></path>
                <path d="M28.6158004,7.30411642 L25.2754262,7.30411642 C24.9080249,7.30411642 24.6101455,7.60199584 24.6101455,7.96939709 L24.6101455,11.3097713 C24.6101455,11.6771726 24.9080249,11.975052 25.2754262,11.975052 L28.6158004,11.975052 C28.9832017,11.975052 29.2810811,11.6771726 29.2810811,11.3097713 L29.2810811,7.96939709 C29.2810811,7.60199584 28.9832017,7.30411642 28.6158004,7.30411642 Z M27.9505198,10.6444906 L25.9407069,10.6444906 L25.9407069,8.63467775 L27.9505198,8.63467775 L27.9505198,10.6444906 Z" id="Shape" fill="#88816C"></path>
                <path d="M23.7693139,12.8595426 C23.5250728,12.5988358 23.1185863,12.5775468 22.8484823,12.8113098 L16.1956757,18.7988358 C15.9227443,19.044657 15.9007069,19.4651975 16.1464449,19.7382121 C16.3922661,20.0111435 16.8128067,20.0331809 17.0858212,19.7874428 L23.7386279,13.7999168 C24.0068191,13.5486902 24.0205405,13.1277339 23.7693139,12.8595426 Z" id="Path" fill="#2E3537"></path>
                <path d="M35.9338877,15.3014553 C35.5664865,15.3014553 35.2686071,15.5993347 35.2686071,15.966736 L35.2686071,16.6320166 C35.2686071,16.9994179 35.5664865,17.2972973 35.9338877,17.2972973 C36.301289,17.2972973 36.5991684,16.9994179 36.5991684,16.6320166 L36.5991684,15.966736 C36.5991684,15.5993347 36.301289,15.3014553 35.9338877,15.3014553 Z" id="Path" fill="#88816C"></path>
                <path d="M38.7566736,15.187027 L38.2863202,14.7166736 C38.0220374,14.4613721 37.6009148,14.4686902 37.3456133,14.732973 C37.096632,14.9907692 37.096632,15.399501 37.3456133,15.6573805 L37.8159667,16.1277339 C38.0802495,16.3830353 38.5013721,16.3757173 38.7566736,16.1114345 C39.005738,15.8535551 39.005738,15.4448233 38.7566736,15.187027 Z" id="Path" fill="#88816C"></path>
                <path d="M39.2602911,12.6403326 L38.5950104,12.6403326 C38.2276091,12.6403326 37.9297297,12.9382121 37.9297297,13.3056133 C37.9297297,13.6730146 38.2276091,13.970894 38.5950104,13.970894 L39.2602911,13.970894 C39.6276923,13.970894 39.9255717,13.6730146 39.9255717,13.3056133 C39.9255717,12.9382121 39.6276923,12.6403326 39.2602911,12.6403326 Z" id="Path" fill="#88816C"></path>
                <path d="M38.7403742,10.4834927 C38.482578,10.2345114 38.0738462,10.2345114 37.8159667,10.4834927 L37.3456133,10.9538462 C37.0858212,11.2137214 37.0859044,11.6349272 37.3457796,11.8947193 C37.4705198,12.0193763 37.6396674,12.0894802 37.8159667,12.0894802 L37.8159667,12.0894802 C37.9924324,12.0894802 38.16158,12.0192931 38.2863202,11.894553 L38.7566736,11.4241996 C39.0119751,11.1599168 39.004657,10.738711 38.7403742,10.4834927 Z" id="Path" fill="#88816C"></path>
                <path d="M35.9338877,9.31392931 C35.5664865,9.31392931 35.2686071,9.61180873 35.2686071,9.97920998 L35.2686071,10.6444906 C35.2686071,11.0118919 35.5664865,11.3097713 35.9338877,11.3097713 C36.301289,11.3097713 36.5991684,11.0118919 36.5991684,10.6444906 L36.5991684,9.97920998 C36.5991684,9.61180873 36.301289,9.31392931 35.9338877,9.31392931 Z" id="Path" fill="#88816C"></path>
                <path d="M34.5221622,10.9538462 L34.0518087,10.4834927 C33.787526,10.2282744 33.3664033,10.2355094 33.1111019,10.4997921 C32.8621206,10.7575884 32.8621206,11.1663202 33.1111019,11.4241996 L33.5814553,11.894553 C33.845738,12.1498545 34.2668607,12.1425364 34.5221622,11.8782536 C34.7712266,11.6203742 34.7712266,11.2116424 34.5221622,10.9538462 Z" id="Path" fill="#88816C"></path>
                <path d="M7.95950104,2.8766736 C7.88116424,2.63600832 7.67301455,2.46070686 7.42261954,2.42428274 L5.47002079,2.1402079 L4.5991684,0.371226611 C4.40507277,0.0416632017 3.98054054,-0.0681912682 3.65097713,0.125904366 C3.54968815,0.185530146 3.46528067,0.26993763 3.40565489,0.371226611 L2.53081081,2.1402079 L0.578212058,2.42428274 C0.214553015,2.47675676 -0.0376715177,2.81413721 0.0148024948,3.17779626 C0.0356756757,3.32257796 0.103700624,3.45638254 0.208316008,3.55858628 L1.62070686,4.93571726 L1.28806653,6.88033264 C1.22419958,7.24216216 1.46569647,7.58727651 1.82752599,7.65114345 C1.97322245,7.67683992 2.12324324,7.65330561 2.25405405,7.58419958 L4.0004158,6.66345114 L5.74677755,7.58153846 C6.07201663,7.75251559 6.47426195,7.62752599 6.64523909,7.3022869 C6.71334719,7.17280665 6.73679834,7.02453222 6.71209979,6.88033264 L6.37945946,4.93571726 L7.79251559,3.55858628 C7.97338877,3.38153846 8.03808732,3.11725572 7.95950104,2.8766736 Z M5.197921,4.22719335 C5.0412474,4.3797921 4.96964657,4.59966736 5.00632017,4.81530146 L5.17130977,5.77663202 L4.30977131,5.32224532 C4.11609148,5.22054054 3.88474012,5.22054054 3.69106029,5.32224532 L2.82619543,5.77596674 L2.99118503,4.81463617 C3.02852391,4.59983368 2.95817048,4.38029106 2.8029106,4.22719335 L2.10370062,3.54661123 L3.06902287,3.40623701 C3.28573805,3.37480249 3.47309771,3.23866944 3.56997921,3.04232848 L4.0004158,2.16881497 L4.43151767,3.04232848 C4.52831601,3.23850312 4.71534304,3.37455301 4.93180873,3.40623701 L5.8964657,3.54661123 L5.197921,4.22719335 Z" id="Shape" fill="#88816C"></path>
                <path d="M37.6782536,33.3471933 L37.6755925,33.3471933 L37.4014969,32.9360499 C35.8646154,30.6377547 33.4479002,29.0750104 30.7214137,28.6163825 C30.3576715,28.5644906 30.0207069,28.8172973 29.968815,29.1810395 C29.9186694,29.532474 30.153264,29.8613721 30.5018711,29.928316 C32.4684407,30.2621206 34.2606237,31.2612058 35.5786279,32.75842 C34.4705198,32.9577547 33.5013721,33.6232848 32.9175052,34.5859459 C32.2009979,35.8691892 32.6604574,37.4902287 33.9437006,38.206736 C35.2269439,38.9232432 36.8479834,38.4637838 37.5644906,37.1805405 C37.8381705,36.6522245 37.9859459,36.0676923 37.9962578,35.4727651 C38.7041164,36.5008732 38.7607484,37.8434927 38.1419543,38.9275676 C37.9545114,39.2435759 38.058711,39.6517256 38.3747193,39.8391684 C38.6907277,40.0266112 39.0988773,39.9224116 39.2863202,39.6064033 C39.2923077,39.5962578 39.2980457,39.5860291 39.3035343,39.5755509 C40.5216632,37.3997505 39.804158,34.650395 37.6782536,33.3471933 Z M36.4042412,36.5312266 C36.0491476,37.1746362 35.2397505,37.408316 34.5964241,37.0532225 C33.9530977,36.6981289 33.7193347,35.8887318 34.0744283,35.2454054 C34.0764241,35.2418295 34.07842,35.2381705 34.0804158,35.2345946 C34.4730146,34.5917672 35.1352183,34.1608316 35.8819958,34.0623701 C35.9976715,34.05921 36.112183,34.0858212 36.2146362,34.1395426 C36.7761331,34.4528898 36.8060707,35.8113929 36.4042412,36.5312266 Z" id="Shape" fill="#88816C"></path>
            </g>
        </g>
    </g>
</svg>