<svg xmlns="http://www.w3.org/2000/svg" width="40" height="40" viewBox="0 0 40 40">
    <g fill="#ECC434" fill-rule="evenodd">
        <path d="M8.723 11.915h-3.83a.638.638 0 0 0-.638.638v3.83c0 .353.286.638.639.638h3.83a.638.638 0 0 0 .638-.638v-3.83a.638.638 0 0 0-.639-.638zm-.638 3.83H5.532V13.19h2.553v2.554zM12.553 17.021h3.83a.638.638 0 0 0 .638-.638v-3.83a.638.638 0 0 0-.638-.638h-3.83a.638.638 0 0 0-.638.638v3.83c0 .353.286.638.638.638zm.638-3.83h2.554v2.554H13.19V13.19zM8.723 18.723h-3.83a.638.638 0 0 0-.638.639v3.83c0 .352.286.638.639.638h3.83a.638.638 0 0 0 .638-.639v-3.83a.638.638 0 0 0-.639-.638zm-.638 3.83H5.532V20h2.553v2.553zM8.723 25.532h-3.83a.638.638 0 0 0-.638.638V30c0 .353.286.638.639.638h3.83A.638.638 0 0 0 9.361 30v-3.83a.638.638 0 0 0-.639-.638zm-.638 3.83H5.532v-2.553h2.553v2.553z"/>
        <path d="M33.334 16.186V4.668a3.338 3.338 0 0 0-3.333-3.334h-1.334V0h-1.333v1.334h-4V0H22v1.334h-4V0h-1.333v1.334h-4V0h-1.333v1.334h-4V0H6v1.334H3.333A3.338 3.338 0 0 0 0 4.668V31.34a3.338 3.338 0 0 0 3.333 3.334h13.692a12.657 12.657 0 0 0 22.88-5.787 12.662 12.662 0 0 0-6.571-12.702zm-30-13.519H6v1.334h1.333V2.667h4v1.334h1.334V2.667h4v1.334H18V2.667h4v1.334h1.334V2.667h4v1.334h1.333V2.667h1.334a2 2 0 0 1 2 2v3.335H1.333V4.668a2 2 0 0 1 2-2zm0 30.674a2 2 0 0 1-2-2V9.336H32v6.236a12.593 12.593 0 0 0-14.667 4.02v-.254a.667.667 0 0 0-.667-.667h-4a.667.667 0 0 0-.667.667v4.001c0 .368.299.667.667.667h2.46c-.12.439-.215.884-.286 1.333h-2.174a.667.667 0 0 0-.667.667v4.001c0 .369.299.667.667.667h2.46c.249.927.603 1.821 1.055 2.667H3.333zM16 21.716a12.6 12.6 0 0 0-.431.956h-2.235v-2.667H16v1.71zm-1.159 7.624h-1.507v-2.667H14.7c-.012.222-.034.442-.034.667.005.67.063 1.34.174 2zm18.723 7.46l-.986-1.708-1.155.667.984 1.703A11.223 11.223 0 0 1 28 38.642v-1.966h-1.334v1.966a11.223 11.223 0 0 1-4.406-1.18l.983-1.703-1.154-.667-.986 1.708a11.43 11.43 0 0 1-3.228-3.229l1.708-.986-.666-1.155-1.704.984a11.232 11.232 0 0 1-1.18-4.407H18v-1.334h-1.966a11.232 11.232 0 0 1 1.18-4.407l1.704.984.666-1.155-1.708-.987a11.43 11.43 0 0 1 3.228-3.228l.986 1.708 1.154-.667-.983-1.703a11.223 11.223 0 0 1 4.406-1.18v1.966h1.334v-1.966c1.534.087 3.033.489 4.406 1.18l-.984 1.703 1.155.667.986-1.708a11.43 11.43 0 0 1 3.227 3.228l-1.708.987.667 1.155 1.704-.984a11.232 11.232 0 0 1 1.18 4.407h-1.967v1.334h1.966a11.232 11.232 0 0 1-1.179 4.407l-1.704-.984-.667 1.155 1.708.986a11.43 11.43 0 0 1-3.227 3.229z"/>
        <path d="M28.318 25.827v-6.253h-1.393v6.253a2.036 2.036 0 0 0-1.38 2.152c.11.944.871 1.688 1.837 1.795.965.107 1.878-.453 2.2-1.349h3.61v-1.362h-3.61a2.066 2.066 0 0 0-1.264-1.236zm-.697 2.598a.689.689 0 0 1-.696-.68c0-.377.312-.682.696-.682.385 0 .697.305.697.681 0 .376-.312.681-.697.681z"/>
    </g>
</svg>
