<?xml version="1.0" encoding="UTF-8"?>
<svg width="63px" height="54px" viewBox="0 0 63 54" version="1.1" xmlns="http://www.w3.org/2000/svg" xmlns:xlink="http://www.w3.org/1999/xlink">
    <!-- Generator: Sketch 58 (84663) - https://sketch.com -->
    <title>car copy</title>
    <desc>Created with Sketch.</desc>
    <g id="Page-1" stroke="none" stroke-width="1" fill="none" fill-rule="evenodd">
        <g id="car-copy" transform="translate(0.000000, 1.000000)" stroke="#FFFFFF" stroke-width="1.5">
            <circle id="Oval" cx="30.954" cy="26.544516" r="3.584"></circle>
            <circle id="Oval" cx="31.094" cy="25.886516" r="20.496"></circle>
            <path d="M30.814,1.91846539e-13 C32.6713404,-0.0110525807 34.5247847,0.171945718 36.344,0.54651596 C47.7223422,2.89485229 56.1399091,12.5400388 56.9271232,24.131486 C57.7143374,35.7229332 50.678121,46.4176381 39.7217583,50.2827994 C28.7653957,54.1479607 16.5761243,50.2355806 9.9158442,40.7160206 C3.25556414,31.1964605 3.75782434,18.4045572 11.144,9.43651596" id="Path"></path>
            <path d="M15.134,5.51651596 C17.2925067,3.83110925 19.7017109,2.49423715 22.274,1.55451596" id="Path"></path>
            <path d="M6.03961325e-14,18.830516 L62.188,18.830516" id="Path"></path>
            <path d="M5.222,26.516516 C6.75510056,26.0987259 8.3369922,25.8868654 9.926,25.886516 C16.0052974,25.8974015 21.6555362,29.0208408 24.8982106,34.1631203 C28.1408849,39.3053999 28.5242253,45.7500971 25.914,51.240516" id="Path"></path>
            <path d="M36.274,51.240516 C33.6637747,45.7500971 34.0471151,39.3053999 37.2897894,34.1631203 C40.5324638,29.0208408 46.1827026,25.8974015 52.262,25.886516 C53.8509414,25.8878573 55.4327025,26.0997003 56.966,26.516516" id="Path"></path>
        </g>
    </g>
</svg>