<svg xmlns="http://www.w3.org/2000/svg" width="32" height="26" viewBox="0 0 32 26">
    <g fill="none" fill-rule="evenodd">
        <g fill-rule="nonzero">
            <path fill="#5EBE84" d="M5.921 11.709h-.532c-.294 0-.532.238-.532.532 0 .294.238.532.532.532h.532c.294 0 .532-.238.532-.532 0-.294-.238-.532-.532-.532zM6.453 14.902c0-.294-.238-.532-.532-.532H3.792c-.294 0-.532.238-.532.532 0 .294.238.533.532.533h2.129c.294 0 .532-.239.532-.533zM5.389 17.563c0 .294.238.533.532.533h1.064c.294 0 .533-.239.533-.533 0-.294-.239-.532-.533-.532H5.921c-.294 0-.532.238-.532.532zM24.549 5.322c.294 0 .532-.238.532-.532 0-.294-.238-.532-.532-.532h-7.451c-.294 0-.533.238-.533.532 0 .294.239.532.533.532h7.45zM26.678 6.919H13.372c-.294 0-.532.238-.532.532 0 .294.238.532.532.532h13.306c.294 0 .532-.238.532-.532 0-.294-.238-.532-.532-.532zM27.21 10.112c0-.294-.238-.532-.532-.532H13.372c-.294 0-.532.238-.532.532 0 .294.238.532.532.532h13.306c.294 0 .532-.238.532-.532zM14.969 12.241c-.294 0-.532.238-.532.532 0 .294.238.533.532.533h9.58c.294 0 .532-.239.532-.533 0-.294-.238-.532-.532-.532h-9.58z" transform="translate(0 -3) translate(0 3.333)"/>
            <path fill="#678189" d="M31.468 11.709c-.294 0-.532.238-.532.532v2.13c-.002 1.468-1.193 2.658-2.662 2.66h-2.128c-.294 0-.533.238-.533.532v5.982l-5.269-6.322c-.1-.122-.25-.192-.409-.192h-8.692c-1.469-.002-2.66-1.192-2.66-2.66V6.386c0-.294-.24-.533-.533-.533-.294 0-.532.239-.532.533v7.983c.002 2.057 1.669 3.723 3.725 3.726h4.496c-1.108 1.341-2.756 2.121-4.496 2.129H9.647c-.142 0-.277.056-.377.155l-3.349 3.35v-3.183c0-.243-.164-.454-.4-.515-2.673-.688-4.502-3.153-4.384-5.912.118-2.758 2.15-5.059 4.872-5.516.29-.049.486-.323.437-.613-.049-.29-.323-.486-.613-.437C2.69 8.082.316 10.689.085 13.867c-.232 3.178 1.74 6.102 4.772 7.08v4.068c0 .215.13.409.328.491.199.083.428.037.58-.115l4.102-4.102h1.376c2.357-.008 4.548-1.21 5.82-3.193h2.623l6.05 7.26c.101.12.251.19.41.19.061 0 .123-.01.181-.031.21-.077.35-.277.35-.5v-6.92h1.597c2.057-.002 3.724-1.668 3.726-3.725v-2.129c0-.294-.238-.532-.532-.532zM28.274 0h-17.03C9.186.002 7.52 1.669 7.517 3.726v.532c0 .294.238.532.532.532.294 0 .532-.238.532-.532v-.532c.002-1.47 1.192-2.66 2.661-2.662h17.031c1.47.002 2.66 1.193 2.662 2.662v6.386c0 .294.238.532.532.532.294 0 .532-.238.532-.532V3.726C31.998 1.669 30.331.002 28.274 0z" transform="translate(0 -3) translate(0 3.333)"/>
            <path fill="#B4AC94" d="M29.339 6.919c.294 0 .532-.238.532-.532V3.726c0-.882-.715-1.597-1.597-1.597h-17.03c-.883 0-1.597.715-1.597 1.597V14.37c0 .882.714 1.597 1.596 1.597h17.031c.882 0 1.597-.715 1.597-1.597V8.516c0-.294-.238-.533-.532-.533-.294 0-.532.239-.532.533v5.854c0 .294-.239.532-.533.532h-17.03c-.295 0-.533-.238-.533-.532V3.726c0-.294.238-.533.532-.533h17.031c.294 0 .533.239.533.533v2.66c0 .295.238.533.532.533z" transform="translate(0 -3) translate(0 3.333)"/>
        </g>
    </g>
</svg>
