<?xml version="1.0" encoding="UTF-8"?>
<svg width="72px" height="72px" viewBox="0 0 72 72" version="1.1" xmlns="http://www.w3.org/2000/svg" xmlns:xlink="http://www.w3.org/1999/xlink">
    <!-- Generator: sketchtool 58 (101010) - https://sketch.com -->
    <title>D1C14074-CE27-4D19-8AF5-2FE8A4DE7653</title>
    <desc>Created with sketchtool.</desc>
    <g id="Page-1" stroke="none" stroke-width="1" fill="none" fill-rule="evenodd">
        <g id="Confrim-&amp;-pay/existing-payment-Copy-2" transform="translate(-685.000000, -452.000000)" fill-rule="nonzero">
            <g id="Group-89" transform="translate(465.000000, 420.000000)">
                <g id="tick" transform="translate(220.000000, 32.000000)">
                    <path d="M69.94125,9.84304688 C68.8820625,8.78203125 67.1634844,8.78020312 66.1042969,9.83854688 L33.5505937,42.3063281 L21.8053125,29.5498125 C20.7904219,28.4481562 19.0745156,28.3767188 17.9710312,29.3914688 C16.8683906,30.4063594 16.7977969,32.1231094 17.8126875,33.22575 L31.4710312,48.0590156 C31.9712344,48.6026719 32.6712656,48.918375 33.4094062,48.9337031 C33.4292344,48.9345469 33.4483594,48.9345469 33.4673437,48.9345469 C34.1846719,48.9345469 34.8747187,48.6496406 35.3830781,48.1431094 L69.9359063,13.6808437 C70.9977656,12.6226406 70.9995938,10.9040625 69.94125,9.84304688 Z" id="Path" fill="#BCE2C9"></path>
                    <path d="M69.2863594,33.2863594 C67.7875781,33.2863594 66.5728594,34.5010781 66.5728594,36 C66.5728594,52.8585469 52.8585469,66.5728594 36,66.5728594 C19.1424375,66.5728594 5.42714062,52.8585469 5.42714062,36 C5.42714062,19.1424375 19.1424375,5.42714062 36,5.42714062 C37.4987812,5.42714062 38.7136406,4.21242187 38.7136406,2.71364062 C38.7136406,1.21471875 37.4987813,0 36,0 C16.149375,0 0,16.149375 0,36 C0,55.8497812 16.149375,72 36,72 C55.8497812,72 72,55.8497812 72,36 C72,34.5012187 70.7852812,33.2863594 69.2863594,33.2863594 Z" id="Path" fill="#354739"></path>
                </g>
            </g>
        </g>
    </g>
</svg>