<?xml version="1.0" encoding="UTF-8"?>
<svg width="38px" height="59px" viewBox="0 0 38 59" version="1.1" xmlns="http://www.w3.org/2000/svg" xmlns:xlink="http://www.w3.org/1999/xlink">
    <!-- Generator: Sketch 58 (84663) - https://sketch.com -->
    <title>clean copy 2</title>
    <desc>Created with Sketch.</desc>
    <g id="Page-1" stroke="none" stroke-width="1" fill="none" fill-rule="evenodd">
        <g id="clean-copy-2" transform="translate(1.000000, 0.000000)" stroke="#FFFFFF" stroke-width="1.3">
            <polyline id="Path" points="12.0187213 21.9912 12.0187213 31.7849 12.0187213 41.5667 12.0187213 51.3485 12.0187213 57.5722 24.2281213 57.5722 24.2281213 51.3485 24.2281213 41.5667 24.2281213 31.7849 24.2281213 21.9912"></polyline>
            <path d="M30.6660213,6.1047 C29.0469542,6.1047 27.4941999,5.4615281 26.3493465,4.31667477 C25.2044932,3.17182144 24.5613213,1.61906711 24.5613213,4.97379915e-14" id="Path" fill-rule="nonzero"></path>
            <path d="M24.5613213,5.68434189e-14 C24.5613213,3.37153271 21.828154,6.1047 18.4566213,6.1047" id="Path" fill-rule="nonzero"></path>
            <path d="M24.5613213,12.2094 C24.5613213,8.84250906 27.2872368,6.11126314 30.6541213,6.1047" id="Path" fill-rule="nonzero"></path>
            <path d="M18.4685213,6.1047 C21.8354058,6.11126314 24.5613213,8.84250906 24.5613213,12.2094" id="Path" fill-rule="nonzero"></path>
            <polyline id="Path" points="33.3911213 21.9912 20.7771213 21.9912 14.8152213 21.9912 8.8414213 21.9912 2.8676213 21.9912"></polyline>
            <path d="M2.8676213,28.0959 C1.25575155,27.9952073 -1.42108547e-14,26.6585618 -1.42108547e-14,25.04355 C-1.42108547e-14,23.4285382 1.25575155,22.0918927 2.8676213,21.9912" id="Path" fill-rule="nonzero"></path>
            <path d="M11.6855213,6.9258 C11.6855213,8.6102161 10.3235247,9.97754585 8.6391213,9.9841" id="Path" fill-rule="nonzero"></path>
            <path d="M14.7438213,9.9841 C13.0547688,9.9841 11.6855213,8.61485245 11.6855213,6.9258" id="Path" fill-rule="nonzero"></path>
            <path d="M11.6855213,13.0305 C11.6855213,12.2204784 12.0081072,11.4438058 12.5819944,10.8721517 C13.1558815,10.3004975 13.9338059,9.98093585 14.7438213,9.98407672" id="Path" fill-rule="nonzero"></path>
            <path d="M8.6391213,9.9841 C10.3216016,9.9841 11.6855213,11.3480197 11.6855213,13.0305" id="Path" fill-rule="nonzero"></path>
            <path d="M33.3911213,21.9555 C35.002991,22.0561927 36.2587426,23.3928382 36.2587426,25.00785 C36.2587426,26.6228618 35.002991,27.9595073 33.3911213,28.0602" id="Path"></path>
            <path d="M16.2908213,18.0999 L33.3911213,18.0642" id="Path" fill-rule="nonzero"></path>
            <path d="M9.3531213,18.1237 L14.6724213,18.1118" id="Path" fill-rule="nonzero"></path>
            <path d="M2.5344213,18.1475 L7.4491213,18.1356" id="Path" fill-rule="nonzero"></path>
            <path d="M24.2281213,28.0959 L33.3911213,28.0959" id="Path"></path>
            <polyline id="Path" points="2.8676213 28.0959 8.8414213 28.0959 24.2281213 28.0959"></polyline>
            <polyline id="Path" points="21.1817213 51.1819 21.1817213 26.4418 21.1817213 21.9912"></polyline>
            <polyline id="Path" points="15.0770213 21.9912 15.0770213 26.4418 15.0770213 45.7436"></polyline>
        </g>
    </g>
</svg>