<?xml version="1.0" encoding="UTF-8"?>
<svg width="64px" height="54px" viewBox="0 0 64 54" version="1.1" xmlns="http://www.w3.org/2000/svg" xmlns:xlink="http://www.w3.org/1999/xlink">
    <!-- Generator: Sketch 58 (84663) - https://sketch.com -->
    <title>community copy</title>
    <desc>Created with Sketch.</desc>
    <g id="Page-1" stroke="none" stroke-width="1" fill="none" fill-rule="evenodd">
        <g id="community-copy" transform="translate(1.000000, 1.000000)" stroke="#FFFFFF" stroke-width="1.5">
            <path d="M28.406,42.21 L22.778,42.196" id="Path"></path>
            <path d="M39.886,42.084 L30.338,42.07" id="Path"></path>
            <path d="M19.964,21.826 L22.176,18.606" id="Path"></path>
            <path d="M14.546,29.862 L18.816,23.66" id="Path"></path>
            <path d="M45.976,26.642 L48.202,29.862" id="Path"></path>
            <path d="M40.558,18.606 L44.828,24.794" id="Path"></path>
            <circle id="Oval" cx="31.332" cy="10.304" r="7.182"></circle>
            <circle id="Oval" cx="31.332" cy="10.304" r="10.304"></circle>
            <path d="M23.24,16.716 C25.2061774,14.2620105 28.180494,12.8338372 31.325,12.8338372 C34.469506,12.8338372 37.4438226,14.2620105 39.41,16.716" id="Path"></path>
            <circle id="Oval" cx="31.332" cy="8.54" r="2.226"></circle>
            <circle id="Oval" cx="10.304" cy="41.244" r="7.182"></circle>
            <circle id="Oval" cx="10.304" cy="41.244" r="10.304"></circle>
            <path d="M2.226,47.656 C4.19217743,45.2020105 7.16649397,43.7738372 10.311,43.7738372 C13.455506,43.7738372 16.4298226,45.2020105 18.396,47.656" id="Path"></path>
            <circle id="Oval" cx="10.304" cy="39.48" r="2.226"></circle>
            <circle id="Oval" cx="51.94" cy="41.244" r="7.182"></circle>
            <circle id="Oval" cx="51.94" cy="41.244" r="10.304"></circle>
            <path d="M43.862,47.656 C45.8281774,45.2020105 48.802494,43.7738372 51.947,43.7738372 C55.091506,43.7738372 58.0658226,45.2020105 60.032,47.656" id="Path"></path>
            <circle id="Oval" cx="51.94" cy="39.48" r="2.226"></circle>
        </g>
    </g>
</svg>