<?xml version="1.0" encoding="UTF-8"?>
<svg width="144px" height="96px" viewBox="0 0 144 96" version="1.1" xmlns="http://www.w3.org/2000/svg" xmlns:xlink="http://www.w3.org/1999/xlink">
    <!-- Generator: Sketch 58 (84663) - https://sketch.com -->
    <title>customer</title>
    <desc>Created with Sketch.</desc>
    <g id="Page-1" stroke="none" stroke-width="1" fill="none" fill-rule="evenodd">
        <g id="customer">
            <path d="M111.999996,60.9995962 L112.000157,95 C112.000157,95.5128146 111.613962,95.9355041 111.116618,95.9932719 L110.999998,96 L95.9999965,95.9995962 L95.9999965,93.9995962 L110,94 L109.999996,60.9995962 L111.999996,60.9995962 Z M28,81.9995962 L28,94 L73.9999965,93.9995962 L73.9999965,95.9995962 L26.9999982,96 C26.4871853,96 26.0644943,95.6139401 26.0067263,95.1166169 L25.9999982,95 L25.999,81.9995962 L28,81.9995962 Z M83.9999965,93.9995962 L83.9999965,95.9995962 L81.9999965,95.9995962 L81.9999965,93.9995962 L83.9999965,93.9995962 Z M36.90625,83.9955962 L37,84 L65,84 C65.3606359,83.9948997 65.6960814,84.1843753 65.8778877,84.4958728 C66.0596941,84.8073704 66.0596941,85.1926296 65.8778877,85.5041272 C65.7162821,85.7810139 65.4332826,85.9614882 65.1191028,85.9945931 L65,86 L37,86 C36.4477153,86.0517767 35.9580267,85.6460347 35.90625,85.09375 C35.8544733,84.5414653 36.2602153,84.0517767 36.8125,84 L36.90625,83.9955962 Z M111.09375,39.9955962 L111.1875,40 C111.625742,40.0836197 111.950473,40.4453088 111.995066,40.8798397 L112.000157,41 L111.999996,58.9995962 L109.999996,58.9995962 L110,42 L28,42 L28,79.9995962 L25.999,79.9995962 L25.9999982,41 C25.9990161,40.4712497 26.4097855,40.0330956 26.9375,40 L26.9687498,39.9995116 L26.9999982,40 L110.999998,40 L111.09375,39.9955962 Z M36.90625,73.9955962 L37,74 L65,74 C65.3606359,73.9948997 65.6960814,74.1843753 65.8778877,74.4958728 C66.0596941,74.8073704 66.0596941,75.1926296 65.8778877,75.5041272 C65.7162821,75.7810139 65.4332826,75.9614882 65.1191028,75.9945931 L65,76 L37,76 C36.6427344,76.0334936 36.2947387,75.8738441 36.0870996,75.5811899 C35.8794605,75.2885356 35.8437232,74.9073378 35.9933496,74.5811899 C36.142976,74.255042 36.4552344,74.0334936 36.8125,74 L36.90625,73.9955962 Z M101.09375,49.9955962 L101.1875,50 C101.625742,50.0836197 101.950473,50.4453088 101.995066,50.8798397 L102.000157,51 L102.000157,71 C102.000157,71.5128146 101.613962,71.9355041 101.116618,71.9932719 L100.999998,72 L80.9999982,72 C80.4871853,72 80.0644943,71.6139401 80.0067263,71.1166169 L79.9999982,71 L79.9999982,51 C79.9990161,50.4712497 80.4097855,50.0330956 80.9375,50 L80.9687498,49.9995116 L80.9999982,50 L92,50 L92,52 L82,52 L82,70 L100,70 L100,52 L98,52 L98,50 L100.999998,50 L101.09375,49.9955962 Z M36.90625,63.9955962 L37,64 L65,64 C65.3606359,63.9948997 65.6960814,64.1843753 65.8778877,64.4958728 C66.0596941,64.8073704 66.0596941,65.1926296 65.8778877,65.5041272 C65.7162821,65.7810139 65.4332826,65.9614882 65.1191028,65.9945931 L65,66 L37,66 C36.4477153,66.0517767 35.9580267,65.6460347 35.90625,65.09375 C35.8544733,64.5414653 36.2602153,64.0517767 36.8125,64 L36.90625,63.9955962 Z" id="Combined-Shape" fill="#88816C" fill-rule="nonzero"></path>
            <path d="M131.634266,93.2464684 C134.71862,93.2464684 137.227114,90.7367468 137.227114,87.6523924 C137.227114,84.568038 134.717392,82.0595443 131.634266,82.0595443 C128.548684,82.0595443 126.04019,84.5692658 126.04019,87.6523924 C126.04019,90.7367468 128.548684,93.2464684 131.634266,93.2464684 Z M131.634266,84.3703544 C133.444114,84.3703544 134.915076,85.8425443 134.915076,87.6511646 C134.915076,89.4610127 133.442886,90.9332025 131.634266,90.9332025 C129.824418,90.9332025 128.352228,89.4597848 128.352228,87.6511646 C128.352228,85.8413165 129.824418,84.3703544 131.634266,84.3703544 Z" id="Shape" fill="#354739" fill-rule="nonzero"></path>
            <path d="M34.0790886,8.03749367 C34.0790886,4.95313924 31.5693671,2.44464557 28.4850127,2.44464557 C25.4006582,2.44464557 22.8921646,4.95436709 22.8921646,8.03749367 C22.8921646,11.1230759 25.4018861,13.6315696 28.4850127,13.6315696 C31.5693671,13.6315696 34.0790886,11.1218481 34.0790886,8.03749367 Z M25.2029747,8.03749367 C25.2029747,6.22764557 26.6751646,4.75668354 28.4837848,4.75668354 C30.2924051,4.75668354 31.7658228,6.22887342 31.7658228,8.03749367 C31.7658228,9.84611392 30.2924051,11.3195316 28.4837848,11.3195316 C26.6751646,11.3195316 25.2029747,9.84734177 25.2029747,8.03749367 Z" id="Shape" fill="#354739" fill-rule="nonzero"></path>
            <path d="M94.7679512,28.9507281 C94.4474829,28.9642344 94.1491158,29.1005256 93.9317867,29.3375002 C93.7144576,29.5744749 93.6014956,29.8802091 93.6150019,30.2019053 C93.6407867,30.8489812 94.1687614,31.3560825 94.8158373,31.3560825 C96.1124449,31.303285 97.2666221,30.770399 98.1150652,29.8507407 C98.9647361,28.9310825 99.4043057,27.738842 99.3539639,26.4925762 C99.3036221,25.2450825 98.7695082,24.0909053 97.8510778,23.2412344 C96.9301918,22.3915635 95.7109386,21.9556774 94.4880019,22.0035635 L94.486774,22.0035635 C93.2380525,22.0539053 92.0851031,22.5867914 91.237888,23.5052218 C90.3919006,24.42488 89.9535588,25.6195762 90.0039006,26.8707534 C90.0321411,27.5374749 90.5932677,28.0679053 91.2563057,28.0224749 C91.5743183,28.0101964 91.8714576,27.8726774 92.0887867,27.6369306 C92.3073437,27.3999559 92.4203057,27.0929939 92.4067994,26.7725256 C92.3810145,26.1635129 92.5946601,25.5827407 93.0072171,25.135804 C93.4173183,24.6900952 93.9772171,24.4310192 94.583774,24.4064623 C94.6120145,24.4052344 94.6390272,24.4052344 94.6672677,24.4052344 C95.8865209,24.4052344 96.9007234,25.3690952 96.9498373,26.5895762 C96.9756221,27.1936774 96.7619766,27.7719939 96.3481918,28.2201585 C95.9380905,28.668323 95.3757361,28.9261711 94.7679512,28.9507281 Z" id="Path-Copy-25" fill="#354739" fill-rule="nonzero"></path>
            <g id="Group-294" transform="translate(129.664797, 51.529101)" fill="#BCE2C9" fill-rule="nonzero">
                <path d="M6.9201519,1.0658141e-14 C6.25711392,1.0658141e-14 5.71808861,0.540253165 5.71808861,1.20329114 L5.71808861,3.97208861 C5.71808861,4.63512658 6.25711392,5.17537975 6.9201519,5.17537975 C7.58318987,5.17537975 8.12344304,4.63512658 8.12344304,3.97208861 L8.12344304,1.20329114 C8.12344304,0.540253165 7.58318987,1.0658141e-14 6.9201519,1.0658141e-14 Z" id="Path"></path>
                <path d="M6.9201519,8.6661519 C6.25711392,8.6661519 5.71808861,9.20517722 5.71808861,9.86821519 L5.71808861,12.6382405 C5.71808861,13.3012785 6.25711392,13.8403038 6.9201519,13.8403038 C7.58318987,13.8403038 8.12344304,13.3012785 8.12344304,12.6382405 L8.12344304,9.86821519 C8.12344304,9.20517722 7.58318987,8.6661519 6.9201519,8.6661519 Z" id="Path"></path>
                <path d="M12.6382405,5.71808861 L9.86944304,5.71808861 C9.20640506,5.71808861 8.6661519,6.25834177 8.6661519,6.92137975 C8.6661519,7.58441772 9.20640506,8.12344304 9.86944304,8.12344304 L12.6382405,8.12344304 C13.3012785,8.12344304 13.8415316,7.58441772 13.8415316,6.92137975 C13.8415316,6.25834177 13.3012785,5.71808861 12.6382405,5.71808861 Z" id="Path"></path>
                <path d="M1.20329114,5.71808861 C0.540253165,5.71808861 -9.03277453e-13,6.25834177 -9.03277453e-13,6.92137975 C-9.03277453e-13,7.58441772 0.540253165,8.12344304 1.20329114,8.12344304 L3.97208861,8.12344304 C4.63512658,8.12344304 5.17537975,7.58441772 5.17537975,6.92137975 C5.17537975,6.25834177 4.63512658,5.71808861 3.97208861,5.71808861 L1.20329114,5.71808861 Z" id="Path"></path>
            </g>
            <g id="Group-296" transform="translate(1.805880, 12.430734)" fill="#BCE2C9" fill-rule="nonzero">
                <path d="M8.43715823,0.351164557 L6.47874051,2.30958228 C6.00970253,2.77862025 6.00970253,3.54111392 6.47874051,4.0101519 C6.93058861,4.4644557 7.72500633,4.46691139 8.17931013,4.0101519 L10.1377278,2.05173418 C10.6067658,1.5826962 10.6067658,0.820202532 10.1377278,0.351164557 C9.90320886,0.11664557 9.59501899,0 9.28682911,0 C8.97986709,0 8.67044937,0.11664557 8.43715823,0.351164557 Z" id="Path"></path>
                <path d="M2.0523481,10.1383418 L4.01076582,8.17992405 C4.23914557,7.95277215 4.36438608,7.65072152 4.36438608,7.32902532 C4.36438608,7.00855696 4.23914557,6.70650633 4.01076582,6.47935443 C3.77624684,6.24483544 3.46805696,6.12818987 3.16109494,6.12818987 C2.85290506,6.12818987 2.54348734,6.24483544 2.3101962,6.47935443 L0.351778481,8.43777215 C-0.117259494,8.90681013 -0.117259494,9.6693038 0.351778481,10.1383418 C0.806082278,10.5938734 1.5980443,10.5926456 2.0523481,10.1383418 Z" id="Path"></path>
                <path d="M8.43715823,10.1383418 C8.88900633,10.5938734 9.68342405,10.5938734 10.1377278,10.1383418 C10.6067658,9.6693038 10.6067658,8.90681013 10.1377278,8.43777215 L8.17931013,6.47935443 C7.94479114,6.24483544 7.63660127,6.12818987 7.32841139,6.12818987 C7.02144937,6.12818987 6.71203165,6.24483544 6.47874051,6.47935443 C6.00970253,6.94839241 6.00970253,7.71088608 6.47874051,8.17992405 L8.43715823,10.1383418 Z" id="Path"></path>
                <path d="M2.30896835,4.01137975 C2.77800633,4.48041772 3.5429557,4.47796203 4.00953797,4.01137975 C4.47857595,3.54234177 4.47857595,2.77862025 4.00953797,2.30958228 L2.0523481,0.351164557 C1.81782911,0.11664557 1.50963924,0 1.20267722,0 C0.894487342,0 0.58506962,0.11664557 0.351778481,0.351164557 C-0.117259494,0.820202532 -0.117259494,1.5826962 0.351778481,2.05173418 L2.30896835,4.01137975 Z" id="Path"></path>
            </g>
            <g id="Group-296-Copy" transform="translate(72.000000, 4.000000)" fill="#BCE2C9" fill-rule="nonzero">
                <path d="M8.43715823,0.351164557 L6.47874051,2.30958228 C6.00970253,2.77862025 6.00970253,3.54111392 6.47874051,4.0101519 C6.93058861,4.4644557 7.72500633,4.46691139 8.17931013,4.0101519 L10.1377278,2.05173418 C10.6067658,1.5826962 10.6067658,0.820202532 10.1377278,0.351164557 C9.90320886,0.11664557 9.59501899,1.77635684e-15 9.28682911,1.77635684e-15 C8.97986709,1.77635684e-15 8.67044937,0.11664557 8.43715823,0.351164557 Z" id="Path"></path>
                <path d="M2.0523481,10.1383418 L4.01076582,8.17992405 C4.23914557,7.95277215 4.36438608,7.65072152 4.36438608,7.32902532 C4.36438608,7.00855696 4.23914557,6.70650633 4.01076582,6.47935443 C3.77624684,6.24483544 3.46805696,6.12818987 3.16109494,6.12818987 C2.85290506,6.12818987 2.54348734,6.24483544 2.3101962,6.47935443 L0.351778481,8.43777215 C-0.117259494,8.90681013 -0.117259494,9.6693038 0.351778481,10.1383418 C0.806082278,10.5938734 1.5980443,10.5926456 2.0523481,10.1383418 Z" id="Path"></path>
                <path d="M8.43715823,10.1383418 C8.88900633,10.5938734 9.68342405,10.5938734 10.1377278,10.1383418 C10.6067658,9.6693038 10.6067658,8.90681013 10.1377278,8.43777215 L8.17931013,6.47935443 C7.94479114,6.24483544 7.63660127,6.12818987 7.32841139,6.12818987 C7.02144937,6.12818987 6.71203165,6.24483544 6.47874051,6.47935443 C6.00970253,6.94839241 6.00970253,7.71088608 6.47874051,8.17992405 L8.43715823,10.1383418 Z" id="Path"></path>
                <path d="M2.30896835,4.01137975 C2.77800633,4.48041772 3.5429557,4.47796203 4.00953797,4.01137975 C4.47857595,3.54234177 4.47857595,2.77862025 4.00953797,2.30958228 L2.0523481,0.351164557 C1.81782911,0.11664557 1.50963924,3.10862447e-13 1.20267722,3.10862447e-13 C0.894487342,3.10862447e-13 0.58506962,0.11664557 0.351778481,0.351164557 C-0.117259494,0.820202532 -0.117259494,1.5826962 0.351778481,2.05173418 L2.30896835,4.01137975 Z" id="Path"></path>
            </g>
            <g id="Group-295" transform="translate(123.324804, 0.670405)" fill="#BCE2C9" fill-rule="nonzero">
                <path d="M8.18053797,4.0101519 L10.1389557,2.05173418 C10.3673354,1.82458228 10.4925759,1.52253165 10.4925759,1.20083544 C10.4925759,0.880367089 10.3673354,0.578316456 10.1389557,0.351164557 C9.90443671,0.11664557 9.59624684,2.27373675e-13 9.28805696,2.27373675e-13 C8.98109494,2.27373675e-13 8.67167722,0.11664557 8.43838608,0.351164557 L6.47996835,2.30958228 C6.01093038,2.77862025 6.01093038,3.54111392 6.47996835,4.0101519 C6.93427215,4.46568354 7.72746203,4.4644557 8.18053797,4.0101519 Z" id="Path"></path>
                <path d="M2.0523481,10.1371139 L4.01076582,8.1786962 C4.23914557,7.9515443 4.36438608,7.64949367 4.36438608,7.32779747 C4.36438608,7.00732911 4.23914557,6.70527848 4.01076582,6.47812658 C3.78361392,6.24974684 3.48156329,6.12450633 3.15986709,6.12450633 C2.83939873,6.12450633 2.5373481,6.24974684 2.3101962,6.47812658 L0.351778481,8.4365443 C-0.117259494,8.90558228 -0.117259494,9.66807595 0.351778481,10.1371139 C0.80485443,10.5938734 1.59927215,10.5926456 2.0523481,10.1371139 Z" id="Path"></path>
                <path d="M8.43715823,10.1371139 C8.89146203,10.5926456 9.68587975,10.5914177 10.1377278,10.1371139 C10.3661076,9.90996203 10.4913481,9.60791139 10.4913481,9.28621519 C10.4913481,8.96574684 10.3661076,8.6636962 10.1377278,8.4365443 L8.17931013,6.47812658 C7.94479114,6.24360759 7.63660127,6.12696203 7.32963924,6.12696203 C7.02144937,6.12696203 6.71203165,6.24360759 6.47874051,6.47812658 C6.00970253,6.94716456 6.00970253,7.70965823 6.47874051,8.1786962 L8.43715823,10.1371139 Z" id="Path"></path>
                <path d="M2.3101962,4.0101519 C2.76327215,4.46568354 3.55768987,4.4644557 4.01076582,4.0101519 C4.23914557,3.783 4.36438608,3.48094937 4.36438608,3.15925316 C4.36438608,2.83878481 4.23914557,2.53673418 4.01076582,2.30958228 L2.0523481,0.351164557 C1.81782911,0.11664557 1.50963924,-2.26485497e-13 1.20267722,-2.26485497e-13 C0.894487342,-2.26485497e-13 0.58506962,0.11664557 0.351778481,0.351164557 C-0.117259494,0.820202532 -0.117259494,1.5826962 0.351778481,2.05173418 L2.3101962,4.0101519 Z" id="Path"></path>
            </g>
            <path d="M112.119266,37.6445949 L112.119266,37.6445949" id="Path"></path>
            <path d="M123.64343,29.1687595 C124.423114,29.2252405 125.181924,29.1454304 125.867063,29.0643924 C127.44362,28.8789873 128.374329,28.8175949 129.255924,29.6991899 C130.136291,30.579557 130.073671,31.5114937 129.888266,33.0843671 C129.807228,33.7707342 129.727418,34.5295443 129.783899,35.3092278 C129.861253,36.3823671 130.206278,37.4960253 131.236443,38.5261899 L132.119266,37.6433671 L133.002089,36.7605443 C132.121722,35.8801772 132.184342,34.9482405 132.369747,33.3753671 C132.562519,31.743557 132.801949,29.7126962 131.022797,27.9335443 C129.24119,26.1519367 127.209101,26.3913671 125.578519,26.5841392 C124.00319,26.772 123.072481,26.8321646 122.189658,25.9493418 C121.306835,25.066519 121.369456,24.1321266 121.553633,22.5580253 C121.743949,20.9249873 121.982152,18.8941266 120.201772,17.112519 C118.421392,15.3309114 116.390532,15.5691139 114.756266,15.7618861 C113.183392,15.9448354 112.250228,16.0086835 111.366177,15.1246329 L110.483354,16.0074557 L109.600532,16.8902785 C110.630696,17.920443 111.745582,18.2654684 112.819949,18.3440506 C113.600861,18.4005316 114.359671,18.3219494 115.046038,18.2421392 C116.618911,18.057962 117.554532,17.9965696 118.436127,18.8781646 C119.318949,19.7609873 119.256329,20.6953797 119.072152,22.269481 C118.992342,22.9558481 118.912532,23.7146582 118.970241,24.4943418 C119.048823,25.5687089 119.393848,26.6835949 120.425241,27.7149873 C121.454177,28.7463797 122.570291,29.0914051 123.64343,29.1687595 Z" id="Path" fill="#E6CFC0" fill-rule="nonzero"></path>
            <path d="M48.0807809,17.193557 C46.5889455,17.8860633 44.733667,18.7480127 44.1479835,21.1963418 C43.5635278,23.6458987 44.830667,25.2531519 45.8485531,26.5448481 C46.8296037,27.7898861 47.3698569,28.5536076 47.0813126,29.7667215 L49.5099961,30.3474937 C49.8488822,28.9281013 49.5578822,27.7972532 49.0618316,26.8407595 C48.7020721,26.1470253 48.2367176,25.5416962 47.8081987,24.9989873 C46.827148,23.7539494 46.2868949,22.9902278 46.5754392,21.7771139 C46.8652113,20.5627722 47.6927809,20.1256582 49.1305911,19.4589367 C49.7580214,19.1679367 50.4456164,18.8376456 51.0804138,18.3821139 C51.9546417,17.7534557 52.7232746,16.8755443 53.0621607,15.4561519 C53.4010468,14.0379873 53.1100468,12.9071392 52.6139961,11.9518734 C52.2542366,11.2581392 51.7888822,10.6528101 51.3603632,10.1101013 C50.3793126,8.86629114 49.8390594,8.10256962 50.1276037,6.89068354 C50.416148,5.68002532 51.2437176,5.24291139 52.6802999,4.57864557 C53.3077303,4.28764557 53.9953252,3.95858228 54.6301227,3.50305063 C55.5043506,2.87439241 56.2729835,1.99770886 56.6118695,0.580772152 L54.183186,8.52651283e-14 C53.8946417,1.21065823 53.0670721,1.6465443 51.6304898,2.31203797 C50.1386543,3.00331646 48.2833759,3.86403797 47.6989202,6.30991139 C47.1144645,8.75824051 48.3816037,10.3654937 49.3994898,11.655962 C50.3805404,12.8997722 50.9207936,13.6634937 50.6322493,14.8753797 C50.3449328,16.0897215 49.5173632,16.5268354 48.0807809,17.193557 Z" id="Path" fill="#E6CFC0" fill-rule="nonzero"></path>
            <path d="M14.1627722,62.8203924 L14.1615443,62.8216203" id="Path"></path>
            <path d="M2.32431646,63.2783797 C2.7798481,62.120519 3.65898734,61.8037342 5.1741519,61.3469747 C6.74825316,60.8717975 8.70544304,60.2787468 9.62632911,57.9372405 C10.548443,55.5932785 9.51827848,53.8264051 8.68948101,52.4057848 C7.89260759,51.0367342 7.46286076,50.205481 7.91839241,49.0463924 C8.3751519,47.8848481 9.25551899,47.5668354 10.7719114,47.1088481 C12.3460127,46.6312152 14.3044304,46.0381646 15.2253165,43.6942025 C16.1462025,41.3502405 15.1172658,39.5821392 14.2896962,38.161519 C13.4928228,36.7912405 13.0630759,35.9599873 13.5198354,34.798443 L12.3570633,34.3404557 L11.195519,33.8836962 C10.6614051,35.2416962 10.7903291,36.4020127 11.1476329,37.417443 C11.4067089,38.1553797 11.7824304,38.8196456 12.1311392,39.4163797 C12.9280127,40.7854304 13.3565316,41.6179114 12.901,42.7782278 C12.4454684,43.9397722 11.5651013,44.2577848 10.047481,44.717 C9.38567089,44.9171392 8.65878481,45.1479747 7.96627848,45.5114177 C7.01346835,46.0123797 6.12818987,46.7736456 5.59407595,48.1316456 C5.06118987,49.4884177 5.19011392,50.6475063 5.54741772,51.6629367 C5.80649367,52.3996456 6.18221519,53.0639114 6.53092405,53.6618734 C7.32779747,55.0296962 7.7575443,55.8621772 7.30201266,57.0224937 C6.84770886,58.1803544 5.96734177,58.4971392 4.45217722,58.9538987 C3.79036709,59.154038 3.06225316,59.3836456 2.37097468,59.7470886 C1.41693671,60.2480506 0.532886076,61.0080886 -2.13162821e-14,62.3636329 L1.16277215,62.8203924 L2.32431646,63.2783797 Z" id="Path" fill="#E6CFC0" fill-rule="nonzero"></path>
        </g>
    </g>
</svg>