<svg xmlns="http://www.w3.org/2000/svg" width="24" height="24" viewBox="0 0 24 24">
    <g fill="none" fill-rule="evenodd">
        <path fill="#678189" d="M20.065 4.512h-2.581v-.847c0-.356-.289-.645-.645-.645-.357 0-.645.289-.645.645v.847h-3.549v-.847c0-.356-.289-.645-.645-.645-.356 0-.645.289-.645.645v.847H7.806v-.847c0-.356-.288-.645-.645-.645-.356 0-.645.289-.645.645v.847h-2.58C2.867 4.512 2 5.38 2 6.448v11.648c0 1.068.868 1.936 1.935 1.936h16.13c1.067 0 1.935-.868 1.935-1.936V6.448c0-1.068-.868-1.936-1.935-1.936zm.645 13.584c0 .356-.29.645-.645.645H3.935c-.355 0-.645-.289-.645-.645v-7.495h14.597c.356 0 .645-.29.645-.645 0-.357-.289-.646-.645-.646H3.29V6.448c0-.356.29-.646.645-.646h2.581v.847c0 .356.289.645.645.645.357 0 .645-.289.645-.645v-.847h3.549v.847c0 .356.289.645.645.645.356 0 .645-.289.645-.645v-.847h3.549v.847c0 .356.288.645.645.645.356 0 .645-.289.645-.645v-.847h2.58c.356 0 .646.29.646.646v11.648z"/>
    </g>
</svg>
