<svg xmlns="http://www.w3.org/2000/svg" width="24" height="24" viewBox="0 0 24 24">
    <g fill="none" fill-rule="evenodd" opacity=".5">
        <path fill="#2E3537" d="M13.744 2c1.143 0 2.082.89 2.161 2.012l.005.155v.668h4.099c.304 0 .547.243.547.547 0 .273-.197.497-.458.54l-.09.006h-.987v12.846c0 1.554-1.22 2.83-2.753 2.919l-.171.005H7.495c-1.554 0-2.83-1.22-2.919-2.753l-.005-.171V5.928h-.988c-.304 0-.547-.243-.547-.546 0-.274.197-.498.458-.54l.09-.007H7.68v-.668c0-1.143.89-2.082 2.013-2.162L9.848 2h3.896zm4.187 3.928H5.665v12.846c0 .958.742 1.748 1.68 1.824l.15.006h8.602c.958 0 1.748-.742 1.824-1.68l.006-.15h.004V5.928zm-6.135 1.96c.273 0 .497.197.54.458l.007.089v9.663c0 .303-.243.546-.547.546-.273 0-.498-.2-.54-.461l-.007-.09V8.436c0-.304.243-.547.547-.547zm-3.568.6c.274 0 .498.196.54.457l.007.09v8.46c0 .303-.243.546-.547.546-.27 0-.497-.197-.54-.458l-.007-.089v-8.46c0-.303.243-.546.547-.546zm7.136 0c.273 0 .497.196.54.457l.006.09v8.46c0 .303-.242.546-.546.546-.274 0-.498-.197-.54-.458l-.007-.089v-8.46c0-.303.243-.546.547-.546zm-1.62-5.395H9.848c-.552 0-1.008.42-1.067.957l-.006.117v.668h6.042v-.668c0-.552-.42-1.009-.956-1.067l-.117-.007z"/>
    </g>
</svg>
