<svg xmlns="http://www.w3.org/2000/svg" width="20" height="20" viewBox="0 0 20 20">
    <g fill="#2E3537" fill-rule="nonzero">
        <path d="M13.052 4.29l.019.142-.215.045-.028.305h.257l.342-.033.176-.21-.188-.073-.102-.118-.155-.25-.073-.353-.29.059-.082.124v.14l.14.096z"/>
        <path d="M12.805 4.407l.016-.192-.17-.073-.239.055-.176.283v.184h.206zM7.907 5.218l-.052.135H7.6v.131h.06l.01.064.155-.013.097-.06.025-.122.126-.01.05-.103-.116-.024-.1.002zM7.254 5.456l-.01.128.184-.015.019-.129-.11-.087z"/>
        <path d="M19.998 9.897a9.94 9.94 0 0 0-.707-3.592l-.076-.191a10.012 10.012 0 0 0-2.032-3.06A9.962 9.962 0 0 0 10 0a9.96 9.96 0 0 0-6.77 2.648c-.416.383-.797.8-1.144 1.248A9.945 9.945 0 0 0 0 10c0 5.514 4.486 10 10 10 3.88 0 7.247-2.221 8.904-5.457a9.905 9.905 0 0 0 .94-2.795A10 10 0 0 0 20 10l-.002-.103zM18.116 5.9l.058-.065c.076.148.147.298.215.45l-.095-.004-.178.025V5.9zM16.67 4.155l.001-.447c.157.167.309.338.454.516l-.18.268-.63-.005-.04-.132.395-.2zM4.608 3.045v-.017h.2l.017-.069h.328v.144l-.094.125h-.452v-.183zm.32.446s.2-.034.217-.034c.017 0 0 .2 0 .2l-.451.028-.086-.102.32-.092zm13.825 3.97h-.732l-.446-.332-.47.045v.287h-.148l-.16-.115-.813-.206v-.526l-1.03.08-.319.172h-.409l-.2-.02-.497.275v.519l-1.014.732.084.312h.206l-.054.298-.145.053-.008.778.877 1h.382l.023-.062h.686l.198-.183h.389l.213.214.58.06-.077.771.644 1.137-.339.648.023.305.267.266v.734l.35.471v.61h.303A9.164 9.164 0 0 1 10 19.177C4.94 19.177.823 15.06.823 10a9.13 9.13 0 0 1 .732-3.592v-.286l.328-.399c.114-.215.237-.424.367-.629l.015.167-.381.462c-.118.223-.228.451-.328.685v.523l.38.183v.726l.367.624.297.046.038-.214-.35-.542-.07-.526h.206l.087.542.507.74-.13.239.322.493.8.198v-.13l.321.046-.03.229.251.046.39.106.548.626.702.053.068.572-.48.335-.022.511-.07.313.695.869.053.298s.252.068.283.068c.03 0 .564.404.564.404v1.571l.19.054-.129.724.32.428-.059.718.424.744.543.475.546.01.054-.176-.402-.338.023-.168.072-.206.015-.21-.271-.008-.137-.172.225-.216.03-.164-.251-.072.015-.152.358-.055.546-.262.183-.335.572-.732-.13-.573.176-.305.526.016.354-.28.114-1.105.393-.499.069-.32-.358-.115-.237-.388-.808-.008-.641-.244-.03-.457-.214-.374-.58-.009-.335-.526-.297-.145-.015.16-.542.033-.198-.276-.565-.115-.465.538-.732-.125-.053-.825-.534-.091.214-.405-.061-.232-.702.47-.442-.055-.158-.345.097-.356.243-.448.56-.284h1.083l-.003.33.39.18-.031-.564.28-.282.566-.372.039-.261.564-.588.6-.332-.053-.044.407-.382.148.04.069.085.154-.171.038-.017-.17-.024-.17-.057v-.165l.09-.074H9l.092.04.08.16.097-.014V5.03l.028.01.28-.044.04-.137.161.04v.149l-.149.102.023.164.51.157v.006l.118-.01.007-.22-.403-.185-.023-.106.335-.114.015-.32-.35-.214-.024-.541-.48.236H9.18l.046-.412-.653-.154-.271.204v.624l-.487.154-.195.407-.211.034v-.52l-.457-.064-.23-.148-.091-.337.818-.48.4-.12.04.268.223-.011.018-.136.233-.033.004-.047-.1-.042-.024-.143.287-.024.173-.18.01-.014.002.001.052-.054.603-.076.267.226-.7.372.89.21.115-.297h.389l.137-.26-.274-.068v-.328l-.862-.382-.595.07-.336.175.023.427-.35-.054-.054-.236.336-.305-.61-.03-.175.052-.077.206.23.039-.047.229-.388.023-.061.152-.564.015s-.016-.32-.038-.32l.442-.007.336-.329-.183-.091-.244.237-.405-.024-.244-.335H5.81l-.541.404h.496l.045.145-.128.12.549.015.084.199-.619-.024-.03-.152-.388-.084-.206-.114-.463.003A9.126 9.126 0 0 1 10 .823c2.32 0 4.44.867 6.059 2.292l-.11.195-.423.166-.178.194.041.226.218.03.132.329.377-.152.062.44h-.114l-.309-.045-.343.057-.332.47-.475.074-.068.406.2.047-.058.261-.471-.094-.433.094-.091.241.075.505.253.119.426-.002.288-.026.087-.229.45-.584.295.06.291-.262.055.205.716.483-.088.118-.322-.017.124.176.198.043.233-.097-.005-.28.104-.052-.083-.088-.478-.266-.126-.355h.397l.127.126.342.295.015.357.354.377.132-.517.246-.134.046.423.24.263.478-.008c.093.238.176.48.249.728l-.05.046zM5.454 4.543l.24-.114.218.052-.075.291-.234.075-.149-.304zm1.275.687v.189H6.18l-.205-.058.051-.131.264-.11h.36v.11h.08zm.253.263v.183l-.138.089-.17.031v-.303h.308zm-.155-.074V5.2l.189.172-.189.046zm.086.44v.178l-.131.131H6.49l.046-.2.138-.011.028-.07.211-.028zm-.726-.366h.303l-.389.543-.16-.086.034-.228.212-.229zm1.241.303v.178h-.292l-.08-.115v-.166h.024l.348.103zm-.27-.244l.084-.087.14.087-.112.092-.111-.092zm11.744 2.372l.028-.034.037.156-.065-.122z" opacity=".498"/>
        <path d="M.5 5.903v.276a8.93 8.93 0 0 1 .316-.66L.5 5.903z"/>
    </g>
</svg>
