<svg xmlns="http://www.w3.org/2000/svg" width="24" height="24" viewBox="0 0 24 24">
    <g fill="none" fill-rule="evenodd">
        <path fill="#969A9B" d="M19.834 4.165c-1.55-1.553-4.07-1.553-5.619 0L3.914 14.463c-.08.08-.13.184-.146.295l-.763 5.653c-.023.161.035.322.146.433.096.096.23.154.364.154.023 0 .046 0 .07-.004l3.405-.46c.284-.039.483-.3.445-.583-.039-.284-.3-.483-.583-.445l-2.73.368.532-3.942 4.15 4.15c.096.095.23.153.364.153.134 0 .269-.054.365-.154L19.834 9.784C20.586 9.032 21 8.034 21 6.972c0-1.062-.414-2.06-1.166-2.807zm-5.42 1.266l1.73 1.73-9.4 9.4-1.73-1.73 9.4-9.4zM9.173 18.984l-1.691-1.691 9.4-9.4 1.691 1.691-9.4 9.4zm10.121-10.14l-4.138-4.138c.526-.434 1.181-.671 1.872-.671.786 0 1.522.306 2.078.859.556.552.86 1.292.86 2.078 0 .695-.238 1.347-.672 1.872z"/>
    </g>
</svg>
