<svg xmlns="http://www.w3.org/2000/svg" width="24" height="24" viewBox="0 0 24 24">
    <g fill="none" fill-rule="evenodd">
        <path fill="#678189" d="M19.533 4.031c1.347 0 2.442 1.1 2.438 2.446v10.31c0 1.347-1.095 2.442-2.442 2.442H4.442C3.095 19.23 2 18.134 2 16.787V6.473c0-1.347 1.095-2.442 2.442-2.442zm-.004 1.12H4.442c-.731 0-1.326.595-1.326 1.326v10.31c0 .732.595 1.327 1.326 1.327h15.091c.731 0 1.327-.595 1.327-1.327h-.005V6.477c0-.731-.595-1.326-1.326-1.326zM4.446 6.333c.207-.232.558-.252.79-.046l5.347 4.785c.033.025.062.05.09.079 0 .004.005.008.009.012l1.314 1.174L18.73 6.29c.232-.206.583-.186.79.042.206.231.186.582-.042.789l-4.884 4.38L19.5 16.16c.223.21.231.566.02.79-.11.115-.256.173-.404.173-.137 0-.277-.05-.385-.153l-4.967-4.719-1.392 1.248c-.103.095-.24.145-.372.145s-.264-.046-.372-.14l-1.355-1.212-4.996 4.674c-.108.099-.244.149-.38.149-.15 0-.298-.062-.41-.178-.21-.227-.198-.579.025-.79l4.922-4.607-4.942-4.417c-.232-.207-.252-.558-.046-.79z"/>
    </g>
</svg>
