<?xml version="1.0" encoding="UTF-8"?>
<svg width="288px" height="315px" viewBox="0 0 288 315" version="1.1" xmlns="http://www.w3.org/2000/svg" xmlns:xlink="http://www.w3.org/1999/xlink">
    <!-- Generator: sketchtool 58 (101010) - https://sketch.com -->
    <title>DEC4C2E1-746E-43EC-BFF0-ABF364C23CDC</title>
    <desc>Created with sketchtool.</desc>
    <g id="Page-1" stroke="none" stroke-width="1" fill="none" fill-rule="evenodd">
        <g id="feed-empty" transform="translate(-707.000000, -519.000000)">
            <g id="Group-5" transform="translate(707.000000, 519.000000)">
                <g id="5853" transform="translate(28.000000, 15.000000)">
                    <path d="M32.4957895,49.5168421 L146.128947,49.5168421 L146.128947,35.9294737 L32.4957895,35.9294737 L32.4957895,49.5168421 Z M19.6484211,80.2594737 L146.128947,80.2594737 L146.128947,66.6726316 L19.6484211,66.6726316 L19.6484211,80.2594737 Z M19.6484211,111.007368 L73.0584211,111.007368 L73.0584211,97.4205263 L19.6484211,97.4205263 L19.6484211,111.007368 Z M18.7226316,141.750526 L73.0584211,141.750526 L73.0584211,128.168947 L18.7226316,128.168947 L18.7226316,141.750526 Z M19.6484211,172.495263 L73.0584211,172.495263 L73.0584211,158.913158 L19.6484211,158.913158 L19.6484211,172.495263 Z M6.87315789,0.306315789 C5.08631579,0.306315789 3.33315789,1.03105263 2.07105263,2.29684211 C0.804736842,3.56157895 0.0794736842,5.31263158 0.0794736842,7.10052632 L0.0794736842,210.203158 C0.0794736842,211.991053 0.804736842,213.742105 2.07105263,215.006316 C3.33315789,216.272632 5.08631579,216.997368 6.87315789,216.997368 L76.7305263,216.997368 L76.7305263,92.0584211 C76.7305263,90.8642105 77.2173684,89.6984211 78.0578947,88.8563158 C78.8984211,88.0105263 80.0694737,87.5289474 81.2631579,87.5289474 L165.693684,87.5289474 L165.693684,7.10052632 C165.693684,5.31263158 164.972105,3.56157895 163.706842,2.29684211 C162.440526,1.03105263 160.694211,0.306315789 158.897895,0.306315789 L6.87315789,0.306315789 L6.87315789,0.306315789 Z" id="Fill-3" fill="#BCE2C9"></path>
                    <polygon id="Fill-4" fill="#2E3537" points="32.4957895 49.5168421 146.128947 49.5168421 146.128947 35.9294737 32.4957895 35.9294737"></polygon>
                    <polygon id="Fill-5" fill="#2E3537" points="19.6484211 80.2594737 146.128947 80.2594737 146.128947 66.6726316 19.6484211 66.6726316"></polygon>
                    <polygon id="Fill-6" fill="#2E3537" points="19.6484211 111.007368 73.0584211 111.007368 73.0584211 97.4205263 19.6484211 97.4205263"></polygon>
                    <polygon id="Fill-7" fill="#2E3537" points="18.7226316 141.750526 73.0584211 141.750526 73.0584211 128.168947 18.7226316 128.168947"></polygon>
                    <polygon id="Fill-8" fill="#2E3537" points="19.6484211 172.495263 73.0584211 172.495263 73.0584211 158.913158 19.6484211 158.913158"></polygon>
                    <path d="M94.0394737,257.456316 L189.081053,257.456316 L189.081053,243.874211 L94.0394737,243.874211 L94.0394737,257.456316 Z M94.0394737,226.713684 L220.515789,226.713684 L220.515789,213.126316 L94.0394737,213.126316 L94.0394737,226.713684 Z M94.0394737,195.965263 L220.515789,195.965263 L220.515789,182.383158 L94.0394737,182.383158 L94.0394737,195.965263 Z M94.0394737,165.221053 L220.515789,165.221053 L220.515789,151.634737 L94.0394737,151.634737 L94.0394737,165.221053 Z M106.879474,134.472632 L220.515789,134.472632 L220.515789,120.887368 L106.879474,120.887368 L106.879474,134.472632 Z M85.7931579,290.632632 L228.755789,290.632632 L228.755789,96.59 L85.7931579,96.59 L85.7931579,290.632632 Z" id="Fill-9" fill="#FFFFFF"></path>
                    <path d="M85.7931579,290.632632 L228.755789,290.632632 L228.755789,96.59 L85.7931579,96.59 L85.7931579,290.632632 Z M165.693684,87.5289474 L81.2631579,87.5289474 C80.0694737,87.5289474 78.8984211,88.0105263 78.0578947,88.8563158 C77.2173684,89.6984211 76.7305263,90.8642105 76.7305263,92.0584211 L76.7305263,295.164211 C76.7305263,296.355263 77.2173684,297.524211 78.0578947,298.366316 C78.8984211,299.212105 80.0694737,299.693684 81.2631579,299.693684 L233.285263,299.693684 C234.48,299.693684 235.646842,299.212105 236.494737,298.366316 C237.338421,297.524211 237.815263,296.355263 237.815263,295.164211 L237.815263,92.0584211 C237.815263,90.8663158 237.338421,89.6984211 236.494737,88.8563158 C235.646842,88.0105263 234.48,87.5289474 233.285263,87.5289474 L165.693684,87.5289474 L165.693684,87.5289474 Z" id="Fill-10" fill="#88816C"></path>
                    <polygon id="Fill-11" fill="#E6CFC0" points="106.879474 134.472632 220.515789 134.472632 220.515789 120.887368 106.879474 120.887368"></polygon>
                    <polygon id="Fill-12" fill="#E6CFC0" points="94.0394737 165.221053 220.515789 165.221053 220.515789 151.634737 94.0394737 151.634737"></polygon>
                    <polygon id="Fill-13" fill="#E6CFC0" points="94.0394737 195.965263 220.515789 195.965263 220.515789 182.383158 94.0394737 182.383158"></polygon>
                    <polygon id="Fill-14" fill="#E6CFC0" points="94.0394737 226.713684 220.515789 226.713684 220.515789 213.126316 94.0394737 213.126316"></polygon>
                    <polygon id="Fill-15" fill="#E6CFC0" points="94.0394737 257.456316 189.081053 257.456316 189.081053 243.874211 94.0394737 243.874211"></polygon>
                </g>
                <g id="5625" opacity="0.501232329" transform="translate(218.000000, 0.000000)">
                    <path d="M11.31494,33.691 L33.84192,33.691 L33.84192,31.37974 L11.31494,31.37974 L11.31494,33.691 Z M11.31494,25.11782 L53.86318,25.11782 L53.86318,22.80628 L11.31494,22.80628 L11.31494,25.11782 Z M11.31494,16.54492 L53.86318,16.54492 L53.86318,14.23394 L11.31494,14.23394 L11.31494,16.54492 Z M1.28478,44.81344 L0.03822,45.84874 L18.17718,48.10428 C20.81212,49.1533 23.56088,49.90216 26.39406,50.36024 C27.34564,41.13872 37.14788,33.86474 49.07098,33.86474 C53.90224,33.86474 58.38266,35.06188 62.07082,37.09636 C64.37634,33.62002 65.68632,29.67916 65.68632,25.50198 C65.68632,11.4989 51.04512,0.10584 33.04714,0.10584 C15.04888,0.10584 0.40614,11.4989 0.40614,25.50198 C0.40614,30.52938 2.29222,35.37114 5.86446,39.54832 L5.83562,39.57044 L6.18464,39.94032 C5.78298,40.75526 3.42146,43.03544 1.28478,44.81344 L1.28478,44.81344 Z" id="Fill-3" fill="#2E3537"></path>
                    <path d="M28.1785,51.83402 C28.1785,60.71268 37.5529,67.93556 49.07098,67.93556 C51.61786,67.93556 54.12246,67.57632 56.51534,66.87002 L57.02368,66.7205 L62.8817,72.13416 L62.8817,63.8953 L63.27146,63.61544 C67.52326,60.56876 69.96178,56.27384 69.96178,51.83402 C69.96178,42.95606 60.58724,35.73248 49.07098,35.73248 C37.5529,35.73248 28.1785,42.95606 28.1785,51.83402" id="Fill-4" fill="#BCE2C9"></path>
                    <polygon id="Fill-5" fill="#E6CFC0" points="11.31494 16.54492 53.86318 16.54492 53.86318 14.23394 11.31494 14.23394"></polygon>
                    <polygon id="Fill-6" fill="#E6CFC0" points="11.31494 25.11782 53.86318 25.11782 53.86318 22.80628 11.31494 22.80628"></polygon>
                    <polygon id="Fill-7" fill="#E6CFC0" points="11.31494 33.691 33.84192 33.691 33.84192 31.37974 11.31494 31.37974"></polygon>
                </g>
                <path d="M56,268.819176 C56,269.238642 56,269.655596 56,270.075062 L55.9072765,270.504575 C55.7644321,271.690132 55.7017811,272.89327 55.4837555,274.061244 C54.9750291,276.794052 54.0302515,279.368619 52.6945315,281.815085 C51.0630985,284.811629 48.9655419,287.423872 46.5321758,289.772379 C44.0762553,292.14098 41.3496823,294.160445 38.4526985,295.946315 C35.1647722,297.965779 31.7390137,299.688855 28.1152779,301 L27.4060682,300.987441 C24.4364092,299.899844 21.5820281,298.551022 18.8855276,296.905812 C16.9759241,295.745373 15.1089233,294.509581 13.3095856,293.198436 C11.212029,291.671278 9.32497986,289.892944 7.58829321,287.948832 C5.77642531,285.929368 4.21265551,283.739102 2.98218921,281.322778 C1.35827441,278.140362 0.383424327,274.757005 0.142844357,271.175218 C0.120289985,270.811011 0.050120827,270.441781 0,270.075062 C0,269.655596 0,269.238642 0,268.819176 C0.0451087443,268.482599 0.0877114472,268.140998 0.127808109,267.80442 C0.428533071,265.310231 1.20791193,262.976794 2.51105343,260.831741 C3.69390495,258.877582 5.19001164,257.212277 7.04197619,255.886062 C9.01673678,254.461887 11.209523,253.54509 13.6278529,253.170836 C16.181509,252.776488 18.6599839,253.065342 21.0382171,254.032374 C23.699633,255.107412 25.9074555,256.825464 27.6917569,259.078524 L28.0125302,259.415101 L28.3909425,258.975541 C30.1677258,256.752623 32.3705361,255.077271 35.0018795,254.009768 C37.0017005,253.203489 39.0942451,252.869423 41.2594648,253.047759 C43.5700349,253.231119 45.7277365,253.901762 47.7225454,255.082295 C49.7374027,256.272875 51.4114383,257.837709 52.7697127,259.751679 C54.2156986,261.786214 55.1980668,264.021691 55.6541663,266.480716 C55.7970107,267.25183 55.8872281,268.038015 56,268.819176" id="Fill-4" fill="#88816C" opacity="0.602608817"></path>
            </g>
        </g>
    </g>
</svg>