<?xml version="1.0" encoding="UTF-8"?>
<svg width="429px" height="369px" viewBox="0 0 429 369" version="1.1" xmlns="http://www.w3.org/2000/svg" xmlns:xlink="http://www.w3.org/1999/xlink">
    <!-- Generator: sketchtool 58 (101010) - https://sketch.com -->
    <title>AC85FA5D-EBF5-43AF-A695-584797A2FE44</title>
    <desc>Created with sketchtool.</desc>
    <defs>
        <path d="M64.9912234,64.9912371 C64.3313624,65.650575 26.4945082,28.8831826 26.4945082,28.8831826 C25.8351639,28.2233279 25.8351639,27.154229 26.4945082,26.494891 C27.1543692,25.8350363 28.2234784,25.8350363 28.8828227,26.494891 C28.8828227,26.494891 65.6510845,64.3313824 64.9912234,64.9912371" id="path-1"></path>
        <path d="M54,90.5 C54,91.3289474 1.67494305,92 1.67494305,92 C0.749829157,92 0,91.3289474 0,90.5 C0,89.6715116 0.749829157,89 1.67494305,89 C1.67494305,89 54,89.6715116 54,90.5" id="path-3"></path>
        <path d="M64.9912234,115.008763 C65.6510845,115.668108 28.8828227,153.505492 28.8828227,153.505492 C28.2234784,154.164836 27.1543692,154.164836 26.4945082,153.505492 C25.8351639,152.846147 25.8351639,151.776521 26.4945082,151.117176 C26.4945082,151.117176 64.3313624,114.349419 64.9912234,115.008763" id="path-5"></path>
        <path d="M89.5002295,126 C90.3285911,126 91,178.325057 91,178.325057 C91,179.250171 90.3285911,180 89.5002295,180 C88.6714089,180 88,179.250171 88,178.325057 C88,178.325057 88.6714089,126 89.5002295,126" id="path-7"></path>
        <path d="M115.008763,115.008763 C115.668615,114.349419 153.505498,151.117176 153.505498,151.117176 C154.164834,151.776521 154.164834,152.846147 153.505498,153.505492 C152.845646,154.164836 151.77655,154.164836 151.116698,153.505492 C151.116698,153.505492 114.349427,115.668108 115.008763,115.008763" id="path-9"></path>
        <path d="M126,90.5 C126,89.6715116 178.32456,89 178.32456,89 C179.250178,89 180,89.6715116 180,90.5 C180,91.3289474 179.250178,92 178.32456,92 C178.32456,92 126,91.3289474 126,90.5" id="path-11"></path>
        <path d="M115.008763,64.9912371 C114.349427,64.3313824 151.116698,26.494891 151.116698,26.494891 C151.77655,25.8350363 152.845646,25.8350363 153.505498,26.494891 C154.164834,27.154229 154.164834,28.2233279 153.505498,28.8831826 C153.505498,28.8831826 115.668615,65.650575 115.008763,64.9912371" id="path-13"></path>
        <path d="M105.024058,64.9950691 C104.36608,64.6093336 117.422883,41.6702407 117.422883,41.6702407 C117.813475,41.0204447 118.662817,40.8060897 119.32132,41.1918251 C119.979298,41.5775606 120.196352,42.4168588 119.805759,43.0666548 C119.805759,43.0666548 105.682561,65.3802868 105.024058,64.9950691" id="path-15"></path>
        <path d="M82.9367754,61.9989655 C82.1991643,62.1868639 75.0431894,36.7159638 75.0431894,36.7159638 C74.8548742,35.9799851 75.2998405,35.2304736 76.0379732,35.0430957 C76.7755842,34.8551974 77.5257149,35.2991788 77.7145516,36.0351575 C77.7145516,36.0351575 83.6743864,61.8115876 82.9367754,61.9989655" id="path-17"></path>
        <path d="M64.9950559,74.9759412 C64.6098301,75.6339304 41.6702548,62.5769079 41.6702548,62.5769079 C41.0204451,62.186833 40.8060856,61.3369521 41.1918292,60.6789629 C41.577055,60.0204494 42.4163709,59.8039159 43.0661805,60.1939908 C43.0661805,60.1939908 65.3807995,74.3174277 64.9950559,74.9759412" id="path-19"></path>
        <path d="M61.9989655,97.0632325 C62.1868603,97.800875 36.7159307,104.956633 36.7159307,104.956633 C35.9799662,105.145478 35.2309897,104.699971 35.0430949,103.962329 C34.8552001,103.224165 35.2991731,102.474002 36.0351376,102.285157 C36.0351376,102.285157 61.8110708,96.3255899 61.9989655,97.0632325" id="path-21"></path>
        <path d="M74.975903,115.004931 C75.6344268,115.390671 62.577201,138.329521 62.577201,138.329521 C62.1865958,138.979325 61.3367017,139.1942 60.6787022,138.807942 C60.0207028,138.42272 59.8036416,137.583412 60.1942469,136.933608 C60.1942469,136.933608 74.3179036,114.619709 74.975903,115.004931" id="path-23"></path>
        <path d="M97.0632249,118.00104 C97.8008389,117.812621 104.956842,143.284037 104.956842,143.284037 C105.145158,144.020015 104.699669,144.769006 103.962055,144.956904 C103.224441,145.144803 102.473785,144.700821 102.285469,143.964843 C102.285469,143.964843 96.3256109,118.188418 97.0632249,118.00104" id="path-25"></path>
        <path d="M115.004931,105.02406 C115.390666,104.366071 138.329759,117.422568 138.329759,117.422568 C138.979555,117.813167 139.19391,118.663048 138.808175,119.321037 C138.422439,119.979551 137.583659,120.196084 136.933345,119.806009 C136.933345,119.806009 114.619713,105.682049 115.004931,105.02406" id="path-27"></path>
        <path d="M118.00104,82.93677 C117.812623,82.1991565 143.283875,75.0431577 143.283875,75.0431577 C144.020369,74.8548419 144.769355,75.3003313 144.956732,76.0379448 C145.145149,76.7755583 144.70065,77.5262131 143.964676,77.7150505 C143.964676,77.7150505 118.188937,83.6743836 118.00104,82.93677" id="path-29"></path>
        <path d="M99.0587128,55.9990012 C98.1674352,55.7725212 107.71841,17.2143034 107.71841,17.2143034 C107.951054,16.3466402 108.861718,15.8268584 109.752472,16.0528283 C110.643749,16.2787982 111.178202,17.1658448 110.945558,18.0329979 C110.945558,18.0329979 99.9499903,56.2249711 99.0587128,55.9990012" id="path-31"></path>
        <path d="M71.9772223,59.9954722 C71.1935803,60.4505131 50.2265044,26.4556763 50.2265044,26.4556763 C49.7664507,25.6793396 50.0295601,24.6800944 50.8132021,24.224541 C51.5968441,23.7684752 52.60431,24.0293038 53.0638467,24.806153 C53.0638467,24.806153 72.7608643,59.5394064 71.9772223,59.9954722" id="path-33"></path>
        <path d="M55.9990012,80.9413509 C55.7730284,81.8321092 17.2138107,72.2816077 17.2138107,72.2816077 C16.3466466,72.0494866 15.8268582,71.1382932 16.052831,70.2475348 C16.2788037,69.3562525 17.1653515,68.8217975 18.0325157,69.0544426 C18.0325157,69.0544426 56.224974,80.0500686 55.9990012,80.9413509" id="path-35"></path>
        <path d="M59.995462,108.022808 C60.4510181,108.805954 26.4559759,129.773604 26.4559759,129.773604 C25.679122,130.233153 24.6803832,129.971071 24.2243146,129.18689 C23.7687585,128.403227 24.0290763,127.395733 24.8059301,126.936184 C24.8059301,126.936184 59.5393934,107.238628 59.995462,108.022808" id="path-37"></path>
        <path d="M80.9412862,124.000999 C81.8325794,124.227479 72.2814381,162.785189 72.2814381,162.785189 C72.0493142,163.653362 71.1386337,164.173144 70.2473406,163.947174 C69.3565714,163.720694 68.82211,162.834157 69.0542339,161.967004 C69.0542339,161.967004 80.0499931,123.775029 80.9412862,124.000999" id="path-39"></path>
        <path d="M108.022778,120.004528 C108.806429,119.549487 129.773723,153.544324 129.773723,153.544324 C130.233265,154.32066 129.970669,155.319393 129.187019,155.775459 C128.403369,156.231525 127.395376,155.970696 126.935834,155.193847 C126.935834,155.193847 107.239128,120.460594 108.022778,120.004528" id="path-41"></path>
        <path d="M124.000999,99.0587145 C124.226972,98.1674107 162.785681,107.718666 162.785681,107.718666 C163.653355,107.950793 164.173144,108.862008 163.947171,109.752788 C163.721198,110.644091 162.83465,111.177511 161.966976,110.945908 C161.966976,110.945908 123.775026,99.9500182 124.000999,99.0587145" id="path-43"></path>
        <path d="M120.004538,71.9771925 C119.548982,71.1940602 153.544024,50.2262767 153.544024,50.2262767 C154.320878,49.7667358 155.319617,50.0293306 155.775685,50.8129797 C156.231242,51.5966289 155.970924,52.6046208 155.19407,53.0641618 C155.19407,53.0641618 120.460094,72.7613585 120.004538,71.9771925" id="path-45"></path>
        <path d="M64.9912234,64.9912371 C64.3313624,65.650575 26.4945082,28.8831826 26.4945082,28.8831826 C25.8351639,28.2233279 25.8351639,27.154229 26.4945082,26.494891 C27.1543692,25.8350363 28.2234784,25.8350363 28.8828227,26.494891 C28.8828227,26.494891 65.6510845,64.3313824 64.9912234,64.9912371" id="path-47"></path>
        <path d="M54,90.5 C54,91.3289474 1.67494305,92 1.67494305,92 C0.749829157,92 0,91.3289474 0,90.5 C0,89.6715116 0.749829157,89 1.67494305,89 C1.67494305,89 54,89.6715116 54,90.5" id="path-49"></path>
        <path d="M64.9912234,115.008763 C65.6510845,115.668108 28.8828227,153.505492 28.8828227,153.505492 C28.2234784,154.164836 27.1543692,154.164836 26.4945082,153.505492 C25.8351639,152.846147 25.8351639,151.776521 26.4945082,151.117176 C26.4945082,151.117176 64.3313624,114.349419 64.9912234,115.008763" id="path-51"></path>
        <path d="M89.5002295,126 C90.3285911,126 91,178.325057 91,178.325057 C91,179.250171 90.3285911,180 89.5002295,180 C88.6714089,180 88,179.250171 88,178.325057 C88,178.325057 88.6714089,126 89.5002295,126" id="path-53"></path>
        <path d="M115.008763,115.008763 C115.668615,114.349419 153.505498,151.117176 153.505498,151.117176 C154.164834,151.776521 154.164834,152.846147 153.505498,153.505492 C152.845646,154.164836 151.77655,154.164836 151.116698,153.505492 C151.116698,153.505492 114.349427,115.668108 115.008763,115.008763" id="path-55"></path>
        <path d="M126,90.5 C126,89.6715116 178.32456,89 178.32456,89 C179.250178,89 180,89.6715116 180,90.5 C180,91.3289474 179.250178,92 178.32456,92 C178.32456,92 126,91.3289474 126,90.5" id="path-57"></path>
        <path d="M115.008763,64.9912371 C114.349427,64.3313824 151.116698,26.494891 151.116698,26.494891 C151.77655,25.8350363 152.845646,25.8350363 153.505498,26.494891 C154.164834,27.154229 154.164834,28.2233279 153.505498,28.8831826 C153.505498,28.8831826 115.668615,65.650575 115.008763,64.9912371" id="path-59"></path>
        <path d="M105.024058,64.9950691 C104.36608,64.6093336 117.422883,41.6702407 117.422883,41.6702407 C117.813475,41.0204447 118.662817,40.8060897 119.32132,41.1918251 C119.979298,41.5775606 120.196352,42.4168588 119.805759,43.0666548 C119.805759,43.0666548 105.682561,65.3802868 105.024058,64.9950691" id="path-61"></path>
        <path d="M82.9367754,61.9989655 C82.1991643,62.1868639 75.0431894,36.7159638 75.0431894,36.7159638 C74.8548742,35.9799851 75.2998405,35.2304736 76.0379732,35.0430957 C76.7755842,34.8551974 77.5257149,35.2991788 77.7145516,36.0351575 C77.7145516,36.0351575 83.6743864,61.8115876 82.9367754,61.9989655" id="path-63"></path>
        <path d="M64.9950559,74.9759412 C64.6098301,75.6339304 41.6702548,62.5769079 41.6702548,62.5769079 C41.0204451,62.186833 40.8060856,61.3369521 41.1918292,60.6789629 C41.577055,60.0204494 42.4163709,59.8039159 43.0661805,60.1939908 C43.0661805,60.1939908 65.3807995,74.3174277 64.9950559,74.9759412" id="path-65"></path>
        <path d="M61.9989655,97.0632325 C62.1868603,97.800875 36.7159307,104.956633 36.7159307,104.956633 C35.9799662,105.145478 35.2309897,104.699971 35.0430949,103.962329 C34.8552001,103.224165 35.2991731,102.474002 36.0351376,102.285157 C36.0351376,102.285157 61.8110708,96.3255899 61.9989655,97.0632325" id="path-67"></path>
        <path d="M74.975903,115.004931 C75.6344268,115.390671 62.577201,138.329521 62.577201,138.329521 C62.1865958,138.979325 61.3367017,139.1942 60.6787022,138.807942 C60.0207028,138.42272 59.8036416,137.583412 60.1942469,136.933608 C60.1942469,136.933608 74.3179036,114.619709 74.975903,115.004931" id="path-69"></path>
        <path d="M97.0632249,118.00104 C97.8008389,117.812621 104.956842,143.284037 104.956842,143.284037 C105.145158,144.020015 104.699669,144.769006 103.962055,144.956904 C103.224441,145.144803 102.473785,144.700821 102.285469,143.964843 C102.285469,143.964843 96.3256109,118.188418 97.0632249,118.00104" id="path-71"></path>
        <path d="M115.004931,105.02406 C115.390666,104.366071 138.329759,117.422568 138.329759,117.422568 C138.979555,117.813167 139.19391,118.663048 138.808175,119.321037 C138.422439,119.979551 137.583659,120.196084 136.933345,119.806009 C136.933345,119.806009 114.619713,105.682049 115.004931,105.02406" id="path-73"></path>
        <path d="M118.00104,82.93677 C117.812623,82.1991565 143.283875,75.0431577 143.283875,75.0431577 C144.020369,74.8548419 144.769355,75.3003313 144.956732,76.0379448 C145.145149,76.7755583 144.70065,77.5262131 143.964676,77.7150505 C143.964676,77.7150505 118.188937,83.6743836 118.00104,82.93677" id="path-75"></path>
        <path d="M99.0587128,55.9990012 C98.1674352,55.7725212 107.71841,17.2143034 107.71841,17.2143034 C107.951054,16.3466402 108.861718,15.8268584 109.752472,16.0528283 C110.643749,16.2787982 111.178202,17.1658448 110.945558,18.0329979 C110.945558,18.0329979 99.9499903,56.2249711 99.0587128,55.9990012" id="path-77"></path>
        <path d="M71.9772223,59.9954722 C71.1935803,60.4505131 50.2265044,26.4556763 50.2265044,26.4556763 C49.7664507,25.6793396 50.0295601,24.6800944 50.8132021,24.224541 C51.5968441,23.7684752 52.60431,24.0293038 53.0638467,24.806153 C53.0638467,24.806153 72.7608643,59.5394064 71.9772223,59.9954722" id="path-79"></path>
        <path d="M55.9990012,80.9413509 C55.7730284,81.8321092 17.2138107,72.2816077 17.2138107,72.2816077 C16.3466466,72.0494866 15.8268582,71.1382932 16.052831,70.2475348 C16.2788037,69.3562525 17.1653515,68.8217975 18.0325157,69.0544426 C18.0325157,69.0544426 56.224974,80.0500686 55.9990012,80.9413509" id="path-81"></path>
        <path d="M59.995462,108.022808 C60.4510181,108.805954 26.4559759,129.773604 26.4559759,129.773604 C25.679122,130.233153 24.6803832,129.971071 24.2243146,129.18689 C23.7687585,128.403227 24.0290763,127.395733 24.8059301,126.936184 C24.8059301,126.936184 59.5393934,107.238628 59.995462,108.022808" id="path-83"></path>
        <path d="M80.9412862,124.000999 C81.8325794,124.227479 72.2814381,162.785189 72.2814381,162.785189 C72.0493142,163.653362 71.1386337,164.173144 70.2473406,163.947174 C69.3565714,163.720694 68.82211,162.834157 69.0542339,161.967004 C69.0542339,161.967004 80.0499931,123.775029 80.9412862,124.000999" id="path-85"></path>
        <path d="M108.022778,120.004528 C108.806429,119.549487 129.773723,153.544324 129.773723,153.544324 C130.233265,154.32066 129.970669,155.319393 129.187019,155.775459 C128.403369,156.231525 127.395376,155.970696 126.935834,155.193847 C126.935834,155.193847 107.239128,120.460594 108.022778,120.004528" id="path-87"></path>
        <path d="M124.000999,99.0587145 C124.226972,98.1674107 162.785681,107.718666 162.785681,107.718666 C163.653355,107.950793 164.173144,108.862008 163.947171,109.752788 C163.721198,110.644091 162.83465,111.177511 161.966976,110.945908 C161.966976,110.945908 123.775026,99.9500182 124.000999,99.0587145" id="path-89"></path>
        <path d="M120.004538,71.9771925 C119.548982,71.1940602 153.544024,50.2262767 153.544024,50.2262767 C154.320878,49.7667358 155.319617,50.0293306 155.775685,50.8129797 C156.231242,51.5966289 155.970924,52.6046208 155.19407,53.0641618 C155.19407,53.0641618 120.460094,72.7613585 120.004538,71.9771925" id="path-91"></path>
    </defs>
    <g id="Page-1" stroke="none" stroke-width="1" fill="none" fill-rule="evenodd">
        <g id="events-main-screen-empty" transform="translate(-640.000000, -390.000000)">
            <g id="Group-5" transform="translate(640.000000, 390.000000)">
                <g id="Group-1">
                    <g id="Group-442" opacity="0.203194754" transform="translate(249.000000, 0.000000)">
                        <path d="M89.5002295,54 C88.6714089,54 88,1.67543968 88,1.67543968 C88,0.74982204 88.6714089,0 89.5002295,0 C90.3285911,0 91,0.74982204 91,1.67543968 C91,1.67543968 90.3285911,54 89.5002295,54" id="Clip-233"></path>
                        <path d="M89.5002295,54 C88.6714089,54 88,1.67543968 88,1.67543968 C88,0.74982204 88.6714089,0 89.5002295,0 C90.3285911,0 91,0.74982204 91,1.67543968 C91,1.67543968 90.3285911,54 89.5002295,54" id="Fill-232" fill="#2E3537"></path>
                        <mask id="mask-2" fill="white">
                            <use xlink:href="#path-1"></use>
                        </mask>
                        <g id="Clip-236"></g>
                        <path d="M64.9912234,64.9912371 C64.3313624,65.650575 26.4945082,28.8831826 26.4945082,28.8831826 C25.8351639,28.2233279 25.8351639,27.154229 26.4945082,26.494891 C27.1543692,25.8350363 28.2234784,25.8350363 28.8828227,26.494891 C28.8828227,26.494891 65.6510845,64.3313824 64.9912234,64.9912371" id="Fill-235" fill="#2E3537"></path>
                        <mask id="mask-4" fill="white">
                            <use xlink:href="#path-3"></use>
                        </mask>
                        <g id="Clip-239"></g>
                        <path d="M54,90.5 C54,91.3289474 1.67494305,92 1.67494305,92 C0.749829157,92 0,91.3289474 0,90.5 C0,89.6715116 0.749829157,89 1.67494305,89 C1.67494305,89 54,89.6715116 54,90.5" id="Fill-238" fill="#2E3537"></path>
                        <mask id="mask-6" fill="white">
                            <use xlink:href="#path-5"></use>
                        </mask>
                        <g id="Clip-242"></g>
                        <path d="M64.9912234,115.008763 C65.6510845,115.668108 28.8828227,153.505492 28.8828227,153.505492 C28.2234784,154.164836 27.1543692,154.164836 26.4945082,153.505492 C25.8351639,152.846147 25.8351639,151.776521 26.4945082,151.117176 C26.4945082,151.117176 64.3313624,114.349419 64.9912234,115.008763" id="Fill-241" fill="#2E3537"></path>
                        <mask id="mask-8" fill="white">
                            <use xlink:href="#path-7"></use>
                        </mask>
                        <g id="Clip-245"></g>
                        <path d="M89.5002295,126 C90.3285911,126 91,178.325057 91,178.325057 C91,179.250171 90.3285911,180 89.5002295,180 C88.6714089,180 88,179.250171 88,178.325057 C88,178.325057 88.6714089,126 89.5002295,126" id="Fill-244" fill="#2E3537"></path>
                        <mask id="mask-10" fill="white">
                            <use xlink:href="#path-9"></use>
                        </mask>
                        <g id="Clip-248"></g>
                        <path d="M115.008763,115.008763 C115.668615,114.349419 153.505498,151.117176 153.505498,151.117176 C154.164834,151.776521 154.164834,152.846147 153.505498,153.505492 C152.845646,154.164836 151.77655,154.164836 151.116698,153.505492 C151.116698,153.505492 114.349427,115.668108 115.008763,115.008763" id="Fill-247" fill="#2E3537"></path>
                        <mask id="mask-12" fill="white">
                            <use xlink:href="#path-11"></use>
                        </mask>
                        <g id="Clip-251"></g>
                        <path d="M126,90.5 C126,89.6715116 178.32456,89 178.32456,89 C179.250178,89 180,89.6715116 180,90.5 C180,91.3289474 179.250178,92 178.32456,92 C178.32456,92 126,91.3289474 126,90.5" id="Fill-250" fill="#2E3537"></path>
                        <mask id="mask-14" fill="white">
                            <use xlink:href="#path-13"></use>
                        </mask>
                        <g id="Clip-254"></g>
                        <path d="M115.008763,64.9912371 C114.349427,64.3313824 151.116698,26.494891 151.116698,26.494891 C151.77655,25.8350363 152.845646,25.8350363 153.505498,26.494891 C154.164834,27.154229 154.164834,28.2233279 153.505498,28.8831826 C153.505498,28.8831826 115.668615,65.650575 115.008763,64.9912371" id="Fill-253" fill="#2E3537"></path>
                        <mask id="mask-16" fill="white">
                            <use xlink:href="#path-15"></use>
                        </mask>
                        <g id="Clip-257"></g>
                        <path d="M105.024058,64.9950691 C104.36608,64.6093336 117.422883,41.6702407 117.422883,41.6702407 C117.813475,41.0204447 118.662817,40.8060897 119.32132,41.1918251 C119.979298,41.5775606 120.196352,42.4168588 119.805759,43.0666548 C119.805759,43.0666548 105.682561,65.3802868 105.024058,64.9950691" id="Fill-256" fill="#2E3537"></path>
                        <mask id="mask-18" fill="white">
                            <use xlink:href="#path-17"></use>
                        </mask>
                        <g id="Clip-260"></g>
                        <path d="M82.9367754,61.9989655 C82.1991643,62.1868639 75.0431894,36.7159638 75.0431894,36.7159638 C74.8548742,35.9799851 75.2998405,35.2304736 76.0379732,35.0430957 C76.7755842,34.8551974 77.5257149,35.2991788 77.7145516,36.0351575 C77.7145516,36.0351575 83.6743864,61.8115876 82.9367754,61.9989655" id="Fill-259" fill="#2E3537"></path>
                        <mask id="mask-20" fill="white">
                            <use xlink:href="#path-19"></use>
                        </mask>
                        <g id="Clip-263"></g>
                        <path d="M64.9950559,74.9759412 C64.6098301,75.6339304 41.6702548,62.5769079 41.6702548,62.5769079 C41.0204451,62.186833 40.8060856,61.3369521 41.1918292,60.6789629 C41.577055,60.0204494 42.4163709,59.8039159 43.0661805,60.1939908 C43.0661805,60.1939908 65.3807995,74.3174277 64.9950559,74.9759412" id="Fill-262" fill="#2E3537"></path>
                        <mask id="mask-22" fill="white">
                            <use xlink:href="#path-21"></use>
                        </mask>
                        <g id="Clip-266"></g>
                        <path d="M61.9989655,97.0632325 C62.1868603,97.800875 36.7159307,104.956633 36.7159307,104.956633 C35.9799662,105.145478 35.2309897,104.699971 35.0430949,103.962329 C34.8552001,103.224165 35.2991731,102.474002 36.0351376,102.285157 C36.0351376,102.285157 61.8110708,96.3255899 61.9989655,97.0632325" id="Fill-265" fill="#2E3537"></path>
                        <mask id="mask-24" fill="white">
                            <use xlink:href="#path-23"></use>
                        </mask>
                        <g id="Clip-269"></g>
                        <path d="M74.975903,115.004931 C75.6344268,115.390671 62.577201,138.329521 62.577201,138.329521 C62.1865958,138.979325 61.3367017,139.1942 60.6787022,138.807942 C60.0207028,138.42272 59.8036416,137.583412 60.1942469,136.933608 C60.1942469,136.933608 74.3179036,114.619709 74.975903,115.004931" id="Fill-268" fill="#2E3537"></path>
                        <mask id="mask-26" fill="white">
                            <use xlink:href="#path-25"></use>
                        </mask>
                        <g id="Clip-272"></g>
                        <path d="M97.0632249,118.00104 C97.8008389,117.812621 104.956842,143.284037 104.956842,143.284037 C105.145158,144.020015 104.699669,144.769006 103.962055,144.956904 C103.224441,145.144803 102.473785,144.700821 102.285469,143.964843 C102.285469,143.964843 96.3256109,118.188418 97.0632249,118.00104" id="Fill-271" fill="#2E3537"></path>
                        <mask id="mask-28" fill="white">
                            <use xlink:href="#path-27"></use>
                        </mask>
                        <g id="Clip-275"></g>
                        <path d="M115.004931,105.02406 C115.390666,104.366071 138.329759,117.422568 138.329759,117.422568 C138.979555,117.813167 139.19391,118.663048 138.808175,119.321037 C138.422439,119.979551 137.583659,120.196084 136.933345,119.806009 C136.933345,119.806009 114.619713,105.682049 115.004931,105.02406" id="Fill-274" fill="#2E3537"></path>
                        <mask id="mask-30" fill="white">
                            <use xlink:href="#path-29"></use>
                        </mask>
                        <g id="Clip-278"></g>
                        <path d="M118.00104,82.93677 C117.812623,82.1991565 143.283875,75.0431577 143.283875,75.0431577 C144.020369,74.8548419 144.769355,75.3003313 144.956732,76.0379448 C145.145149,76.7755583 144.70065,77.5262131 143.964676,77.7150505 C143.964676,77.7150505 118.188937,83.6743836 118.00104,82.93677" id="Fill-277" fill="#2E3537"></path>
                        <mask id="mask-32" fill="white">
                            <use xlink:href="#path-31"></use>
                        </mask>
                        <g id="Clip-281"></g>
                        <path d="M99.0587128,55.9990012 C98.1674352,55.7725212 107.71841,17.2143034 107.71841,17.2143034 C107.951054,16.3466402 108.861718,15.8268584 109.752472,16.0528283 C110.643749,16.2787982 111.178202,17.1658448 110.945558,18.0329979 C110.945558,18.0329979 99.9499903,56.2249711 99.0587128,55.9990012" id="Fill-280" fill="#2E3537"></path>
                        <mask id="mask-34" fill="white">
                            <use xlink:href="#path-33"></use>
                        </mask>
                        <g id="Clip-284"></g>
                        <path d="M71.9772223,59.9954722 C71.1935803,60.4505131 50.2265044,26.4556763 50.2265044,26.4556763 C49.7664507,25.6793396 50.0295601,24.6800944 50.8132021,24.224541 C51.5968441,23.7684752 52.60431,24.0293038 53.0638467,24.806153 C53.0638467,24.806153 72.7608643,59.5394064 71.9772223,59.9954722" id="Fill-283" fill="#2E3537"></path>
                        <mask id="mask-36" fill="white">
                            <use xlink:href="#path-35"></use>
                        </mask>
                        <g id="Clip-287"></g>
                        <path d="M55.9990012,80.9413509 C55.7730284,81.8321092 17.2138107,72.2816077 17.2138107,72.2816077 C16.3466466,72.0494866 15.8268582,71.1382932 16.052831,70.2475348 C16.2788037,69.3562525 17.1653515,68.8217975 18.0325157,69.0544426 C18.0325157,69.0544426 56.224974,80.0500686 55.9990012,80.9413509" id="Fill-286" fill="#2E3537"></path>
                        <mask id="mask-38" fill="white">
                            <use xlink:href="#path-37"></use>
                        </mask>
                        <g id="Clip-290"></g>
                        <path d="M59.995462,108.022808 C60.4510181,108.805954 26.4559759,129.773604 26.4559759,129.773604 C25.679122,130.233153 24.6803832,129.971071 24.2243146,129.18689 C23.7687585,128.403227 24.0290763,127.395733 24.8059301,126.936184 C24.8059301,126.936184 59.5393934,107.238628 59.995462,108.022808" id="Fill-289" fill="#2E3537"></path>
                        <mask id="mask-40" fill="white">
                            <use xlink:href="#path-39"></use>
                        </mask>
                        <g id="Clip-293"></g>
                        <path d="M80.9412862,124.000999 C81.8325794,124.227479 72.2814381,162.785189 72.2814381,162.785189 C72.0493142,163.653362 71.1386337,164.173144 70.2473406,163.947174 C69.3565714,163.720694 68.82211,162.834157 69.0542339,161.967004 C69.0542339,161.967004 80.0499931,123.775029 80.9412862,124.000999" id="Fill-292" fill="#2E3537"></path>
                        <mask id="mask-42" fill="white">
                            <use xlink:href="#path-41"></use>
                        </mask>
                        <g id="Clip-296"></g>
                        <path d="M108.022778,120.004528 C108.806429,119.549487 129.773723,153.544324 129.773723,153.544324 C130.233265,154.32066 129.970669,155.319393 129.187019,155.775459 C128.403369,156.231525 127.395376,155.970696 126.935834,155.193847 C126.935834,155.193847 107.239128,120.460594 108.022778,120.004528" id="Fill-295" fill="#2E3537"></path>
                        <mask id="mask-44" fill="white">
                            <use xlink:href="#path-43"></use>
                        </mask>
                        <g id="Clip-299"></g>
                        <path d="M124.000999,99.0587145 C124.226972,98.1674107 162.785681,107.718666 162.785681,107.718666 C163.653355,107.950793 164.173144,108.862008 163.947171,109.752788 C163.721198,110.644091 162.83465,111.177511 161.966976,110.945908 C161.966976,110.945908 123.775026,99.9500182 124.000999,99.0587145" id="Fill-298" fill="#2E3537"></path>
                        <mask id="mask-46" fill="white">
                            <use xlink:href="#path-45"></use>
                        </mask>
                        <g id="Clip-302"></g>
                        <path d="M120.004538,71.9771925 C119.548982,71.1940602 153.544024,50.2262767 153.544024,50.2262767 C154.320878,49.7667358 155.319617,50.0293306 155.775685,50.8129797 C156.231242,51.5966289 155.970924,52.6046208 155.19407,53.0641618 C155.19407,53.0641618 120.460094,72.7613585 120.004538,71.9771925" id="Fill-301" fill="#2E3537"></path>
                    </g>
                    <g id="Group-442-Copy" opacity="0.201357887" transform="translate(0.000000, 189.000000)">
                        <path d="M89.5002295,54 C88.6714089,54 88,1.67543968 88,1.67543968 C88,0.74982204 88.6714089,0 89.5002295,0 C90.3285911,0 91,0.74982204 91,1.67543968 C91,1.67543968 90.3285911,54 89.5002295,54" id="Clip-233"></path>
                        <path d="M89.5002295,54 C88.6714089,54 88,1.67543968 88,1.67543968 C88,0.74982204 88.6714089,0 89.5002295,0 C90.3285911,0 91,0.74982204 91,1.67543968 C91,1.67543968 90.3285911,54 89.5002295,54" id="Fill-232" fill="#2E3537"></path>
                        <mask id="mask-48" fill="white">
                            <use xlink:href="#path-47"></use>
                        </mask>
                        <g id="Clip-236"></g>
                        <path d="M64.9912234,64.9912371 C64.3313624,65.650575 26.4945082,28.8831826 26.4945082,28.8831826 C25.8351639,28.2233279 25.8351639,27.154229 26.4945082,26.494891 C27.1543692,25.8350363 28.2234784,25.8350363 28.8828227,26.494891 C28.8828227,26.494891 65.6510845,64.3313824 64.9912234,64.9912371" id="Fill-235" fill="#2E3537"></path>
                        <mask id="mask-50" fill="white">
                            <use xlink:href="#path-49"></use>
                        </mask>
                        <g id="Clip-239"></g>
                        <path d="M54,90.5 C54,91.3289474 1.67494305,92 1.67494305,92 C0.749829157,92 0,91.3289474 0,90.5 C0,89.6715116 0.749829157,89 1.67494305,89 C1.67494305,89 54,89.6715116 54,90.5" id="Fill-238" fill="#2E3537"></path>
                        <mask id="mask-52" fill="white">
                            <use xlink:href="#path-51"></use>
                        </mask>
                        <g id="Clip-242"></g>
                        <path d="M64.9912234,115.008763 C65.6510845,115.668108 28.8828227,153.505492 28.8828227,153.505492 C28.2234784,154.164836 27.1543692,154.164836 26.4945082,153.505492 C25.8351639,152.846147 25.8351639,151.776521 26.4945082,151.117176 C26.4945082,151.117176 64.3313624,114.349419 64.9912234,115.008763" id="Fill-241" fill="#2E3537"></path>
                        <mask id="mask-54" fill="white">
                            <use xlink:href="#path-53"></use>
                        </mask>
                        <g id="Clip-245"></g>
                        <path d="M89.5002295,126 C90.3285911,126 91,178.325057 91,178.325057 C91,179.250171 90.3285911,180 89.5002295,180 C88.6714089,180 88,179.250171 88,178.325057 C88,178.325057 88.6714089,126 89.5002295,126" id="Fill-244" fill="#2E3537"></path>
                        <mask id="mask-56" fill="white">
                            <use xlink:href="#path-55"></use>
                        </mask>
                        <g id="Clip-248"></g>
                        <path d="M115.008763,115.008763 C115.668615,114.349419 153.505498,151.117176 153.505498,151.117176 C154.164834,151.776521 154.164834,152.846147 153.505498,153.505492 C152.845646,154.164836 151.77655,154.164836 151.116698,153.505492 C151.116698,153.505492 114.349427,115.668108 115.008763,115.008763" id="Fill-247" fill="#2E3537"></path>
                        <mask id="mask-58" fill="white">
                            <use xlink:href="#path-57"></use>
                        </mask>
                        <g id="Clip-251"></g>
                        <path d="M126,90.5 C126,89.6715116 178.32456,89 178.32456,89 C179.250178,89 180,89.6715116 180,90.5 C180,91.3289474 179.250178,92 178.32456,92 C178.32456,92 126,91.3289474 126,90.5" id="Fill-250" fill="#2E3537"></path>
                        <mask id="mask-60" fill="white">
                            <use xlink:href="#path-59"></use>
                        </mask>
                        <g id="Clip-254"></g>
                        <path d="M115.008763,64.9912371 C114.349427,64.3313824 151.116698,26.494891 151.116698,26.494891 C151.77655,25.8350363 152.845646,25.8350363 153.505498,26.494891 C154.164834,27.154229 154.164834,28.2233279 153.505498,28.8831826 C153.505498,28.8831826 115.668615,65.650575 115.008763,64.9912371" id="Fill-253" fill="#2E3537"></path>
                        <mask id="mask-62" fill="white">
                            <use xlink:href="#path-61"></use>
                        </mask>
                        <g id="Clip-257"></g>
                        <path d="M105.024058,64.9950691 C104.36608,64.6093336 117.422883,41.6702407 117.422883,41.6702407 C117.813475,41.0204447 118.662817,40.8060897 119.32132,41.1918251 C119.979298,41.5775606 120.196352,42.4168588 119.805759,43.0666548 C119.805759,43.0666548 105.682561,65.3802868 105.024058,64.9950691" id="Fill-256" fill="#2E3537"></path>
                        <mask id="mask-64" fill="white">
                            <use xlink:href="#path-63"></use>
                        </mask>
                        <g id="Clip-260"></g>
                        <path d="M82.9367754,61.9989655 C82.1991643,62.1868639 75.0431894,36.7159638 75.0431894,36.7159638 C74.8548742,35.9799851 75.2998405,35.2304736 76.0379732,35.0430957 C76.7755842,34.8551974 77.5257149,35.2991788 77.7145516,36.0351575 C77.7145516,36.0351575 83.6743864,61.8115876 82.9367754,61.9989655" id="Fill-259" fill="#2E3537"></path>
                        <mask id="mask-66" fill="white">
                            <use xlink:href="#path-65"></use>
                        </mask>
                        <g id="Clip-263"></g>
                        <path d="M64.9950559,74.9759412 C64.6098301,75.6339304 41.6702548,62.5769079 41.6702548,62.5769079 C41.0204451,62.186833 40.8060856,61.3369521 41.1918292,60.6789629 C41.577055,60.0204494 42.4163709,59.8039159 43.0661805,60.1939908 C43.0661805,60.1939908 65.3807995,74.3174277 64.9950559,74.9759412" id="Fill-262" fill="#2E3537"></path>
                        <mask id="mask-68" fill="white">
                            <use xlink:href="#path-67"></use>
                        </mask>
                        <g id="Clip-266"></g>
                        <path d="M61.9989655,97.0632325 C62.1868603,97.800875 36.7159307,104.956633 36.7159307,104.956633 C35.9799662,105.145478 35.2309897,104.699971 35.0430949,103.962329 C34.8552001,103.224165 35.2991731,102.474002 36.0351376,102.285157 C36.0351376,102.285157 61.8110708,96.3255899 61.9989655,97.0632325" id="Fill-265" fill="#2E3537"></path>
                        <mask id="mask-70" fill="white">
                            <use xlink:href="#path-69"></use>
                        </mask>
                        <g id="Clip-269"></g>
                        <path d="M74.975903,115.004931 C75.6344268,115.390671 62.577201,138.329521 62.577201,138.329521 C62.1865958,138.979325 61.3367017,139.1942 60.6787022,138.807942 C60.0207028,138.42272 59.8036416,137.583412 60.1942469,136.933608 C60.1942469,136.933608 74.3179036,114.619709 74.975903,115.004931" id="Fill-268" fill="#2E3537"></path>
                        <mask id="mask-72" fill="white">
                            <use xlink:href="#path-71"></use>
                        </mask>
                        <g id="Clip-272"></g>
                        <path d="M97.0632249,118.00104 C97.8008389,117.812621 104.956842,143.284037 104.956842,143.284037 C105.145158,144.020015 104.699669,144.769006 103.962055,144.956904 C103.224441,145.144803 102.473785,144.700821 102.285469,143.964843 C102.285469,143.964843 96.3256109,118.188418 97.0632249,118.00104" id="Fill-271" fill="#2E3537"></path>
                        <mask id="mask-74" fill="white">
                            <use xlink:href="#path-73"></use>
                        </mask>
                        <g id="Clip-275"></g>
                        <path d="M115.004931,105.02406 C115.390666,104.366071 138.329759,117.422568 138.329759,117.422568 C138.979555,117.813167 139.19391,118.663048 138.808175,119.321037 C138.422439,119.979551 137.583659,120.196084 136.933345,119.806009 C136.933345,119.806009 114.619713,105.682049 115.004931,105.02406" id="Fill-274" fill="#2E3537"></path>
                        <mask id="mask-76" fill="white">
                            <use xlink:href="#path-75"></use>
                        </mask>
                        <g id="Clip-278"></g>
                        <path d="M118.00104,82.93677 C117.812623,82.1991565 143.283875,75.0431577 143.283875,75.0431577 C144.020369,74.8548419 144.769355,75.3003313 144.956732,76.0379448 C145.145149,76.7755583 144.70065,77.5262131 143.964676,77.7150505 C143.964676,77.7150505 118.188937,83.6743836 118.00104,82.93677" id="Fill-277" fill="#2E3537"></path>
                        <mask id="mask-78" fill="white">
                            <use xlink:href="#path-77"></use>
                        </mask>
                        <g id="Clip-281"></g>
                        <path d="M99.0587128,55.9990012 C98.1674352,55.7725212 107.71841,17.2143034 107.71841,17.2143034 C107.951054,16.3466402 108.861718,15.8268584 109.752472,16.0528283 C110.643749,16.2787982 111.178202,17.1658448 110.945558,18.0329979 C110.945558,18.0329979 99.9499903,56.2249711 99.0587128,55.9990012" id="Fill-280" fill="#2E3537"></path>
                        <mask id="mask-80" fill="white">
                            <use xlink:href="#path-79"></use>
                        </mask>
                        <g id="Clip-284"></g>
                        <path d="M71.9772223,59.9954722 C71.1935803,60.4505131 50.2265044,26.4556763 50.2265044,26.4556763 C49.7664507,25.6793396 50.0295601,24.6800944 50.8132021,24.224541 C51.5968441,23.7684752 52.60431,24.0293038 53.0638467,24.806153 C53.0638467,24.806153 72.7608643,59.5394064 71.9772223,59.9954722" id="Fill-283" fill="#2E3537"></path>
                        <mask id="mask-82" fill="white">
                            <use xlink:href="#path-81"></use>
                        </mask>
                        <g id="Clip-287"></g>
                        <path d="M55.9990012,80.9413509 C55.7730284,81.8321092 17.2138107,72.2816077 17.2138107,72.2816077 C16.3466466,72.0494866 15.8268582,71.1382932 16.052831,70.2475348 C16.2788037,69.3562525 17.1653515,68.8217975 18.0325157,69.0544426 C18.0325157,69.0544426 56.224974,80.0500686 55.9990012,80.9413509" id="Fill-286" fill="#2E3537"></path>
                        <mask id="mask-84" fill="white">
                            <use xlink:href="#path-83"></use>
                        </mask>
                        <g id="Clip-290"></g>
                        <path d="M59.995462,108.022808 C60.4510181,108.805954 26.4559759,129.773604 26.4559759,129.773604 C25.679122,130.233153 24.6803832,129.971071 24.2243146,129.18689 C23.7687585,128.403227 24.0290763,127.395733 24.8059301,126.936184 C24.8059301,126.936184 59.5393934,107.238628 59.995462,108.022808" id="Fill-289" fill="#2E3537"></path>
                        <mask id="mask-86" fill="white">
                            <use xlink:href="#path-85"></use>
                        </mask>
                        <g id="Clip-293"></g>
                        <path d="M80.9412862,124.000999 C81.8325794,124.227479 72.2814381,162.785189 72.2814381,162.785189 C72.0493142,163.653362 71.1386337,164.173144 70.2473406,163.947174 C69.3565714,163.720694 68.82211,162.834157 69.0542339,161.967004 C69.0542339,161.967004 80.0499931,123.775029 80.9412862,124.000999" id="Fill-292" fill="#2E3537"></path>
                        <mask id="mask-88" fill="white">
                            <use xlink:href="#path-87"></use>
                        </mask>
                        <g id="Clip-296"></g>
                        <path d="M108.022778,120.004528 C108.806429,119.549487 129.773723,153.544324 129.773723,153.544324 C130.233265,154.32066 129.970669,155.319393 129.187019,155.775459 C128.403369,156.231525 127.395376,155.970696 126.935834,155.193847 C126.935834,155.193847 107.239128,120.460594 108.022778,120.004528" id="Fill-295" fill="#2E3537"></path>
                        <mask id="mask-90" fill="white">
                            <use xlink:href="#path-89"></use>
                        </mask>
                        <g id="Clip-299"></g>
                        <path d="M124.000999,99.0587145 C124.226972,98.1674107 162.785681,107.718666 162.785681,107.718666 C163.653355,107.950793 164.173144,108.862008 163.947171,109.752788 C163.721198,110.644091 162.83465,111.177511 161.966976,110.945908 C161.966976,110.945908 123.775026,99.9500182 124.000999,99.0587145" id="Fill-298" fill="#2E3537"></path>
                        <mask id="mask-92" fill="white">
                            <use xlink:href="#path-91"></use>
                        </mask>
                        <g id="Clip-302"></g>
                        <path d="M120.004538,71.9771925 C119.548982,71.1940602 153.544024,50.2262767 153.544024,50.2262767 C154.320878,49.7667358 155.319617,50.0293306 155.775685,50.8129797 C156.231242,51.5966289 155.970924,52.6046208 155.19407,53.0641618 C155.19407,53.0641618 120.460094,72.7613585 120.004538,71.9771925" id="Fill-301" fill="#2E3537"></path>
                    </g>
                    <g id="Group-441" transform="translate(90.000000, 64.000000)">
                        <path d="M42.1838235,212.28799 C41.8443627,212.46201 41.5,212.622549 41.1544118,212.769608 C33.8835784,215.840686 25.2879902,212.801471 21.6286765,205.672794 L3.65441176,170.633578 C2.51715686,168.416667 1.98039216,166.047794 1.98039216,163.705882 C1.98039216,158.153186 5.01348039,152.773284 10.2708333,150.07598 C10.4203431,149.998775 10.5723039,149.92402 10.7254902,149.856618 C18.1139706,146.365196 27.0710784,149.368873 30.8272059,156.693627 L48.8002451,191.732843 C52.6335784,199.202206 49.6580882,208.454657 42.1838235,212.28799" id="Fill-6" fill="#F2BB46"></path>
                        <path d="M41.1544118,212.769608 C33.8835784,215.840686 25.2879902,212.801471 21.6286765,205.672794 L3.65441176,170.633578 C2.51715686,168.416667 1.98039216,166.047794 1.98039216,163.705882 C1.98039216,158.153186 5.01348039,152.773284 10.2708333,150.07598 C10.4203431,149.998775 10.5723039,149.92402 10.7254902,149.856618 L41.1544118,212.769608" id="Fill-8" fill="#E79E2E"></path>
                        <path d="M50.3382353,77.5073529 C50.3382353,80.1703431 48.1801471,82.3296569 45.5159314,82.3296569 C42.8529412,82.3296569 40.6936275,80.1703431 40.6936275,77.5073529 C40.6936275,74.8443627 42.8529412,72.685049 45.5159314,72.685049 C48.1801471,72.685049 50.3382353,74.8443627 50.3382353,77.5073529" id="Fill-29" fill="#494682"></path>
                        <path d="M32.2279412,109.980392 C33.5281863,107.655637 36.4656863,106.824755 38.7904412,108.126225 C41.1139706,109.425245 41.9448529,112.363971 40.6446078,114.6875 C39.3443627,117.012255 36.4056373,117.843137 34.0808824,116.541667 C31.7573529,115.242647 30.9264706,112.303922 32.2279412,109.980392" id="Fill-32" fill="#494682"></path>
                        <path d="M33.6544118,47.7267157 C32.4607843,45.3455882 33.4252451,42.4485294 35.8051471,41.2561275 C38.1875,40.0637255 41.0845588,41.0269608 42.2769608,43.4080882 C43.4693627,45.7892157 42.5061275,48.6862745 40.1237745,49.879902 C37.7426471,51.0710784 34.8468137,50.1078431 33.6544118,47.7267157" id="Fill-34" fill="#494682"></path>
                        <path d="M14.3394608,142.210784 C12.0772059,143.615196 9.10416667,142.920343 7.6997549,140.656863 C6.29534314,138.393382 6.99142157,135.420343 9.25490196,134.017157 C11.5171569,132.61152 14.4901961,133.308824 15.8946078,135.571078 C17.2977941,137.834559 16.6017157,140.807598 14.3394608,142.210784" id="Fill-39" fill="#494682"></path>
                        <polygon id="Fill-44" fill="#FFFFFE" points="1.16529009e-12 214.387255 248.854167 214.387255 248.854167 51.557598 1.16529009e-12 51.557598"></polygon>
                        <polygon id="Fill-45" fill="#FCFBFA" points="-1.39266376e-12 214.387255 128.550245 214.387255 128.550245 51.557598 -1.39266376e-12 51.557598"></polygon>
                        <polygon id="Fill-46" fill="#E6CFC0" points="64.7745098 111.321078 95.5220588 111.321078 95.5220588 80.5735294 64.7745098 80.5735294"></polygon>
                        <polygon id="Fill-47" fill="#E6CFC0" points="108.334559 111.321078 139.083333 111.321078 139.083333 80.5735294 108.334559 80.5735294"></polygon>
                        <polygon id="Fill-48" fill="#E6CFC0" points="151.894608 111.321078 182.644608 111.321078 182.644608 80.5735294 151.894608 80.5735294"></polygon>
                        <polygon id="Fill-49" fill="#E6CFC0" points="195.455882 111.321078 226.204657 111.321078 226.204657 80.5735294 195.455882 80.5735294"></polygon>
                        <polygon id="Fill-50" fill="#E6CFC0" points="64.7745098 154.028186 95.5220588 154.028186 95.5220588 123.279412 64.7745098 123.279412"></polygon>
                        <polygon id="Fill-51" fill="#E6CFC0" points="21.2132353 154.028186 51.9620098 154.028186 51.9620098 123.279412 21.2132353 123.279412"></polygon>
                        <polygon id="Fill-51-Copy" fill="#E6CFC0" points="21.2132353 111.068627 51.9620098 111.068627 51.9620098 80.3198529 21.2132353 80.3198529"></polygon>
                        <polygon id="Fill-52" fill="#E6CFC0" points="108.334559 154.028186 139.083333 154.028186 139.083333 123.279412 108.334559 123.279412"></polygon>
                        <polygon id="Fill-53" fill="#E6CFC0" points="151.894608 154.028186 182.644608 154.028186 182.644608 123.279412 151.894608 123.279412"></polygon>
                        <polygon id="Fill-54" fill="#E6CFC0" points="195.455882 154.028186 226.204657 154.028186 226.204657 123.279412 195.455882 123.279412"></polygon>
                        <polygon id="Fill-55" fill="#E6CFC0" points="64.7745098 196.735294 95.5220588 196.735294 95.5220588 165.98652 64.7745098 165.98652"></polygon>
                        <polygon id="Fill-56" fill="#E6CFC0" points="21.2132353 196.735294 51.9620098 196.735294 51.9620098 165.98652 21.2132353 165.98652"></polygon>
                        <polygon id="Fill-57" fill="#E6CFC0" points="108.334559 196.735294 139.083333 196.735294 139.083333 165.98652 108.334559 165.98652"></polygon>
                        <polygon id="Fill-58" fill="#E6CFC0" points="151.894608 196.735294 182.644608 196.735294 182.644608 165.98652 151.894608 165.98652"></polygon>
                        <polygon id="Fill-59" fill="#E6CFC0" points="195.455882 196.735294 226.204657 196.735294 226.204657 165.98652 195.455882 165.98652"></polygon>
                        <path d="M186.356618,120.761029 C184.209559,121.314951 182.368873,122.846814 180.689951,124.224265 C178.906863,125.6875 177.196078,127.231618 175.497549,128.790441 C173.246324,130.855392 171.044118,132.968137 168.883578,135.126225 C168.534314,134.802696 168.181373,134.479167 167.828431,134.158088 C164.558824,131.192402 161.159314,128.370098 157.671569,125.664216 C154.38848,123.115196 150.822304,120.10049 146.827206,118.832108 C146.267157,118.655637 145.781863,119.324755 146.072304,119.8125 C148.142157,123.28799 151.698529,125.969363 154.705882,128.628676 C157.942402,131.492647 161.180147,134.35049 164.295343,137.346814 C164.707108,137.745098 165.115196,138.150735 165.52451,138.552696 C162.602941,141.60049 159.754902,144.721814 156.992647,147.917892 C155.539216,149.596814 154.122549,151.294118 152.775735,153.061275 C151.354167,154.927696 149.768382,156.791667 148.672794,158.871324 C147.877451,160.382353 149.735294,161.784314 151,160.666667 C152.647059,159.210784 154.014706,157.426471 155.490196,155.796569 C156.976716,154.153186 158.427696,152.481618 159.898284,150.823529 C162.694853,147.666667 165.57598,144.584559 168.533088,141.57598 C170.077206,143.177696 171.590686,144.811275 173.052696,146.482843 C175.849265,149.678922 178.182598,153.386029 181.278186,156.292892 C182.563725,157.498775 185.082108,156.324755 184.422794,154.46201 C182.947304,150.28799 179.914216,146.819853 177.050245,143.512255 C175.432598,141.645833 173.742647,139.851716 171.996324,138.113971 C174.153186,135.993873 176.340686,133.904412 178.5625,131.855392 C180.192402,130.352941 181.854167,128.881127 183.485294,127.379902 C185.02451,125.963235 186.790441,124.432598 187.697304,122.504902 C188.128676,121.590686 187.419118,120.48652 186.356618,120.761029" id="Fill-61" fill="#2E3537"></path>
                        <polygon id="Fill-62" fill="#BCE2C9" points="1.16529009e-12 59.7487745 248.854167 59.7487745 248.854167 13.6654412 1.16529009e-12 13.6654412"></polygon>
                        <polygon id="Fill-63" fill="#89BB9A" points="-1.39266376e-12 59.7487745 128.550245 59.7487745 128.550245 13.6654412 -1.39266376e-12 13.6654412"></polygon>
                        <path d="M43.7058824,38.8627451 C43.7058824,45.7022059 38.1605392,51.247549 31.3198529,51.247549 C24.4803922,51.247549 18.935049,45.7022059 18.935049,38.8627451 C18.935049,32.0220588 24.4803922,26.4779412 31.3198529,26.4779412 C38.1605392,26.4779412 43.7058824,32.0220588 43.7058824,38.8627451" id="Fill-64" fill="#FFFFFE"></path>
                        <path d="M231.613971,38.8627451 C231.613971,45.7022059 226.069853,51.247549 219.230392,51.247549 C212.389706,51.247549 206.844363,45.7022059 206.844363,38.8627451 C206.844363,32.0220588 212.389706,26.4779412 219.230392,26.4779412 C226.069853,26.4779412 231.613971,32.0220588 231.613971,38.8627451" id="Fill-65" fill="#FFFFFE"></path>
                        <path d="M38.5857843,7.25980392 L38.5857843,39.7169118 C38.5857843,43.6801471 35.4093137,46.9031863 31.4620098,46.9742647 L31.3259804,46.9779412 C27.317402,46.9779412 24.0661765,43.7254902 24.0661765,39.7169118 L24.0661765,7.25980392 C24.0661765,6.41176471 24.2107843,5.59681373 24.4816176,4.83946078 C25.4754902,2.02083333 28.1666667,3.69482223e-13 31.3259804,3.69482223e-13 L31.4620098,0.00245098039 C33.4129902,0.0367647059 35.1789216,0.845588235 36.4595588,2.12622549 C37.2169118,2.88357843 37.8088235,3.80882353 38.1703431,4.83946078 C38.4411765,5.59681373 38.5857843,6.41176471 38.5857843,7.25980392" id="Fill-66" fill="#354739"></path>
                        <path d="M31.4620098,0.00245098039 L31.4620098,46.9742647 L31.3259804,46.9779412 C27.317402,46.9779412 24.0661765,43.7254902 24.0661765,39.7169118 L24.0661765,7.25980392 C24.0661765,6.41176471 24.2107843,5.59681373 24.4816176,4.83946078 C25.4754902,2.02083333 28.1666667,3.69482223e-13 31.3259804,3.69482223e-13 L31.4620098,0.00245098039" id="Fill-67" fill="#273A2B"></path>
                        <path d="M226.210784,7.25980392 L226.210784,39.7169118 C226.210784,43.6801471 223.033088,46.9031863 219.08701,46.9742647 L218.95098,46.9779412 C214.942402,46.9779412 211.689951,43.7254902 211.689951,39.7169118 L211.689951,7.25980392 C211.689951,6.41176471 211.83701,5.59681373 212.105392,4.83946078 C213.10049,2.02083333 215.790441,3.69482223e-13 218.95098,3.69482223e-13 L219.08701,0.00245098039 C221.036765,0.0367647059 222.802696,0.845588235 224.084559,2.12622549 C224.841912,2.88357843 225.433824,3.80882353 225.795343,4.83946078 C226.066176,5.59681373 226.210784,6.41176471 226.210784,7.25980392" id="Fill-68" fill="#354739"></path>
                        <path d="M219.08701,0.00245098039 L219.08701,46.9742647 L218.95098,46.9779412 C214.942402,46.9779412 211.689951,43.7254902 211.689951,39.7169118 L211.689951,7.25980392 C211.689951,6.41176471 211.83701,5.59681373 212.105392,4.83946078 C213.10049,2.02083333 215.790441,3.69482223e-13 218.95098,3.69482223e-13 L219.08701,0.00245098039" id="Fill-69" fill="#273A2B"></path>
                    </g>
                </g>
            </g>
        </g>
    </g>
</svg>