<?xml version="1.0" encoding="UTF-8"?>
<svg width="53px" height="60px" viewBox="0 0 53 60" version="1.1" xmlns="http://www.w3.org/2000/svg" xmlns:xlink="http://www.w3.org/1999/xlink">
    <!-- Generator: Sketch 58 (84663) - https://sketch.com -->
    <title>events copy</title>
    <desc>Created with Sketch.</desc>
    <g id="Page-1" stroke="none" stroke-width="1" fill="none" fill-rule="evenodd">
        <g id="events-copy" transform="translate(1.000000, 1.000000)" stroke="#FFFFFF">
            <polyline id="Path" stroke-width="1.5" points="50.988 42.0283279 50.988 38.5283279 50.988 26.5583279 50.988 14.5883279"></polyline>
            <path d="M50.988,50.4983279 L50.988,47.5723279" id="Path" stroke-width="1.5"></path>
            <polyline id="Path" stroke-width="1.5" points="7.882 21.7703279 18.494 21.7703279 29.106 21.7703279 39.732 21.7703279 43.82 21.7703279"></polyline>
            <polyline id="Path" stroke-width="1.5" points="43.82 7.40632789 39.732 7.40632789 29.106 7.40632789 18.494 7.40632789 7.882 7.40632789"></polyline>
            <polyline id="Path" stroke-width="1.5" points="0.7 14.5883279 0.7 26.5583279 0.7 38.5283279 0.7 50.4983279"></polyline>
            <path d="M7.882,21.7143279 C3.91549093,21.7143279 0.7,18.498837 0.7,14.5323279 C0.7,10.5658188 3.91549093,7.35032789 7.882,7.35032789" id="Path" stroke-width="1.5"></path>
            <path d="M43.82,7.40632789 C47.7865091,7.40632789 51.002,10.6218188 51.002,14.5883279 C51.002,18.554837 47.7865091,21.7703279 43.82,21.7703279" id="Path" stroke-width="1.5"></path>
            <polyline id="Path" stroke-width="1.5" points="50.036 11.0043279 39.732 11.0043279 29.106 11.0043279 18.494 11.0043279 1.666 11.0043279"></polyline>
            <polyline id="Path" stroke-width="1.5" points="1.666 18.1863279 18.494 18.1863279 29.106 18.1863279 39.732 18.1863279 50.022 18.1863279"></polyline>
            <path d="M7.882,18.1863279 C6.54554783,18.2698154 5.27329459,17.6042184 4.57979603,16.4587341 C3.88629748,15.3132498 3.88629748,13.877406 4.57979603,12.7319216 C5.27329459,11.5864373 6.54554783,10.9208404 7.882,11.0043279" id="Path" stroke-width="1.5"></path>
            <path d="M43.82,11.0043279 C45.7163174,11.1227898 47.1936721,12.695314 47.1936721,14.5953279 C47.1936721,16.4953418 45.7163174,18.0678659 43.82,18.1863279" id="Path" stroke-width="1.5"></path>
            <polyline id="Path" stroke-width="1.5" points="7.882 57.6803279 18.494 57.6803279 29.106 57.6803279 39.732 57.6803279 43.82 57.6803279"></polyline>
            <polyline id="Path" stroke-width="1.5" points="43.82 7.40632789 39.732 7.40632789 29.106 7.40632789 18.494 7.40632789 7.882 7.40632789"></polyline>
            <polyline id="Path" stroke-width="1.5" points="7.882 21.7703279 18.494 21.7703279 29.106 21.7703279 39.732 21.7703279 43.82 21.7703279"></polyline>
            <path d="M7.882,57.6803279 C3.91549093,57.6803279 0.7,54.464837 0.7,50.4983279" id="Path" stroke-width="1.5"></path>
            <path d="M48.104,56.2663279 C46.8613857,57.1770254 45.3606034,57.6674771 43.82,57.6663299" id="Path" stroke-width="1.5"></path>
            <path d="M51.002,50.4983279 C51.0027802,51.9135773 50.5837773,53.2972613 49.798,54.4743279" id="Path" stroke-width="1.5"></path>
            <path d="M10.682,3.82232789 C10.5985125,2.48587572 11.2641094,1.21362247 12.4095938,0.520123916 C13.5550781,-0.173374639 14.9909219,-0.173374639 16.1364062,0.520123916 C17.2818906,1.21362247 17.9474875,2.48587572 17.864,3.82232789" id="Path" stroke-width="1.5"></path>
            <path d="M33.824,3.82232789 C33.7405125,2.48587572 34.4061094,1.21362247 35.5515938,0.520123916 C36.6970781,-0.173374639 38.1329219,-0.173374639 39.2784062,0.520123916 C40.4238906,1.21362247 41.0894875,2.48587572 41.006,3.82232789" id="Path" stroke-width="1.5"></path>
            <polyline id="Path" stroke-width="1.5" points="17.864 3.82232789 17.864 7.40632789 10.682 7.40632789 10.682 3.82232789"></polyline>
            <polyline id="Path" stroke-width="1.5" points="41.006 3.82232789 41.006 7.40632789 33.824 7.40632789 33.824 3.82232789"></polyline>
            <path d="M31.542,41.0063279 C31.4807583,40.7845144 31.5579042,40.5475663 31.738,40.4043279 L35.868,37.3803279 C36.5192126,36.909908 36.7919138,36.0726585 36.5426701,35.3089502 C36.2934264,34.5452419 35.5793395,34.0300404 34.776,34.0343279 L29.666,34.0343279 C29.4357689,34.0385042 29.2304205,33.890197 29.162,33.6703279 L27.552,28.8123279 C27.310543,28.0442161 26.5930753,27.526045 25.788,27.5383279 L25.788,27.5383279 C24.9858095,27.5351158 24.2731608,28.0498066 24.024,28.8123279 L23.31,30.9963279 C23.2349742,31.2214052 23.2857249,31.469411 23.4431347,31.6469239 C23.6005445,31.8244368 23.8406991,31.9044883 24.0731347,31.8569239 C24.3055702,31.8093595 24.4949742,31.6414052 24.57,31.4163279 L25.284,29.2183279 C25.3524205,28.9984588 25.5577689,28.8501515 25.788,28.8543279 C26.0182311,28.8501515 26.2235795,28.9984588 26.292,29.2183279 L27.902,34.0903279 C28.153225,34.8452724 28.8563845,35.3571725 29.652,35.3643279 L34.776,35.3643279 C35.0101206,35.3619458 35.216733,35.5169051 35.28,35.7423279 C35.3571492,35.9600843 35.2763732,36.2024123 35.084,36.3303279 L30.954,39.3543279 C30.3132357,39.8262434 30.0432059,40.6532097 30.282,41.4123279 L31.85,46.2983279 C31.9208049,46.5189172 31.8407152,46.7599659 31.6519782,46.894321 C31.4632412,47.0286762 31.2092562,47.0254434 31.024,46.8863279 L26.824,43.9043279 C26.1782652,43.4304942 25.2997348,43.4304942 24.654,43.9043279 L20.454,46.8863279 C20.2685207,47.0139047 20.0228206,47.0109271 19.8404875,46.8788928 C19.6581544,46.7468585 19.5786639,46.5143532 19.642,46.2983279 L21.196,41.4123279 C21.4347941,40.6532097 21.1647643,39.8262434 20.524,39.3543279 L16.394,36.3303279 C16.2108349,36.1955308 16.137013,35.9570292 16.212,35.7423279 C16.2708501,35.5139151 16.4802457,35.3568684 16.716,35.3643279 L21.826,35.3643279 C22.1916567,35.3567084 22.4840794,35.0580639 22.484,34.6923279 C22.484,34.3289245 22.1894034,34.0343279 21.826,34.0343279 L21.826,34.0343279 L16.702,34.0343279 C15.901244,34.0361336 15.1927571,34.5534487 14.9472017,35.3156272 C14.7016463,36.0778056 14.9748986,36.9114133 15.624,37.3803279 L19.74,40.4043279 C19.9306184,40.5400514 20.0101717,40.7843936 19.936,41.0063279 L18.382,45.8783279 C18.1271709,46.6416276 18.3996868,47.4818852 19.054,47.9503279 C19.3725473,48.1781106 19.7543914,48.3003527 20.146,48.3003527 C20.5335807,48.3023587 20.9115328,48.1796469 21.224,47.9503279 L25.424,44.9543279 C25.6152377,44.8287876 25.8627623,44.8287876 26.054,44.9543279 L30.254,47.9503279 C30.9029162,48.387445 31.7567797,48.3685393 32.3857127,47.9031289 C33.0146458,47.4377184 33.2823301,46.6266788 33.054,45.8783279 L31.542,41.0063279 Z" id="Path" fill-rule="nonzero"></path>
        </g>
    </g>
</svg>