<svg xmlns="http://www.w3.org/2000/svg" width="24" height="24" viewBox="0 0 24 24">
    <g fill="#678189" fill-rule="evenodd">
        <path d="M22 2.4h-2v-.8c0-.884-.716-1.6-1.6-1.6-.884 0-1.6.716-1.6 1.6v.8h-3.2v-.8C13.6.716 12.884 0 12 0c-.884 0-1.6.716-1.6 1.6v.8H7.2v-.8C7.2.716 6.484 0 5.6 0 4.716 0 4 .716 4 1.6v.8H2c-1.105 0-2 .895-2 2v16c0 .53.21 1.04.586 1.414.375.375.884.586 1.414.586h11.2c.22 0 .4-.18.4-.4 0-.22-.18-.4-.4-.4H2c-.662-.002-1.198-.538-1.2-1.2V8h22.4v6.8c0 .22.18.4.4.4.22 0 .4-.18.4-.4V4.4c0-1.105-.895-2-2-2zm-4.4-.8c0-.442.358-.8.8-.8.442 0 .8.358.8.8V4c0 .442-.358.8-.8.8-.442 0-.8-.358-.8-.8V1.6zm-6.4 0c0-.442.358-.8.8-.8.442 0 .8.358.8.8V4c0 .442-.358.8-.8.8-.442 0-.8-.358-.8-.8V1.6zm-6.4 0c0-.442.358-.8.8-.8.442 0 .8.358.8.8V4c0 .442-.358.8-.8.8-.442 0-.8-.358-.8-.8V1.6zm18.4 5.6H.8V4.4c.002-.662.538-1.198 1.2-1.2h2V4c0 .884.716 1.6 1.6 1.6.884 0 1.6-.716 1.6-1.6v-.8h3.2V4c0 .884.716 1.6 1.6 1.6.884 0 1.6-.716 1.6-1.6v-.8h3.2V4c0 .884.716 1.6 1.6 1.6.884 0 1.6-.716 1.6-1.6v-.8h2c.662.002 1.198.538 1.2 1.2v2.8z"/>
        <path d="M11.2 10.8c0-.442-.358-.8-.8-.8H8.8c-.442 0-.8.358-.8.8V12c0 .442.358.8.8.8h1.6c.442 0 .8-.358.8-.8v-1.2zM8.8 12v-1.2h1.6V12H8.8zM6.4 10.8c0-.442-.358-.8-.8-.8H4c-.442 0-.8.358-.8.8V12c0 .442.358.8.8.8h1.6c.442 0 .8-.358.8-.8v-1.2zM4 12v-1.2h1.6V12H4zM20 12.8c.442 0 .8-.358.8-.8v-1.2c0-.442-.358-.8-.8-.8h-1.6c-.442 0-.8.358-.8.8V12c0 .442.358.8.8.8H20zm-1.6-2H20V12h-1.6v-1.2zM11.2 14.4c0-.442-.358-.8-.8-.8H8.8c-.442 0-.8.358-.8.8v1.2c0 .442.358.8.8.8h1.6c.442 0 .8-.358.8-.8v-1.2zm-2.4 1.2v-1.2h1.6v1.2H8.8zM6.4 14.4c0-.442-.358-.8-.8-.8H4c-.442 0-.8.358-.8.8v1.2c0 .442.358.8.8.8h1.6c.442 0 .8-.358.8-.8v-1.2zM4 15.6v-1.2h1.6v1.2H4zM10.4 17.2H8.8c-.442 0-.8.358-.8.8v1.2c0 .442.358.8.8.8h1.6c.442 0 .8-.358.8-.8V18c0-.442-.358-.8-.8-.8zm-1.6 2V18h1.6v1.2H8.8zM13.6 12.8h1.6c.442 0 .8-.358.8-.8v-1.2c0-.442-.358-.8-.8-.8h-1.6c-.442 0-.8.358-.8.8V12c0 .442.358.8.8.8zm0-2h1.6V12h-1.6v-1.2zM12.8 15.6c0 .442.358.8.8.8.22 0 .4-.18.4-.4 0-.22-.18-.4-.4-.4v-1.2h1.6c.22 0 .4-.18.4-.4 0-.22-.18-.4-.4-.4h-1.6c-.442 0-.8.358-.8.8v1.2zM5.6 17.2H4c-.442 0-.8.358-.8.8v1.2c0 .442.358.8.8.8h1.6c.442 0 .8-.358.8-.8V18c0-.442-.358-.8-.8-.8zm-1.6 2V18h1.6v1.2H4z"/>
        <path d="M18.8 13.6c-2.872 0-5.2 2.328-5.2 5.2 0 2.872 2.328 5.2 5.2 5.2 2.872 0 5.2-2.328 5.2-5.2-.003-2.87-2.33-5.197-5.2-5.2zm0 9.6c-2.43 0-4.4-1.97-4.4-4.4 0-2.43 1.97-4.4 4.4-4.4 2.43 0 4.4 1.97 4.4 4.4-.003 2.429-1.971 4.397-4.4 4.4z"/>
        <path d="M21.111 17.123L18 20.234l-1.414-1.414c-.157-.152-.406-.15-.56.005-.155.154-.157.404-.006.56l1.697 1.698c.156.156.41.156.566 0l3.394-3.394c.151-.157.15-.407-.005-.56-.154-.155-.404-.157-.56-.006z"/>
    </g>
</svg>
