<?xml version="1.0" encoding="UTF-8"?>
<svg width="59px" height="56px" viewBox="0 0 59 56" version="1.1" xmlns="http://www.w3.org/2000/svg" xmlns:xlink="http://www.w3.org/1999/xlink">
    <!-- Generator: Sketch 58 (84663) - https://sketch.com -->
    <title>gift</title>
    <desc>Created with Sketch.</desc>
    <g id="Page-1" stroke="none" stroke-width="1" fill="none" fill-rule="evenodd">
        <g id="gift" transform="translate(1.000000, 1.000000)" stroke="#FFFFFF" stroke-width="1.5">
            <path d="M10.024,3.15689595 C13.1031683,0.075064163 17.736143,-0.847317522 21.7608615,0.820197228 C25.78558,2.48771198 28.4086627,6.41641143 28.406002,10.772896" id="Path"></path>
            <polyline id="Path" points="49.644 17.618896 39.018 17.618896 28.406 17.618896 17.794 17.618896 7.182 17.618896"></polyline>
            <polyline id="Path" points="7.182 31.968896 17.794 31.968896 28.406 31.968896 39.018 31.968896 49.644 31.968896"></polyline>
            <polyline id="Path" points="7.182 31.968896 7.182 39.150896 7.182 46.332896"></polyline>
            <polyline id="Path" points="49.644 46.332896 49.644 39.150896 49.644 31.968896"></polyline>
            <polyline id="Path" points="18.27 53.514896 28.406 53.514896 38.248 53.514896"></polyline>
            <polyline id="Path" points="55.86 21.202896 39.018 21.202896 28.406 21.202896 17.794 21.202896 0.966 21.202896"></polyline>
            <polyline id="Path" points="0.966 28.384896 17.794 28.384896 28.406 28.384896 39.018 28.384896 55.86 28.384896"></polyline>
            <polyline id="Path" points="31.99 48.810896 31.99 35.566896 31.99 26.592896 31.99 17.618896 24.822 17.618896 24.822 26.592896 24.822 35.566896 24.822 42.692896"></polyline>
            <path d="M7.182,31.982896 C3.21549093,31.982896 0,28.767405 0,24.800896 C0,20.8343869 3.21549093,17.618896 7.182,17.618896" id="Path"></path>
            <path d="M49.644,17.618896 C53.6105091,17.618896 56.826,20.8343869 56.826,24.800896 C56.826,28.767405 53.6105091,31.982896 49.644,31.982896" id="Path"></path>
            <path d="M49.644,46.346896 C49.644,50.313405 46.4285091,53.528896 42.462,53.528896" id="Path"></path>
            <path d="M14.364,53.5149097 C12.4580753,53.5186221 10.6291397,52.7631459 9.28144489,51.4154511 C7.93375005,50.0677562 7.17827384,48.2388206 7.18198628,46.332896" id="Path"></path>
            <path d="M7.182,28.384896 C5.84554783,28.4683834 4.57329459,27.8027865 3.87979603,26.6573022 C3.18629748,25.5118179 3.18629748,24.075974 3.87979603,22.9304897 C4.57329459,21.7850054 5.84554783,21.1194085 7.182,21.202896" id="Path"></path>
            <path d="M49.644,21.146896 C51.5403174,21.2653579 53.0176721,22.8378821 53.0176721,24.737896 C53.0176721,26.6379098 51.5403174,28.210434 49.644,28.328896" id="Path"></path>
            <path d="M28.405998,10.772896 C28.4033373,6.41641143 31.02642,2.48771198 35.0511385,0.820197228 C39.075857,-0.847317522 43.7088317,0.075064163 46.788,3.15689595" id="Path"></path>
            <path d="M39.172,0.00689595493 C39.172,5.95279357 34.3518976,10.772896 28.406,10.772896 C22.4601024,10.772896 17.64,5.95279357 17.64,0.00689595493" id="Path"></path>
        </g>
    </g>
</svg>