<?xml version="1.0" encoding="UTF-8"?>
<svg width="117px" height="121px" viewBox="0 0 117 121" version="1.1" xmlns="http://www.w3.org/2000/svg" xmlns:xlink="http://www.w3.org/1999/xlink">
    <!-- Generator: Sketch 58 (84663) - https://sketch.com -->
    <title>groupal</title>
    <desc>Created with Sketch.</desc>
    <defs>
        <rect id="path-1" x="0" y="0" width="15" height="33"></rect>
        <rect id="path-3" x="0" y="0" width="17.2727273" height="38"></rect>
    </defs>
    <g id="Page-1" stroke="none" stroke-width="1" fill="none" fill-rule="evenodd">
        <g id="groupal" transform="translate(0.000000, 0.670405)">
            <g id="Group-300" transform="translate(17.693622, 38.329595)">
                <g id="Group-298-Copy-2" transform="translate(61.000000, 40.000000)">
                    <mask id="mask-2" fill="white">
                        <use xlink:href="#path-1"></use>
                    </mask>
                    <use id="Mask" fill="#D8D8D8" opacity="0" xlink:href="#path-1"></use>
                    <g mask="url(#mask-2)" stroke-width="0.738461538">
                        <g transform="translate(-14.000000, 1.000000)">
                            <path d="M4.93489231,1.55416416 C6.45079054,0.0369546649 8.73163961,-0.417140934 10.7130395,0.403789404 C12.6944394,1.22471974 13.9858032,3.15884871 13.9844933,5.30357955" id="Path" stroke="#2E3537"></path>
                            <polyline id="Path" stroke="#2E3537" points="24.4401231 8.67391801 19.2088615 8.67391801 13.9844923 8.67391801 8.76012308 8.67391801 3.53575385 8.67391801"></polyline>
                            <polyline id="Path" stroke="#2E3537" points="3.53575385 15.7385334 8.76012308 15.7385334 13.9844923 15.7385334 19.2088615 15.7385334 24.4401231 15.7385334"></polyline>
                            <polyline id="Path" stroke="#2E3537" points="3.53575385 15.7385334 3.53575385 21.8923795 3.53575385 28.0462257"></polyline>
                            <polyline id="Path" stroke="#2E3537" points="24.4401231 28.0462257 24.4401231 21.8923795 24.4401231 15.7385334"></polyline>
                            <polyline id="Path" stroke="#2E3537" points="8.99446154 31.2688719 13.9844923 31.2688719 18.8297846 31.2688719"></polyline>
                            <polyline id="Path" stroke="#2E3537" points="8.61538462 23.1384615 8.61538462 20.002983 8.61538462 17.8784146 8.61538462 15.7538462"></polyline>
                            <polyline id="Path-Copy-27" stroke="#BCE2C9" points="19.4461538 24.6153846 19.4461538 20.8528104 19.4461538 18.3033283 19.4461538 15.7538462"></polyline>
                            <polyline id="Path-Copy-26" stroke="#2E3537" points="14.0307692 20.6769231 14.0307692 18.5866041 14.0307692 17.1702251 14.0307692 15.7538462"></polyline>
                            <polyline id="Path-Copy-28" stroke="#2E3537" points="14.0307692 26.5846154 14.0307692 24.4942964 14.0307692 23.0779174 14.0307692 21.6615385"></polyline>
                            <path d="M3.53575385,15.7454257 C1.58301092,15.7454257 2.73114864e-13,14.1624148 2.73114864e-13,12.2096719 C2.73114864e-13,10.2569289 1.58301092,8.67391801 3.53575385,8.67391801" id="Path" stroke="#2E3537"></path>
                            <path d="M24.4401231,8.67391801 C26.392866,8.67391801 27.9758769,10.2569289 27.9758769,12.2096719 C27.9758769,14.1624148 26.392866,15.7454257 24.4401231,15.7454257" id="Path" stroke="#2E3537"></path>
                            <path d="M24.4401231,27.7400103 C24.4401231,29.6927532 22.8571122,31.2757642 20.9043692,31.2757642" id="Path" stroke="#2E3537"></path>
                            <path d="M7.07150769,31.2688786 C6.13320631,31.2707063 5.23280726,30.8987795 4.56932672,30.235299 C3.90584618,29.5718184 3.53391943,28.6714194 3.53574709,27.733118" id="Path" stroke="#2E3537"></path>
                            <path d="M3.53575385,13.9741026 C2.87780816,14.0152041 2.2514681,13.6875257 1.91005343,13.1235949 C1.56863876,12.5596642 1.56863876,11.8527872 1.91005343,11.2888565 C2.2514681,10.7249257 2.87780816,10.3972473 3.53575385,10.4383488" id="Path" stroke="#2E3537"></path>
                            <path d="M24.4401231,10.4107795 C25.3736947,10.4690993 26.1010078,11.243265 26.1010078,12.1786565 C26.1010078,13.1140479 25.3736947,13.8882137 24.4401231,13.9465334" id="Path" stroke="#2E3537"></path>
                            <path d="M13.9844913,5.30357955 C13.9831814,3.15884871 15.2745452,1.22471974 17.2559451,0.403789404 C19.237345,-0.417140934 21.5181941,0.0369546649 23.0340923,1.55416416" id="Path" stroke="#2E3537"></path>
                            <path d="M19.2846769,0.00339493166 C19.2846769,2.93060607 16.9117034,5.30357955 13.9844923,5.30357955 C11.0572812,5.30357955 8.68430769,2.93060607 8.68430769,0.00339493166" id="Path" stroke="#2E3537"></path>
                        </g>
                    </g>
                </g>
                <g id="Group-298-Copy-3" transform="translate(9.000000, 54.000000) scale(-1, 1) translate(-9.000000, -54.000000) translate(0.000000, 35.000000)">
                    <mask id="mask-4" fill="white">
                        <use xlink:href="#path-3"></use>
                    </mask>
                    <use id="Mask" fill="#D8D8D8" opacity="0" xlink:href="#path-3"></use>
                    <g id="Group-298-Copy-2" mask="url(#mask-4)" stroke-width="0.85034965">
                        <g transform="translate(-16.121212, 1.151515)">
                            <path d="M5.68260326,1.78964358 C7.42818304,0.0425538565 10.0546153,-0.480344106 12.3362273,0.464969617 C14.6178393,1.41028334 16.1048643,3.63746215 16.1033559,6.10715221" id="Path" stroke="#2E3537"></path>
                            <polyline id="Path" stroke="#2E3537" points="28.143172 9.98814801 22.1192951 9.98814801 16.1033548 9.98814801 10.0874145 9.98814801 4.07147413 9.98814801"></polyline>
                            <polyline id="Path" stroke="#2E3537" points="4.07147413 18.1231597 10.0874145 18.1231597 16.1033548 18.1231597 22.1192951 18.1231597 28.143172 18.1231597"></polyline>
                            <polyline id="Path" stroke="#2E3537" points="4.07147413 18.1231597 4.07147413 25.2094068 4.07147413 32.2956538"></polyline>
                            <polyline id="Path" stroke="#2E3537" points="28.143172 32.2956538 28.143172 25.2094068 28.143172 18.1231597"></polyline>
                            <polyline id="Path" stroke="#2E3537" points="10.3572587 36.0065797 16.1033548 36.0065797 21.6827823 36.0065797"></polyline>
                            <polyline id="Path" stroke="#2E3537" points="9.92074592 26.644289 9.92074592 23.033738 9.92074592 20.5872653 9.92074592 18.1407925"></polyline>
                            <polyline id="Path-Copy-27" stroke="#BCE2C9" points="22.3925408 28.3449883 22.3925408 24.0123271 22.3925408 21.0765598 22.3925408 18.1407925"></polyline>
                            <polyline id="Path-Copy-26" stroke="#2E3537" points="16.1566434 23.8097902 16.1566434 21.4027562 16.1566434 19.7717744 16.1566434 18.1407925"></polyline>
                            <polyline id="Path-Copy-28" stroke="#2E3537" points="16.1566434 30.6125874 16.1566434 28.2055534 16.1566434 26.5745716 16.1566434 24.9435897"></polyline>
                            <path d="M4.07147413,18.1310963 C1.82286106,18.1310963 2.73114864e-13,16.3082352 2.73114864e-13,14.0596221 C2.73114864e-13,11.8110091 1.82286106,9.98814801 4.07147413,9.98814801" id="Path" stroke="#2E3537"></path>
                            <path d="M28.143172,9.98814801 C30.3917851,9.98814801 32.2146462,11.8110091 32.2146462,14.0596221 C32.2146462,16.3082352 30.3917851,18.1310963 28.143172,18.1310963" id="Path" stroke="#2E3537"></path>
                            <path d="M28.143172,31.9430422 C28.143172,34.1916553 26.320311,36.0145163 24.0716979,36.0145163" id="Path" stroke="#2E3537"></path>
                            <path d="M8.14294825,36.0065875 C7.06247999,36.0086921 6.02565684,35.5804128 5.26164895,34.8164049 C4.49764105,34.052397 4.06936177,33.0155738 4.07146635,31.9351056" id="Path" stroke="#2E3537"></path>
                            <path d="M4.07147413,16.0913909 C3.3138397,16.1387199 2.59259963,15.7613932 2.19945547,15.1120184 C1.8063113,14.4626436 1.8063113,13.6486641 2.19945547,12.9992893 C2.59259963,12.3499145 3.3138397,11.9725877 4.07147413,12.0199168" id="Path" stroke="#2E3537"></path>
                            <path d="M28.143172,11.9881704 C29.2181939,12.0553264 30.055706,12.94679 30.055706,14.0239075 C30.055706,15.1010249 29.2181939,15.9924885 28.143172,16.0596445" id="Path" stroke="#2E3537"></path>
                            <path d="M16.1033536,6.10715221 C16.1018453,3.63746215 17.5888703,1.41028334 19.8704823,0.464969617 C22.1520942,-0.480344106 24.7785265,0.0425538565 26.5241063,1.78964358" id="Path" stroke="#2E3537"></path>
                            <path d="M22.2065977,0.00390931524 C22.2065977,3.37463729 19.4740828,6.10715221 16.1033548,6.10715221 C12.7326268,6.10715221 10.0001119,3.37463729 10.0001119,0.00390931524" id="Path" stroke="#2E3537"></path>
                        </g>
                    </g>
                </g>
                <g id="Group-298-Copy" transform="translate(11.000000, 0.000000)" stroke-width="1.5">
                    <path d="M10.024,3.15689595 C13.1031683,0.075064163 17.736143,-0.847317522 21.7608615,0.820197228 C25.78558,2.48771198 28.4086627,6.41641143 28.406002,10.772896" id="Path" stroke="#88816C"></path>
                    <polyline id="Path" stroke="#88816C" points="49.644 17.618896 39.018 17.618896 28.406 17.618896 17.794 17.618896 7.182 17.618896"></polyline>
                    <polyline id="Path" stroke="#88816C" points="7.182 31.968896 17.794 31.968896 28.406 31.968896 39.018 31.968896 49.644 31.968896"></polyline>
                    <polyline id="Path" stroke="#88816C" points="7.182 31.968896 7.182 46.968896 7.182 73.968896"></polyline>
                    <polyline id="Path" stroke="#88816C" points="49.644 73.968896 49.644 46.968896 49.644 31.968896"></polyline>
                    <polyline id="Path" stroke="#88816C" points="18.27 80.514896 28.406 80.514896 38.248 80.514896"></polyline>
                    <polygon id="Path" stroke="#88816C" points="17.5 54 17.5 39.5953321 17.5 35.7976661 17.5 32"></polygon>
                    <polyline id="Path-Copy-27" stroke="#88816C" points="39.5 50 39.5 42.3572711 39.5 37.1786355 39.5 32"></polyline>
                    <polyline id="Path-Copy-26" stroke="#88816C" points="28.5 42 28.5 37.7540395 28.5 34.8770197 28.5 32"></polyline>
                    <polygon id="Path-Copy-28" stroke="#BCE2C9" points="28.5 63 28.5 49.7540395 28.5 46.8770197 28.5 44"></polygon>
                    <path d="M7.182,31.982896 C3.21549093,31.982896 2.73114864e-13,28.767405 2.73114864e-13,24.800896 C2.73114864e-13,20.8343869 3.21549093,17.618896 7.182,17.618896" id="Path" stroke="#88816C"></path>
                    <path d="M49.644,17.618896 C53.6105091,17.618896 56.826,20.8343869 56.826,24.800896 C56.826,28.767405 53.6105091,31.982896 49.644,31.982896" id="Path" stroke="#88816C"></path>
                    <path d="M49.644,73.346896 C49.644,77.313405 46.4285091,80.528896 42.462,80.528896" id="Path" stroke="#88816C"></path>
                    <path d="M14.364,80.5149097 C12.4580753,80.5186221 10.6291397,79.7631459 9.28144489,78.4154511 C7.93375005,77.0677562 7.17827384,75.2388206 7.18198628,73.332896" id="Path" stroke="#88816C"></path>
                    <path d="M7.182,28.384896 C5.84554783,28.4683834 4.57329459,27.8027865 3.87979603,26.6573022 C3.18629748,25.5118179 3.18629748,24.075974 3.87979603,22.9304897 C4.57329459,21.7850054 5.84554783,21.1194085 7.182,21.202896" id="Path" stroke="#88816C"></path>
                    <path d="M49.644,21.146896 C51.5403174,21.2653579 53.0176721,22.8378821 53.0176721,24.737896 C53.0176721,26.6379098 51.5403174,28.210434 49.644,28.328896" id="Path" stroke="#88816C"></path>
                    <path d="M28.405998,10.772896 C28.4033373,6.41641143 31.02642,2.48771198 35.0511385,0.820197228 C39.075857,-0.847317522 43.7088317,0.075064163 46.788,3.15689595" id="Path" stroke="#88816C"></path>
                    <path d="M39.172,0.00689595493 C39.172,5.95279357 34.3518976,10.772896 28.406,10.772896 C22.4601024,10.772896 17.64,5.95279357 17.64,0.00689595493" id="Path" stroke="#88816C"></path>
                </g>
            </g>
            <path d="M104.327888,89.5760633 C107.412242,89.5760633 109.920736,87.0663418 109.920736,83.9819873 C109.920736,80.8976329 107.411015,78.3891392 104.327888,78.3891392 C101.242306,78.3891392 98.733812,80.8988608 98.733812,83.9819873 C98.733812,87.0663418 101.242306,89.5760633 104.327888,89.5760633 Z M104.327888,80.6999494 C106.137736,80.6999494 107.608698,82.1721392 107.608698,83.9807595 C107.608698,85.7906076 106.136508,87.2627975 104.327888,87.2627975 C102.51804,87.2627975 101.04585,85.7893797 101.04585,83.9807595 C101.04585,82.1709114 102.51804,80.6999494 104.327888,80.6999494 Z" id="Shape-Copy-7" fill="#354739" fill-rule="nonzero"></path>
            <path d="M41.7727107,13.3670886 C41.7727107,10.2827342 39.2629892,7.77424051 36.1786348,7.77424051 C33.0942804,7.77424051 30.5857867,10.283962 30.5857867,13.3670886 C30.5857867,16.4526709 33.0955082,18.9611646 36.1786348,18.9611646 C39.2629892,18.9611646 41.7727107,16.451443 41.7727107,13.3670886 Z M32.8965968,13.3670886 C32.8965968,11.5572405 34.3687867,10.0862785 36.1774069,10.0862785 C37.9860272,10.0862785 39.4594449,11.5584684 39.4594449,13.3670886 C39.4594449,15.1757089 37.9860272,16.6491266 36.1774069,16.6491266 C34.3687867,16.6491266 32.8965968,15.1769367 32.8965968,13.3670886 Z" id="Shape-Copy-8" fill="#354739" fill-rule="nonzero"></path>
            <path d="M4.76795125,91.1531519 C4.4474829,91.1666582 4.14911581,91.3029494 3.93178669,91.5399241 C3.71445758,91.7768987 3.60149555,92.0826329 3.61500188,92.4043291 C3.64078669,93.0514051 4.16876138,93.5585063 4.81583733,93.5585063 C6.11244492,93.5057089 7.26662214,92.9728228 8.11506517,92.0531646 C8.96473606,91.1335063 9.40430568,89.9412658 9.35396391,88.695 C9.30362214,87.4475063 8.76950821,86.2933291 7.85107783,85.4436582 C6.93019176,84.5939873 5.71093859,84.1581013 4.48800188,84.2059873 L4.48677403,84.2059873 C3.23805252,84.2563291 2.08510315,84.7892152 1.23788796,85.7076456 C0.391900617,86.6273038 -0.0464411556,87.822 0.00390061655,89.0731772 C0.0321411229,89.7398987 0.593267705,90.2703291 1.25630568,90.2248987 C1.57431834,90.2126203 1.87145758,90.0751013 2.08878669,89.8393544 C2.30734365,89.6023797 2.42030568,89.2954177 2.40679935,88.9749494 C2.38101454,88.3659367 2.59466011,87.7851646 3.00721707,87.3382278 C3.41731834,86.892519 3.97721707,86.633443 4.58377403,86.6088861 C4.61201454,86.6076582 4.6390272,86.6076582 4.66726771,86.6076582 C5.88652087,86.6076582 6.9007234,87.571519 6.94983733,88.792 C6.97562214,89.3961013 6.76197657,89.9744177 6.34819176,90.4225823 C5.93809049,90.8707468 5.37573606,91.1285949 4.76795125,91.1531519 Z" id="Path-Copy-47" fill="#354739" fill-rule="nonzero"></path>
            <path d="M109.278572,47.8586962 C108.615534,47.8586962 108.076508,48.3989494 108.076508,49.0619873 L108.076508,51.8307848 C108.076508,52.4938228 108.615534,53.0340759 109.278572,53.0340759 C109.941609,53.0340759 110.481863,52.4938228 110.481863,51.8307848 L110.481863,49.0619873 C110.481863,48.3989494 109.941609,47.8586962 109.278572,47.8586962 Z" id="Path-Copy-48" fill="#BCE2C9" fill-rule="nonzero"></path>
            <path d="M109.278572,56.5248481 C108.615534,56.5248481 108.076508,57.0638734 108.076508,57.7269114 L108.076508,60.4969367 C108.076508,61.1599747 108.615534,61.699 109.278572,61.699 C109.941609,61.699 110.481863,61.1599747 110.481863,60.4969367 L110.481863,57.7269114 C110.481863,57.0638734 109.941609,56.5248481 109.278572,56.5248481 Z" id="Path-Copy-49" fill="#BCE2C9" fill-rule="nonzero"></path>
            <path d="M114.99666,53.5767848 L112.227863,53.5767848 C111.564825,53.5767848 111.024572,54.117038 111.024572,54.7800759 C111.024572,55.4431139 111.564825,55.9821392 112.227863,55.9821392 L114.99666,55.9821392 C115.659698,55.9821392 116.199951,55.4431139 116.199951,54.7800759 C116.199951,54.117038 115.659698,53.5767848 114.99666,53.5767848 Z" id="Path-Copy-50" fill="#BCE2C9" fill-rule="nonzero"></path>
            <path d="M103.561711,53.5767848 C102.898673,53.5767848 102.35842,54.117038 102.35842,54.7800759 C102.35842,55.4431139 102.898673,55.9821392 103.561711,55.9821392 L106.330508,55.9821392 C106.993546,55.9821392 107.533799,55.4431139 107.533799,54.7800759 C107.533799,54.117038 106.993546,53.5767848 106.330508,53.5767848 L103.561711,53.5767848 Z" id="Path-Copy-51" fill="#BCE2C9" fill-rule="nonzero"></path>
            <path d="M19.9366601,9.11149367 L17.9782424,11.0699114 C17.5092044,11.5389494 17.5092044,12.301443 17.9782424,12.770481 C18.4300905,13.2247848 19.2245082,13.2272405 19.678812,12.770481 L21.6372297,10.8120633 C22.1062677,10.3430253 22.1062677,9.58053165 21.6372297,9.11149367 C21.4027107,8.87697468 21.0945209,8.76032911 20.786331,8.76032911 C20.479369,8.76032911 20.1699512,8.87697468 19.9366601,9.11149367 Z" id="Path-Copy-52" fill="#BCE2C9" fill-rule="nonzero"></path>
            <path d="M13.55185,18.8986709 L15.5102677,16.9402532 C15.7386475,16.7131013 15.863888,16.4110506 15.863888,16.0893544 C15.863888,15.7688861 15.7386475,15.4668354 15.5102677,15.2396835 C15.2757487,15.0051646 14.9675588,14.888519 14.6605968,14.888519 C14.3524069,14.888519 14.0429892,15.0051646 13.8096981,15.2396835 L11.8512804,17.1981013 C11.3822424,17.6671392 11.3822424,18.4296329 11.8512804,18.8986709 C12.3055842,19.3542025 13.0975462,19.3529747 13.55185,18.8986709 Z" id="Path-Copy-53" fill="#BCE2C9" fill-rule="nonzero"></path>
            <path d="M19.9366601,18.8986709 C20.3885082,19.3542025 21.1829259,19.3542025 21.6372297,18.8986709 C22.1062677,18.4296329 22.1062677,17.6671392 21.6372297,17.1981013 L19.678812,15.2396835 C19.444293,15.0051646 19.1361031,14.888519 18.8279133,14.888519 C18.5209512,14.888519 18.2115335,15.0051646 17.9782424,15.2396835 C17.5092044,15.7087215 17.5092044,16.4712152 17.9782424,16.9402532 L19.9366601,18.8986709 Z" id="Path-Copy-54" fill="#BCE2C9" fill-rule="nonzero"></path>
            <path d="M13.8084702,12.7717089 C14.2775082,13.2407468 15.0424576,13.2382911 15.5090399,12.7717089 C15.9780778,12.3026709 15.9780778,11.5389494 15.5090399,11.0699114 L13.55185,9.11149367 C13.317331,8.87697468 13.0091411,8.76032911 12.7021791,8.76032911 C12.3939892,8.76032911 12.0845715,8.87697468 11.8512804,9.11149367 C11.3822424,9.58053165 11.3822424,10.3430253 11.8512804,10.8120633 L13.8084702,12.7717089 Z" id="Path-Copy-55" fill="#BCE2C9" fill-rule="nonzero"></path>
            <path d="M103.198964,4.0101519 L105.157382,2.05173418 C105.385761,1.82458228 105.511002,1.52253165 105.511002,1.20083544 C105.511002,0.880367089 105.385761,0.578316456 105.157382,0.351164557 C104.922863,0.11664557 104.614673,-2.27373675e-13 104.306483,-2.27373675e-13 C103.999521,-2.27373675e-13 103.690103,0.11664557 103.456812,0.351164557 L101.498394,2.30958228 C101.029356,2.77862025 101.029356,3.54111392 101.498394,4.0101519 C101.952698,4.46568354 102.745888,4.4644557 103.198964,4.0101519 Z" id="Path-Copy-56" fill="#BCE2C9" fill-rule="nonzero"></path>
            <path d="M97.070774,10.1371139 L99.0291918,8.1786962 C99.2575715,7.9515443 99.382812,7.64949367 99.382812,7.32779747 C99.382812,7.00732911 99.2575715,6.70527848 99.0291918,6.47812658 C98.8020399,6.24974684 98.4999892,6.12450633 98.178293,6.12450633 C97.8578247,6.12450633 97.555774,6.24974684 97.3286221,6.47812658 L95.3702044,8.4365443 C94.9011664,8.90558228 94.9011664,9.66807595 95.3702044,10.1371139 C95.8232804,10.5938734 96.6176981,10.5926456 97.070774,10.1371139 Z" id="Path-Copy-57" fill="#BCE2C9" fill-rule="nonzero"></path>
            <path d="M103.455584,10.1371139 C103.909888,10.5926456 104.704306,10.5914177 105.156154,10.1371139 C105.384534,9.90996203 105.509774,9.60791139 105.509774,9.28621519 C105.509774,8.96574684 105.384534,8.6636962 105.156154,8.4365443 L103.197736,6.47812658 C102.963217,6.24360759 102.655027,6.12696203 102.348065,6.12696203 C102.039875,6.12696203 101.730458,6.24360759 101.497166,6.47812658 C101.028128,6.94716456 101.028128,7.70965823 101.497166,8.1786962 L103.455584,10.1371139 Z" id="Path-Copy-58" fill="#BCE2C9" fill-rule="nonzero"></path>
            <path d="M97.3286221,4.0101519 C97.7816981,4.46568354 98.5761158,4.4644557 99.0291918,4.0101519 C99.2575715,3.783 99.382812,3.48094937 99.382812,3.15925316 C99.382812,2.83878481 99.2575715,2.53673418 99.0291918,2.30958228 L97.070774,0.351164557 C96.836255,0.11664557 96.5280652,-2.26485497e-13 96.2211031,-2.26485497e-13 C95.9129133,-2.26485497e-13 95.6034956,0.11664557 95.3702044,0.351164557 C94.9011664,0.820202532 94.9011664,1.5826962 95.3702044,2.05173418 L97.3286221,4.0101519 Z" id="Path-Copy-59" fill="#BCE2C9" fill-rule="nonzero"></path>
            <path d="M104.812888,33.9741899 L104.812888,33.9741899" id="Path-Copy-60"></path>
            <path d="M95.3370525,28.4983544 C96.1167361,28.5548354 96.8755462,28.4750253 97.5606854,28.3939873 C99.1372424,28.2085823 100.067951,28.1471899 100.949546,29.0287848 C101.829913,29.9091519 101.767293,30.8410886 101.581888,32.413962 C101.50085,33.1003291 101.42104,33.8591392 101.477521,34.6388228 C101.554875,35.711962 101.899901,36.8256203 102.930065,37.8557848 L103.812888,36.972962 L104.695711,36.0901392 C103.815344,35.2097722 103.877964,34.2778354 104.063369,32.704962 C104.256141,31.0731519 104.495572,29.0422911 102.71642,27.2631392 C100.934812,25.4815316 98.9027234,25.720962 97.2721411,25.9137342 C95.696812,26.1015949 94.7661031,26.1617595 93.8832804,25.2789367 C93.0004576,24.3961139 93.0630778,23.4617215 93.247255,21.8876203 C93.4375715,20.2545823 93.675774,18.2237215 91.8953943,16.4421139 C90.1150145,14.6605063 88.0841538,14.8987089 86.449888,15.091481 C84.8770145,15.2744304 83.94385,15.3382785 83.0597994,14.4542278 L82.1769766,15.3370506 L81.2941538,16.2198734 C82.3243183,17.250038 83.4392044,17.5950633 84.5135715,17.6736456 C85.2944829,17.7301266 86.053293,17.6515443 86.7396601,17.5717342 C88.3125335,17.387557 89.2481538,17.3261646 90.1297487,18.2077595 C91.0125715,19.0905823 90.9499512,20.0249747 90.765774,21.5990759 C90.6859639,22.285443 90.6061538,23.0442532 90.6638626,23.8239367 C90.7424449,24.8983038 91.0874702,26.0131899 92.1188626,27.0445823 C93.1477994,28.0759747 94.2639133,28.421 95.3370525,28.4983544 Z" id="Path-Copy-61" fill="#E6CFC0" fill-rule="nonzero"></path>
            <path d="M59.3920903,16.3917587 L58.3510757,16.3952769 C56.8195556,16.4144012 55.0485582,16.6068312 53.6569865,18.3592038 C52.3156229,20.0503903 52.4686911,21.7556324 52.7769738,23.2164469 L53.0450809,24.3926506 C53.3255114,25.6627047 53.3861865,26.4916695 52.6934865,27.3662841 L54.6491764,28.9190485 C55.5561727,27.7758615 55.7703542,26.6279832 55.7250113,25.5514655 C55.6976212,24.9008174 55.5778262,24.2748193 55.4466349,23.6947817 L55.2599692,22.8850828 C54.9795387,21.6150286 54.9188636,20.7860639 55.6115636,19.9114492 C56.3465564,18.984824 57.2241984,18.8943976 58.6621104,18.8903282 L58.9070217,18.890321 C59.5986486,18.891749 60.3614083,18.8829937 61.1292462,18.7384188 C62.1872482,18.5381257 63.2548876,18.067306 64.1618838,16.9241191 C65.0683611,15.7820449 65.2825426,14.6341666 65.2366808,13.5587617 C65.2092908,12.9081137 65.0894957,12.2821155 64.9583044,11.7020779 L64.7714909,10.892696 C64.4906836,9.62344999 64.4299597,8.79459004 65.1221953,7.92097105 C65.8139667,7.04834773 66.6351147,6.91933596 67.9339993,6.90549517 L68.4128332,6.90436906 C69.1044602,6.90579703 69.866701,6.89815459 70.6345389,6.75357971 C71.6925408,6.55328652 72.7596613,6.0835797 73.6656197,4.94261837 L71.7099298,3.38985403 C71.0181585,4.26247735 70.1974259,4.39059826 68.898257,4.40504859 L68.0476701,4.40637644 C66.4747327,4.41272787 64.6140679,4.54439886 63.1665054,6.36820671 C61.7697149,8.12886572 61.9940732,9.90566324 62.3266272,11.4048564 L62.4484063,11.9320658 C62.8118832,13.4739505 62.9787562,14.3944381 62.2050811,15.3708358 C61.5129125,16.2469105 60.6917227,16.3762855 59.3920903,16.3917587 L59.3920903,16.3917587 Z" id="Path-Copy-62" fill="#E6CFC0" fill-rule="nonzero"></path>
            <path d="M6.85639429,59.1499873 L6.85516644,59.1512152" id="Path-Copy-63"></path>
            <path d="M4.01793859,64.7242785 C4.47347024,63.5664177 5.35260948,63.2496329 6.86777403,62.7928734 C8.4418753,62.3176962 10.3990652,61.7246456 11.3199512,59.3831392 C12.2420652,57.0391772 11.2119006,55.2723038 10.3831031,53.8516835 C9.58622973,52.4826329 9.1564829,51.6513797 9.61201454,50.4922911 C10.068774,49.3307468 10.9491411,49.0127342 12.4655335,48.5547468 C14.0396348,48.0771139 15.9980525,47.4840633 16.9189386,45.1401013 C17.8398247,42.7961392 16.810888,41.028038 15.9833183,39.6074177 C15.1864449,38.2371392 14.7566981,37.4058861 15.2134576,36.2443418 L14.0506854,35.7863544 L12.8891411,35.3295949 C12.3550272,36.6875949 12.4839512,37.8479114 12.841255,38.8633418 C13.100331,39.6012785 13.4760525,40.2655443 13.8247614,40.8622785 C14.6216348,42.2313291 15.0501538,43.0638101 14.5946221,44.2241266 C14.1390905,45.3856709 13.2587234,45.7036835 11.7411031,46.1628987 C11.079293,46.363038 10.3524069,46.5938734 9.65990062,46.9573165 C8.70709049,47.4582785 7.82181201,48.2195443 7.28769808,49.5775443 C6.75481201,50.9343165 6.88373606,52.0934051 7.24103986,53.1088354 C7.50011581,53.8455443 7.87583733,54.5098101 8.22454619,55.1077722 C9.0214196,56.4755949 9.45116644,57.3080759 8.99563479,58.4683924 C8.541331,59.6262532 7.66096391,59.943038 6.14579935,60.3997975 C5.48398922,60.5999367 4.7558753,60.8295443 4.06459682,61.1929873 C3.11055884,61.6939494 2.22650821,62.4539873 1.69362214,63.8095316 L2.85639429,64.2662911 L4.01793859,64.7242785 Z" id="Path-Copy-64" fill="#E6CFC0" fill-rule="nonzero"></path>
        </g>
    </g>
</svg>