<svg xmlns="http://www.w3.org/2000/svg" width="20" height="18" viewBox="0 0 20 18">
    <g fill="none" fill-rule="evenodd">
        <path fill="#5EBE84" d="M19.972 13.329c0-1.169-.35-2.297-1.012-3.263-.476-.695-1.09-1.273-1.8-1.701.836-.793 1.36-1.913 1.36-3.154 0-2.396-1.95-4.345-4.345-4.345-1.42 0-2.752.703-3.56 1.856-.205-.03-.415-.046-.629-.046-.214 0-.423.016-.629.046C8.55 1.569 7.218.866 5.797.866c-2.396 0-4.345 1.95-4.345 4.345 0 1.24.524 2.361 1.36 3.154-.71.428-1.324 1.006-1.8 1.7C.35 11.033 0 12.16 0 13.33v2.417h4.189v1.81h11.595v-1.81h4.188v-2.417zm-5.797-11.39c1.805 0 3.273 1.468 3.273 3.272 0 1.805-1.468 3.273-3.273 3.273l-.097-.001.007-.021c.056-.159.102-.321.14-.487l.008-.036c.01-.045.018-.09.026-.135l.012-.065c.007-.04.013-.08.018-.121l.011-.086.012-.108.008-.111.006-.088c.003-.063.005-.127.005-.19v-.014-.007c0-.065-.002-.13-.005-.193 0-.019-.002-.037-.003-.056-.003-.054-.007-.109-.012-.162l-.004-.037C14.145 5 13.156 3.659 11.73 3.039c.615-.69 1.504-1.1 2.446-1.1zM8.854 3.95l.031-.01c.033-.013.066-.024.099-.034l.075-.023.055-.016c.033-.01.067-.018.1-.026.248-.06.506-.093.772-.093s.525.033.772.093l.1.026.056.016.074.023c.034.01.067.022.1.034l.03.01c1.095.405 1.915 1.38 2.101 2.561l.004.029.016.12.004.045c.004.037.007.074.009.112l.003.048.004.144V7.027c0 .046-.002.093-.004.139l-.002.044c-.002.044-.006.089-.01.133l-.006.05-.01.086-.01.066-.018.1-.019.088-.012.053c-.01.043-.022.086-.034.13l-.015.05-.023.074-.02.059-.024.066-.043.11-.021.049-.041.09-.005.011-.016.032-.049.096-.02.037-.001.002-.058.1-.023.04-.066.103-.044.062-.037.053-.05.066-.036.045-.054.067-.035.04-.059.066-.036.038c-.032.034-.065.068-.099.1l-.06.058-.043.038-.071.062-.037.03-.089.07-.024.019c-.545.405-1.22.645-1.949.645-.73 0-1.404-.24-1.949-.646l-.024-.018c-.03-.023-.06-.046-.088-.07l-.037-.03-.072-.062-.043-.038-.06-.058-.1-.1-.035-.038c-.02-.021-.04-.043-.058-.066l-.035-.04c-.02-.022-.037-.045-.055-.067l-.035-.045-.05-.066-.038-.053c-.015-.02-.03-.041-.043-.062l-.067-.104-.023-.038c-.02-.034-.04-.068-.058-.102l-.02-.038c-.018-.032-.034-.064-.05-.096l-.017-.035-.002-.005c-.015-.032-.03-.063-.043-.095l-.02-.046-.045-.113-.022-.061-.021-.064-.022-.07-.03-.105-.019-.075-.014-.058-.015-.073c-.008-.038-.014-.076-.02-.114l-.01-.062-.011-.091-.006-.046c-.004-.045-.008-.09-.01-.136l-.002-.04c-.002-.049-.004-.098-.004-.147 0-.053.002-.105.004-.158l.003-.042c.002-.04.005-.078.009-.117l.004-.041.016-.126.004-.024c.185-1.183 1.006-2.158 2.1-2.563zm-6.33 1.261c0-1.804 1.469-3.273 3.273-3.273.942 0 1.832.41 2.447 1.101-1.428.62-2.418 1.962-2.58 3.528l-.002.032c-.006.056-.01.112-.013.169l-.003.051c-.003.067-.005.134-.005.202 0 .069.002.137.005.205l.005.082.01.118.01.104.012.09.018.118.012.07.026.13.01.042c.036.161.082.319.135.473l.01.03-.097.001c-1.804 0-3.272-1.468-3.272-3.273zm2.564 6.837l-.035.056-.072.12-.039.067-.062.112-.038.07-.057.113-.035.072-.055.12-.03.065-.06.145-.017.042c-.025.064-.049.127-.071.19l-.015.045-.05.148-.02.069-.036.126-.02.076-.031.122-.018.078c-.01.042-.018.083-.026.125l-.015.075-.023.137-.01.064c-.01.067-.02.134-.027.202v.002c-.007.061-.013.123-.018.185H1.072v-1.345c0-1.837 1.056-3.486 2.71-4.27.603.317 1.289.497 2.015.497.21 0 .421-.015.63-.046.033.047.066.093.1.138l.036.045c.034.043.068.086.104.128l.044.05c.033.04.067.077.102.114l.055.057c.031.033.063.065.096.097l.036.036-.139.086-.022.015-.136.09c-.015.012-.03.022-.046.033l-.119.086-.037.028c-.05.037-.1.076-.148.115l-.031.026c-.04.032-.077.064-.115.097l-.044.038c-.038.033-.075.067-.112.102l-.03.026-.134.131-.034.035-.1.105-.04.042-.109.123-.017.02c-.041.048-.081.096-.12.146-.012.013-.023.027-.033.041-.03.038-.06.076-.088.115l-.034.044c-.038.052-.075.104-.111.157-.039.056-.076.114-.113.172zm.173 4.436v-1.345c0-.06.001-.119.004-.178 0-.02.002-.039.003-.058.002-.04.003-.08.006-.118l.007-.072.01-.103.01-.076.012-.098.013-.078.016-.094.017-.079.019-.09.019-.08.022-.089.022-.079.025-.086.025-.08.028-.084.029-.078.03-.083.031-.077.034-.081c.01-.026.022-.051.034-.077.012-.026.023-.053.036-.079l.037-.076.039-.077.04-.074.04-.076c.015-.024.03-.048.043-.073l.044-.073.046-.072.046-.072.048-.07.049-.07.05-.069.052-.068.053-.067.054-.066.056-.065.056-.064.058-.063.058-.062.06-.061.062-.06.062-.06.064-.057.064-.057.066-.056.067-.054.068-.054.069-.052.07-.052.07-.05.074-.048.072-.047.076-.047.074-.044c.025-.016.051-.03.077-.045l.076-.042.08-.042.077-.038.062-.03c.602.317 1.287.497 2.014.497.727 0 1.412-.18 2.015-.497l.06.03c.027.012.053.025.079.039l.079.041.076.042.077.044.075.045.075.046.073.048.072.049.071.05.07.05.07.053.067.053.067.055.066.056.065.057.063.057.063.06.06.06.06.06.059.063c.02.02.04.042.058.063.02.021.038.042.056.064l.056.065.054.066.053.067.051.068.051.069.049.07.048.07.046.071.046.073.043.073.043.073.041.075.04.075.039.077.037.076c.013.026.024.053.036.079l.034.077.034.08.031.078.03.083.029.078.028.085.025.079.025.086.022.08.022.088.02.08.019.09.016.08.016.093.013.078.013.097.01.076.01.104.006.072c.003.039.005.078.006.118l.004.058c.002.06.003.118.003.178v1.345h-9.45zm10.504-1.81c-.01-.131-.026-.26-.045-.39l-.01-.061c-.007-.047-.015-.093-.024-.14l-.014-.073c-.009-.042-.017-.085-.027-.127l-.017-.076-.031-.124-.02-.074-.037-.128-.02-.067-.05-.15-.014-.043c-.023-.064-.047-.128-.072-.19l-.016-.041-.061-.147-.03-.065-.055-.12-.035-.071-.057-.114-.038-.07-.062-.113-.039-.067-.072-.12-.035-.055c-.036-.058-.074-.116-.113-.172-.036-.053-.073-.105-.111-.157l-.033-.044-.089-.115-.032-.041c-.04-.05-.08-.098-.121-.146l-.016-.019-.11-.124-.04-.042-.1-.105-.034-.035c-.044-.044-.089-.088-.135-.13l-.028-.027-.113-.102-.044-.038-.115-.097-.031-.026c-.049-.04-.098-.078-.148-.115l-.037-.028-.119-.085-.046-.033-.135-.09-.024-.016c-.045-.03-.091-.058-.138-.086l.035-.035c.034-.032.066-.065.098-.098l.054-.056c.035-.038.07-.076.103-.115l.043-.05c.036-.042.07-.086.105-.13l.034-.043c.034-.045.068-.091.1-.138.21.03.42.046.63.046.728 0 1.413-.18 2.015-.497 1.655.784 2.71 2.433 2.71 4.27v1.345h-3.134z"/>
    </g>
</svg>
