<svg xmlns="http://www.w3.org/2000/svg" width="28" height="18" viewBox="0 0 28 18">
    <g fill="#E6CFC0" fill-rule="nonzero">
        <path d="M17.434 4.915V3.427a3.428 3.428 0 0 0-6.856 0v1.488a3.428 3.428 0 0 0 6.856 0zm-5.953 0V3.427a2.525 2.525 0 0 1 5.05 0v1.488a2.525 2.525 0 0 1-5.05 0zM8.48 17.645h11.052c.249 0 .451-.202.451-.452v-1.036h7.565c.25 0 .452-.203.452-.452v-2.931a3.385 3.385 0 0 0-3.17-3.376c-.24-.018-.364.134-.465.257a2.073 2.073 0 0 1-3.27-.08.452.452 0 0 0-.374-.183c-.586.013-1.16.18-1.661.484a3.796 3.796 0 0 0-2.65-1.314c-.233-.01-.35.133-.465.271a2.432 2.432 0 0 1-3.837-.093.45.45 0 0 0-.375-.183A3.78 3.78 0 0 0 8.947 9.88a3.358 3.358 0 0 0-1.54-.484c-.24-.017-.365.135-.465.258a2.072 2.072 0 0 1-3.27-.08.453.453 0 0 0-.374-.183A3.384 3.384 0 0 0 0 12.774v2.931c0 .25.202.452.452.452h7.577v1.036c0 .25.202.452.451.452zm12.048-7.336a2.976 2.976 0 0 0 4.456.012 2.483 2.483 0 0 1 2.113 2.453v2.48h-7.114v-2.898c0-.601-.142-1.194-.417-1.729.295-.172.623-.28.962-.318zm-8.99-.836a3.336 3.336 0 0 0 5.039.012 2.9 2.9 0 0 1 2.503 2.871v4.386H8.932v-4.386a2.918 2.918 0 0 1 2.607-2.883zM.904 15.253v-2.48a2.497 2.497 0 0 1 2.202-2.463 2.976 2.976 0 0 0 4.455.011c.311.046.61.152.882.311a3.784 3.784 0 0 0-.413 1.724v2.897H.903z"/>
        <path d="M25.769 6.26V4.959a3.057 3.057 0 1 0-6.114 0v1.303a3.057 3.057 0 0 0 6.114 0zm-5.21 0V4.959a2.154 2.154 0 0 1 4.306 0v1.303a2.154 2.154 0 1 1-4.307 0zM8.345 6.26V4.959a3.057 3.057 0 1 0-6.114 0v1.303a3.057 3.057 0 0 0 6.114 0zm-5.21 0V4.959a2.154 2.154 0 1 1 4.307 0v1.303a2.154 2.154 0 1 1-4.307 0z"/>
    </g>
</svg>
