<?xml version="1.0" encoding="UTF-8"?>
<svg width="40px" height="27px" viewBox="0 0 40 27" version="1.1" xmlns="http://www.w3.org/2000/svg" xmlns:xlink="http://www.w3.org/1999/xlink">
    <!-- Generator: Sketch 58 (84663) - https://sketch.com -->
    <title>Group 175</title>
    <desc>Created with Sketch.</desc>
    <g id="Page-1" stroke="none" stroke-width="1" fill="none" fill-rule="evenodd">
        <g id="Create-personal-gift-page/-first-step" transform="translate(-1061.000000, -710.000000)">
            <g id="Group-175" transform="translate(1061.000000, 704.000000)">
                <g id="sunset" transform="translate(0.000000, 6.000000)" fill-rule="nonzero">
                    <path d="M39.4140625,18.8016406 C37.6860937,18.8016406 36.8114062,19.1400781 35.9654687,19.4673438 C35.185625,19.7690625 34.4489062,20.0541406 32.9397656,20.0541406 C31.4305469,20.0541406 30.6939062,19.7691406 29.9139844,19.4673438 C29.068125,19.1400781 28.1934375,18.8016406 26.4653906,18.8016406 C24.7384375,18.8016406 23.8642969,19.1401563 23.0189062,19.4674219 C22.2396094,19.7691406 21.5035156,20.0541406 19.9955469,20.0541406 C18.4869531,20.0541406 17.750625,19.7691406 16.9710937,19.4674219 C16.1254687,19.1400781 15.2510937,18.8016406 13.5236719,18.8016406 C11.7967969,18.8016406 10.9226562,19.1401563 10.0772656,19.4674219 C9.29796875,19.7691406 8.56195312,20.0541406 7.05398437,20.0541406 C5.54648437,20.0541406 4.810625,19.7691406 4.0315625,19.4674219 C3.18640625,19.1400781 2.3125,18.8016406 0.5859375,18.8016406 C0.26234375,18.8016406 -2.84217094e-14,19.0639844 -2.84217094e-14,19.3875781 C-2.84217094e-14,19.7111719 0.26234375,19.9735156 0.5859375,19.9735156 C2.0934375,19.9735156 2.82921875,20.2585156 3.60835937,20.5602344 C4.45351562,20.8875781 5.32742187,21.2260156 7.05398437,21.2260156 C8.78085937,21.2260156 9.655,20.8875 10.5003906,20.5602344 C11.2796875,20.2585156 12.0157031,19.9735156 13.5236719,19.9735156 C15.0321875,19.9735156 15.7685156,20.2585156 16.5480469,20.5602344 C17.3936719,20.8875781 18.268125,21.2260156 19.9955469,21.2260156 C21.7225,21.2260156 22.5966406,20.8875 23.4420312,20.5602344 C24.2213281,20.2585156 24.9574219,19.9735156 26.4653906,19.9735156 C27.9745312,19.9735156 28.71125,20.2585156 29.4910937,20.5603125 C30.3370312,20.8875781 31.2117187,21.2260156 32.9397656,21.2260156 C34.6678125,21.2260156 35.5424219,20.8875781 36.3883594,20.5603125 C37.1682031,20.2585938 37.9049219,19.9735156 39.4140625,19.9735156 C39.7376562,19.9735156 40,19.7111719 40,19.3875781 C40,19.0639844 39.7376562,18.8016406 39.4140625,18.8016406 Z" id="Path" fill="#2E3537"></path>
                    <path d="M36.8295313,22.2671875 C36.713125,21.9652344 36.3738281,21.8148438 36.0720313,21.93125 L35.9652344,21.9725 C35.6125,22.1089844 35.2792969,22.2378906 34.8828125,22.3408594 C34.5696094,22.4222656 34.3816406,22.7421094 34.4629688,23.0553125 C34.5314844,23.3191406 34.7692188,23.4940625 35.0296875,23.4940625 C35.0785156,23.4940625 35.1280469,23.4878906 35.1774219,23.4750781 C35.6392969,23.3550781 36.0199219,23.2078125 36.388125,23.0653125 L36.4935156,23.0246094 C36.7954688,22.9082031 36.9459375,22.5690625 36.8295313,22.2671875 Z" id="Path" fill="#88816C"></path>
                    <path d="M32.5463281,22.5523438 C31.29625,22.5072656 30.6248438,22.2475 29.9139844,21.9724219 C29.0680469,21.6451563 28.1933594,21.3067188 26.4653906,21.3067188 C24.7384375,21.3067188 23.8642969,21.6452344 23.0189063,21.9725 C22.2396094,22.2742188 21.5035156,22.5592188 19.9955469,22.5592188 C18.4869531,22.5592188 17.7507031,22.2742187 16.9710938,21.9724219 C16.1254687,21.6451562 15.2510937,21.3066406 13.5236719,21.3066406 C11.7967969,21.3066406 10.9226562,21.6451563 10.0772656,21.9724219 C9.368125,22.2470312 8.69828125,22.5063281 7.45328125,22.5520312 C7.12984375,22.5639062 6.87734375,22.8357031 6.88921875,23.1590625 C6.90109375,23.4825 7.17296875,23.7342969 7.49625,23.723125 C8.93796875,23.6702344 9.73234375,23.3626563 10.5004687,23.0652344 C11.2797656,22.7635156 12.0157812,22.4785156 13.52375,22.4785156 C15.0322656,22.4785156 15.7685938,22.7635156 16.548125,23.0653125 C17.39375,23.3925781 18.2682031,23.7310938 19.995625,23.7310938 C21.7225781,23.7310938 22.5967187,23.3925781 23.4421094,23.0653125 C24.2214063,22.7635938 24.9575,22.4785938 26.4654687,22.4785938 C27.9746094,22.4785938 28.7113281,22.7635938 29.4911719,23.0653906 C30.2610938,23.3632813 31.0571875,23.6713281 32.5041406,23.7235156 C32.8254687,23.735 33.0991406,23.4825 33.1107813,23.1590625 C33.1224219,22.835625 32.8696875,22.5639844 32.5463281,22.5523438 Z" id="Path" fill="#2E3537"></path>
                    <path d="M26.4653906,23.8117969 C24.7384375,23.8117969 23.8642969,24.1503125 23.0189063,24.4775781 C22.2396094,24.7792969 21.5035156,25.0642969 19.9955469,25.0642969 C18.4869531,25.0642969 17.7507031,24.7792969 16.9710938,24.4775781 C16.1254687,24.1502344 15.2510938,23.8117969 13.5236719,23.8117969 C13.2000781,23.8117969 12.9377344,24.0741406 12.9377344,24.3977344 C12.9377344,24.7213281 13.2000781,24.9836719 13.5236719,24.9836719 C15.0321875,24.9836719 15.7685156,25.2686719 16.548125,25.5703906 C17.39375,25.8977344 18.268125,26.2361719 19.9955469,26.2361719 C21.7225,26.2361719 22.5966406,25.8976562 23.4420312,25.5703906 C24.2213281,25.2686719 24.9574219,24.9836719 26.4653906,24.9836719 C26.7889844,24.9836719 27.0513281,24.7213281 27.0513281,24.3977344 C27.0513281,24.0741406 26.7889844,23.8117969 26.4653906,23.8117969 Z" id="Path" fill="#2E3537"></path>
                    <path d="M5.11804688,22.3422656 C4.71921875,22.2389062 4.38492188,22.109375 4.03101563,21.9722656 C3.72929688,21.8553906 3.38984375,22.0052344 3.27296875,22.3069531 C3.15609375,22.60875 3.3059375,22.948125 3.60765625,23.065 C3.9771875,23.208125 4.35929688,23.3561719 4.82398438,23.4766406 C4.87328125,23.4894531 4.92273438,23.4955469 4.97140625,23.4955469 C5.23195313,23.4955469 5.46976563,23.3203906 5.53820313,23.0564844 C5.61945313,22.7432031 5.43132813,22.4235156 5.11804688,22.3422656 Z" id="Path" fill="#88816C"></path>
                    <path d="M27.6782813,10.9130469 C25.9277344,8.401875 23.0574219,6.90265625 20.0000781,6.90265625 C14.8425,6.90265625 10.6464838,11.0985937 10.6464838,16.25625 C10.6464838,16.4788281 10.6542969,16.7034375 10.6699219,16.9238281 C10.6917188,17.2325781 10.9489844,17.4685156 11.2538281,17.4685156 C11.2677344,17.4685156 11.2816406,17.4680469 11.2957031,17.4670312 C11.6185156,17.4442188 11.8617188,17.1640625 11.8389063,16.84125 C11.8252344,16.648125 11.8183594,16.4513281 11.8183594,16.25625 C11.8183594,11.7448438 15.4885937,8.07453125 20.0000781,8.07453125 C22.674375,8.07453125 25.1853906,9.38617188 26.716875,11.5832031 C26.9019531,11.8485938 27.2671094,11.91375 27.5326563,11.7288281 C27.798125,11.54375 27.8632813,11.1785156 27.6782813,10.9130469 Z" id="Path" fill="#88816C"></path>
                    <path d="M8.10109375,15.6703906 L4.34351563,15.6703906 C4.01992187,15.6703906 3.75757813,15.9327344 3.75757813,16.2563281 C3.75757813,16.5799219 4.01992187,16.8422656 4.34351563,16.8422656 L8.10109375,16.8422656 C8.4246875,16.8422656 8.68703125,16.5799219 8.68703125,16.2563281 C8.68703125,15.9327344 8.4246875,15.6703906 8.10109375,15.6703906 Z" id="Path" fill="#88816C"></path>
                    <path d="M20,0.013828125 C19.6764062,0.013828125 19.4140625,0.276171875 19.4140625,0.599765625 L19.4140625,4.35734375 C19.4140625,4.68101563 19.6764062,4.94328125 20,4.94328125 C20.3235938,4.94328125 20.5859375,4.6809375 20.5859375,4.35734375 L20.5859375,0.599765625 C20.5859375,0.276171875 20.3235938,0.013828125 20,0.013828125 Z" id="Path" fill="#88816C"></path>
                    <path d="M31.4851562,4.77117188 C31.2563281,4.54234375 30.8853125,4.54234375 30.6565625,4.77117188 L27.9995312,7.42820312 C27.7707031,7.65703125 27.7707031,8.02804687 27.9995312,8.25679687 C28.1139062,8.37117187 28.2638281,8.4284375 28.4138281,8.4284375 C28.56375,8.4284375 28.71375,8.37125 28.828125,8.25679687 L31.4851562,5.59976562 C31.7139844,5.3709375 31.7139844,4.99992188 31.4851562,4.77117188 Z" id="Path" fill="#88816C"></path>
                    <path d="M15.9878125,5.03890625 L15.5085156,3.88171875 C15.3846875,3.58273437 15.0419531,3.44085937 14.7429687,3.56460937 C14.4439844,3.6884375 14.3020312,4.03125 14.4258594,4.33015625 L14.9051562,5.48734375 C14.9985937,5.71296875 15.2167969,5.84921875 15.4467187,5.84921875 C15.5214844,5.84921875 15.5974219,5.83484375 15.6707031,5.80445312 C15.9696875,5.680625 16.1116406,5.3378125 15.9878125,5.03890625 Z" id="Path" fill="#88816C"></path>
                    <path d="M32.6917187,10.9992969 C32.5678906,10.7003906 32.2251562,10.5583594 31.9261719,10.6821875 L30.7689844,11.1614844 C30.47,11.2852344 30.3280469,11.6280469 30.451875,11.9270313 C30.5453125,12.1526562 30.7635156,12.2889063 30.9934375,12.2889063 C31.0682031,12.2889063 31.1441406,12.2745313 31.2174219,12.2441406 L32.3746094,11.7648438 C32.6735937,11.6410156 32.8155469,11.2982031 32.6917187,10.9992969 Z" id="Path" fill="#88816C"></path>
                    <path d="M25.2570313,3.56460937 C24.958125,3.44078125 24.6153125,3.58273437 24.4914844,3.88171875 L24.0121875,5.03890625 C23.8883594,5.3378125 24.0303125,5.68054688 24.3292969,5.80445313 C24.4025781,5.83484375 24.4785938,5.84921875 24.5532813,5.84921875 C24.7832031,5.84921875 25.0014063,5.71296875 25.0948438,5.48734375 L25.5741406,4.33015625 C25.6979688,4.03117187 25.5560156,3.6884375 25.2570313,3.56460937 Z" id="Path" fill="#88816C"></path>
                    <path d="M9.23101563,11.1614062 L8.07382813,10.6821094 C7.77476563,10.5582812 7.43210938,10.7002344 7.30828125,10.9992187 C7.18445313,11.2982031 7.32640625,11.6409375 7.62539063,11.7647656 L8.78257813,12.2440625 C8.8559375,12.2744531 8.931875,12.2888281 9.0065625,12.2888281 C9.23648437,12.2888281 9.4546875,12.1525781 9.548125,11.9269531 C9.67195313,11.6279687 9.53,11.2852344 9.23101563,11.1614062 Z" id="Path" fill="#88816C"></path>
                    <path d="M9.12984375,3.77148438 C8.264375,3.77148438 7.42867187,4.05992188 6.74007812,4.5903125 C6.42640625,4.49210938 6.103125,4.44242188 5.77492187,4.44242188 C3.971875,4.44242188 2.505,5.90929688 2.505,7.71234375 C2.505,8.0359375 2.76734375,8.29828125 3.0909375,8.29828125 L12.4848437,8.29828125 C12.8084375,8.29828125 13.0707812,8.0359375 13.0707812,7.71234375 C13.0707812,5.539375 11.3028906,3.77148438 9.12984375,3.77148438 Z M3.76015625,7.12632812 C4.01429687,6.25375 4.82132812,5.61429687 5.77492187,5.61429687 C6.06359375,5.61429687 6.34765625,5.67507812 6.61921875,5.795 C6.83320312,5.88945312 7.0828125,5.84765625 7.25429687,5.68859375 C7.77257812,5.20796875 8.43875,4.94328125 9.12992187,4.94328125 C10.4557812,4.94328125 11.5669531,5.88 11.8366406,7.12632812 L3.76015625,7.12632812 Z" id="Shape" fill="#2E3537"></path>
                    <path d="M29.84125,13.6126563 C29.5130469,13.6126563 29.1897656,13.6622656 28.8760938,13.7605469 C28.1875,13.2301563 27.3517187,12.9417187 26.4863281,12.9417187 C24.3132812,12.9417187 22.5453906,14.7096094 22.5453906,16.8825781 C22.5453906,17.2061719 22.8077344,17.4685156 23.1313281,17.4685156 L32.5252344,17.4685156 C32.8488281,17.4685156 33.1111719,17.2061719 33.1111719,16.8825781 C33.1111719,15.0795312 31.6442969,13.6126563 29.84125,13.6126563 Z M23.7796094,16.2966406 C24.0492188,15.0503125 25.1604687,14.1135937 26.4863281,14.1135937 C27.1775,14.1135937 27.8435938,14.3782812 28.3619531,14.8589063 C28.5335156,15.0178906 28.7829687,15.0596094 28.9969531,14.9652344 C29.2685156,14.8453125 29.5525781,14.7845313 29.84125,14.7845313 C30.7948437,14.7845313 31.601875,15.4239844 31.8560937,16.2966406 L23.7796094,16.2966406 L23.7796094,16.2966406 Z" id="Shape" fill="#2E3537"></path>
                </g>
                <rect id="Rectangle" stroke="#979797" fill="#D8D8D8" opacity="0" x="0.5" y="0.5" width="39" height="39"></rect>
            </g>
        </g>
    </g>
</svg>