<?xml version="1.0" encoding="UTF-8"?>
<svg width="178px" height="294px" viewBox="0 0 178 294" version="1.1" xmlns="http://www.w3.org/2000/svg" xmlns:xlink="http://www.w3.org/1999/xlink">
    <!-- Generator: Sketch 58 (84663) - https://sketch.com -->
    <title>jellymask</title>
    <desc>Created with Sketch.</desc>
    <defs>
        <rect id="path-1" x="0" y="0" width="242" height="296"></rect>
    </defs>
    <g id="Page-1" stroke="none" stroke-width="1" fill="none" fill-rule="evenodd">
        <g id="gifts-&amp;-benefits-main-screen_-_" transform="translate(-784.000000, -194.000000)">
            <g id="jellymask" transform="translate(720.000000, 194.000000)">
                <mask id="mask-2" fill="white">
                    <use xlink:href="#path-1"></use>
                </mask>
                <use id="Mask" fill="#334739" opacity="0" xlink:href="#path-1"></use>
                <g id="Group" mask="url(#mask-2)" fill="#88816C">
                    <g transform="translate(178.500000, 149.500000) rotate(-330.000000) translate(-178.500000, -149.500000) translate(68.000000, -17.000000)">
                        <path d="M165.407423,61.5755554 C176.067559,55.5862967 185.787074,47.842298 194.101877,38.5405647 C207.603643,53.8864838 216.72438,72.7287005 220.240915,92.9404345 C209.462926,102.251689 197.618412,110.076247 185.030184,116.30865 L185.030184,111.941574 C185.030184,92.5434942 177.58573,74.8532834 165.407423,61.5755554 L165.407423,61.5755554 Z M147.947726,129.527057 L147.947726,112.703231 C147.947726,94.2074213 134.479633,78.8087721 116.84206,75.7848482 C133.7652,74.8239889 150.128359,70.0336073 164.752282,61.9453983 C176.878617,75.1074131 184.298183,92.6723899 184.298183,111.941574 L184.298183,116.66824 C172.721581,122.3294 160.526438,126.65107 147.947726,129.527057 L147.947726,129.527057 Z M110.865269,133.751322 L110.865269,113.603304 L110.133267,113.603304 L110.133267,133.751322 C97.8217361,133.724957 85.6375732,132.344454 73.7842749,129.689641 L73.7842749,112.703231 C73.7842749,92.4475547 90.2550379,75.9686712 110.5,75.9686712 C130.744962,75.9686712 147.215725,92.4475547 147.215725,112.703231 L147.215725,129.689641 C135.362427,132.344454 123.178264,133.724957 110.865269,133.751322 L110.865269,133.751322 Z M36.7032811,116.66824 L36.7032811,111.941574 C36.7032811,92.6723899 44.1228471,75.1074131 56.2484499,61.9453983 C70.8731054,70.0336073 87.2355322,74.8239889 104.158672,75.7848482 C86.5210989,78.8087721 73.0522735,94.2074213 73.0522735,112.703231 L73.0522735,129.527057 C60.4742938,126.65107 48.2784189,122.3294 36.7032811,116.66824 L36.7032811,116.66824 Z M0.75981743,92.9404345 C4.27708405,72.7287005 13.3970892,53.8872162 26.8988546,38.5405647 C35.2151223,47.842298 44.9346366,55.5862967 55.5933086,61.5755554 C43.4157337,74.8532834 35.9712797,92.5434942 35.9712797,111.941574 L35.9712797,116.30865 C23.383052,110.076247 11.5378057,102.251689 0.75981743,92.9404345 L0.75981743,92.9404345 Z M164.239149,61.3946619 C147.94187,70.3734234 129.4786,75.2363089 110.5,75.2363089 C91.5214003,75.2363089 73.0595935,70.3734234 56.7615828,61.3946619 C70.2311402,47.0689234 89.3378402,38.1077386 110.5,38.1077386 C131.66216,38.1077386 150.770324,47.0689234 164.239149,61.3946619 L164.239149,61.3946619 Z M38.3583362,27.2585239 C49.5250172,17.7531939 62.3994575,10.6258443 76.1676714,6.16429327 C86.066526,13.8511677 97.9315363,17.9172431 110.5,17.9172431 C123.068464,17.9172431 134.934206,13.8519001 144.833793,6.16429327 C158.602007,10.6258443 171.475715,17.7531939 182.643128,27.2585239 C186.560067,30.592237 190.220806,34.1830092 193.613632,37.9883636 C185.300293,47.3032794 175.569798,55.0487428 164.89429,61.0240866 C151.284921,46.4808365 131.93666,37.3753764 110.5,37.3753764 C89.0640717,37.3753764 69.7158112,46.4808365 56.1071736,61.0240866 C45.4316655,55.0487428 35.7011712,47.3032794 27.3870996,37.9890959 C30.7799259,34.1830092 34.4406648,30.592237 38.3583362,27.2585239 L38.3583362,27.2585239 Z M143.980279,5.89038978 C134.291509,13.2762633 122.734671,17.1848808 110.5,17.1848808 C98.265329,17.1848808 86.7092232,13.275531 77.021917,5.89038978 C87.7757492,2.50101717 99.0624785,0.732362275 110.5,0.732362275 C121.938986,0.732362275 133.225715,2.50101717 143.980279,5.89038978 L143.980279,5.89038978 Z M220.633999,93.086907 L221,93.0239238 C216.571392,67.2784604 203.11867,43.7242249 183.116733,26.7004638 C162.887875,9.48262674 137.098734,0 110.5,0 C83.9019979,0 58.1135894,9.48262674 37.8839993,26.7004638 C17.8835257,43.7242249 4.42934034,67.277728 0,93.0224591 L0.364536686,93.0854423 L0.125172236,93.3622752 C11.0846969,102.852958 23.1458836,110.809342 35.9712797,117.125234 L35.9712797,266.111156 L36.7032811,266.111156 L36.7032811,117.484091 C48.2835429,123.117422 60.4779538,127.417853 73.0522735,130.280657 L73.0522735,230.469281 L73.7842749,230.469281 L73.7842749,130.438848 C85.6390372,133.081943 97.8224681,134.45732 110.133267,134.483685 L110.133267,333 L110.865269,333 L110.865269,134.483685 C123.177532,134.45732 135.360231,133.082676 147.215725,130.438848 L147.215725,230.469281 L147.947726,230.469281 L147.947726,130.280657 C160.522046,127.417853 172.717189,123.117422 184.298183,117.484091 L184.298183,266.111156 L185.030184,266.111156 L185.030184,117.124502 C197.854116,110.809342 209.915303,102.85369 220.873364,93.3637399 L220.633999,93.086907 Z" id="Fill-1"></path>
                        <polygon id="Fill-4" points="73 300 74 300 74 245 73 245"></polygon>
                        <polygon id="Fill-6" points="148 300 149 300 149 245 148 245"></polygon>
                    </g>
                </g>
            </g>
        </g>
    </g>
</svg>