<svg xmlns="http://www.w3.org/2000/svg" width="20" height="17" viewBox="0 0 20 17">
    <g fill="#F8D0B6" fill-rule="evenodd">
        <path d="M19.114 7.368H7.084c-.38 0-.688.308-.688.688 0 .38.308.687.687.687h12.03c.38 0 .688-.308.688-.687 0-.38-.308-.688-.687-.688z"/>
        <circle cx="1.722" cy="8.056" r="1.719"/>
        <path d="M7.083 2.406h12.03c.38 0 .688-.308.688-.687 0-.38-.308-.688-.687-.688H7.084c-.38 0-.688.308-.688.688 0 .38.308.687.687.687z"/>
        <circle cx="1.722" cy="1.719" r="1.719"/>
        <path d="M19.114 13.705H7.084c-.38 0-.688.308-.688.688 0 .38.308.687.687.687h12.03c.38 0 .688-.308.688-.687 0-.38-.308-.688-.687-.688z"/>
        <circle cx="1.722" cy="14.393" r="1.719"/>
    </g>
</svg>
