<?xml version="1.0" encoding="UTF-8"?>
<svg width="31px" height="33px" viewBox="0 0 31 33" version="1.1" xmlns="http://www.w3.org/2000/svg" xmlns:xlink="http://www.w3.org/1999/xlink">
    <!-- Generator: Sketch 64 (93537) - https://sketch.com -->
    <title>live</title>
    <desc>Created with Sketch.</desc>
    <g id="Page-1" stroke="none" stroke-width="1" fill="none" fill-rule="evenodd">
        <g id="live" transform="translate(0.000000, 0.717949)" fill-rule="nonzero">
            <circle id="Oval" fill="#4F946D" cx="15.0769231" cy="16.3076923" r="15.0769231"></circle>
            <circle id="Oval" fill="#5EBE84" cx="15.8974359" cy="15.0769231" r="15.0769231"></circle>
            <path d="M17.1831795,8.48512821 C16.2988718,8.48512821 15.5821538,9.20184615 15.5821538,10.0861538 L15.5821538,20.3325128 C15.5821538,21.2168205 16.2988718,21.9335385 17.1831795,21.9335385 C18.0674872,21.9335385 18.7842051,21.2168205 18.7842051,20.3325128 L18.7842051,10.0861538 C18.784,9.20184615 18.0672821,8.48512821 17.1831795,8.48512821 Z" id="Path" fill="#2E3537" opacity="0.300000012"></path>
            <path d="M23.5870769,8.48512821 C22.7027692,8.48512821 21.9860513,9.20184615 21.9860513,10.0861538 L21.9860513,20.3325128 C21.9860513,21.2168205 22.7027692,21.9335385 23.5870769,21.9335385 C24.4713846,21.9335385 25.1881026,21.2168205 25.1881026,20.3325128 L25.1881026,10.0861538 C25.1881026,9.20184615 24.4713846,8.48512821 23.5870769,8.48512821 Z" id="Path" fill="#2E3537" opacity="0.300000012"></path>
            <path d="M10.7790769,8.48512821 C9.89476923,8.48512821 9.17805128,9.20184615 9.17805128,10.0861538 L9.17805128,20.3325128 C9.17805128,21.2168205 9.89476923,21.9335385 10.7790769,21.9335385 C11.6633846,21.9335385 12.3801026,21.2168205 12.3801026,20.3325128 L12.3801026,10.0861538 C12.3801026,9.20184615 11.6633846,8.48512821 10.7790769,8.48512821 Z" id="Path" fill="#2E3537" opacity="0.300000012"></path>
        </g>
    </g>
</svg>