<svg xmlns="http://www.w3.org/2000/svg" width="32" height="32" viewBox="0 0 32 32">
    <path fill="#678189" d="M31.866 18.967c-.759-1.362-1.825-2.528-3.113-3.406 1.44-2.077 2.18-4.559 2.113-7.085-.004-.182-.1-.349-.256-.443-2.144-1.311-4.646-1.914-7.152-1.724-.285.033-.493.287-.47.573.025.287.273.503.56.487 2.181-.164 4.361.333 6.257 1.426.038 3.724-1.907 7.188-5.107 9.094-2.04 1.171-4.427 1.591-6.746 1.186.238-.187.469-.383.692-.588 2.976-1.003 5.437-3.137 6.85-5.941.13-.263.024-.583-.239-.715-.263-.131-.583-.024-.714.239-.941 1.866-2.401 3.42-4.205 4.476.331-.475.625-.975.881-1.495.13-.265.02-.584-.244-.714-.265-.13-.584-.02-.714.245-.85 1.722-2.15 3.184-3.76 4.23v-5.44c0-.294-.238-.532-.532-.532-.294 0-.532.238-.532.532v5.443c-2.947-1.89-4.747-5.135-4.79-8.636.05-3.724 2.078-7.14 5.322-8.97 3.244 1.83 5.27 5.246 5.322 8.97-.001.84-.108 1.677-.32 2.491-.066.282.105.565.386.637.28.073.567-.092.645-.37.234-.901.352-1.828.353-2.758-.008-2.284-.717-4.511-2.032-6.38 1.26-.682 2.666-1.05 4.1-1.071.34.613.607 1.265.797 1.94.052.183.197.325.38.373.185.047.38-.008.514-.144.133-.136.183-.333.131-.516-.241-.863-.597-1.69-1.057-2.46-.095-.158-.266-.256-.45-.258-1.774-.023-3.522.421-5.07 1.288-.963-1.145-2.13-2.102-3.444-2.82-.159-.088-.352-.088-.51 0-1.238.677-2.348 1.566-3.279 2.625-1.455-.741-3.07-1.117-4.703-1.093-.184.003-.354.101-.449.26C6.47 3.28 5.991 4.81 5.883 6.388c-1.615.235-3.166.794-4.56 1.643-.155.094-.251.261-.255.443-.116 3.656 1.489 7.155 4.334 9.455.15.117.35.146.527.075.177-.071.302-.231.329-.42.027-.188-.049-.376-.199-.494-2.503-2.024-3.95-5.077-3.93-8.296 2.344-1.362 5.119-1.78 7.76-1.17-.203.835-.307 1.693-.309 2.554.009 2.267.708 4.478 2.005 6.338-1.54-.91-2.83-2.19-3.753-3.722l-.457-.761c-.096-.167-.275-.269-.467-.267-.193.002-.369.108-.461.277-.092.17-.086.375.016.538l.456.76c1.447 2.408 3.7 4.225 6.359 5.128.225.208.459.408.702.6-2.113.359-4.285.041-6.206-.908-.261-.12-.57-.011-.699.246-.128.257-.029.57.224.706 1.548.77 3.254 1.17 4.983 1.168.975-.002 1.946-.127 2.89-.373.057.036.116.069.173.103-1.606 2.164-4.134 3.45-6.83 3.472-3.032-.03-5.827-1.645-7.368-4.257.385-.64.847-1.23 1.376-1.757.202-.208.2-.54-.005-.746-.204-.206-.536-.21-.746-.008-.67.666-1.243 1.423-1.703 2.25-.09.16-.09.357 0 .518 1.691 3.093 4.922 5.03 8.447 5.065.844-.002 1.684-.117 2.498-.344 1.51 1.77 2.765 3.743 3.731 5.86l.737 1.623c.087.19.276.312.485.312h.02c.216-.009.406-.147.48-.35.739-2.031 1.737-3.959 2.97-5.734.162-.242.1-.569-.139-.734-.239-.166-.566-.11-.736.127-1.042 1.501-1.924 3.107-2.631 4.793l-.217-.48c-.948-2.08-2.165-4.026-3.62-5.79 1.511-.624 2.842-1.616 3.873-2.884 2.004 2.517 5.14 3.855 8.344 3.56 3.204-.294 6.044-2.182 7.555-5.022.09-.161.09-.357 0-.519zM6.955 6.29c.11-1.25.482-2.464 1.09-3.561 1.285.022 2.55.32 3.709.875-.666.913-1.193 1.919-1.563 2.986-1.059-.256-2.149-.357-3.236-.3zm16.463 17.195c-2.696-.023-5.225-1.31-6.831-3.476l.171-.102c.957.25 1.942.38 2.931.383 3.236.01 6.311-1.407 8.406-3.873 1.093.728 2.011 1.688 2.692 2.81-1.542 2.612-4.337 4.228-7.37 4.258z"/>
</svg>
