<?xml version="1.0" encoding="UTF-8"?>
<svg width="40px" height="40px" viewBox="0 0 40 40" version="1.1" xmlns="http://www.w3.org/2000/svg" xmlns:xlink="http://www.w3.org/1999/xlink">
    <!-- Generator: Sketch 58 (84663) - https://sketch.com -->
    <title>rings</title>
    <desc>Created with Sketch.</desc>
    <g id="Page-1" stroke="none" stroke-width="1" fill="none" fill-rule="evenodd">
        <g id="Create-personal-gift-page/-first-step" transform="translate(-757.000000, -512.000000)" fill="#2E3537" fill-rule="nonzero">
            <g id="rings" transform="translate(757.000000, 512.000000)">
                <path d="M39.5825781,23.2366406 C38.8221094,20.115 36.9727344,17.3585937 34.3752344,15.4752344 C31.9026562,13.6825 28.8919531,12.7747656 25.8627344,12.9003125 C24.4664063,9.90367187 22.0352344,7.53585937 18.9759375,6.20664062 C18.675625,6.07632812 18.3266406,6.21390625 18.1960937,6.5140625 C18.0657031,6.81429687 18.2032813,7.1634375 18.5035156,7.29390625 C21.4135156,8.55820312 23.7010938,10.8508594 24.945,13.7494531 C25.2172656,14.3839062 25.4379687,15.0448437 25.6009375,15.7139844 C25.6442187,15.8916406 25.6841406,16.074375 25.7229687,16.2727344 C25.7229687,16.2728906 25.7230469,16.2730469 25.7230469,16.273125 C26.3164844,19.3020312 25.758125,22.4254687 24.1507812,25.0682031 C22.63125,27.5664844 20.2990625,29.43 17.5458594,30.3579687 C17.4961719,30.245 17.4486719,30.1309375 17.4032813,30.0159375 C17.4027344,30.0146094 17.4022656,30.0133594 17.4017969,30.0120312 C17.3145313,29.7907812 17.2357813,29.5657812 17.1646875,29.3380469 C17.1589844,29.3197656 17.1532813,29.3014844 17.1477344,29.283125 C17.1148437,29.1755469 17.0835156,29.0673437 17.0542969,28.9585156 C17.0535938,28.9557812 17.0528906,28.9530469 17.0521875,28.9503125 C22.2304688,27.2123437 25.3621094,21.8205469 24.2308594,16.4179688 C24.2308594,16.4178906 24.2308594,16.4178125 24.2308594,16.4177344 C24.2029687,16.2844531 24.1778906,16.1728906 24.1520312,16.0667187 C23.9553125,15.2594531 23.6677344,14.4769531 23.2971875,13.7409375 C23.2964062,13.739375 23.2955469,13.7379687 23.2947656,13.7364062 C23.2922656,13.7314844 23.2896875,13.7267187 23.2870312,13.721875 C22.1989844,11.5717187 20.393125,9.82117187 18.1992969,8.7915625 C17.1475781,8.29796875 16.0250781,7.98039062 14.8809375,7.8434375 L19.0913281,3.92984375 C19.3047656,3.73140625 19.3423437,3.40726562 19.1799219,3.1653125 L19.1771094,3.16117187 C19.1770312,3.16109375 19.1770312,3.16101562 19.1769531,3.1609375 L17.2305469,0.262265625 C17.1204688,0.098359375 16.9359375,0 16.7385156,0 L10.4299219,0 C10.2324219,0 10.0479687,0.098359375 9.9378125,0.262265625 L7.98835937,3.16546875 C7.8259375,3.40742188 7.8634375,3.7315625 8.07695312,3.93 L12.2869531,7.84328125 C11.8582812,7.89445313 11.4316406,7.97078125 11.0096875,8.07351563 C5.18257813,9.493125 1.59679688,15.3888281 3.01625,21.2159375 C3.60148438,23.6182813 5.00234375,25.768125 6.96078125,27.2696094 C8.76007813,28.6490625 10.9628906,29.4371875 13.2125781,29.5142969 C13.2233594,29.5607813 13.2342969,29.606875 13.2453906,29.6527344 C13.2717969,29.7611719 13.2997656,29.8688281 13.3286719,29.9760156 C13.3353906,30.0008594 13.3425781,30.0257031 13.349375,30.0505469 C13.3729687,30.13625 13.3972656,30.2215625 13.4224219,30.3064062 C13.429375,30.3297656 13.4364844,30.353125 13.4435937,30.3764844 C13.4710937,30.4673437 13.4994531,30.5577344 13.5286719,30.6475781 C13.5336719,30.6630469 13.5386719,30.6785156 13.54375,30.6939844 C13.5788281,30.8003906 13.6148437,30.9061719 13.6523437,31.0111719 C11.0453906,31.024375 8.4771875,30.2077344 6.34226562,28.6676562 C3.95953125,26.94875 2.26367187,24.4276562 1.56726562,21.5688281 C0.872109375,18.7153125 1.21578125,15.7014844 2.53515625,13.0825 C3.83992187,10.4924219 6.01585937,8.43609375 8.66226562,7.29234375 C8.96273437,7.16242187 9.10101562,6.81359375 8.97117187,6.513125 C8.84125,6.21273437 8.49234375,6.07421875 8.19195312,6.20421875 C5.29109375,7.45804687 2.90617188,9.71140625 1.4765625,12.5492187 C0.030748302,15.4196094 -0.34609375,18.7225 0.415625,21.8494531 C1.17882813,24.9822656 3.03742188,27.7450781 5.64882813,29.6289844 C7.9665625,31.3010156 10.7508594,32.196875 13.5811719,32.1967969 C13.7653906,32.1967969 13.9498437,32.191875 14.134375,32.1842969 C16.3592969,36.9482813 21.18625,40 26.4142969,40 C27.473125,40 28.5486719,39.8747656 29.6220313,39.6132812 C36.8832031,37.844375 41.3514844,30.4978906 39.5825781,23.2366406 Z M25.1635938,25.6842187 C26.796875,22.9989062 27.4409375,19.8602344 27.0075,16.7710156 C28.93625,16.8905469 30.8158594,17.5945312 32.355625,18.7876562 C34.1039844,20.1424219 35.3053906,21.9969531 35.8301563,24.1508594 C37.095,29.3429687 33.9,34.5960156 28.7078906,35.8608594 C26.1928125,36.4736719 23.5896094,36.0702344 21.3778125,34.725 C20.0088281,33.8923437 18.8916406,32.7603906 18.0934375,31.4223437 C21.0375,30.3867969 23.5296875,28.3707812 25.1635938,25.6842187 Z M16.8142188,27.7782812 C16.5114063,25.62125 16.9407813,23.4371875 18.0571875,21.5367187 C19.2253125,19.5482031 21.029375,18.0653125 23.1828125,17.3074219 C23.8177344,21.8495312 21.1395313,26.2528906 16.8142188,27.7782812 Z M10.7457813,1.18539062 L16.4225,1.18539062 L17.5730469,2.89882812 L9.5953125,2.89882812 L10.7457813,1.18539062 Z M9.98390625,4.08421875 L17.184375,4.08421875 L13.5841406,7.43070312 L9.98390625,4.08421875 Z M12.9896094,28.3158594 C11.0784375,28.1982813 9.21539063,27.5045313 7.68210938,26.3289063 C5.9121875,24.9719531 4.69710938,23.106875 4.168125,20.9353125 C2.90328125,15.7432813 6.09828125,10.4901563 11.2903906,9.22523437 C13.4619531,8.69617187 15.6769531,8.91742188 17.6958594,9.86484375 C19.4450781,10.6857031 20.9160938,12.0210156 21.9008594,13.6642187 C18.8594531,14.73375 16.3154688,16.8382031 14.6852344,19.6523438 C13.1545313,22.2946875 12.5690625,25.3260938 12.9896094,28.3158594 Z M29.3414844,38.4615625 C28.3615625,38.7003125 27.3809375,38.8144532 26.414375,38.8144532 C21.4928125,38.8140625 16.9602344,35.8497656 15.0229688,31.2642187 C15.0017969,31.2139844 14.980625,31.1638281 14.9600781,31.1133594 C14.9517969,31.0929687 14.9438281,31.0724219 14.935625,31.0520312 C14.9103906,30.9890625 14.8853906,30.9259375 14.86125,30.8625 C14.8576563,30.8530469 14.8542188,30.8435156 14.850625,30.8339844 C14.8229688,30.7609375 14.7957813,30.6876563 14.7695313,30.6140625 C14.7686719,30.6117188 14.7678906,30.6092969 14.7670313,30.6069531 C14.7386719,30.5275 14.7110938,30.4477344 14.684375,30.3676562 C14.6842188,30.3671875 14.6840625,30.3667969 14.6839063,30.3663281 C14.6567969,30.2851562 14.6305469,30.20375 14.6051563,30.1221094 C14.6033594,30.1163281 14.6017188,30.1104688 14.5999219,30.1046875 C14.5764063,30.0285937 14.5534375,29.9524219 14.5314063,29.8760156 C14.5242188,29.8510156 14.5175,29.8257812 14.5103906,29.800625 C14.4940625,29.7428125 14.4777344,29.685 14.4622656,29.6269531 C14.4397656,29.5424219 14.4180469,29.4575 14.3972656,29.3721094 C14.3761719,29.285625 14.3564063,29.1989844 14.3372656,29.1122656 C14.3298438,29.0785156 14.3225781,29.0439844 14.3153125,29.0095312 C14.3069531,28.9700781 14.2989062,28.930625 14.2909375,28.8911719 C14.2857031,28.8652344 14.2804688,28.8396875 14.2752344,28.8132031 C14.2745313,28.8096094 14.2734375,28.80625 14.2727344,28.8027344 C13.7000781,25.8664063 14.203125,22.8495313 15.7110156,20.2464844 C17.2266406,17.6300781 19.6075,15.6860938 22.451875,14.7282031 C22.6514844,15.1821875 22.8167187,15.6532031 22.945625,16.1352344 C20.4589844,16.9682813 18.3746094,18.6561719 17.0353125,20.9360938 C15.6567187,23.2827344 15.211875,26.0146875 15.7675,28.6675 C15.7675,28.6676563 15.7675781,28.6678906 15.7675781,28.6680469 C15.7678125,28.669375 15.768125,28.6704687 15.7683594,28.6717969 C15.7782031,28.71875 15.7882031,28.765625 15.7986719,28.8125 C15.8147656,28.8855469 15.8304687,28.9536719 15.8464062,29.0191406 C15.8698437,29.1153125 15.8947656,29.2108594 15.920625,29.3060156 C15.9269531,29.3292969 15.9338281,29.3525 15.9403125,29.3757812 C15.9609375,29.4496875 15.9821094,29.5233594 16.0041406,29.5965625 C16.0107812,29.6186719 16.0177344,29.640625 16.0246094,29.6626562 C16.0484375,29.7399219 16.0730469,29.816875 16.0984375,29.8934375 C16.1035937,29.9088281 16.10875,29.9241406 16.1139062,29.9394531 C16.1436719,30.0278125 16.1746094,30.115625 16.2065625,30.2028906 C16.2077344,30.2060156 16.2088281,30.2091406 16.21,30.2122656 C17.0540625,32.5119531 18.638125,34.4457813 20.7621094,35.7376562 C22.4875781,36.7871094 24.4250781,37.3258594 26.394375,37.3257812 C27.2580469,37.3257812 28.128125,37.2221094 28.98875,37.0124219 C34.8158594,35.5928906 38.4016406,29.6971875 36.9821094,23.8700781 C36.3932031,21.4528125 35.0445313,19.37125 33.081875,17.8504687 C31.2761719,16.4513281 29.0535938,15.6497656 26.7857813,15.5720312 C26.775,15.5253906 26.7640625,15.4791406 26.7528125,15.4332031 C26.64125,14.9750781 26.5049219,14.5203906 26.3455469,14.074001 C28.9621875,14.0585937 31.5407031,14.8841406 33.6794531,16.4348437 C36.0495313,18.1532031 37.736875,20.6684375 38.4309375,23.5171094 C40.045,30.1433594 35.9675781,36.8473438 29.3414844,38.4615625 Z" id="Shape"></path>
            </g>
        </g>
    </g>
</svg>