<?xml version="1.0" encoding="UTF-8"?>
<svg width="40px" height="40px" viewBox="0 0 40 40" version="1.1" xmlns="http://www.w3.org/2000/svg" xmlns:xlink="http://www.w3.org/1999/xlink">
    <!-- Generator: Sketch 58 (84663) - https://sketch.com -->
    <title>Group 129</title>
    <desc>Created with Sketch.</desc>
    <g id="Page-1" stroke="none" stroke-width="1" fill="none" fill-rule="evenodd">
        <g id="Create-personal-gift-page/-first-step" transform="translate(-757.000000, -704.000000)">
            <g id="Group-129" transform="translate(757.000000, 704.000000)">
                <path d="M22.91,11.5458333 C23.0941667,10.2583333 23.7333333,8.77916667 27.0783333,8.77916667 C29.9241667,8.77916667 36.6666667,11.7591667 36.6666667,16.4583333 C36.6666667,24.2616667 32.7533333,33.3333333 27.7083333,33.3333333 C25.5466667,33.3333333 24.5833333,32.2408333 24.5833333,29.7916667 C24.5833333,28.9508333 24.8733333,28.3158333 25.24,27.5125 C25.8416667,26.195 26.5891667,24.555 26.2466667,21.3908333 C25.9908333,19.0341667 25.0308333,17.1758333 24.1841667,15.5375 C23.4091667,14.0375 22.7391667,12.7425 22.91,11.5458333 Z M23.3333333,29.7916667 C23.3333333,33.7516667 25.7116667,34.5833333 27.7083333,34.5833333 C33.5508333,34.5833333 37.9166667,25.0141667 37.9166667,16.4583333 C37.9166667,10.9033333 30.3891667,7.52916667 27.0783333,7.52916667 C23.855,7.52916667 22.0358333,8.82166667 21.6733333,11.37 C21.445,12.9608333 22.2,14.4208333 23.0725,16.1116667 C23.87,17.6533333 24.7725,19.4008333 25.0033333,21.5266667 C25.31,24.3483333 24.6683333,25.7533333 24.1033333,26.9933333 C23.7066667,27.86 23.3333333,28.68 23.3333333,29.7916667 L23.3333333,29.7916667 Z" id="Fill-70" fill="#2E3537"></path>
                <path d="M24.375,5 C23.5708333,5 22.9166667,4.15833333 22.9166667,3.125 C22.9166667,2.09166667 23.5708333,1.25 24.375,1.25 C25.1791667,1.25 25.8333333,2.09166667 25.8333333,3.125 C25.8333333,4.15833333 25.1791667,5 24.375,5 Z M28.125,1.25 C28.69,1.25 29.1666667,1.91833333 29.1666667,2.70833333 C29.1666667,3.49833333 28.69,4.16666667 28.125,4.16666667 C27.56,4.16666667 27.0833333,3.49833333 27.0833333,2.70833333 C27.0833333,1.91833333 27.56,1.25 28.125,1.25 Z M30.4166667,3.54166667 C30.4166667,2.75166667 30.8933333,2.08333333 31.4583333,2.08333333 C32.0233333,2.08333333 32.5,2.75166667 32.5,3.54166667 C32.5,4.33166667 32.0233333,5 31.4583333,5 C30.8933333,5 30.4166667,4.33166667 30.4166667,3.54166667 Z M33.75,5.625 C33.75,5.05083333 34.2175,4.58333333 34.7916667,4.58333333 C35.3658333,4.58333333 35.8333333,5.05083333 35.8333333,5.625 C35.8333333,6.19916667 35.3658333,6.66666667 34.7916667,6.66666667 C34.2175,6.66666667 33.75,6.19916667 33.75,5.625 Z M37.2916667,9.16666667 C36.7175,9.16666667 36.25,8.69916667 36.25,8.125 C36.25,7.55083333 36.7175,7.08333333 37.2916667,7.08333333 C37.8658333,7.08333333 38.3333333,7.55083333 38.3333333,8.125 C38.3333333,8.69916667 37.8658333,9.16666667 37.2916667,9.16666667 Z M37.2916667,5.83333333 C37.2116667,5.83333333 37.1366667,5.84916667 37.06,5.85666667 C37.0675,5.78 37.0833333,5.705 37.0833333,5.625 C37.0833333,4.36083333 36.0558333,3.33333333 34.7916667,3.33333333 C34.4125,3.33333333 34.06,3.43416667 33.745,3.5975 C33.745,3.57916667 33.75,3.56083333 33.75,3.54166667 C33.75,2.04916667 32.7225,0.833333333 31.4583333,0.833333333 C30.9508333,0.833333333 30.485,1.03666667 30.1041667,1.36916667 C29.7083333,0.555 28.9741667,0 28.125,0 C27.4091667,0 26.7758333,0.399166667 26.3558333,1.00916667 C25.86,0.3925 25.1583333,0 24.375,0 C22.8816667,0 21.6666667,1.4025 21.6666667,3.125 C21.6666667,4.8475 22.8816667,6.25 24.375,6.25 C25.3408333,6.25 26.185,5.65833333 26.6641667,4.7775 C27.0625,5.17083333 27.5666667,5.41666667 28.125,5.41666667 C28.6325,5.41666667 29.0983333,5.21416667 29.4791667,4.88166667 C29.875,5.695 30.6083333,6.25 31.4583333,6.25 C31.8475,6.25 32.2083333,6.125 32.53,5.92083333 C32.6775,7.04416667 33.6291667,7.91666667 34.7916667,7.91666667 C34.8716667,7.91666667 34.9466667,7.90083333 35.0233333,7.89333333 C35.0158333,7.97 35,8.045 35,8.125 C35,9.38916667 36.0275,10.4166667 37.2916667,10.4166667 C38.5558333,10.4166667 39.5833333,9.38916667 39.5833333,8.125 C39.5833333,6.86083333 38.5558333,5.83333333 37.2916667,5.83333333 L37.2916667,5.83333333 Z" id="Fill-71" fill="#88816C"></path>
                <path d="M11.875,38.3333333 C7.01916667,38.3333333 2.91666667,30.6058333 2.91666667,21.4583333 C2.91666667,16.7591667 9.65916667,13.7791667 12.505,13.7791667 C15.8491667,13.7791667 16.4891667,15.2583333 16.6733333,16.5458333 C16.8433333,17.7425 16.1741667,19.0366667 15.3991667,20.5366667 C14.5525,22.1758333 13.5925,24.0341667 13.3366667,26.3908333 C12.9941667,29.555 13.7416667,31.195 14.3433333,32.5125 C14.71,33.3158333 15,33.9508333 15,34.7916667 C15,37.2408333 14.0366667,38.3333333 11.875,38.3333333 Z M16.51,21.11 C17.3833333,19.42 18.1375,17.9608333 17.91,16.3708333 C17.5475,13.8216667 15.7283333,12.5291667 12.505,12.5291667 C9.19416667,12.5291667 1.66666667,15.9033333 1.66666667,21.4583333 C1.66666667,31.4525 6.24583333,39.5833333 11.875,39.5833333 C13.8708333,39.5833333 16.25,38.7516667 16.25,34.7916667 C16.25,33.68 15.8766667,32.86 15.48,31.9933333 C14.9141667,30.7533333 14.2733333,29.3483333 14.58,26.5266667 C14.81,24.4008333 15.7133333,22.6525 16.51,21.11 L16.51,21.11 Z" id="Fill-72" fill="#2E3537"></path>
                <path d="M15.2083333,6.25 C16.0125,6.25 16.6666667,7.09166667 16.6666667,8.125 C16.6666667,9.15833333 16.0125,10 15.2083333,10 C14.4041667,10 13.75,9.15833333 13.75,8.125 C13.75,7.09166667 14.4041667,6.25 15.2083333,6.25 Z M12.5,7.70833333 C12.5,8.49833333 12.0233333,9.16666667 11.4583333,9.16666667 C10.8933333,9.16666667 10.4166667,8.49833333 10.4166667,7.70833333 C10.4166667,6.91833333 10.8933333,6.25 11.4583333,6.25 C12.0233333,6.25 12.5,6.91833333 12.5,7.70833333 Z M8.125,7.08333333 C8.69,7.08333333 9.16666667,7.75166667 9.16666667,8.54166667 C9.16666667,9.33166667 8.69,10 8.125,10 C7.56,10 7.08333333,9.33166667 7.08333333,8.54166667 C7.08333333,7.75166667 7.56,7.08333333 8.125,7.08333333 Z M4.79166667,9.58333333 C5.36583333,9.58333333 5.83333333,10.0508333 5.83333333,10.625 C5.83333333,11.1991667 5.36583333,11.6666667 4.79166667,11.6666667 C4.2175,11.6666667 3.75,11.1991667 3.75,10.625 C3.75,10.0508333 4.2175,9.58333333 4.79166667,9.58333333 Z M2.29166667,12.0833333 C2.86583333,12.0833333 3.33333333,12.5508333 3.33333333,13.125 C3.33333333,13.6991667 2.86583333,14.1666667 2.29166667,14.1666667 C1.7175,14.1666667 1.25,13.6991667 1.25,13.125 C1.25,12.5508333 1.7175,12.0833333 2.29166667,12.0833333 Z M2.29166667,15.4166667 C3.55583333,15.4166667 4.58333333,14.3891667 4.58333333,13.125 C4.58333333,13.045 4.5675,12.97 4.56,12.8933333 C4.63666667,12.9008333 4.71166667,12.9166667 4.79166667,12.9166667 C5.95416667,12.9166667 6.90583333,12.0441667 7.05333333,10.9208333 C7.375,11.125 7.73583333,11.25 8.125,11.25 C8.97416667,11.25 9.70833333,10.695 10.1041667,9.88166667 C10.485,10.2141667 10.9508333,10.4166667 11.4583333,10.4166667 C12.0166667,10.4166667 12.5208333,10.1708333 12.9191667,9.7775 C13.3983333,10.6583333 14.2425,11.25 15.2083333,11.25 C16.7016667,11.25 17.9166667,9.8475 17.9166667,8.125 C17.9166667,6.4025 16.7016667,5 15.2083333,5 C14.425,5 13.7233333,5.3925 13.2275,6.00916667 C12.8075,5.39916667 12.1741667,5 11.4583333,5 C10.6083333,5 9.875,5.555 9.47916667,6.36916667 C9.09833333,6.03666667 8.6325,5.83333333 8.125,5.83333333 C6.86083333,5.83333333 5.83333333,7.04916667 5.83333333,8.54166667 C5.83333333,8.56083333 5.83833333,8.57916667 5.83833333,8.5975 C5.52333333,8.43416667 5.17083333,8.33333333 4.79166667,8.33333333 C3.5275,8.33333333 2.5,9.36083333 2.5,10.625 C2.5,10.705 2.51583333,10.78 2.52333333,10.8566667 C2.44666667,10.8491667 2.37166667,10.8333333 2.29166667,10.8333333 C1.0275,10.8333333 0,11.8608333 0,13.125 C0,14.3891667 1.0275,15.4166667 2.29166667,15.4166667 L2.29166667,15.4166667 Z" id="Fill-73" fill="#88816C"></path>
            </g>
        </g>
    </g>
</svg>