<svg xmlns="http://www.w3.org/2000/svg" width="40" height="48" viewBox="0 0 40 48">
    <g fill="#A3B3B8" fill-rule="evenodd">
        <path d="M37.232 0H4.856C3.518 0 2.428 1.077 2.428 2.4 1.09 2.4 0 3.477 0 4.8s1.09 2.4 2.428 2.4v1.6C1.09 8.8 0 9.877 0 11.2s1.09 2.4 2.428 2.4v1.6C1.09 15.2 0 16.277 0 17.6S1.09 20 2.428 20v1.6C1.09 21.6 0 22.677 0 24s1.09 2.4 2.428 2.4V28C1.09 28 0 29.077 0 30.4s1.09 2.4 2.428 2.4v1.6C1.09 34.4 0 35.477 0 36.8s1.09 2.4 2.428 2.4v1.6C1.09 40.8 0 41.877 0 43.2s1.09 2.4 2.428 2.4c0 1.323 1.09 2.4 2.428 2.4h32.376c1.339 0 2.428-1.077 2.428-2.4V2.4c0-1.323-1.09-2.4-2.428-2.4zM1.62 4.8c0-.44.362-.8.81-.8h1.618v1.6H2.428c-.447 0-.81-.36-.81-.8zm0 6.4c0-.44.362-.8.81-.8h1.618V12H2.428c-.447 0-.81-.36-.81-.8zm0 6.4c0-.44.362-.8.81-.8h1.618v1.6H2.428c-.447 0-.81-.36-.81-.8zm0 6.4c0-.44.362-.8.81-.8h1.618v1.6H2.428c-.447 0-.81-.36-.81-.8zm0 6.4c0-.44.362-.8.81-.8h1.618v1.6H2.428c-.447 0-.81-.36-.81-.8zm0 6.4c0-.44.362-.8.81-.8h1.618v1.6H2.428c-.447 0-.81-.36-.81-.8zm.81 7.2c-.448 0-.81-.36-.81-.8 0-.44.362-.8.81-.8h1.618V44H2.428zm35.613 1.6c0 .44-.363.8-.81.8H4.856c-.446 0-.809-.36-.809-.8h.81c.447 0 .809-.358.809-.8v-3.2c0-.442-.362-.8-.81-.8h-.809v-1.6h.81c.447 0 .809-.358.809-.8v-3.2c0-.442-.362-.8-.81-.8h-.809v-1.6h.81c.447 0 .809-.358.809-.8v-3.2c0-.442-.362-.8-.81-.8h-.809v-1.6h.81c.447 0 .809-.358.809-.8v-3.2c0-.442-.362-.8-.81-.8h-.809V20h.81c.447 0 .809-.358.809-.8V16c0-.442-.362-.8-.81-.8h-.809v-1.6h.81c.447 0 .809-.358.809-.8V9.6c0-.442-.362-.8-.81-.8h-.809V7.2h.81c.447 0 .809-.358.809-.8V3.2c0-.442-.362-.8-.81-.8h-.809c0-.44.363-.8.81-.8h32.375c.447 0 .81.36.81.8v43.2z"/>
        <path d="M33.185 4.8H26.71c-.448 0-.81.358-.81.8 0 .442.362.8.81.8h6.475c.448 0 .81-.358.81-.8 0-.442-.362-.8-.81-.8zM33.185 40.8H26.71c-.448 0-.81.358-.81.8 0 .442.362.8.81.8h6.475c.448 0 .81-.358.81-.8 0-.442-.362-.8-.81-.8zM11.332 40.8h-.81c-.447 0-.81.358-.81.8 0 .442.363.8.81.8h.81c.447 0 .809-.358.809-.8 0-.442-.362-.8-.81-.8zM15.379 40.8h-.81c-.447 0-.81.358-.81.8 0 .442.363.8.81.8h.81c.447 0 .809-.358.809-.8 0-.442-.362-.8-.81-.8zM19.425 40.8h-.809c-.448 0-.81.358-.81.8 0 .442.362.8.81.8h.81c.447 0 .809-.358.809-.8 0-.442-.362-.8-.81-.8zM23.472 40.8h-.809c-.448 0-.81.358-.81.8 0 .442.362.8.81.8h.81c.447 0 .809-.358.809-.8 0-.442-.362-.8-.81-.8zM33.185 9.6H10.522c-.447 0-.81.358-.81.8 0 .442.363.8.81.8h22.663c.448 0 .81-.358.81-.8 0-.442-.362-.8-.81-.8zM33.185 16H10.522c-.447 0-.81.358-.81.8 0 .442.363.8.81.8h22.663c.448 0 .81-.358.81-.8 0-.442-.362-.8-.81-.8zM33.185 22.4H10.522c-.447 0-.81.358-.81.8 0 .442.363.8.81.8h22.663c.448 0 .81-.358.81-.8 0-.442-.362-.8-.81-.8zM33.185 28.8H10.522c-.447 0-.81.358-.81.8 0 .442.363.8.81.8h22.663c.448 0 .81-.358.81-.8 0-.442-.362-.8-.81-.8zM33.185 35.2H10.522c-.447 0-.81.358-.81.8 0 .442.363.8.81.8h22.663c.448 0 .81-.358.81-.8 0-.442-.362-.8-.81-.8z"/>
    </g>
</svg>
