<svg xmlns="http://www.w3.org/2000/svg" width="28" height="32" viewBox="0 0 28 32">
    <g fill="none" fill-rule="evenodd">
        <g fill-rule="nonzero">
            <path fill="#678189" d="M25.442 0H3.319c-.915 0-1.66.718-1.66 1.6C.744 1.6 0 2.318 0 3.2c0 .882.744 1.6 1.66 1.6v1.067c-.916 0-1.66.718-1.66 1.6 0 .882.744 1.6 1.66 1.6v1.066c-.916 0-1.66.718-1.66 1.6 0 .882.744 1.6 1.66 1.6V14.4C.743 14.4 0 15.118 0 16c0 .882.744 1.6 1.66 1.6v1.067c-.916 0-1.66.718-1.66 1.6 0 .882.744 1.6 1.66 1.6v1.066c-.916 0-1.66.718-1.66 1.6 0 .882.744 1.6 1.66 1.6V27.2c-.916 0-1.66.718-1.66 1.6 0 .882.744 1.6 1.66 1.6 0 .882.744 1.6 1.659 1.6h22.123c.915 0 1.66-.718 1.66-1.6V1.6c0-.882-.745-1.6-1.66-1.6zM1.106 3.2c0-.294.248-.533.553-.533h1.106v1.066H1.66c-.305 0-.553-.24-.553-.533zm0 4.267c0-.294.248-.534.553-.534h1.106V8H1.66c-.305 0-.553-.24-.553-.533zm0 4.266c0-.294.248-.533.553-.533h1.106v1.067H1.66c-.305 0-.553-.24-.553-.534zm0 4.267c0-.294.248-.533.553-.533h1.106v1.066H1.66c-.305 0-.553-.24-.553-.533zm0 4.267c0-.294.248-.534.553-.534h1.106V20.8H1.66c-.305 0-.553-.24-.553-.533zm0 4.266c0-.294.248-.533.553-.533h1.106v1.067H1.66c-.305 0-.553-.24-.553-.534zm.553 4.8c-.305 0-.553-.24-.553-.533 0-.294.248-.533.553-.533h1.106v1.066H1.66zM25.995 30.4c0 .294-.248.533-.553.533H3.319c-.306 0-.554-.24-.554-.533h.554c.305 0 .553-.239.553-.533v-2.134c0-.294-.248-.533-.553-.533h-.554v-1.067h.554c.305 0 .553-.239.553-.533v-2.133c0-.295-.248-.534-.553-.534h-.554v-1.066h.554c.305 0 .553-.24.553-.534V19.2c0-.294-.248-.533-.553-.533h-.554V17.6h.554c.305 0 .553-.239.553-.533v-2.134c0-.294-.248-.533-.553-.533h-.554v-1.067h.554c.305 0 .553-.239.553-.533v-2.133c0-.295-.248-.534-.553-.534h-.554V9.067h.554c.305 0 .553-.24.553-.534V6.4c0-.294-.248-.533-.553-.533h-.554V4.8h.554c.305 0 .553-.239.553-.533V2.133c0-.294-.248-.533-.553-.533h-.554c0-.294.248-.533.554-.533h22.123c.305 0 .553.24.553.533v28.8z" transform="translate(-2) translate(2)"/>
            <path fill="#F8D0B6" d="M22.677 3.2h-4.425c-.306 0-.553.239-.553.533 0 .295.247.534.553.534h4.425c.305 0 .553-.24.553-.534 0-.294-.248-.533-.553-.533z" transform="translate(-2) translate(2)"/>
            <path fill="#5EBE84" d="M22.677 27.2h-4.425c-.306 0-.553.239-.553.533 0 .295.247.534.553.534h4.425c.305 0 .553-.24.553-.534 0-.294-.248-.533-.553-.533z" transform="translate(-2) translate(2)"/>
            <path fill="#F8D0B6" d="M7.743 27.2H7.19c-.306 0-.553.239-.553.533 0 .295.247.534.553.534h.553c.306 0 .553-.24.553-.534 0-.294-.247-.533-.553-.533zM10.509 27.2h-.553c-.306 0-.554.239-.554.533 0 .295.248.534.554.534h.553c.305 0 .553-.24.553-.534 0-.294-.248-.533-.553-.533zM13.274 27.2h-.553c-.306 0-.553.239-.553.533 0 .295.247.534.553.534h.553c.306 0 .553-.24.553-.534 0-.294-.247-.533-.553-.533zM16.04 27.2h-.554c-.305 0-.553.239-.553.533 0 .295.248.534.553.534h.554c.305 0 .553-.24.553-.534 0-.294-.248-.533-.553-.533z" transform="translate(-2) translate(2)"/>
            <path fill="#5EBE84" d="M22.677 6.4H7.19c-.306 0-.553.239-.553.533 0 .295.247.534.553.534h15.487c.305 0 .553-.24.553-.534 0-.294-.248-.533-.553-.533zM22.677 10.667H7.19c-.306 0-.553.239-.553.533 0 .294.247.533.553.533h15.487c.305 0 .553-.239.553-.533 0-.294-.248-.533-.553-.533zM22.677 14.933H7.19c-.306 0-.553.24-.553.534 0 .294.247.533.553.533h15.487c.305 0 .553-.239.553-.533 0-.295-.248-.534-.553-.534zM22.677 19.2H7.19c-.306 0-.553.239-.553.533 0 .295.247.534.553.534h15.487c.305 0 .553-.24.553-.534 0-.294-.248-.533-.553-.533zM22.677 23.467H7.19c-.306 0-.553.239-.553.533 0 .294.247.533.553.533h15.487c.305 0 .553-.239.553-.533 0-.294-.248-.533-.553-.533z" transform="translate(-2) translate(2)"/>
        </g>
    </g>
</svg>
