<?xml version="1.0" encoding="UTF-8"?>
<svg width="40px" height="40px" viewBox="0 0 40 40" version="1.1" xmlns="http://www.w3.org/2000/svg" xmlns:xlink="http://www.w3.org/1999/xlink">
    <!-- Generator: Sketch 58 (84663) - https://sketch.com -->
    <title>Group 6 Copy</title>
    <desc>Created with Sketch.</desc>
    <g id="Page-1" stroke="none" stroke-width="1" fill="none" fill-rule="evenodd">
        <g id="Group-6-Copy" transform="translate(-1.000000, 0.000000)">
            <rect id="Rectangle" stroke="#979797" fill="#D8D8D8" opacity="0" x="0.5" y="0.5" width="39.003684" height="39"></rect>
            <g id="brainstorm" transform="translate(1.000000, 0.000000)" fill="#88816C" fill-rule="nonzero">
                <path d="M37.3577104,6.57373737 L37.3577104,2.08430976 L38.8969697,3.2386532 L39.666532,2.21252525 L36.7163636,0 L33.7661953,2.21265993 L34.5357576,3.23878788 L36.0750168,2.08444444 L36.0750168,6.57373737 C36.0750168,8.34195286 34.6364983,9.78047138 32.8682828,9.78047138 L30.3030303,9.78047138 C28.2738047,9.78047138 26.557037,11.063165 26.0028283,12.9872054 L25.0844444,12.9872054 L25.0607407,14.269899 L25.8136027,14.269899 L25.8136027,16.2689562 C25.4987205,16.2241077 25.1792593,16.1939394 24.8515825,16.1939394 C23.3598653,16.1939394 21.9257912,16.6922559 20.7482828,17.6094276 C19.9062626,16.7135354 18.726734,16.1939394 17.476229,16.1939394 C17.0369024,16.1939394 16.6059259,16.2638384 16.1935354,16.3876094 L16.1935354,12.3458586 C16.1935354,10.2237037 14.4677441,8.49791246 12.3455892,8.49791246 L11.7042424,8.49791246 L11.7042424,7.21521886 L10.4215488,7.21521886 L10.4215488,8.49791246 L8.4976431,8.49791246 C6.37548822,8.49791246 4.64969697,10.2237037 4.64969697,12.3458586 L4.64969697,13.6285522 C4.64969697,14.3358923 4.07447811,14.9112458 3.36700337,14.9112458 L2.08430976,14.9112458 L3.2386532,13.3719865 L2.21252525,12.6024242 L0,15.5523232 L2.21265993,18.5024916 L3.23878788,17.7329293 L2.08444444,16.19367 L3.36700337,16.19367 C4.78181818,16.19367 5.93239057,15.0430976 5.93239057,13.6282828 L5.93239057,12.3455892 C5.93239057,10.9307744 7.08296296,9.78020202 8.49777778,9.78020202 L12.3457239,9.78020202 C13.7605387,9.78020202 14.9111111,10.9307744 14.9111111,12.3455892 L14.9111111,17.0080808 C14.6321886,17.2030976 14.3723906,17.426936 14.1415488,17.683367 C13.6585859,17.5454545 13.1635017,17.476229 12.666532,17.476229 C9.91515152,17.476229 7.63138047,19.5105724 7.27097643,22.1893603 C4.98249158,22.8661279 3.36700337,24.9921886 3.36700337,27.4169697 C3.36700337,28.5521886 3.72417508,29.6610101 4.3796633,30.5806061 C4.13279461,31.2110438 4.00835017,31.8709764 4.00835017,32.5476094 C4.00835017,35.5535354 6.45373737,37.9989226 9.4596633,37.9989226 C9.70276094,37.9989226 9.94060606,37.9771044 10.1753535,37.9463973 C10.2196633,37.9406061 10.2638384,37.9329293 10.3081481,37.9259259 C10.5454545,37.8887542 10.7788552,37.8393266 11.0059259,37.7719865 C11.8878114,38.3415488 12.8979125,38.640404 13.9489562,38.640404 C15.1245791,38.640404 16.2443098,38.270303 17.1736027,37.5847811 C18.1843771,39.0444444 19.8344781,39.9230976 21.6449832,39.9230976 C23.3265993,39.9230976 24.8754209,39.1649832 25.9053199,37.8663973 C26.7486869,38.3749495 27.7023569,38.6405387 28.6996633,38.6405387 C31.7055892,38.6405387 34.1509764,36.1951515 34.1509764,33.1892256 C34.1509764,32.540202 34.036229,31.906532 33.8098316,31.299798 C34.8468687,30.2775758 35.43367,28.8876768 35.43367,27.4171044 C35.43367,27.0899663 35.4016162,26.7687542 35.3451852,26.4550842 L35.43367,26.4550842 L35.43367,25.1723906 L34.9437037,25.1723906 C34.3011448,23.7601347 33.0735354,22.6499663 31.5395286,22.1934007 C31.2573737,19.5645791 29.4879461,17.4206061 27.096431,16.5804714 L27.096431,14.2697643 C27.096431,12.5015488 28.5349495,11.0630303 30.303165,11.0630303 L32.8685522,11.0630303 C35.3432997,11.0630303 37.3577104,9.04861953 37.3577104,6.57373737 Z M30.2921212,22.7270034 L30.3100337,23.2329966 L30.8064646,23.3323906 C31.9602694,23.5639057 32.9164983,24.2725926 33.5090909,25.2211448 L33.5090909,26.4550842 L34.0227609,26.4550842 C34.0984512,26.766734 34.1509764,27.0861953 34.1509764,27.4171044 C34.1509764,28.4355556 33.7783165,29.3987879 33.1190572,30.1529966 C32.1967677,28.8830976 30.7365657,28.106532 29.0619529,27.9955556 L28.9779125,29.1955556 C31.1084175,29.3360269 32.783569,30.8725926 32.8606061,33.3341414 C32.7837037,35.5653872 30.9494949,37.3578451 28.6996633,37.3578451 C27.7659259,37.3578451 26.8801347,37.0519865 26.1388552,36.4734007 L25.882963,36.273266 C25.0927946,35.55367 24.6079461,34.5558249 24.5354882,33.4668013 L23.2553535,33.5520539 C23.3457239,34.9097643 23.9331987,36.1571717 24.8856566,37.0864646 C24.0980471,38.0682828 22.9212121,38.640404 21.6449832,38.640404 C20.0525253,38.640404 18.6216835,37.7501684 17.9124579,36.3169024 L17.5174411,35.5197306 L16.8857912,36.1476094 C16.0995286,36.9274074 15.0567003,37.3578451 13.9490909,37.3578451 C13.4417508,37.3578451 12.9505724,37.2565657 12.4843098,37.0794613 C13.946532,36.1007407 14.9111111,34.4352862 14.9111111,32.5477441 C14.9111111,32.4111785 14.8931987,32.2783838 14.8835017,32.1437037 C15.9038384,31.966734 16.8575084,31.5049158 17.6316498,30.7950168 L16.7645791,29.8490236 C16.1668687,30.3967677 15.4305724,30.7507071 14.6417508,30.8828283 C14.2126599,29.5437037 13.2840404,28.3989226 11.996229,27.720404 L11.3985185,28.8556229 C12.7741414,29.5810101 13.6284175,30.9951515 13.6284175,32.5477441 C13.6284175,34.3473401 12.4797306,35.8794613 10.8790572,36.4624916 C10.6533333,36.5439731 10.4243771,36.6055219 10.1940741,36.6478114 C10.1787205,36.6503704 10.1632323,36.6522559 10.1478788,36.6548148 C9.91892256,36.6938721 9.68929293,36.7163636 9.4596633,36.7163636 C7.16107744,36.7163636 5.29104377,34.8461953 5.29104377,32.5477441 C5.29104377,31.9307744 5.42760943,31.3311785 5.6969697,30.7635017 L5.87272727,30.3940741 L5.61104377,30.0785185 C4.99084175,29.3319865 4.64969697,28.3873401 4.64969697,27.4169697 C4.64969697,25.4378451 6.05616162,23.7190572 7.99367003,23.3303704 L8.48552189,23.2321886 L8.50855219,22.7319865 C8.57400673,21.3299663 9.32175084,20.1205387 10.4216835,19.4156229 L10.4216835,20.682963 L11.7043771,20.682963 L11.7043771,18.8750168 C12.013468,18.8018855 12.3348148,18.7589226 12.6663973,18.7589226 C13.1621549,18.7589226 13.6565657,18.8506397 14.1337374,19.0308418 L14.5923232,19.2040404 L14.879596,18.8076768 C14.8891582,18.7942088 14.9007407,18.7826263 14.9109764,18.7691582 L14.9109764,21.9655219 L16.19367,21.9655219 L16.19367,17.753266 C16.5944781,17.5762963 17.0293603,17.476229 17.4763636,17.476229 C18.3639057,17.476229 19.1983838,17.84633 19.7986532,18.4798653 C18.723771,19.7028956 17.9574411,21.28633 17.9574411,22.9275421 C17.9574411,26.6408081 21.3244444,29.6615488 24.5311785,29.6615488 L24.5311785,28.3788552 C21.9657912,28.3788552 19.2401347,25.933468 19.2401347,22.9275421 C19.2401347,21.5890909 19.8173737,20.2973737 20.699798,19.3039731 L21.0673401,18.9916498 C22.0909091,18.0142761 23.4409428,17.476229 24.8319192,17.476229 C25.1609428,17.476229 25.5014141,17.5089562 25.8137374,17.5647138 L25.8137374,20.0414815 C25.8137374,21.809697 24.3752189,23.2482155 22.6070034,23.2482155 L21.9656566,23.2482155 L21.9656566,24.5309091 L22.6070034,24.5309091 C25.0818855,24.5309091 27.0962963,22.5164983 27.0962963,20.0416162 L27.0962963,17.9610774 C28.9248485,18.7853199 30.2138721,20.5849158 30.2921212,22.7270034 Z" id="Shape"></path>
                <rect id="Rectangle" x="29.6616835" y="25.1723906" width="1.9240404" height="1.2826936"></rect>
                <rect id="Rectangle" x="32.8684175" y="12.9870707" width="1.9240404" height="1.2826936"></rect>
                <path d="M22.9193266,13.659798 L23.5657912,12.5521886 C23.1027609,12.2814815 22.710303,11.8967003 22.4305724,11.4382492 L21.3357576,12.1058586 C21.7257912,12.7451852 22.272862,13.2826936 22.9193266,13.659798 Z" id="Path"></path>
                <path d="M20.6828283,9.7803367 L20.6828283,9.7803367 C20.682963,9.84700337 20.6843098,9.91367003 20.6874074,9.98047138 L21.9687542,9.83811448 L21.9655219,7.85643098 L20.6828283,7.85643098 L20.6828283,9.7803367 Z" id="Path"></path>
                <rect id="Rectangle" x="20.682963" y="4.00835017" width="1.2826936" height="1.9240404"></rect>
                <path d="M36.9683502,24.7785859 L37.5859933,25.9022222 C38.2414815,25.5418182 38.8025589,25.0184512 39.2091582,24.3893603 L38.1303704,23.6941414 C37.84,24.1442424 37.4378451,24.5194613 36.9683502,24.7785859 Z" id="Path"></path>
                <path d="M38.640404,21.9656566 C38.640404,22.0413468 38.6378451,22.1163636 38.6320539,22.1920539 L39.9121886,22.2812121 C39.9191919,22.1767003 39.9230976,22.0715152 39.9230976,21.9656566 L39.9230976,20.0417508 L38.640404,20.0417508 L38.640404,21.9656566 Z" id="Path"></path>
                <rect id="Rectangle" x="29.0203367" y="12.9870707" width="1.9240404" height="1.2826936"></rect>
                <path d="M39.7678114,16.3090909 L38.530101,16.6432323 C38.6032323,16.9144781 38.640404,17.1947475 38.640404,17.4763636 L38.640404,18.1177104 L39.9230976,18.1177104 L39.9230976,17.4763636 C39.9230976,17.0818855 39.8711111,16.6887542 39.7678114,16.3090909 Z" id="Path"></path>
                <path d="M38.6750168,14.3761616 C38.1555556,13.8329966 37.5051852,13.4257239 36.7934007,13.1979798 L36.4028283,14.4191246 C36.9107071,14.5820875 37.376431,14.8738047 37.7482828,15.2624916 L38.6750168,14.3761616 Z" id="Path"></path>
                <polygon id="Path" points="20.682963 2.08430976 21.9656566 2.08430976 23.5049158 3.23878788 24.2744781 2.21265993 21.3243098 0 18.3742761 2.21265993 19.1438384 3.23878788"></polygon>
                <rect id="Rectangle" x="10.4216835" y="3.36700337" width="1.2826936" height="1.9240404"></rect>
                <rect id="Rectangle" x="10.4216835" y="14.9109764" width="1.2826936" height="1.9240404"></rect>
                <rect id="Rectangle" x="10.4216835" y="11.0630303" width="1.2826936" height="1.9240404"></rect>
                <rect id="Rectangle" x="10.4216835" y="22.6070034" width="1.2826936" height="1.9240404"></rect>
                <polygon id="Path" points="11.0630303 1.603367 13.2435017 3.23878788 14.0131987 2.21265993 11.0630303 0 8.11286195 2.21265993 8.88242424 3.23878788"></polygon>
            </g>
        </g>
    </g>
</svg>