<svg xmlns="http://www.w3.org/2000/svg" width="32" height="32" viewBox="0 0 32 32">
    <g fill="none" fill-rule="evenodd">
        <g fill-rule="nonzero">
            <path fill="#F8D0B6" d="M12.333 10.667h-10C1.047 10.667 0 9.62 0 8.333v-6C0 1.047 1.047 0 2.333 0h10c1.287 0 2.334 1.047 2.334 2.333v6c0 1.287-1.047 2.334-2.334 2.334zM2.333 2C2.15 2 2 2.15 2 2.333v6c0 .184.15.334.333.334h10c.184 0 .334-.15.334-.334v-6c0-.184-.15-.333-.334-.333h-10z"/>
            <path fill="#678189" d="M12.333 32h-10C1.047 32 0 30.953 0 29.667v-14c0-1.287 1.047-2.334 2.333-2.334h10c1.287 0 2.334 1.047 2.334 2.334v14c0 1.286-1.047 2.333-2.334 2.333zm-10-16.667c-.184 0-.333.15-.333.334v14c0 .184.15.333.333.333h10c.184 0 .334-.15.334-.333v-14c0-.184-.15-.334-.334-.334h-10z"/>
            <path fill="#5EBE84" d="M29.667 32h-10c-1.287 0-2.334-1.047-2.334-2.333v-6c0-1.287 1.047-2.334 2.334-2.334h10c1.286 0 2.333 1.047 2.333 2.334v6C32 30.953 30.953 32 29.667 32zm-10-8.667c-.184 0-.334.15-.334.334v6c0 .184.15.333.334.333h10c.184 0 .333-.15.333-.333v-6c0-.184-.15-.334-.333-.334h-10z"/>
            <path fill="#678189" d="M29.667 18.667h-10c-1.287 0-2.334-1.047-2.334-2.334v-14C17.333 1.047 18.38 0 19.667 0h10C30.953 0 32 1.047 32 2.333v14c0 1.287-1.047 2.334-2.333 2.334zM19.667 2c-.184 0-.334.15-.334.333v14c0 .184.15.334.334.334h10c.184 0 .333-.15.333-.334v-14C30 2.15 29.85 2 29.667 2h-10z"/>
        </g>
    </g>
</svg>
