<?xml version="1.0" encoding="UTF-8"?>
<svg width="111px" height="102px" viewBox="0 0 111 102" version="1.1" xmlns="http://www.w3.org/2000/svg" xmlns:xlink="http://www.w3.org/1999/xlink">
    <!-- Generator: Sketch 58 (84663) - https://sketch.com -->
    <title>personal</title>
    <desc>Created with Sketch.</desc>
    <g id="Page-1" stroke="none" stroke-width="1" fill="none" fill-rule="evenodd">
        <g id="personal">
            <g id="Group-299">
                <g id="Group-298" transform="translate(27.000000, 37.000000)" stroke-width="1.5">
                    <polyline id="Path" stroke="#BCE2C9" points="17.5 44 17.5 38.9048474 17.5 35.4524237 17.5 32"></polyline>
                    <polyline id="Path-Copy-27" stroke="#BCE2C9" points="39.5 47 39.5 40.6310592 39.5 36.3155296 39.5 32"></polyline>
                    <path d="M10.024,3.15689595 C13.1031683,0.075064163 17.736143,-0.847317522 21.7608615,0.820197228 C25.78558,2.48771198 28.4086627,6.41641143 28.406002,10.772896" id="Path" stroke="#88816C"></path>
                    <polyline id="Path" stroke="#88816C" points="49.644 17.618896 39.018 17.618896 28.406 17.618896 17.794 17.618896 7.182 17.618896"></polyline>
                    <polyline id="Path" stroke="#88816C" points="7.182 31.968896 17.794 31.968896 28.406 31.968896 39.018 31.968896 49.644 31.968896"></polyline>
                    <polyline id="Path" stroke="#88816C" points="7.182 31.968896 7.182 44.468896 7.182 56.968896"></polyline>
                    <polyline id="Path" stroke="#88816C" points="49.644 56.968896 49.644 44.468896 49.644 31.968896"></polyline>
                    <polyline id="Path" stroke="#88816C" points="18.27 63.514896 28.406 63.514896 38.248 63.514896"></polyline>
                    <polyline id="Path-Copy-26" stroke="#88816C" points="28.5 42 28.5 37.7540395 28.5 34.8770197 28.5 32"></polyline>
                    <polyline id="Path-Copy-28" stroke="#88816C" points="28.5 51 28.5 48.0278276 28.5 46.0139138 28.5 44"></polyline>
                    <path d="M7.182,31.982896 C3.21549093,31.982896 2.73114864e-13,28.767405 2.73114864e-13,24.800896 C2.73114864e-13,20.8343869 3.21549093,17.618896 7.182,17.618896" id="Path" stroke="#88816C"></path>
                    <path d="M49.644,17.618896 C53.6105091,17.618896 56.826,20.8343869 56.826,24.800896 C56.826,28.767405 53.6105091,31.982896 49.644,31.982896" id="Path" stroke="#88816C"></path>
                    <path d="M49.644,56.346896 C49.644,60.313405 46.4285091,63.528896 42.462,63.528896" id="Path" stroke="#88816C"></path>
                    <path d="M14.364,63.5149097 C12.4580753,63.5186221 10.6291397,62.7631459 9.28144489,61.4154511 C7.93375005,60.0677562 7.17827384,58.2388206 7.18198628,56.332896" id="Path" stroke="#88816C"></path>
                    <path d="M7.182,28.384896 C5.84554783,28.4683834 4.57329459,27.8027865 3.87979603,26.6573022 C3.18629748,25.5118179 3.18629748,24.075974 3.87979603,22.9304897 C4.57329459,21.7850054 5.84554783,21.1194085 7.182,21.202896" id="Path" stroke="#88816C"></path>
                    <path d="M49.644,21.146896 C51.5403174,21.2653579 53.0176721,22.8378821 53.0176721,24.737896 C53.0176721,26.6379098 51.5403174,28.210434 49.644,28.328896" id="Path" stroke="#88816C"></path>
                    <path d="M28.405998,10.772896 C28.4033373,6.41641143 31.02642,2.48771198 35.0511385,0.820197228 C39.075857,-0.847317522 43.7088317,0.075064163 46.788,3.15689595" id="Path" stroke="#88816C"></path>
                    <path d="M39.172,0.00689595493 C39.172,5.95279357 34.3518976,10.772896 28.406,10.772896 C22.4601024,10.772896 17.64,5.95279357 17.64,0.00689595493" id="Path" stroke="#88816C"></path>
                </g>
                <path d="M98.6342658,93.2464684 C101.71862,93.2464684 104.227114,90.7367468 104.227114,87.6523924 C104.227114,84.568038 101.717392,82.0595443 98.6342658,82.0595443 C95.5486835,82.0595443 93.0401899,84.5692658 93.0401899,87.6523924 C93.0401899,90.7367468 95.5486835,93.2464684 98.6342658,93.2464684 Z M98.6342658,84.3703544 C100.444114,84.3703544 101.915076,85.8425443 101.915076,87.6511646 C101.915076,89.4610127 100.442886,90.9332025 98.6342658,90.9332025 C96.8244177,90.9332025 95.3522278,89.4597848 95.3522278,87.6511646 C95.3522278,85.8413165 96.8244177,84.3703544 98.6342658,84.3703544 Z" id="Shape-Copy-5" fill="#354739" fill-rule="nonzero"></path>
                <path d="M36.0790886,8.03749367 C36.0790886,4.95313924 33.5693671,2.44464557 30.4850127,2.44464557 C27.4006582,2.44464557 24.8921646,4.95436709 24.8921646,8.03749367 C24.8921646,11.1230759 27.4018861,13.6315696 30.4850127,13.6315696 C33.5693671,13.6315696 36.0790886,11.1218481 36.0790886,8.03749367 Z M27.2029747,8.03749367 C27.2029747,6.22764557 28.6751646,4.75668354 30.4837848,4.75668354 C32.2924051,4.75668354 33.7658228,6.22887342 33.7658228,8.03749367 C33.7658228,9.84611392 32.2924051,11.3195316 30.4837848,11.3195316 C28.6751646,11.3195316 27.2029747,9.84734177 27.2029747,8.03749367 Z" id="Shape-Copy-6" fill="#354739" fill-rule="nonzero"></path>
                <path d="M8.07432911,93.823557 C7.75386076,93.8370633 7.45549367,93.9733544 7.23816456,94.2103291 C7.02083544,94.4473038 6.90787342,94.753038 6.92137975,95.0747342 C6.94716456,95.7218101 7.47513924,96.2289114 8.12221519,96.2289114 C9.41882278,96.1761139 10.573,95.6432278 11.421443,94.7235696 C12.2711139,93.8039114 12.7106835,92.6116709 12.6603418,91.3654051 C12.61,90.1179114 12.0758861,88.9637342 11.1574557,88.1140633 C10.2365696,87.2643924 9.01731646,86.8285063 7.79437975,86.8763924 L7.7931519,86.8763924 C6.54443038,86.9267342 5.39148101,87.4596203 4.54426582,88.3780506 C3.69827848,89.2977089 3.25993671,90.4924051 3.31027848,91.7435823 C3.33851899,92.4103038 3.89964557,92.9407342 4.56268354,92.8953038 C4.8806962,92.8830253 5.17783544,92.7455063 5.39516456,92.5097595 C5.61372152,92.2727848 5.72668354,91.9658228 5.71317722,91.6453544 C5.68739241,91.0363418 5.90103797,90.4555696 6.31359494,90.0086329 C6.7236962,89.5629241 7.28359494,89.3038481 7.8901519,89.2792911 C7.91839241,89.2780633 7.94540506,89.2780633 7.97364557,89.2780633 C9.19289873,89.2780633 10.2071013,90.2419241 10.2562152,91.4624051 C10.282,92.0665063 10.0683544,92.6448228 9.65456962,93.0929873 C9.24446835,93.5411519 8.68211392,93.799 8.07432911,93.823557 Z" id="Path-Copy-29" fill="#354739" fill-rule="nonzero"></path>
                <path d="M103.584949,51.5291013 C102.921911,51.5291013 102.382886,52.0693544 102.382886,52.7323924 L102.382886,55.5011899 C102.382886,56.1642278 102.921911,56.704481 103.584949,56.704481 C104.247987,56.704481 104.788241,56.1642278 104.788241,55.5011899 L104.788241,52.7323924 C104.788241,52.0693544 104.247987,51.5291013 103.584949,51.5291013 Z" id="Path-Copy-30" fill="#BCE2C9" fill-rule="nonzero"></path>
                <path d="M103.584949,60.1952532 C102.921911,60.1952532 102.382886,60.7342785 102.382886,61.3973165 L102.382886,64.1673418 C102.382886,64.8303797 102.921911,65.3694051 103.584949,65.3694051 C104.247987,65.3694051 104.788241,64.8303797 104.788241,64.1673418 L104.788241,61.3973165 C104.788241,60.7342785 104.247987,60.1952532 103.584949,60.1952532 Z" id="Path-Copy-31" fill="#BCE2C9" fill-rule="nonzero"></path>
                <path d="M109.303038,57.2471899 L106.534241,57.2471899 C105.871203,57.2471899 105.330949,57.787443 105.330949,58.450481 C105.330949,59.113519 105.871203,59.6525443 106.534241,59.6525443 L109.303038,59.6525443 C109.966076,59.6525443 110.506329,59.113519 110.506329,58.450481 C110.506329,57.787443 109.966076,57.2471899 109.303038,57.2471899 Z" id="Path-Copy-32" fill="#BCE2C9" fill-rule="nonzero"></path>
                <path d="M97.8680886,57.2471899 C97.2050506,57.2471899 96.6647975,57.787443 96.6647975,58.450481 C96.6647975,59.113519 97.2050506,59.6525443 97.8680886,59.6525443 L100.636886,59.6525443 C101.299924,59.6525443 101.840177,59.113519 101.840177,58.450481 C101.840177,57.787443 101.299924,57.2471899 100.636886,57.2471899 L97.8680886,57.2471899 Z" id="Path-Copy-33" fill="#BCE2C9" fill-rule="nonzero"></path>
                <path d="M14.243038,12.7818987 L12.2846203,14.7403165 C11.8155823,15.2093544 11.8155823,15.9718481 12.2846203,16.4408861 C12.7364684,16.8951899 13.5308861,16.8976456 13.9851899,16.4408861 L15.9436076,14.4824684 C16.4126456,14.0134304 16.4126456,13.2509367 15.9436076,12.7818987 C15.7090886,12.5473797 15.4008987,12.4307342 15.0927089,12.4307342 C14.7857468,12.4307342 14.4763291,12.5473797 14.243038,12.7818987 Z" id="Path-Copy-34" fill="#BCE2C9" fill-rule="nonzero"></path>
                <path d="M7.85822785,22.5690759 L9.81664557,20.6106582 C10.0450253,20.3835063 10.1702658,20.0814557 10.1702658,19.7597595 C10.1702658,19.4392911 10.0450253,19.1372405 9.81664557,18.9100886 C9.58212658,18.6755696 9.27393671,18.5589241 8.96697468,18.5589241 C8.65878481,18.5589241 8.34936709,18.6755696 8.11607595,18.9100886 L6.15765823,20.8685063 C5.68862025,21.3375443 5.68862025,22.100038 6.15765823,22.5690759 C6.61196203,23.0246076 7.40392405,23.0233797 7.85822785,22.5690759 Z" id="Path-Copy-35" fill="#BCE2C9" fill-rule="nonzero"></path>
                <path d="M14.243038,22.5690759 C14.6948861,23.0246076 15.4893038,23.0246076 15.9436076,22.5690759 C16.4126456,22.100038 16.4126456,21.3375443 15.9436076,20.8685063 L13.9851899,18.9100886 C13.7506709,18.6755696 13.442481,18.5589241 13.1342911,18.5589241 C12.8273291,18.5589241 12.5179114,18.6755696 12.2846203,18.9100886 C11.8155823,19.3791266 11.8155823,20.1416203 12.2846203,20.6106582 L14.243038,22.5690759 Z" id="Path-Copy-36" fill="#BCE2C9" fill-rule="nonzero"></path>
                <path d="M8.1148481,16.4421139 C8.58388608,16.9111519 9.34883544,16.9086962 9.81541772,16.4421139 C10.2844557,15.9730759 10.2844557,15.2093544 9.81541772,14.7403165 L7.85822785,12.7818987 C7.62370886,12.5473797 7.31551899,12.4307342 7.00855696,12.4307342 C6.70036709,12.4307342 6.39094937,12.5473797 6.15765823,12.7818987 C5.68862025,13.2509367 5.68862025,14.0134304 6.15765823,14.4824684 L8.1148481,16.4421139 Z" id="Path-Copy-37" fill="#BCE2C9" fill-rule="nonzero"></path>
                <path d="M98.5053418,4.68055696 L100.463759,2.72213924 C100.692139,2.49498734 100.81738,2.19293671 100.81738,1.87124051 C100.81738,1.55077215 100.692139,1.24872152 100.463759,1.02156962 C100.229241,0.787050633 99.9210506,0.670405063 99.6128608,0.670405063 C99.3058987,0.670405063 98.996481,0.787050633 98.7631899,1.02156962 L96.8047722,2.97998734 C96.3357342,3.44902532 96.3357342,4.21151899 96.8047722,4.68055696 C97.2590759,5.13608861 98.0522658,5.13486076 98.5053418,4.68055696 Z" id="Path-Copy-38" fill="#BCE2C9" fill-rule="nonzero"></path>
                <path d="M92.3771519,10.807519 L94.3355696,8.84910127 C94.5639494,8.62194937 94.6891899,8.31989873 94.6891899,7.99820253 C94.6891899,7.67773418 94.5639494,7.37568354 94.3355696,7.14853165 C94.1084177,6.9201519 93.8063671,6.79491139 93.4846709,6.79491139 C93.1642025,6.79491139 92.8621519,6.9201519 92.635,7.14853165 L90.6765823,9.10694937 C90.2075443,9.57598734 90.2075443,10.338481 90.6765823,10.807519 C91.1296582,11.2642785 91.9240759,11.2630506 92.3771519,10.807519 Z" id="Path-Copy-39" fill="#BCE2C9" fill-rule="nonzero"></path>
                <path d="M98.761962,10.807519 C99.2162658,11.2630506 100.010684,11.2618228 100.462532,10.807519 C100.690911,10.5803671 100.816152,10.2783165 100.816152,9.95662025 C100.816152,9.6361519 100.690911,9.33410127 100.462532,9.10694937 L98.5041139,7.14853165 C98.2695949,6.91401266 97.9614051,6.79736709 97.654443,6.79736709 C97.3462532,6.79736709 97.0368354,6.91401266 96.8035443,7.14853165 C96.3345063,7.61756962 96.3345063,8.38006329 96.8035443,8.84910127 L98.761962,10.807519 Z" id="Path-Copy-40" fill="#BCE2C9" fill-rule="nonzero"></path>
                <path d="M92.635,4.68055696 C93.0880759,5.13608861 93.8824937,5.13486076 94.3355696,4.68055696 C94.5639494,4.45340506 94.6891899,4.15135443 94.6891899,3.82965823 C94.6891899,3.50918987 94.5639494,3.20713924 94.3355696,2.97998734 L92.3771519,1.02156962 C92.1426329,0.787050633 91.834443,0.670405063 91.527481,0.670405063 C91.2192911,0.670405063 90.9098734,0.787050633 90.6765823,1.02156962 C90.2075443,1.49060759 90.2075443,2.25310127 90.6765823,2.72213924 L92.635,4.68055696 Z" id="Path-Copy-41" fill="#BCE2C9" fill-rule="nonzero"></path>
                <path d="M99.1192658,37.6445949 L99.1192658,37.6445949" id="Path-Copy-42"></path>
                <path d="M90.6434304,29.1687595 C91.4231139,29.2252405 92.1819241,29.1454304 92.8670633,29.0643924 C94.4436203,28.8789873 95.3743291,28.8175949 96.2559241,29.6991899 C97.1362911,30.579557 97.0736709,31.5114937 96.8882658,33.0843671 C96.8072278,33.7707342 96.7274177,34.5295443 96.7838987,35.3092278 C96.8612532,36.3823671 97.2062785,37.4960253 98.236443,38.5261899 L99.1192658,37.6433671 L100.002089,36.7605443 C99.1217215,35.8801772 99.1843418,34.9482405 99.3697468,33.3753671 C99.562519,31.743557 99.8019494,29.7126962 98.0227975,27.9335443 C96.2411899,26.1519367 94.2091013,26.3913671 92.578519,26.5841392 C91.0031899,26.772 90.072481,26.8321646 89.1896582,25.9493418 C88.3068354,25.066519 88.3694557,24.1321266 88.5536329,22.5580253 C88.7439494,20.9249873 88.9821519,18.8941266 87.2017722,17.112519 C85.4213924,15.3309114 83.3905316,15.5691139 81.7562658,15.7618861 C80.1833924,15.9448354 79.2502278,16.0086835 78.3661772,15.1246329 L77.4833544,16.0074557 L76.6005316,16.8902785 C77.6306962,17.920443 78.7455823,18.2654684 79.8199494,18.3440506 C80.6008608,18.4005316 81.3596709,18.3219494 82.046038,18.2421392 C83.6189114,18.057962 84.5545316,17.9965696 85.4361266,18.8781646 C86.3189494,19.7609873 86.2563291,20.6953797 86.0721519,22.269481 C85.9923418,22.9558481 85.9125316,23.7146582 85.9702405,24.4943418 C86.0488228,25.5687089 86.3938481,26.6835949 87.4252405,27.7149873 C88.4541772,28.7463797 89.5702911,29.0914051 90.6434304,29.1687595 Z" id="Path-Copy-43" fill="#E6CFC0" fill-rule="nonzero"></path>
                <path d="M53.8644684,17.193557 C52.3726329,17.8860633 50.5173544,18.7480127 49.9316709,21.1963418 C49.3472152,23.6458987 50.6143544,25.2531519 51.6322405,26.5448481 C52.6132911,27.7898861 53.1535443,28.5536076 52.865,29.7667215 L55.2936835,30.3474937 C55.6325696,28.9281013 55.3415696,27.7972532 54.845519,26.8407595 C54.4857595,26.1470253 54.0204051,25.5416962 53.5918861,24.9989873 C52.6108354,23.7539494 52.0705823,22.9902278 52.3591266,21.7771139 C52.6488987,20.5627722 53.4764684,20.1256582 54.9142785,19.4589367 C55.5417089,19.1679367 56.2293038,18.8376456 56.8641013,18.3821139 C57.7383291,17.7534557 58.506962,16.8755443 58.8458481,15.4561519 C59.1847342,14.0379873 58.8937342,12.9071392 58.3976835,11.9518734 C58.0379241,11.2581392 57.5725696,10.6528101 57.1440506,10.1101013 C56.163,8.86629114 55.6227468,8.10256962 55.9112911,6.89068354 C56.1998354,5.68002532 57.0274051,5.24291139 58.4639873,4.57864557 C59.0914177,4.28764557 59.7790127,3.95858228 60.4138101,3.50305063 C61.288038,2.87439241 62.0566709,1.99770886 62.395557,0.580772152 L59.9668734,8.52651283e-14 C59.6783291,1.21065823 58.8507595,1.6465443 57.4141772,2.31203797 C55.9223418,3.00331646 54.0670633,3.86403797 53.4826076,6.30991139 C52.8981519,8.75824051 54.1652911,10.3654937 55.1831772,11.655962 C56.1642278,12.8997722 56.704481,13.6634937 56.4159367,14.8753797 C56.1286203,16.0897215 55.3010506,16.5268354 53.8644684,17.193557 Z" id="Path-Copy-44" fill="#E6CFC0" fill-rule="nonzero"></path>
                <path d="M1.16277215,62.8203924 L1.1615443,62.8216203" id="Path-Copy-45"></path>
                <path d="M2.32431646,63.2783797 C2.7798481,62.120519 3.65898734,61.8037342 5.1741519,61.3469747 C6.74825316,60.8717975 8.70544304,60.2787468 9.62632911,57.9372405 C10.548443,55.5932785 9.51827848,53.8264051 8.68948101,52.4057848 C7.89260759,51.0367342 7.46286076,50.205481 7.91839241,49.0463924 C8.3751519,47.8848481 9.25551899,47.5668354 10.7719114,47.1088481 C12.3460127,46.6312152 14.3044304,46.0381646 15.2253165,43.6942025 C16.1462025,41.3502405 15.1172658,39.5821392 14.2896962,38.161519 C13.4928228,36.7912405 13.0630759,35.9599873 13.5198354,34.798443 L12.3570633,34.3404557 L11.195519,33.8836962 C10.6614051,35.2416962 10.7903291,36.4020127 11.1476329,37.417443 C11.4067089,38.1553797 11.7824304,38.8196456 12.1311392,39.4163797 C12.9280127,40.7854304 13.3565316,41.6179114 12.901,42.7782278 C12.4454684,43.9397722 11.5651013,44.2577848 10.047481,44.717 C9.38567089,44.9171392 8.65878481,45.1479747 7.96627848,45.5114177 C7.01346835,46.0123797 6.12818987,46.7736456 5.59407595,48.1316456 C5.06118987,49.4884177 5.19011392,50.6475063 5.54741772,51.6629367 C5.80649367,52.3996456 6.18221519,53.0639114 6.53092405,53.6618734 C7.32779747,55.0296962 7.7575443,55.8621772 7.30201266,57.0224937 C6.84770886,58.1803544 5.96734177,58.4971392 4.45217722,58.9538987 C3.79036709,59.154038 3.06225316,59.3836456 2.37097468,59.7470886 C1.41693671,60.2480506 0.532886076,61.0080886 -2.13162821e-14,62.3636329 L1.16277215,62.8203924 L2.32431646,63.2783797 Z" id="Path-Copy-46" fill="#E6CFC0" fill-rule="nonzero"></path>
            </g>
        </g>
    </g>
</svg>