<?xml version="1.0" encoding="UTF-8"?>
<svg width="14px" height="22px" viewBox="0 0 14 22" version="1.1" xmlns="http://www.w3.org/2000/svg" xmlns:xlink="http://www.w3.org/1999/xlink">
    <!-- Generator: Sketch 63.1 (92452) - https://sketch.com -->
    <title>mobile_screen_share-24px</title>
    <desc>Created with Sketch.</desc>
    <g id="Page-1" stroke="none" stroke-width="1" fill="none" fill-rule="evenodd">
        <g id="Employees-app-download-indication" transform="translate(-336.000000, -285.000000)">
            <g id="mobile_screen_share-24px" transform="translate(331.000000, 284.000000)">
                <polygon id="Path" points="0 0 24 0 24 24 0 24"></polygon>
                <path d="M17,1.01 L7,1 C5.9,1 5.01,1.9 5.01,3 L5.01,21 C5.01,22.1 5.9,23 7,23 L17,23 C18.1,23 19,22.1 19,21 L19,3 C19,1.9 18.1,1.01 17,1.01 Z M17,19 L7,19 L7,5 L17,5 L17,19 Z M10.5423536,13.5227442 L8.64582149,11.3460104 L8,12.0820283 L10.5423536,15 L16,8.7360179 L15.3587265,8 L10.5423536,13.5227442 Z" id="Shape" fill="#88816C" fill-rule="nonzero"></path>
            </g>
        </g>
    </g>
</svg>