<svg xmlns="http://www.w3.org/2000/svg" width="20" height="18" viewBox="0 0 20 18">
    <g fill="#2E3537" fill-rule="nonzero" opacity=".5">
        <path d="M7.738 14.277h-4.57a.452.452 0 1 0 0 .905h4.57a.452.452 0 1 0 0-.905zM14.57 14.277H10a.452.452 0 1 0 0 .905h4.57a.453.453 0 0 0 0-.905zM14.57 2.965H3.167a.452.452 0 1 0 0 .905H14.57a.453.453 0 0 0 0-.905zM14.57 5.227H10a.452.452 0 1 0 0 .905h4.57a.453.453 0 0 0 0-.905zM14.57 7.49H10a.452.452 0 1 0 0 .905h4.57a.453.453 0 0 0 0-.905zM14.57 9.752H10a.452.452 0 1 0 0 .905h4.57a.453.453 0 0 0 0-.905zM14.57 12.015H10a.452.452 0 1 0 0 .905h4.57a.453.453 0 0 0 0-.905zM7.738 12.015h-4.57a.452.452 0 1 0 0 .905h4.57a.452.452 0 1 0 0-.905zM7.738 5.227h-4.57a.452.452 0 0 0-.453.453v4.57c0 .25.203.452.452.452h4.57c.25 0 .453-.202.453-.452V5.68a.452.452 0 0 0-.452-.453zm-.453 4.57H3.62V6.133h3.665v3.666z"/>
        <path d="M19.095 2.512h-1.357V1.155a.906.906 0 0 0-.905-.905H.905A.906.906 0 0 0 0 1.155v14.48a2.265 2.265 0 0 0 2.262 2.262h15.476A2.265 2.265 0 0 0 20 15.635V3.417a.906.906 0 0 0-.905-.905zm0 13.123c0 .748-.609 1.357-1.357 1.357H2.262a1.359 1.359 0 0 1-1.357-1.357V1.155h15.928v13.8c0 .625.507 1.132 1.13 1.132a.453.453 0 0 0 0-.905.227.227 0 0 1-.225-.226V3.417h1.357v12.218z"/>
    </g>
</svg>
