<svg xmlns="http://www.w3.org/2000/svg" width="24" height="24" viewBox="0 0 24 24">
    <g fill="#678189" fill-rule="evenodd">
        <path d="M18.957 5.75c.066.108.181.168.3.168.062 0 .126-.017.183-.052l1.906-1.173c.165-.101.217-.318.115-.483-.101-.166-.318-.217-.484-.115l-1.905 1.172c-.165.101-.217.318-.115.483zM23.682 8.086l-2.793-.271c-.194-.02-.365.123-.384.316-.019.193.122.365.316.384l2.793.271.035.002c.179 0 .332-.136.35-.318.018-.193-.123-.365-.317-.384zM17.53 3.295c.042.016.085.024.127.024.141 0 .274-.085.328-.224L19.003.479c.07-.18-.02-.385-.2-.455-.181-.07-.385.02-.455.2L17.33 2.84c-.07.181.02.385.2.455zM15.047 1.358c-.236-.383-.74-.502-1.122-.266l-.42.26c-.186.114-.316.293-.366.505-.05.212-.015.431.1.616l.241.392L7.952 9.71l-1.167.72c-.165.102-.217.319-.115.484.067.108.182.167.3.167.063 0 .127-.017.184-.052l.92-.568 1.791 2.904c-.259-.017-.517.037-.751.158l-.013.006c-.031.017-.063.034-.093.053l-1.052.652c-.115.071-.221.156-.318.25-.117.115-.22.244-.302.385l-.26.391-.19.287-.005-.001-.009-.004c-.015-.007-.03-.014-.043-.022l-.01-.005-.045-.03-.009-.007c-.013-.01-.026-.021-.038-.033l-.005-.004-.037-.041-.008-.01c-.011-.015-.023-.03-.033-.047L5.125 12.88c-.072-.116-.094-.253-.062-.386.031-.133.112-.246.229-.317l.454-.28c.166-.103.217-.32.115-.484-.102-.166-.319-.217-.484-.115l-.455.28c-.276.17-.469.438-.544.754-.048.204-.043.412.013.608l-.339.209c-.452.279-.593.874-.314 1.327l.858 1.39c.135.22.348.373.599.432.074.018.15.027.224.027.177 0 .35-.05.504-.144l.339-.21c.07.065.148.12.231.166l-.976 1.47-.23.158c-.048-.025-.1-.04-.156-.045-.113-.01-.223.025-.31.098l-.605.51c-.142-.09-.327-.091-.472.007l-.02.015-3.41 2.692c-.2.158-.314.394-.314.648v1.095c0 .456.37.826.826.826h5.578c.252 0 .487-.112.644-.308l.463-.576c.08-.092.115-.211.103-.326l.622-.524c.061-.051.105-.117.13-.19l1.434.294c.021.004.043.007.064.007l.126.001c.34 0 .678-.034 1.033-.249l1.445-.86.072.002c.209 0 .414-.057.597-.17l1.161-.709c.54-.33.711-1.038.381-1.578-.113-.184-.272-.329-.46-.424.182-.35.183-.783-.037-1.143-.16-.261-.411-.446-.708-.52.062-.281.02-.586-.142-.85-.153-.251-.39-.43-.67-.51.076-.294.039-.617-.132-.897-.044-.072-.096-.138-.153-.198l6.966-1.516.242.391c.154.25.421.388.695.388.146 0 .294-.04.427-.122l.42-.26c.186-.114.316-.293.366-.505.05-.212.015-.43-.1-.616L15.047 1.358zM5.554 15.582c-.06.037-.13.048-.197.032-.068-.016-.125-.058-.162-.117l-.858-1.39c-.076-.123-.038-.284.085-.36l.298-.184 1.133 1.835-.299.184zm.946 7.28c-.023.03-.058.046-.096.046H.826c-.068 0-.123-.055-.123-.123V21.69c0-.038.017-.073.047-.096l3.198-2.525 2.883 3.382-.33.411zm.715-1.045l-2.529-2.966.375-.315 2.51 2.982-.356.3zm3.446-.68c-.214.13-.416.153-.752.149l-1.8-.37c-.044-.008-.087-.01-.128-.002L5.77 18.286l.2-.136.01-.008.023-.018.01-.01.02-.02.008-.008.022-.03.002-.002.001-.003.002-.002 1.86-2.8.01-.019c.095-.162.229-.3.39-.4l1.05-.651.06-.033c.008-.005.018-.009.027-.013l.031-.014c.013-.005.025-.01.038-.013l.02-.007c.015-.005.03-.01.046-.013.056-.014.114-.02.171-.02H9.825l.016.002.044.005.026.005c.023.004.045.01.067.016l.025.007.033.013.026.01.032.015.024.012.031.018.021.014.031.022c.007.004.012.01.018.014.01.008.021.016.03.025.049.044.091.093.125.15l.026.042.375.611.47.768.12.195c.011.019.02.038.028.058.022.06.025.126.01.19-.023.094-.081.174-.166.225l-.211.13c-.015.008-.03.016-.045.022l-.01.005c-.015.006-.03.01-.046.015l-.006.001c-.015.004-.03.006-.044.008l-.008.001c-.016.001-.032.002-.047.001h-.01c-.015-.002-.03-.003-.047-.007-.017-.003-.033-.008-.049-.014l-.004-.001c-.033-.013-.063-.03-.091-.053-.014-.011-.027-.023-.038-.036l-.003-.004c-.011-.013-.021-.026-.03-.04l-.35-.573c-.13-.214-.338-.363-.583-.422-.252-.06-.513-.017-.734.12-.09.056-.15.148-.164.252l-.014.089-.013.063-.005.02-.02.079-.001.003c-.04.135-.095.26-.166.374-.131.21-.316.388-.558.535-.166.1-.219.317-.118.483.1.166.317.219.483.118.171-.104.323-.221.456-.35l1.468 2.315c.27.42.738.663 1.221.663.026 0 .052-.001.077-.003.01.019.02.037.032.055.04.068.089.13.141.186l-1.039.62zm.298-2.584l.02.05.002.005.02.043.004.01.02.04.007.013c.01.017.019.034.03.05.017.03.036.057.056.084l.022.028c.013.017.026.033.04.048l.029.033c.007.009.016.016.024.024.028.028.058.055.089.08l.01.008c.06.048.125.09.194.124-.064.12-.106.25-.124.383-.232-.014-.452-.137-.58-.337l-1.617-2.55c.075-.154.132-.32.172-.495.025-.002.05 0 .075.006.062.015.114.052.146.105l.35.573.002.002c.017.028.036.055.056.081.014.02.03.038.046.056l.016.019.002.01.019.072.006.02c.009.028.018.055.029.08 0 .004.002.006.003.009.01.024.02.048.032.071l.01.02c.013.026.027.051.042.076.16.261.41.445.706.52-.045.209-.033.43.042.639zm.225-4.185l.118-.072c.104-.063.227-.083.346-.054.118.029.219.102.282.206.131.215.063.497-.152.628l-.117.072-.347-.567-.13-.213zm2.62 4.223c.115.028.213.1.275.2.128.21.062.485-.148.613l-1.16.71c-.094.056-.202.076-.31.057l-.018-.003-.01-.002c-.115-.028-.213-.1-.275-.2-.027-.046-.045-.095-.055-.144l-.001-.004c-.028-.145.019-.292.118-.395l.008-.008.016-.014.016-.014.013-.01c.01-.008.02-.015.032-.022h.001l.23-.142c.041-.019.081-.04.12-.063l.888-.543c.083-.031.172-.037.26-.016zm-.809-1.54c.094-.046.2-.057.304-.032.119.028.219.102.283.206.131.215.063.496-.152.628l-.21.127c-.04.02-.08.04-.12.064l-.883.54c-.165.065-.35.027-.477-.09-.01-.009-.02-.018-.028-.028l-.007-.009-.02-.023-.024-.036-.021-.039-.006-.013-.011-.027-.005-.015-.008-.026-.004-.015-.005-.028-.003-.014-.002-.029-.001-.013v-.03-.013l.003-.03.001-.012.005-.027c.02-.094.07-.182.147-.25l.009-.008.013-.012.033-.018 1.14-.697c.017-.01.033-.02.049-.032zm-.546-1.403c.118.028.219.102.283.206.122.2.07.459-.11.6-.012.006-.024.012-.035.02l-.881.537.009-.007.049-.04.029-.028.042-.043.027-.03.037-.046.024-.033.032-.05.021-.034c.01-.017.02-.036.028-.054l.017-.034c.01-.02.017-.041.025-.062l.012-.03c.01-.032.02-.064.028-.097.008-.031.014-.063.018-.094l.004-.03.006-.065v-.035-.06l-.002-.036-.006-.06-.005-.034c-.004-.022-.008-.045-.014-.067l-.005-.024c-.008-.03-.017-.06-.028-.09l-.007-.017-.024-.06.08-.049c.104-.064.227-.083.346-.054zm8.36-3.551c-.005.017-.016.048-.05.07l-.421.26c-.053.031-.122.015-.155-.038l-4.428-7.176c-.102-.165-.318-.217-.484-.115-.165.102-.216.319-.114.484l3.795 6.15-8.17 1.779-2.164-3.507L13.872 3.5l.424.688c.102.165.319.216.484.114.165-.102.217-.318.115-.484l-1.058-1.714c-.021-.034-.018-.068-.014-.085.004-.017.016-.048.05-.07l.421-.259c.053-.032.122-.016.155.037l6.346 10.285c.021.035.017.068.013.085z"/>
    </g>
</svg>
