<?xml version="1.0" encoding="UTF-8"?>
<svg width="29px" height="40px" viewBox="0 0 29 40" version="1.1" xmlns="http://www.w3.org/2000/svg" xmlns:xlink="http://www.w3.org/1999/xlink">
    <!-- Generator: Sketch 58 (84663) - https://sketch.com -->
    <title>Group 127</title>
    <desc>Created with Sketch.</desc>
    <g id="Page-1" stroke="none" stroke-width="1" fill="none" fill-rule="evenodd">
        <g id="Create-personal-gift-page/-first-step" transform="translate(-914.000000, -512.000000)">
            <g id="Group-127" transform="translate(909.000000, 512.000000)">
                <g id="title" transform="translate(5.000000, 0.000000)" fill-rule="nonzero">
                    <path d="M22.7777344,10.729375 C22.625625,10.3996875 22.2349219,10.2557813 21.9053125,10.4078906 C21.575625,10.5600781 21.4317188,10.9507031 21.5838281,11.2803906 C22.0814063,12.3584375 22.33375,13.5122656 22.33375,14.7098437 C22.33375,19.2275781 18.6583594,22.9029688 14.1407031,22.9029688 C9.62296875,22.9029688 5.94757813,19.2275781 5.94757813,14.7098437 C5.94757813,10.1921875 9.62296875,6.51671875 14.1407031,6.51671875 C16.4510938,6.51671875 18.6660156,7.49992187 20.2173438,9.21421875 C20.4610938,9.4834375 20.8766406,9.50414062 21.1460938,9.260625 C21.4153125,9.016875 21.4360938,8.60117188 21.1923438,8.331875 C19.3921094,6.34265625 16.821875,5.20179687 14.1407031,5.20179687 C8.89789062,5.20179687 4.63257812,9.46710937 4.63257812,14.7099219 C4.63257812,19.9527344 8.89789062,24.2180469 14.1407031,24.2180469 C19.3834375,24.2180469 23.64875,19.9527344 23.64875,14.7099219 C23.64875,13.3207031 23.355625,11.9814062 22.7777344,10.729375 Z" id="Path" fill="#88816C"></path>
                    <path d="M27.2721094,14.7098437 C27.2721094,14.2065625 27.4924219,13.6236719 27.7257031,13.0065625 C28.0778906,12.0749219 28.4420312,11.1114844 28.1341406,10.1633594 C27.8133594,9.17554688 26.8917188,8.57515625 26.0785938,8.04523437 C25.5445312,7.69726563 25.04,7.36867188 24.7651563,6.9909375 C24.4844531,6.60523438 24.3248438,6.0178125 24.1557813,5.3959375 C23.9030469,4.46585938 23.6165625,3.41171875 22.7882031,2.80890625 C21.9682031,2.2121875 20.9292969,2.26117188 19.9247656,2.30851563 C19.2758594,2.33914063 18.6629688,2.36804688 18.1996875,2.21757813 C17.7685156,2.07757813 17.3075,1.70492188 16.8194531,1.31039063 C16.059375,0.696328125 15.1978906,0 14.1407031,0 C13.0834375,0 12.2219531,0.696328125 11.461875,1.31070312 C10.9738281,1.70515625 10.5128125,2.0778125 10.0817969,2.2178125 C9.61851563,2.36828125 9.00554688,2.33929688 8.35664063,2.30875 C7.35210938,2.26132812 6.313125,2.21234375 5.493125,2.80914062 C4.66476563,3.41195312 4.37835938,4.46609375 4.12554688,5.39617188 C3.9565625,6.01804687 3.796875,6.60546875 3.51617188,6.99117188 C3.24132813,7.36882812 2.73679688,7.6975 2.20273438,8.04546875 C1.38953125,8.57523438 0.467890625,9.17570312 0.147265625,10.1634375 C-0.160625,11.1115625 0.203515625,12.075 0.555703125,13.0067187 C0.78890625,13.6238281 1.00921875,14.2067188 1.00921875,14.71 C1.00921875,15.2132812 0.78890625,15.7961719 0.555625,16.4132812 C0.2034375,17.345 -0.160703125,18.3084375 0.1471875,19.2565625 C0.46796875,20.2442969 1.38960938,20.8447656 2.20273438,21.3745313 C2.73679688,21.7225 3.24132813,22.0511719 3.51617188,22.4288281 C3.796875,22.8145312 3.95648438,23.4020312 4.12554688,24.0238281 C4.37828125,24.9539062 4.66476563,26.0080469 5.493125,26.6108594 C6.31304688,27.2075781 7.35195313,27.1585937 8.3565625,27.11125 C9.00539063,27.0805469 9.61835938,27.0517187 10.0816406,27.2021875 C10.5128125,27.3421875 10.9738281,27.7148437 11.4619531,28.109375 C11.8292188,28.4061719 12.2205469,28.7215625 12.6457813,28.9689062 L10.125,38.0110156 L7.79859375,35.4185156 C7.6278125,35.2282031 7.36226563,35.1542187 7.11757813,35.2285938 L3.78671875,36.2435938 L5.87507813,28.7545312 C5.97257813,28.4047656 5.768125,28.0421875 5.41835938,27.9446094 C5.0684375,27.8471875 4.7059375,28.0515625 4.6084375,28.4013281 L2.19789063,37.0454687 C2.1334375,37.2767187 2.20007813,37.5247656 2.371875,37.6925 C2.54367188,37.8603125 2.79335938,37.9210156 3.02289063,37.8510156 L7.09976563,36.6086719 L9.946875,39.7815625 C10.073125,39.9222656 10.251875,39.9999219 10.43625,39.9999219 C10.4860156,39.9999219 10.53625,39.9942969 10.5860156,39.9826562 C10.8198438,39.9279687 11.0051563,39.7502344 11.0696875,39.5189844 L13.8890625,29.4049219 C13.9717969,29.4135937 14.0553125,29.4195312 14.1405469,29.4195312 C14.2255469,29.4195312 14.3089844,29.4135156 14.3915625,29.4049219 L17.2121094,39.5189844 C17.2765625,39.7502344 17.4620313,39.9279687 17.6957813,39.9826562 C17.7454688,39.9942187 17.795625,39.9999219 17.8453906,39.9999219 C18.0298438,39.9999219 18.2085937,39.9221875 18.3348437,39.7814844 L21.1810156,36.6085937 L25.25875,37.8508594 C25.4882812,37.9207812 25.7378125,37.8600781 25.9096875,37.6923437 C26.0814063,37.5245312 26.148125,37.2765625 26.0836719,37.0453906 L23.0982031,26.3383594 C23.6932812,25.7207812 23.9374219,24.82625 24.1555469,24.0234375 C24.3245312,23.4015625 24.4842187,22.8141406 24.7649219,22.4284375 C25.0397656,22.0507812 25.5442969,21.7221094 26.0783594,21.3741406 C26.8915625,20.844375 27.8132031,20.2439062 28.1338281,19.25625 C28.4417187,18.308125 28.0775781,17.3446875 27.7253906,16.4129687 C27.4923438,15.7960156 27.2721094,15.2132031 27.2721094,14.7098437 Z M24.4951562,36.2435938 L21.1632812,35.2285937 C20.9186719,35.1539062 20.6529687,35.228125 20.4821875,35.4185156 L18.1567187,38.0109375 L15.6350781,28.9688281 C16.0605469,28.7214062 16.4519531,28.4060156 16.819375,28.1089844 C17.3074219,27.7145312 17.7684375,27.3419531 18.1996094,27.2017969 C18.6630469,27.0513281 19.2759375,27.0803125 19.9247656,27.1108594 C20.6003906,27.1427344 21.2911719,27.1744531 21.9207812,27.0108594 L24.4951562,36.2435938 Z M26.8833594,18.8503906 C26.7061719,19.3960938 26.0526563,19.821875 25.3607031,20.2726563 C24.7503906,20.6703125 24.1192188,21.0814844 23.701875,21.655 C23.2788281,22.2363281 23.0794531,22.9696875 22.8867969,23.6789063 C22.671875,24.4698438 22.4688281,25.2167969 22.0144531,25.5475781 C21.5682031,25.8721875 20.8000781,25.8360156 19.9866406,25.7976563 C19.2485156,25.7629688 18.4851563,25.7267969 17.7934375,25.9514063 C17.1309375,26.1665625 16.5523438,26.6342188 15.9927344,27.0865625 C15.3447656,27.6103125 14.7328906,28.1048438 14.140625,28.1048438 C13.5483594,28.1048438 12.9363281,27.6101563 12.2884375,27.0864063 C11.7289063,26.6341406 11.1501563,26.1663281 10.4877344,25.9513281 C10.0514844,25.8096875 9.58671875,25.7717188 9.1178125,25.7717188 C8.84328125,25.7717188 8.5671875,25.7846875 8.29460938,25.7975781 C7.48132813,25.8360156 6.713125,25.8721875 6.266875,25.5475 C5.8125,25.2167969 5.60945313,24.4697656 5.39453125,23.6788281 C5.201875,22.9696094 5.0025,22.2361719 4.57945313,21.6549219 C4.1621875,21.0814844 3.53109375,20.6703125 2.920625,20.2725781 C2.22867188,19.8217969 1.57515625,19.3959375 1.39796875,18.8502344 C1.23273438,18.3413281 1.50140625,17.6305469 1.78578125,16.878125 C2.05054688,16.1776563 2.32429688,15.4534375 2.32429688,14.71 C2.32429688,13.9665625 2.05054688,13.2421875 1.78585938,12.541875 C1.50140625,11.7894531 1.2328125,11.0786719 1.39804688,10.5696875 C1.57523438,10.0239844 2.22875,9.59820313 2.92070313,9.14742188 C3.53101563,8.74976563 4.1621875,8.33859375 4.57953125,7.76523438 C5.00257813,7.18390625 5.20195313,6.45054688 5.39460938,5.74132813 C5.60953125,4.95039063 5.81257813,4.2034375 6.26695313,3.87265625 C6.713125,3.54796875 7.48148438,3.58414063 8.29476563,3.62257813 C9.0328125,3.65734375 9.79625,3.6934375 10.4879688,3.46882813 C11.1504688,3.25367188 11.7290625,2.78601563 12.2886719,2.33375 C12.9364844,1.80984375 13.5485156,1.31515625 14.1407031,1.31515625 C14.7328906,1.31515625 15.345,1.80984375 15.9928125,2.3334375 C16.5523438,2.78578125 17.1310938,3.25351563 17.7935156,3.46859375 C18.4852344,3.69320313 19.2484375,3.65726563 19.9866406,3.62234375 C20.7999219,3.5840625 21.5682031,3.5478125 22.014375,3.87242188 C22.46875,4.203125 22.6717969,4.95015625 22.8867188,5.74109375 C23.079375,6.4503125 23.27875,7.18375 23.7017969,7.765 C24.1190625,8.3384375 24.7501563,8.74960938 25.3605469,9.1471875 C26.0525,9.59796875 26.7060156,10.02375 26.8832813,10.5695313 C27.0485156,11.0785156 26.7799219,11.7892188 26.4954688,12.5417188 C26.2307031,13.2421094 25.9569531,13.9664063 25.9569531,14.7098438 C25.9569531,15.4533594 26.2308594,16.1775 26.495625,16.8779688 C26.78,17.6304687 27.0486719,18.34125 26.8833594,18.8503906 Z" id="Shape" fill="#2E3537"></path>
                    <path d="M16.6801562,10.6207031 L11.60125,10.6207031 C11.238125,10.6207031 10.94375,10.9150781 10.94375,11.2782031 C10.94375,11.6413281 11.238125,11.9357031 11.60125,11.9357031 L16.6801562,11.9357031 C17.0432812,11.9357031 17.3376562,11.6413281 17.3376562,11.2782031 C17.3376562,10.9150781 17.0432812,10.6207031 16.6801562,10.6207031 Z" id="Path" fill="#88816C"></path>
                    <path d="M16.6801562,17.4839844 L11.60125,17.4839844 C11.238125,17.4839844 10.94375,17.7783594 10.94375,18.1414844 C10.94375,18.5046094 11.238125,18.7989844 11.60125,18.7989844 L16.6801562,18.7989844 C17.0432812,18.7989844 17.3376562,18.5046094 17.3376562,18.1414844 C17.3376562,17.7783594 17.0432812,17.4839844 16.6801562,17.4839844 Z" id="Path" fill="#88816C"></path>
                    <path d="M18.5008594,14.0523438 L16.5203125,14.0523438 C16.1571875,14.0523438 15.8628125,14.3467188 15.8628125,14.7098438 C15.8628125,15.0729687 16.1571875,15.3673437 16.5203125,15.3673437 L18.5008594,15.3673437 C18.8639844,15.3673437 19.1583594,15.0730469 19.1583594,14.7098438 C19.1583594,14.3467188 18.8639844,14.0523438 18.5008594,14.0523438 Z" id="Path" fill="#88816C"></path>
                    <path d="M14.46125,14.0523438 L9.78046875,14.0523438 C9.41734375,14.0523438 9.12296875,14.3467188 9.12296875,14.7098438 C9.12296875,15.0729687 9.41734375,15.3673437 9.78046875,15.3673437 L14.46125,15.3673437 C14.824375,15.3673437 15.11875,15.0729687 15.11875,14.7098438 C15.11875,14.3467188 14.824375,14.0523438 14.46125,14.0523438 Z" id="Path" fill="#88816C"></path>
                </g>
                <rect id="Rectangle" stroke="#979797" fill="#D8D8D8" opacity="0" x="0.5" y="0.5" width="39" height="39"></rect>
            </g>
        </g>
    </g>
</svg>