<?xml version="1.0" encoding="utf-8"?>
<!-- Generator: Adobe Illustrator 23.0.0, SVG Export Plug-In . SVG Version: 6.00 Build 0)  -->
<svg version="1.1" id="Capa_1" xmlns="http://www.w3.org/2000/svg" xmlns:xlink="http://www.w3.org/1999/xlink" x="0px" y="0px"
	 viewBox="0 0 475 475" style="enable-background:new 0 0 475 475;" xml:space="preserve">
<style type="text/css">
	.st0{fill:#F7BC1E;}
</style>
<g>
	<path class="st0" d="M474.5,183.3c-1.7-5.2-6.9-8.5-15.4-9.9l-143.3-20.8L251.5,22.7c-4-7.8-8.7-11.7-14-11.7
		c-5.5,0-10.2,3.9-14,11.7l-64.2,129.9L16,173.4c-8.6,1.3-13.7,4.6-15.4,9.9c-1.7,5.2,0.5,10.9,6.6,17l103.9,101.1L86.5,444.1
		c-0.9,6.3-0.4,11.2,1.7,14.7c2.1,3.5,5.3,5.3,9.7,5.3c3.2,0,7-1.1,11.4-3.4l128.2-67.4l128.2,67.4c4.4,2.3,8.2,3.4,11.4,3.4
		c4.4,0,7.6-1.8,9.7-5.3c2.1-3.5,2.7-8.4,1.7-14.7L364,301.3l103.6-101.1C473.9,194.2,476.2,188.5,474.5,183.3z M338.6,275.1
		l-14,13.4l3.4,18.8l17.1,101.4l-90.8-48l-16.8-8.9V76.9l45.4,91.9l8.6,17.1l18.9,2.9L412,203.7L338.6,275.1z"/>
</g>
</svg>
