<svg xmlns="http://www.w3.org/2000/svg" width="30" height="29" viewBox="0 0 30 29">
    <path fill="#EEBB26" d="M6.06 28.999c-.11 0-.222-.035-.315-.103-.165-.12-.248-.322-.213-.523l1.66-9.647-7.03-6.83c-.146-.143-.199-.355-.136-.549.063-.194.232-.335.434-.364l9.714-1.408L14.52.8C14.609.616 14.796.5 15 .5c.205 0 .391.116.481.299l4.344 8.776 9.715 1.408c.202.03.37.17.434.364.063.194.01.407-.136.549l-7.03 6.831 1.66 9.646c.034.201-.049.404-.214.524-.165.121-.385.137-.566.04L15 24.385l-8.69 4.554c-.078.04-.164.06-.25.06zM1.69 11.886l6.453 6.27c.126.123.184.301.154.475l-1.523 8.854 7.976-4.18c.157-.083.343-.083.5 0l7.976 4.18-1.523-8.854c-.03-.174.028-.351.154-.474l6.452-6.271-8.917-1.292c-.175-.025-.325-.135-.404-.293L15 2.246l-3.988 8.056c-.079.158-.23.267-.405.293l-8.916 1.29z"/>
</svg>
