<?xml version="1.0" encoding="UTF-8"?>
<svg width="31px" height="32px" viewBox="0 0 31 32" version="1.1" xmlns="http://www.w3.org/2000/svg" xmlns:xlink="http://www.w3.org/1999/xlink">
    <!-- Generator: Sketch 64 (93537) - https://sketch.com -->
    <title>stop</title>
    <desc>Created with Sketch.</desc>
    <g id="Page-1" stroke="none" stroke-width="1" fill="none" fill-rule="evenodd">
        <g id="Group-96" transform="translate(-69.000000, -4.000000)">
            <g id="stop" transform="translate(69.000000, 4.000000)">
                <circle id="Oval" fill="#A44553" fill-rule="nonzero" cx="15.0769231" cy="16.3076923" r="15.0769231"></circle>
                <circle id="Oval" fill="#D74D5F" cx="15.8974359" cy="15.0769231" r="15.0769231"></circle>
                <g id="Group" transform="translate(9.025641, 8.410256)" fill="#2E3537" fill-rule="nonzero" opacity="0.300000012">
                    <path d="M8.15753846,0.0748717949 C7.27323077,0.0748717949 6.55651282,0.791589744 6.55651282,1.67589744 L6.55651282,11.9222564 C6.55651282,12.8065641 7.27323077,13.5232821 8.15753846,13.5232821 C9.04184615,13.5232821 9.7585641,12.8065641 9.7585641,11.9222564 L9.7585641,1.67589744 C9.75835897,0.791589744 9.04164103,0.0748717949 8.15753846,0.0748717949 Z" id="Path"></path>
                    <path d="M14.5614359,0.0748717949 C13.6771282,0.0748717949 12.9604103,0.791589744 12.9604103,1.67589744 L12.9604103,11.9222564 C12.9604103,12.8065641 13.6771282,13.5232821 14.5614359,13.5232821 C15.4457436,13.5232821 16.1624615,12.8065641 16.1624615,11.9222564 L16.1624615,1.67589744 C16.1624615,0.791589744 15.4457436,0.0748717949 14.5614359,0.0748717949 Z" id="Path"></path>
                    <path d="M1.7534359,0.0748717949 C0.869128205,0.0748717949 0.152410256,0.791589744 0.152410256,1.67589744 L0.152410256,11.9222564 C0.152410256,12.8065641 0.869128205,13.5232821 1.7534359,13.5232821 C2.63774359,13.5232821 3.35446154,12.8065641 3.35446154,11.9222564 L3.35446154,1.67589744 C3.35446154,0.791589744 2.63774359,0.0748717949 1.7534359,0.0748717949 Z" id="Path"></path>
                </g>
            </g>
        </g>
    </g>
</svg>