<?xml version="1.0" encoding="UTF-8"?>
<svg width="56px" height="56px" viewBox="0 0 56 56" version="1.1" xmlns="http://www.w3.org/2000/svg" xmlns:xlink="http://www.w3.org/1999/xlink">
    <!-- Generator: Sketch 58 (84663) - https://sketch.com -->
    <title>Support Copy 4</title>
    <desc>Created with Sketch.</desc>
    <g id="Page-1" stroke="none" stroke-width="1" fill="none" fill-rule="evenodd">
        <g id="Support-Copy-4" transform="translate(1.000000, 1.000000)" stroke="#FFFFFF" stroke-width="1.5">
            <path d="M48.132,21.314104 L47.432,21.314104 C46.9299353,19.352216 46.1621682,17.4681249 45.15,15.714104 L45.682,15.182104 C47.7514357,13.0924165 47.7514357,9.72579158 45.682,7.63610403 L45.682,7.63610403 C44.6762279,6.62900776 43.3113132,6.06311551 41.888,6.06311551 C40.4646868,6.06311551 39.0997721,6.62900776 38.094,7.63610403 L37.604,8.12610403 C35.8857486,7.10852737 34.0338858,6.33573982 32.102,5.83010403 L32.102,5.08810403 C31.9561691,2.23693228 29.6018988,-1.42108547e-14 26.747,-1.42108547e-14 C23.8921012,-1.42108547e-14 21.5378309,2.23693228 21.392,5.08810403 L21.392,5.83010403 C19.4601142,6.33573982 17.6082514,7.10852737 15.89,8.12610403 L15.414,7.63610403 C13.3146343,5.53718679 9.91136567,5.53718679 7.812,7.63610403 L7.812,7.63610403 C6.81089009,8.63652797 6.2484147,9.9938058 6.2484147,11.409104 C6.2484147,12.8244023 6.81089009,14.1816801 7.812,15.182104 L8.33,15.714104 C7.31639791,17.4657972 6.55299067,19.3507533 6.062,21.314104 L5.362,21.314104 C3.94119809,21.3103846 2.57731397,21.8721906 1.57133944,22.8755386 C0.565364906,23.8788866 -1.49213975e-13,25.2412973 -1.49213975e-13,26.662104 L-1.49213975e-13,26.732104 C-1.49213975e-13,28.1529108 0.565364906,29.5153215 1.57133944,30.5186695 C2.57731397,31.5220174 3.94119809,32.0838234 5.362,32.080104 L6.062,32.080104 C6.55299067,34.0434548 7.31639791,35.9284109 8.33,37.680104 L7.812,38.212104 C6.81089009,39.212528 6.2484147,40.5698058 6.2484147,41.985104 C6.2484147,43.4004023 6.81089009,44.7576801 7.812,45.758104 L7.812,45.758104 C9.91136567,47.8570213 13.3146343,47.8570213 15.414,45.758104 L15.89,45.268104 C17.6054763,46.2912015 19.4581419,47.0643241 21.392,47.564104 L21.392,48.306104 C21.5378309,51.1572758 23.8921012,53.3942081 26.747,53.3942081 C29.6018988,53.3942081 31.9561691,51.1572758 32.102,48.306104 L32.102,47.564104 C34.0358581,47.0643241 35.8885237,46.2912015 37.604,45.268104 L38.094,45.758104 C39.0997721,46.7652003 40.4646868,47.3310926 41.888,47.3310926 C43.3113132,47.3310926 44.6762279,46.7652003 45.682,45.758104 L45.682,45.758104 C47.7514357,43.6684165 47.7514357,40.3017916 45.682,38.212104 L45.15,37.680104 C46.1621682,35.9260832 46.9299353,34.041992 47.432,32.080104 L48.132,32.080104 C51.0856188,32.080104 53.48,29.6857229 53.48,26.732104 L53.48,26.662104 C53.48,23.7084852 51.0856188,21.314104 48.132,21.314104 L48.132,21.314104 Z" id="Path"></path>
            <ellipse id="Oval" transform="translate(26.725690, 26.693844) rotate(-64.730000) translate(-26.725690, -26.693844) " cx="26.7256901" cy="26.6938436" rx="10.962" ry="10.892"></ellipse>
            <path d="M13.692,18.402104 C14.8913206,16.501447 16.4921105,14.8863216 18.382,13.670104" id="Path"></path>
            <path d="M33.278,12.662104 C39.8344682,15.7246905 43.3952988,22.9200903 41.8533517,29.990388 C40.3114046,37.0606857 34.0779526,42.1200701 26.8416736,42.1746239 C19.6053945,42.2291777 13.2963707,37.2643502 11.648,30.218104 C11.2745929,28.5847144 11.1658758,26.9019634 11.326,25.234104 C11.4191154,24.2877932 11.5924044,23.3510961 11.844,22.434104" id="Path"></path>
            <path d="M23.198,11.668104 C24.8393202,11.2849604 26.5313581,11.1668013 28.21,11.318104" id="Path"></path>
            <circle id="Oval" cx="26.824" cy="26.452104" r="3.584"></circle>
        </g>
    </g>
</svg>