<?xml version="1.0" encoding="utf-8"?>
<!-- Generator: Adobe Illustrator 23.0.0, SVG Export Plug-In . SVG Version: 6.00 Build 0)  -->
<svg version="1.1" id="Capa_1" xmlns="http://www.w3.org/2000/svg" xmlns:xlink="http://www.w3.org/1999/xlink" x="0px" y="0px"
	 viewBox="0 0 58.1 58" style="enable-background:new 0 0 58.1 58;" xml:space="preserve">
<style type="text/css">
	.st0{fill:#FFFFFF;}
	.st1{fill:#AAAAAA;}
</style>
<g>
	<path class="st0" d="M17.1,45.6C7.9,45.6,0.4,38.2,0.4,29s7.5-16.6,16.6-16.6h24c9.2,0,16.6,7.5,16.6,16.6s-7.5,16.6-16.6,16.6
		H17.1z"/>
	<path class="st1" d="M41.1,12.7c9,0,16.3,7.3,16.3,16.3S50,45.2,41.1,45.2h-24C8.1,45.2,0.8,38,0.8,29s7.3-16.3,16.3-16.3H41.1
		 M41.1,12h-24c-9.4,0-17,7.7-17,17s7.7,17,17,17h24c9.3,0,17-7.7,17-17S50.4,12,41.1,12L41.1,12z"/>
</g>
<g>
	<path class="st0" d="M17.1,42.7C9.5,42.7,3.4,36.5,3.4,29c0-7.5,6.1-13.7,13.7-13.7c7.5,0,13.7,6.1,13.7,13.7
		C30.7,36.5,24.6,42.7,17.1,42.7z"/>
	<path class="st1" d="M17.1,15.8c7.3,0,13.2,5.9,13.2,13.2s-5.9,13.2-13.2,13.2S3.9,36.3,3.9,29S9.8,15.8,17.1,15.8 M17.1,14.8
		C9.2,14.8,2.9,21.2,2.9,29s6.3,14.2,14.2,14.2S31.2,36.8,31.2,29S24.9,14.8,17.1,14.8L17.1,14.8z"/>
</g>
</svg>
