<svg xmlns="http://www.w3.org/2000/svg" width="20" height="20" viewBox="0 0 20 20">
    <g fill="#2E3537" fill-rule="nonzero" opacity=".503">
        <path d="M18.828 11.416v-9.62a.586.586 0 0 0-.586-.585h-2.969V.586a.586.586 0 1 0-1.171 0v.625h-2.344V.586a.586.586 0 1 0-1.172 0v.625H8.242V.586a.586.586 0 1 0-1.172 0v.625H4.727V.586a.586.586 0 1 0-1.172 0v.625H.585A.586.586 0 0 0 0 1.797V17.07c0 .324.262.586.586.586h9.758A5.273 5.273 0 0 0 14.727 20 5.28 5.28 0 0 0 20 14.727c0-1.253-.44-2.405-1.172-3.311zM3.555 2.383v.586a.586.586 0 1 0 1.172 0v-.586H7.07v.586a.586.586 0 1 0 1.172 0v-.586h2.344v.586a.586.586 0 1 0 1.172 0v-.586h2.344v.586a.586.586 0 1 0 1.171 0v-.586h2.383v2.344H1.172V2.383h2.383zM1.172 16.484V5.898h16.484v4.446a5.244 5.244 0 0 0-2.93-.89c-1.85 0-3.482.958-4.424 2.406a.582.582 0 0 0-.263-.063H8.867a.586.586 0 1 0 0 1.172h.888a5.23 5.23 0 0 0-.27 1.172h-.618a.586.586 0 1 0 0 1.171h.619c.045.407.136.8.269 1.172H1.172zm13.555 2.344a4.106 4.106 0 0 1-4.102-4.101 4.106 4.106 0 0 1 4.102-4.102 4.106 4.106 0 0 1 4.101 4.102 4.106 4.106 0 0 1-4.101 4.101z"/>
        <path d="M17.07 14.14h-1.758v-1.757a.586.586 0 1 0-1.171 0v2.344c0 .323.262.585.586.585h2.343a.586.586 0 1 0 0-1.171zM5.313 7.11H4.14a.586.586 0 1 0 0 1.171h1.171a.586.586 0 1 0 0-1.172zM5.313 9.453H4.14a.586.586 0 1 0 0 1.172h1.171a.586.586 0 1 0 0-1.172zM5.313 11.797H4.14a.586.586 0 1 0 0 1.172h1.171a.586.586 0 1 0 0-1.172zM8.867 8.281h1.172a.586.586 0 1 0 0-1.172H8.867a.586.586 0 1 0 0 1.172zM8.867 10.625h1.172a.586.586 0 1 0 0-1.172H8.867a.586.586 0 1 0 0 1.172zM5.313 14.14H4.14a.586.586 0 1 0 0 1.172h1.171a.586.586 0 1 0 0-1.171zM13.555 8.281h1.172a.586.586 0 1 0 0-1.172h-1.172a.586.586 0 1 0 0 1.172z"/>
    </g>
</svg>
