<svg xmlns="http://www.w3.org/2000/svg" width="48" height="72" viewBox="0 0 48 72">
    <g fill="none">
        <g>
            <path fill="#5EBE84" d="M2.452.173C.994 1.143.044 2.815.084 4.707c.059 2.744 2.248 5.02 4.988 5.18 1.779.103 3.38-.672 4.415-1.93.32-.39.295-.958-.04-1.333C7.686 4.66 5.568 2.3 3.791.341c-.344-.38-.914-.452-1.34-.168z" transform="translate(9.432)"/>
            <path fill="#678189" fill-opacity=".3" d="M9.446 6.624L7.764 4.746c-.038.097-.09.189-.158.272-1.034 1.259-2.636 2.033-4.414 1.93-1.115-.065-2.138-.48-2.964-1.134C.761 8.04 2.711 9.75 5.072 9.887c1.78.103 3.38-.672 4.415-1.93.32-.39.295-.958-.04-1.333z" transform="translate(9.432)"/>
        </g>
        <g>
            <path fill="#F1F4F6" d="M43.733 16.335H4.257l7.53 40.135c.291 1.554 1.649 2.68 3.23 2.68h17.956c1.581 0 2.938-1.126 3.23-2.68l7.53-40.135z" transform="translate(0 10.818)"/>
            <path fill="#DFEAEF" d="M37.41 16.335l-4.622 24.63c-1.399 7.457-7.91 12.86-15.498 12.86h-6l.497 2.645c.291 1.554 1.648 2.68 3.23 2.68h17.956c1.581 0 2.938-1.126 3.23-2.68l7.53-40.135h-6.324z" transform="translate(0 10.818)"/>
            <path fill="#678189" d="M32.973 60.195H15.017c-2.083 0-3.873-1.486-4.257-3.533L3.23 16.528c-.058-.305.024-.62.223-.86.198-.24.493-.378.804-.378h39.476c.31 0 .606.139.804.378.199.24.28.554.223.86l-7.53 40.134c-.384 2.047-2.175 3.533-4.257 3.533zM5.516 17.38l7.298 38.897c.199 1.06 1.125 1.828 2.203 1.828h17.956c1.078 0 2.004-.769 2.203-1.828l7.298-38.897H5.516z" transform="translate(0 10.818)"/>
            <path fill="#678189" d="M30.49 60.195H17.5c-.535 0-.984-.404-1.04-.937l-4.457-42.814c-.03-.295.065-.588.263-.808.198-.22.48-.346.776-.346h21.905c.296 0 .578.126.776.346.199.22.294.513.264.808l-4.458 42.815c-.055.532-.504.936-1.039.936zm-12.048-2.09h11.106l4.24-40.725H14.202l4.24 40.725z" transform="translate(0 10.818)"/>
            <path fill="#F8D0B6" d="M20.229 1.957L32.849.128c.517-.075.997.282 1.076.798l.938 6.156c.058.379-.117.755-.444.955l-10.63 6.496c-.54.33-1.248.049-1.413-.563L19.447 3.146c-.148-.55.217-1.107.782-1.19z" transform="translate(0 10.818)"/>
            <path fill="#678189" fill-opacity=".2" d="M34.863 7.082L33.925.926c-.079-.516-.56-.873-1.076-.798l-2.78.403.68 4.46c.058.379-.117.755-.444.955l-8.667 5.296.738 2.728c.165.612.872.893 1.413.563l10.63-6.496c.327-.2.502-.576.444-.955z" transform="translate(0 10.818)"/>
            <path fill="#678189" d="M23.995 59.986c-.577 0-1.045-.468-1.045-1.045V16.335c0-.577.468-1.045 1.045-1.045s1.045.468 1.045 1.045v42.606c0 .577-.468 1.045-1.045 1.045z" transform="translate(0 10.818)"/>
            <path fill="#F1F4F6" d="M47.086 19.746H.903c-.46 0-.832-.373-.832-.833v-5.156c0-.46.373-.832.832-.832h46.183c.46 0 .832.373.832.832v5.156c0 .46-.372.833-.832.833z" transform="translate(0 10.818)"/>
            <path fill="#DFEAEF" d="M47.082 12.925h-2.514v2.634c0 .461-.375.836-.836.836H.072v2.514c0 .462.374.836.835.836h46.175c.462 0 .836-.374.836-.836v-5.148c0-.462-.374-.836-.836-.836z" transform="translate(0 10.818)"/>
        </g>
    </g>
</svg>
