<svg xmlns="http://www.w3.org/2000/svg" width="17" height="19" viewBox="0 0 17 19">
    <g fill="#2E3537" fill-rule="nonzero" opacity=".5">
        <path d="M8.175 9.946h.129c1.176-.02 2.127-.413 2.83-1.166 1.544-1.66 1.287-4.503 1.26-4.774-.101-2.038-1.112-3.012-1.947-3.467C9.825.199 9.098.015 8.287 0H8.22C7.774 0 6.9.069 6.06.524c-.843.454-1.87 1.43-1.97 3.482-.028.271-.285 3.115 1.26 4.774.698.753 1.65 1.146 2.825 1.166zM5.161 4.1c0-.011.004-.023.004-.03.133-2.74 2.175-3.035 3.05-3.035h.049c1.083.023 2.925.443 3.05 3.035 0 .011 0 .023.004.03.004.027.285 2.626-.992 3.995-.505.542-1.18.81-2.066.818h-.04c-.884-.008-1.562-.276-2.063-.818-1.273-1.361-1-3.972-.996-3.995z"/>
        <path d="M16.487 14.662v-.011c0-.03-.004-.061-.004-.096-.024-.757-.076-2.526-1.818-3.092l-.04-.011c-1.81-.44-3.315-1.434-3.331-1.445a.559.559 0 0 0-.755.126.5.5 0 0 0 .133.718c.068.046 1.665 1.105 3.664 1.594.935.318 1.04 1.27 1.067 2.14 0 .035 0 .066.004.096.004.344-.02.876-.084 1.181-.65.352-3.199 1.568-7.076 1.568-3.86 0-6.425-1.22-7.08-1.571-.063-.306-.091-.837-.083-1.182 0-.03.004-.06.004-.095.028-.872.132-1.823 1.067-2.14 1.999-.49 3.596-1.552 3.664-1.594a.5.5 0 0 0 .133-.719.559.559 0 0 0-.755-.126c-.016.011-1.513 1.005-3.33 1.445l-.04.011C.083 12.03.031 13.8.007 14.551c0 .035 0 .065-.004.096v.011c-.004.2-.008 1.22.205 1.732.04.1.112.183.208.24.12.077 3.006 1.828 7.835 1.828 4.828 0 7.713-1.755 7.834-1.827a.518.518 0 0 0 .208-.241c.201-.508.197-1.529.193-1.728z"/>
    </g>
</svg>
