<?xml version="1.0" encoding="UTF-8"?>
<svg width="40px" height="40px" viewBox="0 0 40 40" version="1.1" xmlns="http://www.w3.org/2000/svg" xmlns:xlink="http://www.w3.org/1999/xlink">
    <!-- Generator: Sketch 58 (84663) - https://sketch.com -->
    <title>confetti-ball</title>
    <desc>Created with Sketch.</desc>
    <g id="Page-1" stroke="none" stroke-width="1" fill="none" fill-rule="evenodd">
        <g id="Create-personal-gift-page/-first-step" transform="translate(-605.000000, -704.000000)" fill-rule="nonzero">
            <g id="confetti-ball" transform="translate(605.000000, 704.000000)">
                <path d="M2.34955489,17.5729287 L7.96759237,14.329422 L7.38248803,13.3160736 L2.79637849,15.9638155 C2.27249535,14.8807176 1.99776133,13.6913202 1.99776133,12.4906531 C1.99776133,9.63853585 3.53011951,6.98165644 5.99754812,5.55712076 C7.20582968,4.85962523 8.57736792,4.48864283 9.96383072,4.48437871 L9.96017573,3.31416995 C8.36994677,3.31904328 6.79738361,3.74424145 5.41244371,4.54377245 C2.584084,6.17664306 0.827248014,9.22156145 0.827248014,12.4906531 C0.827248014,14.0909333 1.25244618,15.6729385 2.05685044,17.0661022 L2.34955489,17.5729287 Z" id="Path" fill="#2E3537"></path>
                <path d="M16.6107503,7.98799938 L8.39614097,12.7309693 L8.98124531,13.7443176 L18.227478,8.4061922 L17.9347735,7.89936572 C17.6097832,7.33619138 17.2317955,6.81687694 16.809034,6.34538212 C18.2521492,5.55346576 19.3544359,4.31563957 19.980659,2.85485846 C20.6071866,4.31594413 21.7094733,5.55346576 23.1525886,6.34538212 C22.729827,6.81687694 22.3518393,7.33619138 22.026849,7.89936572 L21.7341445,8.40588763 L30.9803772,13.7443176 L31.5654816,12.7306647 L23.3508722,7.98799938 C24.6282943,6.10171555 26.6245326,4.86145269 28.9104297,4.55534658 L28.7550923,3.39549369 C26.9754125,3.63367773 25.3489381,4.36620042 24.0297883,5.48919876 L23.7629733,5.34574004 C21.790797,4.28700878 20.5657633,2.23838203 20.5657633,0 L19.3955546,0 C19.3955546,2.23838203 18.1705209,4.28670414 16.1986492,5.34604461 L15.9318343,5.48919876 C14.6126844,4.36620042 12.98621,3.63398237 11.2065302,3.39549369 L11.0511928,4.55565114 C13.3370899,4.86145269 15.3333283,6.10171555 16.6107503,7.98799938 L16.6107503,7.98799938 Z" id="Path" fill="#2E3537"></path>
                <path d="M37.9638612,12.4909576 C37.9638612,13.6913202 37.6891271,14.8807176 37.1649394,15.9638155 L32.5788299,13.3160736 L31.9937256,14.329422 L37.611763,17.5732332 L37.9044675,17.0664068 C38.7088717,15.6732431 39.1340699,14.0909333 39.1340699,12.4909576 C39.1340699,9.22186601 37.3772339,6.17694762 34.5491788,4.54407702 C33.1642389,3.74424145 31.5913712,3.31934785 30.0011422,3.31447452 L29.9977918,4.48468327 C31.38395,4.4889474 32.7554882,4.85992979 33.9640744,5.5574254 C36.4311984,6.98165644 37.9638612,9.63853585 37.9638612,12.4909576 L37.9638612,12.4909576 Z" id="Path" fill="#2E3537"></path>
                <path d="M21.8157728,32.34491 L19.980659,28.6265581 L18.1455451,32.34491 L14.0422,32.941284 L17.0115818,35.8354337 L16.3107358,39.9223313 L19.980659,37.9927966 L23.6508867,39.9223313 L22.9500407,35.8354337 L25.9194225,32.941284 L21.8157728,32.34491 Z M22.0965986,37.7832433 L19.980659,36.6706009 L17.8647193,37.7832433 L18.2689013,35.4269876 L16.5571436,33.7581761 L18.9228415,33.4146062 L19.980659,31.2709496 L21.038781,33.4146062 L23.4044789,33.7581761 L21.6927212,35.4269876 L22.0965986,37.7832433 Z" id="Shape" fill="#88816C"></path>
                <path d="M20.3552964,21.7740449 C21.1855902,21.0823364 22.1261431,20.2980346 22.1261431,18.723644 C22.1261431,17.149558 21.1852856,16.3655608 20.3552964,15.6738523 C19.6011482,15.0454971 19.0053835,14.5490265 19.0053835,13.5228857 C19.0053835,12.4967447 19.6011482,12.0002741 20.3552964,11.371919 L19.6060216,10.4730939 C18.7760323,11.1648024 17.8351748,11.9487996 17.8351748,13.5228857 C17.8351748,15.0972763 18.7760323,15.8812734 19.6063262,16.5729819 C20.3604743,17.2013371 20.9559344,17.6975032 20.9559344,18.723644 C20.9559344,19.7500895 20.3601697,20.2465601 19.6060216,20.8749153 C18.7760323,21.5669284 17.8351748,22.3509256 17.8351748,23.9253162 C17.8351748,25.4997068 18.7760323,26.2837041 19.6060216,26.9754125 L20.3552964,26.0765875 C19.6011482,25.4479277 19.0053835,24.9517616 19.0053835,23.9253162 C19.0053835,22.8988707 19.6011482,22.4024001 20.3552964,21.7740449 Z" id="Path" fill="#2E3537"></path>
                <path d="M11.7499067,21.6887616 L11.0478424,22.6250504 C11.8699125,23.2418315 12.3739977,23.6618518 12.3739977,24.4973235 C12.3739977,25.3324907 11.8702171,25.7528155 11.0478424,26.3699011 C10.2483115,26.9693208 9.2532381,27.7155498 9.2532381,29.178463 C9.2532381,30.6413761 10.2483115,31.3873004 11.0475378,31.9870248 L11.7499067,31.0507359 C10.927532,30.4342595 10.4234469,30.0136301 10.4234469,29.178463 C10.4234469,28.3429912 10.927532,27.9226663 11.7499067,27.3058853 C12.5494376,26.7061609 13.5442064,25.9602367 13.5442064,24.4973235 C13.5442064,23.0344102 12.5494376,22.288486 11.7499067,21.6887616 L11.7499067,21.6887616 Z" id="Path" fill="#2E3537"></path>
                <path d="M3.05101005,24.450113 L0.0389866516,27.4621365 L3.05101005,30.4741599 L6.06272889,27.4621365 L3.05101005,24.450113 Z M1.69378724,27.4621365 L3.05101005,26.1052183 L4.4079283,27.4621365 L3.05101005,28.8190547 L1.69378724,27.4621365 Z" id="Shape" fill="#2E3537"></path>
                <path d="M7.2640051,32.8063536 C5.86566353,32.8063536 4.72834984,33.9439719 4.72834984,35.3420088 C4.72834984,36.7400458 5.86566353,37.8773596 7.2640051,37.8773596 C8.6620421,37.8773596 9.79935579,36.7400458 9.79935579,35.3420088 C9.79935579,33.9439719 8.6620421,32.8063536 7.2640051,32.8063536 L7.2640051,32.8063536 Z M7.2640051,36.7071509 C6.51107539,36.7071509 5.8985586,36.094634 5.8985586,35.3420088 C5.8985586,34.5890791 6.51107539,33.9765623 7.2640051,33.9765623 C8.01663024,33.9765623 8.62914711,34.5890791 8.62914711,35.3420088 C8.62914711,36.094634 8.01663024,36.7071509 7.2640051,36.7071509 Z" id="Shape" fill="#2E3537"></path>
                <path d="M14.6400968,17.962186 C14.9605184,18.0304126 15.2197187,18.2113351 15.3701828,18.4717538 C15.5206469,18.732477 15.5477549,19.047416 15.4466332,19.3590046 C15.337897,19.6925233 15.0987992,19.9797452 14.7731997,20.1679777 L15.3583041,21.181326 C15.9348801,20.8484165 16.3612966,20.3297113 16.5592757,19.7208495 C16.7645648,19.0894484 16.7021252,18.4382496 16.3838358,17.8866493 C16.0652417,17.3350491 15.5325257,16.9552339 14.8831543,16.8175623 C14.8435585,16.809034 14.8036581,16.8014193 14.7634531,16.7950231 C14.7780731,16.7572548 14.7914747,16.7188773 14.8039626,16.6801952 C15.0092518,16.0490988 14.9468121,15.3978999 14.6285227,14.8462997 C14.3099287,14.2946995 13.7772126,13.9148842 13.1278412,13.776908 C12.5013135,13.6438052 11.838845,13.7540643 11.262269,14.0869737 L11.8473733,15.1003221 C12.1732774,14.9123943 12.5415185,14.8490409 12.8847838,14.9218364 C13.2052053,14.9897584 13.4644057,15.1706808 13.6148698,15.4314041 C13.7653338,15.6918227 13.7924418,16.0067617 13.6913202,16.3183504 C13.5825839,16.651869 13.3434861,16.9393956 13.0178866,17.1273234 L13.602991,18.1409763 C13.9285904,17.9530485 14.2971362,17.8893906 14.6400968,17.962186 L14.6400968,17.962186 Z" id="Path" fill="#2E3537"></path>
                <polygon id="Path" fill="#88816C" points="5.8985586 18.5290153 7.06876728 18.5290153 7.06876728 19.6995286 5.8985586 19.6995286"></polygon>
                <polygon id="Path" fill="#88816C" points="5.8985586 22.4301171 7.06876728 22.4301171 7.06876728 23.6003259 5.8985586 23.6003259"></polygon>
                <polygon id="Path" fill="#88816C" points="3.94800761 20.4795663 5.11852092 20.4795663 5.11852092 21.649775 3.94800761 21.649775"></polygon>
                <polygon id="Path" fill="#88816C" points="7.84910944 20.4795663 9.01931819 20.4795663 9.01931819 21.649775 7.84910944 21.649775"></polygon>
                <path d="M28.9137801,26.3699011 C28.0914054,25.7531201 27.5873202,25.3324907 27.5873202,24.4973235 C27.5873202,23.6621563 28.0914054,23.2418315 28.9137801,22.6250504 L28.2117158,21.6887616 C27.4121849,22.288486 26.4171115,23.0344102 26.4171115,24.4973235 C26.4171115,25.9602367 27.4121849,26.7064655 28.2117158,27.3061899 C29.0337859,27.9226663 29.5378711,28.3429912 29.5378711,29.178463 C29.5378711,30.0139347 29.0337859,30.4342595 28.2117158,31.0510405 L28.9137801,31.9870248 C29.713311,31.387605 30.7080798,30.6413761 30.7080798,29.178463 C30.7080798,27.7155498 29.713311,26.9693208 28.9137801,26.3699011 L28.9137801,26.3699011 Z" id="Path" fill="#2E3537"></path>
                <path d="M36.9106124,24.450113 L33.898589,27.4621365 L36.9106124,30.4741599 L39.9223313,27.4621365 L36.9106124,24.450113 Z M35.5533896,27.4621365 L36.9106124,26.1052183 L38.2675307,27.4621365 L36.9106124,28.8190547 L35.5533896,27.4621365 Z" id="Shape" fill="#2E3537"></path>
                <path d="M32.6976174,32.8063536 C31.2992758,32.8063536 30.1619621,33.9439719 30.1619621,35.3420088 C30.1619621,36.7400458 31.2992758,37.8773596 32.6976174,37.8773596 C34.0956544,37.8773596 35.2332727,36.7400458 35.2332727,35.3420088 C35.2332727,33.9439719 34.0956544,32.8063536 32.6976174,32.8063536 L32.6976174,32.8063536 Z M32.6976174,36.7071509 C31.9446877,36.7071509 31.3321708,36.094634 31.3321708,35.3420088 C31.3321708,34.5890791 31.9446877,33.9765623 32.6976174,33.9765623 C33.4502425,33.9765623 34.0627593,34.5890791 34.0627593,35.3420088 C34.0627593,36.094634 33.4502425,36.7071509 32.6976174,36.7071509 Z" id="Shape" fill="#2E3537"></path>
                <path d="M26.2703023,16.3183504 C26.1688761,16.0070663 26.1962887,15.6918227 26.3464482,15.4314041 C26.4969122,15.1709854 26.7564172,14.9897584 27.0765341,14.9218364 C27.420104,14.8490409 27.7883451,14.9123943 28.1139446,15.1006266 L28.6990489,14.0869737 C28.1227775,13.7540643 27.460309,13.6441097 26.8334768,13.7772126 C26.1844099,13.9148842 25.6516939,14.2946995 25.3330998,14.8462997 C25.0145058,15.3978999 24.9523708,16.0490988 25.1573553,16.6801952 C25.1701478,16.7188773 25.1835494,16.7572548 25.1978649,16.7950231 C25.1579645,16.801724 25.1180641,16.809034 25.0781637,16.8175623 C24.4290968,16.9552339 23.8963808,17.3350491 23.5777867,17.8866493 C23.2591927,18.4382496 23.1970577,19.0894484 23.4020422,19.7208495 C23.6003259,20.3297113 24.0267424,20.8484165 24.6033184,21.181326 L25.1884228,20.1679777 C24.8625188,19.9797452 24.6234209,19.6925233 24.5149893,19.3590046 C24.4135631,19.047416 24.4409756,18.7321723 24.5911351,18.4717538 C24.7415992,18.2113351 25.0011041,18.0304126 25.3212211,17.962186 C25.664791,17.8893906 26.0330321,17.952744 26.3586315,18.1409763 L26.9437358,17.127628 C26.6181364,16.9393956 26.378734,16.6521736 26.2703023,16.3183504 L26.2703023,16.3183504 Z" id="Path" fill="#2E3537"></path>
                <polygon id="Path" fill="#88816C" points="32.8925507 18.5290153 34.0627593 18.5290153 34.0627593 19.6995286 32.8925507 19.6995286"></polygon>
                <polygon id="Path" fill="#88816C" points="32.8925507 22.4301171 34.0627593 22.4301171 34.0627593 23.6003259 32.8925507 23.6003259"></polygon>
                <polygon id="Path" fill="#88816C" points="34.8431016 20.4795663 36.0133103 20.4795663 36.0133103 21.649775 34.8431016 21.649775"></polygon>
                <polygon id="Path" fill="#88816C" points="30.9423043 20.4795663 32.1125131 20.4795663 32.1125131 21.649775 30.9423043 21.649775"></polygon>
                <path d="M4.82459814,13.4415619 L4.2394938,12.4282135 L5.25284218,11.8431092 L5.83794652,12.8564575 L4.82459814,13.4415619 Z M6.85159946,12.2713532 L6.26649512,11.2577002 L7.27984342,10.6725959 L7.86494784,11.6862488 L6.85159946,12.2713532 Z M8.87829614,11.1011445 L8.2931918,10.0874915 L12.8214305,7.47325379 L13.4065348,8.48660217 L8.87829614,11.1011445 Z" id="Shape" fill="#88816C"></path>
                <path d="M35.1370244,13.4415619 L34.1233714,12.8564575 L34.7087804,11.8431092 L35.7221287,12.4282135 L35.1370244,13.4415619 Z M33.110023,12.2713532 L32.0966747,11.6862488 L32.6817791,10.6725959 L33.6951274,11.2577002 L33.110023,12.2713532 Z M31.0830218,11.1011445 L26.5550877,8.48660217 L27.140192,7.47325379 L31.6681261,10.0874915 L31.0830218,11.1011445 Z" id="Shape" fill="#88816C"></path>
            </g>
        </g>
    </g>
</svg>