<?xml version="1.0" encoding="UTF-8"?>
<svg width="71px" height="42px" viewBox="0 0 71 42" version="1.1" xmlns="http://www.w3.org/2000/svg" xmlns:xlink="http://www.w3.org/1999/xlink">
    <!-- Generator: sketchtool 58 (101010) - https://sketch.com -->
    <title>D0FBD522-0812-42F0-9555-DBAF4D8D87E6</title>
    <desc>Created with sketchtool.</desc>
    <g id="Page-1" stroke="none" stroke-width="1" fill="none" fill-rule="evenodd">
        <g id="Home-page" transform="translate(-1236.000000, -504.000000)" stroke="#FFFFFF">
            <g id="Group-254" transform="translate(1148.000000, 477.000000)">
                <g id="Group-230" transform="translate(89.000000, 28.000000)">
                    <g id="Group-11-Copy-2" stroke-width="1.25">
                        <path d="M43.3497537,18.279519 C43.3497537,25.6999312 39.8729412,32.3071662 34.4603458,36.559038 C29.0463938,32.3085238 25.5695813,25.6999312 25.5695813,18.279519 C25.5695813,10.8591067 29.0463938,4.25051422 34.4603458,0 C39.8729412,4.25187178 43.3497537,10.8591067 43.3497537,18.279519 Z" id="Stroke-1"></path>
                        <path d="M52.1771696,26.6843185 C47.9118592,32.7649446 41.2577191,36.182725 34.3672673,36.559038 C32.3627673,29.9672455 33.3051571,22.5554681 37.5704676,16.4747063 C41.835642,10.3940802 48.4905983,6.97521336 55.3814582,6.60093741 C57.3839176,13.1930015 56.4424801,20.6038282 52.1771696,26.6843185 Z" id="Stroke-3"></path>
                        <path d="M54.6069667,38.5420739 C47.6299252,41.070883 40.2266245,40.06477 34.375,36.4421952 C36.5172993,29.9207218 41.5404486,24.4106368 48.5176258,21.881963 C55.4946673,19.3531538 62.8991905,20.3587258 68.75,23.9831943 C66.6057989,30.5038561 61.5840081,36.0134 54.6069667,38.5420739 Z" id="Stroke-5"></path>
                        <path d="M31.1796327,16.4755211 C35.4449431,22.5561472 36.3863806,29.9668381 34.3839213,36.559038 C27.4930614,36.1846262 20.8381051,32.7657594 16.5729307,26.6851333 C12.3076202,20.6045072 11.3652304,13.1927299 13.3697304,6.60093741 C20.2601822,6.97711461 26.9143222,10.394895 31.1796327,16.4755211 Z" id="Stroke-7"></path>
                        <path d="M20.2319667,21.8817937 C27.2090081,24.410611 32.2307989,29.9201725 34.375,36.4408552 C28.5241905,40.0652001 21.1196673,41.0707752 14.14249,38.5420933 C7.16544857,36.0132761 2.14243516,30.5033087 0,23.9818145 C5.85148868,20.359228 13.2547894,19.3531118 20.2319667,21.8817937 Z" id="Stroke-9"></path>
                    </g>
                    <path d="M34.5,14 L34.5,8" id="Path-13"></path>
                    <path d="M48,17 L51.5100943,12.1338683" id="Path-13-Copy"></path>
                    <path d="M16.817895,16 L20.3279893,11.1338683" id="Path-13-Copy-2" transform="translate(18.572942, 13.566934) scale(-1, 1) translate(-18.572942, -13.566934) "></path>
                    <path d="M4.46707073,29 L9.79550379,26.2417757" id="Path-13-Copy-3" transform="translate(7.131287, 27.620888) scale(-1, 1) translate(-7.131287, -27.620888) "></path>
                    <path d="M58,29 L63.3284331,26.2417757" id="Path-13-Copy-4"></path>
                </g>
            </g>
        </g>
    </g>
</svg>