<?xml version="1.0" encoding="UTF-8"?>
<svg width="40px" height="39px" viewBox="0 0 40 39" version="1.1" xmlns="http://www.w3.org/2000/svg" xmlns:xlink="http://www.w3.org/1999/xlink">
    <!-- Generator: Sketch 58 (84663) - https://sketch.com -->
    <title>Group 5 Copy</title>
    <desc>Created with Sketch.</desc>
    <g id="Page-1" stroke="none" stroke-width="1" fill="none" fill-rule="evenodd">
        <g id="Group-5-Copy" transform="translate(0.000000, -1.000000)">
            <rect id="Rectangle" stroke="#979797" stroke-width="1.25" fill="#D8D8D8" opacity="0" x="0.625" y="0.625" width="38.753684" height="38.75"></rect>
            <g id="lotus" transform="translate(0.000000, 1.000000)" fill="#88816C" fill-rule="nonzero">
                <path d="M19.9610136,2.56731236 C19.5303362,2.56731236 19.1812865,2.21826269 19.1812865,1.78758526 L19.1812865,0.779727096 C19.1812865,0.349049669 19.5303362,0 19.9610136,0 C20.3913864,0 20.7407407,0.349049669 20.7407407,0.779727096 L20.7407407,1.78758526 C20.7407407,2.21826269 20.3916911,2.56731236 19.9610136,2.56731236 Z" id="Path"></path>
                <path d="M27.0476974,7.90174222 C26.8481969,7.90174222 26.6486964,7.8252924 26.4964059,7.67300195 C26.191825,7.36872561 26.1921296,6.875 26.4964059,6.5704191 L27.8125,5.25462963 C28.1170809,4.95035329 28.6108065,4.95035329 28.9153874,5.25493419 C29.2196638,5.55951509 29.2196638,6.0532407 28.9150829,6.35751704 L27.5989888,7.67330651 C27.4466983,7.82559696 27.2471978,7.90174222 27.0476974,7.90174222 L27.0476974,7.90174222 Z" id="Path"></path>
                <path d="M12.8743299,7.90174222 C12.6745248,7.90174222 12.4750244,7.82559696 12.3230385,7.67330651 L11.0069444,6.35751704 C10.7023635,6.0532407 10.7023635,5.55951509 11.0069444,5.25493419 C11.3115253,4.95035329 11.805251,4.95035329 12.1095273,5.25462963 L13.4256214,6.5704191 C13.7302023,6.875 13.7302023,7.36872561 13.4256214,7.67300195 C13.2733309,7.8252924 13.0738304,7.90174222 12.8743299,7.90174222 Z" id="Path"></path>
                <path d="M36.8999757,7.51157411 C36.7004752,7.51157411 36.5009747,7.43542885 36.3486842,7.2831384 C36.0441033,6.9785575 36.0441033,6.48483189 36.3486842,6.18025099 L36.8890107,5.63992444 C37.1935916,5.33564819 37.6873173,5.33564819 37.9918982,5.64022908 C38.2964791,5.94450534 38.2964791,6.43823096 37.9918982,6.74281185 L37.4512671,7.2831384 C37.2989766,7.43542885 37.0994761,7.51157411 36.8999757,7.51157411 Z" id="Path"></path>
                <path d="M3.26084304,7.51157411 C3.06103797,7.51157411 2.86184211,7.43542885 2.70955166,7.2831384 L2.16892055,6.74281185 C1.86433965,6.43823096 1.86433965,5.94480998 2.16892055,5.64022908 C2.47319688,5.33564819 2.9669225,5.33564819 3.27150339,5.63992444 L3.8121345,6.18025099 C4.1167154,6.48483189 4.1167154,6.97825294 3.8121345,7.2831384 C3.65984405,7.43542885 3.46034355,7.51157411 3.26084304,7.51157411 Z" id="Path"></path>
                <path d="M35.7961745,25.2750366 L35.7952607,25.2750366 C35.364888,25.2750366 35.0161428,25.6240862 35.0161428,26.0547637 C35.0161428,26.485441 35.3654971,26.8344908 35.7961745,26.8344908 C36.2268519,26.8344908 36.5759016,26.485441 36.5759016,26.0547637 C36.5759016,25.6240862 36.2268519,25.2750366 35.7961745,25.2750366 Z" id="Path"></path>
                <path d="M39.764559,16.5698099 C39.6393762,16.4044225 39.4538865,16.2953825 39.2482943,16.2673611 L37.96875,16.0919225 C37.962963,16.0910088 37.9571759,16.0903996 37.9510843,16.0897904 C37.1491228,15.9981116 36.3483796,15.9594299 35.5534235,15.9725268 C36.1245127,13.7947734 36.2302023,11.6965156 35.8893762,9.43743906 L35.7261209,8.35313107 C35.6618543,7.92732702 35.2649854,7.63432016 34.8388767,7.69828218 L33.6187256,7.88163984 C33.6132432,7.88255361 33.6074561,7.88346737 33.6016691,7.88438113 C30.8278509,8.36531431 28.262366,9.47612086 26.0760843,11.1117202 C24.715826,7.27613302 22.1737938,5.24366472 21.0386208,4.33601365 C20.8573952,4.19103314 20.6320054,4.01102581 20.574135,3.94645466 C20.427327,3.76005115 20.20346,3.65040203 19.9655824,3.64886715 C19.744152,3.64766082 19.5358187,3.73933965 19.3877924,3.8998538 C19.3558114,3.92848437 19.2784479,3.99183719 19.2096126,4.04848928 C16.7233187,6.08979041 14.9524854,8.48440546 13.9345761,11.1784235 C11.7294104,9.50657895 9.13163984,8.37171057 6.32035821,7.88468569 C6.31487571,7.88346737 6.30908865,7.88285817 6.30330168,7.88194448 L5.08315057,7.69828218 C4.65795563,7.63432016 4.26017302,7.92732702 4.19621099,8.35313107 L4.03265107,9.43743906 C3.6960892,11.6694079 3.7990375,13.8163986 4.3494152,15.9722222 C3.56055064,15.960039 2.7665083,15.9990253 1.970943,16.0897904 C1.96515595,16.0903996 1.95906433,16.0910088 1.95327727,16.0919225 L0.673732943,16.2673611 C0.46844538,16.2956872 0.282651072,16.4044225 0.157468304,16.5701145 C0.0325901754,16.7355019 -0.0213207018,16.9438353 0.00761451852,17.1491228 L0.170869864,18.302266 C0.843079922,23.055251 3.30409357,27.279788 7.1000853,30.1979775 C9.31895712,31.9042398 11.8615984,33.0570784 14.5449561,33.6041057 C14.5498294,33.6092836 14.5547027,33.6144615 14.559576,33.6196394 L19.3890107,38.6135478 C19.5358187,38.7655336 19.7380604,38.8511209 19.9494395,38.8511209 L19.9500487,38.8511209 C20.1617325,38.8511209 20.3642788,38.7646199 20.5110868,38.6123294 L25.3137184,33.6272539 C25.3170687,33.6235989 25.3204191,33.6202486 25.3237695,33.6165935 C28.0244883,33.0753533 30.583577,31.9194688 32.8216374,30.1979775 C33.348867,29.792885 33.8584308,29.3555068 34.3360136,28.8977217 C34.6469907,28.6001462 34.6576511,28.1064206 34.3600756,27.7954434 C34.0618908,27.4841618 33.5684698,27.473806 33.2574927,27.7716862 C32.8204191,28.1901803 32.3538012,28.5907042 31.8710405,28.9616837 C28.9385356,31.2171053 25.4041789,32.4104532 21.7473806,32.4104532 L27.1131822,27.7284357 C27.4378655,27.44548 27.4713694,26.9529727 27.1884137,26.6282894 C26.9051535,26.3039108 26.4123416,26.2704069 26.0882675,26.5533626 L20.7285575,31.2298977 C21.6739766,26.1973075 23.3181043,22.8338207 25.7312987,20.9783138 C29.1727583,18.3333333 33.4463329,17.1472953 37.7658991,17.6382798 L38.260843,17.7058967 L38.2072368,18.0838816 C37.9717958,19.7490253 37.4948221,21.355385 36.7894128,22.8584917 C36.6063596,23.2483552 36.7741837,23.7125365 37.1640473,23.8955897 C37.5542154,24.0786428 38.0183967,23.9108187 38.2011453,23.5209552 C38.9726487,21.8771321 39.4940912,20.1212232 39.751462,18.302266 L39.9147173,17.1491228 C39.943348,16.9438353 39.8894371,16.7355019 39.764559,16.5698099 L39.764559,16.5698099 Z M19.9497442,5.4620492 C19.9865984,5.49159361 20.0249756,5.52205162 20.0648757,5.55403267 C21.2353801,6.49000975 23.6348685,8.40856483 24.7864888,12.178058 C23.9507188,12.9401194 23.185307,13.787768 22.5030458,14.7143032 C21.3712232,16.2515229 20.5190058,17.9352461 19.9610136,19.7036428 C19.403326,17.9352461 18.5508041,16.2515229 17.4189815,14.7139985 C16.7568226,13.8154849 16.016691,12.9903752 15.2098562,12.2459796 C16.0614644,9.69145957 17.6538133,7.41197614 19.9497442,5.4620492 L19.9497442,5.4620492 Z M5.57443961,9.66983431 L5.62164959,9.35611602 L6.06237817,9.42251462 C10.1461988,10.1324927 13.7329435,12.340095 16.1631945,15.6387061 C18.2641935,18.4923245 19.305251,21.9005848 19.1687988,25.3877315 C18.1542398,22.8983918 16.8195663,21.0322246 15.141021,19.7417154 C12.4515716,17.6745248 9.29733185,16.4220882 5.99232452,16.0715156 C5.38103072,13.9558967 5.24457848,11.8579435 5.57443961,9.66983431 Z M1.71509505,18.0838816 L1.66148881,17.7058967 L2.15643275,17.6379751 C6.47599906,17.1475999 10.7495736,18.3333333 14.1907286,20.9780093 C16.6008772,22.8310795 18.2297758,26.1370005 19.1681896,31.0815668 C19.1614888,31.1178119 19.1550926,31.154057 19.1483918,31.1903021 L13.8340643,26.5533626 C13.5096857,26.2704069 13.0171783,26.3039108 12.7339181,26.6282894 C12.4506579,26.9529727 12.4844664,27.44548 12.8088451,27.7284357 L18.1743421,32.4101486 C14.518153,32.4089303 10.9761818,31.2116228 8.05068226,28.9613792 C4.57967836,26.2935551 2.32973926,22.430251 1.71509505,18.0838816 L1.71509505,18.0838816 Z M22.8493543,33.9370127 L19.9482213,36.9487086 L17.0327729,33.9336623 C17.413499,33.9577241 17.7957481,33.9696028 18.1792154,33.9696028 C18.7707115,33.9696028 19.365558,33.9409722 19.9607091,33.8834065 C20.558906,33.9412768 21.1558845,33.970212 21.7501218,33.970212 C22.117751,33.970212 22.4844664,33.9589425 22.8493543,33.9370127 Z M24.7803972,19.7417154 C23.1152534,21.0221735 21.7613913,22.9200171 20.7532285,25.3865131 C20.6170809,21.899671 21.6581384,18.49202 23.7588328,15.6387061 C26.1887793,12.340095 29.7758285,10.1324927 33.8596491,9.42251462 L34.3000731,9.35611602 L34.3475877,9.66983431 C34.6814083,11.8823099 34.5413012,13.9248295 33.90625,16.0742568 C30.6097709,16.4281798 27.4640594,17.6793981 24.7803972,19.7417154 Z" id="Shape"></path>
            </g>
        </g>
    </g>
</svg>