<svg xmlns="http://www.w3.org/2000/svg" xmlns:xlink="http://www.w3.org/1999/xlink" width="301" height="217" viewBox="0 0 301 217">
    <defs>
        <circle id="prefix__a" cx="200" cy="200" r="200"/>
    </defs>
    <g fill="none" fill-rule="evenodd" transform="translate(1 1)">
        <mask id="prefix__b" fill="#fff">
            <use xlink:href="#prefix__a"/>
        </mask>
        <use fill="#D8D8D8" fill-opacity="0" stroke="#678189" stroke-dasharray="9.183 4.592" stroke-linecap="round" stroke-linejoin="round" stroke-width=".919" xlink:href="#prefix__a"/>
        <g mask="url(#prefix__b)" opacity=".2">
            <g fill="#678189" fill-rule="nonzero" opacity=".6">
                <path d="M518.09 239.49c.055-.172.038-.36-.045-.52-.084-.16-.228-.28-.4-.334-3.164-.617-6.414-.643-9.587-.074.572-3.172.543-6.424-.086-9.585-.086-.36-.444-.585-.805-.508-3.053 1.037-5.885 2.635-8.348 4.713-1.094-3.029-2.745-5.827-4.868-8.25-.277-.264-.713-.264-.99 0-2.123 2.423-3.774 5.221-4.868 8.25-2.463-2.078-5.295-3.676-8.348-4.713-.17-.053-.356-.037-.514.047-.158.084-.276.227-.328.399-.63 3.161-.659 6.413-.086 9.585-3.173-.568-6.424-.543-9.587.074-.365.086-.593.451-.508.817.1.334 2.601 8.225 9.24 12.195-1.625.79-3.186 1.704-4.67 2.733-.3.218-.372.636-.16.94.047.06.101.114.16.161.273.198 6.9 4.948 12.522 4.948 2.647.055 5.269-.512 7.654-1.658 2.38 1.147 5 1.715 7.642 1.658 5.623 0 12.25-4.725 12.522-4.948.303-.221.374-.643.16-.952-.044-.059-.098-.11-.16-.149-1.482-1.032-3.044-1.946-4.67-2.733 6.478-3.871 9.03-11.762 9.128-12.096zm-11.32-9.437c.347 2.152 1.003 8.484-2.006 13.68-2.24 3.488-5.464 6.237-9.264 7.903 2.652-3.574 4.167-7.862 4.347-12.307-.004-1.584-.22-3.16-.644-4.688 2.231-1.963 4.793-3.517 7.567-4.588zm-13.376-3.575c1.362 1.695 5.103 6.852 5.103 12.85 0 6-3.716 11.133-5.103 12.84-1.375-1.695-5.115-6.853-5.115-12.84 0-5.985 3.703-11.192 5.078-12.887l.037.037zm-13.426 3.575c2.774 1.071 5.336 2.625 7.568 4.588-.424 1.523-.64 3.095-.644 4.676.177 4.445 1.692 8.734 4.347 12.306-3.804-1.679-7.021-4.452-9.24-7.965-3.034-5.158-2.377-11.49-2.03-13.605zm-9.809 9.795c2.943-.471 5.947-.408 8.868.186.39 1.533.985 3.006 1.771 4.378 2.373 3.76 5.826 6.717 9.908 8.485-4.123.463-8.292-.307-11.976-2.214-5.177-3.03-7.79-8.843-8.57-10.872v.037zm30.84 19.27c-2.537.074-5.052-.496-7.308-1.657-.21-.124-.47-.124-.68 0-2.257 1.161-4.771 1.731-7.308 1.657-4.1 0-9.004-2.881-10.912-4.118 1.452-.935 2.972-1.762 4.546-2.474 2.854 1.272 5.953 1.905 9.078 1.855 1.662.003 3.32-.15 4.954-.457 1.633.308 3.292.462 4.954.457 3.126.05 6.224-.583 9.079-1.855 1.574.712 3.093 1.539 4.545 2.474-1.944 1.2-6.849 4.081-10.948 4.081v.037zm6.948-8.435c-3.685 1.907-7.853 2.677-11.977 2.214 4.083-1.768 7.536-4.725 9.908-8.485.786-1.372 1.382-2.845 1.772-4.378 2.92-.594 5.924-.657 8.867-.186-.755 1.992-3.368 7.805-8.508 10.798l-.062.037zM558.095 226.948v1.781c-.037.281.093.558.332.71.24.153.546.153.785 0 .24-.152.369-.429.332-.71v-1.595h3.926c.282.037.559-.093.711-.332.153-.239.153-.545 0-.784-.152-.239-.43-.368-.71-.331h-4.682v-4.65h7.022v16.313c.007.4.33.723.73.73.4-.007.72-.332.72-.73v-16.413h3.207v17.86c-.037.281.092.558.332.71.24.153.545.153.785 0 .24-.152.369-.429.332-.71v-11.663h6.304v13.21c0 .402.327.729.73.729.194 0 .378-.077.513-.215.135-.137.21-.322.206-.515v-13.395c.48-.262.78-.764.78-1.31v-4.651c0-.827-.67-1.497-1.498-1.497h-6.193l3.654-2.61c.55-.387.9-.999.954-1.67.053-.664-.187-1.32-.657-1.793l-1.82-1.78c-.472-.48-1.131-.724-1.801-.669-.67.055-1.28.404-1.667.953l-2.552 3.562-2.551-3.562c-.394-.544-1.003-.891-1.672-.953-.668-.053-1.326.191-1.796.668l-1.796 1.793c-.47.473-.71 1.128-.655 1.791.055.664.399 1.271.94 1.66l3.641 2.61h-6.192c-.83 0-1.505.668-1.511 1.497v4.65c.006.545.303 1.045.78 1.311h.037zm10.032-9.115h1.548c.459 0 .83.37.83.828v.829h-3.208v-.829c0-.457.372-.828.83-.828zm10.912 3.154v4.65h-7.035v-4.75h7.035v.1zm-6.404-8.25c.141-.192.358-.313.594-.335.237-.02.472.06.645.224l1.796 1.805c.167.171.251.406.23.644-.022.238-.147.455-.342.593l-3.653 2.61c-.155-.981-.925-1.75-1.908-1.905l2.638-3.636zm-10.763 2.337c-.014-.24.076-.474.248-.643l1.796-1.805c.171-.168.407-.251.645-.23.238.021.455.146.594.34l2.613 3.65c-.98.157-1.75.925-1.907 1.904l-3.716-2.61c-.197-.143-.323-.363-.347-.606h.074z" transform="translate(-267 -57)"/>
                <path d="M592.229 248.148h-9.314l3.654-2.598c.544-.39.889-1.002.941-1.67.059-.665-.182-1.322-.656-1.793l-1.796-1.793c-.47-.477-1.13-.718-1.796-.656-.669.052-1.28.396-1.672.94l-2.551 3.575-2.552-3.575c-.391-.544-1.003-.888-1.672-.94-.667-.065-1.328.176-1.796.656l-1.845 1.793c-.475.471-.715 1.128-.657 1.794.053.667.397 1.278.942 1.67l3.641 2.597h-8.57v-1.064c.473-.267.766-.768.767-1.311v-4.589c0-.397-.158-.777-.439-1.058-.28-.28-.662-.438-1.06-.438h-6.192l3.641-2.598c.545-.39.89-1.002.942-1.67.058-.665-.182-1.322-.657-1.793l-1.796-1.793c-.471-.474-1.13-.714-1.796-.656-.668.052-1.28.396-1.672.94l-2.551 3.575-2.551-3.575c-.393-.541-1.002-.884-1.669-.939-.667-.054-1.324.185-1.8.655l-1.795 1.793c-.475.471-.715 1.128-.657 1.794.053.667.397 1.278.942 1.67l3.653 2.597h-6.192c-.828 0-1.499.67-1.499 1.496v4.65c.001.544.294 1.045.768 1.312v11.861c.007.829.681 1.497 1.511 1.497h18.578c.825-.007 1.492-.673 1.499-1.497v-4.7h7.022c.282.037.559-.092.711-.331.153-.24.153-.545 0-.784-.152-.24-.43-.369-.71-.332h-7.023v-3.265h9.4v9.4h-7.022c-.282-.037-.56.092-.712.331-.152.24-.152.545 0 .784.153.24.43.369.712.332h22.491c.828 0 1.499-.67 1.499-1.497v-4.947c.476-.266.774-.766.78-1.311v-3.105c0-.826-.67-1.496-1.498-1.496l.074.062zm-26.38-6.964v4.65h-7.06v-4.749h7.022l.037.1zm-10.912-3.141h1.56c.452 0 .818.365.818.816v.829h-3.196v-.83c-.017-.226.061-.45.217-.617.155-.166.373-.26.6-.26v.062zm2.378 3.092v17.86h-3.196v-17.922l3.196.062zm2.142-8.176c.115-.223.324-.382.57-.433.244-.015.483.075.656.248l1.796 1.793c.173.173.263.412.248.656-.024.238-.15.455-.347.593l-3.715 2.61c-.147-.978-.916-1.746-1.895-1.892l2.687-3.575zm-10.763 2.35c-.025-.243.062-.484.236-.655l1.796-1.794c.169-.168.404-.254.642-.235.238.019.456.141.596.334l2.614 3.71c-.985.142-1.76.911-1.908 1.893l-3.715-2.61c-.202-.175-.3-.44-.26-.705v.062zm-2.29 23.636V247.27h3.925c.364-.047.636-.357.636-.723s-.272-.676-.636-.724h-4.657v-4.638h7.035v17.81h-6.304v-.049zm18.713 0h-6.328V247.22h6.304l.024 11.725zm27.112-9.3v3.104h-10.144v-3.154h10.144v.05zm-14.862-1.497v-.78c0-.452.363-.822.817-.828h1.56c.454.006.818.376.818.828v.83l-3.195-.05zm5.325-6.729c.14-.193.358-.315.597-.334.238-.02.472.067.642.235l1.796 1.794c.172.167.258.404.235.643-.01.243-.134.467-.334.606l-3.716 2.61c-.155-.981-.925-1.75-1.907-1.905l2.687-3.649zm-10.763 2.338c-.013-.24.077-.474.248-.643l1.796-1.794c.173-.172.412-.262.656-.247.24.024.456.15.595.346l2.613 3.649c-.977.16-1.742.927-1.895 1.905l-3.715-2.61c-.172-.155-.27-.375-.273-.606h-.025zm5.438 5.838h3.195v9.4h-3.195v-9.4zm14.007 9.4h-9.363v-4.75h9.413v4.7l-.05.05zM290.2 285.71c.054-.17.038-.355-.046-.513-.084-.158-.228-.276-.4-.328-3.161-.628-6.413-.657-9.586-.086.572-3.168.543-6.416-.086-9.573-.08-.365-.44-.596-.805-.52-3.052 1.045-5.883 2.647-8.348 4.725-1.095-3.032-2.746-5.834-4.868-8.262-.274-.27-.716-.27-.99 0-2.122 2.428-3.773 5.23-4.868 8.262-2.465-2.078-5.296-3.68-8.347-4.725-.359-.097-.73.105-.843.458-.63 3.161-.659 6.413-.086 9.585-3.173-.57-6.425-.541-9.587.087-.174.038-.326.145-.422.296-.095.151-.126.334-.085.508.099.334 2.6 8.225 9.239 12.195-1.624.79-3.185 1.704-4.67 2.734-.3.217-.372.635-.16.94.047.06.101.113.16.16.273.198 6.9 4.948 12.522 4.948 2.647.056 5.269-.512 7.654-1.658 2.381 1.147 5 1.715 7.642 1.658 5.623 0 12.25-4.725 12.522-4.948.301-.217.373-.635.16-.94-.047-.06-.1-.113-.16-.16-1.482-1.033-3.044-1.947-4.67-2.734 6.478-3.933 9.03-11.824 9.128-12.108zm-11.32-9.51c.347 2.151 1.003 8.484-2.006 13.679-2.236 3.49-5.461 6.236-9.264 7.89 2.655-3.572 4.17-7.86 4.347-12.306-.003-1.58-.22-3.153-.644-4.675 2.228-1.968 4.791-3.522 7.567-4.589zm-13.376-3.588c1.363 1.695 5.103 6.852 5.103 12.851 0 5.999-3.716 11.132-5.103 12.85-1.375-1.694-5.115-6.851-5.115-12.85s3.703-11.156 5.078-12.85h.037zm-13.388 3.587c2.776 1.067 5.339 2.621 7.567 4.589-.424 1.522-.641 3.095-.644 4.675.177 4.446 1.692 8.734 4.347 12.307-3.803-1.655-7.028-4.402-9.264-7.891-3.047-5.195-2.39-11.59-2.044-13.68h.038zm-9.81 9.784c2.944-.459 5.946-.396 8.868.185.39 1.533.985 3.006 1.771 4.379 2.373 3.76 5.826 6.716 9.909 8.484-4.123.469-8.292-.298-11.977-2.201-5.214-3.006-7.827-8.819-8.608-10.847h.037zm30.84 19.282c-2.539.076-5.055-.499-7.307-1.67-.21-.124-.472-.124-.682 0-2.253 1.171-4.768 1.746-7.307 1.67-4.1 0-9.004-2.894-10.911-4.131 1.449-.94 2.968-1.767 4.545-2.474 2.857 1.262 5.954 1.891 9.078 1.843 1.663.01 3.322-.144 4.955-.457 1.632.314 3.291.468 4.954.457 3.124.048 6.22-.58 9.078-1.843 1.577.707 3.096 1.534 4.545 2.474-1.981 1.237-6.886 4.131-10.985 4.131h.037zm6.973-8.423c-3.685 1.904-7.854 2.67-11.977 2.202 4.083-1.768 7.536-4.725 9.908-8.485.786-1.373 1.382-2.846 1.772-4.378 2.922-.581 5.923-.644 8.867-.186-.817 2.016-3.43 7.83-8.57 10.847zM421.522 257.14c-2.736 0-4.954 2.214-4.954 4.947 0 2.732 2.218 4.947 4.954 4.947 2.736 0 4.954-2.215 4.954-4.947 0-2.733-2.218-4.948-4.954-4.948zm0 8.25c-1.339.004-2.548-.797-3.064-2.03-.516-1.234-.236-2.657.709-3.604.945-.947 2.368-1.232 3.605-.721 1.237.51 2.045 1.715 2.045 3.052 0 1.819-1.473 3.295-3.295 3.302zM424.817 267.863h-.186l-.174.086c-1.85.915-4.02.915-5.87 0l-.174-.086h-.198c-2.278 0-4.124 1.844-4.124 4.119v4.947c0 1.366 1.109 2.474 2.477 2.474h9.908c1.368 0 2.477-1.108 2.477-2.474v-4.947c-.007-2.277-1.857-4.12-4.136-4.12zm2.477 9.066c0 .453-.364.822-.818.829h-9.908c-.22 0-.431-.088-.587-.243-.156-.155-.243-.366-.243-.586v-4.947c-.003-1.302 1.004-2.383 2.304-2.474 2.209 1.014 4.751 1.014 6.96 0 1.295.097 2.295 1.177 2.292 2.474v4.947zM443.605 278.821c-.154-.155-.363-.243-.582-.243-.219 0-.429.088-.582.243l-1.164 1.163c-.691-7.22-5.282-13.485-11.965-16.326-.42-.174-.903.018-1.09.433-.172.423.026.906.446 1.088 5.992 2.549 10.157 8.11 10.912 14.57l-.93-.928c-.32-.32-.842-.32-1.163 0-.322.321-.322.842 0 1.163l2.477 2.474c.153.155.363.243.582.243.219 0 .428-.088.582-.243l2.477-2.474c.156-.153.244-.363.244-.581 0-.219-.088-.428-.244-.582zM414.883 264.276c.007-.045.007-.09 0-.136l-.086-.111-.087-.136-.16-.112h-.1l-3.32-1.57c-.423-.17-.905.034-1.077.457-.17.393 0 .85.384 1.04l1.71.79c-6.428 3.448-10.439 10.142-10.441 17.428-.04.318.108.63.38.801.27.171.616.171.887 0s.419-.483.38-.801c-.004-6.422 3.398-12.367 8.942-15.622l-.607 1.237c-.196.41-.024.901.384 1.101.113.05.236.075.36.074.315.007.606-.172.742-.457l1.66-3.451c.007-.058.007-.116 0-.173.007-.045.007-.091 0-.136.026-.072.043-.147.05-.223zM330.205 273.12v1.78c-.037.282.093.559.332.71.24.153.546.153.785 0 .24-.151.369-.428.332-.71v-1.558h3.926c.282.037.56-.092.712-.331.152-.24.152-.545 0-.784-.153-.24-.43-.369-.712-.332H330.9v-4.737h7.022v16.314c0 .403.327.73.73.73.194 0 .378-.078.513-.215s.21-.323.206-.515v-16.314h3.208v17.872c.048.364.358.635.725.635.366 0 .676-.271.724-.635v-11.688h6.304v13.222c.007.398.332.717.73.717.398 0 .72-.32.72-.717v-13.445c.482-.26.781-.763.78-1.31v-4.651c0-.827-.671-1.497-1.5-1.497h-6.192l3.654-2.597c.542-.392.885-1 .94-1.666.055-.666-.185-1.322-.655-1.797L347 257.807c-.478-.472-1.139-.712-1.809-.655-.666.049-1.275.394-1.66.94l-2.55 3.574-2.552-3.574c-.392-.544-1.003-.888-1.672-.94-.666-.059-1.324.182-1.796.655l-1.796 1.794c-.48.467-.722 1.127-.656 1.793.052.668.396 1.279.941 1.67l3.641 2.597H330.9c-.83 0-1.505.668-1.511 1.497v4.65c.003.546.302 1.048.78 1.311h.037zm10.032-9.104h1.548c.454 0 .823.364.83.817v.828h-3.208v-.828c.007-.453.377-.817.83-.817zm10.912 3.142v4.65h-7.035v-4.65h7.035zm-6.404-8.225c.14-.193.359-.315.597-.334.238-.02.473.067.642.235l1.796 1.793c.174.172.26.413.235.656-.013.242-.142.463-.347.594l-3.653 2.61c-.156-.979-.927-1.744-1.908-1.893l2.638-3.661zm-10.762 2.35c-.016-.244.075-.483.247-.656l1.796-1.793c.17-.17.404-.26.644-.247.244.02.466.147.607.346l2.613 3.71c-.978.153-1.748.917-1.907 1.893l-3.716-2.61c-.196-.138-.322-.355-.346-.594l.062-.05zM518.09 100.963c.055-.172.038-.359-.045-.519-.084-.16-.228-.28-.4-.334-3.164-.618-6.414-.643-9.587-.074.572-3.173.543-6.424-.086-9.586-.086-.359-.444-.584-.805-.507-3.053 1.036-5.885 2.635-8.348 4.713-1.094-3.029-2.745-5.827-4.868-8.25-.277-.264-.713-.264-.99 0-2.123 2.423-3.774 5.221-4.868 8.25-2.463-2.078-5.295-3.677-8.348-4.713-.17-.054-.356-.037-.514.047-.158.083-.276.227-.328.398-.63 3.162-.659 6.414-.086 9.586-3.173-.569-6.424-.544-9.587.074-.365.086-.593.451-.508.816.1.334 2.601 8.225 9.24 12.196-1.625.79-3.186 1.704-4.67 2.733-.3.217-.372.635-.16.94.047.06.101.114.16.16.273.199 6.9 4.948 12.522 4.948 2.647.056 5.269-.512 7.654-1.657 2.38 1.147 5 1.715 7.642 1.657 5.623 0 12.25-4.724 12.522-4.947.303-.222.374-.644.16-.952-.044-.06-.098-.11-.16-.149-1.482-1.032-3.044-1.946-4.67-2.733 6.478-3.872 9.03-11.763 9.128-12.097zm-11.32-9.437c.347 2.152 1.003 8.485-2.006 13.68-2.24 3.488-5.464 6.238-9.264 7.903 2.664-3.59 4.18-7.902 4.347-12.368-.004-1.584-.22-3.161-.644-4.688 2.236-1.942 4.798-3.474 7.567-4.527zm-13.376-3.574c1.362 1.694 5.103 6.852 5.103 12.85 0 6-3.716 11.132-5.103 12.84-1.375-1.695-5.115-6.853-5.115-12.84 0-5.986 3.703-11.193 5.078-12.887l.037.037zm-13.426 3.574c2.774 1.072 5.336 2.625 7.568 4.589-.424 1.523-.64 3.095-.644 4.675.165 4.467 1.68 8.779 4.347 12.369-3.813-1.696-7.03-4.491-9.24-8.027-3.034-5.158-2.377-11.49-2.03-13.606zm-9.809 9.796c2.943-.471 5.947-.409 8.868.186.38 1.518.964 2.978 1.734 4.34 2.372 3.76 5.826 6.718 9.908 8.486-4.123.463-8.292-.308-11.976-2.214-5.14-2.993-7.754-8.807-8.534-10.835v.037zm30.84 19.27c-2.537.074-5.052-.496-7.308-1.657-.21-.124-.47-.124-.68 0-2.257 1.16-4.771 1.731-7.308 1.657-4.1 0-9.004-2.882-10.912-4.119 1.452-.935 2.972-1.761 4.546-2.473 2.854 1.271 5.953 1.904 9.078 1.855 1.662.003 3.32-.15 4.954-.458 1.633.31 3.292.462 4.954.458 3.126.05 6.224-.584 9.079-1.855 1.574.712 3.093 1.538 4.545 2.473-1.944 1.2-6.849 4.082-10.948 4.082v.037zm7.01-8.472c-3.685 1.906-7.853 2.677-11.977 2.214 4.083-1.768 7.536-4.725 9.908-8.485.778-1.39 1.361-2.88 1.734-4.428 2.921-.594 5.925-.657 8.868-.185-.78 2.077-3.393 7.89-8.533 10.884zM558.095 88.422v1.78c-.037.282.093.559.332.711.24.153.546.153.785 0 .24-.152.369-.429.332-.71v-1.596h3.926c.282.037.559-.092.711-.331.153-.24.153-.545 0-.784-.152-.24-.43-.369-.71-.332h-4.682v-4.7h7.022v16.265c.007.4.33.723.73.73.4-.007.72-.332.72-.73V82.41h3.207v17.86c-.037.28.092.558.332.71.24.152.545.152.785 0s.369-.43.332-.71V88.607h6.304v13.21c0 .403.327.73.73.73.194 0 .378-.078.513-.215s.21-.323.206-.515V88.422c.48-.262.78-.765.78-1.311v-4.65c0-.827-.67-1.497-1.498-1.497h-6.193l3.654-2.61c.55-.387.9-1 .954-1.67.053-.665-.187-1.32-.657-1.793l-1.82-1.781c-.472-.478-1.131-.723-1.801-.668-.67.055-1.28.404-1.667.952l-2.552 3.562-2.551-3.562c-.394-.543-1.003-.89-1.672-.952-.668-.054-1.326.19-1.796.668l-1.796 1.793c-.47.473-.71 1.127-.655 1.791.055.664.399 1.27.94 1.66l3.641 2.61h-6.192c-.83 0-1.505.668-1.511 1.496v4.65c.006.546.303 1.046.78 1.312h.037zm10.032-9.116h1.548c.459 0 .83.371.83.829v.829h-3.208v-.829c0-.458.372-.829.83-.829zm10.912 3.154v4.65h-7.035v-4.7h7.035v.05zm-6.404-8.25c.141-.19.358-.313.594-.334.237-.021.472.06.645.223l1.796 1.806c.167.17.251.406.23.644-.022.238-.147.455-.342.593l-3.653 2.61c-.18-.945-.933-1.676-1.883-1.83l2.613-3.711zm-10.763 2.338c-.014-.24.076-.475.248-.643l1.796-1.806c.171-.167.407-.25.645-.23.238.022.455.147.594.342l2.625 3.71c-.98.158-1.749.926-1.907 1.905l-3.716-2.61c-.196-.143-.323-.364-.346-.606l.061-.062z" transform="translate(-267 -57)"/>
                <path d="M592.229 109.621h-9.314l3.654-2.597c.544-.391.889-1.002.941-1.67.059-.665-.182-1.322-.656-1.793l-1.796-1.794c-.47-.476-1.13-.717-1.796-.655-.669.052-1.28.396-1.672.94l-2.551 3.574-2.552-3.574c-.391-.544-1.003-.888-1.672-.94-.667-.066-1.328.175-1.796.655l-1.845 1.794c-.475.47-.715 1.128-.657 1.793.053.668.397 1.279.942 1.67l3.641 2.597h-8.57v-1.063c.473-.268.766-.768.767-1.311v-4.59c0-.826-.67-1.496-1.498-1.496h-6.193l3.641-2.597c.545-.391.89-1.002.942-1.67.058-.665-.182-1.322-.657-1.793l-1.796-1.794c-.471-.473-1.13-.714-1.796-.655-.668.052-1.28.396-1.672.94l-2.551 3.574-2.551-3.574c-.393-.541-1.002-.884-1.669-.939-.667-.055-1.324.184-1.8.654l-1.795 1.794c-.475.47-.715 1.128-.657 1.793.053.668.397 1.279.942 1.67l3.653 2.597h-6.192c-.4-.003-.784.153-1.068.434-.284.281-.443.664-.443 1.063v4.65c0 .544.294 1.044.768 1.311v11.862c.039.8.697 1.429 1.498 1.435h18.578c.825-.007 1.492-.673 1.499-1.497v-4.7h7.022c.282.037.56-.093.712-.332.152-.239.152-.544 0-.784-.153-.239-.43-.368-.712-.331h-7.022v-3.204h9.4v9.4h-7.022c-.282-.036-.559.093-.712.332-.152.24-.152.545 0 .784.153.24.43.368.712.332h22.492c.827 0 1.498-.67 1.498-1.497v-4.947c.477-.266.774-.766.78-1.311v-3.043c.002-.79-.61-1.444-1.4-1.497zm-26.38-6.963v4.65h-7.06v-4.761h7.022l.037.11zm-10.912-3.142h1.56c.452 0 .818.366.818.817v.828h-3.196v-.828c-.017-.227.061-.451.217-.618.155-.167.373-.261.6-.26v.061zm2.378 3.092v17.86h-3.196v-17.921l3.196.061zm2.142-8.175c.115-.223.324-.382.57-.433.244-.015.483.075.656.247l1.821 1.819c.173.173.263.411.248.655-.024.239-.15.455-.347.594l-3.716 2.61c-.146-.979-.915-1.746-1.895-1.893l2.663-3.6zm-10.763 2.35c-.025-.243.062-.484.236-.656l1.796-1.793c.169-.168.404-.254.642-.235.238.019.456.14.596.334l2.614 3.71c-.985.142-1.76.91-1.908 1.893l-3.715-2.61c-.202-.175-.3-.441-.26-.705v.062zm-2.29 23.636v-11.676h3.925c.364-.047.636-.357.636-.723 0-.367-.272-.676-.636-.724h-4.657v-4.638h7.035v17.81h-6.304v-.05zm18.713 0h-6.328v-11.676h6.304l.024 11.676zm27.112-9.301v3.104h-10.144v-3.154h10.144v.05zm-14.862-1.497v-.779c0-.453.363-.822.817-.829h1.56c.454.007.818.376.818.83v.828l-3.195-.05zm5.325-6.728c.14-.193.358-.315.597-.334.238-.02.472.067.642.235l1.796 1.793c.172.168.258.405.235.644-.01.243-.134.467-.334.606l-3.716 2.61c-.155-.982-.925-1.751-1.907-1.905l2.687-3.65zm-10.763 2.338c-.013-.24.077-.474.248-.644l1.796-1.793c.173-.173.412-.263.656-.247.24.024.456.15.595.346l2.613 3.71c-.977.16-1.742.928-1.895 1.905l-3.715-2.61c-.189-.169-.289-.415-.273-.667h-.025zm5.438 5.837h3.195v9.4h-3.195v-9.4zm14.007 9.4h-9.363v-4.75h9.413v4.7l-.05.05zM539.22 176.782c-.682-.004-1.352.17-1.945.507-5.367-6.873-6.343-16.2-2.513-24.032 3.829-7.833 11.794-12.8 20.521-12.801 1.527.003 3.05.156 4.546.457.522.1 1.028-.235 1.14-.754.05-.251 0-.512-.142-.725-.142-.214-.363-.362-.614-.413-1.63-.334-3.29-.5-4.954-.495-9.493 0-18.15 5.417-22.29 13.947-4.14 8.53-3.036 18.673 2.845 26.115-.446.666-.683 1.45-.681 2.25.005 1.085.452 2.121 1.238 2.87.759.768 1.794 1.2 2.873 1.2 1.08 0 2.115-.432 2.874-1.2.786-.749 1.233-1.785 1.238-2.87 0-2.24-1.818-4.056-4.062-4.056h-.074zm1.51 5.566c-.402.396-.945.618-1.51.618-.86.001-1.636-.518-1.962-1.313-.327-.796-.138-1.709.475-2.31.394-.403.936-.627 1.5-.62.566-.005 1.11.218 1.51.62.823.832.823 2.171 0 3.005h-.012zM574.716 147.926c1.182-1.78.779-4.171-.922-5.467-1.7-1.296-4.117-1.052-5.524.557-1.407 1.61-1.323 4.033.191 5.541.752.782 1.788 1.229 2.874 1.237.685.002 1.36-.173 1.957-.507 5.861 7.525 6.42 17.896 1.402 26.007-5.019 8.11-14.557 12.25-23.919 10.38-.338-.068-.688.05-.916.308-.229.258-.302.619-.192.946.11.327.386.57.724.64 10.183 2.043 20.561-2.473 25.994-11.313s4.767-20.126-1.669-28.267v-.062zm-4.88-.742c-.603-.608-.782-1.518-.455-2.308.327-.791 1.097-1.31 1.954-1.316.565 0 1.108.223 1.51.619.83.83.83 2.175 0 3.005-.399.401-.944.624-1.51.619-.563.007-1.105-.216-1.499-.619z" transform="translate(-267 -57)"/>
                <path d="M551.283 179.886c0 .533.433.965.966.965h6.057c.533 0 .966-.432.966-.965v-1.88c1.27-.335 2.49-.838 3.628-1.496l1.326 1.323c.181.184.429.287.687.287.258 0 .506-.103.687-.287l4.273-4.28c.375-.376.375-.984 0-1.36l-1.325-1.323c.656-1.14 1.163-2.357 1.511-3.624h1.87c.534 0 .966-.432.966-.965v-6.048c0-.533-.432-.965-.966-.965h-1.87c-.345-1.268-.853-2.486-1.51-3.624l1.312-1.323c.185-.178.288-.424.285-.68-.001-.256-.104-.5-.285-.68l-4.273-4.268c-.181-.183-.429-.287-.687-.287-.259 0-.506.104-.688.287l-1.313 1.311c-1.14-.657-2.359-1.164-3.628-1.509v-1.855c0-.533-.433-.965-.966-.965h-6.057c-.533 0-.966.432-.966.965v1.855c-1.269.347-2.488.855-3.629 1.51l-1.25-1.312c-.182-.183-.43-.287-.688-.287-.258 0-.506.104-.688.287l-4.272 4.267c-.182.18-.284.425-.285.68-.004.257.1.503.285.68l1.312 1.324c-.659 1.136-1.163 2.355-1.498 3.624h-1.87c-.534 0-.967.432-.967.965v6.036c0 .535.431.97.967.977h1.87c.338 1.268.842 2.487 1.498 3.624l-1.325 1.323c-.375.376-.375.984 0 1.36l4.285 4.28c.182.18.426.282.682.285.255-.005.498-.107.68-.285l1.326-1.323c1.139.656 2.359 1.159 3.629 1.496l-.062 1.88zm-3.245-5.417c-.392-.257-.912-.2-1.238.136l-1.177 1.237-2.935-2.969 1.176-1.236c.333-.33.385-.849.124-1.237-.869-1.35-1.485-2.846-1.82-4.416-.1-.447-.496-.766-.954-.767h-1.66v-4.106h1.66c.458 0 .855-.32.953-.767.338-1.569.954-3.064 1.821-4.415.271-.386.218-.912-.124-1.237l-1.164-1.237 2.91-2.907 1.165 1.175c.33.332.849.384 1.238.124 1.35-.874 2.849-1.494 4.422-1.83.446-.094.766-.485.768-.94v-1.658h4.112v1.658c-.004.452.312.845.755.94 1.576.338 3.078.959 4.434 1.83.387.27.913.218 1.239-.124l1.176-1.175 2.91 2.907-1.238 1.237c-.342.325-.395.85-.124 1.237.871 1.35 1.492 2.846 1.833 4.415.09.448.484.77.942.767h1.66v4.106h-1.66c-.456.002-.848.322-.942.767-.339 1.57-.96 3.066-1.833 4.416-.26.388-.208.907.124 1.237l1.239 1.236-2.91 2.907-1.177-1.237c-.322-.345-.85-.403-1.239-.136-1.353.877-2.856 1.497-4.434 1.83-.445.1-.76.497-.755.953v1.67h-4.112v-1.67c-.001-.458-.32-.854-.768-.952-1.562-.315-3.052-.915-4.397-1.77z" transform="translate(-267 -57)"/>
                <path d="M563.272 163.263c0-3.233-1.95-6.147-4.942-7.383-2.991-1.236-6.434-.55-8.72 1.738-2.288 2.287-2.97 5.726-1.727 8.711 1.242 2.986 4.163 4.93 7.4 4.924 4.414-.007 7.989-3.582 7.989-7.99zm-14.057 0c-.005-2.452 1.47-4.666 3.737-5.608 2.268-.942 4.88-.426 6.618 1.306 1.739 1.732 2.26 4.34 1.322 6.606-.94 2.266-3.153 3.744-5.609 3.744-3.346 0-6.061-2.706-6.068-6.048zM564.189 142.237c.39-.002.74-.237.888-.596.15-.36.067-.773-.207-1.05-.18-.182-.425-.285-.681-.285-.257 0-.502.103-.682.286-.274.276-.356.69-.207 1.049.148.36.499.594.889.596zM546.403 184.364c-.26-.001-.51.101-.693.284-.175.184-.273.427-.273.68.002.39.237.74.597.888.36.149.774.067 1.05-.207.18-.181.283-.425.285-.68-.005-.255-.106-.498-.285-.68-.18-.182-.425-.284-.68-.285zM504.355 159.293c-.533 0-.966.432-.966.965v3.45c-.007 1.977-1.613 3.575-3.592 3.575h-5.511c-.256.002-.5.104-.681.284l-6.688 6.68v-6.036c.003-.258-.097-.507-.279-.69-.182-.184-.43-.288-.688-.288h-13.859c-.951.004-1.865-.371-2.539-1.042-.674-.67-1.052-1.582-1.052-2.532v-14.57c0-.951.378-1.864 1.052-2.536.673-.673 1.587-1.05 2.54-1.05h27.705c1.984 0 3.592 1.605 3.592 3.586v3.438c0 .533.433.965.966.965.534 0 .966-.432.966-.965v-3.438c0-3.047-2.473-5.516-5.524-5.516h-27.706c-3.05 0-5.524 2.47-5.524 5.516v12.368h-7.034c-2.052 0-3.716 1.662-3.716 3.71v8.906c0 2.05 1.664 3.71 3.716 3.71h2.96l4.793 4.787c.18.181.425.284.681.285.127 0 .254-.026.372-.074.362-.148.597-.5.594-.891v-4.106h7.431c2.052 0 3.716-1.662 3.716-3.71v-4.948h4.83v7.42c0 .39.235.742.595.891.118.049.244.074.371.075.256-.001.501-.104.681-.285l8.05-8.04h5.116c3.05 0 5.524-2.47 5.524-5.516v-3.45c-.018-.491-.402-.89-.892-.928zm-26.145 14.842c0 .997-.81 1.806-1.809 1.806h-8.434c-.534 0-.966.432-.966.965v2.733l-3.43-3.414c-.18-.183-.426-.286-.682-.284h-3.356c-1 0-1.809-.809-1.809-1.806v-8.905c0-.998.81-1.806 1.809-1.806h7.034v.272c0 3.047 2.474 5.516 5.524 5.516h6.119v4.923z" transform="translate(-267 -57)"/>
                <path d="M495.376 149.905h-18.863c-.534 0-.966.432-.966.965 0 .533.432.965.966.965h18.863c.533 0 .966-.432.966-.965 0-.533-.433-.965-.966-.965zM496.354 156.09c0-.259-.103-.506-.287-.687-.184-.181-.433-.282-.691-.278h-18.863c-.534 0-.966.432-.966.964 0 .533.432.965.966.965h18.863c.258.004.507-.097.69-.278.185-.181.288-.429.288-.687zM476.513 160.344c-.534 0-.966.432-.966.965 0 .533.432.965.966.965H487.4c.533 0 .966-.432.966-.965 0-.533-.433-.965-.966-.965h-10.887zM504.355 155.434c-.533 0-.966.432-.966.965 0 .532.433.964.966.964.534 0 .966-.432.966-.964 0-.533-.432-.965-.966-.965zM290.2 147.184c.054-.17.038-.355-.046-.514-.084-.158-.228-.276-.4-.327-3.161-.628-6.413-.658-9.586-.086.572-3.169.543-6.416-.086-9.574-.08-.364-.44-.596-.805-.52-3.052 1.045-5.883 2.647-8.348 4.726-1.095-3.032-2.746-5.834-4.868-8.262-.274-.27-.716-.27-.99 0-2.122 2.428-3.773 5.23-4.868 8.262-2.465-2.079-5.296-3.68-8.347-4.725-.359-.097-.73.105-.843.458-.63 3.161-.659 6.413-.086 9.585-3.173-.571-6.425-.542-9.587.087-.174.038-.326.145-.422.296-.095.15-.126.334-.085.508.099.334 2.6 8.225 9.239 12.195-1.624.79-3.185 1.704-4.67 2.733-.3.217-.372.636-.16.94.047.06.101.114.16.161.273.198 6.9 4.947 12.522 4.947 2.647.056 5.269-.512 7.654-1.657 2.381 1.147 5 1.715 7.642 1.657 5.623 0 12.25-4.724 12.522-4.947.301-.217.373-.635.16-.94-.047-.06-.1-.113-.16-.16-1.482-1.033-3.044-1.947-4.67-2.734 6.478-3.933 9.03-11.824 9.128-12.109zm-11.32-9.511c.347 2.152 1.003 8.485-2.006 13.68-2.236 3.489-5.461 6.236-9.264 7.89 2.666-3.59 4.182-7.901 4.347-12.368-.003-1.58-.22-3.153-.644-4.675 2.233-1.946 4.796-3.48 7.567-4.527zm-13.376-3.587c1.363 1.695 5.103 6.852 5.103 12.85 0 6-3.716 11.132-5.103 12.852-1.375-1.695-5.115-6.852-5.115-12.851 0-5.999 3.703-11.156 5.078-12.85h.037zm-13.388 3.587c2.776 1.067 5.339 2.62 7.567 4.589-.424 1.522-.641 3.095-.644 4.675.165 4.466 1.68 8.779 4.347 12.368-3.803-1.655-7.028-4.401-9.264-7.89-3.047-5.257-2.39-11.652-2.044-13.742h.038zm-9.81 9.783c2.944-.458 5.946-.395 8.868.186.39 1.533.985 3.006 1.771 4.378 2.373 3.76 5.826 6.717 9.909 8.485-4.123.468-8.292-.298-11.977-2.202-5.214-3.005-7.827-8.818-8.608-10.847h.037zm30.84 19.283c-2.539.076-5.055-.5-7.307-1.67-.21-.124-.472-.124-.682 0-2.253 1.17-4.768 1.746-7.307 1.67-4.1 0-9.004-2.895-10.911-4.131 1.449-.94 2.968-1.767 4.545-2.474 2.857 1.262 5.954 1.89 9.078 1.843 1.663.009 3.322-.144 4.955-.458 1.632.315 3.291.468 4.954.458 3.124.048 6.22-.581 9.078-1.843 1.577.707 3.096 1.534 4.545 2.474-1.981 1.236-6.886 4.13-10.985 4.13h.037zm6.973-8.423c-3.685 1.904-7.854 2.67-11.977 2.201 4.083-1.768 7.536-4.725 9.908-8.484.786-1.373 1.382-2.846 1.772-4.379 2.922-.58 5.923-.644 8.867-.185-.817 2.016-3.43 7.829-8.57 10.847zM421.522 118.613c-2.736 0-4.954 2.215-4.954 4.948 0 2.732 2.218 4.947 4.954 4.947 2.736 0 4.954-2.215 4.954-4.947 0-2.733-2.218-4.948-4.954-4.948zm0 8.25c-1.339.005-2.548-.797-3.064-2.03-.516-1.234-.236-2.656.709-3.603.945-.947 2.368-1.232 3.605-.722s2.045 1.716 2.045 3.053c0 1.819-1.473 3.295-3.295 3.302zM424.817 129.337h-.186l-.174.086c-1.85.915-4.02.915-5.87 0l-.174-.086h-.198c-2.278 0-4.124 1.844-4.124 4.118v4.948c0 1.366 1.109 2.473 2.477 2.473h9.908c1.368 0 2.477-1.107 2.477-2.473v-4.948c-.007-2.276-1.857-4.118-4.136-4.118zm2.477 9.066c0 .453-.364.822-.818.828h-9.908c-.22 0-.431-.087-.587-.242-.156-.156-.243-.367-.243-.586v-4.948c-.003-1.301 1.004-2.382 2.304-2.473 2.209 1.013 4.751 1.013 6.96 0 1.295.097 2.295 1.176 2.292 2.473v4.948zM438.861 145.824c-2.736 0-4.954 2.215-4.954 4.947s2.218 4.947 4.954 4.947c2.737 0 4.955-2.215 4.955-4.947s-2.218-4.947-4.955-4.947zm0 8.25c-1.338.004-2.548-.797-3.064-2.03-.515-1.234-.235-2.657.71-3.604.944-.947 2.367-1.232 3.605-.721 1.237.51 2.044 1.715 2.044 3.052 0 1.82-1.473 3.296-3.295 3.302zM442.156 156.547h-.186l-.173.074c-1.847.929-4.024.929-5.87 0l-.174-.074h-.198c-2.278 0-4.125 1.844-4.125 4.119v4.947c0 1.366 1.11 2.474 2.477 2.474h9.909c1.368 0 2.477-1.108 2.477-2.474v-4.947c-.007-2.277-1.857-4.119-4.137-4.119zm2.477 9.066c0 .453-.364.822-.817.829h-9.909c-.458 0-.83-.371-.83-.829v-4.947c-.003-1.302 1.004-2.383 2.304-2.474 2.21 1.014 4.752 1.014 6.96 0 1.296.097 2.296 1.177 2.292 2.474v4.947zM404.183 145.824c-2.737 0-4.955 2.215-4.955 4.947s2.218 4.947 4.955 4.947c2.736 0 4.954-2.215 4.954-4.947s-2.218-4.947-4.954-4.947zm0 8.25c-1.34.004-2.549-.797-3.064-2.03-.516-1.234-.236-2.657.708-3.604.945-.947 2.369-1.232 3.606-.721 1.237.51 2.044 1.715 2.044 3.052 0 1.82-1.473 3.296-3.294 3.302zM407.477 156.547h-.186l-.173.074c-1.847.929-4.024.929-5.87 0l-.174-.074h-.198c-2.278 0-4.125 1.844-4.125 4.119v4.947c0 1.366 1.11 2.474 2.477 2.474h9.909c1.368 0 2.477-1.108 2.477-2.474v-4.947c-.007-2.277-1.857-4.119-4.137-4.119zm2.477 9.066c0 .453-.364.822-.817.829h-9.909c-.458 0-.83-.371-.83-.829v-4.947c-.003-1.302 1.004-2.383 2.304-2.474 2.21 1.014 4.752 1.014 6.96 0 1.296.097 2.296 1.177 2.292 2.474v4.947zM429.709 160.493c-.182-.413-.66-.606-1.078-.433-3.73 1.556-7.869 1.843-11.778.816l.768-.235c.392-.16.6-.59.483-.997-.118-.407-.524-.66-.942-.586l-3.306.977c-.077.03-.148.071-.211.124h-.087c-.177.155-.273.383-.26.618.023.113.052.224.087.334l1.66 3.154c.117.294.392.495.708.518.316.023.618-.135.778-.408.16-.273.15-.613-.025-.877l-.669-1.237c4.44 1.339 9.207 1.08 13.475-.73.385-.188.558-.642.397-1.038zM443.605 140.295c-.154-.156-.363-.243-.582-.243-.219 0-.429.087-.582.243l-1.164 1.163c-.691-7.22-5.282-13.485-11.965-16.327-.42-.173-.903.018-1.09.433-.172.424.026.907.446 1.089 5.992 2.549 10.157 8.11 10.912 14.57l-.93-.928c-.32-.321-.842-.321-1.163 0-.322.321-.322.842 0 1.163l2.477 2.473c.153.156.363.244.582.244.219 0 .428-.088.582-.244l2.477-2.473c.156-.154.244-.363.244-.582 0-.218-.088-.428-.244-.581zM414.883 125.75c.007-.045.007-.091 0-.136l-.086-.112-.087-.136-.16-.111h-.1l-3.32-1.57c-.423-.17-.905.034-1.077.457-.17.393 0 .85.384 1.039l1.71.791c-6.428 3.447-10.439 10.142-10.441 17.427-.04.318.108.63.38.802.27.171.616.171.887 0 .271-.172.419-.484.38-.802-.004-6.422 3.398-12.366 8.942-15.62l-.607 1.236c-.196.41-.024.9.384 1.1.113.05.236.075.36.075.315.006.606-.173.742-.458l1.66-3.45c.007-.058.007-.116 0-.174.007-.045.007-.09 0-.136.026-.071.043-.146.05-.222zM330.205 134.593v1.781c-.037.281.093.558.332.71.24.153.546.153.785 0 .24-.152.369-.429.332-.71v-1.558h3.926c.282.037.56-.093.712-.332.152-.239.152-.545 0-.784-.153-.239-.43-.368-.712-.331H330.9v-4.737h7.022v16.314c0 .403.327.73.73.73.194 0 .378-.078.513-.215s.21-.323.206-.515v-16.314h3.208v17.872c.048.363.358.635.725.635.366 0 .676-.272.724-.635v-11.688h6.304v13.222c.007.398.332.717.73.717.398 0 .72-.321.72-.717v-13.445c.482-.26.781-.764.78-1.31v-4.651c0-.827-.671-1.497-1.5-1.497h-6.192l3.654-2.597c.542-.392.885-1 .94-1.667.055-.665-.185-1.322-.655-1.797L347 119.281c-.478-.473-1.139-.712-1.809-.655-.666.049-1.275.394-1.66.94l-2.55 3.574-2.552-3.574c-.392-.544-1.003-.888-1.672-.94-.666-.059-1.324.181-1.796.655l-1.796 1.793c-.48.467-.722 1.128-.656 1.794.052.668.396 1.279.941 1.67l3.641 2.597H330.9c-.83 0-1.505.668-1.511 1.497v4.65c.003.546.302 1.047.78 1.311h.037zm10.032-9.103h1.548c.454 0 .823.363.83.816v.829h-3.208v-.829c.007-.453.377-.816.83-.816zm10.912 3.142v4.65h-7.035v-4.65h7.035zm-6.404-8.225c.14-.194.359-.316.597-.335.238-.019.473.067.642.236l1.796 1.793c.174.172.26.413.235.656-.013.242-.142.462-.347.593l-3.653 2.61c-.156-.978-.927-1.743-1.908-1.892l2.638-3.661zm-10.762 2.35c-.016-.244.075-.483.247-.656l1.796-1.793c.17-.17.404-.26.644-.248.244.02.466.148.607.347l2.613 3.71c-.978.153-1.748.916-1.907 1.892l-3.716-2.61c-.196-.138-.322-.354-.346-.593l.062-.05z" transform="translate(-267 -57)"/>
                <path d="M364.339 155.842h-9.314l3.654-2.597c.542-.392.885-1 .94-1.666.055-.666-.185-1.323-.655-1.797l-1.796-1.794c-.476-.47-1.133-.709-1.8-.654-.666.055-1.276.398-1.668.939l-2.551 3.574-2.552-3.574c-.391-.544-1.003-.888-1.672-.94-.666-.059-1.324.181-1.796.655l-1.845 1.744c-.47.475-.71 1.131-.655 1.797.055.666.398 1.275.94 1.666l3.641 2.598h-8.57v-1.064c.477-.263.772-.766.767-1.311v-4.65c0-.827-.67-1.497-1.498-1.497h-6.193l3.641-2.598c.547-.383.892-.992.942-1.657.057-.669-.183-1.33-.657-1.806l-1.796-1.793c-.475-.47-1.132-.71-1.8-.654-.666.054-1.275.397-1.668.938l-2.55 3.575-2.552-3.513c-.392-.544-1.004-.888-1.672-.94-.666-.05-1.32.19-1.796.656l-1.796 1.793c-.47.475-.71 1.131-.655 1.797.055.666.398 1.275.94 1.666l3.653 2.598h-6.192c-.828 0-1.499.67-1.499 1.496v4.54c-.004.544.29 1.047.768 1.31v11.862c-.01.402.141.792.42 1.082.28.29.663.457 1.066.464h18.578c.828 0 1.499-.67 1.499-1.497v-4.7h7.022c.282.037.56-.092.712-.331.152-.24.152-.545 0-.784-.153-.24-.43-.369-.712-.332h-7.022v-3.203h9.4v9.4h-7.022c-.282-.037-.559.092-.711.331-.153.24-.153.545 0 .784.152.24.43.369.71.332h22.493c.827 0 1.498-.67 1.498-1.497v-4.885c.477-.266.774-.766.78-1.311v-3.105c-.023-.77-.629-1.396-1.399-1.447zm-26.331-7.025v4.551h-7.11v-4.75h7.023l.087.199zm-10.912-3.142h1.56c.454.007.818.376.818.829v.816h-3.195v-.816c-.028-.453.314-.845.768-.878l.05.05zm2.378 3.092v17.922h-3.195v-17.971l3.195.05zm2.143-8.175c.136-.197.355-.32.594-.334.244-.025.485.061.657.235l1.746 1.744c.169.169.255.403.236.641-.02.238-.141.456-.335.596l-3.715 2.61c-.15-.98-.916-1.75-1.895-1.905l2.712-3.587zm-10.763 2.35c-.068-.243-.017-.505.136-.705l1.796-1.794c.173-.16.406-.241.641-.222.236.018.453.135.598.321l2.613 3.71c-.984.152-1.756.923-1.907 1.906l-3.716-2.61c-.165-.176-.242-.417-.21-.656l.05.05zm-2.34 23.648v-11.676h3.925c.364-.047.636-.357.636-.723s-.272-.676-.636-.724h-4.656v-4.65h7.034v17.922h-6.304v-.149zm18.714 0h-6.33v-11.725h6.305l.025 11.725zm27.111-9.3v3.104h-10.144v-3.204h10.144v.1zm-14.862-1.448v-.829c.006-.448.368-.81.817-.816h1.56c.45.007.811.368.818.816v.83h-3.195zm5.325-6.728c.145-.187.362-.303.598-.322.235-.019.468.062.64.223l1.797 1.793c.174.172.26.413.235.656-.01.24-.135.46-.334.593l-3.716 2.61c-.148-.982-.923-1.75-1.907-1.892l2.687-3.661zm-10.763 2.35c-.015-.244.075-.483.248-.656l1.796-1.793c.172-.174.413-.26.656-.235.24.014.459.137.595.334l2.613 3.71c-.98.147-1.748.915-1.895 1.893l-3.715-2.61c-.2-.173-.3-.431-.273-.693l-.025.05zm5.438 5.825h3.195v9.4h-3.195v-9.4zm14.007 9.4h-9.363v-4.75h9.413v4.7l-.05.05zM421.695 191.946c-8.437-8.428-21.693-9.65-31.533-2.907-.285.194-.445.526-.419.87.026.344.234.648.545.798.311.15.679.122.964-.073 9.69-6.708 22.902-4.939 30.479 4.082 7.576 9.022 7.022 22.322-1.28 30.683-8.302 8.36-21.616 9.027-30.713 1.536-9.097-7.49-10.98-20.669-4.344-30.4.235-.282.29-.672.142-1.007-.147-.335-.472-.558-.838-.575-.366-.018-.71.173-.89.493-7.406 10.78-5.134 25.454 5.187 33.497 10.32 8.043 25.127 6.677 33.798-3.118 8.67-9.795 8.211-24.637-1.048-33.88h-.05z" transform="translate(-267 -57)"/>
                <path d="M404.183 229.348c11.005-.014 19.92-8.923 19.928-19.914.003-2.215-.37-4.415-1.103-6.505-3.33-9.582-13.341-15.133-23.246-12.89-9.906 2.243-16.54 11.562-15.407 21.641 1.133 10.08 9.67 17.698 19.828 17.692v-.024zm17.995-19.914v1.373c-1.002.06-1.996.21-2.972.446.318-2.656-.07-5.348-1.127-7.805 1.115.198 2.23.408 3.332.643.543 1.73.818 3.531.817 5.343h-.05zm-6.477-6.345c1.475 2.694 1.97 5.815 1.4 8.832-4.45 1.801-7.833 5.53-9.19 10.13-2.428.7-5.004.7-7.432 0-1.362-4.6-4.75-8.33-9.202-10.13-.564-3.017-.07-6.136 1.4-8.832 7.644-1.088 15.404-1.088 23.049 0h-.025zm-26.505 8.164c-.97-.238-1.962-.387-2.96-.446v-1.373c.001-1.81.272-3.612.805-5.343 1.103-.235 2.217-.445 3.332-.643-1.067 2.455-1.473 5.145-1.177 7.805zm-2.7 1.484c7.14.573 12.643 6.526 12.646 13.68v.26c-6.502-1.908-11.386-7.291-12.646-13.94zm14.565 14.384v-.705c-.001-.766-.06-1.53-.173-2.288 2.15.478 4.378.478 6.527 0-.11.758-.163 1.523-.16 2.288v.705c-2.05.342-4.144.342-6.194 0zm8.15-.445v-.26c.01-7.155 5.516-13.106 12.658-13.68-1.27 6.649-6.156 12.03-12.658 13.94zm-5.028-35.238c7.032.009 13.417 4.105 16.348 10.489-10.797-2.144-21.912-2.144-32.71 0 2.94-6.379 9.33-10.465 16.362-10.464v-.025z" transform="translate(-267 -57)"/>
                <path d="M399.34 209.434c-.005 1.958 1.172 3.725 2.98 4.477 1.81.753 3.895.342 5.282-1.04 1.388-1.382 1.805-3.463 1.056-5.272-.749-1.809-2.516-2.988-4.475-2.988-2.67 0-4.836 2.157-4.843 4.823zm4.843-2.894c1.178 0 2.24.71 2.69 1.797.45 1.088.198 2.34-.637 3.17-.835.83-2.089 1.075-3.176.622-1.087-.454-1.793-1.518-1.788-2.695.003-.767.312-1.502.858-2.042.545-.54 1.284-.843 2.053-.84v-.012zM387.35 193.59c.255.004.5-.094.682-.272.38-.379.38-.993 0-1.372-.38-.38-.995-.38-1.375 0-.37.383-.37.99 0 1.372.188.177.436.274.694.273zM311.33 222.966c-.68-.003-1.349.168-1.945.494-5.37-6.87-6.347-16.198-2.517-24.03 3.83-7.831 11.798-12.796 20.526-12.79 1.526-.001 3.048.148 4.545.445.523.106 1.033-.232 1.14-.755.105-.522-.233-1.032-.756-1.138-1.631-.327-3.29-.493-4.954-.494-9.497-.004-18.16 5.415-22.301 13.95-4.142 8.534-3.032 18.682 2.856 26.123-.449.665-.686 1.45-.681 2.251 0 2.24 1.818 4.057 4.062 4.057s4.062-1.816 4.062-4.057c0-2.24-1.818-4.056-4.062-4.056h.025zm1.51 5.553c-.398.404-.942.631-1.51.63-1.171-.013-2.117-.957-2.13-2.127 0-1.175.953-2.127 2.13-2.127.566-.003 1.11.22 1.51.62.4.4.623.942.62 1.507.002.562-.221 1.1-.62 1.497zM346.826 194.11c1.07-1.61.858-3.75-.508-5.12-1.3-1.298-3.31-1.562-4.903-.644-1.592.918-2.368 2.789-1.892 4.562.475 1.774 2.084 3.007 3.922 3.008.683 0 1.356-.17 1.957-.495 5.867 7.523 6.43 17.897 1.409 26.007-5.021 8.111-14.564 12.247-23.926 10.369-.526-.099-1.033.243-1.14.766-.098.519.239 1.02.756 1.126 10.183 2.044 20.561-2.472 25.994-11.312s4.767-20.126-1.669-28.267zm-4.88-.754c-.406-.392-.634-.933-.631-1.497 0-1.175.953-2.127 2.13-2.127.565 0 1.108.222 1.511.618.6.613.777 1.525.448 2.317-.33.792-1.1 1.311-1.959 1.32-.565.002-1.106-.226-1.499-.631z" transform="translate(-267 -57)"/>
                <path d="M323.393 226.058c0 .532.433.964.966.964h6.057c.533 0 .966-.432.966-.964v-1.868c1.27-.345 2.489-.852 3.629-1.509l1.325 1.323c.181.184.429.287.687.287.258 0 .506-.103.688-.287l4.272-4.279c.375-.376.375-.984 0-1.36l-1.325-1.324c.658-1.138 1.166-2.356 1.511-3.624h1.87c.534 0 .967-.432.967-.965v-6.048c0-.533-.433-.965-.967-.965h-1.87c-.347-1.267-.855-2.484-1.51-3.623l1.312-1.312c.184-.18.287-.428.287-.686 0-.258-.103-.505-.287-.686l-4.273-4.268c-.384-.369-.99-.369-1.375 0l-1.312 1.312c-1.138-.658-2.358-1.162-3.63-1.497v-1.855c.004-.258-.096-.507-.278-.69-.181-.184-.429-.287-.687-.287h-6.057c-.258 0-.506.103-.687.287-.182.183-.282.432-.279.69v1.855c-1.27.337-2.49.84-3.629 1.497l-1.25-1.312c-.384-.369-.992-.369-1.375 0l-4.335 4.268c-.184.18-.288.428-.288.686 0 .258.104.505.288.686l1.313 1.312c-.657 1.137-1.161 2.355-1.5 3.623h-1.87c-.533 0-.965.432-.965.965v6.048c-.002.256.1.502.285.68.177.185.424.288.68.285h1.87c.337 1.27.84 2.488 1.5 3.624l-1.326 1.323c-.374.377-.374.985 0 1.361l4.286 4.28c.178.184.424.287.68.284.257.002.503-.101.682-.285l1.313-1.372c1.14.654 2.36 1.161 3.629 1.509l.012 1.917zm-3.245-5.405c-.39-.26-.908-.209-1.238.123l-1.177 1.175-2.935-2.906 1.176-1.175c.342-.325.395-.851.124-1.237-.869-1.355-1.486-2.855-1.82-4.428-.1-.445-.498-.76-.954-.754h-1.66v-4.12h1.66c.456.006.854-.309.954-.754.332-1.57.95-3.066 1.82-4.415.26-.389.209-.907-.124-1.237l-1.164-1.163 2.91-2.906 1.165 1.162c.33.332.85.384 1.238.124 1.351-.87 2.85-1.486 4.422-1.818.448-.099.767-.494.768-.952v-1.645h4.112v1.694c-.01.455.309.85.755.94 1.575.343 3.076.963 4.434 1.83.387.271.913.219 1.239-.123l1.176-1.163 2.91 2.907-1.238 1.162c-.332.33-.384.849-.123 1.237.874 1.349 1.496 2.845 1.833 4.416.09.446.486.763.94.754h1.66v4.119h-1.66c-.453-.004-.846.311-.94.754-.34 1.575-.96 3.075-1.833 4.428-.271.386-.219.912.123 1.237l1.239 1.175-2.91 2.907-1.177-1.175c-.326-.342-.852-.394-1.239-.124-1.355.872-2.858 1.492-4.434 1.83-.443.095-.76.488-.755.94v1.633h-4.112v-1.67c-.002-.454-.322-.846-.768-.94-1.565-.343-3.055-.967-4.397-1.842z" transform="translate(-267 -57)"/>
                <path d="M335.382 209.434c0-3.232-1.95-6.147-4.942-7.382-2.991-1.236-6.433-.55-8.72 1.737-2.288 2.288-2.97 5.726-1.727 8.712 1.242 2.985 4.163 4.928 7.4 4.923 2.121 0 4.155-.842 5.654-2.34 1.498-1.5 2.338-3.532 2.335-5.65zm-14.057 0c0-3.347 2.717-6.06 6.069-6.06 3.351 0 6.068 2.713 6.068 6.06 0 3.348-2.717 6.061-6.068 6.061-3.35-.007-6.062-2.716-6.07-6.06zM336.299 188.359c.467.004.873-.323.967-.78.094-.458-.15-.919-.58-1.099-.433-.18-.932-.03-1.192.358-.26.389-.208.907.123 1.236.182.18.426.282.682.285zM318.513 230.535c-.259.004-.506.106-.693.284-.364.386-.364.988 0 1.373.31.301.784.359 1.158.141.374-.217.557-.656.45-1.074-.109-.419-.482-.714-.915-.724zM276.465 205.477c-.533 0-.966.432-.966.964v3.439c0 1.98-1.608 3.587-3.592 3.587h-5.511c-.257-.004-.503.1-.681.284l-6.688 6.679v-5.999c0-.532-.433-.964-.966-.964H244.2c-1.983 0-3.591-1.606-3.591-3.587v-14.62c.02-1.966 1.622-3.55 3.591-3.55h27.706c1.984 0 3.592 1.606 3.592 3.587v3.451c0 .533.433.965.966.965.534 0 .966-.432.966-.965v-3.45c0-3.047-2.473-5.517-5.524-5.517h-27.706c-1.465 0-2.87.581-3.906 1.616-1.036 1.034-1.617 2.437-1.617 3.9v12.369h-7.035c-2.052 0-3.716 1.661-3.716 3.71v8.906c0 2.049 1.664 3.71 3.716 3.71h2.96l4.793 4.8c.185.171.428.268.681.271.128 0 .254-.026.372-.074.362-.147.598-.5.594-.89v-4.107h7.431c2.052 0 3.716-1.661 3.716-3.71v-4.948h4.83v7.36c-.003.39.232.743.595.89.118.048.244.074.371.074.256 0 .501-.103.681-.284l8.05-8.04h5.116c3.05 0 5.524-2.47 5.524-5.516v-3.439c-.03-.48-.41-.866-.892-.902zm-26.145 14.842c0 .997-.81 1.805-1.809 1.805h-8.434c-.533 0-.966.432-.966.965v2.746l-3.43-3.426c-.18-.184-.426-.286-.682-.285h-3.356c-.999 0-1.809-.808-1.809-1.805v-8.906c0-.997.81-1.805 1.809-1.805h7.035v.272c0 1.463.581 2.866 1.617 3.9 1.036 1.035 2.441 1.616 3.906 1.616h6.119v4.923z" transform="translate(-267 -57)"/>
                <path d="M267.486 196.077h-18.863c-.534 0-.966.432-.966.964 0 .533.432.965.966.965h18.863c.533 0 .966-.432.966-.965 0-.532-.433-.964-.966-.964zM268.464 202.26c0-.257-.103-.505-.287-.686-.184-.181-.433-.281-.691-.278h-18.863c-.534 0-.966.432-.966.965 0 .533.432.965.966.965h18.863c.258.003.507-.097.69-.279.185-.18.288-.428.288-.686zM276.465 201.605c-.533 0-.966.432-.966.965 0 .533.433.965.966.965.534 0 .966-.432.966-.965 0-.533-.432-.965-.966-.965zM421.695 53.42c-8.437-8.429-21.693-9.65-31.533-2.907-.285.194-.445.526-.419.87.026.344.234.648.545.798.311.15.679.122.964-.073 9.69-6.709 22.902-4.94 30.479 4.082 7.576 9.021 7.022 22.322-1.28 30.683-8.302 8.36-21.616 9.026-30.713 1.536-9.097-7.49-10.98-20.669-4.344-30.401.235-.281.29-.67.142-1.006-.147-.335-.472-.558-.838-.575-.366-.018-.71.173-.89.492-7.406 10.78-5.134 25.455 5.187 33.498 10.32 8.043 25.127 6.677 33.798-3.119 8.67-9.795 8.211-24.637-1.048-33.879h-.05z" transform="translate(-267 -57)"/>
                <path d="M404.183 90.821c11.005-.013 19.92-8.923 19.928-19.913.003-2.215-.37-4.415-1.103-6.506-3.33-9.581-13.341-15.132-23.246-12.89-9.906 2.243-16.54 11.563-15.407 21.642 1.133 10.08 9.67 17.698 19.828 17.692v-.025zm17.995-19.913v1.373c-1.002.06-1.996.209-2.972.445.318-2.655-.07-5.347-1.127-7.804 1.115.198 2.23.408 3.332.643.543 1.73.818 3.53.817 5.343h-.05zm-6.477-6.345c1.475 2.694 1.97 5.814 1.4 8.831-4.45 1.802-7.833 5.531-9.19 10.13-2.428.7-5.004.7-7.432 0-1.362-4.6-4.75-8.33-9.202-10.13-.564-3.017-.07-6.135 1.4-8.83 7.644-1.09 15.404-1.09 23.049 0h-.025zm-26.505 8.163c-.97-.237-1.962-.386-2.96-.445v-1.373c.001-1.811.272-3.612.805-5.343 1.103-.235 2.217-.445 3.332-.643-1.067 2.454-1.473 5.145-1.177 7.804zm-2.7 1.485c7.15.574 12.656 6.54 12.646 13.704v.26c-6.509-1.911-11.394-7.306-12.646-13.964zm14.565 14.384v-.705c-.001-.766-.06-1.53-.173-2.288 2.15.478 4.378.478 6.527 0-.11.758-.163 1.522-.16 2.288v.705c-2.05.342-4.144.342-6.194 0zm8.15-.445v-.26c.01-7.155 5.516-13.106 12.658-13.68-1.27 6.649-6.156 12.03-12.658 13.94zm-5.028-35.213c7.032.008 13.417 4.104 16.348 10.488-10.797-2.143-21.912-2.143-32.71 0 2.934-6.388 9.324-10.485 16.362-10.488z" transform="translate(-267 -57)"/>
                <path d="M399.34 70.908c-.005 1.957 1.172 3.724 2.98 4.477 1.81.752 3.895.342 5.282-1.04 1.388-1.383 1.805-3.464 1.056-5.272-.749-1.809-2.516-2.989-4.475-2.989-2.67 0-4.836 2.158-4.843 4.824zm4.843-2.882c1.178 0 2.24.71 2.69 1.797.45 1.088.198 2.34-.637 3.17-.835.83-2.089 1.075-3.176.622-1.087-.454-1.793-1.518-1.788-2.694 0-.77.307-1.508.853-2.051.546-.544 1.287-.847 2.058-.844zM311.33 84.44c-.68-.003-1.349.167-1.945.494-5.37-6.87-6.347-16.198-2.517-24.03 3.83-7.831 11.798-12.796 20.526-12.79 1.526-.002 3.048.148 4.545.444.338.069.688-.048.917-.307.228-.258.301-.619.191-.946-.11-.327-.386-.57-.724-.639-1.631-.328-3.29-.493-4.954-.495-9.497-.003-18.16 5.415-22.301 13.95-4.142 8.535-3.032 18.683 2.856 26.124-.449.665-.686 1.45-.681 2.251 0 2.24 1.818 4.057 4.062 4.057s4.062-1.816 4.062-4.057c0-2.24-1.818-4.057-4.062-4.057h.025zm1.51 5.553c-.398.404-.942.631-1.51.63-1.171-.013-2.117-.958-2.13-2.127 0-1.175.953-2.127 2.13-2.127.566-.004 1.11.22 1.51.62.4.399.623.942.62 1.507.002.561-.221 1.1-.62 1.497zM346.826 55.584c1.07-1.611.858-3.751-.508-5.12-1.3-1.299-3.31-1.563-4.903-.645-1.592.918-2.368 2.79-1.892 4.563.475 1.773 2.084 3.007 3.922 3.007.683.001 1.356-.169 1.957-.494 5.867 7.522 6.43 17.896 1.409 26.007-5.021 8.11-14.564 12.247-23.926 10.368-.526-.098-1.033.243-1.14.767-.098.518.239 1.02.756 1.126 10.183 2.044 20.561-2.473 25.994-11.312 5.433-8.84 4.767-20.126-1.669-28.267zm-4.88-.755c-.406-.392-.634-.932-.631-1.496 0-1.175.953-2.128 2.13-2.128.565 0 1.108.223 1.511.619.6.613.777 1.524.448 2.316-.33.793-1.1 1.312-1.959 1.32-.565.003-1.106-.225-1.499-.63z" transform="translate(-267 -57)"/>
                <path d="M323.393 87.531c0 .533.433.965.966.965h6.057c.533 0 .966-.432.966-.965v-1.867c1.272-.361 2.491-.885 3.629-1.559l1.325 1.324c.181.183.429.287.687.287.258 0 .506-.104.688-.287l4.334-4.23c.375-.377.375-.985 0-1.36l-1.325-1.324c.658-1.138 1.166-2.356 1.511-3.624h1.87c.534 0 .966-.432.966-.965v-6.048c0-.533-.432-.965-.966-.965h-1.932c-.347-1.267-.855-2.485-1.51-3.624l1.312-1.31c.184-.182.287-.43.287-.687 0-.258-.103-.505-.287-.687l-4.273-4.267c-.384-.369-.99-.369-1.375 0l-1.312 1.311c-1.138-.658-2.358-1.161-3.63-1.496v-1.856c.004-.258-.096-.506-.278-.69-.181-.183-.429-.287-.687-.287h-6.057c-.258 0-.506.104-.687.287-.182.184-.282.432-.279.69v1.856c-1.274.336-2.499.84-3.641 1.496l-1.239-1.31c-.383-.37-.99-.37-1.374 0l-4.335 4.266c-.184.182-.288.429-.288.687 0 .258.104.505.288.686l1.313 1.311c-.657 1.137-1.161 2.356-1.5 3.624h-1.87c-.533 0-.965.432-.965.965v6.048c-.002.256.1.502.285.68.177.185.424.288.68.285h1.87c.337 1.269.84 2.488 1.5 3.624l-1.326 1.323c-.374.376-.374.984 0 1.36l4.286 4.28c.178.185.424.288.68.285.257.001.503-.101.682-.285l1.313-1.373c1.14.655 2.36 1.162 3.629 1.51l.012 1.916zm-3.245-5.405c-.39-.26-.908-.208-1.238.124l-1.177 1.237-2.935-2.969 1.176-1.175c.342-.324.395-.85.124-1.236-.869-1.355-1.486-2.855-1.82-4.428-.1-.445-.498-.76-.954-.755h-1.66v-4.081h1.66c.456.005.854-.31.954-.755.332-1.57.95-3.066 1.82-4.415.26-.39.209-.908-.124-1.237l-1.164-1.163 2.91-2.906 1.165 1.162c.33.332.85.384 1.238.124 1.351-.87 2.85-1.486 4.422-1.818.448-.099.767-.495.768-.953v-1.62h4.112v1.633c-.01.454.309.85.755.94 1.576.347 3.077.971 4.434 1.843.387.27.913.218 1.239-.124l1.176-1.163 2.91 2.907-1.238 1.163c-.332.33-.384.848-.123 1.236.874 1.349 1.496 2.845 1.833 4.416.09.446.486.763.94.754h1.66v4.107h-1.66c-.453-.004-.846.311-.94.754-.34 1.574-.96 3.074-1.833 4.428-.271.386-.219.912.123 1.237l1.239 1.175-2.91 2.906-1.177-1.236c-.326-.342-.852-.395-1.239-.124-1.355.872-2.858 1.492-4.434 1.83-.443.095-.76.488-.755.94v1.695h-4.112v-1.682c-.002-.455-.322-.847-.768-.94-1.564-.34-3.054-.96-4.397-1.83z" transform="translate(-267 -57)"/>
                <path d="M335.382 70.908c0-3.233-1.95-6.147-4.942-7.383-2.991-1.236-6.433-.55-8.72 1.738-2.288 2.287-2.97 5.726-1.727 8.711 1.242 2.986 4.163 4.93 7.4 4.924 2.121 0 4.155-.842 5.654-2.34 1.498-1.5 2.338-3.532 2.335-5.65zm-14.057 0c0-3.347 2.717-6.06 6.069-6.06 3.351 0 6.068 2.713 6.068 6.06 0 3.347-2.717 6.06-6.068 6.06-3.35-.006-6.062-2.716-6.07-6.06zM318.513 92.009c-.259.004-.506.106-.693.284-.364.386-.364.987 0 1.373.31.3.784.358 1.158.141.374-.217.557-.656.45-1.075-.109-.418-.482-.714-.915-.723zM276.465 66.95c-.533 0-.966.432-.966.965v3.438c0 1.981-1.608 3.587-3.592 3.587h-5.511c-.257-.003-.503.1-.681.285l-6.688 6.679v-5.999c0-.533-.433-.965-.966-.965H244.2c-1.983 0-3.591-1.606-3.591-3.587v-14.62c.02-1.966 1.622-3.549 3.591-3.549h27.706c1.984 0 3.592 1.606 3.592 3.587v3.45c0 .534.433.966.966.966.534 0 .966-.432.966-.965v-3.488c0-3.047-2.473-5.516-5.524-5.516h-27.706c-3.05 0-5.523 2.47-5.523 5.516v12.368h-7.035c-2.052 0-3.716 1.662-3.716 3.71v8.906c0 2.05 1.664 3.71 3.716 3.71h2.96l4.793 4.861c.185.173.428.27.681.273.128-.001.254-.026.372-.075.362-.147.598-.5.594-.89v-4.07h7.431c2.052 0 3.716-1.66 3.716-3.71V76.87h4.83v7.359c-.003.39.232.743.595.89.118.049.244.074.371.075.256-.001.501-.104.681-.285l8.05-8.04h5.116c1.465 0 2.87-.58 3.906-1.615 1.036-1.034 1.618-2.438 1.618-3.9v-3.439c.001-.505-.388-.926-.892-.965zM250.32 81.792c0 .998-.81 1.806-1.809 1.806h-8.434c-.533 0-.966.432-.966.965v2.746l-3.43-3.426c-.18-.184-.426-.287-.682-.285h-3.356c-.999 0-1.809-.808-1.809-1.806v-8.905c0-.997.81-1.806 1.809-1.806h7.035v.272c0 1.463.581 2.867 1.617 3.901 1.036 1.035 2.441 1.616 3.906 1.616h6.119v4.922z" transform="translate(-267 -57)"/>
                <path d="M267.486 57.55h-18.863c-.534 0-.966.432-.966.965 0 .533.432.965.966.965h18.863c.533 0 .966-.432.966-.965 0-.533-.433-.965-.966-.965zM268.464 63.734c0-.258-.103-.505-.287-.686-.184-.181-.433-.282-.691-.278h-18.863c-.534 0-.966.432-.966.964 0 .533.432.965.966.965h18.863c.258.004.507-.097.69-.278.185-.181.288-.429.288-.687zM276.465 63.079c-.533 0-.966.432-.966.965 0 .532.433.964.966.964.534 0 .966-.432.966-.964 0-.533-.432-.965-.966-.965z" transform="translate(-267 -57)"/>
            </g>
        </g>
    </g>
</svg>
