<svg xmlns="http://www.w3.org/2000/svg" xmlns:xlink="http://www.w3.org/1999/xlink" width="201" height="202" viewBox="0 0 201 202">
    <defs>
        <circle id="prefix__a" cx="100" cy="100" r="100"/>
    </defs>
    <g fill="none" fill-rule="evenodd" transform="translate(0 1)">
        <mask id="prefix__b" fill="#fff">
            <use xlink:href="#prefix__a"/>
        </mask>
        <use fill="#D8D8D8" fill-opacity="0" stroke="#678189" stroke-dasharray="4.592 2.296" stroke-linecap="round" stroke-linejoin="round" stroke-width=".5" xlink:href="#prefix__a"/>
        <g mask="url(#prefix__b)" opacity=".2">
            <g fill="#678189" fill-rule="nonzero" opacity=".6">
                <path d="M558.095 365.474v1.782c-.037.28.093.558.332.71.24.152.546.152.785 0 .24-.152.369-.43.332-.71v-1.596h3.926c.282.037.559-.092.711-.332.153-.239.153-.544 0-.784-.152-.239-.43-.368-.71-.331h-4.682v-4.65h7.022v16.313c.007.4.33.723.73.73.4-.007.72-.331.72-.73v-16.413h3.207v17.86c-.037.282.092.558.332.71.24.153.545.153.785 0 .24-.152.369-.428.332-.71V365.66h6.304v13.21c0 .402.327.73.73.73.194 0 .378-.078.513-.215s.21-.323.206-.516v-13.395c.48-.261.78-.764.78-1.31v-4.651c0-.827-.67-1.497-1.498-1.497h-6.193l3.654-2.61c.55-.387.9-.999.954-1.67.053-.664-.187-1.319-.657-1.793l-1.82-1.78c-.472-.479-1.131-.723-1.801-.668-.67.055-1.28.403-1.667.952l-2.552 3.562-2.551-3.562c-.394-.544-1.003-.89-1.672-.953-.668-.053-1.326.192-1.796.668l-1.796 1.794c-.47.472-.71 1.127-.655 1.79.055.665.399 1.271.94 1.66l3.641 2.61h-6.192c-.83 0-1.505.668-1.511 1.497v4.65c.006.545.303 1.046.78 1.311h.037zm10.032-9.115h1.548c.22 0 .431.087.587.243.156.155.243.366.243.586v.828h-3.208v-.828c0-.22.088-.43.243-.586.156-.156.367-.243.587-.243zm10.912 3.154v4.65h-7.035v-4.75h7.035v.1zm-6.404-8.25c.141-.191.358-.313.594-.334.237-.022.472.06.645.223l1.796 1.806c.167.17.251.406.23.644-.022.238-.147.454-.342.592l-3.653 2.61c-.155-.98-.925-1.75-1.908-1.905l2.638-3.636zm-10.763 2.338c-.014-.24.076-.475.248-.643l1.796-1.806c.171-.167.407-.251.645-.23.238.022.455.146.594.341l2.613 3.71c-.98.159-1.75.926-1.907 1.905l-3.716-2.61c-.197-.143-.323-.363-.347-.605l.074-.062zM518.09 239.49c.055-.172.038-.36-.045-.52-.084-.16-.228-.28-.4-.334-3.164-.617-6.414-.643-9.587-.074.572-3.172.543-6.424-.086-9.585-.086-.36-.444-.585-.805-.508-3.053 1.037-5.885 2.635-8.348 4.713-1.094-3.029-2.745-5.827-4.868-8.25-.277-.264-.713-.264-.99 0-2.123 2.423-3.774 5.221-4.868 8.25-2.463-2.078-5.295-3.676-8.348-4.713-.17-.053-.356-.037-.514.047-.158.084-.276.227-.328.399-.63 3.161-.659 6.413-.086 9.585-3.173-.568-6.424-.543-9.587.074-.365.086-.593.451-.508.817.1.334 2.601 8.225 9.24 12.195-1.625.79-3.186 1.704-4.67 2.733-.3.218-.372.636-.16.94.047.06.101.114.16.161.273.198 6.9 4.948 12.522 4.948 2.647.055 5.269-.512 7.654-1.658 2.38 1.147 5 1.715 7.642 1.658 5.623 0 12.25-4.725 12.522-4.948.303-.221.374-.643.16-.952-.044-.059-.098-.11-.16-.149-1.482-1.032-3.044-1.946-4.67-2.733 6.478-3.871 9.03-11.762 9.128-12.096zm-11.32-9.437c.347 2.152 1.003 8.484-2.006 13.68-2.24 3.488-5.464 6.237-9.264 7.903 2.652-3.574 4.167-7.862 4.347-12.307-.004-1.584-.22-3.16-.644-4.688 2.231-1.963 4.793-3.517 7.567-4.588zm-13.376-3.575c1.362 1.695 5.103 6.852 5.103 12.85 0 6-3.716 11.133-5.103 12.84-1.375-1.695-5.115-6.853-5.115-12.84 0-5.985 3.703-11.192 5.078-12.887l.037.037zm-13.426 3.575c2.774 1.071 5.336 2.625 7.568 4.588-.424 1.523-.64 3.095-.644 4.676.177 4.445 1.692 8.734 4.347 12.306-3.804-1.679-7.021-4.452-9.24-7.965-3.034-5.158-2.377-11.49-2.03-13.605zm-9.809 9.795c2.943-.471 5.947-.408 8.868.186.39 1.533.985 3.006 1.771 4.378 2.373 3.76 5.826 6.717 9.908 8.485-4.123.463-8.292-.307-11.976-2.214-5.177-3.03-7.79-8.843-8.57-10.872v.037zm30.84 19.27c-2.537.074-5.052-.496-7.308-1.657-.21-.124-.47-.124-.68 0-2.257 1.161-4.771 1.731-7.308 1.657-4.1 0-9.004-2.881-10.912-4.118 1.452-.935 2.972-1.762 4.546-2.474 2.854 1.272 5.953 1.905 9.078 1.855 1.662.003 3.32-.15 4.954-.457 1.633.308 3.292.462 4.954.457 3.126.05 6.224-.583 9.079-1.855 1.574.712 3.093 1.539 4.545 2.474-1.944 1.2-6.849 4.081-10.948 4.081v.037zm6.948-8.435c-3.685 1.907-7.853 2.677-11.977 2.214 4.083-1.768 7.536-4.725 9.908-8.485.786-1.372 1.382-2.845 1.772-4.378 2.92-.594 5.924-.657 8.867-.186-.755 1.992-3.368 7.805-8.508 10.798l-.062.037zM558.095 226.948v1.781c-.037.281.093.558.332.71.24.153.546.153.785 0 .24-.152.369-.429.332-.71v-1.595h3.926c.282.037.559-.093.711-.332.153-.239.153-.545 0-.784-.152-.239-.43-.368-.71-.331h-4.682v-4.65h7.022v16.313c.007.4.33.723.73.73.4-.007.72-.332.72-.73v-16.413h3.207v17.86c-.037.281.092.558.332.71.24.153.545.153.785 0 .24-.152.369-.429.332-.71v-11.663h6.304v13.21c0 .402.327.729.73.729.194 0 .378-.077.513-.215.135-.137.21-.322.206-.515v-13.395c.48-.262.78-.764.78-1.31v-4.651c0-.827-.67-1.497-1.498-1.497h-6.193l3.654-2.61c.55-.387.9-.999.954-1.67.053-.664-.187-1.32-.657-1.793l-1.82-1.78c-.472-.48-1.131-.724-1.801-.669-.67.055-1.28.404-1.667.953l-2.552 3.562-2.551-3.562c-.394-.544-1.003-.891-1.672-.953-.668-.053-1.326.191-1.796.668l-1.796 1.793c-.47.473-.71 1.128-.655 1.791.055.664.399 1.271.94 1.66l3.641 2.61h-6.192c-.83 0-1.505.668-1.511 1.497v4.65c.006.545.303 1.045.78 1.311h.037zm10.032-9.115h1.548c.459 0 .83.37.83.828v.829h-3.208v-.829c0-.457.372-.828.83-.828zm10.912 3.154v4.65h-7.035v-4.75h7.035v.1zm-6.404-8.25c.141-.192.358-.313.594-.335.237-.02.472.06.645.224l1.796 1.805c.167.171.251.406.23.644-.022.238-.147.455-.342.593l-3.653 2.61c-.155-.981-.925-1.75-1.908-1.905l2.638-3.636zm-10.763 2.337c-.014-.24.076-.474.248-.643l1.796-1.805c.171-.168.407-.251.645-.23.238.021.455.146.594.34l2.613 3.65c-.98.157-1.75.925-1.907 1.904l-3.716-2.61c-.197-.143-.323-.363-.347-.606h.074z" transform="translate(-367 -157)"/>
                <path d="M592.229 248.148h-9.314l3.654-2.598c.544-.39.889-1.002.941-1.67.059-.665-.182-1.322-.656-1.793l-1.796-1.793c-.47-.477-1.13-.718-1.796-.656-.669.052-1.28.396-1.672.94l-2.551 3.575-2.552-3.575c-.391-.544-1.003-.888-1.672-.94-.667-.065-1.328.176-1.796.656l-1.845 1.793c-.475.471-.715 1.128-.657 1.794.053.667.397 1.278.942 1.67l3.641 2.597h-8.57v-1.064c.473-.267.766-.768.767-1.311v-4.589c0-.397-.158-.777-.439-1.058-.28-.28-.662-.438-1.06-.438h-6.192l3.641-2.598c.545-.39.89-1.002.942-1.67.058-.665-.182-1.322-.657-1.793l-1.796-1.793c-.471-.474-1.13-.714-1.796-.656-.668.052-1.28.396-1.672.94l-2.551 3.575-2.551-3.575c-.393-.541-1.002-.884-1.669-.939-.667-.054-1.324.185-1.8.655l-1.795 1.793c-.475.471-.715 1.128-.657 1.794.053.667.397 1.278.942 1.67l3.653 2.597h-6.192c-.828 0-1.499.67-1.499 1.496v4.65c.001.544.294 1.045.768 1.312v11.861c.007.829.681 1.497 1.511 1.497h18.578c.825-.007 1.492-.673 1.499-1.497v-4.7h7.022c.282.037.559-.092.711-.331.153-.24.153-.545 0-.784-.152-.24-.43-.369-.71-.332h-7.023v-3.265h9.4v9.4h-7.022c-.282-.037-.56.092-.712.331-.152.24-.152.545 0 .784.153.24.43.369.712.332h22.491c.828 0 1.499-.67 1.499-1.497v-4.947c.476-.266.774-.766.78-1.311v-3.105c0-.826-.67-1.496-1.498-1.496l.074.062zm-26.38-6.964v4.65h-7.06v-4.749h7.022l.037.1zm-10.912-3.141h1.56c.452 0 .818.365.818.816v.829h-3.196v-.83c-.017-.226.061-.45.217-.617.155-.166.373-.26.6-.26v.062zm2.378 3.092v17.86h-3.196v-17.922l3.196.062zm2.142-8.176c.115-.223.324-.382.57-.433.244-.015.483.075.656.248l1.796 1.793c.173.173.263.412.248.656-.024.238-.15.455-.347.593l-3.715 2.61c-.147-.978-.916-1.746-1.895-1.892l2.687-3.575zm-10.763 2.35c-.025-.243.062-.484.236-.655l1.796-1.794c.169-.168.404-.254.642-.235.238.019.456.141.596.334l2.614 3.71c-.985.142-1.76.911-1.908 1.893l-3.715-2.61c-.202-.175-.3-.44-.26-.705v.062zm-2.29 23.636V247.27h3.925c.364-.047.636-.357.636-.723s-.272-.676-.636-.724h-4.657v-4.638h7.035v17.81h-6.304v-.049zm18.713 0h-6.328V247.22h6.304l.024 11.725zm27.112-9.3v3.104h-10.144v-3.154h10.144v.05zm-14.862-1.497v-.78c0-.452.363-.822.817-.828h1.56c.454.006.818.376.818.828v.83l-3.195-.05zm5.325-6.729c.14-.193.358-.315.597-.334.238-.02.472.067.642.235l1.796 1.794c.172.167.258.404.235.643-.01.243-.134.467-.334.606l-3.716 2.61c-.155-.981-.925-1.75-1.907-1.905l2.687-3.649zm-10.763 2.338c-.013-.24.077-.474.248-.643l1.796-1.794c.173-.172.412-.262.656-.247.24.024.456.15.595.346l2.613 3.649c-.977.16-1.742.927-1.895 1.905l-3.715-2.61c-.172-.155-.27-.375-.273-.606h-.025zm5.438 5.838h3.195v9.4h-3.195v-9.4zm14.007 9.4h-9.363v-4.75h9.413v4.7l-.05.05zM539.22 315.308c-.682-.004-1.352.171-1.945.507-5.367-6.873-6.343-16.2-2.513-24.032 3.829-7.832 11.794-12.8 20.521-12.8 1.527.002 3.05.156 4.546.457.522.099 1.028-.236 1.14-.755.05-.25 0-.512-.142-.725-.142-.214-.363-.362-.614-.413-1.63-.334-3.29-.5-4.954-.494-9.493 0-18.15 5.417-22.29 13.947-4.14 8.53-3.036 18.673 2.845 26.114-.446.666-.683 1.45-.681 2.251.005 1.085.452 2.12 1.238 2.87.759.767 1.794 1.199 2.873 1.199 1.08 0 2.115-.432 2.874-1.2.786-.748 1.233-1.784 1.238-2.869 0-2.24-1.818-4.057-4.062-4.057h-.074zm1.51 5.566c-.402.396-.945.618-1.51.618-.86.001-1.636-.518-1.962-1.313-.327-.795-.138-1.708.475-2.31.394-.403.936-.627 1.5-.619.566-.005 1.11.218 1.51.618.823.834.823 2.173 0 3.006h-.012zM574.716 286.453c1.182-1.78.779-4.172-.922-5.468-1.7-1.295-4.117-1.052-5.524.558-1.407 1.609-1.323 4.032.191 5.54.752.783 1.788 1.229 2.874 1.237.685.002 1.36-.172 1.957-.507 5.861 7.525 6.42 17.897 1.402 26.007-5.019 8.11-14.557 12.25-23.919 10.381-.338-.068-.688.049-.916.307-.229.259-.302.62-.192.946.11.327.386.57.724.64 10.183 2.044 20.561-2.473 25.994-11.313s4.767-20.125-1.669-28.267v-.061zm-4.88-.742c-.603-.609-.782-1.518-.455-2.31.327-.79 1.097-1.308 1.954-1.314.565 0 1.108.222 1.51.618.83.83.83 2.175 0 3.006-.399.4-.944.623-1.51.618-.563.008-1.105-.216-1.499-.618z" transform="translate(-367 -157)"/>
                <path d="M551.283 318.413c0 .532.433.964.966.964h6.057c.533 0 .966-.432.966-.964v-1.88c1.27-.336 2.49-.839 3.628-1.497l1.326 1.323c.181.184.429.287.687.287.258 0 .506-.103.687-.287l4.273-4.279c.375-.376.375-.984 0-1.36l-1.325-1.324c.656-1.139 1.163-2.357 1.511-3.624h1.87c.534 0 .966-.432.966-.965v-6.048c0-.533-.432-.965-.966-.965h-1.87c-.345-1.267-.853-2.485-1.51-3.623l1.312-1.324c.185-.178.288-.424.285-.68-.001-.256-.104-.5-.285-.68l-4.273-4.268c-.181-.183-.429-.286-.687-.286-.259 0-.506.103-.688.286l-1.313 1.312c-1.14-.657-2.359-1.164-3.628-1.51v-1.855c0-.532-.433-.964-.966-.964h-6.057c-.533 0-.966.432-.966.964v1.856c-1.269.347-2.488.854-3.629 1.509l-1.25-1.312c-.182-.183-.43-.286-.688-.286-.258 0-.506.103-.688.286l-4.272 4.268c-.182.18-.284.424-.285.68-.004.256.1.502.285.68l1.312 1.324c-.659 1.135-1.163 2.354-1.498 3.623h-1.87c-.534 0-.967.432-.967.965v6.036c0 .535.431.97.967.977h1.87c.338 1.269.842 2.487 1.498 3.624l-1.325 1.323c-.375.377-.375.985 0 1.361l4.285 4.28c.182.18.426.282.682.284.255-.005.498-.107.68-.285l1.326-1.323c1.139.656 2.359 1.16 3.629 1.497l-.062 1.88zm-3.245-5.418c-.392-.257-.912-.2-1.238.136l-1.177 1.237-2.935-2.968 1.176-1.237c.333-.33.385-.848.124-1.237-.869-1.35-1.485-2.846-1.82-4.415-.1-.448-.496-.766-.954-.767h-1.66v-4.107h1.66c.458 0 .855-.32.953-.766.338-1.57.954-3.065 1.821-4.416.271-.386.218-.912-.124-1.237l-1.164-1.175 2.91-2.906 1.165 1.175c.33.332.849.383 1.238.123 1.35-.873 2.849-1.494 4.422-1.83.446-.094.766-.485.768-.94v-1.658h4.112v1.658c-.004.453.312.846.755.94 1.576.339 3.078.959 4.434 1.83.387.27.913.218 1.239-.123l1.176-1.175 2.91 2.906-1.238 1.175c-.342.325-.395.85-.124 1.237.871 1.35 1.492 2.846 1.833 4.416.09.447.484.77.942.766h1.66v4.107h-1.66c-.456.002-.848.321-.942.767-.339 1.57-.96 3.066-1.833 4.415-.26.389-.208.907.124 1.237l1.239 1.237-2.91 2.906-1.177-1.237c-.322-.345-.85-.403-1.239-.136-1.353.877-2.856 1.498-4.434 1.83-.445.1-.76.497-.755.953v1.67h-4.112v-1.67c-.001-.458-.32-.854-.768-.952-1.562-.315-3.052-.915-4.397-1.769z" transform="translate(-367 -157)"/>
                <path d="M563.272 301.79c0-3.233-1.95-6.148-4.942-7.384-2.991-1.235-6.434-.55-8.72 1.738-2.288 2.288-2.97 5.726-1.727 8.712 1.242 2.985 4.163 4.928 7.4 4.923 4.414-.006 7.989-3.582 7.989-7.99zm-14.057 0c-.005-2.453 1.47-4.667 3.737-5.609 2.268-.941 4.88-.426 6.618 1.306 1.739 1.733 2.26 4.34 1.322 6.607-.94 2.266-3.153 3.744-5.609 3.744-3.346 0-6.061-2.706-6.068-6.049zM564.189 280.763c.39-.001.74-.236.888-.596.15-.36.067-.773-.207-1.049-.18-.183-.425-.286-.681-.286-.257 0-.502.103-.682.286-.274.276-.356.69-.207 1.05.148.359.499.594.889.595zM546.403 322.89c-.26 0-.51.101-.693.284-.175.184-.273.428-.273.68.002.39.237.74.597.888.36.15.774.067 1.05-.207.18-.18.283-.425.285-.68-.005-.255-.106-.498-.285-.68-.18-.182-.425-.284-.68-.285zM504.355 297.82c-.533 0-.966.431-.966.964v3.45c-.007 1.977-1.613 3.575-3.592 3.575h-5.511c-.256.003-.5.105-.681.285l-6.688 6.679v-6.036c.003-.258-.097-.507-.279-.69-.182-.184-.43-.287-.688-.287h-13.859c-.951.003-1.865-.372-2.539-1.043-.674-.67-1.052-1.582-1.052-2.532v-14.57c0-1.98 1.608-3.587 3.591-3.587h27.706c1.984 0 3.592 1.606 3.592 3.587v3.439c0 .532.433.964.966.964.534 0 .966-.432.966-.964v-3.439c0-3.046-2.473-5.516-5.524-5.516h-27.706c-3.05 0-5.524 2.47-5.524 5.516v12.369h-7.034c-2.052 0-3.716 1.66-3.716 3.71v8.905c0 2.05 1.664 3.711 3.716 3.711h2.96l4.793 4.787c.18.18.425.283.681.284.127 0 .254-.026.372-.074.362-.147.597-.5.594-.89v-4.107h7.431c2.052 0 3.716-1.661 3.716-3.71v-4.948h4.83v7.421c0 .39.235.74.595.89.118.05.244.074.371.075.256-.001.501-.103.681-.285l8.05-8.04h5.116c3.05 0 5.524-2.469 5.524-5.515v-3.451c-.018-.491-.402-.89-.892-.928zM478.21 312.66c0 .998-.81 1.806-1.809 1.806h-8.434c-.534 0-.966.432-.966.965v2.733l-3.43-3.413c-.18-.184-.426-.287-.682-.285h-3.356c-1 0-1.809-.808-1.809-1.806v-8.905c0-.997.81-1.806 1.809-1.806h7.034v.272c0 3.047 2.474 5.517 5.524 5.517h6.119v4.922z" transform="translate(-367 -157)"/>
                <path d="M495.376 288.432h-18.863c-.534 0-.966.432-.966.964 0 .533.432.965.966.965h18.863c.533 0 .966-.432.966-.965 0-.532-.433-.964-.966-.964zM496.354 294.616c0-.258-.103-.506-.287-.687-.184-.181-.433-.281-.691-.278h-18.863c-.534 0-.966.432-.966.965 0 .533.432.965.966.965h18.863c.258.003.507-.097.69-.279.185-.18.288-.428.288-.686zM476.513 298.87c-.534 0-.966.432-.966.965 0 .533.432.965.966.965H487.4c.533 0 .966-.432.966-.965 0-.533-.433-.964-.966-.964h-10.887zM504.355 293.96c-.533 0-.966.432-.966.965 0 .533.433.965.966.965.534 0 .966-.432.966-.965 0-.533-.432-.965-.966-.965zM421.522 257.14c-2.736 0-4.954 2.214-4.954 4.947 0 2.732 2.218 4.947 4.954 4.947 2.736 0 4.954-2.215 4.954-4.947 0-2.733-2.218-4.948-4.954-4.948zm0 8.25c-1.339.004-2.548-.797-3.064-2.03-.516-1.234-.236-2.657.709-3.604.945-.947 2.368-1.232 3.605-.721 1.237.51 2.045 1.715 2.045 3.052 0 1.819-1.473 3.295-3.295 3.302zM424.817 267.863h-.186l-.174.086c-1.85.915-4.02.915-5.87 0l-.174-.086h-.198c-2.278 0-4.124 1.844-4.124 4.119v4.947c0 1.366 1.109 2.474 2.477 2.474h9.908c1.368 0 2.477-1.108 2.477-2.474v-4.947c-.007-2.277-1.857-4.12-4.136-4.12zm2.477 9.066c0 .453-.364.822-.818.829h-9.908c-.22 0-.431-.088-.587-.243-.156-.155-.243-.366-.243-.586v-4.947c-.003-1.302 1.004-2.383 2.304-2.474 2.209 1.014 4.751 1.014 6.96 0 1.295.097 2.295 1.177 2.292 2.474v4.947zM438.861 284.35c-2.736 0-4.954 2.215-4.954 4.947 0 2.733 2.218 4.948 4.954 4.948 2.737 0 4.955-2.215 4.955-4.948 0-2.732-2.218-4.947-4.955-4.947zm0 8.25c-1.338.005-2.548-.797-3.064-2.03-.515-1.234-.235-2.656.71-3.603.944-.947 2.367-1.232 3.605-.722 1.237.51 2.044 1.716 2.044 3.052 0 1.82-1.473 3.296-3.295 3.303zM442.156 295.073h-.186l-.173.075c-1.847.928-4.024.928-5.87 0l-.174-.075h-.198c-2.278 0-4.125 1.844-4.125 4.12v4.946c0 1.367 1.11 2.474 2.477 2.474h9.909c1.368 0 2.477-1.107 2.477-2.474v-4.947c-.007-2.277-1.857-4.119-4.137-4.119zm2.477 9.066c0 .453-.364.822-.817.83h-9.909c-.458 0-.83-.372-.83-.83v-4.947c-.003-1.301 1.004-2.382 2.304-2.474 2.21 1.014 4.752 1.014 6.96 0 1.296.098 2.296 1.177 2.292 2.474v4.947zM404.183 284.35c-2.737 0-4.955 2.215-4.955 4.947 0 2.733 2.218 4.948 4.955 4.948 2.736 0 4.954-2.215 4.954-4.948 0-2.732-2.218-4.947-4.954-4.947zm0 8.25c-1.34.005-2.549-.797-3.064-2.03-.516-1.234-.236-2.656.708-3.603.945-.947 2.369-1.232 3.606-.722 1.237.51 2.044 1.716 2.044 3.052 0 1.82-1.473 3.296-3.294 3.303zM407.477 295.073h-.186l-.173.075c-1.847.928-4.024.928-5.87 0l-.174-.075h-.198c-2.278 0-4.125 1.844-4.125 4.12v4.946c0 1.367 1.11 2.474 2.477 2.474h9.909c1.368 0 2.477-1.107 2.477-2.474v-4.947c-.007-2.277-1.857-4.119-4.137-4.119zm2.477 9.066c0 .453-.364.822-.817.83h-9.909c-.458 0-.83-.372-.83-.83v-4.947c-.003-1.301 1.004-2.382 2.304-2.474 2.21 1.014 4.752 1.014 6.96 0 1.296.098 2.296 1.177 2.292 2.474v4.947zM429.709 299.019c-.182-.413-.66-.606-1.078-.433-3.73 1.557-7.869 1.843-11.778.816l.768-.235c.392-.16.6-.59.483-.997-.118-.407-.524-.66-.942-.586l-3.306.977c-.077.03-.148.071-.211.124h-.087c-.177.155-.273.383-.26.618.023.113.052.225.087.334l1.66 3.154c.117.294.392.495.708.518.316.024.618-.135.778-.408.16-.273.15-.613-.025-.877l-.669-1.236c4.44 1.338 9.207 1.08 13.475-.73.385-.19.558-.643.397-1.04zM443.605 278.821c-.154-.155-.363-.243-.582-.243-.219 0-.429.088-.582.243l-1.164 1.163c-.691-7.22-5.282-13.485-11.965-16.326-.42-.174-.903.018-1.09.433-.172.423.026.906.446 1.088 5.992 2.549 10.157 8.11 10.912 14.57l-.93-.928c-.32-.32-.842-.32-1.163 0-.322.321-.322.842 0 1.163l2.477 2.474c.153.155.363.243.582.243.219 0 .428-.088.582-.243l2.477-2.474c.156-.153.244-.363.244-.581 0-.219-.088-.428-.244-.582zM414.883 264.276c.007-.045.007-.09 0-.136l-.086-.111-.087-.136-.16-.112h-.1l-3.32-1.57c-.423-.17-.905.034-1.077.457-.17.393 0 .85.384 1.04l1.71.79c-6.428 3.448-10.439 10.142-10.441 17.428-.04.318.108.63.38.801.27.171.616.171.887 0s.419-.483.38-.801c-.004-6.422 3.398-12.367 8.942-15.622l-.607 1.237c-.196.41-.024.901.384 1.101.113.05.236.075.36.074.315.007.606-.172.742-.457l1.66-3.451c.007-.058.007-.116 0-.173.007-.045.007-.091 0-.136.026-.072.043-.147.05-.223zM421.695 330.472c-8.437-8.428-21.693-9.65-31.533-2.907-.285.195-.445.526-.419.87.026.344.234.649.545.798.311.15.679.122.964-.072 9.69-6.709 22.902-4.94 30.479 4.082 7.576 9.02 7.022 22.322-1.28 30.682s-21.616 9.027-30.713 1.537c-9.097-7.49-10.98-20.67-4.344-30.401.235-.282.29-.671.142-1.006-.147-.335-.472-.558-.838-.576-.366-.017-.71.174-.89.493-7.406 10.78-5.134 25.455 5.187 33.497 10.32 8.043 25.127 6.677 33.798-3.118 8.67-9.795 8.211-24.637-1.048-33.88h-.05z" transform="translate(-367 -157)"/>
                <path d="M404.183 367.874c11.005-.014 19.92-8.923 19.928-19.913.003-2.215-.37-4.415-1.103-6.506-3.33-9.582-13.341-15.132-23.246-12.89-9.906 2.243-16.54 11.562-15.407 21.642 1.133 10.08 9.67 17.698 19.828 17.692v-.025zm17.995-19.913v1.373c-1.002.06-1.996.208-2.972.445.318-2.655-.07-5.347-1.127-7.805 1.115.198 2.23.409 3.332.644.543 1.729.818 3.53.817 5.343h-.05zm-6.477-6.345c1.475 2.693 1.97 5.814 1.4 8.83-4.45 1.803-7.833 5.532-9.19 10.13-2.428.7-5.004.7-7.432 0-1.362-4.6-4.75-8.329-9.202-10.13-.564-3.016-.07-6.135 1.4-8.83 7.644-1.089 15.404-1.089 23.049 0h-.025zm-26.505 8.163c-.97-.237-1.962-.386-2.96-.445v-1.373c.001-1.811.272-3.612.805-5.343 1.103-.235 2.217-.446 3.332-.644-1.067 2.455-1.473 5.145-1.177 7.805zm-2.7 1.484c7.14.574 12.643 6.526 12.646 13.68v.26c-6.502-1.908-11.386-7.291-12.646-13.94zm14.565 14.385v-.705c-.001-.766-.06-1.531-.173-2.289 2.15.479 4.378.479 6.527 0-.11.758-.163 1.523-.16 2.289v.705c-2.05.342-4.144.342-6.194 0zm8.15-.446v-.26c.01-7.155 5.516-13.106 12.658-13.679-1.27 6.648-6.156 12.029-12.658 13.94zm-5.028-35.237c7.032.008 13.417 4.104 16.348 10.488-10.797-2.144-21.912-2.144-32.71 0 2.94-6.378 9.33-10.465 16.362-10.464v-.024z" transform="translate(-367 -157)"/>
                <path d="M399.34 347.96c-.005 1.958 1.172 3.725 2.98 4.478 1.81.752 3.895.341 5.282-1.04 1.388-1.383 1.805-3.464 1.056-5.273-.749-1.808-2.516-2.988-4.475-2.988-2.67 0-4.836 2.158-4.843 4.824zm4.843-2.893c1.178 0 2.24.71 2.69 1.797.45 1.087.198 2.339-.637 3.169-.835.83-2.089 1.076-3.176.622-1.087-.454-1.793-1.517-1.788-2.694.003-.768.312-1.503.858-2.043.545-.54 1.284-.842 2.053-.84v-.011zM387.35 332.117c.255.003.5-.094.682-.272.38-.38.38-.994 0-1.373-.38-.38-.995-.38-1.375 0-.37.383-.37.99 0 1.373.188.176.436.273.694.272zM539.22 176.782c-.682-.004-1.352.17-1.945.507-5.367-6.873-6.343-16.2-2.513-24.032 3.829-7.833 11.794-12.8 20.521-12.801 1.527.003 3.05.156 4.546.457.522.1 1.028-.235 1.14-.754.05-.251 0-.512-.142-.725-.142-.214-.363-.362-.614-.413-1.63-.334-3.29-.5-4.954-.495-9.493 0-18.15 5.417-22.29 13.947-4.14 8.53-3.036 18.673 2.845 26.115-.446.666-.683 1.45-.681 2.25.005 1.085.452 2.121 1.238 2.87.759.768 1.794 1.2 2.873 1.2 1.08 0 2.115-.432 2.874-1.2.786-.749 1.233-1.785 1.238-2.87 0-2.24-1.818-4.056-4.062-4.056h-.074zm1.51 5.566c-.402.396-.945.618-1.51.618-.86.001-1.636-.518-1.962-1.313-.327-.796-.138-1.709.475-2.31.394-.403.936-.627 1.5-.62.566-.005 1.11.218 1.51.62.823.832.823 2.171 0 3.005h-.012zM574.716 147.926c1.182-1.78.779-4.171-.922-5.467-1.7-1.296-4.117-1.052-5.524.557-1.407 1.61-1.323 4.033.191 5.541.752.782 1.788 1.229 2.874 1.237.685.002 1.36-.173 1.957-.507 5.861 7.525 6.42 17.896 1.402 26.007-5.019 8.11-14.557 12.25-23.919 10.38-.338-.068-.688.05-.916.308-.229.258-.302.619-.192.946.11.327.386.57.724.64 10.183 2.043 20.561-2.473 25.994-11.313s4.767-20.126-1.669-28.267v-.062zm-4.88-.742c-.603-.608-.782-1.518-.455-2.308.327-.791 1.097-1.31 1.954-1.316.565 0 1.108.223 1.51.619.83.83.83 2.175 0 3.005-.399.401-.944.624-1.51.619-.563.007-1.105-.216-1.499-.619z" transform="translate(-367 -157)"/>
                <path d="M551.283 179.886c0 .533.433.965.966.965h6.057c.533 0 .966-.432.966-.965v-1.88c1.27-.335 2.49-.838 3.628-1.496l1.326 1.323c.181.184.429.287.687.287.258 0 .506-.103.687-.287l4.273-4.28c.375-.376.375-.984 0-1.36l-1.325-1.323c.656-1.14 1.163-2.357 1.511-3.624h1.87c.534 0 .966-.432.966-.965v-6.048c0-.533-.432-.965-.966-.965h-1.87c-.345-1.268-.853-2.486-1.51-3.624l1.312-1.323c.185-.178.288-.424.285-.68-.001-.256-.104-.5-.285-.68l-4.273-4.268c-.181-.183-.429-.287-.687-.287-.259 0-.506.104-.688.287l-1.313 1.311c-1.14-.657-2.359-1.164-3.628-1.509v-1.855c0-.533-.433-.965-.966-.965h-6.057c-.533 0-.966.432-.966.965v1.855c-1.269.347-2.488.855-3.629 1.51l-1.25-1.312c-.182-.183-.43-.287-.688-.287-.258 0-.506.104-.688.287l-4.272 4.267c-.182.18-.284.425-.285.68-.004.257.1.503.285.68l1.312 1.324c-.659 1.136-1.163 2.355-1.498 3.624h-1.87c-.534 0-.967.432-.967.965v6.036c0 .535.431.97.967.977h1.87c.338 1.268.842 2.487 1.498 3.624l-1.325 1.323c-.375.376-.375.984 0 1.36l4.285 4.28c.182.18.426.282.682.285.255-.005.498-.107.68-.285l1.326-1.323c1.139.656 2.359 1.159 3.629 1.496l-.062 1.88zm-3.245-5.417c-.392-.257-.912-.2-1.238.136l-1.177 1.237-2.935-2.969 1.176-1.236c.333-.33.385-.849.124-1.237-.869-1.35-1.485-2.846-1.82-4.416-.1-.447-.496-.766-.954-.767h-1.66v-4.106h1.66c.458 0 .855-.32.953-.767.338-1.569.954-3.064 1.821-4.415.271-.386.218-.912-.124-1.237l-1.164-1.237 2.91-2.907 1.165 1.175c.33.332.849.384 1.238.124 1.35-.874 2.849-1.494 4.422-1.83.446-.094.766-.485.768-.94v-1.658h4.112v1.658c-.004.452.312.845.755.94 1.576.338 3.078.959 4.434 1.83.387.27.913.218 1.239-.124l1.176-1.175 2.91 2.907-1.238 1.237c-.342.325-.395.85-.124 1.237.871 1.35 1.492 2.846 1.833 4.415.09.448.484.77.942.767h1.66v4.106h-1.66c-.456.002-.848.322-.942.767-.339 1.57-.96 3.066-1.833 4.416-.26.388-.208.907.124 1.237l1.239 1.236-2.91 2.907-1.177-1.237c-.322-.345-.85-.403-1.239-.136-1.353.877-2.856 1.497-4.434 1.83-.445.1-.76.497-.755.953v1.67h-4.112v-1.67c-.001-.458-.32-.854-.768-.952-1.562-.315-3.052-.915-4.397-1.77z" transform="translate(-367 -157)"/>
                <path d="M563.272 163.263c0-3.233-1.95-6.147-4.942-7.383-2.991-1.236-6.434-.55-8.72 1.738-2.288 2.287-2.97 5.726-1.727 8.711 1.242 2.986 4.163 4.93 7.4 4.924 4.414-.007 7.989-3.582 7.989-7.99zm-14.057 0c-.005-2.452 1.47-4.666 3.737-5.608 2.268-.942 4.88-.426 6.618 1.306 1.739 1.732 2.26 4.34 1.322 6.606-.94 2.266-3.153 3.744-5.609 3.744-3.346 0-6.061-2.706-6.068-6.048zM546.403 184.364c-.26-.001-.51.101-.693.284-.175.184-.273.427-.273.68.002.39.237.74.597.888.36.149.774.067 1.05-.207.18-.181.283-.425.285-.68-.005-.255-.106-.498-.285-.68-.18-.182-.425-.284-.68-.285zM504.355 159.293c-.533 0-.966.432-.966.965v3.45c-.007 1.977-1.613 3.575-3.592 3.575h-5.511c-.256.002-.5.104-.681.284l-6.688 6.68v-6.036c.003-.258-.097-.507-.279-.69-.182-.184-.43-.288-.688-.288h-13.859c-.951.004-1.865-.371-2.539-1.042-.674-.67-1.052-1.582-1.052-2.532v-14.57c0-.951.378-1.864 1.052-2.536.673-.673 1.587-1.05 2.54-1.05h27.705c1.984 0 3.592 1.605 3.592 3.586v3.438c0 .533.433.965.966.965.534 0 .966-.432.966-.965v-3.438c0-3.047-2.473-5.516-5.524-5.516h-27.706c-3.05 0-5.524 2.47-5.524 5.516v12.368h-7.034c-2.052 0-3.716 1.662-3.716 3.71v8.906c0 2.05 1.664 3.71 3.716 3.71h2.96l4.793 4.787c.18.181.425.284.681.285.127 0 .254-.026.372-.074.362-.148.597-.5.594-.891v-4.106h7.431c2.052 0 3.716-1.662 3.716-3.71v-4.948h4.83v7.42c0 .39.235.742.595.891.118.049.244.074.371.075.256-.001.501-.104.681-.285l8.05-8.04h5.116c3.05 0 5.524-2.47 5.524-5.516v-3.45c-.018-.491-.402-.89-.892-.928zm-26.145 14.842c0 .997-.81 1.806-1.809 1.806h-8.434c-.534 0-.966.432-.966.965v2.733l-3.43-3.414c-.18-.183-.426-.286-.682-.284h-3.356c-1 0-1.809-.809-1.809-1.806v-8.905c0-.998.81-1.806 1.809-1.806h7.034v.272c0 3.047 2.474 5.516 5.524 5.516h6.119v4.923z" transform="translate(-367 -157)"/>
                <path d="M496.354 156.09c0-.259-.103-.506-.287-.687-.184-.181-.433-.282-.691-.278h-18.863c-.534 0-.966.432-.966.964 0 .533.432.965.966.965h18.863c.258.004.507-.097.69-.278.185-.181.288-.429.288-.687zM476.513 160.344c-.534 0-.966.432-.966.965 0 .533.432.965.966.965H487.4c.533 0 .966-.432.966-.965 0-.533-.433-.965-.966-.965h-10.887zM504.355 155.434c-.533 0-.966.432-.966.965 0 .532.433.964.966.964.534 0 .966-.432.966-.964 0-.533-.432-.965-.966-.965zM442.156 156.547h-.186l-.173.074c-1.847.929-4.024.929-5.87 0l-.174-.074h-.198c-2.278 0-4.125 1.844-4.125 4.119v4.947c0 1.366 1.11 2.474 2.477 2.474h9.909c1.368 0 2.477-1.108 2.477-2.474v-4.947c-.007-2.277-1.857-4.119-4.137-4.119zm2.477 9.066c0 .453-.364.822-.817.829h-9.909c-.458 0-.83-.371-.83-.829v-4.947c-.003-1.302 1.004-2.383 2.304-2.474 2.21 1.014 4.752 1.014 6.96 0 1.296.097 2.296 1.177 2.292 2.474v4.947zM407.477 156.547h-.186l-.173.074c-1.847.929-4.024.929-5.87 0l-.174-.074h-.198c-2.278 0-4.125 1.844-4.125 4.119v4.947c0 1.366 1.11 2.474 2.477 2.474h9.909c1.368 0 2.477-1.108 2.477-2.474v-4.947c-.007-2.277-1.857-4.119-4.137-4.119zm2.477 9.066c0 .453-.364.822-.817.829h-9.909c-.458 0-.83-.371-.83-.829v-4.947c-.003-1.302 1.004-2.383 2.304-2.474 2.21 1.014 4.752 1.014 6.96 0 1.296.097 2.296 1.177 2.292 2.474v4.947zM429.709 160.493c-.182-.413-.66-.606-1.078-.433-3.73 1.556-7.869 1.843-11.778.816l.768-.235c.392-.16.6-.59.483-.997-.118-.407-.524-.66-.942-.586l-3.306.977c-.077.03-.148.071-.211.124h-.087c-.177.155-.273.383-.26.618.023.113.052.224.087.334l1.66 3.154c.117.294.392.495.708.518.316.023.618-.135.778-.408.16-.273.15-.613-.025-.877l-.669-1.237c4.44 1.339 9.207 1.08 13.475-.73.385-.188.558-.642.397-1.038zM421.695 191.946c-8.437-8.428-21.693-9.65-31.533-2.907-.285.194-.445.526-.419.87.026.344.234.648.545.798.311.15.679.122.964-.073 9.69-6.708 22.902-4.939 30.479 4.082 7.576 9.022 7.022 22.322-1.28 30.683-8.302 8.36-21.616 9.027-30.713 1.536-9.097-7.49-10.98-20.669-4.344-30.4.235-.282.29-.672.142-1.007-.147-.335-.472-.558-.838-.575-.366-.018-.71.173-.89.493-7.406 10.78-5.134 25.454 5.187 33.497 10.32 8.043 25.127 6.677 33.798-3.118 8.67-9.795 8.211-24.637-1.048-33.88h-.05z" transform="translate(-367 -157)"/>
                <path d="M404.183 229.348c11.005-.014 19.92-8.923 19.928-19.914.003-2.215-.37-4.415-1.103-6.505-3.33-9.582-13.341-15.133-23.246-12.89-9.906 2.243-16.54 11.562-15.407 21.641 1.133 10.08 9.67 17.698 19.828 17.692v-.024zm17.995-19.914v1.373c-1.002.06-1.996.21-2.972.446.318-2.656-.07-5.348-1.127-7.805 1.115.198 2.23.408 3.332.643.543 1.73.818 3.531.817 5.343h-.05zm-6.477-6.345c1.475 2.694 1.97 5.815 1.4 8.832-4.45 1.801-7.833 5.53-9.19 10.13-2.428.7-5.004.7-7.432 0-1.362-4.6-4.75-8.33-9.202-10.13-.564-3.017-.07-6.136 1.4-8.832 7.644-1.088 15.404-1.088 23.049 0h-.025zm-26.505 8.164c-.97-.238-1.962-.387-2.96-.446v-1.373c.001-1.81.272-3.612.805-5.343 1.103-.235 2.217-.445 3.332-.643-1.067 2.455-1.473 5.145-1.177 7.805zm-2.7 1.484c7.14.573 12.643 6.526 12.646 13.68v.26c-6.502-1.908-11.386-7.291-12.646-13.94zm14.565 14.384v-.705c-.001-.766-.06-1.53-.173-2.288 2.15.478 4.378.478 6.527 0-.11.758-.163 1.523-.16 2.288v.705c-2.05.342-4.144.342-6.194 0zm8.15-.445v-.26c.01-7.155 5.516-13.106 12.658-13.68-1.27 6.649-6.156 12.03-12.658 13.94zm-5.028-35.238c7.032.009 13.417 4.105 16.348 10.489-10.797-2.144-21.912-2.144-32.71 0 2.94-6.379 9.33-10.465 16.362-10.464v-.025z" transform="translate(-367 -157)"/>
                <path d="M399.34 209.434c-.005 1.958 1.172 3.725 2.98 4.477 1.81.753 3.895.342 5.282-1.04 1.388-1.382 1.805-3.463 1.056-5.272-.749-1.809-2.516-2.988-4.475-2.988-2.67 0-4.836 2.157-4.843 4.823zm4.843-2.894c1.178 0 2.24.71 2.69 1.797.45 1.088.198 2.34-.637 3.17-.835.83-2.089 1.075-3.176.622-1.087-.454-1.793-1.518-1.788-2.695.003-.767.312-1.502.858-2.042.545-.54 1.284-.843 2.053-.84v-.012zM387.35 193.59c.255.004.5-.094.682-.272.38-.379.38-.993 0-1.372-.38-.38-.995-.38-1.375 0-.37.383-.37.99 0 1.372.188.177.436.274.694.273z" transform="translate(-367 -157)"/>
            </g>
        </g>
    </g>
</svg>
