<svg xmlns="http://www.w3.org/2000/svg" xmlns:xlink="http://www.w3.org/1999/xlink" width="129" height="202" viewBox="0 0 129 202">
    <defs>
        <circle id="prefix__a" cx="100" cy="100" r="100"/>
    </defs>
    <g fill="none" fill-rule="evenodd" transform="translate(1 1)">
        <mask id="prefix__b" fill="#fff">
            <use xlink:href="#prefix__a"/>
        </mask>
        <use fill="#D8D8D8" fill-opacity="0" stroke="#678189" stroke-dasharray="4.592 2.296" stroke-linecap="round" stroke-linejoin="round" stroke-width=".5" xlink:href="#prefix__a"/>
        <g mask="url(#prefix__b)" opacity=".2">
            <g fill="#678189" fill-rule="nonzero" opacity=".6">
                <path d="M518.09 239.49c.055-.172.038-.36-.045-.52-.084-.16-.228-.28-.4-.334-3.164-.617-6.414-.643-9.587-.074.572-3.172.543-6.424-.086-9.585-.086-.36-.444-.585-.805-.508-3.053 1.037-5.885 2.635-8.348 4.713-1.094-3.029-2.745-5.827-4.868-8.25-.277-.264-.713-.264-.99 0-2.123 2.423-3.774 5.221-4.868 8.25-2.463-2.078-5.295-3.676-8.348-4.713-.17-.053-.356-.037-.514.047-.158.084-.276.227-.328.399-.63 3.161-.659 6.413-.086 9.585-3.173-.568-6.424-.543-9.587.074-.365.086-.593.451-.508.817.1.334 2.601 8.225 9.24 12.195-1.625.79-3.186 1.704-4.67 2.733-.3.218-.372.636-.16.94.047.06.101.114.16.161.273.198 6.9 4.948 12.522 4.948 2.647.055 5.269-.512 7.654-1.658 2.38 1.147 5 1.715 7.642 1.658 5.623 0 12.25-4.725 12.522-4.948.303-.221.374-.643.16-.952-.044-.059-.098-.11-.16-.149-1.482-1.032-3.044-1.946-4.67-2.733 6.478-3.871 9.03-11.762 9.128-12.096zm-11.32-9.437c.347 2.152 1.003 8.484-2.006 13.68-2.24 3.488-5.464 6.237-9.264 7.903 2.652-3.574 4.167-7.862 4.347-12.307-.004-1.584-.22-3.16-.644-4.688 2.231-1.963 4.793-3.517 7.567-4.588zm-13.376-3.575c1.362 1.695 5.103 6.852 5.103 12.85 0 6-3.716 11.133-5.103 12.84-1.375-1.695-5.115-6.853-5.115-12.84 0-5.985 3.703-11.192 5.078-12.887l.037.037zm-13.426 3.575c2.774 1.071 5.336 2.625 7.568 4.588-.424 1.523-.64 3.095-.644 4.676.177 4.445 1.692 8.734 4.347 12.306-3.804-1.679-7.021-4.452-9.24-7.965-3.034-5.158-2.377-11.49-2.03-13.605zm-9.809 9.795c2.943-.471 5.947-.408 8.868.186.39 1.533.985 3.006 1.771 4.378 2.373 3.76 5.826 6.717 9.908 8.485-4.123.463-8.292-.307-11.976-2.214-5.177-3.03-7.79-8.843-8.57-10.872v.037zm30.84 19.27c-2.537.074-5.052-.496-7.308-1.657-.21-.124-.47-.124-.68 0-2.257 1.161-4.771 1.731-7.308 1.657-4.1 0-9.004-2.881-10.912-4.118 1.452-.935 2.972-1.762 4.546-2.474 2.854 1.272 5.953 1.905 9.078 1.855 1.662.003 3.32-.15 4.954-.457 1.633.308 3.292.462 4.954.457 3.126.05 6.224-.583 9.079-1.855 1.574.712 3.093 1.539 4.545 2.474-1.944 1.2-6.849 4.081-10.948 4.081v.037zm6.948-8.435c-3.685 1.907-7.853 2.677-11.977 2.214 4.083-1.768 7.536-4.725 9.908-8.485.786-1.372 1.382-2.845 1.772-4.378 2.92-.594 5.924-.657 8.867-.186-.755 1.992-3.368 7.805-8.508 10.798l-.062.037zM504.355 297.82c-.533 0-.966.431-.966.964v3.45c-.007 1.977-1.613 3.575-3.592 3.575h-5.511c-.256.003-.5.105-.681.285l-6.688 6.679v-6.036c.003-.258-.097-.507-.279-.69-.182-.184-.43-.287-.688-.287h-13.859c-.951.003-1.865-.372-2.539-1.043-.674-.67-1.052-1.582-1.052-2.532v-14.57c0-1.98 1.608-3.587 3.591-3.587h27.706c1.984 0 3.592 1.606 3.592 3.587v3.439c0 .532.433.964.966.964.534 0 .966-.432.966-.964v-3.439c0-3.046-2.473-5.516-5.524-5.516h-27.706c-3.05 0-5.524 2.47-5.524 5.516v12.369h-7.034c-2.052 0-3.716 1.66-3.716 3.71v8.905c0 2.05 1.664 3.711 3.716 3.711h2.96l4.793 4.787c.18.18.425.283.681.284.127 0 .254-.026.372-.074.362-.147.597-.5.594-.89v-4.107h7.431c2.052 0 3.716-1.661 3.716-3.71v-4.948h4.83v7.421c0 .39.235.74.595.89.118.05.244.074.371.075.256-.001.501-.103.681-.285l8.05-8.04h5.116c3.05 0 5.524-2.469 5.524-5.515v-3.451c-.018-.491-.402-.89-.892-.928zM478.21 312.66c0 .998-.81 1.806-1.809 1.806h-8.434c-.534 0-.966.432-.966.965v2.733l-3.43-3.413c-.18-.184-.426-.287-.682-.285h-3.356c-1 0-1.809-.808-1.809-1.806v-8.905c0-.997.81-1.806 1.809-1.806h7.034v.272c0 3.047 2.474 5.517 5.524 5.517h6.119v4.922z" transform="translate(-367 -157)"/>
                <path d="M495.376 288.432h-18.863c-.534 0-.966.432-.966.964 0 .533.432.965.966.965h18.863c.533 0 .966-.432.966-.965 0-.532-.433-.964-.966-.964zM496.354 294.616c0-.258-.103-.506-.287-.687-.184-.181-.433-.281-.691-.278h-18.863c-.534 0-.966.432-.966.965 0 .533.432.965.966.965h18.863c.258.003.507-.097.69-.279.185-.18.288-.428.288-.686zM476.513 298.87c-.534 0-.966.432-.966.965 0 .533.432.965.966.965H487.4c.533 0 .966-.432.966-.965 0-.533-.433-.964-.966-.964h-10.887zM421.522 257.14c-2.736 0-4.954 2.214-4.954 4.947 0 2.732 2.218 4.947 4.954 4.947 2.736 0 4.954-2.215 4.954-4.947 0-2.733-2.218-4.948-4.954-4.948zm0 8.25c-1.339.004-2.548-.797-3.064-2.03-.516-1.234-.236-2.657.709-3.604.945-.947 2.368-1.232 3.605-.721 1.237.51 2.045 1.715 2.045 3.052 0 1.819-1.473 3.295-3.295 3.302zM424.817 267.863h-.186l-.174.086c-1.85.915-4.02.915-5.87 0l-.174-.086h-.198c-2.278 0-4.124 1.844-4.124 4.119v4.947c0 1.366 1.109 2.474 2.477 2.474h9.908c1.368 0 2.477-1.108 2.477-2.474v-4.947c-.007-2.277-1.857-4.12-4.136-4.12zm2.477 9.066c0 .453-.364.822-.818.829h-9.908c-.22 0-.431-.088-.587-.243-.156-.155-.243-.366-.243-.586v-4.947c-.003-1.302 1.004-2.383 2.304-2.474 2.209 1.014 4.751 1.014 6.96 0 1.295.097 2.295 1.177 2.292 2.474v4.947zM438.861 284.35c-2.736 0-4.954 2.215-4.954 4.947 0 2.733 2.218 4.948 4.954 4.948 2.737 0 4.955-2.215 4.955-4.948 0-2.732-2.218-4.947-4.955-4.947zm0 8.25c-1.338.005-2.548-.797-3.064-2.03-.515-1.234-.235-2.656.71-3.603.944-.947 2.367-1.232 3.605-.722 1.237.51 2.044 1.716 2.044 3.052 0 1.82-1.473 3.296-3.295 3.303zM442.156 295.073h-.186l-.173.075c-1.847.928-4.024.928-5.87 0l-.174-.075h-.198c-2.278 0-4.125 1.844-4.125 4.12v4.946c0 1.367 1.11 2.474 2.477 2.474h9.909c1.368 0 2.477-1.107 2.477-2.474v-4.947c-.007-2.277-1.857-4.119-4.137-4.119zm2.477 9.066c0 .453-.364.822-.817.83h-9.909c-.458 0-.83-.372-.83-.83v-4.947c-.003-1.301 1.004-2.382 2.304-2.474 2.21 1.014 4.752 1.014 6.96 0 1.296.098 2.296 1.177 2.292 2.474v4.947zM404.183 284.35c-2.737 0-4.955 2.215-4.955 4.947 0 2.733 2.218 4.948 4.955 4.948 2.736 0 4.954-2.215 4.954-4.948 0-2.732-2.218-4.947-4.954-4.947zm0 8.25c-1.34.005-2.549-.797-3.064-2.03-.516-1.234-.236-2.656.708-3.603.945-.947 2.369-1.232 3.606-.722 1.237.51 2.044 1.716 2.044 3.052 0 1.82-1.473 3.296-3.294 3.303zM407.477 295.073h-.186l-.173.075c-1.847.928-4.024.928-5.87 0l-.174-.075h-.198c-2.278 0-4.125 1.844-4.125 4.12v4.946c0 1.367 1.11 2.474 2.477 2.474h9.909c1.368 0 2.477-1.107 2.477-2.474v-4.947c-.007-2.277-1.857-4.119-4.137-4.119zm2.477 9.066c0 .453-.364.822-.817.83h-9.909c-.458 0-.83-.372-.83-.83v-4.947c-.003-1.301 1.004-2.382 2.304-2.474 2.21 1.014 4.752 1.014 6.96 0 1.296.098 2.296 1.177 2.292 2.474v4.947zM429.709 299.019c-.182-.413-.66-.606-1.078-.433-3.73 1.557-7.869 1.843-11.778.816l.768-.235c.392-.16.6-.59.483-.997-.118-.407-.524-.66-.942-.586l-3.306.977c-.077.03-.148.071-.211.124h-.087c-.177.155-.273.383-.26.618.023.113.052.225.087.334l1.66 3.154c.117.294.392.495.708.518.316.024.618-.135.778-.408.16-.273.15-.613-.025-.877l-.669-1.236c4.44 1.338 9.207 1.08 13.475-.73.385-.19.558-.643.397-1.04zM443.605 278.821c-.154-.155-.363-.243-.582-.243-.219 0-.429.088-.582.243l-1.164 1.163c-.691-7.22-5.282-13.485-11.965-16.326-.42-.174-.903.018-1.09.433-.172.423.026.906.446 1.088 5.992 2.549 10.157 8.11 10.912 14.57l-.93-.928c-.32-.32-.842-.32-1.163 0-.322.321-.322.842 0 1.163l2.477 2.474c.153.155.363.243.582.243.219 0 .428-.088.582-.243l2.477-2.474c.156-.153.244-.363.244-.581 0-.219-.088-.428-.244-.582zM414.883 264.276c.007-.045.007-.09 0-.136l-.086-.111-.087-.136-.16-.112h-.1l-3.32-1.57c-.423-.17-.905.034-1.077.457-.17.393 0 .85.384 1.04l1.71.79c-6.428 3.448-10.439 10.142-10.441 17.428-.04.318.108.63.38.801.27.171.616.171.887 0s.419-.483.38-.801c-.004-6.422 3.398-12.367 8.942-15.622l-.607 1.237c-.196.41-.024.901.384 1.101.113.05.236.075.36.074.315.007.606-.172.742-.457l1.66-3.451c.007-.058.007-.116 0-.173.007-.045.007-.091 0-.136.026-.072.043-.147.05-.223zM421.695 330.472c-8.437-8.428-21.693-9.65-31.533-2.907-.285.195-.445.526-.419.87.026.344.234.649.545.798.311.15.679.122.964-.072 9.69-6.709 22.902-4.94 30.479 4.082 7.576 9.02 7.022 22.322-1.28 30.682s-21.616 9.027-30.713 1.537c-9.097-7.49-10.98-20.67-4.344-30.401.235-.282.29-.671.142-1.006-.147-.335-.472-.558-.838-.576-.366-.017-.71.174-.89.493-7.406 10.78-5.134 25.455 5.187 33.497 10.32 8.043 25.127 6.677 33.798-3.118 8.67-9.795 8.211-24.637-1.048-33.88h-.05z" transform="translate(-367 -157)"/>
                <path d="M404.183 367.874c11.005-.014 19.92-8.923 19.928-19.913.003-2.215-.37-4.415-1.103-6.506-3.33-9.582-13.341-15.132-23.246-12.89-9.906 2.243-16.54 11.562-15.407 21.642 1.133 10.08 9.67 17.698 19.828 17.692v-.025zm17.995-19.913v1.373c-1.002.06-1.996.208-2.972.445.318-2.655-.07-5.347-1.127-7.805 1.115.198 2.23.409 3.332.644.543 1.729.818 3.53.817 5.343h-.05zm-6.477-6.345c1.475 2.693 1.97 5.814 1.4 8.83-4.45 1.803-7.833 5.532-9.19 10.13-2.428.7-5.004.7-7.432 0-1.362-4.6-4.75-8.329-9.202-10.13-.564-3.016-.07-6.135 1.4-8.83 7.644-1.089 15.404-1.089 23.049 0h-.025zm-26.505 8.163c-.97-.237-1.962-.386-2.96-.445v-1.373c.001-1.811.272-3.612.805-5.343 1.103-.235 2.217-.446 3.332-.644-1.067 2.455-1.473 5.145-1.177 7.805zm-2.7 1.484c7.14.574 12.643 6.526 12.646 13.68v.26c-6.502-1.908-11.386-7.291-12.646-13.94zm14.565 14.385v-.705c-.001-.766-.06-1.531-.173-2.289 2.15.479 4.378.479 6.527 0-.11.758-.163 1.523-.16 2.289v.705c-2.05.342-4.144.342-6.194 0zm8.15-.446v-.26c.01-7.155 5.516-13.106 12.658-13.679-1.27 6.648-6.156 12.029-12.658 13.94zm-5.028-35.237c7.032.008 13.417 4.104 16.348 10.488-10.797-2.144-21.912-2.144-32.71 0 2.94-6.378 9.33-10.465 16.362-10.464v-.024z" transform="translate(-367 -157)"/>
                <path d="M399.34 347.96c-.005 1.958 1.172 3.725 2.98 4.478 1.81.752 3.895.341 5.282-1.04 1.388-1.383 1.805-3.464 1.056-5.273-.749-1.808-2.516-2.988-4.475-2.988-2.67 0-4.836 2.158-4.843 4.824zm4.843-2.893c1.178 0 2.24.71 2.69 1.797.45 1.087.198 2.339-.637 3.169-.835.83-2.089 1.076-3.176.622-1.087-.454-1.793-1.517-1.788-2.694.003-.768.312-1.503.858-2.043.545-.54 1.284-.842 2.053-.84v-.011zM387.35 332.117c.255.003.5-.094.682-.272.38-.38.38-.994 0-1.373-.38-.38-.995-.38-1.375 0-.37.383-.37.99 0 1.373.188.176.436.273.694.272zM504.355 159.293c-.533 0-.966.432-.966.965v3.45c-.007 1.977-1.613 3.575-3.592 3.575h-5.511c-.256.002-.5.104-.681.284l-6.688 6.68v-6.036c.003-.258-.097-.507-.279-.69-.182-.184-.43-.288-.688-.288h-13.859c-.951.004-1.865-.371-2.539-1.042-.674-.67-1.052-1.582-1.052-2.532v-14.57c0-.951.378-1.864 1.052-2.536.673-.673 1.587-1.05 2.54-1.05h27.705c1.984 0 3.592 1.605 3.592 3.586v3.438c0 .533.433.965.966.965.534 0 .966-.432.966-.965v-3.438c0-3.047-2.473-5.516-5.524-5.516h-27.706c-3.05 0-5.524 2.47-5.524 5.516v12.368h-7.034c-2.052 0-3.716 1.662-3.716 3.71v8.906c0 2.05 1.664 3.71 3.716 3.71h2.96l4.793 4.787c.18.181.425.284.681.285.127 0 .254-.026.372-.074.362-.148.597-.5.594-.891v-4.106h7.431c2.052 0 3.716-1.662 3.716-3.71v-4.948h4.83v7.42c0 .39.235.742.595.891.118.049.244.074.371.075.256-.001.501-.104.681-.285l8.05-8.04h5.116c3.05 0 5.524-2.47 5.524-5.516v-3.45c-.018-.491-.402-.89-.892-.928zm-26.145 14.842c0 .997-.81 1.806-1.809 1.806h-8.434c-.534 0-.966.432-.966.965v2.733l-3.43-3.414c-.18-.183-.426-.286-.682-.284h-3.356c-1 0-1.809-.809-1.809-1.806v-8.905c0-.998.81-1.806 1.809-1.806h7.034v.272c0 3.047 2.474 5.516 5.524 5.516h6.119v4.923z" transform="translate(-367 -157)"/>
                <path d="M496.354 156.09c0-.259-.103-.506-.287-.687-.184-.181-.433-.282-.691-.278h-18.863c-.534 0-.966.432-.966.964 0 .533.432.965.966.965h18.863c.258.004.507-.097.69-.278.185-.181.288-.429.288-.687zM476.513 160.344c-.534 0-.966.432-.966.965 0 .533.432.965.966.965H487.4c.533 0 .966-.432.966-.965 0-.533-.433-.965-.966-.965h-10.887zM442.156 156.547h-.186l-.173.074c-1.847.929-4.024.929-5.87 0l-.174-.074h-.198c-2.278 0-4.125 1.844-4.125 4.119v4.947c0 1.366 1.11 2.474 2.477 2.474h9.909c1.368 0 2.477-1.108 2.477-2.474v-4.947c-.007-2.277-1.857-4.119-4.137-4.119zm2.477 9.066c0 .453-.364.822-.817.829h-9.909c-.458 0-.83-.371-.83-.829v-4.947c-.003-1.302 1.004-2.383 2.304-2.474 2.21 1.014 4.752 1.014 6.96 0 1.296.097 2.296 1.177 2.292 2.474v4.947zM407.477 156.547h-.186l-.173.074c-1.847.929-4.024.929-5.87 0l-.174-.074h-.198c-2.278 0-4.125 1.844-4.125 4.119v4.947c0 1.366 1.11 2.474 2.477 2.474h9.909c1.368 0 2.477-1.108 2.477-2.474v-4.947c-.007-2.277-1.857-4.119-4.137-4.119zm2.477 9.066c0 .453-.364.822-.817.829h-9.909c-.458 0-.83-.371-.83-.829v-4.947c-.003-1.302 1.004-2.383 2.304-2.474 2.21 1.014 4.752 1.014 6.96 0 1.296.097 2.296 1.177 2.292 2.474v4.947zM429.709 160.493c-.182-.413-.66-.606-1.078-.433-3.73 1.556-7.869 1.843-11.778.816l.768-.235c.392-.16.6-.59.483-.997-.118-.407-.524-.66-.942-.586l-3.306.977c-.077.03-.148.071-.211.124h-.087c-.177.155-.273.383-.26.618.023.113.052.224.087.334l1.66 3.154c.117.294.392.495.708.518.316.023.618-.135.778-.408.16-.273.15-.613-.025-.877l-.669-1.237c4.44 1.339 9.207 1.08 13.475-.73.385-.188.558-.642.397-1.038zM421.695 191.946c-8.437-8.428-21.693-9.65-31.533-2.907-.285.194-.445.526-.419.87.026.344.234.648.545.798.311.15.679.122.964-.073 9.69-6.708 22.902-4.939 30.479 4.082 7.576 9.022 7.022 22.322-1.28 30.683-8.302 8.36-21.616 9.027-30.713 1.536-9.097-7.49-10.98-20.669-4.344-30.4.235-.282.29-.672.142-1.007-.147-.335-.472-.558-.838-.575-.366-.018-.71.173-.89.493-7.406 10.78-5.134 25.454 5.187 33.497 10.32 8.043 25.127 6.677 33.798-3.118 8.67-9.795 8.211-24.637-1.048-33.88h-.05z" transform="translate(-367 -157)"/>
                <path d="M404.183 229.348c11.005-.014 19.92-8.923 19.928-19.914.003-2.215-.37-4.415-1.103-6.505-3.33-9.582-13.341-15.133-23.246-12.89-9.906 2.243-16.54 11.562-15.407 21.641 1.133 10.08 9.67 17.698 19.828 17.692v-.024zm17.995-19.914v1.373c-1.002.06-1.996.21-2.972.446.318-2.656-.07-5.348-1.127-7.805 1.115.198 2.23.408 3.332.643.543 1.73.818 3.531.817 5.343h-.05zm-6.477-6.345c1.475 2.694 1.97 5.815 1.4 8.832-4.45 1.801-7.833 5.53-9.19 10.13-2.428.7-5.004.7-7.432 0-1.362-4.6-4.75-8.33-9.202-10.13-.564-3.017-.07-6.136 1.4-8.832 7.644-1.088 15.404-1.088 23.049 0h-.025zm-26.505 8.164c-.97-.238-1.962-.387-2.96-.446v-1.373c.001-1.81.272-3.612.805-5.343 1.103-.235 2.217-.445 3.332-.643-1.067 2.455-1.473 5.145-1.177 7.805zm-2.7 1.484c7.14.573 12.643 6.526 12.646 13.68v.26c-6.502-1.908-11.386-7.291-12.646-13.94zm14.565 14.384v-.705c-.001-.766-.06-1.53-.173-2.288 2.15.478 4.378.478 6.527 0-.11.758-.163 1.523-.16 2.288v.705c-2.05.342-4.144.342-6.194 0zm8.15-.445v-.26c.01-7.155 5.516-13.106 12.658-13.68-1.27 6.649-6.156 12.03-12.658 13.94zm-5.028-35.238c7.032.009 13.417 4.105 16.348 10.489-10.797-2.144-21.912-2.144-32.71 0 2.94-6.379 9.33-10.465 16.362-10.464v-.025z" transform="translate(-367 -157)"/>
                <path d="M399.34 209.434c-.005 1.958 1.172 3.725 2.98 4.477 1.81.753 3.895.342 5.282-1.04 1.388-1.382 1.805-3.463 1.056-5.272-.749-1.809-2.516-2.988-4.475-2.988-2.67 0-4.836 2.157-4.843 4.823zm4.843-2.894c1.178 0 2.24.71 2.69 1.797.45 1.088.198 2.34-.637 3.17-.835.83-2.089 1.075-3.176.622-1.087-.454-1.793-1.518-1.788-2.695.003-.767.312-1.502.858-2.042.545-.54 1.284-.843 2.053-.84v-.012zM387.35 193.59c.255.004.5-.094.682-.272.38-.379.38-.993 0-1.372-.38-.38-.995-.38-1.375 0-.37.383-.37.99 0 1.372.188.177.436.274.694.273z" transform="translate(-367 -157)"/>
            </g>
        </g>
    </g>
</svg>
