<svg xmlns="http://www.w3.org/2000/svg" width="32" height="32" viewBox="0 0 32 32">
    <g fill="none" fill-rule="evenodd">
        <path fill="#5EBE84" d="M25.275 7.667c.089.144.243.223.4.223.084 0 .169-.022.245-.07l2.541-1.562c.22-.136.29-.425.154-.645-.136-.22-.424-.29-.645-.154l-2.54 1.563c-.221.136-.29.425-.155.645zM31.577 10.782l-3.725-.362c-.258-.025-.487.163-.512.421-.025.258.163.487.421.512l3.725.362.046.002c.238 0 .442-.181.466-.423.025-.258-.164-.487-.421-.512zM23.374 4.394c.055.021.113.032.17.032.187 0 .364-.114.436-.3L25.337.64c.094-.242-.026-.513-.267-.607-.241-.094-.513.026-.607.267l-1.357 3.488c-.093.241.026.513.268.607z"/>
        <path fill="#678189" d="M20.063 1.81c-.315-.51-.986-.67-1.496-.354l-.561.346c-.247.152-.42.392-.487.674-.067.283-.02.575.132.822l.323.522-7.371 9.125-1.557.96c-.22.137-.288.426-.152.646.088.143.242.222.4.222.083 0 .168-.022.245-.07l1.226-.756 2.389 3.872c-.346-.022-.69.05-1.003.21l-.016.008-.125.07-1.401.87c-.154.096-.296.208-.425.335-.156.152-.292.324-.403.512l-.346.522-.254.383-.007-.003-.011-.005c-.02-.009-.04-.019-.058-.03l-.012-.006c-.021-.012-.041-.026-.06-.04-.005-.003-.009-.006-.012-.01-.018-.013-.035-.028-.052-.043l-.006-.006c-.017-.017-.034-.035-.05-.055l-.01-.012c-.016-.02-.03-.04-.044-.062l-2.026-3.283c-.095-.155-.125-.338-.083-.515.042-.178.15-.328.305-.423l.607-.374c.22-.136.289-.425.153-.645-.136-.22-.425-.289-.645-.153l-.607.374c-.368.227-.625.584-.725 1.005-.064.271-.057.549.016.81l-.45.278c-.604.373-.792 1.167-.42 1.77l1.144 1.854c.18.293.464.497.798.576.1.024.2.035.3.035.235 0 .466-.065.672-.192l.451-.278c.095.085.198.16.309.22l-1.302 1.96-.307.21c-.064-.032-.134-.053-.208-.059-.15-.013-.297.034-.413.13l-.807.68c-.188-.12-.435-.122-.629.01l-.026.02-4.547 3.589c-.266.21-.419.525-.419.864v1.46c0 .608.494 1.102 1.101 1.102H8.54c.336 0 .649-.15.859-.412l.617-.767c.108-.124.153-.282.137-.435l.83-.699c.081-.068.14-.155.172-.253l1.913.392c.028.006.057.009.086.01l.167.001c.453 0 .904-.046 1.377-.332l1.927-1.148c.032.002.064.004.096.004.279 0 .552-.077.796-.226l1.548-.946c.72-.44.948-1.384.508-2.104-.15-.246-.363-.439-.614-.566.243-.465.244-1.044-.05-1.524-.212-.348-.547-.594-.942-.693.081-.375.025-.781-.19-1.134-.204-.334-.52-.572-.893-.68.102-.391.051-.823-.176-1.195-.06-.097-.128-.184-.205-.265l9.289-2.021.322.522c.205.333.562.516.927.516.195 0 .392-.052.57-.161l.56-.346c.247-.153.42-.392.487-.675.067-.282.02-.574-.133-.822L20.063 1.81zM7.406 20.776c-.08.05-.173.064-.263.043-.091-.022-.168-.077-.217-.156l-1.144-1.854c-.1-.164-.05-.379.114-.48l.397-.245 1.51 2.447-.397.245zm1.261 9.707c-.031.04-.078.061-.128.061H1.101c-.09 0-.163-.073-.163-.163v-1.46c0-.051.022-.098.062-.13l4.264-3.366 3.844 4.51-.441.548zm.953-1.393L6.25 25.135l.499-.42 3.346 3.976-.474.399zm4.595-.907c-.286.173-.555.204-1.003.198l-2.401-.493c-.057-.011-.114-.012-.17-.003l-2.948-3.503.267-.183h.001l.013-.01.03-.023.013-.013.027-.027.01-.012.03-.039.002-.003.003-.003.002-.004 2.479-3.734.015-.024c.125-.216.304-.4.518-.533l1.401-.87c.026-.015.053-.03.08-.043l.035-.017c.015-.006.028-.013.043-.018l.05-.019.026-.008c.02-.007.04-.013.062-.018.075-.018.152-.027.228-.028h.005c.023 0 .045.001.067.003l.022.002.058.007c.012.001.024.004.035.006.03.006.06.013.089.021l.033.01.044.016.035.014.043.02.031.016c.014.008.029.016.042.025.01.005.02.012.029.018l.04.028.025.02c.014.01.027.021.04.033.064.058.12.124.167.2l.034.056.5.815.627 1.024.16.26c.014.025.027.05.036.077.03.08.034.168.014.254-.03.124-.109.23-.22.3l-.283.172c-.02.012-.04.022-.06.03l-.013.006c-.02.008-.04.015-.062.02l-.007.002c-.02.005-.04.008-.059.01l-.011.002c-.021.002-.042.002-.063.001h-.012c-.02-.002-.042-.004-.063-.008-.023-.005-.044-.012-.065-.02l-.006-.001c-.043-.017-.084-.04-.121-.07-.02-.016-.036-.032-.051-.049l-.004-.005c-.015-.017-.028-.035-.04-.054l-.467-.764c-.174-.284-.45-.484-.778-.562-.335-.08-.683-.022-.978.161-.12.074-.199.197-.218.335-.005.04-.012.08-.019.118-.005.029-.011.057-.018.084-.002.01-.003.02-.006.029-.008.035-.017.07-.027.104l-.001.004c-.053.18-.126.346-.221.498-.175.28-.422.517-.745.714-.221.134-.291.422-.157.644.135.22.423.291.644.157.229-.14.43-.295.608-.467l1.957 3.087c.361.56.984.884 1.63.884l.102-.003.041.072c.056.09.119.173.19.249l-1.386.825zm.398-3.446l.025.066.003.008.026.058.006.013.028.054.008.015c.012.023.026.046.04.069.023.038.048.075.075.11l.029.038.053.065.04.044.03.03c.039.038.078.074.12.108l.013.01c.08.064.167.12.259.166-.085.16-.14.332-.166.51-.309-.019-.601-.182-.774-.45l-2.155-3.398c.1-.206.177-.427.23-.661.033-.002.066 0 .1.009.082.02.151.069.194.139l.467.764.003.003c.023.037.047.073.074.108.02.026.04.05.061.074l.022.025c0 .005.002.009.003.013.007.032.016.065.025.096l.008.028c.012.036.024.072.038.107l.004.011c.013.032.028.064.043.095l.014.027c.017.034.035.068.056.1.212.349.546.594.941.694-.06.28-.044.575.057.852zm.299-5.579l.157-.096c.139-.085.303-.11.461-.073.158.039.292.136.377.275.175.287.084.662-.202.837l-.157.096-.463-.756-.173-.283zm3.493 5.63c.154.038.284.133.367.268.17.279.082.645-.197.815l-1.548.947c-.124.076-.269.102-.411.077l-.025-.005-.013-.002c-.154-.037-.284-.132-.367-.267-.037-.061-.06-.126-.074-.192l-.001-.005c-.037-.193.025-.39.157-.526l.011-.011.021-.02.022-.018.017-.014.043-.029h.001l.308-.189c.054-.025.107-.052.159-.084l1.184-.724c.11-.04.23-.049.346-.02zm-1.078-2.054c.126-.06.267-.076.405-.042.158.038.292.135.377.274.175.287.084.662-.202.837l-.28.17c-.054.026-.107.054-.16.086l-1.178.72c-.22.086-.467.036-.635-.12-.014-.012-.026-.024-.038-.038l-.01-.011c-.008-.01-.017-.02-.025-.032-.012-.015-.023-.03-.033-.047-.01-.017-.02-.034-.028-.052l-.008-.017-.015-.037-.007-.02-.01-.035-.005-.02-.007-.037-.003-.019-.004-.038-.001-.018v-.04-.016c0-.014.002-.027.004-.04 0-.006 0-.011.002-.017l.006-.035c.027-.126.093-.243.196-.333l.012-.012.017-.015.044-.025 1.521-.93.065-.041zm-.729-1.87c.159.038.292.136.377.274.163.268.096.612-.146.8l-.047.026-1.174.718.011-.01c.023-.017.045-.036.066-.055l.039-.036c.019-.018.038-.037.056-.057l.036-.04c.017-.02.033-.04.049-.062l.032-.044c.015-.021.03-.043.043-.065.01-.015.02-.03.028-.046l.038-.072.022-.046.034-.083.015-.04c.015-.042.027-.085.038-.129.01-.042.018-.084.024-.126l.005-.04c.003-.029.006-.057.007-.086l.002-.047v-.08l-.003-.048-.009-.08-.006-.044c-.005-.03-.011-.06-.019-.09l-.007-.033c-.01-.04-.023-.08-.037-.119l-.01-.023c-.01-.026-.02-.053-.032-.079l.108-.066c.139-.085.302-.11.46-.072zm11.147-4.735c-.006.023-.022.065-.068.093l-.56.346c-.07.043-.163.022-.206-.049L21.007 6.95c-.136-.22-.425-.288-.645-.152-.22.136-.289.424-.153.645l5.06 8.2-10.893 2.371-2.885-4.676 7.005-8.672.566.918c.136.22.425.288.645.153.22-.136.289-.425.153-.646l-1.41-2.285c-.03-.046-.024-.09-.02-.113.006-.023.022-.065.068-.093l.56-.346c.071-.044.163-.022.207.048l8.461 13.714c.029.046.024.09.019.113z"/>
    </g>
</svg>
