<svg xmlns="http://www.w3.org/2000/svg" width="32" height="19" viewBox="0 0 32 19">
    <g fill="none" fill-rule="evenodd">
        <g fill-rule="nonzero">
            <path fill="#678189" d="M28.932 15.237H16.544v-.876h12.388c.363 0 .657-.295.657-.658 0-.363-.294-.658-.657-.658h-1.54c-.307-5.86-4.988-10.543-10.848-10.853h-1.316C9.365 2.505 4.685 7.195 4.384 13.059H2.832c-.363 0-.658.294-.658.657 0 .363.295.658.658.658h12.405v.876H2.832C1.274 15.253.01 16.511 0 18.07c0 .36.292.653.653.653h30.47c.361 0 .653-.292.653-.653 0-.753-.301-1.475-.835-2.006-.534-.53-1.257-.828-2.01-.826zM5.699 13.06c.352-5.38 4.818-9.562 10.209-9.562 5.39 0 9.857 4.182 10.21 9.562H5.697zm-4.244 4.353c.253-.533.788-.873 1.377-.877h26.1c.589.004 1.123.344 1.376.877H1.455z" transform="translate(0 -6) translate(0 6.137)"/>
            <path fill="#5EBE84" d="M18.722.653c0-.36-.292-.653-.653-.653h-4.357c-.363 0-.658.294-.658.658 0 .363.295.657.658.657h4.357c.175 0 .342-.07.465-.194.123-.125.19-.293.188-.468z" transform="translate(0 -6) translate(0 6.137)"/>
        </g>
    </g>
</svg>
