<svg xmlns="http://www.w3.org/2000/svg" width="32" height="32" viewBox="0 0 32 32">
    <g fill="none" fill-rule="evenodd">
        <path fill="#678189" d="M29.333 3.2h-2.666V2.133C26.667.955 25.712 0 24.533 0 23.355 0 22.4.955 22.4 2.133V3.2h-4.267V2.133C18.133.955 17.178 0 16 0s-2.133.955-2.133 2.133V3.2H9.6V2.133C9.6.955 8.645 0 7.467 0 6.288 0 5.333.955 5.333 2.133V3.2H2.667C1.194 3.2 0 4.394 0 5.867V27.2c0 .707.281 1.386.781 1.886s1.178.78 1.886.78H17.6c.295 0 .533-.238.533-.533 0-.294-.238-.533-.533-.533H2.667c-.883-.003-1.598-.717-1.6-1.6V10.667h29.866v9.066c0 .295.24.534.534.534.294 0 .533-.24.533-.534V5.867C32 4.394 30.806 3.2 29.333 3.2zm-5.866-1.067c0-.589.477-1.066 1.066-1.066.59 0 1.067.477 1.067 1.066v3.2c0 .59-.478 1.067-1.067 1.067s-1.066-.478-1.066-1.067v-3.2zm-8.534 0c0-.589.478-1.066 1.067-1.066.59 0 1.067.477 1.067 1.066v3.2c0 .59-.478 1.067-1.067 1.067-.59 0-1.067-.478-1.067-1.067v-3.2zm-8.533 0c0-.589.478-1.066 1.067-1.066s1.066.477 1.066 1.066v3.2c0 .59-.477 1.067-1.066 1.067-.59 0-1.067-.478-1.067-1.067v-3.2zM30.933 9.6H1.067V5.867c.002-.883.717-1.598 1.6-1.6h2.666v1.066c0 1.179.955 2.134 2.134 2.134 1.178 0 2.133-.955 2.133-2.134V4.267h4.267v1.066c0 1.179.955 2.134 2.133 2.134s2.133-.955 2.133-2.134V4.267H22.4v1.066c0 1.179.955 2.134 2.133 2.134 1.179 0 2.134-.955 2.134-2.134V4.267h2.666c.883.002 1.598.717 1.6 1.6V9.6z"/>
        <path fill="#F8D0B6" d="M14.933 14.4c0-.59-.477-1.067-1.066-1.067h-2.134c-.589 0-1.066.478-1.066 1.067V16c0 .59.477 1.067 1.066 1.067h2.134c.589 0 1.066-.478 1.066-1.067v-1.6zm-3.2 1.6v-1.6h2.134V16h-2.134zM8.533 14.4c0-.59-.477-1.067-1.066-1.067H5.333c-.589 0-1.066.478-1.066 1.067V16c0 .59.477 1.067 1.066 1.067h2.134c.589 0 1.066-.478 1.066-1.067v-1.6zm-3.2 1.6v-1.6h2.134V16H5.333zM26.667 17.067c.589 0 1.066-.478 1.066-1.067v-1.6c0-.59-.477-1.067-1.066-1.067h-2.134c-.589 0-1.066.478-1.066 1.067V16c0 .59.477 1.067 1.066 1.067h2.134zM24.533 14.4h2.134V16h-2.134v-1.6zM14.933 19.2c0-.59-.477-1.067-1.066-1.067h-2.134c-.589 0-1.066.478-1.066 1.067v1.6c0 .59.477 1.067 1.066 1.067h2.134c.589 0 1.066-.478 1.066-1.067v-1.6zm-3.2 1.6v-1.6h2.134v1.6h-2.134zM8.533 19.2c0-.59-.477-1.067-1.066-1.067H5.333c-.589 0-1.066.478-1.066 1.067v1.6c0 .59.477 1.067 1.066 1.067h2.134c.589 0 1.066-.478 1.066-1.067v-1.6zm-3.2 1.6v-1.6h2.134v1.6H5.333zM13.867 22.933h-2.134c-.589 0-1.066.478-1.066 1.067v1.6c0 .59.477 1.067 1.066 1.067h2.134c.589 0 1.066-.478 1.066-1.067V24c0-.59-.477-1.067-1.066-1.067zM11.733 25.6V24h2.134v1.6h-2.134zM18.133 17.067h2.134c.589 0 1.066-.478 1.066-1.067v-1.6c0-.59-.477-1.067-1.066-1.067h-2.134c-.589 0-1.066.478-1.066 1.067V16c0 .59.477 1.067 1.066 1.067zm0-2.667h2.134V16h-2.134v-1.6zM17.067 20.8c0 .59.477 1.067 1.066 1.067.295 0 .534-.24.534-.534 0-.294-.24-.533-.534-.533v-1.6h2.134c.294 0 .533-.239.533-.533 0-.295-.239-.534-.533-.534h-2.134c-.589 0-1.066.478-1.066 1.067v1.6zM7.467 22.933H5.333c-.589 0-1.066.478-1.066 1.067v1.6c0 .59.477 1.067 1.066 1.067h2.134c.589 0 1.066-.478 1.066-1.067V24c0-.59-.477-1.067-1.066-1.067zM5.333 25.6V24h2.134v1.6H5.333z"/>
        <path fill="#678189" d="M25.067 18.133c-3.83 0-6.934 3.104-6.934 6.934 0 3.829 3.104 6.933 6.934 6.933C28.896 32 32 28.896 32 25.067c-.004-3.828-3.106-6.93-6.933-6.934zm0 12.8c-3.24 0-5.867-2.626-5.867-5.866 0-3.24 2.627-5.867 5.867-5.867s5.866 2.627 5.866 5.867c-.003 3.238-2.628 5.863-5.866 5.866z"/>
        <path fill="#5EBE84" d="M28.148 22.83L24 26.98l-1.885-1.887c-.21-.202-.542-.199-.748.007-.206.206-.209.538-.006.747l2.262 2.263c.208.209.546.209.754 0l4.525-4.525c.203-.21.2-.542-.006-.748-.206-.205-.538-.208-.748-.006z"/>
    </g>
</svg>
