<svg xmlns="http://www.w3.org/2000/svg" width="32" height="32" viewBox="0 0 32 32">
    <g fill="none" fill-rule="evenodd">
        <path fill="#F8D0B6" d="M26.57 4.563c.103.143.274.221.45.205.175-.017.328-.126.402-.286.073-.16.055-.348-.047-.491-.844-1.192-2.625-1.25-5.29-.172-.952.393-1.877.848-2.769 1.362v1.142c1.764-1.08 6.16-3.307 7.255-1.76zM4.639 3.99c-.102.144-.12.332-.047.492.074.16.227.27.402.286.176.016.347-.062.45-.205 1.104-1.56 5.573.724 7.302 1.792V5.209c-.907-.526-1.848-.99-2.817-1.39-2.666-1.078-4.446-1.02-5.29.172z"/>
        <path fill="#678189" d="M31.508 6.444h-2.601c.52-.728.645-1.668.332-2.506L28.45 1.82c-.264-.71-.813-1.277-1.514-1.562-.701-.285-1.49-.263-2.174.062l-6.237 2.964c-.32-.227-.701-.349-1.093-.348H14.63c-.391 0-.774.123-1.092.351L7.3.322c-.684-.324-1.473-.346-2.174-.06-.701.284-1.25.85-1.514 1.56l-.789 2.115c-.263.71-.218 1.497.125 2.172.06.116.129.228.205.334H.556c-.131 0-.257.052-.35.145-.092.093-.144.218-.144.35v3.548c-.006.18.087.35.242.441.155.092.348.092.503 0 .155-.092.248-.261.241-.441V7.43h3.424c.055.02.11.037.167.053l4.138 1.142c-.92 1.411-1.731 2.891-2.425 4.427H1.048v-.591c.007-.18-.086-.35-.241-.442-.155-.092-.348-.092-.503 0-.155.092-.248.261-.242.442v1.084c0 .272.221.493.494.493h1.756v17.45c0 .13.052.256.145.349.092.092.218.144.349.144h26.45c.273 0 .493-.22.493-.493v-2.863c.007-.18-.086-.35-.24-.442-.156-.092-.349-.092-.504 0-.155.092-.248.262-.241.442v2.37h-9.776V14.337c1.401 2.652 2.34 5.523 2.777 8.49.029.198.173.358.366.407.04.01.082.015.125.015.154 0 .3-.073.393-.196.719-.955 1.374-1.957 1.962-2.997 1.008.688 1.969 1.442 2.878 2.256.155.137.379.163.56.065.183-.097.285-.298.256-.503-.397-2.693-1.125-5.326-2.168-7.84h2.625v12.616c0 .273.221.493.494.493.272 0 .493-.22.493-.493V14.035h1.758c.272 0 .492-.221.492-.493V6.938c0-.131-.051-.256-.143-.349-.093-.092-.218-.144-.349-.145zm-6.32-5.23c.434-.207.934-.222 1.38-.04.445.18.794.54.961.99l.784 2.118c.167.45.138.95-.081 1.378-.22.428-.608.744-1.071.872l-7.845 2.16V4.817c0-.256-.052-.509-.153-.744l6.024-2.86zM13.732 4.816c0-.495.401-.897.896-.897h2.804c.495 0 .897.402.897.897V8.89c0 .495-.402.897-.897.897H14.63c-.495 0-.896-.402-.896-.897V4.817zM4.9 6.532c-.463-.127-.852-.444-1.07-.871-.22-.428-.248-.928-.081-1.378l.786-2.119c.168-.45.516-.809.96-.99.445-.18.945-.166 1.379.04l6.025 2.86c-.102.234-.154.487-.154.743v3.875l-7.845-2.16zm4.875 2.365l3.19.879c.25.463.68.803 1.188.937-2.307 3.222-3.889 6.905-4.636 10.796-.526-.772-1.012-1.57-1.456-2.393-.065-.122-.179-.211-.313-.245s-.277-.01-.392.067c-.83.54-1.631 1.125-2.4 1.75.805-4.212 2.443-8.221 4.82-11.791h-.001zm3.297 22.095H3.3V14.035h2.625c-1.042 2.513-1.77 5.145-2.167 7.836-.028.205.074.406.256.503.182.098.406.072.56-.065.91-.813 1.873-1.566 2.881-2.254.588 1.04 1.244 2.042 1.962 2.997.094.125.24.198.396.198.042 0 .083-.005.122-.016.193-.049.337-.21.366-.406.436-2.967 1.374-5.838 2.774-8.49v16.655zm4.929 0h-3.94V14.035H18l.002 16.957zM13.8 13.05c.473-.785.986-1.544 1.537-2.275h1.387c.551.73 1.064 1.49 1.537 2.275H13.8zm13.307 7.639c-.77-.625-1.571-1.209-2.401-1.75-.116-.076-.258-.1-.392-.067-.134.034-.248.123-.314.245-.445.823-.933 1.622-1.461 2.395-.747-3.892-2.33-7.575-4.637-10.797.509-.133.94-.473 1.187-.937l3.193-.879c2.377 3.57 4.017 7.578 4.825 11.79zm3.907-7.642h-5.303c-.694-1.533-1.505-3.011-2.425-4.421l4.138-1.14c.056-.015.112-.032.167-.052h3.423v5.613z"/>
    </g>
</svg>
