<svg xmlns="http://www.w3.org/2000/svg" width="32" height="32" viewBox="0 0 32 32">
    <g fill="none" fill-rule="evenodd">
        <path fill="#F8D0B6" d="M16.791 15.21c-.244-.245-.64-.245-.884 0-.244.243-.244.639 0 .883s.64.244.884 0 .244-.64 0-.884z"/>
        <path fill="#678189" fill-rule="nonzero" d="M24.746 7.254c-1.221-1.22-3.198-1.22-4.42 0-1.218 1.218-1.218 3.2 0 4.42 1.219 1.218 3.201 1.218 4.42 0 1.22-1.221 1.221-3.198 0-4.42zm-.884 3.536c-.73.73-1.92.73-2.652 0-.73-.731-.73-1.92 0-2.652.733-.732 1.92-.733 2.652 0 .733.733.733 1.92 0 2.652z"/>
        <path fill="#678189" fill-rule="nonzero" d="M31.817.183c-.123-.123-.29-.19-.465-.183-.14.005-3.506.14-7.505 1.554-3.205 1.132-5.877 2.752-7.94 4.816-.463.462-.913.953-1.343 1.462-2.04-1.2-3.676-.824-4.71-.271-2.38 1.274-3.853 4.732-3.853 7.206 0 .253.153.48.386.577.077.032.159.048.24.048.162 0 .322-.064.441-.183 1.255-1.255 2.804-1.177 3.31-1.11l.218.219c-.43 1.025-.777 2.044-1.032 3.035-.092.359-.06.738.076 1.086-.602.277-1.183.684-1.688 1.19-1.609 1.609-1.936 5.53-1.949 5.696-.014.182.052.361.181.49.118.118.277.184.442.184.017 0 .033 0 .05-.002.166-.013 4.087-.34 5.695-1.949.506-.505.913-1.085 1.19-1.687.368.144.746.162 1.086.075.991-.254 2.01-.601 3.036-1.032l.218.219c.067.506.145 2.054-1.11 3.309-.178.179-.232.447-.135.68.096.235.324.387.577.387 2.474 0 5.932-1.473 7.206-3.854.553-1.033.93-2.668-.271-4.709.509-.43 1-.88 1.462-1.343 2.064-2.063 3.684-4.735 4.816-7.94 1.413-4 1.548-7.364 1.553-7.506.007-.173-.06-.341-.182-.464zM7.399 13.423c.388-1.88 1.515-3.941 3.045-4.76 1.023-.547 2.14-.494 3.329.157-1.013 1.331-1.893 2.766-2.626 4.28-.01-.005-.122-.147-.331-.194-.086-.02-1.74-.375-3.418.517zm4.089 9.741c-.86.86-2.876 1.313-4.15 1.498.185-1.274.638-3.29 1.498-4.15.481-.48 1.039-.846 1.6-1.051l2.103 2.103c-.205.561-.57 1.12-1.051 1.6zm2.849-1.939c-.181.046-.39-.022-.546-.177l-1.224-1.224-1.614-1.614c-.156-.156-.224-.366-.178-.546.2-.78.462-1.58.78-2.388l5.169 5.169c-.808.318-1.608.58-2.387.78zm9 .33c-.819 1.53-2.88 2.658-4.76 3.047.6-1.128.732-2.563.513-3.433-.05-.202-.183-.304-.19-.316 1.514-.733 2.949-1.613 4.28-2.626.65 1.189.704 2.306.157 3.329zm1.41-6.346c-.564.564-1.17 1.108-1.803 1.617-1.522 1.225-3.196 2.263-4.983 3.089l-5.876-5.876c.826-1.787 1.864-3.461 3.089-4.982.51-.634 1.054-1.24 1.617-1.803 1.851-1.852 4.241-3.325 7.104-4.386l5.237 5.237c-1.06 2.863-2.534 5.253-4.386 7.104zm4.835-8.422l-4.369-4.369c2.38-.74 4.451-1.016 5.485-1.115-.1 1.033-.377 3.104-1.116 5.484z"/>
        <path fill="#5EBE84" fill-rule="nonzero" d="M15.023 25.816c-.244-.244-.64-.244-.884 0l-1.767 1.768c-.244.244-.244.64 0 .884s.64.244.884 0l1.767-1.769c.244-.244.244-.64 0-.883zM6.185 16.977c-.244-.244-.64-.244-.884 0l-1.768 1.767c-.244.244-.245.64 0 .884.243.244.64.244.883 0l1.768-1.767c.245-.244.245-.64 0-.884zM10.604 26.7c-.244-.244-.64-.244-.884 0l-4.234 4.233c-.244.244-.244.64 0 .884s.64.244.884 0l4.234-4.233c.244-.244.244-.64 0-.884zM5.604 26.7c-.244-.244-.64-.244-.884 0L.486 30.933c-.244.244-.244.64 0 .884s.64.244.884 0l4.234-4.233c.244-.244.244-.64 0-.884zM5.3 21.396c-.244-.244-.64-.244-.884 0L.183 25.63c-.244.244-.244.64 0 .884s.64.244.884 0L5.3 22.28c.244-.244.244-.64 0-.884z"/>
        <path fill="#F8D0B6" d="M19.443 12.557c-.244-.244-.64-.244-.884 0l-.884.884c-.244.244-.244.64 0 .884s.64.244.884 0l.884-.884c.244-.244.244-.64 0-.884z"/>
    </g>
</svg>
