<svg xmlns="http://www.w3.org/2000/svg" width="32" height="32" viewBox="0 0 32 32">
    <g fill="none" fill-rule="evenodd">
        <path fill="#F8D0B6" d="M15.98.017c.616-.032 1.234-.02 1.85.037.19.018.355.135.435.308.08.174.06.376-.05.532-.11.155-.295.24-.485.222-.563-.053-1.13-.065-1.695-.036-1.68.118-3.35.359-4.994.72-2.15.427-3.753 1.19-4.77 2.267-.841.9-1.49 1.962-1.91 3.12-.197.576-.357 1.164-.48 1.76-.129.498-.307.981-.532 1.444-.1.224-.2.447-.287.675-.052.12-.081.248-.086.379.023.157.226.343.442.54.44.31.725.796.78 1.332-.01.253-.08.5-.205.72-.666 1.403-1.482 2.73-2.435 3.957-.405.493-.492.689-.492.77.099.095.206.182.32.258.139.097.285.182.438.255.454.232 1.077.55 1.204 1.2.076.402.027.818-.142 1.19-.092.196-.188.369-.272.516-.027.045-.055.096-.08.143.223.177.522.403.65.497.115.085.192.214.211.357.02.143-.02.288-.109.4-.08.104-.148.214-.205.33l.114.066c.47.203.828.6.983 1.087.078.38.06.774-.054 1.146-.024.108-.05.22-.065.327-.028.32.017.642.132.943.119.49.6.802 1.096.708 1.55-.373 3.078-.835 4.575-1.384.557-.188 1.059-.363 1.454-.501.368-.13.65-.227.794-.273 2.213-.705 2.661-1.502 2.649-2.047-.007-.294.225-.537.52-.544.14-.006.278.046.38.143.102.098.161.232.163.374.03 1.322-1.11 2.36-3.389 3.087-.139.047-.409.14-.767.266l-.479.167c.88.973 1.52 2.136 1.875 3.399l12.073-.036-.036-.054c-.153-.22-.29-.452-.412-.692-.265-.537-.486-1.094-.66-1.667-.325-1.09-.55-2.208-.672-3.339-.21-1.78.06-3.585.78-5.227.425-.888.951-1.725 1.567-2.494.31-.416.629-.846.905-1.283.447-.694.77-1.459.958-2.262.07-.282.354-.456.637-.39.283.065.461.346.4.63-.214.92-.585 1.798-1.097 2.593-.297.468-.629.915-.948 1.346-.567.705-1.052 1.471-1.446 2.285-.645 1.468-.886 3.082-.7 4.674.116 1.067.327 2.12.63 3.15.16.52.36 1.027.601 1.515.102.2.217.391.345.575.226.31.408.65.54 1.011.05.162.021.338-.079.474-.1.137-.259.218-.428.218l-13.36.037c-.245 0-.459-.166-.518-.403-.197-.803-.955-2.943-2.154-3.647-1.469.534-2.967.983-4.488 1.343-.143.03-.288.045-.435.046-.88-.015-1.647-.606-1.885-1.453-.172-.458-.233-.949-.18-1.434.02-.142.05-.28.081-.418.067-.208.087-.428.059-.645-.044-.164-.166-.247-.48-.426-.124-.071-.252-.146-.372-.231-.172-.124-.285-.312-.313-.522-.02-.267.04-.535.174-.768-.181-.139-.38-.293-.495-.399-.492-.402-.166-.979.03-1.323.07-.126.154-.273.233-.443.075-.17.097-.357.063-.539-.027-.138-.413-.335-.643-.453-.193-.091-.378-.198-.553-.32-.38-.215-.66-.574-.773-.997-.084-.548.32-1.096.706-1.566.91-1.174 1.692-2.443 2.329-3.785.04-.072.071-.15.09-.23-.002-.148-.174-.316-.434-.555-.393-.29-.67-.71-.78-1.185-.025-.305.024-.612.146-.894.095-.251.205-.494.312-.736.19-.39.342-.795.456-1.213.134-.652.309-1.295.525-1.924.469-1.293 1.195-2.478 2.135-3.483 1.19-1.258 2.935-2.1 5.335-2.579 1.695-.372 3.416-.619 5.148-.739zm9.54-.016c.458-.002.854.323.943.773l.24 1.205c.212.072.419.158.619.257l1.027-.686c.382-.25.887-.198 1.21.124l.708.708c.32.318.375.816.134 1.196l-.698 1.04c.1.2.185.407.257.618l1.21.242c.448.09.77.485.769.942v1.001c.002.46-.323.855-.774.944l-1.204.24c-.072.211-.158.418-.258.618l.687 1.028c.25.382.198.886-.124 1.21l-.708.708c-.18.181-.425.283-.68.283-.183 0-.362-.052-.517-.15l-.802-.538c-.147.287-.417.491-.733.555l-1.59.32c-.101.307-.226.607-.373.896l.9 1.345c.284.425.225.992-.14 1.35l-.883.882c-.356.358-.915.416-1.337.14l-1.352-.906c-.288.147-.588.272-.896.373l-.32 1.593c-.1.496-.537.852-1.043.851h-1.256c-.507 0-.945-.357-1.045-.854l-.319-1.59c-.308-.102-.608-.226-.896-.373l-1.346.9c-.425.282-.99.223-1.348-.14l-.884-.883c-.357-.356-.415-.915-.139-1.337l.905-1.352c-.147-.288-.272-.588-.373-.896l-1.592-.32c-.496-.1-.852-.537-.852-1.043v-1.256c0-.507.357-.944.854-1.045l1.59-.32c.101-.307.226-.607.373-.896l-.9-1.345c-.284-.425-.225-.991.14-1.349l.883-.883c.357-.358.915-.416 1.338-.139l1.351.905c.289-.147.589-.272.896-.373l.32-1.592c.101-.496.538-.852 1.044-.852h1.256c.07 0 .14.008.21.023l.478-.48c.319-.318.816-.374 1.197-.132l1.04.697c.2-.1.406-.186.618-.258l.241-1.21c.09-.449.485-.77.943-.77zm-5.728 3.194h-1.256l-.384 1.904c-.039.197-.186.355-.38.408-.44.119-.862.294-1.257.522-.176.102-.394.095-.563-.018L14.34 4.93l-.888.891 1.078 1.611c.113.17.12.388.018.563-.228.395-.403.817-.522 1.257-.053.195-.21.343-.409.383l-1.905.383v1.256l1.904.38c.197.04.356.189.408.384.12.44.294.862.522 1.256.102.176.095.395-.018.564l-1.08 1.612.892.887 1.61-1.077c.17-.113.388-.12.564-.018.394.227.816.403 1.256.521.195.053.343.211.383.41l.383 1.905h1.256l.381-1.904c.04-.198.188-.356.383-.409.44-.119.862-.294 1.256-.522.176-.102.395-.095.564.018l1.612 1.081.887-.892-1.077-1.61c-.113-.17-.12-.388-.018-.564.228-.395.403-.817.521-1.257.053-.195.212-.343.41-.383l1.905-.382v-1.257l-1.904-.38c-.198-.04-.356-.189-.409-.383-.118-.44-.294-.863-.522-1.257-.102-.176-.094-.394.019-.563l1.08-1.613-.892-.887-1.61 1.078c-.17.113-.388.12-.564.018-.394-.228-.817-.403-1.257-.522-.194-.053-.343-.211-.382-.409l-.383-1.905zm-.628 3.726c2.058 0 3.726 1.668 3.726 3.726s-1.668 3.726-3.726 3.726c-2.057-.003-3.724-1.67-3.726-3.726 0-2.058 1.668-3.726 3.726-3.726zm0 1.064c-1.47.002-2.66 1.192-2.662 2.662 0 1.47 1.192 2.661 2.662 2.661s2.661-1.191 2.661-2.661-1.191-2.662-2.661-2.662zm6.271-6.92h-.832L24.317 2.5c-.04.199-.188.358-.383.41-.342.091-.67.228-.974.407-.177.105-.398.1-.569-.015l-1.217-.818-.374.375c.015.041.027.083.036.126l.32 1.59c.308.101.607.226.896.373l1.344-.9c.22-.144.485-.203.745-.165.306-.1.625-.153.947-.155 1.301-.004 2.474.784 2.963 1.99.488 1.206.194 2.588-.743 3.49.236.204.373.5.372.812v.544l1.187.793.59-.59-.816-1.217c-.114-.171-.12-.392-.015-.569.18-.305.316-.632.407-.974.053-.195.212-.344.41-.383l1.434-.286v-.833L29.44 6.22c-.198-.04-.357-.189-.41-.384-.09-.341-.227-.67-.407-.974-.105-.176-.099-.398.016-.568l.816-1.218-.591-.59-1.217.816c-.17.115-.391.123-.569.019-.304-.18-.632-.317-.974-.408-.195-.052-.343-.211-.383-.41l-.286-1.437zm-.054 3.755l.249.248c.357.359.414.918.137 1.34l-.905 1.351c.147.29.272.589.373.897l.808.16c.833-.415 1.299-1.325 1.147-2.243-.153-.918-.886-1.63-1.809-1.753z"/>
    </g>
</svg>
