<?xml version="1.0" encoding="UTF-8"?>
<svg width="304px" height="72px" viewBox="0 0 304 72" version="1.1" xmlns="http://www.w3.org/2000/svg" xmlns:xlink="http://www.w3.org/1999/xlink">
    <!-- Generator: Sketch 63.1 (92452) - https://sketch.com -->
    <title>Path Copy 2</title>
    <desc>Created with Sketch.</desc>
    <g id="Page-2" stroke="none" stroke-width="1" fill="none" fill-rule="evenodd">
        <g id="Home-page-v3" transform="translate(-752.000000, -304.000000)" fill="#FFFFFF" fill-rule="nonzero">
            <g id="Group-40" transform="translate(96.000000, 176.000000)">
                <g id="Group-37" transform="translate(656.000000, 0.000000)">
                    <path d="M100.66,152.018305 C94.3596107,152.073856 88.6307844,148.375318 86.09,142.611894 C82.3256742,133.752638 73.6289383,128 64,128 C54.3710617,128 45.6743258,133.752638 41.91,142.611894 C39.3692156,148.375318 33.6403893,152.073856 27.34,152.018305 L0,152.018305 L0,192.003051 C0,196.419644 3.581722,200 8,200 L296,200 C300.418278,200 304,196.419644 304,192.003051 L304,152.018305 L100.66,152.018305 Z" id="Path-Copy-2" transform="translate(152.000000, 164.000000) scale(-1, 1) translate(-152.000000, -164.000000) "></path>
                </g>
            </g>
        </g>
    </g>
</svg>