<svg xmlns="http://www.w3.org/2000/svg" width="31" height="31" viewBox="0 0 31 31">
    <g fill="none" fill-rule="evenodd">
        <g>
            <path fill="#678189" d="M5.306 23.33c-.422 0-.828.106-1.189.304-1.897-2.433-2.939-5.454-2.939-8.55 0-7.668 6.238-13.906 13.906-13.906.932 0 1.864.093 2.77.276.318.065.63-.142.694-.46.064-.32-.142-.63-.461-.695C17.105.101 16.095 0 15.084 0 11.055 0 7.267 1.569 4.418 4.418S0 11.055 0 15.084c0 3.39 1.15 6.697 3.246 9.348-.27.403-.415.877-.415 1.373 0 .661.258 1.283.725 1.75.468.467 1.089.725 1.75.725s1.283-.258 1.75-.725c.467-.467.725-1.09.725-1.75 0-.66-.258-1.283-.725-1.75-.467-.467-1.089-.725-1.75-.725zm.917 3.392c-.245.245-.57.38-.917.38-.346 0-.672-.135-.916-.38-.245-.245-.38-.57-.38-.917 0-.346.135-.672.38-.917.244-.245.57-.38.916-.38.346 0 .672.136.917.38.244.245.38.57.38.917 0 .346-.136.672-.38.917zM26.922 5.735c.64-.96.538-2.274-.31-3.122-.467-.467-1.089-.724-1.75-.724-.66 0-1.282.257-1.75.724-.467.468-.724 1.09-.724 1.75 0 .661.257 1.283.724 1.75.468.468 1.09.725 1.75.725.423 0 .829-.105 1.189-.303 1.897 2.432 2.939 5.454 2.939 8.55 0 7.667-6.238 13.905-13.906 13.905-.923 0-1.846-.091-2.743-.27-.319-.064-.63.143-.693.462-.064.319.143.63.462.693.973.195 1.974.293 2.974.293 4.03 0 7.817-1.569 10.666-4.418 2.85-2.849 4.418-6.637 4.418-10.666 0-3.39-1.15-6.697-3.246-9.349zm-2.976-.455c-.245-.245-.38-.57-.38-.917 0-.346.135-.671.38-.916.244-.245.57-.38.916-.38.346 0 .672.135.917.38.505.505.505 1.328 0 1.833-.245.245-.57.38-.917.38-.346 0-.672-.135-.916-.38z" transform="translate(.431 .431)"/>
            <path fill="#678189" d="M12.653 25.219c0 .325.264.59.589.59h3.684c.326 0 .59-.265.59-.59v-1.142c.774-.209 1.515-.516 2.21-.917l.807.807c.11.11.26.172.417.172.156 0 .306-.062.417-.173l2.604-2.606c.23-.23.23-.603 0-.833l-.806-.805c.401-.696.708-1.437.917-2.212h1.138c.325 0 .589-.264.589-.59v-3.683c0-.326-.264-.59-.59-.59h-1.137c-.209-.774-.516-1.515-.917-2.21l.802-.802c.11-.11.172-.26.172-.417 0-.156-.062-.306-.173-.417L21.36 6.197c-.23-.23-.603-.23-.833 0l-.8.8c-.696-.4-1.437-.707-2.212-.916V4.95c0-.325-.263-.589-.589-.589h-3.684c-.325 0-.59.264-.59.59V6.08c-.774.209-1.514.516-2.21.917l-.8-.8c-.23-.23-.604-.23-.834 0L6.202 8.801c-.11.11-.173.26-.173.416 0 .156.062.307.173.417l.801.801c-.4.696-.708 1.437-.916 2.211H4.95c-.326 0-.59.264-.59.59L4.36 16.92c0 .156.062.306.173.417.11.11.26.172.417.172h1.138c.208.775.515 1.516.916 2.212l-.806.805c-.23.23-.23.603 0 .833l2.605 2.606c.11.11.26.173.416.173.157 0 .307-.062.417-.172l.806-.807c.697.401 1.437.708 2.212.917v1.142zm-1.98-3.298c-.234-.151-.54-.118-.737.078l-.718.717-1.77-1.772.716-.717c.196-.196.229-.503.078-.736-.534-.827-.91-1.733-1.116-2.694-.058-.271-.298-.465-.576-.465H5.538l.001-2.506H6.55c.278 0 .518-.194.576-.466.206-.96.582-1.866 1.116-2.693.151-.233.118-.54-.078-.736l-.712-.713 1.772-1.77.712.71c.196.197.503.23.736.08.827-.535 1.733-.91 2.694-1.117.271-.058.465-.298.465-.576V5.539h2.506v1.006c0 .278.194.518.465.576.96.206 1.867.582 2.694 1.116.233.15.54.118.736-.078l.712-.712 1.772 1.771-.712.713c-.196.196-.229.503-.078.736.534.827.91 1.733 1.116 2.693.058.272.298.466.576.466h1.013v2.506h-1.013c-.278 0-.518.194-.576.465-.206.96-.582 1.867-1.116 2.693-.15.234-.118.54.078.737l.717.717-1.771 1.772-.718-.717c-.196-.197-.503-.229-.736-.078-.827.534-1.733.91-2.694 1.116-.271.058-.465.298-.465.576v1.017h-2.506v-1.017c0-.278-.194-.518-.465-.576-.96-.206-1.867-.582-2.694-1.116z" transform="translate(.431 .431)"/>
            <path fill="#5EBE84" d="M19.953 15.084c0-2.684-2.184-4.869-4.869-4.869-2.684 0-4.869 2.185-4.869 4.87 0 2.684 2.185 4.868 4.87 4.868 2.684 0 4.868-2.184 4.868-4.869zm-8.56 0c0-2.035 1.656-3.69 3.691-3.69s3.69 1.656 3.69 3.69c0 2.035-1.655 3.69-3.69 3.69s-3.69-1.655-3.69-3.69z" transform="translate(.431 .431)"/>
            <path fill="#F8D0B6" d="M20.51 2.228c.155 0 .307-.063.416-.172.11-.11.173-.262.173-.417 0-.155-.063-.307-.173-.417-.11-.11-.261-.173-.416-.173-.156 0-.307.063-.417.173-.11.11-.173.262-.173.417 0 .155.063.307.173.417.11.11.261.172.417.172zM9.684 27.95c-.154 0-.307.064-.416.173-.11.11-.173.262-.173.417 0 .155.063.307.173.416.11.11.262.173.416.173.155 0 .308-.063.417-.173.11-.11.173-.261.173-.416 0-.155-.063-.307-.173-.417-.11-.11-.262-.173-.417-.173z" transform="translate(.431 .431)"/>
        </g>
    </g>
</svg>
