<svg xmlns="http://www.w3.org/2000/svg" width="32" height="32" viewBox="0 0 32 32">
    <g fill="none" fill-rule="evenodd">
        <g fill-rule="nonzero">
            <path fill="#678189" d="M26.416 4.524C21.143-.74 12.862-1.5 6.716 2.715c-.24.2-.287.548-.11.805.176.256.52.336.791.185C13.47-.455 21.716.689 26.422 6.345c4.706 5.657 4.323 13.963-.884 19.163-5.207 5.2-13.524 5.583-19.187.883-5.664-4.7-6.81-12.936-2.645-19 .152-.272.072-.615-.185-.791-.256-.176-.606-.128-.805.11-4.628 6.736-3.208 15.905 3.24 20.93S21.654 31.81 27.07 25.69c5.417-6.12 5.13-15.393-.655-21.167z" transform="translate(.444 .444)"/>
            <path fill="#678189" d="M15.475 27.893c6.873-.009 12.442-5.57 12.45-12.434.003-1.387-.23-2.764-.688-4.073-2.08-5.981-8.33-9.446-14.513-8.046-6.183 1.4-10.326 7.216-9.62 13.509.704 6.292 6.031 11.05 12.371 11.051v-.007zm11.243-12.434v.857c-.626.031-1.248.122-1.857.27.2-1.656-.044-3.335-.704-4.868.696.116 1.393.248 2.081.394.34 1.083.513 2.212.511 3.347h-.03zm-4.047-3.973c.921 1.683 1.23 3.633.875 5.518-2.78 1.126-4.893 3.456-5.742 6.33-1.516.437-3.126.437-4.642 0-.851-2.875-2.968-5.205-5.75-6.33-.351-1.885-.042-3.833.875-5.518 4.777-.67 9.623-.67 14.4 0h-.016zm-16.558 5.1c-.607-.149-1.226-.24-1.85-.27v-.857c0-1.135.17-2.263.503-3.347.689-.146 1.385-.278 2.082-.394-.667 1.531-.92 3.21-.735 4.869zm-1.687.951c4.46.359 7.898 4.078 7.9 8.547v.155c-4.06-1.19-7.11-4.55-7.9-8.702zm9.1 8.995V26.1c-.001-.479-.037-.957-.109-1.43 1.344.289 2.734.289 4.078 0-.07.473-.103.951-.1 1.43v.432c-1.28.224-2.59.224-3.87 0zm5.09-.278V26.1c.007-4.471 3.447-8.19 7.909-8.547-.796 4.15-3.848 7.509-7.908 8.701zm-3.14-22.009c4.392.002 8.381 2.559 10.213 6.546-6.746-1.34-13.69-1.34-20.435 0 1.83-3.995 5.823-6.558 10.221-6.561v.015z" transform="translate(.444 .444)"/>
            <path fill="#F8D0B6" d="M12.45 15.459c0 1.668 1.354 3.021 3.025 3.021 1.671 0 3.026-1.353 3.026-3.021 0-1.67-1.355-3.022-3.026-3.022-1.67 0-3.025 1.353-3.025 3.022zm3.025-1.817c1.005 0 1.819.814 1.819 1.817 0 1.002-.814 1.816-1.819 1.816-1.004 0-1.818-.814-1.818-1.816 0-1.003.814-1.817 1.818-1.817z" transform="translate(.444 .444)"/>
            <path fill="#5EBE84" d="M4.96 5.56c.16-.001.313-.065.425-.179.238-.236.238-.62 0-.857-.237-.237-.621-.237-.859 0-.23.24-.23.618 0 .857.117.113.272.176.434.178z" transform="translate(.444 .444)"/>
        </g>
    </g>
</svg>
