<svg xmlns="http://www.w3.org/2000/svg" width="29" height="32" viewBox="0 0 29 32">
    <g fill="none">
        <path fill="#5EBE84" d="M20.988 24.444c-.341 0-.618.277-.618.618 0 .34.277.617.618.617.34 0 .617-.277.617-.617 0-.341-.277-.618-.617-.618z"/>
        <path fill="#678189" d="M22.508 22.448l-2.934-.977-1.054-2.107c.95-.966 1.608-2.244 1.83-3.577l.132-.787h1.123c1.021 0 1.852-.83 1.852-1.852V9.26c0-5.105-4.154-9.259-9.26-9.259C9.08 0 4.939 4.142 4.939 9.26v3.888c0 .805.516 1.491 1.235 1.746v.723c0 1.021.83 1.852 1.852 1.852h.542c.267.581.614 1.12 1.035 1.603.088.101.179.198.272.293l-1.053 2.106-2.934.977C2.476 23.586 0 27.178 0 30.988c0 .34.276.617.617.617h27.16c.342 0 .618-.276.618-.617 0-3.81-2.476-7.402-5.887-8.54zm-.286-9.3c0 .34-.277.617-.617.617h-.942c.157-1.215.261-2.508.303-3.782l.004-.106h1.252v3.271zm-15.432.617c-.34 0-.617-.276-.617-.617V9.877h1.253l.006.194v.006c.044 1.24.147 2.5.3 3.688H6.79zm1.235 2.47c-.34 0-.618-.277-.618-.618V15h.506l.132.788c.025.15.056.298.091.447h-.111zm-.617-7.593H6.196c.313-4.137 3.766-7.407 8.002-7.407 4.217 0 7.684 3.27 8 7.407h-1.211c-.045-3.41-2.82-6.173-6.237-6.173h-1.105c-3.416 0-6.192 2.764-6.237 6.173zm6.237-4.938h1.105c2.766 0 5.005 2.262 5.003 5.025 0 .194-.001.363-.005.517v.006l-.772-.11c-2.097-.3-4.078-1.29-5.577-2.788-.115-.116-.272-.181-.436-.181-1.658 0-3.245.755-4.294 2.031.259-2.513 2.384-4.5 4.976-4.5zm-4.229 12.53c-.309-1.027-.663-4.052-.74-5.99l.83-1.108c.763-1.017 1.95-1.65 3.213-1.722 1.662 1.582 3.811 2.626 6.083 2.95l.908.13c-.06 1.29-.185 2.583-.362 3.773v.001c-.057.382-.102.629-.216 1.316-.326 1.961-1.79 3.734-3.721 4.217-.795.199-1.632.199-2.427 0-1.206-.301-2.311-1.136-3.025-2.332h1.258c.255.719.941 1.235 1.746 1.235h1.235c1.023 0 1.851-.829 1.851-1.852 0-1.021-.83-1.852-1.851-1.852h-1.235c-.823 0-1.499.531-1.747 1.235h-1.8zm3.495 4.816c.423.09.855.135 1.287.135.337 0 .675-.028 1.009-.083l-1.09 1.154-1.206-1.206zm.357 2.103l-1.958 2.07c-.54-1.031-1.002-2.105-1.382-3.204l.735-1.47 2.605 2.604zm4.36-2.814l.84 1.68c-.381 1.1-.844 2.175-1.383 3.205L14.99 23.13l2.638-2.79zm-5.282-3.487c0-.341.276-.617.617-.617h1.235c.34 0 .617.276.617.617 0 .34-.277.617-.617.617h-1.235c-.34 0-.617-.277-.617-.617zM1.259 30.37c.245-3.058 2.28-5.837 5.019-6.75l2.598-.866c.476 1.316 1.066 2.595 1.757 3.81l.004.007c.505.888 1.073 1.756 1.69 2.58l.759 1.22H1.259zm12.939-.55l-.838-1.344c-.009-.015-.019-.03-.03-.044-.5-.667-.966-1.364-1.39-2.078l2.2-2.328 2.32 2.32c-.427.719-.895 1.42-1.395 2.086-.03.04.012-.023-.867 1.388zm1.111.55l.76-1.219c.619-.827 1.191-1.702 1.701-2.6l.01-.017v-.002c.683-1.203 1.266-2.472 1.739-3.778l2.598.866c2.739.913 4.774 3.692 5.019 6.75H15.309z"/>
        <path fill="#5EBE84" d="M25.28 27.872c-.412-.825-1.016-1.559-1.747-2.121-.27-.208-.658-.158-.865.113-.208.27-.158.657.112.865.584.45 1.067 1.035 1.396 1.695.153.306.524.428.828.276.305-.152.429-.523.277-.828z"/>
    </g>
</svg>
