<svg xmlns="http://www.w3.org/2000/svg" width="32" height="20" viewBox="0 0 32 20">
    <g fill="none" fill-rule="evenodd">
        <path fill="#5EBE84" d="M31.644 14.9c-1.609-.771-3.347-1.144-5.077-1.123.018-1.743-.368-3.481-1.13-5.056-.112-.232-.353-.371-.613-.353-1.748.13-3.449.665-4.953 1.55-.847-1.5-2.038-2.81-3.51-3.81-.214-.144-.495-.144-.709 0-1.474 1.002-2.666 2.314-3.513 3.816-1.507-.889-3.21-1.425-4.963-1.556-.258-.019-.501.121-.613.353-.762 1.575-1.148 3.313-1.13 5.055-1.73-.02-3.468.353-5.077 1.125-.233.112-.373.354-.354.611.28 3.743 2.394 7.097 5.651 8.97C7.407 25.493 9.368 26 11.333 26c1.588 0 3.179-.332 4.667-.998 1.488.667 3.079.998 4.666.998 1.966 0 3.927-.508 5.68-1.517 3.258-1.874 5.371-5.228 5.652-8.97.02-.258-.121-.5-.354-.612zm-7.16-5.24c.571 1.324.853 2.762.824 4.201-1.377.17-2.728.59-3.982 1.262-.043-1.421-.354-2.8-.898-4.077 1.234-.742 2.622-1.217 4.056-1.386zm-16.969 0c1.44.17 2.83.646 4.067 1.392-.543 1.277-.853 2.657-.896 4.078-1.257-.675-2.612-1.099-3.994-1.269-.03-1.439.252-2.877.823-4.201zM6.282 23.397c-2.771-1.594-4.61-4.392-4.984-7.547 2.928-1.255 6.28-1.067 9.052.528.132.076.262.156.39.237.298 2.936 1.737 5.64 4.01 7.538-2.783.995-5.879.734-8.468-.756zm19.435 0c-2.586 1.488-5.679 1.75-8.46.759.95-.795 1.776-1.747 2.42-2.798.18-.296.087-.681-.21-.862-.297-.18-.684-.086-.865.21-.67 1.094-1.562 2.07-2.596 2.84-2.555-1.9-4.067-4.887-4.067-8.075 0-3.189 1.512-6.175 4.067-8.075 2.555 1.9 4.068 4.886 4.068 8.075 0 1.158-.196 2.293-.581 3.373-.117.326.054.684.382.8.327.116.687-.054.803-.38.307-.86.506-1.751.597-2.66.123-.078.249-.154.375-.226 2.771-1.595 6.123-1.783 9.052-.528-.373 3.155-2.213 5.953-4.985 7.547z" transform="translate(0 -6)"/>
    </g>
</svg>
